G04 EAGLE Gerber RS-274X export*
G75*
%MOMM*%
%FSLAX34Y34*%
%LPD*%
%INSoldermask Bottom*%
%IPPOS*%
%AMOC8*
5,1,8,0,0,1.08239X$1,22.5*%
G01*
%ADD10C,1.152400*%
%ADD11C,3.454400*%
%ADD12C,0.251966*%
%ADD13C,2.032000*%
%ADD14C,2.152400*%
%ADD15C,2.452400*%
%ADD16C,1.052400*%
%ADD17C,1.422400*%
%ADD18C,1.270000*%
%ADD19C,1.652400*%

G36*
X794450Y1519567D02*
X794450Y1519567D01*
X794516Y1519569D01*
X794559Y1519587D01*
X794606Y1519595D01*
X794663Y1519629D01*
X794723Y1519654D01*
X794758Y1519685D01*
X794799Y1519710D01*
X794841Y1519761D01*
X794889Y1519805D01*
X794911Y1519847D01*
X794940Y1519884D01*
X794961Y1519946D01*
X794992Y1520005D01*
X795000Y1520059D01*
X795012Y1520096D01*
X795011Y1520136D01*
X795019Y1520190D01*
X795019Y1522730D01*
X795008Y1522795D01*
X795006Y1522861D01*
X794988Y1522904D01*
X794980Y1522951D01*
X794946Y1523008D01*
X794921Y1523068D01*
X794890Y1523103D01*
X794865Y1523144D01*
X794814Y1523186D01*
X794770Y1523234D01*
X794728Y1523256D01*
X794691Y1523285D01*
X794629Y1523306D01*
X794570Y1523337D01*
X794516Y1523345D01*
X794479Y1523357D01*
X794439Y1523356D01*
X794385Y1523364D01*
X790575Y1523364D01*
X790510Y1523353D01*
X790444Y1523351D01*
X790401Y1523333D01*
X790354Y1523325D01*
X790297Y1523291D01*
X790237Y1523266D01*
X790202Y1523235D01*
X790161Y1523210D01*
X790120Y1523159D01*
X790071Y1523115D01*
X790049Y1523073D01*
X790020Y1523036D01*
X789999Y1522974D01*
X789968Y1522915D01*
X789960Y1522861D01*
X789948Y1522824D01*
X789948Y1522821D01*
X789949Y1522784D01*
X789941Y1522730D01*
X789941Y1520190D01*
X789952Y1520125D01*
X789954Y1520059D01*
X789972Y1520016D01*
X789980Y1519969D01*
X790014Y1519912D01*
X790039Y1519852D01*
X790070Y1519817D01*
X790095Y1519776D01*
X790146Y1519735D01*
X790190Y1519686D01*
X790232Y1519664D01*
X790269Y1519635D01*
X790331Y1519614D01*
X790390Y1519583D01*
X790444Y1519575D01*
X790481Y1519563D01*
X790521Y1519564D01*
X790575Y1519556D01*
X794385Y1519556D01*
X794450Y1519567D01*
G37*
G36*
X154370Y1519567D02*
X154370Y1519567D01*
X154436Y1519569D01*
X154479Y1519587D01*
X154526Y1519595D01*
X154583Y1519629D01*
X154643Y1519654D01*
X154678Y1519685D01*
X154719Y1519710D01*
X154761Y1519761D01*
X154809Y1519805D01*
X154831Y1519847D01*
X154860Y1519884D01*
X154881Y1519946D01*
X154912Y1520005D01*
X154920Y1520059D01*
X154932Y1520096D01*
X154931Y1520136D01*
X154939Y1520190D01*
X154939Y1522730D01*
X154928Y1522795D01*
X154926Y1522861D01*
X154908Y1522904D01*
X154900Y1522951D01*
X154866Y1523008D01*
X154841Y1523068D01*
X154810Y1523103D01*
X154785Y1523144D01*
X154734Y1523186D01*
X154690Y1523234D01*
X154648Y1523256D01*
X154611Y1523285D01*
X154549Y1523306D01*
X154490Y1523337D01*
X154436Y1523345D01*
X154399Y1523357D01*
X154359Y1523356D01*
X154305Y1523364D01*
X150495Y1523364D01*
X150430Y1523353D01*
X150364Y1523351D01*
X150321Y1523333D01*
X150274Y1523325D01*
X150217Y1523291D01*
X150157Y1523266D01*
X150122Y1523235D01*
X150081Y1523210D01*
X150040Y1523159D01*
X149991Y1523115D01*
X149969Y1523073D01*
X149940Y1523036D01*
X149919Y1522974D01*
X149888Y1522915D01*
X149880Y1522861D01*
X149868Y1522824D01*
X149868Y1522821D01*
X149869Y1522784D01*
X149861Y1522730D01*
X149861Y1520190D01*
X149872Y1520125D01*
X149874Y1520059D01*
X149892Y1520016D01*
X149900Y1519969D01*
X149934Y1519912D01*
X149959Y1519852D01*
X149990Y1519817D01*
X150015Y1519776D01*
X150066Y1519735D01*
X150110Y1519686D01*
X150152Y1519664D01*
X150189Y1519635D01*
X150251Y1519614D01*
X150310Y1519583D01*
X150364Y1519575D01*
X150401Y1519563D01*
X150441Y1519564D01*
X150495Y1519556D01*
X154305Y1519556D01*
X154370Y1519567D01*
G37*
G36*
X479490Y1335417D02*
X479490Y1335417D01*
X479556Y1335419D01*
X479599Y1335437D01*
X479646Y1335445D01*
X479703Y1335479D01*
X479763Y1335504D01*
X479798Y1335535D01*
X479839Y1335560D01*
X479881Y1335611D01*
X479929Y1335655D01*
X479951Y1335697D01*
X479980Y1335734D01*
X480001Y1335796D01*
X480032Y1335855D01*
X480040Y1335909D01*
X480052Y1335946D01*
X480051Y1335986D01*
X480059Y1336040D01*
X480059Y1338580D01*
X480048Y1338645D01*
X480046Y1338711D01*
X480028Y1338754D01*
X480020Y1338801D01*
X479986Y1338858D01*
X479961Y1338918D01*
X479930Y1338953D01*
X479905Y1338994D01*
X479854Y1339036D01*
X479810Y1339084D01*
X479768Y1339106D01*
X479731Y1339135D01*
X479669Y1339156D01*
X479610Y1339187D01*
X479556Y1339195D01*
X479519Y1339207D01*
X479479Y1339206D01*
X479425Y1339214D01*
X475615Y1339214D01*
X475550Y1339203D01*
X475484Y1339201D01*
X475441Y1339183D01*
X475394Y1339175D01*
X475337Y1339141D01*
X475277Y1339116D01*
X475242Y1339085D01*
X475201Y1339060D01*
X475160Y1339009D01*
X475111Y1338965D01*
X475089Y1338923D01*
X475060Y1338886D01*
X475039Y1338824D01*
X475008Y1338765D01*
X475000Y1338711D01*
X474988Y1338674D01*
X474988Y1338671D01*
X474989Y1338634D01*
X474981Y1338580D01*
X474981Y1336040D01*
X474992Y1335975D01*
X474994Y1335909D01*
X475012Y1335866D01*
X475020Y1335819D01*
X475054Y1335762D01*
X475079Y1335702D01*
X475110Y1335667D01*
X475135Y1335626D01*
X475186Y1335585D01*
X475230Y1335536D01*
X475272Y1335514D01*
X475309Y1335485D01*
X475371Y1335464D01*
X475430Y1335433D01*
X475484Y1335425D01*
X475521Y1335413D01*
X475561Y1335414D01*
X475615Y1335406D01*
X479425Y1335406D01*
X479490Y1335417D01*
G37*
G36*
X1119570Y1335417D02*
X1119570Y1335417D01*
X1119636Y1335419D01*
X1119679Y1335437D01*
X1119726Y1335445D01*
X1119783Y1335479D01*
X1119843Y1335504D01*
X1119878Y1335535D01*
X1119919Y1335560D01*
X1119961Y1335611D01*
X1120009Y1335655D01*
X1120031Y1335697D01*
X1120060Y1335734D01*
X1120081Y1335796D01*
X1120112Y1335855D01*
X1120120Y1335909D01*
X1120132Y1335946D01*
X1120131Y1335986D01*
X1120139Y1336040D01*
X1120139Y1338580D01*
X1120128Y1338645D01*
X1120126Y1338711D01*
X1120108Y1338754D01*
X1120100Y1338801D01*
X1120066Y1338858D01*
X1120041Y1338918D01*
X1120010Y1338953D01*
X1119985Y1338994D01*
X1119934Y1339036D01*
X1119890Y1339084D01*
X1119848Y1339106D01*
X1119811Y1339135D01*
X1119749Y1339156D01*
X1119690Y1339187D01*
X1119636Y1339195D01*
X1119599Y1339207D01*
X1119559Y1339206D01*
X1119505Y1339214D01*
X1115695Y1339214D01*
X1115630Y1339203D01*
X1115564Y1339201D01*
X1115521Y1339183D01*
X1115474Y1339175D01*
X1115417Y1339141D01*
X1115357Y1339116D01*
X1115322Y1339085D01*
X1115281Y1339060D01*
X1115240Y1339009D01*
X1115191Y1338965D01*
X1115169Y1338923D01*
X1115140Y1338886D01*
X1115119Y1338824D01*
X1115088Y1338765D01*
X1115080Y1338711D01*
X1115068Y1338674D01*
X1115068Y1338671D01*
X1115069Y1338634D01*
X1115061Y1338580D01*
X1115061Y1336040D01*
X1115072Y1335975D01*
X1115074Y1335909D01*
X1115092Y1335866D01*
X1115100Y1335819D01*
X1115134Y1335762D01*
X1115159Y1335702D01*
X1115190Y1335667D01*
X1115215Y1335626D01*
X1115266Y1335585D01*
X1115310Y1335536D01*
X1115352Y1335514D01*
X1115389Y1335485D01*
X1115451Y1335464D01*
X1115510Y1335433D01*
X1115564Y1335425D01*
X1115601Y1335413D01*
X1115641Y1335414D01*
X1115695Y1335406D01*
X1119505Y1335406D01*
X1119570Y1335417D01*
G37*
G36*
X769050Y1417967D02*
X769050Y1417967D01*
X769116Y1417969D01*
X769159Y1417987D01*
X769206Y1417995D01*
X769263Y1418029D01*
X769323Y1418054D01*
X769358Y1418085D01*
X769399Y1418110D01*
X769441Y1418161D01*
X769489Y1418205D01*
X769511Y1418247D01*
X769540Y1418284D01*
X769561Y1418346D01*
X769592Y1418405D01*
X769600Y1418459D01*
X769612Y1418496D01*
X769611Y1418536D01*
X769619Y1418590D01*
X769619Y1421130D01*
X769608Y1421195D01*
X769606Y1421261D01*
X769588Y1421304D01*
X769580Y1421351D01*
X769546Y1421408D01*
X769521Y1421468D01*
X769490Y1421503D01*
X769465Y1421544D01*
X769414Y1421586D01*
X769370Y1421634D01*
X769328Y1421656D01*
X769291Y1421685D01*
X769229Y1421706D01*
X769170Y1421737D01*
X769116Y1421745D01*
X769079Y1421757D01*
X769039Y1421756D01*
X768985Y1421764D01*
X765175Y1421764D01*
X765110Y1421753D01*
X765044Y1421751D01*
X765001Y1421733D01*
X764954Y1421725D01*
X764897Y1421691D01*
X764837Y1421666D01*
X764802Y1421635D01*
X764761Y1421610D01*
X764720Y1421559D01*
X764671Y1421515D01*
X764649Y1421473D01*
X764620Y1421436D01*
X764599Y1421374D01*
X764568Y1421315D01*
X764560Y1421261D01*
X764548Y1421224D01*
X764548Y1421221D01*
X764549Y1421184D01*
X764541Y1421130D01*
X764541Y1418590D01*
X764552Y1418525D01*
X764554Y1418459D01*
X764572Y1418416D01*
X764580Y1418369D01*
X764614Y1418312D01*
X764639Y1418252D01*
X764670Y1418217D01*
X764695Y1418176D01*
X764746Y1418135D01*
X764790Y1418086D01*
X764832Y1418064D01*
X764869Y1418035D01*
X764931Y1418014D01*
X764990Y1417983D01*
X765044Y1417975D01*
X765081Y1417963D01*
X765121Y1417964D01*
X765175Y1417956D01*
X768985Y1417956D01*
X769050Y1417967D01*
G37*
G36*
X1150050Y1417967D02*
X1150050Y1417967D01*
X1150116Y1417969D01*
X1150159Y1417987D01*
X1150206Y1417995D01*
X1150263Y1418029D01*
X1150323Y1418054D01*
X1150358Y1418085D01*
X1150399Y1418110D01*
X1150441Y1418161D01*
X1150489Y1418205D01*
X1150511Y1418247D01*
X1150540Y1418284D01*
X1150561Y1418346D01*
X1150592Y1418405D01*
X1150600Y1418459D01*
X1150612Y1418496D01*
X1150611Y1418536D01*
X1150619Y1418590D01*
X1150619Y1421130D01*
X1150608Y1421195D01*
X1150606Y1421261D01*
X1150588Y1421304D01*
X1150580Y1421351D01*
X1150546Y1421408D01*
X1150521Y1421468D01*
X1150490Y1421503D01*
X1150465Y1421544D01*
X1150414Y1421586D01*
X1150370Y1421634D01*
X1150328Y1421656D01*
X1150291Y1421685D01*
X1150229Y1421706D01*
X1150170Y1421737D01*
X1150116Y1421745D01*
X1150079Y1421757D01*
X1150039Y1421756D01*
X1149985Y1421764D01*
X1146175Y1421764D01*
X1146110Y1421753D01*
X1146044Y1421751D01*
X1146001Y1421733D01*
X1145954Y1421725D01*
X1145897Y1421691D01*
X1145837Y1421666D01*
X1145802Y1421635D01*
X1145761Y1421610D01*
X1145720Y1421559D01*
X1145671Y1421515D01*
X1145649Y1421473D01*
X1145620Y1421436D01*
X1145599Y1421374D01*
X1145568Y1421315D01*
X1145560Y1421261D01*
X1145548Y1421224D01*
X1145548Y1421221D01*
X1145549Y1421184D01*
X1145541Y1421130D01*
X1145541Y1418590D01*
X1145552Y1418525D01*
X1145554Y1418459D01*
X1145572Y1418416D01*
X1145580Y1418369D01*
X1145614Y1418312D01*
X1145639Y1418252D01*
X1145670Y1418217D01*
X1145695Y1418176D01*
X1145746Y1418135D01*
X1145790Y1418086D01*
X1145832Y1418064D01*
X1145869Y1418035D01*
X1145931Y1418014D01*
X1145990Y1417983D01*
X1146044Y1417975D01*
X1146081Y1417963D01*
X1146121Y1417964D01*
X1146175Y1417956D01*
X1149985Y1417956D01*
X1150050Y1417967D01*
G37*
G36*
X509970Y1417967D02*
X509970Y1417967D01*
X510036Y1417969D01*
X510079Y1417987D01*
X510126Y1417995D01*
X510183Y1418029D01*
X510243Y1418054D01*
X510278Y1418085D01*
X510319Y1418110D01*
X510361Y1418161D01*
X510409Y1418205D01*
X510431Y1418247D01*
X510460Y1418284D01*
X510481Y1418346D01*
X510512Y1418405D01*
X510520Y1418459D01*
X510532Y1418496D01*
X510531Y1418536D01*
X510539Y1418590D01*
X510539Y1421130D01*
X510528Y1421195D01*
X510526Y1421261D01*
X510508Y1421304D01*
X510500Y1421351D01*
X510466Y1421408D01*
X510441Y1421468D01*
X510410Y1421503D01*
X510385Y1421544D01*
X510334Y1421586D01*
X510290Y1421634D01*
X510248Y1421656D01*
X510211Y1421685D01*
X510149Y1421706D01*
X510090Y1421737D01*
X510036Y1421745D01*
X509999Y1421757D01*
X509959Y1421756D01*
X509905Y1421764D01*
X506095Y1421764D01*
X506030Y1421753D01*
X505964Y1421751D01*
X505921Y1421733D01*
X505874Y1421725D01*
X505817Y1421691D01*
X505757Y1421666D01*
X505722Y1421635D01*
X505681Y1421610D01*
X505640Y1421559D01*
X505591Y1421515D01*
X505569Y1421473D01*
X505540Y1421436D01*
X505519Y1421374D01*
X505488Y1421315D01*
X505480Y1421261D01*
X505468Y1421224D01*
X505468Y1421221D01*
X505469Y1421184D01*
X505461Y1421130D01*
X505461Y1418590D01*
X505472Y1418525D01*
X505474Y1418459D01*
X505492Y1418416D01*
X505500Y1418369D01*
X505534Y1418312D01*
X505559Y1418252D01*
X505590Y1418217D01*
X505615Y1418176D01*
X505666Y1418135D01*
X505710Y1418086D01*
X505752Y1418064D01*
X505789Y1418035D01*
X505851Y1418014D01*
X505910Y1417983D01*
X505964Y1417975D01*
X506001Y1417963D01*
X506041Y1417964D01*
X506095Y1417956D01*
X509905Y1417956D01*
X509970Y1417967D01*
G37*
G36*
X128970Y1417967D02*
X128970Y1417967D01*
X129036Y1417969D01*
X129079Y1417987D01*
X129126Y1417995D01*
X129183Y1418029D01*
X129243Y1418054D01*
X129278Y1418085D01*
X129319Y1418110D01*
X129361Y1418161D01*
X129409Y1418205D01*
X129431Y1418247D01*
X129460Y1418284D01*
X129481Y1418346D01*
X129512Y1418405D01*
X129520Y1418459D01*
X129532Y1418496D01*
X129531Y1418536D01*
X129539Y1418590D01*
X129539Y1421130D01*
X129528Y1421195D01*
X129526Y1421261D01*
X129508Y1421304D01*
X129500Y1421351D01*
X129466Y1421408D01*
X129441Y1421468D01*
X129410Y1421503D01*
X129385Y1421544D01*
X129334Y1421586D01*
X129290Y1421634D01*
X129248Y1421656D01*
X129211Y1421685D01*
X129149Y1421706D01*
X129090Y1421737D01*
X129036Y1421745D01*
X128999Y1421757D01*
X128959Y1421756D01*
X128905Y1421764D01*
X125095Y1421764D01*
X125030Y1421753D01*
X124964Y1421751D01*
X124921Y1421733D01*
X124874Y1421725D01*
X124817Y1421691D01*
X124757Y1421666D01*
X124722Y1421635D01*
X124681Y1421610D01*
X124640Y1421559D01*
X124591Y1421515D01*
X124569Y1421473D01*
X124540Y1421436D01*
X124519Y1421374D01*
X124488Y1421315D01*
X124480Y1421261D01*
X124468Y1421224D01*
X124468Y1421221D01*
X124469Y1421184D01*
X124461Y1421130D01*
X124461Y1418590D01*
X124472Y1418525D01*
X124474Y1418459D01*
X124492Y1418416D01*
X124500Y1418369D01*
X124534Y1418312D01*
X124559Y1418252D01*
X124590Y1418217D01*
X124615Y1418176D01*
X124666Y1418135D01*
X124710Y1418086D01*
X124752Y1418064D01*
X124789Y1418035D01*
X124851Y1418014D01*
X124910Y1417983D01*
X124964Y1417975D01*
X125001Y1417963D01*
X125041Y1417964D01*
X125095Y1417956D01*
X128905Y1417956D01*
X128970Y1417967D01*
G37*
G36*
X489650Y1335417D02*
X489650Y1335417D01*
X489716Y1335419D01*
X489759Y1335437D01*
X489806Y1335445D01*
X489863Y1335479D01*
X489923Y1335504D01*
X489958Y1335535D01*
X489999Y1335560D01*
X490041Y1335611D01*
X490089Y1335655D01*
X490111Y1335697D01*
X490140Y1335734D01*
X490161Y1335796D01*
X490192Y1335855D01*
X490200Y1335909D01*
X490212Y1335946D01*
X490211Y1335986D01*
X490219Y1336040D01*
X490219Y1338580D01*
X490208Y1338645D01*
X490206Y1338711D01*
X490188Y1338754D01*
X490180Y1338801D01*
X490146Y1338858D01*
X490121Y1338918D01*
X490090Y1338953D01*
X490065Y1338994D01*
X490014Y1339036D01*
X489970Y1339084D01*
X489928Y1339106D01*
X489891Y1339135D01*
X489829Y1339156D01*
X489770Y1339187D01*
X489716Y1339195D01*
X489679Y1339207D01*
X489639Y1339206D01*
X489585Y1339214D01*
X485775Y1339214D01*
X485710Y1339203D01*
X485644Y1339201D01*
X485601Y1339183D01*
X485554Y1339175D01*
X485497Y1339141D01*
X485437Y1339116D01*
X485402Y1339085D01*
X485361Y1339060D01*
X485320Y1339009D01*
X485271Y1338965D01*
X485249Y1338923D01*
X485220Y1338886D01*
X485199Y1338824D01*
X485168Y1338765D01*
X485160Y1338711D01*
X485148Y1338674D01*
X485148Y1338671D01*
X485149Y1338634D01*
X485141Y1338580D01*
X485141Y1336040D01*
X485152Y1335975D01*
X485154Y1335909D01*
X485172Y1335866D01*
X485180Y1335819D01*
X485214Y1335762D01*
X485239Y1335702D01*
X485270Y1335667D01*
X485295Y1335626D01*
X485346Y1335585D01*
X485390Y1335536D01*
X485432Y1335514D01*
X485469Y1335485D01*
X485531Y1335464D01*
X485590Y1335433D01*
X485644Y1335425D01*
X485681Y1335413D01*
X485721Y1335414D01*
X485775Y1335406D01*
X489585Y1335406D01*
X489650Y1335417D01*
G37*
G36*
X446470Y1335417D02*
X446470Y1335417D01*
X446536Y1335419D01*
X446579Y1335437D01*
X446626Y1335445D01*
X446683Y1335479D01*
X446743Y1335504D01*
X446778Y1335535D01*
X446819Y1335560D01*
X446861Y1335611D01*
X446909Y1335655D01*
X446931Y1335697D01*
X446960Y1335734D01*
X446981Y1335796D01*
X447012Y1335855D01*
X447020Y1335909D01*
X447032Y1335946D01*
X447031Y1335986D01*
X447039Y1336040D01*
X447039Y1338580D01*
X447028Y1338645D01*
X447026Y1338711D01*
X447008Y1338754D01*
X447000Y1338801D01*
X446966Y1338858D01*
X446941Y1338918D01*
X446910Y1338953D01*
X446885Y1338994D01*
X446834Y1339036D01*
X446790Y1339084D01*
X446748Y1339106D01*
X446711Y1339135D01*
X446649Y1339156D01*
X446590Y1339187D01*
X446536Y1339195D01*
X446499Y1339207D01*
X446459Y1339206D01*
X446405Y1339214D01*
X442595Y1339214D01*
X442530Y1339203D01*
X442464Y1339201D01*
X442421Y1339183D01*
X442374Y1339175D01*
X442317Y1339141D01*
X442257Y1339116D01*
X442222Y1339085D01*
X442181Y1339060D01*
X442140Y1339009D01*
X442091Y1338965D01*
X442069Y1338923D01*
X442040Y1338886D01*
X442019Y1338824D01*
X441988Y1338765D01*
X441980Y1338711D01*
X441968Y1338674D01*
X441968Y1338671D01*
X441969Y1338634D01*
X441961Y1338580D01*
X441961Y1336040D01*
X441972Y1335975D01*
X441974Y1335909D01*
X441992Y1335866D01*
X442000Y1335819D01*
X442034Y1335762D01*
X442059Y1335702D01*
X442090Y1335667D01*
X442115Y1335626D01*
X442166Y1335585D01*
X442210Y1335536D01*
X442252Y1335514D01*
X442289Y1335485D01*
X442351Y1335464D01*
X442410Y1335433D01*
X442464Y1335425D01*
X442501Y1335413D01*
X442541Y1335414D01*
X442595Y1335406D01*
X446405Y1335406D01*
X446470Y1335417D01*
G37*
G36*
X1086550Y1335417D02*
X1086550Y1335417D01*
X1086616Y1335419D01*
X1086659Y1335437D01*
X1086706Y1335445D01*
X1086763Y1335479D01*
X1086823Y1335504D01*
X1086858Y1335535D01*
X1086899Y1335560D01*
X1086941Y1335611D01*
X1086989Y1335655D01*
X1087011Y1335697D01*
X1087040Y1335734D01*
X1087061Y1335796D01*
X1087092Y1335855D01*
X1087100Y1335909D01*
X1087112Y1335946D01*
X1087111Y1335986D01*
X1087119Y1336040D01*
X1087119Y1338580D01*
X1087108Y1338645D01*
X1087106Y1338711D01*
X1087088Y1338754D01*
X1087080Y1338801D01*
X1087046Y1338858D01*
X1087021Y1338918D01*
X1086990Y1338953D01*
X1086965Y1338994D01*
X1086914Y1339036D01*
X1086870Y1339084D01*
X1086828Y1339106D01*
X1086791Y1339135D01*
X1086729Y1339156D01*
X1086670Y1339187D01*
X1086616Y1339195D01*
X1086579Y1339207D01*
X1086539Y1339206D01*
X1086485Y1339214D01*
X1082675Y1339214D01*
X1082610Y1339203D01*
X1082544Y1339201D01*
X1082501Y1339183D01*
X1082454Y1339175D01*
X1082397Y1339141D01*
X1082337Y1339116D01*
X1082302Y1339085D01*
X1082261Y1339060D01*
X1082220Y1339009D01*
X1082171Y1338965D01*
X1082149Y1338923D01*
X1082120Y1338886D01*
X1082099Y1338824D01*
X1082068Y1338765D01*
X1082060Y1338711D01*
X1082048Y1338674D01*
X1082048Y1338671D01*
X1082049Y1338634D01*
X1082041Y1338580D01*
X1082041Y1336040D01*
X1082052Y1335975D01*
X1082054Y1335909D01*
X1082072Y1335866D01*
X1082080Y1335819D01*
X1082114Y1335762D01*
X1082139Y1335702D01*
X1082170Y1335667D01*
X1082195Y1335626D01*
X1082246Y1335585D01*
X1082290Y1335536D01*
X1082332Y1335514D01*
X1082369Y1335485D01*
X1082431Y1335464D01*
X1082490Y1335433D01*
X1082544Y1335425D01*
X1082581Y1335413D01*
X1082621Y1335414D01*
X1082675Y1335406D01*
X1086485Y1335406D01*
X1086550Y1335417D01*
G37*
G36*
X1129730Y1335417D02*
X1129730Y1335417D01*
X1129796Y1335419D01*
X1129839Y1335437D01*
X1129886Y1335445D01*
X1129943Y1335479D01*
X1130003Y1335504D01*
X1130038Y1335535D01*
X1130079Y1335560D01*
X1130121Y1335611D01*
X1130169Y1335655D01*
X1130191Y1335697D01*
X1130220Y1335734D01*
X1130241Y1335796D01*
X1130272Y1335855D01*
X1130280Y1335909D01*
X1130292Y1335946D01*
X1130291Y1335986D01*
X1130299Y1336040D01*
X1130299Y1338580D01*
X1130288Y1338645D01*
X1130286Y1338711D01*
X1130268Y1338754D01*
X1130260Y1338801D01*
X1130226Y1338858D01*
X1130201Y1338918D01*
X1130170Y1338953D01*
X1130145Y1338994D01*
X1130094Y1339036D01*
X1130050Y1339084D01*
X1130008Y1339106D01*
X1129971Y1339135D01*
X1129909Y1339156D01*
X1129850Y1339187D01*
X1129796Y1339195D01*
X1129759Y1339207D01*
X1129719Y1339206D01*
X1129665Y1339214D01*
X1125855Y1339214D01*
X1125790Y1339203D01*
X1125724Y1339201D01*
X1125681Y1339183D01*
X1125634Y1339175D01*
X1125577Y1339141D01*
X1125517Y1339116D01*
X1125482Y1339085D01*
X1125441Y1339060D01*
X1125400Y1339009D01*
X1125351Y1338965D01*
X1125329Y1338923D01*
X1125300Y1338886D01*
X1125279Y1338824D01*
X1125248Y1338765D01*
X1125240Y1338711D01*
X1125228Y1338674D01*
X1125228Y1338671D01*
X1125229Y1338634D01*
X1125221Y1338580D01*
X1125221Y1336040D01*
X1125232Y1335975D01*
X1125234Y1335909D01*
X1125252Y1335866D01*
X1125260Y1335819D01*
X1125294Y1335762D01*
X1125319Y1335702D01*
X1125350Y1335667D01*
X1125375Y1335626D01*
X1125426Y1335585D01*
X1125470Y1335536D01*
X1125512Y1335514D01*
X1125549Y1335485D01*
X1125611Y1335464D01*
X1125670Y1335433D01*
X1125724Y1335425D01*
X1125761Y1335413D01*
X1125801Y1335414D01*
X1125855Y1335406D01*
X1129665Y1335406D01*
X1129730Y1335417D01*
G37*
G36*
X1245300Y106057D02*
X1245300Y106057D01*
X1245366Y106059D01*
X1245409Y106077D01*
X1245456Y106085D01*
X1245513Y106119D01*
X1245573Y106144D01*
X1245608Y106175D01*
X1245649Y106200D01*
X1245691Y106251D01*
X1245739Y106295D01*
X1245761Y106337D01*
X1245790Y106374D01*
X1245811Y106436D01*
X1245842Y106495D01*
X1245850Y106549D01*
X1245862Y106586D01*
X1245861Y106626D01*
X1245869Y106680D01*
X1245869Y109220D01*
X1245858Y109285D01*
X1245856Y109351D01*
X1245838Y109394D01*
X1245830Y109441D01*
X1245796Y109498D01*
X1245771Y109558D01*
X1245740Y109593D01*
X1245715Y109634D01*
X1245664Y109676D01*
X1245620Y109724D01*
X1245578Y109746D01*
X1245541Y109775D01*
X1245479Y109796D01*
X1245420Y109827D01*
X1245366Y109835D01*
X1245329Y109847D01*
X1245289Y109846D01*
X1245235Y109854D01*
X1241425Y109854D01*
X1241360Y109843D01*
X1241294Y109841D01*
X1241251Y109823D01*
X1241204Y109815D01*
X1241147Y109781D01*
X1241087Y109756D01*
X1241052Y109725D01*
X1241011Y109700D01*
X1240970Y109649D01*
X1240921Y109605D01*
X1240899Y109563D01*
X1240870Y109526D01*
X1240849Y109464D01*
X1240818Y109405D01*
X1240810Y109351D01*
X1240798Y109314D01*
X1240798Y109311D01*
X1240799Y109274D01*
X1240791Y109220D01*
X1240791Y106680D01*
X1240802Y106615D01*
X1240804Y106549D01*
X1240822Y106506D01*
X1240830Y106459D01*
X1240864Y106402D01*
X1240889Y106342D01*
X1240920Y106307D01*
X1240945Y106266D01*
X1240996Y106225D01*
X1241040Y106176D01*
X1241082Y106154D01*
X1241119Y106125D01*
X1241181Y106104D01*
X1241240Y106073D01*
X1241294Y106065D01*
X1241331Y106053D01*
X1241371Y106054D01*
X1241425Y106046D01*
X1245235Y106046D01*
X1245300Y106057D01*
G37*
G36*
X605220Y106057D02*
X605220Y106057D01*
X605286Y106059D01*
X605329Y106077D01*
X605376Y106085D01*
X605433Y106119D01*
X605493Y106144D01*
X605528Y106175D01*
X605569Y106200D01*
X605611Y106251D01*
X605659Y106295D01*
X605681Y106337D01*
X605710Y106374D01*
X605731Y106436D01*
X605762Y106495D01*
X605770Y106549D01*
X605782Y106586D01*
X605781Y106626D01*
X605789Y106680D01*
X605789Y109220D01*
X605778Y109285D01*
X605776Y109351D01*
X605758Y109394D01*
X605750Y109441D01*
X605716Y109498D01*
X605691Y109558D01*
X605660Y109593D01*
X605635Y109634D01*
X605584Y109676D01*
X605540Y109724D01*
X605498Y109746D01*
X605461Y109775D01*
X605399Y109796D01*
X605340Y109827D01*
X605286Y109835D01*
X605249Y109847D01*
X605209Y109846D01*
X605155Y109854D01*
X601345Y109854D01*
X601280Y109843D01*
X601214Y109841D01*
X601171Y109823D01*
X601124Y109815D01*
X601067Y109781D01*
X601007Y109756D01*
X600972Y109725D01*
X600931Y109700D01*
X600890Y109649D01*
X600841Y109605D01*
X600819Y109563D01*
X600790Y109526D01*
X600769Y109464D01*
X600738Y109405D01*
X600730Y109351D01*
X600718Y109314D01*
X600718Y109311D01*
X600719Y109274D01*
X600711Y109220D01*
X600711Y106680D01*
X600722Y106615D01*
X600724Y106549D01*
X600742Y106506D01*
X600750Y106459D01*
X600784Y106402D01*
X600809Y106342D01*
X600840Y106307D01*
X600865Y106266D01*
X600916Y106225D01*
X600960Y106176D01*
X601002Y106154D01*
X601039Y106125D01*
X601101Y106104D01*
X601160Y106073D01*
X601214Y106065D01*
X601251Y106053D01*
X601291Y106054D01*
X601345Y106046D01*
X605155Y106046D01*
X605220Y106057D01*
G37*
G36*
X1245300Y1195717D02*
X1245300Y1195717D01*
X1245366Y1195719D01*
X1245409Y1195737D01*
X1245456Y1195745D01*
X1245513Y1195779D01*
X1245573Y1195804D01*
X1245608Y1195835D01*
X1245649Y1195860D01*
X1245691Y1195911D01*
X1245739Y1195955D01*
X1245761Y1195997D01*
X1245790Y1196034D01*
X1245811Y1196096D01*
X1245842Y1196155D01*
X1245850Y1196209D01*
X1245862Y1196246D01*
X1245861Y1196286D01*
X1245869Y1196340D01*
X1245869Y1198880D01*
X1245858Y1198945D01*
X1245856Y1199011D01*
X1245838Y1199054D01*
X1245830Y1199101D01*
X1245796Y1199158D01*
X1245771Y1199218D01*
X1245740Y1199253D01*
X1245715Y1199294D01*
X1245664Y1199336D01*
X1245620Y1199384D01*
X1245578Y1199406D01*
X1245541Y1199435D01*
X1245479Y1199456D01*
X1245420Y1199487D01*
X1245366Y1199495D01*
X1245329Y1199507D01*
X1245289Y1199506D01*
X1245235Y1199514D01*
X1241425Y1199514D01*
X1241360Y1199503D01*
X1241294Y1199501D01*
X1241251Y1199483D01*
X1241204Y1199475D01*
X1241147Y1199441D01*
X1241087Y1199416D01*
X1241052Y1199385D01*
X1241011Y1199360D01*
X1240970Y1199309D01*
X1240921Y1199265D01*
X1240899Y1199223D01*
X1240870Y1199186D01*
X1240849Y1199124D01*
X1240818Y1199065D01*
X1240810Y1199011D01*
X1240798Y1198974D01*
X1240798Y1198971D01*
X1240799Y1198934D01*
X1240791Y1198880D01*
X1240791Y1196340D01*
X1240802Y1196275D01*
X1240804Y1196209D01*
X1240822Y1196166D01*
X1240830Y1196119D01*
X1240864Y1196062D01*
X1240889Y1196002D01*
X1240920Y1195967D01*
X1240945Y1195926D01*
X1240996Y1195885D01*
X1241040Y1195836D01*
X1241082Y1195814D01*
X1241119Y1195785D01*
X1241181Y1195764D01*
X1241240Y1195733D01*
X1241294Y1195725D01*
X1241331Y1195713D01*
X1241371Y1195714D01*
X1241425Y1195706D01*
X1245235Y1195706D01*
X1245300Y1195717D01*
G37*
G36*
X605220Y1195717D02*
X605220Y1195717D01*
X605286Y1195719D01*
X605329Y1195737D01*
X605376Y1195745D01*
X605433Y1195779D01*
X605493Y1195804D01*
X605528Y1195835D01*
X605569Y1195860D01*
X605611Y1195911D01*
X605659Y1195955D01*
X605681Y1195997D01*
X605710Y1196034D01*
X605731Y1196096D01*
X605762Y1196155D01*
X605770Y1196209D01*
X605782Y1196246D01*
X605781Y1196286D01*
X605789Y1196340D01*
X605789Y1198880D01*
X605778Y1198945D01*
X605776Y1199011D01*
X605758Y1199054D01*
X605750Y1199101D01*
X605716Y1199158D01*
X605691Y1199218D01*
X605660Y1199253D01*
X605635Y1199294D01*
X605584Y1199336D01*
X605540Y1199384D01*
X605498Y1199406D01*
X605461Y1199435D01*
X605399Y1199456D01*
X605340Y1199487D01*
X605286Y1199495D01*
X605249Y1199507D01*
X605209Y1199506D01*
X605155Y1199514D01*
X601345Y1199514D01*
X601280Y1199503D01*
X601214Y1199501D01*
X601171Y1199483D01*
X601124Y1199475D01*
X601067Y1199441D01*
X601007Y1199416D01*
X600972Y1199385D01*
X600931Y1199360D01*
X600890Y1199309D01*
X600841Y1199265D01*
X600819Y1199223D01*
X600790Y1199186D01*
X600769Y1199124D01*
X600738Y1199065D01*
X600730Y1199011D01*
X600718Y1198974D01*
X600718Y1198971D01*
X600719Y1198934D01*
X600711Y1198880D01*
X600711Y1196340D01*
X600722Y1196275D01*
X600724Y1196209D01*
X600742Y1196166D01*
X600750Y1196119D01*
X600784Y1196062D01*
X600809Y1196002D01*
X600840Y1195967D01*
X600865Y1195926D01*
X600916Y1195885D01*
X600960Y1195836D01*
X601002Y1195814D01*
X601039Y1195785D01*
X601101Y1195764D01*
X601160Y1195733D01*
X601214Y1195725D01*
X601251Y1195713D01*
X601291Y1195714D01*
X601345Y1195706D01*
X605155Y1195706D01*
X605220Y1195717D01*
G37*
G36*
X1245300Y1170317D02*
X1245300Y1170317D01*
X1245366Y1170319D01*
X1245409Y1170337D01*
X1245456Y1170345D01*
X1245513Y1170379D01*
X1245573Y1170404D01*
X1245608Y1170435D01*
X1245649Y1170460D01*
X1245691Y1170511D01*
X1245739Y1170555D01*
X1245761Y1170597D01*
X1245790Y1170634D01*
X1245811Y1170696D01*
X1245842Y1170755D01*
X1245850Y1170809D01*
X1245862Y1170846D01*
X1245861Y1170886D01*
X1245869Y1170940D01*
X1245869Y1173480D01*
X1245858Y1173545D01*
X1245856Y1173611D01*
X1245838Y1173654D01*
X1245830Y1173701D01*
X1245796Y1173758D01*
X1245771Y1173818D01*
X1245740Y1173853D01*
X1245715Y1173894D01*
X1245664Y1173936D01*
X1245620Y1173984D01*
X1245578Y1174006D01*
X1245541Y1174035D01*
X1245479Y1174056D01*
X1245420Y1174087D01*
X1245366Y1174095D01*
X1245329Y1174107D01*
X1245289Y1174106D01*
X1245235Y1174114D01*
X1241425Y1174114D01*
X1241360Y1174103D01*
X1241294Y1174101D01*
X1241251Y1174083D01*
X1241204Y1174075D01*
X1241147Y1174041D01*
X1241087Y1174016D01*
X1241052Y1173985D01*
X1241011Y1173960D01*
X1240970Y1173909D01*
X1240921Y1173865D01*
X1240899Y1173823D01*
X1240870Y1173786D01*
X1240849Y1173724D01*
X1240818Y1173665D01*
X1240810Y1173611D01*
X1240798Y1173574D01*
X1240798Y1173571D01*
X1240799Y1173534D01*
X1240791Y1173480D01*
X1240791Y1170940D01*
X1240802Y1170875D01*
X1240804Y1170809D01*
X1240822Y1170766D01*
X1240830Y1170719D01*
X1240864Y1170662D01*
X1240889Y1170602D01*
X1240920Y1170567D01*
X1240945Y1170526D01*
X1240996Y1170485D01*
X1241040Y1170436D01*
X1241082Y1170414D01*
X1241119Y1170385D01*
X1241181Y1170364D01*
X1241240Y1170333D01*
X1241294Y1170325D01*
X1241331Y1170313D01*
X1241371Y1170314D01*
X1241425Y1170306D01*
X1245235Y1170306D01*
X1245300Y1170317D01*
G37*
G36*
X605220Y1170317D02*
X605220Y1170317D01*
X605286Y1170319D01*
X605329Y1170337D01*
X605376Y1170345D01*
X605433Y1170379D01*
X605493Y1170404D01*
X605528Y1170435D01*
X605569Y1170460D01*
X605611Y1170511D01*
X605659Y1170555D01*
X605681Y1170597D01*
X605710Y1170634D01*
X605731Y1170696D01*
X605762Y1170755D01*
X605770Y1170809D01*
X605782Y1170846D01*
X605781Y1170886D01*
X605789Y1170940D01*
X605789Y1173480D01*
X605778Y1173545D01*
X605776Y1173611D01*
X605758Y1173654D01*
X605750Y1173701D01*
X605716Y1173758D01*
X605691Y1173818D01*
X605660Y1173853D01*
X605635Y1173894D01*
X605584Y1173936D01*
X605540Y1173984D01*
X605498Y1174006D01*
X605461Y1174035D01*
X605399Y1174056D01*
X605340Y1174087D01*
X605286Y1174095D01*
X605249Y1174107D01*
X605209Y1174106D01*
X605155Y1174114D01*
X601345Y1174114D01*
X601280Y1174103D01*
X601214Y1174101D01*
X601171Y1174083D01*
X601124Y1174075D01*
X601067Y1174041D01*
X601007Y1174016D01*
X600972Y1173985D01*
X600931Y1173960D01*
X600890Y1173909D01*
X600841Y1173865D01*
X600819Y1173823D01*
X600790Y1173786D01*
X600769Y1173724D01*
X600738Y1173665D01*
X600730Y1173611D01*
X600718Y1173574D01*
X600718Y1173571D01*
X600719Y1173534D01*
X600711Y1173480D01*
X600711Y1170940D01*
X600722Y1170875D01*
X600724Y1170809D01*
X600742Y1170766D01*
X600750Y1170719D01*
X600784Y1170662D01*
X600809Y1170602D01*
X600840Y1170567D01*
X600865Y1170526D01*
X600916Y1170485D01*
X600960Y1170436D01*
X601002Y1170414D01*
X601039Y1170385D01*
X601101Y1170364D01*
X601160Y1170333D01*
X601214Y1170325D01*
X601251Y1170313D01*
X601291Y1170314D01*
X601345Y1170306D01*
X605155Y1170306D01*
X605220Y1170317D01*
G37*
G36*
X141670Y1132217D02*
X141670Y1132217D01*
X141736Y1132219D01*
X141779Y1132237D01*
X141826Y1132245D01*
X141883Y1132279D01*
X141943Y1132304D01*
X141978Y1132335D01*
X142019Y1132360D01*
X142061Y1132411D01*
X142109Y1132455D01*
X142131Y1132497D01*
X142160Y1132534D01*
X142181Y1132596D01*
X142212Y1132655D01*
X142220Y1132709D01*
X142232Y1132746D01*
X142231Y1132786D01*
X142239Y1132840D01*
X142239Y1135380D01*
X142228Y1135445D01*
X142226Y1135511D01*
X142208Y1135554D01*
X142200Y1135601D01*
X142166Y1135658D01*
X142141Y1135718D01*
X142110Y1135753D01*
X142085Y1135794D01*
X142034Y1135836D01*
X141990Y1135884D01*
X141948Y1135906D01*
X141911Y1135935D01*
X141849Y1135956D01*
X141790Y1135987D01*
X141736Y1135995D01*
X141699Y1136007D01*
X141659Y1136006D01*
X141605Y1136014D01*
X137795Y1136014D01*
X137730Y1136003D01*
X137664Y1136001D01*
X137621Y1135983D01*
X137574Y1135975D01*
X137517Y1135941D01*
X137457Y1135916D01*
X137422Y1135885D01*
X137381Y1135860D01*
X137340Y1135809D01*
X137291Y1135765D01*
X137269Y1135723D01*
X137240Y1135686D01*
X137219Y1135624D01*
X137188Y1135565D01*
X137180Y1135511D01*
X137168Y1135474D01*
X137168Y1135471D01*
X137169Y1135434D01*
X137161Y1135380D01*
X137161Y1132840D01*
X137172Y1132775D01*
X137174Y1132709D01*
X137192Y1132666D01*
X137200Y1132619D01*
X137234Y1132562D01*
X137259Y1132502D01*
X137290Y1132467D01*
X137315Y1132426D01*
X137366Y1132385D01*
X137410Y1132336D01*
X137452Y1132314D01*
X137489Y1132285D01*
X137551Y1132264D01*
X137610Y1132233D01*
X137664Y1132225D01*
X137701Y1132213D01*
X137741Y1132214D01*
X137795Y1132206D01*
X141605Y1132206D01*
X141670Y1132217D01*
G37*
G36*
X781750Y1132217D02*
X781750Y1132217D01*
X781816Y1132219D01*
X781859Y1132237D01*
X781906Y1132245D01*
X781963Y1132279D01*
X782023Y1132304D01*
X782058Y1132335D01*
X782099Y1132360D01*
X782141Y1132411D01*
X782189Y1132455D01*
X782211Y1132497D01*
X782240Y1132534D01*
X782261Y1132596D01*
X782292Y1132655D01*
X782300Y1132709D01*
X782312Y1132746D01*
X782311Y1132786D01*
X782319Y1132840D01*
X782319Y1135380D01*
X782308Y1135445D01*
X782306Y1135511D01*
X782288Y1135554D01*
X782280Y1135601D01*
X782246Y1135658D01*
X782221Y1135718D01*
X782190Y1135753D01*
X782165Y1135794D01*
X782114Y1135836D01*
X782070Y1135884D01*
X782028Y1135906D01*
X781991Y1135935D01*
X781929Y1135956D01*
X781870Y1135987D01*
X781816Y1135995D01*
X781779Y1136007D01*
X781739Y1136006D01*
X781685Y1136014D01*
X777875Y1136014D01*
X777810Y1136003D01*
X777744Y1136001D01*
X777701Y1135983D01*
X777654Y1135975D01*
X777597Y1135941D01*
X777537Y1135916D01*
X777502Y1135885D01*
X777461Y1135860D01*
X777420Y1135809D01*
X777371Y1135765D01*
X777349Y1135723D01*
X777320Y1135686D01*
X777299Y1135624D01*
X777268Y1135565D01*
X777260Y1135511D01*
X777248Y1135474D01*
X777248Y1135471D01*
X777249Y1135434D01*
X777241Y1135380D01*
X777241Y1132840D01*
X777252Y1132775D01*
X777254Y1132709D01*
X777272Y1132666D01*
X777280Y1132619D01*
X777314Y1132562D01*
X777339Y1132502D01*
X777370Y1132467D01*
X777395Y1132426D01*
X777446Y1132385D01*
X777490Y1132336D01*
X777532Y1132314D01*
X777569Y1132285D01*
X777631Y1132264D01*
X777690Y1132233D01*
X777744Y1132225D01*
X777781Y1132213D01*
X777821Y1132214D01*
X777875Y1132206D01*
X781685Y1132206D01*
X781750Y1132217D01*
G37*
G36*
X154370Y974737D02*
X154370Y974737D01*
X154436Y974739D01*
X154479Y974757D01*
X154526Y974765D01*
X154583Y974799D01*
X154643Y974824D01*
X154678Y974855D01*
X154719Y974880D01*
X154761Y974931D01*
X154809Y974975D01*
X154831Y975017D01*
X154860Y975054D01*
X154881Y975116D01*
X154912Y975175D01*
X154920Y975229D01*
X154932Y975266D01*
X154931Y975306D01*
X154939Y975360D01*
X154939Y977900D01*
X154928Y977965D01*
X154926Y978031D01*
X154908Y978074D01*
X154900Y978121D01*
X154866Y978178D01*
X154841Y978238D01*
X154810Y978273D01*
X154785Y978314D01*
X154734Y978356D01*
X154690Y978404D01*
X154648Y978426D01*
X154611Y978455D01*
X154549Y978476D01*
X154490Y978507D01*
X154436Y978515D01*
X154399Y978527D01*
X154359Y978526D01*
X154305Y978534D01*
X150495Y978534D01*
X150430Y978523D01*
X150364Y978521D01*
X150321Y978503D01*
X150274Y978495D01*
X150217Y978461D01*
X150157Y978436D01*
X150122Y978405D01*
X150081Y978380D01*
X150040Y978329D01*
X149991Y978285D01*
X149969Y978243D01*
X149940Y978206D01*
X149919Y978144D01*
X149888Y978085D01*
X149880Y978031D01*
X149868Y977994D01*
X149868Y977991D01*
X149869Y977954D01*
X149861Y977900D01*
X149861Y975360D01*
X149872Y975295D01*
X149874Y975229D01*
X149892Y975186D01*
X149900Y975139D01*
X149934Y975082D01*
X149959Y975022D01*
X149990Y974987D01*
X150015Y974946D01*
X150066Y974905D01*
X150110Y974856D01*
X150152Y974834D01*
X150189Y974805D01*
X150251Y974784D01*
X150310Y974753D01*
X150364Y974745D01*
X150401Y974733D01*
X150441Y974734D01*
X150495Y974726D01*
X154305Y974726D01*
X154370Y974737D01*
G37*
G36*
X794450Y974737D02*
X794450Y974737D01*
X794516Y974739D01*
X794559Y974757D01*
X794606Y974765D01*
X794663Y974799D01*
X794723Y974824D01*
X794758Y974855D01*
X794799Y974880D01*
X794841Y974931D01*
X794889Y974975D01*
X794911Y975017D01*
X794940Y975054D01*
X794961Y975116D01*
X794992Y975175D01*
X795000Y975229D01*
X795012Y975266D01*
X795011Y975306D01*
X795019Y975360D01*
X795019Y977900D01*
X795008Y977965D01*
X795006Y978031D01*
X794988Y978074D01*
X794980Y978121D01*
X794946Y978178D01*
X794921Y978238D01*
X794890Y978273D01*
X794865Y978314D01*
X794814Y978356D01*
X794770Y978404D01*
X794728Y978426D01*
X794691Y978455D01*
X794629Y978476D01*
X794570Y978507D01*
X794516Y978515D01*
X794479Y978527D01*
X794439Y978526D01*
X794385Y978534D01*
X790575Y978534D01*
X790510Y978523D01*
X790444Y978521D01*
X790401Y978503D01*
X790354Y978495D01*
X790297Y978461D01*
X790237Y978436D01*
X790202Y978405D01*
X790161Y978380D01*
X790120Y978329D01*
X790071Y978285D01*
X790049Y978243D01*
X790020Y978206D01*
X789999Y978144D01*
X789968Y978085D01*
X789960Y978031D01*
X789948Y977994D01*
X789948Y977991D01*
X789949Y977954D01*
X789941Y977900D01*
X789941Y975360D01*
X789952Y975295D01*
X789954Y975229D01*
X789972Y975186D01*
X789980Y975139D01*
X790014Y975082D01*
X790039Y975022D01*
X790070Y974987D01*
X790095Y974946D01*
X790146Y974905D01*
X790190Y974856D01*
X790232Y974834D01*
X790269Y974805D01*
X790331Y974784D01*
X790390Y974753D01*
X790444Y974745D01*
X790481Y974733D01*
X790521Y974734D01*
X790575Y974726D01*
X794385Y974726D01*
X794450Y974737D01*
G37*
G36*
X154370Y949337D02*
X154370Y949337D01*
X154436Y949339D01*
X154479Y949357D01*
X154526Y949365D01*
X154583Y949399D01*
X154643Y949424D01*
X154678Y949455D01*
X154719Y949480D01*
X154761Y949531D01*
X154809Y949575D01*
X154831Y949617D01*
X154860Y949654D01*
X154881Y949716D01*
X154912Y949775D01*
X154920Y949829D01*
X154932Y949866D01*
X154931Y949906D01*
X154939Y949960D01*
X154939Y952500D01*
X154928Y952565D01*
X154926Y952631D01*
X154908Y952674D01*
X154900Y952721D01*
X154866Y952778D01*
X154841Y952838D01*
X154810Y952873D01*
X154785Y952914D01*
X154734Y952956D01*
X154690Y953004D01*
X154648Y953026D01*
X154611Y953055D01*
X154549Y953076D01*
X154490Y953107D01*
X154436Y953115D01*
X154399Y953127D01*
X154359Y953126D01*
X154305Y953134D01*
X150495Y953134D01*
X150430Y953123D01*
X150364Y953121D01*
X150321Y953103D01*
X150274Y953095D01*
X150217Y953061D01*
X150157Y953036D01*
X150122Y953005D01*
X150081Y952980D01*
X150040Y952929D01*
X149991Y952885D01*
X149969Y952843D01*
X149940Y952806D01*
X149919Y952744D01*
X149888Y952685D01*
X149880Y952631D01*
X149868Y952594D01*
X149868Y952591D01*
X149869Y952554D01*
X149861Y952500D01*
X149861Y949960D01*
X149872Y949895D01*
X149874Y949829D01*
X149892Y949786D01*
X149900Y949739D01*
X149934Y949682D01*
X149959Y949622D01*
X149990Y949587D01*
X150015Y949546D01*
X150066Y949505D01*
X150110Y949456D01*
X150152Y949434D01*
X150189Y949405D01*
X150251Y949384D01*
X150310Y949353D01*
X150364Y949345D01*
X150401Y949333D01*
X150441Y949334D01*
X150495Y949326D01*
X154305Y949326D01*
X154370Y949337D01*
G37*
G36*
X794450Y949337D02*
X794450Y949337D01*
X794516Y949339D01*
X794559Y949357D01*
X794606Y949365D01*
X794663Y949399D01*
X794723Y949424D01*
X794758Y949455D01*
X794799Y949480D01*
X794841Y949531D01*
X794889Y949575D01*
X794911Y949617D01*
X794940Y949654D01*
X794961Y949716D01*
X794992Y949775D01*
X795000Y949829D01*
X795012Y949866D01*
X795011Y949906D01*
X795019Y949960D01*
X795019Y952500D01*
X795008Y952565D01*
X795006Y952631D01*
X794988Y952674D01*
X794980Y952721D01*
X794946Y952778D01*
X794921Y952838D01*
X794890Y952873D01*
X794865Y952914D01*
X794814Y952956D01*
X794770Y953004D01*
X794728Y953026D01*
X794691Y953055D01*
X794629Y953076D01*
X794570Y953107D01*
X794516Y953115D01*
X794479Y953127D01*
X794439Y953126D01*
X794385Y953134D01*
X790575Y953134D01*
X790510Y953123D01*
X790444Y953121D01*
X790401Y953103D01*
X790354Y953095D01*
X790297Y953061D01*
X790237Y953036D01*
X790202Y953005D01*
X790161Y952980D01*
X790120Y952929D01*
X790071Y952885D01*
X790049Y952843D01*
X790020Y952806D01*
X789999Y952744D01*
X789968Y952685D01*
X789960Y952631D01*
X789948Y952594D01*
X789948Y952591D01*
X789949Y952554D01*
X789941Y952500D01*
X789941Y949960D01*
X789952Y949895D01*
X789954Y949829D01*
X789972Y949786D01*
X789980Y949739D01*
X790014Y949682D01*
X790039Y949622D01*
X790070Y949587D01*
X790095Y949546D01*
X790146Y949505D01*
X790190Y949456D01*
X790232Y949434D01*
X790269Y949405D01*
X790331Y949384D01*
X790390Y949353D01*
X790444Y949345D01*
X790481Y949333D01*
X790521Y949334D01*
X790575Y949326D01*
X794385Y949326D01*
X794450Y949337D01*
G37*
G36*
X509970Y873137D02*
X509970Y873137D01*
X510036Y873139D01*
X510079Y873157D01*
X510126Y873165D01*
X510183Y873199D01*
X510243Y873224D01*
X510278Y873255D01*
X510319Y873280D01*
X510361Y873331D01*
X510409Y873375D01*
X510431Y873417D01*
X510460Y873454D01*
X510481Y873516D01*
X510512Y873575D01*
X510520Y873629D01*
X510532Y873666D01*
X510531Y873706D01*
X510539Y873760D01*
X510539Y876300D01*
X510528Y876365D01*
X510526Y876431D01*
X510508Y876474D01*
X510500Y876521D01*
X510466Y876578D01*
X510441Y876638D01*
X510410Y876673D01*
X510385Y876714D01*
X510334Y876756D01*
X510290Y876804D01*
X510248Y876826D01*
X510211Y876855D01*
X510149Y876876D01*
X510090Y876907D01*
X510036Y876915D01*
X509999Y876927D01*
X509959Y876926D01*
X509905Y876934D01*
X506095Y876934D01*
X506030Y876923D01*
X505964Y876921D01*
X505921Y876903D01*
X505874Y876895D01*
X505817Y876861D01*
X505757Y876836D01*
X505722Y876805D01*
X505681Y876780D01*
X505640Y876729D01*
X505591Y876685D01*
X505569Y876643D01*
X505540Y876606D01*
X505519Y876544D01*
X505488Y876485D01*
X505480Y876431D01*
X505468Y876394D01*
X505468Y876391D01*
X505469Y876354D01*
X505461Y876300D01*
X505461Y873760D01*
X505472Y873695D01*
X505474Y873629D01*
X505492Y873586D01*
X505500Y873539D01*
X505534Y873482D01*
X505559Y873422D01*
X505590Y873387D01*
X505615Y873346D01*
X505666Y873305D01*
X505710Y873256D01*
X505752Y873234D01*
X505789Y873205D01*
X505851Y873184D01*
X505910Y873153D01*
X505964Y873145D01*
X506001Y873133D01*
X506041Y873134D01*
X506095Y873126D01*
X509905Y873126D01*
X509970Y873137D01*
G37*
G36*
X769050Y873137D02*
X769050Y873137D01*
X769116Y873139D01*
X769159Y873157D01*
X769206Y873165D01*
X769263Y873199D01*
X769323Y873224D01*
X769358Y873255D01*
X769399Y873280D01*
X769441Y873331D01*
X769489Y873375D01*
X769511Y873417D01*
X769540Y873454D01*
X769561Y873516D01*
X769592Y873575D01*
X769600Y873629D01*
X769612Y873666D01*
X769611Y873706D01*
X769619Y873760D01*
X769619Y876300D01*
X769608Y876365D01*
X769606Y876431D01*
X769588Y876474D01*
X769580Y876521D01*
X769546Y876578D01*
X769521Y876638D01*
X769490Y876673D01*
X769465Y876714D01*
X769414Y876756D01*
X769370Y876804D01*
X769328Y876826D01*
X769291Y876855D01*
X769229Y876876D01*
X769170Y876907D01*
X769116Y876915D01*
X769079Y876927D01*
X769039Y876926D01*
X768985Y876934D01*
X765175Y876934D01*
X765110Y876923D01*
X765044Y876921D01*
X765001Y876903D01*
X764954Y876895D01*
X764897Y876861D01*
X764837Y876836D01*
X764802Y876805D01*
X764761Y876780D01*
X764720Y876729D01*
X764671Y876685D01*
X764649Y876643D01*
X764620Y876606D01*
X764599Y876544D01*
X764568Y876485D01*
X764560Y876431D01*
X764548Y876394D01*
X764548Y876391D01*
X764549Y876354D01*
X764541Y876300D01*
X764541Y873760D01*
X764552Y873695D01*
X764554Y873629D01*
X764572Y873586D01*
X764580Y873539D01*
X764614Y873482D01*
X764639Y873422D01*
X764670Y873387D01*
X764695Y873346D01*
X764746Y873305D01*
X764790Y873256D01*
X764832Y873234D01*
X764869Y873205D01*
X764931Y873184D01*
X764990Y873153D01*
X765044Y873145D01*
X765081Y873133D01*
X765121Y873134D01*
X765175Y873126D01*
X768985Y873126D01*
X769050Y873137D01*
G37*
G36*
X1150050Y873137D02*
X1150050Y873137D01*
X1150116Y873139D01*
X1150159Y873157D01*
X1150206Y873165D01*
X1150263Y873199D01*
X1150323Y873224D01*
X1150358Y873255D01*
X1150399Y873280D01*
X1150441Y873331D01*
X1150489Y873375D01*
X1150511Y873417D01*
X1150540Y873454D01*
X1150561Y873516D01*
X1150592Y873575D01*
X1150600Y873629D01*
X1150612Y873666D01*
X1150611Y873706D01*
X1150619Y873760D01*
X1150619Y876300D01*
X1150608Y876365D01*
X1150606Y876431D01*
X1150588Y876474D01*
X1150580Y876521D01*
X1150546Y876578D01*
X1150521Y876638D01*
X1150490Y876673D01*
X1150465Y876714D01*
X1150414Y876756D01*
X1150370Y876804D01*
X1150328Y876826D01*
X1150291Y876855D01*
X1150229Y876876D01*
X1150170Y876907D01*
X1150116Y876915D01*
X1150079Y876927D01*
X1150039Y876926D01*
X1149985Y876934D01*
X1146175Y876934D01*
X1146110Y876923D01*
X1146044Y876921D01*
X1146001Y876903D01*
X1145954Y876895D01*
X1145897Y876861D01*
X1145837Y876836D01*
X1145802Y876805D01*
X1145761Y876780D01*
X1145720Y876729D01*
X1145671Y876685D01*
X1145649Y876643D01*
X1145620Y876606D01*
X1145599Y876544D01*
X1145568Y876485D01*
X1145560Y876431D01*
X1145548Y876394D01*
X1145548Y876391D01*
X1145549Y876354D01*
X1145541Y876300D01*
X1145541Y873760D01*
X1145552Y873695D01*
X1145554Y873629D01*
X1145572Y873586D01*
X1145580Y873539D01*
X1145614Y873482D01*
X1145639Y873422D01*
X1145670Y873387D01*
X1145695Y873346D01*
X1145746Y873305D01*
X1145790Y873256D01*
X1145832Y873234D01*
X1145869Y873205D01*
X1145931Y873184D01*
X1145990Y873153D01*
X1146044Y873145D01*
X1146081Y873133D01*
X1146121Y873134D01*
X1146175Y873126D01*
X1149985Y873126D01*
X1150050Y873137D01*
G37*
G36*
X128970Y873137D02*
X128970Y873137D01*
X129036Y873139D01*
X129079Y873157D01*
X129126Y873165D01*
X129183Y873199D01*
X129243Y873224D01*
X129278Y873255D01*
X129319Y873280D01*
X129361Y873331D01*
X129409Y873375D01*
X129431Y873417D01*
X129460Y873454D01*
X129481Y873516D01*
X129512Y873575D01*
X129520Y873629D01*
X129532Y873666D01*
X129531Y873706D01*
X129539Y873760D01*
X129539Y876300D01*
X129528Y876365D01*
X129526Y876431D01*
X129508Y876474D01*
X129500Y876521D01*
X129466Y876578D01*
X129441Y876638D01*
X129410Y876673D01*
X129385Y876714D01*
X129334Y876756D01*
X129290Y876804D01*
X129248Y876826D01*
X129211Y876855D01*
X129149Y876876D01*
X129090Y876907D01*
X129036Y876915D01*
X128999Y876927D01*
X128959Y876926D01*
X128905Y876934D01*
X125095Y876934D01*
X125030Y876923D01*
X124964Y876921D01*
X124921Y876903D01*
X124874Y876895D01*
X124817Y876861D01*
X124757Y876836D01*
X124722Y876805D01*
X124681Y876780D01*
X124640Y876729D01*
X124591Y876685D01*
X124569Y876643D01*
X124540Y876606D01*
X124519Y876544D01*
X124488Y876485D01*
X124480Y876431D01*
X124468Y876394D01*
X124468Y876391D01*
X124469Y876354D01*
X124461Y876300D01*
X124461Y873760D01*
X124472Y873695D01*
X124474Y873629D01*
X124492Y873586D01*
X124500Y873539D01*
X124534Y873482D01*
X124559Y873422D01*
X124590Y873387D01*
X124615Y873346D01*
X124666Y873305D01*
X124710Y873256D01*
X124752Y873234D01*
X124789Y873205D01*
X124851Y873184D01*
X124910Y873153D01*
X124964Y873145D01*
X125001Y873133D01*
X125041Y873134D01*
X125095Y873126D01*
X128905Y873126D01*
X128970Y873137D01*
G37*
G36*
X1086550Y790587D02*
X1086550Y790587D01*
X1086616Y790589D01*
X1086659Y790607D01*
X1086706Y790615D01*
X1086763Y790649D01*
X1086823Y790674D01*
X1086858Y790705D01*
X1086899Y790730D01*
X1086941Y790781D01*
X1086989Y790825D01*
X1087011Y790867D01*
X1087040Y790904D01*
X1087061Y790966D01*
X1087092Y791025D01*
X1087100Y791079D01*
X1087112Y791116D01*
X1087111Y791156D01*
X1087119Y791210D01*
X1087119Y793750D01*
X1087108Y793815D01*
X1087106Y793881D01*
X1087088Y793924D01*
X1087080Y793971D01*
X1087046Y794028D01*
X1087021Y794088D01*
X1086990Y794123D01*
X1086965Y794164D01*
X1086914Y794206D01*
X1086870Y794254D01*
X1086828Y794276D01*
X1086791Y794305D01*
X1086729Y794326D01*
X1086670Y794357D01*
X1086616Y794365D01*
X1086579Y794377D01*
X1086539Y794376D01*
X1086485Y794384D01*
X1082675Y794384D01*
X1082610Y794373D01*
X1082544Y794371D01*
X1082501Y794353D01*
X1082454Y794345D01*
X1082397Y794311D01*
X1082337Y794286D01*
X1082302Y794255D01*
X1082261Y794230D01*
X1082220Y794179D01*
X1082171Y794135D01*
X1082149Y794093D01*
X1082120Y794056D01*
X1082099Y793994D01*
X1082068Y793935D01*
X1082060Y793881D01*
X1082048Y793844D01*
X1082048Y793841D01*
X1082049Y793804D01*
X1082041Y793750D01*
X1082041Y791210D01*
X1082052Y791145D01*
X1082054Y791079D01*
X1082072Y791036D01*
X1082080Y790989D01*
X1082114Y790932D01*
X1082139Y790872D01*
X1082170Y790837D01*
X1082195Y790796D01*
X1082246Y790755D01*
X1082290Y790706D01*
X1082332Y790684D01*
X1082369Y790655D01*
X1082431Y790634D01*
X1082490Y790603D01*
X1082544Y790595D01*
X1082581Y790583D01*
X1082621Y790584D01*
X1082675Y790576D01*
X1086485Y790576D01*
X1086550Y790587D01*
G37*
G36*
X479490Y790587D02*
X479490Y790587D01*
X479556Y790589D01*
X479599Y790607D01*
X479646Y790615D01*
X479703Y790649D01*
X479763Y790674D01*
X479798Y790705D01*
X479839Y790730D01*
X479881Y790781D01*
X479929Y790825D01*
X479951Y790867D01*
X479980Y790904D01*
X480001Y790966D01*
X480032Y791025D01*
X480040Y791079D01*
X480052Y791116D01*
X480051Y791156D01*
X480059Y791210D01*
X480059Y793750D01*
X480048Y793815D01*
X480046Y793881D01*
X480028Y793924D01*
X480020Y793971D01*
X479986Y794028D01*
X479961Y794088D01*
X479930Y794123D01*
X479905Y794164D01*
X479854Y794206D01*
X479810Y794254D01*
X479768Y794276D01*
X479731Y794305D01*
X479669Y794326D01*
X479610Y794357D01*
X479556Y794365D01*
X479519Y794377D01*
X479479Y794376D01*
X479425Y794384D01*
X475615Y794384D01*
X475550Y794373D01*
X475484Y794371D01*
X475441Y794353D01*
X475394Y794345D01*
X475337Y794311D01*
X475277Y794286D01*
X475242Y794255D01*
X475201Y794230D01*
X475160Y794179D01*
X475111Y794135D01*
X475089Y794093D01*
X475060Y794056D01*
X475039Y793994D01*
X475008Y793935D01*
X475000Y793881D01*
X474988Y793844D01*
X474988Y793841D01*
X474989Y793804D01*
X474981Y793750D01*
X474981Y791210D01*
X474992Y791145D01*
X474994Y791079D01*
X475012Y791036D01*
X475020Y790989D01*
X475054Y790932D01*
X475079Y790872D01*
X475110Y790837D01*
X475135Y790796D01*
X475186Y790755D01*
X475230Y790706D01*
X475272Y790684D01*
X475309Y790655D01*
X475371Y790634D01*
X475430Y790603D01*
X475484Y790595D01*
X475521Y790583D01*
X475561Y790584D01*
X475615Y790576D01*
X479425Y790576D01*
X479490Y790587D01*
G37*
G36*
X489650Y790587D02*
X489650Y790587D01*
X489716Y790589D01*
X489759Y790607D01*
X489806Y790615D01*
X489863Y790649D01*
X489923Y790674D01*
X489958Y790705D01*
X489999Y790730D01*
X490041Y790781D01*
X490089Y790825D01*
X490111Y790867D01*
X490140Y790904D01*
X490161Y790966D01*
X490192Y791025D01*
X490200Y791079D01*
X490212Y791116D01*
X490211Y791156D01*
X490219Y791210D01*
X490219Y793750D01*
X490208Y793815D01*
X490206Y793881D01*
X490188Y793924D01*
X490180Y793971D01*
X490146Y794028D01*
X490121Y794088D01*
X490090Y794123D01*
X490065Y794164D01*
X490014Y794206D01*
X489970Y794254D01*
X489928Y794276D01*
X489891Y794305D01*
X489829Y794326D01*
X489770Y794357D01*
X489716Y794365D01*
X489679Y794377D01*
X489639Y794376D01*
X489585Y794384D01*
X485775Y794384D01*
X485710Y794373D01*
X485644Y794371D01*
X485601Y794353D01*
X485554Y794345D01*
X485497Y794311D01*
X485437Y794286D01*
X485402Y794255D01*
X485361Y794230D01*
X485320Y794179D01*
X485271Y794135D01*
X485249Y794093D01*
X485220Y794056D01*
X485199Y793994D01*
X485168Y793935D01*
X485160Y793881D01*
X485148Y793844D01*
X485148Y793841D01*
X485149Y793804D01*
X485141Y793750D01*
X485141Y791210D01*
X485152Y791145D01*
X485154Y791079D01*
X485172Y791036D01*
X485180Y790989D01*
X485214Y790932D01*
X485239Y790872D01*
X485270Y790837D01*
X485295Y790796D01*
X485346Y790755D01*
X485390Y790706D01*
X485432Y790684D01*
X485469Y790655D01*
X485531Y790634D01*
X485590Y790603D01*
X485644Y790595D01*
X485681Y790583D01*
X485721Y790584D01*
X485775Y790576D01*
X489585Y790576D01*
X489650Y790587D01*
G37*
G36*
X1119570Y790587D02*
X1119570Y790587D01*
X1119636Y790589D01*
X1119679Y790607D01*
X1119726Y790615D01*
X1119783Y790649D01*
X1119843Y790674D01*
X1119878Y790705D01*
X1119919Y790730D01*
X1119961Y790781D01*
X1120009Y790825D01*
X1120031Y790867D01*
X1120060Y790904D01*
X1120081Y790966D01*
X1120112Y791025D01*
X1120120Y791079D01*
X1120132Y791116D01*
X1120131Y791156D01*
X1120139Y791210D01*
X1120139Y793750D01*
X1120128Y793815D01*
X1120126Y793881D01*
X1120108Y793924D01*
X1120100Y793971D01*
X1120066Y794028D01*
X1120041Y794088D01*
X1120010Y794123D01*
X1119985Y794164D01*
X1119934Y794206D01*
X1119890Y794254D01*
X1119848Y794276D01*
X1119811Y794305D01*
X1119749Y794326D01*
X1119690Y794357D01*
X1119636Y794365D01*
X1119599Y794377D01*
X1119559Y794376D01*
X1119505Y794384D01*
X1115695Y794384D01*
X1115630Y794373D01*
X1115564Y794371D01*
X1115521Y794353D01*
X1115474Y794345D01*
X1115417Y794311D01*
X1115357Y794286D01*
X1115322Y794255D01*
X1115281Y794230D01*
X1115240Y794179D01*
X1115191Y794135D01*
X1115169Y794093D01*
X1115140Y794056D01*
X1115119Y793994D01*
X1115088Y793935D01*
X1115080Y793881D01*
X1115068Y793844D01*
X1115068Y793841D01*
X1115069Y793804D01*
X1115061Y793750D01*
X1115061Y791210D01*
X1115072Y791145D01*
X1115074Y791079D01*
X1115092Y791036D01*
X1115100Y790989D01*
X1115134Y790932D01*
X1115159Y790872D01*
X1115190Y790837D01*
X1115215Y790796D01*
X1115266Y790755D01*
X1115310Y790706D01*
X1115352Y790684D01*
X1115389Y790655D01*
X1115451Y790634D01*
X1115510Y790603D01*
X1115564Y790595D01*
X1115601Y790583D01*
X1115641Y790584D01*
X1115695Y790576D01*
X1119505Y790576D01*
X1119570Y790587D01*
G37*
G36*
X446470Y790587D02*
X446470Y790587D01*
X446536Y790589D01*
X446579Y790607D01*
X446626Y790615D01*
X446683Y790649D01*
X446743Y790674D01*
X446778Y790705D01*
X446819Y790730D01*
X446861Y790781D01*
X446909Y790825D01*
X446931Y790867D01*
X446960Y790904D01*
X446981Y790966D01*
X447012Y791025D01*
X447020Y791079D01*
X447032Y791116D01*
X447031Y791156D01*
X447039Y791210D01*
X447039Y793750D01*
X447028Y793815D01*
X447026Y793881D01*
X447008Y793924D01*
X447000Y793971D01*
X446966Y794028D01*
X446941Y794088D01*
X446910Y794123D01*
X446885Y794164D01*
X446834Y794206D01*
X446790Y794254D01*
X446748Y794276D01*
X446711Y794305D01*
X446649Y794326D01*
X446590Y794357D01*
X446536Y794365D01*
X446499Y794377D01*
X446459Y794376D01*
X446405Y794384D01*
X442595Y794384D01*
X442530Y794373D01*
X442464Y794371D01*
X442421Y794353D01*
X442374Y794345D01*
X442317Y794311D01*
X442257Y794286D01*
X442222Y794255D01*
X442181Y794230D01*
X442140Y794179D01*
X442091Y794135D01*
X442069Y794093D01*
X442040Y794056D01*
X442019Y793994D01*
X441988Y793935D01*
X441980Y793881D01*
X441968Y793844D01*
X441968Y793841D01*
X441969Y793804D01*
X441961Y793750D01*
X441961Y791210D01*
X441972Y791145D01*
X441974Y791079D01*
X441992Y791036D01*
X442000Y790989D01*
X442034Y790932D01*
X442059Y790872D01*
X442090Y790837D01*
X442115Y790796D01*
X442166Y790755D01*
X442210Y790706D01*
X442252Y790684D01*
X442289Y790655D01*
X442351Y790634D01*
X442410Y790603D01*
X442464Y790595D01*
X442501Y790583D01*
X442541Y790584D01*
X442595Y790576D01*
X446405Y790576D01*
X446470Y790587D01*
G37*
G36*
X1129730Y790587D02*
X1129730Y790587D01*
X1129796Y790589D01*
X1129839Y790607D01*
X1129886Y790615D01*
X1129943Y790649D01*
X1130003Y790674D01*
X1130038Y790705D01*
X1130079Y790730D01*
X1130121Y790781D01*
X1130169Y790825D01*
X1130191Y790867D01*
X1130220Y790904D01*
X1130241Y790966D01*
X1130272Y791025D01*
X1130280Y791079D01*
X1130292Y791116D01*
X1130291Y791156D01*
X1130299Y791210D01*
X1130299Y793750D01*
X1130288Y793815D01*
X1130286Y793881D01*
X1130268Y793924D01*
X1130260Y793971D01*
X1130226Y794028D01*
X1130201Y794088D01*
X1130170Y794123D01*
X1130145Y794164D01*
X1130094Y794206D01*
X1130050Y794254D01*
X1130008Y794276D01*
X1129971Y794305D01*
X1129909Y794326D01*
X1129850Y794357D01*
X1129796Y794365D01*
X1129759Y794377D01*
X1129719Y794376D01*
X1129665Y794384D01*
X1125855Y794384D01*
X1125790Y794373D01*
X1125724Y794371D01*
X1125681Y794353D01*
X1125634Y794345D01*
X1125577Y794311D01*
X1125517Y794286D01*
X1125482Y794255D01*
X1125441Y794230D01*
X1125400Y794179D01*
X1125351Y794135D01*
X1125329Y794093D01*
X1125300Y794056D01*
X1125279Y793994D01*
X1125248Y793935D01*
X1125240Y793881D01*
X1125228Y793844D01*
X1125228Y793841D01*
X1125229Y793804D01*
X1125221Y793750D01*
X1125221Y791210D01*
X1125232Y791145D01*
X1125234Y791079D01*
X1125252Y791036D01*
X1125260Y790989D01*
X1125294Y790932D01*
X1125319Y790872D01*
X1125350Y790837D01*
X1125375Y790796D01*
X1125426Y790755D01*
X1125470Y790706D01*
X1125512Y790684D01*
X1125549Y790655D01*
X1125611Y790634D01*
X1125670Y790603D01*
X1125724Y790595D01*
X1125761Y790583D01*
X1125801Y790584D01*
X1125855Y790576D01*
X1129665Y790576D01*
X1129730Y790587D01*
G37*
G36*
X1245300Y650887D02*
X1245300Y650887D01*
X1245366Y650889D01*
X1245409Y650907D01*
X1245456Y650915D01*
X1245513Y650949D01*
X1245573Y650974D01*
X1245608Y651005D01*
X1245649Y651030D01*
X1245691Y651081D01*
X1245739Y651125D01*
X1245761Y651167D01*
X1245790Y651204D01*
X1245811Y651266D01*
X1245842Y651325D01*
X1245850Y651379D01*
X1245862Y651416D01*
X1245861Y651456D01*
X1245869Y651510D01*
X1245869Y654050D01*
X1245858Y654115D01*
X1245856Y654181D01*
X1245838Y654224D01*
X1245830Y654271D01*
X1245796Y654328D01*
X1245771Y654388D01*
X1245740Y654423D01*
X1245715Y654464D01*
X1245664Y654506D01*
X1245620Y654554D01*
X1245578Y654576D01*
X1245541Y654605D01*
X1245479Y654626D01*
X1245420Y654657D01*
X1245366Y654665D01*
X1245329Y654677D01*
X1245289Y654676D01*
X1245235Y654684D01*
X1241425Y654684D01*
X1241360Y654673D01*
X1241294Y654671D01*
X1241251Y654653D01*
X1241204Y654645D01*
X1241147Y654611D01*
X1241087Y654586D01*
X1241052Y654555D01*
X1241011Y654530D01*
X1240970Y654479D01*
X1240921Y654435D01*
X1240899Y654393D01*
X1240870Y654356D01*
X1240849Y654294D01*
X1240818Y654235D01*
X1240810Y654181D01*
X1240798Y654144D01*
X1240798Y654141D01*
X1240799Y654104D01*
X1240791Y654050D01*
X1240791Y651510D01*
X1240802Y651445D01*
X1240804Y651379D01*
X1240822Y651336D01*
X1240830Y651289D01*
X1240864Y651232D01*
X1240889Y651172D01*
X1240920Y651137D01*
X1240945Y651096D01*
X1240996Y651055D01*
X1241040Y651006D01*
X1241082Y650984D01*
X1241119Y650955D01*
X1241181Y650934D01*
X1241240Y650903D01*
X1241294Y650895D01*
X1241331Y650883D01*
X1241371Y650884D01*
X1241425Y650876D01*
X1245235Y650876D01*
X1245300Y650887D01*
G37*
G36*
X605220Y650887D02*
X605220Y650887D01*
X605286Y650889D01*
X605329Y650907D01*
X605376Y650915D01*
X605433Y650949D01*
X605493Y650974D01*
X605528Y651005D01*
X605569Y651030D01*
X605611Y651081D01*
X605659Y651125D01*
X605681Y651167D01*
X605710Y651204D01*
X605731Y651266D01*
X605762Y651325D01*
X605770Y651379D01*
X605782Y651416D01*
X605781Y651456D01*
X605789Y651510D01*
X605789Y654050D01*
X605778Y654115D01*
X605776Y654181D01*
X605758Y654224D01*
X605750Y654271D01*
X605716Y654328D01*
X605691Y654388D01*
X605660Y654423D01*
X605635Y654464D01*
X605584Y654506D01*
X605540Y654554D01*
X605498Y654576D01*
X605461Y654605D01*
X605399Y654626D01*
X605340Y654657D01*
X605286Y654665D01*
X605249Y654677D01*
X605209Y654676D01*
X605155Y654684D01*
X601345Y654684D01*
X601280Y654673D01*
X601214Y654671D01*
X601171Y654653D01*
X601124Y654645D01*
X601067Y654611D01*
X601007Y654586D01*
X600972Y654555D01*
X600931Y654530D01*
X600890Y654479D01*
X600841Y654435D01*
X600819Y654393D01*
X600790Y654356D01*
X600769Y654294D01*
X600738Y654235D01*
X600730Y654181D01*
X600718Y654144D01*
X600718Y654141D01*
X600719Y654104D01*
X600711Y654050D01*
X600711Y651510D01*
X600722Y651445D01*
X600724Y651379D01*
X600742Y651336D01*
X600750Y651289D01*
X600784Y651232D01*
X600809Y651172D01*
X600840Y651137D01*
X600865Y651096D01*
X600916Y651055D01*
X600960Y651006D01*
X601002Y650984D01*
X601039Y650955D01*
X601101Y650934D01*
X601160Y650903D01*
X601214Y650895D01*
X601251Y650883D01*
X601291Y650884D01*
X601345Y650876D01*
X605155Y650876D01*
X605220Y650887D01*
G37*
G36*
X1245300Y625487D02*
X1245300Y625487D01*
X1245366Y625489D01*
X1245409Y625507D01*
X1245456Y625515D01*
X1245513Y625549D01*
X1245573Y625574D01*
X1245608Y625605D01*
X1245649Y625630D01*
X1245691Y625681D01*
X1245739Y625725D01*
X1245761Y625767D01*
X1245790Y625804D01*
X1245811Y625866D01*
X1245842Y625925D01*
X1245850Y625979D01*
X1245862Y626016D01*
X1245861Y626056D01*
X1245869Y626110D01*
X1245869Y628650D01*
X1245858Y628715D01*
X1245856Y628781D01*
X1245838Y628824D01*
X1245830Y628871D01*
X1245796Y628928D01*
X1245771Y628988D01*
X1245740Y629023D01*
X1245715Y629064D01*
X1245664Y629106D01*
X1245620Y629154D01*
X1245578Y629176D01*
X1245541Y629205D01*
X1245479Y629226D01*
X1245420Y629257D01*
X1245366Y629265D01*
X1245329Y629277D01*
X1245289Y629276D01*
X1245235Y629284D01*
X1241425Y629284D01*
X1241360Y629273D01*
X1241294Y629271D01*
X1241251Y629253D01*
X1241204Y629245D01*
X1241147Y629211D01*
X1241087Y629186D01*
X1241052Y629155D01*
X1241011Y629130D01*
X1240970Y629079D01*
X1240921Y629035D01*
X1240899Y628993D01*
X1240870Y628956D01*
X1240849Y628894D01*
X1240818Y628835D01*
X1240810Y628781D01*
X1240798Y628744D01*
X1240798Y628741D01*
X1240799Y628704D01*
X1240791Y628650D01*
X1240791Y626110D01*
X1240802Y626045D01*
X1240804Y625979D01*
X1240822Y625936D01*
X1240830Y625889D01*
X1240864Y625832D01*
X1240889Y625772D01*
X1240920Y625737D01*
X1240945Y625696D01*
X1240996Y625655D01*
X1241040Y625606D01*
X1241082Y625584D01*
X1241119Y625555D01*
X1241181Y625534D01*
X1241240Y625503D01*
X1241294Y625495D01*
X1241331Y625483D01*
X1241371Y625484D01*
X1241425Y625476D01*
X1245235Y625476D01*
X1245300Y625487D01*
G37*
G36*
X605220Y625487D02*
X605220Y625487D01*
X605286Y625489D01*
X605329Y625507D01*
X605376Y625515D01*
X605433Y625549D01*
X605493Y625574D01*
X605528Y625605D01*
X605569Y625630D01*
X605611Y625681D01*
X605659Y625725D01*
X605681Y625767D01*
X605710Y625804D01*
X605731Y625866D01*
X605762Y625925D01*
X605770Y625979D01*
X605782Y626016D01*
X605781Y626056D01*
X605789Y626110D01*
X605789Y628650D01*
X605778Y628715D01*
X605776Y628781D01*
X605758Y628824D01*
X605750Y628871D01*
X605716Y628928D01*
X605691Y628988D01*
X605660Y629023D01*
X605635Y629064D01*
X605584Y629106D01*
X605540Y629154D01*
X605498Y629176D01*
X605461Y629205D01*
X605399Y629226D01*
X605340Y629257D01*
X605286Y629265D01*
X605249Y629277D01*
X605209Y629276D01*
X605155Y629284D01*
X601345Y629284D01*
X601280Y629273D01*
X601214Y629271D01*
X601171Y629253D01*
X601124Y629245D01*
X601067Y629211D01*
X601007Y629186D01*
X600972Y629155D01*
X600931Y629130D01*
X600890Y629079D01*
X600841Y629035D01*
X600819Y628993D01*
X600790Y628956D01*
X600769Y628894D01*
X600738Y628835D01*
X600730Y628781D01*
X600718Y628744D01*
X600718Y628741D01*
X600719Y628704D01*
X600711Y628650D01*
X600711Y626110D01*
X600722Y626045D01*
X600724Y625979D01*
X600742Y625936D01*
X600750Y625889D01*
X600784Y625832D01*
X600809Y625772D01*
X600840Y625737D01*
X600865Y625696D01*
X600916Y625655D01*
X600960Y625606D01*
X601002Y625584D01*
X601039Y625555D01*
X601101Y625534D01*
X601160Y625503D01*
X601214Y625495D01*
X601251Y625483D01*
X601291Y625484D01*
X601345Y625476D01*
X605155Y625476D01*
X605220Y625487D01*
G37*
G36*
X141670Y587387D02*
X141670Y587387D01*
X141736Y587389D01*
X141779Y587407D01*
X141826Y587415D01*
X141883Y587449D01*
X141943Y587474D01*
X141978Y587505D01*
X142019Y587530D01*
X142061Y587581D01*
X142109Y587625D01*
X142131Y587667D01*
X142160Y587704D01*
X142181Y587766D01*
X142212Y587825D01*
X142220Y587879D01*
X142232Y587916D01*
X142231Y587956D01*
X142239Y588010D01*
X142239Y590550D01*
X142228Y590615D01*
X142226Y590681D01*
X142208Y590724D01*
X142200Y590771D01*
X142166Y590828D01*
X142141Y590888D01*
X142110Y590923D01*
X142085Y590964D01*
X142034Y591006D01*
X141990Y591054D01*
X141948Y591076D01*
X141911Y591105D01*
X141849Y591126D01*
X141790Y591157D01*
X141736Y591165D01*
X141699Y591177D01*
X141659Y591176D01*
X141605Y591184D01*
X137795Y591184D01*
X137730Y591173D01*
X137664Y591171D01*
X137621Y591153D01*
X137574Y591145D01*
X137517Y591111D01*
X137457Y591086D01*
X137422Y591055D01*
X137381Y591030D01*
X137340Y590979D01*
X137291Y590935D01*
X137269Y590893D01*
X137240Y590856D01*
X137219Y590794D01*
X137188Y590735D01*
X137180Y590681D01*
X137168Y590644D01*
X137168Y590641D01*
X137169Y590604D01*
X137161Y590550D01*
X137161Y588010D01*
X137172Y587945D01*
X137174Y587879D01*
X137192Y587836D01*
X137200Y587789D01*
X137234Y587732D01*
X137259Y587672D01*
X137290Y587637D01*
X137315Y587596D01*
X137366Y587555D01*
X137410Y587506D01*
X137452Y587484D01*
X137489Y587455D01*
X137551Y587434D01*
X137610Y587403D01*
X137664Y587395D01*
X137701Y587383D01*
X137741Y587384D01*
X137795Y587376D01*
X141605Y587376D01*
X141670Y587387D01*
G37*
G36*
X781750Y587387D02*
X781750Y587387D01*
X781816Y587389D01*
X781859Y587407D01*
X781906Y587415D01*
X781963Y587449D01*
X782023Y587474D01*
X782058Y587505D01*
X782099Y587530D01*
X782141Y587581D01*
X782189Y587625D01*
X782211Y587667D01*
X782240Y587704D01*
X782261Y587766D01*
X782292Y587825D01*
X782300Y587879D01*
X782312Y587916D01*
X782311Y587956D01*
X782319Y588010D01*
X782319Y590550D01*
X782308Y590615D01*
X782306Y590681D01*
X782288Y590724D01*
X782280Y590771D01*
X782246Y590828D01*
X782221Y590888D01*
X782190Y590923D01*
X782165Y590964D01*
X782114Y591006D01*
X782070Y591054D01*
X782028Y591076D01*
X781991Y591105D01*
X781929Y591126D01*
X781870Y591157D01*
X781816Y591165D01*
X781779Y591177D01*
X781739Y591176D01*
X781685Y591184D01*
X777875Y591184D01*
X777810Y591173D01*
X777744Y591171D01*
X777701Y591153D01*
X777654Y591145D01*
X777597Y591111D01*
X777537Y591086D01*
X777502Y591055D01*
X777461Y591030D01*
X777420Y590979D01*
X777371Y590935D01*
X777349Y590893D01*
X777320Y590856D01*
X777299Y590794D01*
X777268Y590735D01*
X777260Y590681D01*
X777248Y590644D01*
X777248Y590641D01*
X777249Y590604D01*
X777241Y590550D01*
X777241Y588010D01*
X777252Y587945D01*
X777254Y587879D01*
X777272Y587836D01*
X777280Y587789D01*
X777314Y587732D01*
X777339Y587672D01*
X777370Y587637D01*
X777395Y587596D01*
X777446Y587555D01*
X777490Y587506D01*
X777532Y587484D01*
X777569Y587455D01*
X777631Y587434D01*
X777690Y587403D01*
X777744Y587395D01*
X777781Y587383D01*
X777821Y587384D01*
X777875Y587376D01*
X781685Y587376D01*
X781750Y587387D01*
G37*
G36*
X154370Y429907D02*
X154370Y429907D01*
X154436Y429909D01*
X154479Y429927D01*
X154526Y429935D01*
X154583Y429969D01*
X154643Y429994D01*
X154678Y430025D01*
X154719Y430050D01*
X154761Y430101D01*
X154809Y430145D01*
X154831Y430187D01*
X154860Y430224D01*
X154881Y430286D01*
X154912Y430345D01*
X154920Y430399D01*
X154932Y430436D01*
X154931Y430476D01*
X154939Y430530D01*
X154939Y433070D01*
X154928Y433135D01*
X154926Y433201D01*
X154908Y433244D01*
X154900Y433291D01*
X154866Y433348D01*
X154841Y433408D01*
X154810Y433443D01*
X154785Y433484D01*
X154734Y433526D01*
X154690Y433574D01*
X154648Y433596D01*
X154611Y433625D01*
X154549Y433646D01*
X154490Y433677D01*
X154436Y433685D01*
X154399Y433697D01*
X154359Y433696D01*
X154305Y433704D01*
X150495Y433704D01*
X150430Y433693D01*
X150364Y433691D01*
X150321Y433673D01*
X150274Y433665D01*
X150217Y433631D01*
X150157Y433606D01*
X150122Y433575D01*
X150081Y433550D01*
X150040Y433499D01*
X149991Y433455D01*
X149969Y433413D01*
X149940Y433376D01*
X149919Y433314D01*
X149888Y433255D01*
X149880Y433201D01*
X149868Y433164D01*
X149868Y433161D01*
X149869Y433124D01*
X149861Y433070D01*
X149861Y430530D01*
X149872Y430465D01*
X149874Y430399D01*
X149892Y430356D01*
X149900Y430309D01*
X149934Y430252D01*
X149959Y430192D01*
X149990Y430157D01*
X150015Y430116D01*
X150066Y430075D01*
X150110Y430026D01*
X150152Y430004D01*
X150189Y429975D01*
X150251Y429954D01*
X150310Y429923D01*
X150364Y429915D01*
X150401Y429903D01*
X150441Y429904D01*
X150495Y429896D01*
X154305Y429896D01*
X154370Y429907D01*
G37*
G36*
X794450Y429907D02*
X794450Y429907D01*
X794516Y429909D01*
X794559Y429927D01*
X794606Y429935D01*
X794663Y429969D01*
X794723Y429994D01*
X794758Y430025D01*
X794799Y430050D01*
X794841Y430101D01*
X794889Y430145D01*
X794911Y430187D01*
X794940Y430224D01*
X794961Y430286D01*
X794992Y430345D01*
X795000Y430399D01*
X795012Y430436D01*
X795011Y430476D01*
X795019Y430530D01*
X795019Y433070D01*
X795008Y433135D01*
X795006Y433201D01*
X794988Y433244D01*
X794980Y433291D01*
X794946Y433348D01*
X794921Y433408D01*
X794890Y433443D01*
X794865Y433484D01*
X794814Y433526D01*
X794770Y433574D01*
X794728Y433596D01*
X794691Y433625D01*
X794629Y433646D01*
X794570Y433677D01*
X794516Y433685D01*
X794479Y433697D01*
X794439Y433696D01*
X794385Y433704D01*
X790575Y433704D01*
X790510Y433693D01*
X790444Y433691D01*
X790401Y433673D01*
X790354Y433665D01*
X790297Y433631D01*
X790237Y433606D01*
X790202Y433575D01*
X790161Y433550D01*
X790120Y433499D01*
X790071Y433455D01*
X790049Y433413D01*
X790020Y433376D01*
X789999Y433314D01*
X789968Y433255D01*
X789960Y433201D01*
X789948Y433164D01*
X789948Y433161D01*
X789949Y433124D01*
X789941Y433070D01*
X789941Y430530D01*
X789952Y430465D01*
X789954Y430399D01*
X789972Y430356D01*
X789980Y430309D01*
X790014Y430252D01*
X790039Y430192D01*
X790070Y430157D01*
X790095Y430116D01*
X790146Y430075D01*
X790190Y430026D01*
X790232Y430004D01*
X790269Y429975D01*
X790331Y429954D01*
X790390Y429923D01*
X790444Y429915D01*
X790481Y429903D01*
X790521Y429904D01*
X790575Y429896D01*
X794385Y429896D01*
X794450Y429907D01*
G37*
G36*
X154370Y404507D02*
X154370Y404507D01*
X154436Y404509D01*
X154479Y404527D01*
X154526Y404535D01*
X154583Y404569D01*
X154643Y404594D01*
X154678Y404625D01*
X154719Y404650D01*
X154761Y404701D01*
X154809Y404745D01*
X154831Y404787D01*
X154860Y404824D01*
X154881Y404886D01*
X154912Y404945D01*
X154920Y404999D01*
X154932Y405036D01*
X154931Y405076D01*
X154939Y405130D01*
X154939Y407670D01*
X154928Y407735D01*
X154926Y407801D01*
X154908Y407844D01*
X154900Y407891D01*
X154866Y407948D01*
X154841Y408008D01*
X154810Y408043D01*
X154785Y408084D01*
X154734Y408126D01*
X154690Y408174D01*
X154648Y408196D01*
X154611Y408225D01*
X154549Y408246D01*
X154490Y408277D01*
X154436Y408285D01*
X154399Y408297D01*
X154359Y408296D01*
X154305Y408304D01*
X150495Y408304D01*
X150430Y408293D01*
X150364Y408291D01*
X150321Y408273D01*
X150274Y408265D01*
X150217Y408231D01*
X150157Y408206D01*
X150122Y408175D01*
X150081Y408150D01*
X150040Y408099D01*
X149991Y408055D01*
X149969Y408013D01*
X149940Y407976D01*
X149919Y407914D01*
X149888Y407855D01*
X149880Y407801D01*
X149868Y407764D01*
X149868Y407761D01*
X149869Y407724D01*
X149861Y407670D01*
X149861Y405130D01*
X149872Y405065D01*
X149874Y404999D01*
X149892Y404956D01*
X149900Y404909D01*
X149934Y404852D01*
X149959Y404792D01*
X149990Y404757D01*
X150015Y404716D01*
X150066Y404675D01*
X150110Y404626D01*
X150152Y404604D01*
X150189Y404575D01*
X150251Y404554D01*
X150310Y404523D01*
X150364Y404515D01*
X150401Y404503D01*
X150441Y404504D01*
X150495Y404496D01*
X154305Y404496D01*
X154370Y404507D01*
G37*
G36*
X794450Y404507D02*
X794450Y404507D01*
X794516Y404509D01*
X794559Y404527D01*
X794606Y404535D01*
X794663Y404569D01*
X794723Y404594D01*
X794758Y404625D01*
X794799Y404650D01*
X794841Y404701D01*
X794889Y404745D01*
X794911Y404787D01*
X794940Y404824D01*
X794961Y404886D01*
X794992Y404945D01*
X795000Y404999D01*
X795012Y405036D01*
X795011Y405076D01*
X795019Y405130D01*
X795019Y407670D01*
X795008Y407735D01*
X795006Y407801D01*
X794988Y407844D01*
X794980Y407891D01*
X794946Y407948D01*
X794921Y408008D01*
X794890Y408043D01*
X794865Y408084D01*
X794814Y408126D01*
X794770Y408174D01*
X794728Y408196D01*
X794691Y408225D01*
X794629Y408246D01*
X794570Y408277D01*
X794516Y408285D01*
X794479Y408297D01*
X794439Y408296D01*
X794385Y408304D01*
X790575Y408304D01*
X790510Y408293D01*
X790444Y408291D01*
X790401Y408273D01*
X790354Y408265D01*
X790297Y408231D01*
X790237Y408206D01*
X790202Y408175D01*
X790161Y408150D01*
X790120Y408099D01*
X790071Y408055D01*
X790049Y408013D01*
X790020Y407976D01*
X789999Y407914D01*
X789968Y407855D01*
X789960Y407801D01*
X789948Y407764D01*
X789948Y407761D01*
X789949Y407724D01*
X789941Y407670D01*
X789941Y405130D01*
X789952Y405065D01*
X789954Y404999D01*
X789972Y404956D01*
X789980Y404909D01*
X790014Y404852D01*
X790039Y404792D01*
X790070Y404757D01*
X790095Y404716D01*
X790146Y404675D01*
X790190Y404626D01*
X790232Y404604D01*
X790269Y404575D01*
X790331Y404554D01*
X790390Y404523D01*
X790444Y404515D01*
X790481Y404503D01*
X790521Y404504D01*
X790575Y404496D01*
X794385Y404496D01*
X794450Y404507D01*
G37*
G36*
X769050Y328307D02*
X769050Y328307D01*
X769116Y328309D01*
X769159Y328327D01*
X769206Y328335D01*
X769263Y328369D01*
X769323Y328394D01*
X769358Y328425D01*
X769399Y328450D01*
X769441Y328501D01*
X769489Y328545D01*
X769511Y328587D01*
X769540Y328624D01*
X769561Y328686D01*
X769592Y328745D01*
X769600Y328799D01*
X769612Y328836D01*
X769611Y328876D01*
X769619Y328930D01*
X769619Y331470D01*
X769608Y331535D01*
X769606Y331601D01*
X769588Y331644D01*
X769580Y331691D01*
X769546Y331748D01*
X769521Y331808D01*
X769490Y331843D01*
X769465Y331884D01*
X769414Y331926D01*
X769370Y331974D01*
X769328Y331996D01*
X769291Y332025D01*
X769229Y332046D01*
X769170Y332077D01*
X769116Y332085D01*
X769079Y332097D01*
X769039Y332096D01*
X768985Y332104D01*
X765175Y332104D01*
X765110Y332093D01*
X765044Y332091D01*
X765001Y332073D01*
X764954Y332065D01*
X764897Y332031D01*
X764837Y332006D01*
X764802Y331975D01*
X764761Y331950D01*
X764720Y331899D01*
X764671Y331855D01*
X764649Y331813D01*
X764620Y331776D01*
X764599Y331714D01*
X764568Y331655D01*
X764560Y331601D01*
X764548Y331564D01*
X764548Y331561D01*
X764549Y331524D01*
X764541Y331470D01*
X764541Y328930D01*
X764552Y328865D01*
X764554Y328799D01*
X764572Y328756D01*
X764580Y328709D01*
X764614Y328652D01*
X764639Y328592D01*
X764670Y328557D01*
X764695Y328516D01*
X764746Y328475D01*
X764790Y328426D01*
X764832Y328404D01*
X764869Y328375D01*
X764931Y328354D01*
X764990Y328323D01*
X765044Y328315D01*
X765081Y328303D01*
X765121Y328304D01*
X765175Y328296D01*
X768985Y328296D01*
X769050Y328307D01*
G37*
G36*
X128970Y328307D02*
X128970Y328307D01*
X129036Y328309D01*
X129079Y328327D01*
X129126Y328335D01*
X129183Y328369D01*
X129243Y328394D01*
X129278Y328425D01*
X129319Y328450D01*
X129361Y328501D01*
X129409Y328545D01*
X129431Y328587D01*
X129460Y328624D01*
X129481Y328686D01*
X129512Y328745D01*
X129520Y328799D01*
X129532Y328836D01*
X129531Y328876D01*
X129539Y328930D01*
X129539Y331470D01*
X129528Y331535D01*
X129526Y331601D01*
X129508Y331644D01*
X129500Y331691D01*
X129466Y331748D01*
X129441Y331808D01*
X129410Y331843D01*
X129385Y331884D01*
X129334Y331926D01*
X129290Y331974D01*
X129248Y331996D01*
X129211Y332025D01*
X129149Y332046D01*
X129090Y332077D01*
X129036Y332085D01*
X128999Y332097D01*
X128959Y332096D01*
X128905Y332104D01*
X125095Y332104D01*
X125030Y332093D01*
X124964Y332091D01*
X124921Y332073D01*
X124874Y332065D01*
X124817Y332031D01*
X124757Y332006D01*
X124722Y331975D01*
X124681Y331950D01*
X124640Y331899D01*
X124591Y331855D01*
X124569Y331813D01*
X124540Y331776D01*
X124519Y331714D01*
X124488Y331655D01*
X124480Y331601D01*
X124468Y331564D01*
X124468Y331561D01*
X124469Y331524D01*
X124461Y331470D01*
X124461Y328930D01*
X124472Y328865D01*
X124474Y328799D01*
X124492Y328756D01*
X124500Y328709D01*
X124534Y328652D01*
X124559Y328592D01*
X124590Y328557D01*
X124615Y328516D01*
X124666Y328475D01*
X124710Y328426D01*
X124752Y328404D01*
X124789Y328375D01*
X124851Y328354D01*
X124910Y328323D01*
X124964Y328315D01*
X125001Y328303D01*
X125041Y328304D01*
X125095Y328296D01*
X128905Y328296D01*
X128970Y328307D01*
G37*
G36*
X509970Y328307D02*
X509970Y328307D01*
X510036Y328309D01*
X510079Y328327D01*
X510126Y328335D01*
X510183Y328369D01*
X510243Y328394D01*
X510278Y328425D01*
X510319Y328450D01*
X510361Y328501D01*
X510409Y328545D01*
X510431Y328587D01*
X510460Y328624D01*
X510481Y328686D01*
X510512Y328745D01*
X510520Y328799D01*
X510532Y328836D01*
X510531Y328876D01*
X510539Y328930D01*
X510539Y331470D01*
X510528Y331535D01*
X510526Y331601D01*
X510508Y331644D01*
X510500Y331691D01*
X510466Y331748D01*
X510441Y331808D01*
X510410Y331843D01*
X510385Y331884D01*
X510334Y331926D01*
X510290Y331974D01*
X510248Y331996D01*
X510211Y332025D01*
X510149Y332046D01*
X510090Y332077D01*
X510036Y332085D01*
X509999Y332097D01*
X509959Y332096D01*
X509905Y332104D01*
X506095Y332104D01*
X506030Y332093D01*
X505964Y332091D01*
X505921Y332073D01*
X505874Y332065D01*
X505817Y332031D01*
X505757Y332006D01*
X505722Y331975D01*
X505681Y331950D01*
X505640Y331899D01*
X505591Y331855D01*
X505569Y331813D01*
X505540Y331776D01*
X505519Y331714D01*
X505488Y331655D01*
X505480Y331601D01*
X505468Y331564D01*
X505468Y331561D01*
X505469Y331524D01*
X505461Y331470D01*
X505461Y328930D01*
X505472Y328865D01*
X505474Y328799D01*
X505492Y328756D01*
X505500Y328709D01*
X505534Y328652D01*
X505559Y328592D01*
X505590Y328557D01*
X505615Y328516D01*
X505666Y328475D01*
X505710Y328426D01*
X505752Y328404D01*
X505789Y328375D01*
X505851Y328354D01*
X505910Y328323D01*
X505964Y328315D01*
X506001Y328303D01*
X506041Y328304D01*
X506095Y328296D01*
X509905Y328296D01*
X509970Y328307D01*
G37*
G36*
X1150050Y328307D02*
X1150050Y328307D01*
X1150116Y328309D01*
X1150159Y328327D01*
X1150206Y328335D01*
X1150263Y328369D01*
X1150323Y328394D01*
X1150358Y328425D01*
X1150399Y328450D01*
X1150441Y328501D01*
X1150489Y328545D01*
X1150511Y328587D01*
X1150540Y328624D01*
X1150561Y328686D01*
X1150592Y328745D01*
X1150600Y328799D01*
X1150612Y328836D01*
X1150611Y328876D01*
X1150619Y328930D01*
X1150619Y331470D01*
X1150608Y331535D01*
X1150606Y331601D01*
X1150588Y331644D01*
X1150580Y331691D01*
X1150546Y331748D01*
X1150521Y331808D01*
X1150490Y331843D01*
X1150465Y331884D01*
X1150414Y331926D01*
X1150370Y331974D01*
X1150328Y331996D01*
X1150291Y332025D01*
X1150229Y332046D01*
X1150170Y332077D01*
X1150116Y332085D01*
X1150079Y332097D01*
X1150039Y332096D01*
X1149985Y332104D01*
X1146175Y332104D01*
X1146110Y332093D01*
X1146044Y332091D01*
X1146001Y332073D01*
X1145954Y332065D01*
X1145897Y332031D01*
X1145837Y332006D01*
X1145802Y331975D01*
X1145761Y331950D01*
X1145720Y331899D01*
X1145671Y331855D01*
X1145649Y331813D01*
X1145620Y331776D01*
X1145599Y331714D01*
X1145568Y331655D01*
X1145560Y331601D01*
X1145548Y331564D01*
X1145548Y331561D01*
X1145549Y331524D01*
X1145541Y331470D01*
X1145541Y328930D01*
X1145552Y328865D01*
X1145554Y328799D01*
X1145572Y328756D01*
X1145580Y328709D01*
X1145614Y328652D01*
X1145639Y328592D01*
X1145670Y328557D01*
X1145695Y328516D01*
X1145746Y328475D01*
X1145790Y328426D01*
X1145832Y328404D01*
X1145869Y328375D01*
X1145931Y328354D01*
X1145990Y328323D01*
X1146044Y328315D01*
X1146081Y328303D01*
X1146121Y328304D01*
X1146175Y328296D01*
X1149985Y328296D01*
X1150050Y328307D01*
G37*
G36*
X446470Y245757D02*
X446470Y245757D01*
X446536Y245759D01*
X446579Y245777D01*
X446626Y245785D01*
X446683Y245819D01*
X446743Y245844D01*
X446778Y245875D01*
X446819Y245900D01*
X446861Y245951D01*
X446909Y245995D01*
X446931Y246037D01*
X446960Y246074D01*
X446981Y246136D01*
X447012Y246195D01*
X447020Y246249D01*
X447032Y246286D01*
X447031Y246326D01*
X447039Y246380D01*
X447039Y248920D01*
X447028Y248985D01*
X447026Y249051D01*
X447008Y249094D01*
X447000Y249141D01*
X446966Y249198D01*
X446941Y249258D01*
X446910Y249293D01*
X446885Y249334D01*
X446834Y249376D01*
X446790Y249424D01*
X446748Y249446D01*
X446711Y249475D01*
X446649Y249496D01*
X446590Y249527D01*
X446536Y249535D01*
X446499Y249547D01*
X446459Y249546D01*
X446405Y249554D01*
X442595Y249554D01*
X442530Y249543D01*
X442464Y249541D01*
X442421Y249523D01*
X442374Y249515D01*
X442317Y249481D01*
X442257Y249456D01*
X442222Y249425D01*
X442181Y249400D01*
X442140Y249349D01*
X442091Y249305D01*
X442069Y249263D01*
X442040Y249226D01*
X442019Y249164D01*
X441988Y249105D01*
X441980Y249051D01*
X441968Y249014D01*
X441968Y249011D01*
X441969Y248974D01*
X441961Y248920D01*
X441961Y246380D01*
X441972Y246315D01*
X441974Y246249D01*
X441992Y246206D01*
X442000Y246159D01*
X442034Y246102D01*
X442059Y246042D01*
X442090Y246007D01*
X442115Y245966D01*
X442166Y245925D01*
X442210Y245876D01*
X442252Y245854D01*
X442289Y245825D01*
X442351Y245804D01*
X442410Y245773D01*
X442464Y245765D01*
X442501Y245753D01*
X442541Y245754D01*
X442595Y245746D01*
X446405Y245746D01*
X446470Y245757D01*
G37*
G36*
X489650Y245757D02*
X489650Y245757D01*
X489716Y245759D01*
X489759Y245777D01*
X489806Y245785D01*
X489863Y245819D01*
X489923Y245844D01*
X489958Y245875D01*
X489999Y245900D01*
X490041Y245951D01*
X490089Y245995D01*
X490111Y246037D01*
X490140Y246074D01*
X490161Y246136D01*
X490192Y246195D01*
X490200Y246249D01*
X490212Y246286D01*
X490211Y246326D01*
X490219Y246380D01*
X490219Y248920D01*
X490208Y248985D01*
X490206Y249051D01*
X490188Y249094D01*
X490180Y249141D01*
X490146Y249198D01*
X490121Y249258D01*
X490090Y249293D01*
X490065Y249334D01*
X490014Y249376D01*
X489970Y249424D01*
X489928Y249446D01*
X489891Y249475D01*
X489829Y249496D01*
X489770Y249527D01*
X489716Y249535D01*
X489679Y249547D01*
X489639Y249546D01*
X489585Y249554D01*
X485775Y249554D01*
X485710Y249543D01*
X485644Y249541D01*
X485601Y249523D01*
X485554Y249515D01*
X485497Y249481D01*
X485437Y249456D01*
X485402Y249425D01*
X485361Y249400D01*
X485320Y249349D01*
X485271Y249305D01*
X485249Y249263D01*
X485220Y249226D01*
X485199Y249164D01*
X485168Y249105D01*
X485160Y249051D01*
X485148Y249014D01*
X485148Y249011D01*
X485149Y248974D01*
X485141Y248920D01*
X485141Y246380D01*
X485152Y246315D01*
X485154Y246249D01*
X485172Y246206D01*
X485180Y246159D01*
X485214Y246102D01*
X485239Y246042D01*
X485270Y246007D01*
X485295Y245966D01*
X485346Y245925D01*
X485390Y245876D01*
X485432Y245854D01*
X485469Y245825D01*
X485531Y245804D01*
X485590Y245773D01*
X485644Y245765D01*
X485681Y245753D01*
X485721Y245754D01*
X485775Y245746D01*
X489585Y245746D01*
X489650Y245757D01*
G37*
G36*
X1086550Y245757D02*
X1086550Y245757D01*
X1086616Y245759D01*
X1086659Y245777D01*
X1086706Y245785D01*
X1086763Y245819D01*
X1086823Y245844D01*
X1086858Y245875D01*
X1086899Y245900D01*
X1086941Y245951D01*
X1086989Y245995D01*
X1087011Y246037D01*
X1087040Y246074D01*
X1087061Y246136D01*
X1087092Y246195D01*
X1087100Y246249D01*
X1087112Y246286D01*
X1087111Y246326D01*
X1087119Y246380D01*
X1087119Y248920D01*
X1087108Y248985D01*
X1087106Y249051D01*
X1087088Y249094D01*
X1087080Y249141D01*
X1087046Y249198D01*
X1087021Y249258D01*
X1086990Y249293D01*
X1086965Y249334D01*
X1086914Y249376D01*
X1086870Y249424D01*
X1086828Y249446D01*
X1086791Y249475D01*
X1086729Y249496D01*
X1086670Y249527D01*
X1086616Y249535D01*
X1086579Y249547D01*
X1086539Y249546D01*
X1086485Y249554D01*
X1082675Y249554D01*
X1082610Y249543D01*
X1082544Y249541D01*
X1082501Y249523D01*
X1082454Y249515D01*
X1082397Y249481D01*
X1082337Y249456D01*
X1082302Y249425D01*
X1082261Y249400D01*
X1082220Y249349D01*
X1082171Y249305D01*
X1082149Y249263D01*
X1082120Y249226D01*
X1082099Y249164D01*
X1082068Y249105D01*
X1082060Y249051D01*
X1082048Y249014D01*
X1082048Y249011D01*
X1082049Y248974D01*
X1082041Y248920D01*
X1082041Y246380D01*
X1082052Y246315D01*
X1082054Y246249D01*
X1082072Y246206D01*
X1082080Y246159D01*
X1082114Y246102D01*
X1082139Y246042D01*
X1082170Y246007D01*
X1082195Y245966D01*
X1082246Y245925D01*
X1082290Y245876D01*
X1082332Y245854D01*
X1082369Y245825D01*
X1082431Y245804D01*
X1082490Y245773D01*
X1082544Y245765D01*
X1082581Y245753D01*
X1082621Y245754D01*
X1082675Y245746D01*
X1086485Y245746D01*
X1086550Y245757D01*
G37*
G36*
X1129730Y245757D02*
X1129730Y245757D01*
X1129796Y245759D01*
X1129839Y245777D01*
X1129886Y245785D01*
X1129943Y245819D01*
X1130003Y245844D01*
X1130038Y245875D01*
X1130079Y245900D01*
X1130121Y245951D01*
X1130169Y245995D01*
X1130191Y246037D01*
X1130220Y246074D01*
X1130241Y246136D01*
X1130272Y246195D01*
X1130280Y246249D01*
X1130292Y246286D01*
X1130291Y246326D01*
X1130299Y246380D01*
X1130299Y248920D01*
X1130288Y248985D01*
X1130286Y249051D01*
X1130268Y249094D01*
X1130260Y249141D01*
X1130226Y249198D01*
X1130201Y249258D01*
X1130170Y249293D01*
X1130145Y249334D01*
X1130094Y249376D01*
X1130050Y249424D01*
X1130008Y249446D01*
X1129971Y249475D01*
X1129909Y249496D01*
X1129850Y249527D01*
X1129796Y249535D01*
X1129759Y249547D01*
X1129719Y249546D01*
X1129665Y249554D01*
X1125855Y249554D01*
X1125790Y249543D01*
X1125724Y249541D01*
X1125681Y249523D01*
X1125634Y249515D01*
X1125577Y249481D01*
X1125517Y249456D01*
X1125482Y249425D01*
X1125441Y249400D01*
X1125400Y249349D01*
X1125351Y249305D01*
X1125329Y249263D01*
X1125300Y249226D01*
X1125279Y249164D01*
X1125248Y249105D01*
X1125240Y249051D01*
X1125228Y249014D01*
X1125228Y249011D01*
X1125229Y248974D01*
X1125221Y248920D01*
X1125221Y246380D01*
X1125232Y246315D01*
X1125234Y246249D01*
X1125252Y246206D01*
X1125260Y246159D01*
X1125294Y246102D01*
X1125319Y246042D01*
X1125350Y246007D01*
X1125375Y245966D01*
X1125426Y245925D01*
X1125470Y245876D01*
X1125512Y245854D01*
X1125549Y245825D01*
X1125611Y245804D01*
X1125670Y245773D01*
X1125724Y245765D01*
X1125761Y245753D01*
X1125801Y245754D01*
X1125855Y245746D01*
X1129665Y245746D01*
X1129730Y245757D01*
G37*
G36*
X1119570Y245757D02*
X1119570Y245757D01*
X1119636Y245759D01*
X1119679Y245777D01*
X1119726Y245785D01*
X1119783Y245819D01*
X1119843Y245844D01*
X1119878Y245875D01*
X1119919Y245900D01*
X1119961Y245951D01*
X1120009Y245995D01*
X1120031Y246037D01*
X1120060Y246074D01*
X1120081Y246136D01*
X1120112Y246195D01*
X1120120Y246249D01*
X1120132Y246286D01*
X1120131Y246326D01*
X1120139Y246380D01*
X1120139Y248920D01*
X1120128Y248985D01*
X1120126Y249051D01*
X1120108Y249094D01*
X1120100Y249141D01*
X1120066Y249198D01*
X1120041Y249258D01*
X1120010Y249293D01*
X1119985Y249334D01*
X1119934Y249376D01*
X1119890Y249424D01*
X1119848Y249446D01*
X1119811Y249475D01*
X1119749Y249496D01*
X1119690Y249527D01*
X1119636Y249535D01*
X1119599Y249547D01*
X1119559Y249546D01*
X1119505Y249554D01*
X1115695Y249554D01*
X1115630Y249543D01*
X1115564Y249541D01*
X1115521Y249523D01*
X1115474Y249515D01*
X1115417Y249481D01*
X1115357Y249456D01*
X1115322Y249425D01*
X1115281Y249400D01*
X1115240Y249349D01*
X1115191Y249305D01*
X1115169Y249263D01*
X1115140Y249226D01*
X1115119Y249164D01*
X1115088Y249105D01*
X1115080Y249051D01*
X1115068Y249014D01*
X1115068Y249011D01*
X1115069Y248974D01*
X1115061Y248920D01*
X1115061Y246380D01*
X1115072Y246315D01*
X1115074Y246249D01*
X1115092Y246206D01*
X1115100Y246159D01*
X1115134Y246102D01*
X1115159Y246042D01*
X1115190Y246007D01*
X1115215Y245966D01*
X1115266Y245925D01*
X1115310Y245876D01*
X1115352Y245854D01*
X1115389Y245825D01*
X1115451Y245804D01*
X1115510Y245773D01*
X1115564Y245765D01*
X1115601Y245753D01*
X1115641Y245754D01*
X1115695Y245746D01*
X1119505Y245746D01*
X1119570Y245757D01*
G37*
G36*
X479490Y245757D02*
X479490Y245757D01*
X479556Y245759D01*
X479599Y245777D01*
X479646Y245785D01*
X479703Y245819D01*
X479763Y245844D01*
X479798Y245875D01*
X479839Y245900D01*
X479881Y245951D01*
X479929Y245995D01*
X479951Y246037D01*
X479980Y246074D01*
X480001Y246136D01*
X480032Y246195D01*
X480040Y246249D01*
X480052Y246286D01*
X480051Y246326D01*
X480059Y246380D01*
X480059Y248920D01*
X480048Y248985D01*
X480046Y249051D01*
X480028Y249094D01*
X480020Y249141D01*
X479986Y249198D01*
X479961Y249258D01*
X479930Y249293D01*
X479905Y249334D01*
X479854Y249376D01*
X479810Y249424D01*
X479768Y249446D01*
X479731Y249475D01*
X479669Y249496D01*
X479610Y249527D01*
X479556Y249535D01*
X479519Y249547D01*
X479479Y249546D01*
X479425Y249554D01*
X475615Y249554D01*
X475550Y249543D01*
X475484Y249541D01*
X475441Y249523D01*
X475394Y249515D01*
X475337Y249481D01*
X475277Y249456D01*
X475242Y249425D01*
X475201Y249400D01*
X475160Y249349D01*
X475111Y249305D01*
X475089Y249263D01*
X475060Y249226D01*
X475039Y249164D01*
X475008Y249105D01*
X475000Y249051D01*
X474988Y249014D01*
X474988Y249011D01*
X474989Y248974D01*
X474981Y248920D01*
X474981Y246380D01*
X474992Y246315D01*
X474994Y246249D01*
X475012Y246206D01*
X475020Y246159D01*
X475054Y246102D01*
X475079Y246042D01*
X475110Y246007D01*
X475135Y245966D01*
X475186Y245925D01*
X475230Y245876D01*
X475272Y245854D01*
X475309Y245825D01*
X475371Y245804D01*
X475430Y245773D01*
X475484Y245765D01*
X475521Y245753D01*
X475561Y245754D01*
X475615Y245746D01*
X479425Y245746D01*
X479490Y245757D01*
G37*
G36*
X794450Y1494167D02*
X794450Y1494167D01*
X794516Y1494169D01*
X794559Y1494187D01*
X794606Y1494195D01*
X794663Y1494229D01*
X794723Y1494254D01*
X794758Y1494285D01*
X794799Y1494310D01*
X794841Y1494361D01*
X794889Y1494405D01*
X794911Y1494447D01*
X794940Y1494484D01*
X794961Y1494546D01*
X794992Y1494605D01*
X795000Y1494659D01*
X795012Y1494696D01*
X795011Y1494736D01*
X795019Y1494790D01*
X795019Y1497330D01*
X795008Y1497395D01*
X795006Y1497461D01*
X794988Y1497504D01*
X794980Y1497551D01*
X794946Y1497608D01*
X794921Y1497668D01*
X794890Y1497703D01*
X794865Y1497744D01*
X794814Y1497786D01*
X794770Y1497834D01*
X794728Y1497856D01*
X794691Y1497885D01*
X794629Y1497906D01*
X794570Y1497937D01*
X794516Y1497945D01*
X794479Y1497957D01*
X794439Y1497956D01*
X794385Y1497964D01*
X790575Y1497964D01*
X790510Y1497953D01*
X790444Y1497951D01*
X790401Y1497933D01*
X790354Y1497925D01*
X790297Y1497891D01*
X790237Y1497866D01*
X790202Y1497835D01*
X790161Y1497810D01*
X790120Y1497759D01*
X790071Y1497715D01*
X790049Y1497673D01*
X790020Y1497636D01*
X789999Y1497574D01*
X789968Y1497515D01*
X789960Y1497461D01*
X789948Y1497424D01*
X789948Y1497421D01*
X789949Y1497384D01*
X789941Y1497330D01*
X789941Y1494790D01*
X789952Y1494725D01*
X789954Y1494659D01*
X789972Y1494616D01*
X789980Y1494569D01*
X790014Y1494512D01*
X790039Y1494452D01*
X790070Y1494417D01*
X790095Y1494376D01*
X790146Y1494335D01*
X790190Y1494286D01*
X790232Y1494264D01*
X790269Y1494235D01*
X790331Y1494214D01*
X790390Y1494183D01*
X790444Y1494175D01*
X790481Y1494163D01*
X790521Y1494164D01*
X790575Y1494156D01*
X794385Y1494156D01*
X794450Y1494167D01*
G37*
G36*
X154370Y1494167D02*
X154370Y1494167D01*
X154436Y1494169D01*
X154479Y1494187D01*
X154526Y1494195D01*
X154583Y1494229D01*
X154643Y1494254D01*
X154678Y1494285D01*
X154719Y1494310D01*
X154761Y1494361D01*
X154809Y1494405D01*
X154831Y1494447D01*
X154860Y1494484D01*
X154881Y1494546D01*
X154912Y1494605D01*
X154920Y1494659D01*
X154932Y1494696D01*
X154931Y1494736D01*
X154939Y1494790D01*
X154939Y1497330D01*
X154928Y1497395D01*
X154926Y1497461D01*
X154908Y1497504D01*
X154900Y1497551D01*
X154866Y1497608D01*
X154841Y1497668D01*
X154810Y1497703D01*
X154785Y1497744D01*
X154734Y1497786D01*
X154690Y1497834D01*
X154648Y1497856D01*
X154611Y1497885D01*
X154549Y1497906D01*
X154490Y1497937D01*
X154436Y1497945D01*
X154399Y1497957D01*
X154359Y1497956D01*
X154305Y1497964D01*
X150495Y1497964D01*
X150430Y1497953D01*
X150364Y1497951D01*
X150321Y1497933D01*
X150274Y1497925D01*
X150217Y1497891D01*
X150157Y1497866D01*
X150122Y1497835D01*
X150081Y1497810D01*
X150040Y1497759D01*
X149991Y1497715D01*
X149969Y1497673D01*
X149940Y1497636D01*
X149919Y1497574D01*
X149888Y1497515D01*
X149880Y1497461D01*
X149868Y1497424D01*
X149868Y1497421D01*
X149869Y1497384D01*
X149861Y1497330D01*
X149861Y1494790D01*
X149872Y1494725D01*
X149874Y1494659D01*
X149892Y1494616D01*
X149900Y1494569D01*
X149934Y1494512D01*
X149959Y1494452D01*
X149990Y1494417D01*
X150015Y1494376D01*
X150066Y1494335D01*
X150110Y1494286D01*
X150152Y1494264D01*
X150189Y1494235D01*
X150251Y1494214D01*
X150310Y1494183D01*
X150364Y1494175D01*
X150401Y1494163D01*
X150441Y1494164D01*
X150495Y1494156D01*
X154305Y1494156D01*
X154370Y1494167D01*
G37*
G36*
X1245300Y80657D02*
X1245300Y80657D01*
X1245366Y80659D01*
X1245409Y80677D01*
X1245456Y80685D01*
X1245513Y80719D01*
X1245573Y80744D01*
X1245608Y80775D01*
X1245649Y80800D01*
X1245691Y80851D01*
X1245739Y80895D01*
X1245761Y80937D01*
X1245790Y80974D01*
X1245811Y81036D01*
X1245842Y81095D01*
X1245850Y81149D01*
X1245862Y81186D01*
X1245861Y81226D01*
X1245869Y81280D01*
X1245869Y83820D01*
X1245858Y83885D01*
X1245856Y83951D01*
X1245838Y83994D01*
X1245830Y84041D01*
X1245796Y84098D01*
X1245771Y84158D01*
X1245740Y84193D01*
X1245715Y84234D01*
X1245664Y84276D01*
X1245620Y84324D01*
X1245578Y84346D01*
X1245541Y84375D01*
X1245479Y84396D01*
X1245420Y84427D01*
X1245366Y84435D01*
X1245329Y84447D01*
X1245289Y84446D01*
X1245235Y84454D01*
X1241425Y84454D01*
X1241360Y84443D01*
X1241294Y84441D01*
X1241251Y84423D01*
X1241204Y84415D01*
X1241147Y84381D01*
X1241087Y84356D01*
X1241052Y84325D01*
X1241011Y84300D01*
X1240970Y84249D01*
X1240921Y84205D01*
X1240899Y84163D01*
X1240870Y84126D01*
X1240849Y84064D01*
X1240818Y84005D01*
X1240810Y83951D01*
X1240798Y83914D01*
X1240798Y83911D01*
X1240799Y83874D01*
X1240791Y83820D01*
X1240791Y81280D01*
X1240802Y81215D01*
X1240804Y81149D01*
X1240822Y81106D01*
X1240830Y81059D01*
X1240864Y81002D01*
X1240889Y80942D01*
X1240920Y80907D01*
X1240945Y80866D01*
X1240996Y80825D01*
X1241040Y80776D01*
X1241082Y80754D01*
X1241119Y80725D01*
X1241181Y80704D01*
X1241240Y80673D01*
X1241294Y80665D01*
X1241331Y80653D01*
X1241371Y80654D01*
X1241425Y80646D01*
X1245235Y80646D01*
X1245300Y80657D01*
G37*
G36*
X605220Y80657D02*
X605220Y80657D01*
X605286Y80659D01*
X605329Y80677D01*
X605376Y80685D01*
X605433Y80719D01*
X605493Y80744D01*
X605528Y80775D01*
X605569Y80800D01*
X605611Y80851D01*
X605659Y80895D01*
X605681Y80937D01*
X605710Y80974D01*
X605731Y81036D01*
X605762Y81095D01*
X605770Y81149D01*
X605782Y81186D01*
X605781Y81226D01*
X605789Y81280D01*
X605789Y83820D01*
X605778Y83885D01*
X605776Y83951D01*
X605758Y83994D01*
X605750Y84041D01*
X605716Y84098D01*
X605691Y84158D01*
X605660Y84193D01*
X605635Y84234D01*
X605584Y84276D01*
X605540Y84324D01*
X605498Y84346D01*
X605461Y84375D01*
X605399Y84396D01*
X605340Y84427D01*
X605286Y84435D01*
X605249Y84447D01*
X605209Y84446D01*
X605155Y84454D01*
X601345Y84454D01*
X601280Y84443D01*
X601214Y84441D01*
X601171Y84423D01*
X601124Y84415D01*
X601067Y84381D01*
X601007Y84356D01*
X600972Y84325D01*
X600931Y84300D01*
X600890Y84249D01*
X600841Y84205D01*
X600819Y84163D01*
X600790Y84126D01*
X600769Y84064D01*
X600738Y84005D01*
X600730Y83951D01*
X600718Y83914D01*
X600718Y83911D01*
X600719Y83874D01*
X600711Y83820D01*
X600711Y81280D01*
X600722Y81215D01*
X600724Y81149D01*
X600742Y81106D01*
X600750Y81059D01*
X600784Y81002D01*
X600809Y80942D01*
X600840Y80907D01*
X600865Y80866D01*
X600916Y80825D01*
X600960Y80776D01*
X601002Y80754D01*
X601039Y80725D01*
X601101Y80704D01*
X601160Y80673D01*
X601214Y80665D01*
X601251Y80653D01*
X601291Y80654D01*
X601345Y80646D01*
X605155Y80646D01*
X605220Y80657D01*
G37*
G36*
X781750Y42557D02*
X781750Y42557D01*
X781816Y42559D01*
X781859Y42577D01*
X781906Y42585D01*
X781963Y42619D01*
X782023Y42644D01*
X782058Y42675D01*
X782099Y42700D01*
X782141Y42751D01*
X782189Y42795D01*
X782211Y42837D01*
X782240Y42874D01*
X782261Y42936D01*
X782292Y42995D01*
X782300Y43049D01*
X782312Y43086D01*
X782311Y43126D01*
X782319Y43180D01*
X782319Y45720D01*
X782308Y45785D01*
X782306Y45851D01*
X782288Y45894D01*
X782280Y45941D01*
X782246Y45998D01*
X782221Y46058D01*
X782190Y46093D01*
X782165Y46134D01*
X782114Y46176D01*
X782070Y46224D01*
X782028Y46246D01*
X781991Y46275D01*
X781929Y46296D01*
X781870Y46327D01*
X781816Y46335D01*
X781779Y46347D01*
X781739Y46346D01*
X781685Y46354D01*
X777875Y46354D01*
X777810Y46343D01*
X777744Y46341D01*
X777701Y46323D01*
X777654Y46315D01*
X777597Y46281D01*
X777537Y46256D01*
X777502Y46225D01*
X777461Y46200D01*
X777420Y46149D01*
X777371Y46105D01*
X777349Y46063D01*
X777320Y46026D01*
X777299Y45964D01*
X777268Y45905D01*
X777260Y45851D01*
X777248Y45814D01*
X777248Y45811D01*
X777249Y45774D01*
X777241Y45720D01*
X777241Y43180D01*
X777252Y43115D01*
X777254Y43049D01*
X777272Y43006D01*
X777280Y42959D01*
X777314Y42902D01*
X777339Y42842D01*
X777370Y42807D01*
X777395Y42766D01*
X777446Y42725D01*
X777490Y42676D01*
X777532Y42654D01*
X777569Y42625D01*
X777631Y42604D01*
X777690Y42573D01*
X777744Y42565D01*
X777781Y42553D01*
X777821Y42554D01*
X777875Y42546D01*
X781685Y42546D01*
X781750Y42557D01*
G37*
G36*
X141670Y42557D02*
X141670Y42557D01*
X141736Y42559D01*
X141779Y42577D01*
X141826Y42585D01*
X141883Y42619D01*
X141943Y42644D01*
X141978Y42675D01*
X142019Y42700D01*
X142061Y42751D01*
X142109Y42795D01*
X142131Y42837D01*
X142160Y42874D01*
X142181Y42936D01*
X142212Y42995D01*
X142220Y43049D01*
X142232Y43086D01*
X142231Y43126D01*
X142239Y43180D01*
X142239Y45720D01*
X142228Y45785D01*
X142226Y45851D01*
X142208Y45894D01*
X142200Y45941D01*
X142166Y45998D01*
X142141Y46058D01*
X142110Y46093D01*
X142085Y46134D01*
X142034Y46176D01*
X141990Y46224D01*
X141948Y46246D01*
X141911Y46275D01*
X141849Y46296D01*
X141790Y46327D01*
X141736Y46335D01*
X141699Y46347D01*
X141659Y46346D01*
X141605Y46354D01*
X137795Y46354D01*
X137730Y46343D01*
X137664Y46341D01*
X137621Y46323D01*
X137574Y46315D01*
X137517Y46281D01*
X137457Y46256D01*
X137422Y46225D01*
X137381Y46200D01*
X137340Y46149D01*
X137291Y46105D01*
X137269Y46063D01*
X137240Y46026D01*
X137219Y45964D01*
X137188Y45905D01*
X137180Y45851D01*
X137168Y45814D01*
X137168Y45811D01*
X137169Y45774D01*
X137161Y45720D01*
X137161Y43180D01*
X137172Y43115D01*
X137174Y43049D01*
X137192Y43006D01*
X137200Y42959D01*
X137234Y42902D01*
X137259Y42842D01*
X137290Y42807D01*
X137315Y42766D01*
X137366Y42725D01*
X137410Y42676D01*
X137452Y42654D01*
X137489Y42625D01*
X137551Y42604D01*
X137610Y42573D01*
X137664Y42565D01*
X137701Y42553D01*
X137741Y42554D01*
X137795Y42546D01*
X141605Y42546D01*
X141670Y42557D01*
G37*
D10*
X609600Y488950D03*
X25400Y50800D03*
D11*
X609600Y25400D03*
X609600Y514350D03*
X25400Y514350D03*
X25400Y25400D03*
D12*
X605653Y113802D02*
X611261Y113802D01*
X611261Y102098D01*
X605653Y102098D01*
X605653Y113802D01*
X605653Y104492D02*
X611261Y104492D01*
X611261Y106886D02*
X605653Y106886D01*
X605653Y109280D02*
X611261Y109280D01*
X611261Y111674D02*
X605653Y111674D01*
X600847Y113802D02*
X595239Y113802D01*
X600847Y113802D02*
X600847Y102098D01*
X595239Y102098D01*
X595239Y113802D01*
X595239Y104492D02*
X600847Y104492D01*
X600847Y106886D02*
X595239Y106886D01*
X595239Y109280D02*
X600847Y109280D01*
X600847Y111674D02*
X595239Y111674D01*
D13*
X11430Y165100D03*
X13970Y190500D03*
X11430Y215900D03*
X623570Y215900D03*
X621030Y190500D03*
X623570Y165100D03*
D12*
X135011Y336052D02*
X129403Y336052D01*
X135011Y336052D02*
X135011Y324348D01*
X129403Y324348D01*
X129403Y336052D01*
X129403Y326742D02*
X135011Y326742D01*
X135011Y329136D02*
X129403Y329136D01*
X129403Y331530D02*
X135011Y331530D01*
X135011Y333924D02*
X129403Y333924D01*
X124597Y336052D02*
X118989Y336052D01*
X124597Y336052D02*
X124597Y324348D01*
X118989Y324348D01*
X118989Y336052D01*
X118989Y326742D02*
X124597Y326742D01*
X124597Y329136D02*
X118989Y329136D01*
X118989Y331530D02*
X124597Y331530D01*
X124597Y333924D02*
X118989Y333924D01*
X499989Y324348D02*
X505597Y324348D01*
X499989Y324348D02*
X499989Y336052D01*
X505597Y336052D01*
X505597Y324348D01*
X505597Y326742D02*
X499989Y326742D01*
X499989Y329136D02*
X505597Y329136D01*
X505597Y331530D02*
X499989Y331530D01*
X499989Y333924D02*
X505597Y333924D01*
X510403Y324348D02*
X516011Y324348D01*
X510403Y324348D02*
X510403Y336052D01*
X516011Y336052D01*
X516011Y324348D01*
X516011Y326742D02*
X510403Y326742D01*
X510403Y329136D02*
X516011Y329136D01*
X516011Y331530D02*
X510403Y331530D01*
X510403Y333924D02*
X516011Y333924D01*
D14*
X149700Y82550D02*
X129700Y82550D01*
X186690Y103030D02*
X186690Y123030D01*
D15*
X151200Y142240D02*
X128200Y142240D01*
D12*
X436489Y241798D02*
X442097Y241798D01*
X436489Y241798D02*
X436489Y253502D01*
X442097Y253502D01*
X442097Y241798D01*
X442097Y244192D02*
X436489Y244192D01*
X436489Y246586D02*
X442097Y246586D01*
X442097Y248980D02*
X436489Y248980D01*
X436489Y251374D02*
X442097Y251374D01*
X446903Y241798D02*
X452511Y241798D01*
X446903Y241798D02*
X446903Y253502D01*
X452511Y253502D01*
X452511Y241798D01*
X452511Y244192D02*
X446903Y244192D01*
X446903Y246586D02*
X452511Y246586D01*
X452511Y248980D02*
X446903Y248980D01*
X446903Y251374D02*
X452511Y251374D01*
X490210Y253502D02*
X495818Y253502D01*
X495818Y241798D01*
X490210Y241798D01*
X490210Y253502D01*
X490210Y244192D02*
X495818Y244192D01*
X495818Y246586D02*
X490210Y246586D01*
X490210Y248980D02*
X495818Y248980D01*
X495818Y251374D02*
X490210Y251374D01*
X485404Y253502D02*
X479796Y253502D01*
X485404Y253502D02*
X485404Y241798D01*
X479796Y241798D01*
X479796Y253502D01*
X479796Y244192D02*
X485404Y244192D01*
X485404Y246586D02*
X479796Y246586D01*
X479796Y248980D02*
X485404Y248980D01*
X485404Y251374D02*
X479796Y251374D01*
X474990Y253502D02*
X469382Y253502D01*
X474990Y253502D02*
X474990Y241798D01*
X469382Y241798D01*
X469382Y253502D01*
X469382Y244192D02*
X474990Y244192D01*
X474990Y246586D02*
X469382Y246586D01*
X469382Y248980D02*
X474990Y248980D01*
X474990Y251374D02*
X469382Y251374D01*
X137297Y38598D02*
X131689Y38598D01*
X131689Y50302D01*
X137297Y50302D01*
X137297Y38598D01*
X137297Y40992D02*
X131689Y40992D01*
X131689Y43386D02*
X137297Y43386D01*
X137297Y45780D02*
X131689Y45780D01*
X131689Y48174D02*
X137297Y48174D01*
X142103Y38598D02*
X147711Y38598D01*
X142103Y38598D02*
X142103Y50302D01*
X147711Y50302D01*
X147711Y38598D01*
X147711Y40992D02*
X142103Y40992D01*
X142103Y43386D02*
X147711Y43386D01*
X147711Y45780D02*
X142103Y45780D01*
X142103Y48174D02*
X147711Y48174D01*
D16*
X31750Y86600D03*
X31750Y116600D03*
D17*
X63500Y279400D03*
X38100Y266700D03*
X190500Y311150D03*
X215900Y304800D03*
X38100Y381000D03*
X63500Y368300D03*
X393700Y234950D03*
X393700Y260350D03*
X596900Y279400D03*
X571500Y292100D03*
X393700Y361950D03*
X393700Y387350D03*
X571500Y381000D03*
X596900Y393700D03*
X438150Y469900D03*
X438150Y501650D03*
X476250Y482600D03*
X488950Y457200D03*
X546100Y482600D03*
X558800Y457200D03*
X158750Y457200D03*
X88900Y457200D03*
X101600Y482600D03*
X171450Y482600D03*
X50800Y317500D03*
X76200Y317500D03*
X76200Y342900D03*
X50800Y342900D03*
X558800Y317500D03*
X584200Y342900D03*
X584200Y317500D03*
X558800Y342900D03*
X63500Y254000D03*
X584200Y63500D03*
X558800Y63500D03*
X508000Y165100D03*
D12*
X160411Y412252D02*
X154803Y412252D01*
X160411Y412252D02*
X160411Y400548D01*
X154803Y400548D01*
X154803Y412252D01*
X154803Y402942D02*
X160411Y402942D01*
X160411Y405336D02*
X154803Y405336D01*
X154803Y407730D02*
X160411Y407730D01*
X160411Y410124D02*
X154803Y410124D01*
X149997Y412252D02*
X144389Y412252D01*
X149997Y412252D02*
X149997Y400548D01*
X144389Y400548D01*
X144389Y412252D01*
X144389Y402942D02*
X149997Y402942D01*
X149997Y405336D02*
X144389Y405336D01*
X144389Y407730D02*
X149997Y407730D01*
X149997Y410124D02*
X144389Y410124D01*
D17*
X88900Y139700D03*
D12*
X144389Y425948D02*
X149997Y425948D01*
X144389Y425948D02*
X144389Y437652D01*
X149997Y437652D01*
X149997Y425948D01*
X149997Y428342D02*
X144389Y428342D01*
X144389Y430736D02*
X149997Y430736D01*
X149997Y433130D02*
X144389Y433130D01*
X144389Y435524D02*
X149997Y435524D01*
X154803Y425948D02*
X160411Y425948D01*
X154803Y425948D02*
X154803Y437652D01*
X160411Y437652D01*
X160411Y425948D01*
X160411Y428342D02*
X154803Y428342D01*
X154803Y430736D02*
X160411Y430736D01*
X160411Y433130D02*
X154803Y433130D01*
X154803Y435524D02*
X160411Y435524D01*
D17*
X508000Y228600D03*
X450850Y196850D03*
D12*
X595239Y76698D02*
X600847Y76698D01*
X595239Y76698D02*
X595239Y88402D01*
X600847Y88402D01*
X600847Y76698D01*
X600847Y79092D02*
X595239Y79092D01*
X595239Y81486D02*
X600847Y81486D01*
X600847Y83880D02*
X595239Y83880D01*
X595239Y86274D02*
X600847Y86274D01*
X605653Y76698D02*
X611261Y76698D01*
X605653Y76698D02*
X605653Y88402D01*
X611261Y88402D01*
X611261Y76698D01*
X611261Y79092D02*
X605653Y79092D01*
X605653Y81486D02*
X611261Y81486D01*
X611261Y83880D02*
X605653Y83880D01*
X605653Y86274D02*
X611261Y86274D01*
D10*
X1249680Y488950D03*
X665480Y50800D03*
D11*
X1249680Y25400D03*
X1249680Y514350D03*
X665480Y514350D03*
X665480Y25400D03*
D12*
X1245733Y113802D02*
X1251341Y113802D01*
X1251341Y102098D01*
X1245733Y102098D01*
X1245733Y113802D01*
X1245733Y104492D02*
X1251341Y104492D01*
X1251341Y106886D02*
X1245733Y106886D01*
X1245733Y109280D02*
X1251341Y109280D01*
X1251341Y111674D02*
X1245733Y111674D01*
X1240927Y113802D02*
X1235319Y113802D01*
X1240927Y113802D02*
X1240927Y102098D01*
X1235319Y102098D01*
X1235319Y113802D01*
X1235319Y104492D02*
X1240927Y104492D01*
X1240927Y106886D02*
X1235319Y106886D01*
X1235319Y109280D02*
X1240927Y109280D01*
X1240927Y111674D02*
X1235319Y111674D01*
D13*
X651510Y165100D03*
X654050Y190500D03*
X651510Y215900D03*
X1263650Y215900D03*
X1261110Y190500D03*
X1263650Y165100D03*
D12*
X775091Y336052D02*
X769483Y336052D01*
X775091Y336052D02*
X775091Y324348D01*
X769483Y324348D01*
X769483Y336052D01*
X769483Y326742D02*
X775091Y326742D01*
X775091Y329136D02*
X769483Y329136D01*
X769483Y331530D02*
X775091Y331530D01*
X775091Y333924D02*
X769483Y333924D01*
X764677Y336052D02*
X759069Y336052D01*
X764677Y336052D02*
X764677Y324348D01*
X759069Y324348D01*
X759069Y336052D01*
X759069Y326742D02*
X764677Y326742D01*
X764677Y329136D02*
X759069Y329136D01*
X759069Y331530D02*
X764677Y331530D01*
X764677Y333924D02*
X759069Y333924D01*
X1140069Y324348D02*
X1145677Y324348D01*
X1140069Y324348D02*
X1140069Y336052D01*
X1145677Y336052D01*
X1145677Y324348D01*
X1145677Y326742D02*
X1140069Y326742D01*
X1140069Y329136D02*
X1145677Y329136D01*
X1145677Y331530D02*
X1140069Y331530D01*
X1140069Y333924D02*
X1145677Y333924D01*
X1150483Y324348D02*
X1156091Y324348D01*
X1150483Y324348D02*
X1150483Y336052D01*
X1156091Y336052D01*
X1156091Y324348D01*
X1156091Y326742D02*
X1150483Y326742D01*
X1150483Y329136D02*
X1156091Y329136D01*
X1156091Y331530D02*
X1150483Y331530D01*
X1150483Y333924D02*
X1156091Y333924D01*
D14*
X789780Y82550D02*
X769780Y82550D01*
X826770Y103030D02*
X826770Y123030D01*
D15*
X791280Y142240D02*
X768280Y142240D01*
D12*
X1076569Y241798D02*
X1082177Y241798D01*
X1076569Y241798D02*
X1076569Y253502D01*
X1082177Y253502D01*
X1082177Y241798D01*
X1082177Y244192D02*
X1076569Y244192D01*
X1076569Y246586D02*
X1082177Y246586D01*
X1082177Y248980D02*
X1076569Y248980D01*
X1076569Y251374D02*
X1082177Y251374D01*
X1086983Y241798D02*
X1092591Y241798D01*
X1086983Y241798D02*
X1086983Y253502D01*
X1092591Y253502D01*
X1092591Y241798D01*
X1092591Y244192D02*
X1086983Y244192D01*
X1086983Y246586D02*
X1092591Y246586D01*
X1092591Y248980D02*
X1086983Y248980D01*
X1086983Y251374D02*
X1092591Y251374D01*
X1130290Y253502D02*
X1135898Y253502D01*
X1135898Y241798D01*
X1130290Y241798D01*
X1130290Y253502D01*
X1130290Y244192D02*
X1135898Y244192D01*
X1135898Y246586D02*
X1130290Y246586D01*
X1130290Y248980D02*
X1135898Y248980D01*
X1135898Y251374D02*
X1130290Y251374D01*
X1125484Y253502D02*
X1119876Y253502D01*
X1125484Y253502D02*
X1125484Y241798D01*
X1119876Y241798D01*
X1119876Y253502D01*
X1119876Y244192D02*
X1125484Y244192D01*
X1125484Y246586D02*
X1119876Y246586D01*
X1119876Y248980D02*
X1125484Y248980D01*
X1125484Y251374D02*
X1119876Y251374D01*
X1115070Y253502D02*
X1109462Y253502D01*
X1115070Y253502D02*
X1115070Y241798D01*
X1109462Y241798D01*
X1109462Y253502D01*
X1109462Y244192D02*
X1115070Y244192D01*
X1115070Y246586D02*
X1109462Y246586D01*
X1109462Y248980D02*
X1115070Y248980D01*
X1115070Y251374D02*
X1109462Y251374D01*
X777377Y38598D02*
X771769Y38598D01*
X771769Y50302D01*
X777377Y50302D01*
X777377Y38598D01*
X777377Y40992D02*
X771769Y40992D01*
X771769Y43386D02*
X777377Y43386D01*
X777377Y45780D02*
X771769Y45780D01*
X771769Y48174D02*
X777377Y48174D01*
X782183Y38598D02*
X787791Y38598D01*
X782183Y38598D02*
X782183Y50302D01*
X787791Y50302D01*
X787791Y38598D01*
X787791Y40992D02*
X782183Y40992D01*
X782183Y43386D02*
X787791Y43386D01*
X787791Y45780D02*
X782183Y45780D01*
X782183Y48174D02*
X787791Y48174D01*
D16*
X671830Y86600D03*
X671830Y116600D03*
D17*
X703580Y279400D03*
X678180Y266700D03*
X830580Y311150D03*
X855980Y304800D03*
X678180Y381000D03*
X703580Y368300D03*
X1033780Y234950D03*
X1033780Y260350D03*
X1236980Y279400D03*
X1211580Y292100D03*
X1033780Y361950D03*
X1033780Y387350D03*
X1211580Y381000D03*
X1236980Y393700D03*
X1078230Y469900D03*
X1078230Y501650D03*
X1116330Y482600D03*
X1129030Y457200D03*
X1186180Y482600D03*
X1198880Y457200D03*
X798830Y457200D03*
X728980Y457200D03*
X741680Y482600D03*
X811530Y482600D03*
X690880Y317500D03*
X716280Y317500D03*
X716280Y342900D03*
X690880Y342900D03*
X1198880Y317500D03*
X1224280Y342900D03*
X1224280Y317500D03*
X1198880Y342900D03*
X703580Y254000D03*
X1224280Y63500D03*
X1198880Y63500D03*
X1148080Y165100D03*
D12*
X800491Y412252D02*
X794883Y412252D01*
X800491Y412252D02*
X800491Y400548D01*
X794883Y400548D01*
X794883Y412252D01*
X794883Y402942D02*
X800491Y402942D01*
X800491Y405336D02*
X794883Y405336D01*
X794883Y407730D02*
X800491Y407730D01*
X800491Y410124D02*
X794883Y410124D01*
X790077Y412252D02*
X784469Y412252D01*
X790077Y412252D02*
X790077Y400548D01*
X784469Y400548D01*
X784469Y412252D01*
X784469Y402942D02*
X790077Y402942D01*
X790077Y405336D02*
X784469Y405336D01*
X784469Y407730D02*
X790077Y407730D01*
X790077Y410124D02*
X784469Y410124D01*
D17*
X728980Y139700D03*
D12*
X784469Y425948D02*
X790077Y425948D01*
X784469Y425948D02*
X784469Y437652D01*
X790077Y437652D01*
X790077Y425948D01*
X790077Y428342D02*
X784469Y428342D01*
X784469Y430736D02*
X790077Y430736D01*
X790077Y433130D02*
X784469Y433130D01*
X784469Y435524D02*
X790077Y435524D01*
X794883Y425948D02*
X800491Y425948D01*
X794883Y425948D02*
X794883Y437652D01*
X800491Y437652D01*
X800491Y425948D01*
X800491Y428342D02*
X794883Y428342D01*
X794883Y430736D02*
X800491Y430736D01*
X800491Y433130D02*
X794883Y433130D01*
X794883Y435524D02*
X800491Y435524D01*
D17*
X1148080Y228600D03*
X1090930Y196850D03*
D12*
X1235319Y76698D02*
X1240927Y76698D01*
X1235319Y76698D02*
X1235319Y88402D01*
X1240927Y88402D01*
X1240927Y76698D01*
X1240927Y79092D02*
X1235319Y79092D01*
X1235319Y81486D02*
X1240927Y81486D01*
X1240927Y83880D02*
X1235319Y83880D01*
X1235319Y86274D02*
X1240927Y86274D01*
X1245733Y76698D02*
X1251341Y76698D01*
X1245733Y76698D02*
X1245733Y88402D01*
X1251341Y88402D01*
X1251341Y76698D01*
X1251341Y79092D02*
X1245733Y79092D01*
X1245733Y81486D02*
X1251341Y81486D01*
X1251341Y83880D02*
X1245733Y83880D01*
X1245733Y86274D02*
X1251341Y86274D01*
D10*
X609600Y1033780D03*
X25400Y595630D03*
D11*
X609600Y570230D03*
X609600Y1059180D03*
X25400Y1059180D03*
X25400Y570230D03*
D12*
X605653Y658632D02*
X611261Y658632D01*
X611261Y646928D01*
X605653Y646928D01*
X605653Y658632D01*
X605653Y649322D02*
X611261Y649322D01*
X611261Y651716D02*
X605653Y651716D01*
X605653Y654110D02*
X611261Y654110D01*
X611261Y656504D02*
X605653Y656504D01*
X600847Y658632D02*
X595239Y658632D01*
X600847Y658632D02*
X600847Y646928D01*
X595239Y646928D01*
X595239Y658632D01*
X595239Y649322D02*
X600847Y649322D01*
X600847Y651716D02*
X595239Y651716D01*
X595239Y654110D02*
X600847Y654110D01*
X600847Y656504D02*
X595239Y656504D01*
D13*
X11430Y709930D03*
X13970Y735330D03*
X11430Y760730D03*
X623570Y760730D03*
X621030Y735330D03*
X623570Y709930D03*
D12*
X135011Y880882D02*
X129403Y880882D01*
X135011Y880882D02*
X135011Y869178D01*
X129403Y869178D01*
X129403Y880882D01*
X129403Y871572D02*
X135011Y871572D01*
X135011Y873966D02*
X129403Y873966D01*
X129403Y876360D02*
X135011Y876360D01*
X135011Y878754D02*
X129403Y878754D01*
X124597Y880882D02*
X118989Y880882D01*
X124597Y880882D02*
X124597Y869178D01*
X118989Y869178D01*
X118989Y880882D01*
X118989Y871572D02*
X124597Y871572D01*
X124597Y873966D02*
X118989Y873966D01*
X118989Y876360D02*
X124597Y876360D01*
X124597Y878754D02*
X118989Y878754D01*
X499989Y869178D02*
X505597Y869178D01*
X499989Y869178D02*
X499989Y880882D01*
X505597Y880882D01*
X505597Y869178D01*
X505597Y871572D02*
X499989Y871572D01*
X499989Y873966D02*
X505597Y873966D01*
X505597Y876360D02*
X499989Y876360D01*
X499989Y878754D02*
X505597Y878754D01*
X510403Y869178D02*
X516011Y869178D01*
X510403Y869178D02*
X510403Y880882D01*
X516011Y880882D01*
X516011Y869178D01*
X516011Y871572D02*
X510403Y871572D01*
X510403Y873966D02*
X516011Y873966D01*
X516011Y876360D02*
X510403Y876360D01*
X510403Y878754D02*
X516011Y878754D01*
D14*
X149700Y627380D02*
X129700Y627380D01*
X186690Y647860D02*
X186690Y667860D01*
D15*
X151200Y687070D02*
X128200Y687070D01*
D12*
X436489Y786628D02*
X442097Y786628D01*
X436489Y786628D02*
X436489Y798332D01*
X442097Y798332D01*
X442097Y786628D01*
X442097Y789022D02*
X436489Y789022D01*
X436489Y791416D02*
X442097Y791416D01*
X442097Y793810D02*
X436489Y793810D01*
X436489Y796204D02*
X442097Y796204D01*
X446903Y786628D02*
X452511Y786628D01*
X446903Y786628D02*
X446903Y798332D01*
X452511Y798332D01*
X452511Y786628D01*
X452511Y789022D02*
X446903Y789022D01*
X446903Y791416D02*
X452511Y791416D01*
X452511Y793810D02*
X446903Y793810D01*
X446903Y796204D02*
X452511Y796204D01*
X490210Y798332D02*
X495818Y798332D01*
X495818Y786628D01*
X490210Y786628D01*
X490210Y798332D01*
X490210Y789022D02*
X495818Y789022D01*
X495818Y791416D02*
X490210Y791416D01*
X490210Y793810D02*
X495818Y793810D01*
X495818Y796204D02*
X490210Y796204D01*
X485404Y798332D02*
X479796Y798332D01*
X485404Y798332D02*
X485404Y786628D01*
X479796Y786628D01*
X479796Y798332D01*
X479796Y789022D02*
X485404Y789022D01*
X485404Y791416D02*
X479796Y791416D01*
X479796Y793810D02*
X485404Y793810D01*
X485404Y796204D02*
X479796Y796204D01*
X474990Y798332D02*
X469382Y798332D01*
X474990Y798332D02*
X474990Y786628D01*
X469382Y786628D01*
X469382Y798332D01*
X469382Y789022D02*
X474990Y789022D01*
X474990Y791416D02*
X469382Y791416D01*
X469382Y793810D02*
X474990Y793810D01*
X474990Y796204D02*
X469382Y796204D01*
X137297Y583428D02*
X131689Y583428D01*
X131689Y595132D01*
X137297Y595132D01*
X137297Y583428D01*
X137297Y585822D02*
X131689Y585822D01*
X131689Y588216D02*
X137297Y588216D01*
X137297Y590610D02*
X131689Y590610D01*
X131689Y593004D02*
X137297Y593004D01*
X142103Y583428D02*
X147711Y583428D01*
X142103Y583428D02*
X142103Y595132D01*
X147711Y595132D01*
X147711Y583428D01*
X147711Y585822D02*
X142103Y585822D01*
X142103Y588216D02*
X147711Y588216D01*
X147711Y590610D02*
X142103Y590610D01*
X142103Y593004D02*
X147711Y593004D01*
D16*
X31750Y631430D03*
X31750Y661430D03*
D17*
X63500Y824230D03*
X38100Y811530D03*
X190500Y855980D03*
X215900Y849630D03*
X38100Y925830D03*
X63500Y913130D03*
X393700Y779780D03*
X393700Y805180D03*
X596900Y824230D03*
X571500Y836930D03*
X393700Y906780D03*
X393700Y932180D03*
X571500Y925830D03*
X596900Y938530D03*
X438150Y1014730D03*
X438150Y1046480D03*
X476250Y1027430D03*
X488950Y1002030D03*
X546100Y1027430D03*
X558800Y1002030D03*
X158750Y1002030D03*
X88900Y1002030D03*
X101600Y1027430D03*
X171450Y1027430D03*
X50800Y862330D03*
X76200Y862330D03*
X76200Y887730D03*
X50800Y887730D03*
X558800Y862330D03*
X584200Y887730D03*
X584200Y862330D03*
X558800Y887730D03*
X63500Y798830D03*
X584200Y608330D03*
X558800Y608330D03*
X508000Y709930D03*
D12*
X160411Y957082D02*
X154803Y957082D01*
X160411Y957082D02*
X160411Y945378D01*
X154803Y945378D01*
X154803Y957082D01*
X154803Y947772D02*
X160411Y947772D01*
X160411Y950166D02*
X154803Y950166D01*
X154803Y952560D02*
X160411Y952560D01*
X160411Y954954D02*
X154803Y954954D01*
X149997Y957082D02*
X144389Y957082D01*
X149997Y957082D02*
X149997Y945378D01*
X144389Y945378D01*
X144389Y957082D01*
X144389Y947772D02*
X149997Y947772D01*
X149997Y950166D02*
X144389Y950166D01*
X144389Y952560D02*
X149997Y952560D01*
X149997Y954954D02*
X144389Y954954D01*
D17*
X88900Y684530D03*
D12*
X144389Y970778D02*
X149997Y970778D01*
X144389Y970778D02*
X144389Y982482D01*
X149997Y982482D01*
X149997Y970778D01*
X149997Y973172D02*
X144389Y973172D01*
X144389Y975566D02*
X149997Y975566D01*
X149997Y977960D02*
X144389Y977960D01*
X144389Y980354D02*
X149997Y980354D01*
X154803Y970778D02*
X160411Y970778D01*
X154803Y970778D02*
X154803Y982482D01*
X160411Y982482D01*
X160411Y970778D01*
X160411Y973172D02*
X154803Y973172D01*
X154803Y975566D02*
X160411Y975566D01*
X160411Y977960D02*
X154803Y977960D01*
X154803Y980354D02*
X160411Y980354D01*
D17*
X508000Y773430D03*
X450850Y741680D03*
D12*
X595239Y621528D02*
X600847Y621528D01*
X595239Y621528D02*
X595239Y633232D01*
X600847Y633232D01*
X600847Y621528D01*
X600847Y623922D02*
X595239Y623922D01*
X595239Y626316D02*
X600847Y626316D01*
X600847Y628710D02*
X595239Y628710D01*
X595239Y631104D02*
X600847Y631104D01*
X605653Y621528D02*
X611261Y621528D01*
X605653Y621528D02*
X605653Y633232D01*
X611261Y633232D01*
X611261Y621528D01*
X611261Y623922D02*
X605653Y623922D01*
X605653Y626316D02*
X611261Y626316D01*
X611261Y628710D02*
X605653Y628710D01*
X605653Y631104D02*
X611261Y631104D01*
D10*
X1249680Y1033780D03*
X665480Y595630D03*
D11*
X1249680Y570230D03*
X1249680Y1059180D03*
X665480Y1059180D03*
X665480Y570230D03*
D12*
X1245733Y658632D02*
X1251341Y658632D01*
X1251341Y646928D01*
X1245733Y646928D01*
X1245733Y658632D01*
X1245733Y649322D02*
X1251341Y649322D01*
X1251341Y651716D02*
X1245733Y651716D01*
X1245733Y654110D02*
X1251341Y654110D01*
X1251341Y656504D02*
X1245733Y656504D01*
X1240927Y658632D02*
X1235319Y658632D01*
X1240927Y658632D02*
X1240927Y646928D01*
X1235319Y646928D01*
X1235319Y658632D01*
X1235319Y649322D02*
X1240927Y649322D01*
X1240927Y651716D02*
X1235319Y651716D01*
X1235319Y654110D02*
X1240927Y654110D01*
X1240927Y656504D02*
X1235319Y656504D01*
D13*
X651510Y709930D03*
X654050Y735330D03*
X651510Y760730D03*
X1263650Y760730D03*
X1261110Y735330D03*
X1263650Y709930D03*
D12*
X775091Y880882D02*
X769483Y880882D01*
X775091Y880882D02*
X775091Y869178D01*
X769483Y869178D01*
X769483Y880882D01*
X769483Y871572D02*
X775091Y871572D01*
X775091Y873966D02*
X769483Y873966D01*
X769483Y876360D02*
X775091Y876360D01*
X775091Y878754D02*
X769483Y878754D01*
X764677Y880882D02*
X759069Y880882D01*
X764677Y880882D02*
X764677Y869178D01*
X759069Y869178D01*
X759069Y880882D01*
X759069Y871572D02*
X764677Y871572D01*
X764677Y873966D02*
X759069Y873966D01*
X759069Y876360D02*
X764677Y876360D01*
X764677Y878754D02*
X759069Y878754D01*
X1140069Y869178D02*
X1145677Y869178D01*
X1140069Y869178D02*
X1140069Y880882D01*
X1145677Y880882D01*
X1145677Y869178D01*
X1145677Y871572D02*
X1140069Y871572D01*
X1140069Y873966D02*
X1145677Y873966D01*
X1145677Y876360D02*
X1140069Y876360D01*
X1140069Y878754D02*
X1145677Y878754D01*
X1150483Y869178D02*
X1156091Y869178D01*
X1150483Y869178D02*
X1150483Y880882D01*
X1156091Y880882D01*
X1156091Y869178D01*
X1156091Y871572D02*
X1150483Y871572D01*
X1150483Y873966D02*
X1156091Y873966D01*
X1156091Y876360D02*
X1150483Y876360D01*
X1150483Y878754D02*
X1156091Y878754D01*
D14*
X789780Y627380D02*
X769780Y627380D01*
X826770Y647860D02*
X826770Y667860D01*
D15*
X791280Y687070D02*
X768280Y687070D01*
D12*
X1076569Y786628D02*
X1082177Y786628D01*
X1076569Y786628D02*
X1076569Y798332D01*
X1082177Y798332D01*
X1082177Y786628D01*
X1082177Y789022D02*
X1076569Y789022D01*
X1076569Y791416D02*
X1082177Y791416D01*
X1082177Y793810D02*
X1076569Y793810D01*
X1076569Y796204D02*
X1082177Y796204D01*
X1086983Y786628D02*
X1092591Y786628D01*
X1086983Y786628D02*
X1086983Y798332D01*
X1092591Y798332D01*
X1092591Y786628D01*
X1092591Y789022D02*
X1086983Y789022D01*
X1086983Y791416D02*
X1092591Y791416D01*
X1092591Y793810D02*
X1086983Y793810D01*
X1086983Y796204D02*
X1092591Y796204D01*
X1130290Y798332D02*
X1135898Y798332D01*
X1135898Y786628D01*
X1130290Y786628D01*
X1130290Y798332D01*
X1130290Y789022D02*
X1135898Y789022D01*
X1135898Y791416D02*
X1130290Y791416D01*
X1130290Y793810D02*
X1135898Y793810D01*
X1135898Y796204D02*
X1130290Y796204D01*
X1125484Y798332D02*
X1119876Y798332D01*
X1125484Y798332D02*
X1125484Y786628D01*
X1119876Y786628D01*
X1119876Y798332D01*
X1119876Y789022D02*
X1125484Y789022D01*
X1125484Y791416D02*
X1119876Y791416D01*
X1119876Y793810D02*
X1125484Y793810D01*
X1125484Y796204D02*
X1119876Y796204D01*
X1115070Y798332D02*
X1109462Y798332D01*
X1115070Y798332D02*
X1115070Y786628D01*
X1109462Y786628D01*
X1109462Y798332D01*
X1109462Y789022D02*
X1115070Y789022D01*
X1115070Y791416D02*
X1109462Y791416D01*
X1109462Y793810D02*
X1115070Y793810D01*
X1115070Y796204D02*
X1109462Y796204D01*
X777377Y583428D02*
X771769Y583428D01*
X771769Y595132D01*
X777377Y595132D01*
X777377Y583428D01*
X777377Y585822D02*
X771769Y585822D01*
X771769Y588216D02*
X777377Y588216D01*
X777377Y590610D02*
X771769Y590610D01*
X771769Y593004D02*
X777377Y593004D01*
X782183Y583428D02*
X787791Y583428D01*
X782183Y583428D02*
X782183Y595132D01*
X787791Y595132D01*
X787791Y583428D01*
X787791Y585822D02*
X782183Y585822D01*
X782183Y588216D02*
X787791Y588216D01*
X787791Y590610D02*
X782183Y590610D01*
X782183Y593004D02*
X787791Y593004D01*
D16*
X671830Y631430D03*
X671830Y661430D03*
D17*
X703580Y824230D03*
X678180Y811530D03*
X830580Y855980D03*
X855980Y849630D03*
X678180Y925830D03*
X703580Y913130D03*
X1033780Y779780D03*
X1033780Y805180D03*
X1236980Y824230D03*
X1211580Y836930D03*
X1033780Y906780D03*
X1033780Y932180D03*
X1211580Y925830D03*
X1236980Y938530D03*
X1078230Y1014730D03*
X1078230Y1046480D03*
X1116330Y1027430D03*
X1129030Y1002030D03*
X1186180Y1027430D03*
X1198880Y1002030D03*
X798830Y1002030D03*
X728980Y1002030D03*
X741680Y1027430D03*
X811530Y1027430D03*
X690880Y862330D03*
X716280Y862330D03*
X716280Y887730D03*
X690880Y887730D03*
X1198880Y862330D03*
X1224280Y887730D03*
X1224280Y862330D03*
X1198880Y887730D03*
X703580Y798830D03*
X1224280Y608330D03*
X1198880Y608330D03*
X1148080Y709930D03*
D12*
X800491Y957082D02*
X794883Y957082D01*
X800491Y957082D02*
X800491Y945378D01*
X794883Y945378D01*
X794883Y957082D01*
X794883Y947772D02*
X800491Y947772D01*
X800491Y950166D02*
X794883Y950166D01*
X794883Y952560D02*
X800491Y952560D01*
X800491Y954954D02*
X794883Y954954D01*
X790077Y957082D02*
X784469Y957082D01*
X790077Y957082D02*
X790077Y945378D01*
X784469Y945378D01*
X784469Y957082D01*
X784469Y947772D02*
X790077Y947772D01*
X790077Y950166D02*
X784469Y950166D01*
X784469Y952560D02*
X790077Y952560D01*
X790077Y954954D02*
X784469Y954954D01*
D17*
X728980Y684530D03*
D12*
X784469Y970778D02*
X790077Y970778D01*
X784469Y970778D02*
X784469Y982482D01*
X790077Y982482D01*
X790077Y970778D01*
X790077Y973172D02*
X784469Y973172D01*
X784469Y975566D02*
X790077Y975566D01*
X790077Y977960D02*
X784469Y977960D01*
X784469Y980354D02*
X790077Y980354D01*
X794883Y970778D02*
X800491Y970778D01*
X794883Y970778D02*
X794883Y982482D01*
X800491Y982482D01*
X800491Y970778D01*
X800491Y973172D02*
X794883Y973172D01*
X794883Y975566D02*
X800491Y975566D01*
X800491Y977960D02*
X794883Y977960D01*
X794883Y980354D02*
X800491Y980354D01*
D17*
X1148080Y773430D03*
X1090930Y741680D03*
D12*
X1235319Y621528D02*
X1240927Y621528D01*
X1235319Y621528D02*
X1235319Y633232D01*
X1240927Y633232D01*
X1240927Y621528D01*
X1240927Y623922D02*
X1235319Y623922D01*
X1235319Y626316D02*
X1240927Y626316D01*
X1240927Y628710D02*
X1235319Y628710D01*
X1235319Y631104D02*
X1240927Y631104D01*
X1245733Y621528D02*
X1251341Y621528D01*
X1245733Y621528D02*
X1245733Y633232D01*
X1251341Y633232D01*
X1251341Y621528D01*
X1251341Y623922D02*
X1245733Y623922D01*
X1245733Y626316D02*
X1251341Y626316D01*
X1251341Y628710D02*
X1245733Y628710D01*
X1245733Y631104D02*
X1251341Y631104D01*
D10*
X609600Y1578610D03*
X25400Y1140460D03*
D11*
X609600Y1115060D03*
X609600Y1604010D03*
X25400Y1604010D03*
X25400Y1115060D03*
D12*
X605653Y1203462D02*
X611261Y1203462D01*
X611261Y1191758D01*
X605653Y1191758D01*
X605653Y1203462D01*
X605653Y1194152D02*
X611261Y1194152D01*
X611261Y1196546D02*
X605653Y1196546D01*
X605653Y1198940D02*
X611261Y1198940D01*
X611261Y1201334D02*
X605653Y1201334D01*
X600847Y1203462D02*
X595239Y1203462D01*
X600847Y1203462D02*
X600847Y1191758D01*
X595239Y1191758D01*
X595239Y1203462D01*
X595239Y1194152D02*
X600847Y1194152D01*
X600847Y1196546D02*
X595239Y1196546D01*
X595239Y1198940D02*
X600847Y1198940D01*
X600847Y1201334D02*
X595239Y1201334D01*
D13*
X11430Y1254760D03*
X13970Y1280160D03*
X11430Y1305560D03*
X623570Y1305560D03*
X621030Y1280160D03*
X623570Y1254760D03*
D12*
X135011Y1425712D02*
X129403Y1425712D01*
X135011Y1425712D02*
X135011Y1414008D01*
X129403Y1414008D01*
X129403Y1425712D01*
X129403Y1416402D02*
X135011Y1416402D01*
X135011Y1418796D02*
X129403Y1418796D01*
X129403Y1421190D02*
X135011Y1421190D01*
X135011Y1423584D02*
X129403Y1423584D01*
X124597Y1425712D02*
X118989Y1425712D01*
X124597Y1425712D02*
X124597Y1414008D01*
X118989Y1414008D01*
X118989Y1425712D01*
X118989Y1416402D02*
X124597Y1416402D01*
X124597Y1418796D02*
X118989Y1418796D01*
X118989Y1421190D02*
X124597Y1421190D01*
X124597Y1423584D02*
X118989Y1423584D01*
X499989Y1414008D02*
X505597Y1414008D01*
X499989Y1414008D02*
X499989Y1425712D01*
X505597Y1425712D01*
X505597Y1414008D01*
X505597Y1416402D02*
X499989Y1416402D01*
X499989Y1418796D02*
X505597Y1418796D01*
X505597Y1421190D02*
X499989Y1421190D01*
X499989Y1423584D02*
X505597Y1423584D01*
X510403Y1414008D02*
X516011Y1414008D01*
X510403Y1414008D02*
X510403Y1425712D01*
X516011Y1425712D01*
X516011Y1414008D01*
X516011Y1416402D02*
X510403Y1416402D01*
X510403Y1418796D02*
X516011Y1418796D01*
X516011Y1421190D02*
X510403Y1421190D01*
X510403Y1423584D02*
X516011Y1423584D01*
D14*
X149700Y1172210D02*
X129700Y1172210D01*
X186690Y1192690D02*
X186690Y1212690D01*
D15*
X151200Y1231900D02*
X128200Y1231900D01*
D12*
X436489Y1331458D02*
X442097Y1331458D01*
X436489Y1331458D02*
X436489Y1343162D01*
X442097Y1343162D01*
X442097Y1331458D01*
X442097Y1333852D02*
X436489Y1333852D01*
X436489Y1336246D02*
X442097Y1336246D01*
X442097Y1338640D02*
X436489Y1338640D01*
X436489Y1341034D02*
X442097Y1341034D01*
X446903Y1331458D02*
X452511Y1331458D01*
X446903Y1331458D02*
X446903Y1343162D01*
X452511Y1343162D01*
X452511Y1331458D01*
X452511Y1333852D02*
X446903Y1333852D01*
X446903Y1336246D02*
X452511Y1336246D01*
X452511Y1338640D02*
X446903Y1338640D01*
X446903Y1341034D02*
X452511Y1341034D01*
X490210Y1343162D02*
X495818Y1343162D01*
X495818Y1331458D01*
X490210Y1331458D01*
X490210Y1343162D01*
X490210Y1333852D02*
X495818Y1333852D01*
X495818Y1336246D02*
X490210Y1336246D01*
X490210Y1338640D02*
X495818Y1338640D01*
X495818Y1341034D02*
X490210Y1341034D01*
X485404Y1343162D02*
X479796Y1343162D01*
X485404Y1343162D02*
X485404Y1331458D01*
X479796Y1331458D01*
X479796Y1343162D01*
X479796Y1333852D02*
X485404Y1333852D01*
X485404Y1336246D02*
X479796Y1336246D01*
X479796Y1338640D02*
X485404Y1338640D01*
X485404Y1341034D02*
X479796Y1341034D01*
X474990Y1343162D02*
X469382Y1343162D01*
X474990Y1343162D02*
X474990Y1331458D01*
X469382Y1331458D01*
X469382Y1343162D01*
X469382Y1333852D02*
X474990Y1333852D01*
X474990Y1336246D02*
X469382Y1336246D01*
X469382Y1338640D02*
X474990Y1338640D01*
X474990Y1341034D02*
X469382Y1341034D01*
X137297Y1128258D02*
X131689Y1128258D01*
X131689Y1139962D01*
X137297Y1139962D01*
X137297Y1128258D01*
X137297Y1130652D02*
X131689Y1130652D01*
X131689Y1133046D02*
X137297Y1133046D01*
X137297Y1135440D02*
X131689Y1135440D01*
X131689Y1137834D02*
X137297Y1137834D01*
X142103Y1128258D02*
X147711Y1128258D01*
X142103Y1128258D02*
X142103Y1139962D01*
X147711Y1139962D01*
X147711Y1128258D01*
X147711Y1130652D02*
X142103Y1130652D01*
X142103Y1133046D02*
X147711Y1133046D01*
X147711Y1135440D02*
X142103Y1135440D01*
X142103Y1137834D02*
X147711Y1137834D01*
D16*
X31750Y1176260D03*
X31750Y1206260D03*
D17*
X63500Y1369060D03*
X38100Y1356360D03*
X190500Y1400810D03*
X215900Y1394460D03*
X38100Y1470660D03*
X63500Y1457960D03*
X393700Y1324610D03*
X393700Y1350010D03*
X596900Y1369060D03*
X571500Y1381760D03*
X393700Y1451610D03*
X393700Y1477010D03*
X571500Y1470660D03*
X596900Y1483360D03*
X438150Y1559560D03*
X438150Y1591310D03*
X476250Y1572260D03*
X488950Y1546860D03*
X546100Y1572260D03*
X558800Y1546860D03*
X158750Y1546860D03*
X88900Y1546860D03*
X101600Y1572260D03*
X171450Y1572260D03*
X50800Y1407160D03*
X76200Y1407160D03*
X76200Y1432560D03*
X50800Y1432560D03*
X558800Y1407160D03*
X584200Y1432560D03*
X584200Y1407160D03*
X558800Y1432560D03*
X63500Y1343660D03*
X584200Y1153160D03*
X558800Y1153160D03*
X508000Y1254760D03*
D12*
X160411Y1501912D02*
X154803Y1501912D01*
X160411Y1501912D02*
X160411Y1490208D01*
X154803Y1490208D01*
X154803Y1501912D01*
X154803Y1492602D02*
X160411Y1492602D01*
X160411Y1494996D02*
X154803Y1494996D01*
X154803Y1497390D02*
X160411Y1497390D01*
X160411Y1499784D02*
X154803Y1499784D01*
X149997Y1501912D02*
X144389Y1501912D01*
X149997Y1501912D02*
X149997Y1490208D01*
X144389Y1490208D01*
X144389Y1501912D01*
X144389Y1492602D02*
X149997Y1492602D01*
X149997Y1494996D02*
X144389Y1494996D01*
X144389Y1497390D02*
X149997Y1497390D01*
X149997Y1499784D02*
X144389Y1499784D01*
D17*
X88900Y1229360D03*
D12*
X144389Y1515608D02*
X149997Y1515608D01*
X144389Y1515608D02*
X144389Y1527312D01*
X149997Y1527312D01*
X149997Y1515608D01*
X149997Y1518002D02*
X144389Y1518002D01*
X144389Y1520396D02*
X149997Y1520396D01*
X149997Y1522790D02*
X144389Y1522790D01*
X144389Y1525184D02*
X149997Y1525184D01*
X154803Y1515608D02*
X160411Y1515608D01*
X154803Y1515608D02*
X154803Y1527312D01*
X160411Y1527312D01*
X160411Y1515608D01*
X160411Y1518002D02*
X154803Y1518002D01*
X154803Y1520396D02*
X160411Y1520396D01*
X160411Y1522790D02*
X154803Y1522790D01*
X154803Y1525184D02*
X160411Y1525184D01*
D17*
X508000Y1318260D03*
X450850Y1286510D03*
D12*
X595239Y1166358D02*
X600847Y1166358D01*
X595239Y1166358D02*
X595239Y1178062D01*
X600847Y1178062D01*
X600847Y1166358D01*
X600847Y1168752D02*
X595239Y1168752D01*
X595239Y1171146D02*
X600847Y1171146D01*
X600847Y1173540D02*
X595239Y1173540D01*
X595239Y1175934D02*
X600847Y1175934D01*
X605653Y1166358D02*
X611261Y1166358D01*
X605653Y1166358D02*
X605653Y1178062D01*
X611261Y1178062D01*
X611261Y1166358D01*
X611261Y1168752D02*
X605653Y1168752D01*
X605653Y1171146D02*
X611261Y1171146D01*
X611261Y1173540D02*
X605653Y1173540D01*
X605653Y1175934D02*
X611261Y1175934D01*
D10*
X1249680Y1578610D03*
X665480Y1140460D03*
D11*
X1249680Y1115060D03*
X1249680Y1604010D03*
X665480Y1604010D03*
X665480Y1115060D03*
D12*
X1245733Y1203462D02*
X1251341Y1203462D01*
X1251341Y1191758D01*
X1245733Y1191758D01*
X1245733Y1203462D01*
X1245733Y1194152D02*
X1251341Y1194152D01*
X1251341Y1196546D02*
X1245733Y1196546D01*
X1245733Y1198940D02*
X1251341Y1198940D01*
X1251341Y1201334D02*
X1245733Y1201334D01*
X1240927Y1203462D02*
X1235319Y1203462D01*
X1240927Y1203462D02*
X1240927Y1191758D01*
X1235319Y1191758D01*
X1235319Y1203462D01*
X1235319Y1194152D02*
X1240927Y1194152D01*
X1240927Y1196546D02*
X1235319Y1196546D01*
X1235319Y1198940D02*
X1240927Y1198940D01*
X1240927Y1201334D02*
X1235319Y1201334D01*
D13*
X651510Y1254760D03*
X654050Y1280160D03*
X651510Y1305560D03*
X1263650Y1305560D03*
X1261110Y1280160D03*
X1263650Y1254760D03*
D12*
X775091Y1425712D02*
X769483Y1425712D01*
X775091Y1425712D02*
X775091Y1414008D01*
X769483Y1414008D01*
X769483Y1425712D01*
X769483Y1416402D02*
X775091Y1416402D01*
X775091Y1418796D02*
X769483Y1418796D01*
X769483Y1421190D02*
X775091Y1421190D01*
X775091Y1423584D02*
X769483Y1423584D01*
X764677Y1425712D02*
X759069Y1425712D01*
X764677Y1425712D02*
X764677Y1414008D01*
X759069Y1414008D01*
X759069Y1425712D01*
X759069Y1416402D02*
X764677Y1416402D01*
X764677Y1418796D02*
X759069Y1418796D01*
X759069Y1421190D02*
X764677Y1421190D01*
X764677Y1423584D02*
X759069Y1423584D01*
X1140069Y1414008D02*
X1145677Y1414008D01*
X1140069Y1414008D02*
X1140069Y1425712D01*
X1145677Y1425712D01*
X1145677Y1414008D01*
X1145677Y1416402D02*
X1140069Y1416402D01*
X1140069Y1418796D02*
X1145677Y1418796D01*
X1145677Y1421190D02*
X1140069Y1421190D01*
X1140069Y1423584D02*
X1145677Y1423584D01*
X1150483Y1414008D02*
X1156091Y1414008D01*
X1150483Y1414008D02*
X1150483Y1425712D01*
X1156091Y1425712D01*
X1156091Y1414008D01*
X1156091Y1416402D02*
X1150483Y1416402D01*
X1150483Y1418796D02*
X1156091Y1418796D01*
X1156091Y1421190D02*
X1150483Y1421190D01*
X1150483Y1423584D02*
X1156091Y1423584D01*
D14*
X789780Y1172210D02*
X769780Y1172210D01*
X826770Y1192690D02*
X826770Y1212690D01*
D15*
X791280Y1231900D02*
X768280Y1231900D01*
D12*
X1076569Y1331458D02*
X1082177Y1331458D01*
X1076569Y1331458D02*
X1076569Y1343162D01*
X1082177Y1343162D01*
X1082177Y1331458D01*
X1082177Y1333852D02*
X1076569Y1333852D01*
X1076569Y1336246D02*
X1082177Y1336246D01*
X1082177Y1338640D02*
X1076569Y1338640D01*
X1076569Y1341034D02*
X1082177Y1341034D01*
X1086983Y1331458D02*
X1092591Y1331458D01*
X1086983Y1331458D02*
X1086983Y1343162D01*
X1092591Y1343162D01*
X1092591Y1331458D01*
X1092591Y1333852D02*
X1086983Y1333852D01*
X1086983Y1336246D02*
X1092591Y1336246D01*
X1092591Y1338640D02*
X1086983Y1338640D01*
X1086983Y1341034D02*
X1092591Y1341034D01*
X1130290Y1343162D02*
X1135898Y1343162D01*
X1135898Y1331458D01*
X1130290Y1331458D01*
X1130290Y1343162D01*
X1130290Y1333852D02*
X1135898Y1333852D01*
X1135898Y1336246D02*
X1130290Y1336246D01*
X1130290Y1338640D02*
X1135898Y1338640D01*
X1135898Y1341034D02*
X1130290Y1341034D01*
X1125484Y1343162D02*
X1119876Y1343162D01*
X1125484Y1343162D02*
X1125484Y1331458D01*
X1119876Y1331458D01*
X1119876Y1343162D01*
X1119876Y1333852D02*
X1125484Y1333852D01*
X1125484Y1336246D02*
X1119876Y1336246D01*
X1119876Y1338640D02*
X1125484Y1338640D01*
X1125484Y1341034D02*
X1119876Y1341034D01*
X1115070Y1343162D02*
X1109462Y1343162D01*
X1115070Y1343162D02*
X1115070Y1331458D01*
X1109462Y1331458D01*
X1109462Y1343162D01*
X1109462Y1333852D02*
X1115070Y1333852D01*
X1115070Y1336246D02*
X1109462Y1336246D01*
X1109462Y1338640D02*
X1115070Y1338640D01*
X1115070Y1341034D02*
X1109462Y1341034D01*
X777377Y1128258D02*
X771769Y1128258D01*
X771769Y1139962D01*
X777377Y1139962D01*
X777377Y1128258D01*
X777377Y1130652D02*
X771769Y1130652D01*
X771769Y1133046D02*
X777377Y1133046D01*
X777377Y1135440D02*
X771769Y1135440D01*
X771769Y1137834D02*
X777377Y1137834D01*
X782183Y1128258D02*
X787791Y1128258D01*
X782183Y1128258D02*
X782183Y1139962D01*
X787791Y1139962D01*
X787791Y1128258D01*
X787791Y1130652D02*
X782183Y1130652D01*
X782183Y1133046D02*
X787791Y1133046D01*
X787791Y1135440D02*
X782183Y1135440D01*
X782183Y1137834D02*
X787791Y1137834D01*
D16*
X671830Y1176260D03*
X671830Y1206260D03*
D17*
X703580Y1369060D03*
X678180Y1356360D03*
X830580Y1400810D03*
X855980Y1394460D03*
X678180Y1470660D03*
X703580Y1457960D03*
X1033780Y1324610D03*
X1033780Y1350010D03*
X1236980Y1369060D03*
X1211580Y1381760D03*
X1033780Y1451610D03*
X1033780Y1477010D03*
X1211580Y1470660D03*
X1236980Y1483360D03*
X1078230Y1559560D03*
X1078230Y1591310D03*
X1116330Y1572260D03*
X1129030Y1546860D03*
X1186180Y1572260D03*
X1198880Y1546860D03*
X798830Y1546860D03*
X728980Y1546860D03*
X741680Y1572260D03*
X811530Y1572260D03*
X690880Y1407160D03*
X716280Y1407160D03*
X716280Y1432560D03*
X690880Y1432560D03*
X1198880Y1407160D03*
X1224280Y1432560D03*
X1224280Y1407160D03*
X1198880Y1432560D03*
X703580Y1343660D03*
X1224280Y1153160D03*
X1198880Y1153160D03*
X1148080Y1254760D03*
D12*
X800491Y1501912D02*
X794883Y1501912D01*
X800491Y1501912D02*
X800491Y1490208D01*
X794883Y1490208D01*
X794883Y1501912D01*
X794883Y1492602D02*
X800491Y1492602D01*
X800491Y1494996D02*
X794883Y1494996D01*
X794883Y1497390D02*
X800491Y1497390D01*
X800491Y1499784D02*
X794883Y1499784D01*
X790077Y1501912D02*
X784469Y1501912D01*
X790077Y1501912D02*
X790077Y1490208D01*
X784469Y1490208D01*
X784469Y1501912D01*
X784469Y1492602D02*
X790077Y1492602D01*
X790077Y1494996D02*
X784469Y1494996D01*
X784469Y1497390D02*
X790077Y1497390D01*
X790077Y1499784D02*
X784469Y1499784D01*
D17*
X728980Y1229360D03*
D12*
X784469Y1515608D02*
X790077Y1515608D01*
X784469Y1515608D02*
X784469Y1527312D01*
X790077Y1527312D01*
X790077Y1515608D01*
X790077Y1518002D02*
X784469Y1518002D01*
X784469Y1520396D02*
X790077Y1520396D01*
X790077Y1522790D02*
X784469Y1522790D01*
X784469Y1525184D02*
X790077Y1525184D01*
X794883Y1515608D02*
X800491Y1515608D01*
X794883Y1515608D02*
X794883Y1527312D01*
X800491Y1527312D01*
X800491Y1515608D01*
X800491Y1518002D02*
X794883Y1518002D01*
X794883Y1520396D02*
X800491Y1520396D01*
X800491Y1522790D02*
X794883Y1522790D01*
X794883Y1525184D02*
X800491Y1525184D01*
D17*
X1148080Y1318260D03*
X1090930Y1286510D03*
D12*
X1235319Y1166358D02*
X1240927Y1166358D01*
X1235319Y1166358D02*
X1235319Y1178062D01*
X1240927Y1178062D01*
X1240927Y1166358D01*
X1240927Y1168752D02*
X1235319Y1168752D01*
X1235319Y1171146D02*
X1240927Y1171146D01*
X1240927Y1173540D02*
X1235319Y1173540D01*
X1235319Y1175934D02*
X1240927Y1175934D01*
X1245733Y1166358D02*
X1251341Y1166358D01*
X1245733Y1166358D02*
X1245733Y1178062D01*
X1251341Y1178062D01*
X1251341Y1166358D01*
X1251341Y1168752D02*
X1245733Y1168752D01*
X1245733Y1171146D02*
X1251341Y1171146D01*
X1251341Y1173540D02*
X1245733Y1173540D01*
X1245733Y1175934D02*
X1251341Y1175934D01*
D10*
X68580Y1650365D03*
X1205865Y1650365D03*
D18*
X59525Y-20955D02*
X59528Y-20733D01*
X59536Y-20511D01*
X59550Y-20289D01*
X59569Y-20067D01*
X59593Y-19847D01*
X59623Y-19626D01*
X59658Y-19407D01*
X59699Y-19188D01*
X59745Y-18971D01*
X59796Y-18755D01*
X59853Y-18540D01*
X59915Y-18326D01*
X59982Y-18115D01*
X60054Y-17904D01*
X60132Y-17696D01*
X60214Y-17490D01*
X60302Y-17286D01*
X60394Y-17083D01*
X60492Y-16884D01*
X60594Y-16687D01*
X60701Y-16492D01*
X60813Y-16300D01*
X60930Y-16111D01*
X61051Y-15924D01*
X61177Y-15741D01*
X61307Y-15561D01*
X61442Y-15384D01*
X61580Y-15211D01*
X61723Y-15041D01*
X61871Y-14874D01*
X62022Y-14711D01*
X62177Y-14552D01*
X62336Y-14397D01*
X62499Y-14246D01*
X62666Y-14098D01*
X62836Y-13955D01*
X63009Y-13817D01*
X63186Y-13682D01*
X63366Y-13552D01*
X63549Y-13426D01*
X63736Y-13305D01*
X63925Y-13188D01*
X64117Y-13076D01*
X64312Y-12969D01*
X64509Y-12867D01*
X64708Y-12769D01*
X64911Y-12677D01*
X65115Y-12589D01*
X65321Y-12507D01*
X65529Y-12429D01*
X65740Y-12357D01*
X65951Y-12290D01*
X66165Y-12228D01*
X66380Y-12171D01*
X66596Y-12120D01*
X66813Y-12074D01*
X67032Y-12033D01*
X67251Y-11998D01*
X67472Y-11968D01*
X67692Y-11944D01*
X67914Y-11925D01*
X68136Y-11911D01*
X68358Y-11903D01*
X68580Y-11900D01*
X68802Y-11903D01*
X69024Y-11911D01*
X69246Y-11925D01*
X69468Y-11944D01*
X69688Y-11968D01*
X69909Y-11998D01*
X70128Y-12033D01*
X70347Y-12074D01*
X70564Y-12120D01*
X70780Y-12171D01*
X70995Y-12228D01*
X71209Y-12290D01*
X71420Y-12357D01*
X71631Y-12429D01*
X71839Y-12507D01*
X72045Y-12589D01*
X72249Y-12677D01*
X72452Y-12769D01*
X72651Y-12867D01*
X72848Y-12969D01*
X73043Y-13076D01*
X73235Y-13188D01*
X73424Y-13305D01*
X73611Y-13426D01*
X73794Y-13552D01*
X73974Y-13682D01*
X74151Y-13817D01*
X74324Y-13955D01*
X74494Y-14098D01*
X74661Y-14246D01*
X74824Y-14397D01*
X74983Y-14552D01*
X75138Y-14711D01*
X75289Y-14874D01*
X75437Y-15041D01*
X75580Y-15211D01*
X75718Y-15384D01*
X75853Y-15561D01*
X75983Y-15741D01*
X76109Y-15924D01*
X76230Y-16111D01*
X76347Y-16300D01*
X76459Y-16492D01*
X76566Y-16687D01*
X76668Y-16884D01*
X76766Y-17083D01*
X76858Y-17286D01*
X76946Y-17490D01*
X77028Y-17696D01*
X77106Y-17904D01*
X77178Y-18115D01*
X77245Y-18326D01*
X77307Y-18540D01*
X77364Y-18755D01*
X77415Y-18971D01*
X77461Y-19188D01*
X77502Y-19407D01*
X77537Y-19626D01*
X77567Y-19847D01*
X77591Y-20067D01*
X77610Y-20289D01*
X77624Y-20511D01*
X77632Y-20733D01*
X77635Y-20955D01*
X77632Y-21177D01*
X77624Y-21399D01*
X77610Y-21621D01*
X77591Y-21843D01*
X77567Y-22063D01*
X77537Y-22284D01*
X77502Y-22503D01*
X77461Y-22722D01*
X77415Y-22939D01*
X77364Y-23155D01*
X77307Y-23370D01*
X77245Y-23584D01*
X77178Y-23795D01*
X77106Y-24006D01*
X77028Y-24214D01*
X76946Y-24420D01*
X76858Y-24624D01*
X76766Y-24827D01*
X76668Y-25026D01*
X76566Y-25223D01*
X76459Y-25418D01*
X76347Y-25610D01*
X76230Y-25799D01*
X76109Y-25986D01*
X75983Y-26169D01*
X75853Y-26349D01*
X75718Y-26526D01*
X75580Y-26699D01*
X75437Y-26869D01*
X75289Y-27036D01*
X75138Y-27199D01*
X74983Y-27358D01*
X74824Y-27513D01*
X74661Y-27664D01*
X74494Y-27812D01*
X74324Y-27955D01*
X74151Y-28093D01*
X73974Y-28228D01*
X73794Y-28358D01*
X73611Y-28484D01*
X73424Y-28605D01*
X73235Y-28722D01*
X73043Y-28834D01*
X72848Y-28941D01*
X72651Y-29043D01*
X72452Y-29141D01*
X72249Y-29233D01*
X72045Y-29321D01*
X71839Y-29403D01*
X71631Y-29481D01*
X71420Y-29553D01*
X71209Y-29620D01*
X70995Y-29682D01*
X70780Y-29739D01*
X70564Y-29790D01*
X70347Y-29836D01*
X70128Y-29877D01*
X69909Y-29912D01*
X69688Y-29942D01*
X69468Y-29966D01*
X69246Y-29985D01*
X69024Y-29999D01*
X68802Y-30007D01*
X68580Y-30010D01*
X68358Y-30007D01*
X68136Y-29999D01*
X67914Y-29985D01*
X67692Y-29966D01*
X67472Y-29942D01*
X67251Y-29912D01*
X67032Y-29877D01*
X66813Y-29836D01*
X66596Y-29790D01*
X66380Y-29739D01*
X66165Y-29682D01*
X65951Y-29620D01*
X65740Y-29553D01*
X65529Y-29481D01*
X65321Y-29403D01*
X65115Y-29321D01*
X64911Y-29233D01*
X64708Y-29141D01*
X64509Y-29043D01*
X64312Y-28941D01*
X64117Y-28834D01*
X63925Y-28722D01*
X63736Y-28605D01*
X63549Y-28484D01*
X63366Y-28358D01*
X63186Y-28228D01*
X63009Y-28093D01*
X62836Y-27955D01*
X62666Y-27812D01*
X62499Y-27664D01*
X62336Y-27513D01*
X62177Y-27358D01*
X62022Y-27199D01*
X61871Y-27036D01*
X61723Y-26869D01*
X61580Y-26699D01*
X61442Y-26526D01*
X61307Y-26349D01*
X61177Y-26169D01*
X61051Y-25986D01*
X60930Y-25799D01*
X60813Y-25610D01*
X60701Y-25418D01*
X60594Y-25223D01*
X60492Y-25026D01*
X60394Y-24827D01*
X60302Y-24624D01*
X60214Y-24420D01*
X60132Y-24214D01*
X60054Y-24006D01*
X59982Y-23795D01*
X59915Y-23584D01*
X59853Y-23370D01*
X59796Y-23155D01*
X59745Y-22939D01*
X59699Y-22722D01*
X59658Y-22503D01*
X59623Y-22284D01*
X59593Y-22063D01*
X59569Y-21843D01*
X59550Y-21621D01*
X59536Y-21399D01*
X59528Y-21177D01*
X59525Y-20955D01*
D19*
X68580Y-20955D03*
M02*
