G04 EAGLE Gerber RS-274X export*
G75*
%MOMM*%
%FSLAX34Y34*%
%LPD*%
%INSoldermask Top*%
%IPPOS*%
%AMOC8*
5,1,8,0,0,1.08239X$1,22.5*%
G01*
%ADD10C,1.152400*%
%ADD11C,3.454400*%
%ADD12C,0.252575*%
%ADD13C,0.449434*%
%ADD14C,0.253525*%
%ADD15C,0.255816*%
%ADD16C,0.243431*%
%ADD17C,2.032000*%
%ADD18C,0.253509*%
%ADD19C,0.253344*%
%ADD20C,0.256031*%
%ADD21C,0.248381*%
%ADD22C,2.152400*%
%ADD23C,2.452400*%
%ADD24R,0.900000X1.590000*%
%ADD25R,0.700000X0.390000*%
%ADD26R,0.500000X1.830000*%
%ADD27C,0.257147*%
%ADD28C,0.240288*%
%ADD29C,0.254103*%
%ADD30C,0.255719*%
%ADD31C,1.052400*%
%ADD32C,0.245334*%
%ADD33C,0.264381*%
%ADD34C,0.241806*%
%ADD35C,1.252400*%
%ADD36C,1.202400*%
%ADD37C,1.270000*%
%ADD38C,1.652400*%


D10*
X609600Y488950D03*
X25400Y50800D03*
D11*
X609600Y25400D03*
X609600Y514350D03*
X25400Y514350D03*
X25400Y25400D03*
D12*
X137151Y289251D02*
X145149Y289251D01*
X137151Y289251D02*
X137151Y298249D01*
X145149Y298249D01*
X145149Y289251D01*
X145149Y291651D02*
X137151Y291651D01*
X137151Y294051D02*
X145149Y294051D01*
X145149Y296451D02*
X137151Y296451D01*
X137151Y273251D02*
X145149Y273251D01*
X137151Y273251D02*
X137151Y282249D01*
X145149Y282249D01*
X145149Y273251D01*
X145149Y275651D02*
X137151Y275651D01*
X137151Y278051D02*
X145149Y278051D01*
X145149Y280451D02*
X137151Y280451D01*
X104149Y273251D02*
X96151Y273251D01*
X96151Y282249D01*
X104149Y282249D01*
X104149Y273251D01*
X104149Y275651D02*
X96151Y275651D01*
X96151Y278051D02*
X104149Y278051D01*
X104149Y280451D02*
X96151Y280451D01*
X96151Y289251D02*
X104149Y289251D01*
X96151Y289251D02*
X96151Y298249D01*
X104149Y298249D01*
X104149Y289251D01*
X104149Y291651D02*
X96151Y291651D01*
X96151Y294051D02*
X104149Y294051D01*
X104149Y296451D02*
X96151Y296451D01*
D13*
X614855Y130515D02*
X614855Y123485D01*
X614855Y130515D02*
X621885Y130515D01*
X621885Y123485D01*
X614855Y123485D01*
X614855Y127754D02*
X621885Y127754D01*
X597315Y130515D02*
X597315Y123485D01*
X597315Y130515D02*
X604345Y130515D01*
X604345Y123485D01*
X597315Y123485D01*
X597315Y127754D02*
X604345Y127754D01*
D14*
X606095Y59005D02*
X596105Y59005D01*
X596105Y67995D01*
X606095Y67995D01*
X606095Y59005D01*
X606095Y61413D02*
X596105Y61413D01*
X596105Y63821D02*
X606095Y63821D01*
X606095Y66229D02*
X596105Y66229D01*
X613105Y59005D02*
X623095Y59005D01*
X613105Y59005D02*
X613105Y67995D01*
X623095Y67995D01*
X623095Y59005D01*
X623095Y61413D02*
X613105Y61413D01*
X613105Y63821D02*
X623095Y63821D01*
X623095Y66229D02*
X613105Y66229D01*
D15*
X30867Y302317D02*
X30867Y307283D01*
X45333Y307283D01*
X45333Y302317D01*
X30867Y302317D01*
X30867Y304747D02*
X45333Y304747D01*
X45333Y307177D02*
X30867Y307177D01*
X30867Y297283D02*
X30867Y292317D01*
X30867Y297283D02*
X45333Y297283D01*
X45333Y292317D01*
X30867Y292317D01*
X30867Y294747D02*
X45333Y294747D01*
X45333Y297177D02*
X30867Y297177D01*
X30867Y287283D02*
X30867Y282317D01*
X30867Y287283D02*
X45333Y287283D01*
X45333Y282317D01*
X30867Y282317D01*
X30867Y284747D02*
X45333Y284747D01*
X45333Y287177D02*
X30867Y287177D01*
X30867Y277283D02*
X30867Y272317D01*
X30867Y277283D02*
X45333Y277283D01*
X45333Y272317D01*
X30867Y272317D01*
X30867Y274747D02*
X45333Y274747D01*
X45333Y277177D02*
X30867Y277177D01*
X30867Y267283D02*
X30867Y262317D01*
X30867Y267283D02*
X45333Y267283D01*
X45333Y262317D01*
X30867Y262317D01*
X30867Y264747D02*
X45333Y264747D01*
X45333Y267177D02*
X30867Y267177D01*
X30867Y257283D02*
X30867Y252317D01*
X30867Y257283D02*
X45333Y257283D01*
X45333Y252317D01*
X30867Y252317D01*
X30867Y254747D02*
X45333Y254747D01*
X45333Y257177D02*
X30867Y257177D01*
D16*
X7305Y312255D02*
X7305Y323345D01*
X24395Y323345D01*
X24395Y312255D01*
X7305Y312255D01*
X7305Y314567D02*
X24395Y314567D01*
X24395Y316879D02*
X7305Y316879D01*
X7305Y319191D02*
X24395Y319191D01*
X24395Y321503D02*
X7305Y321503D01*
X7305Y247345D02*
X7305Y236255D01*
X7305Y247345D02*
X24395Y247345D01*
X24395Y236255D01*
X7305Y236255D01*
X7305Y238567D02*
X24395Y238567D01*
X24395Y240879D02*
X7305Y240879D01*
X7305Y243191D02*
X24395Y243191D01*
X24395Y245503D02*
X7305Y245503D01*
D15*
X30867Y403917D02*
X30867Y408883D01*
X45333Y408883D01*
X45333Y403917D01*
X30867Y403917D01*
X30867Y406347D02*
X45333Y406347D01*
X45333Y408777D02*
X30867Y408777D01*
X30867Y398883D02*
X30867Y393917D01*
X30867Y398883D02*
X45333Y398883D01*
X45333Y393917D01*
X30867Y393917D01*
X30867Y396347D02*
X45333Y396347D01*
X45333Y398777D02*
X30867Y398777D01*
X30867Y388883D02*
X30867Y383917D01*
X30867Y388883D02*
X45333Y388883D01*
X45333Y383917D01*
X30867Y383917D01*
X30867Y386347D02*
X45333Y386347D01*
X45333Y388777D02*
X30867Y388777D01*
X30867Y378883D02*
X30867Y373917D01*
X30867Y378883D02*
X45333Y378883D01*
X45333Y373917D01*
X30867Y373917D01*
X30867Y376347D02*
X45333Y376347D01*
X45333Y378777D02*
X30867Y378777D01*
X30867Y368883D02*
X30867Y363917D01*
X30867Y368883D02*
X45333Y368883D01*
X45333Y363917D01*
X30867Y363917D01*
X30867Y366347D02*
X45333Y366347D01*
X45333Y368777D02*
X30867Y368777D01*
X30867Y358883D02*
X30867Y353917D01*
X30867Y358883D02*
X45333Y358883D01*
X45333Y353917D01*
X30867Y353917D01*
X30867Y356347D02*
X45333Y356347D01*
X45333Y358777D02*
X30867Y358777D01*
D16*
X7305Y413855D02*
X7305Y424945D01*
X24395Y424945D01*
X24395Y413855D01*
X7305Y413855D01*
X7305Y416167D02*
X24395Y416167D01*
X24395Y418479D02*
X7305Y418479D01*
X7305Y420791D02*
X24395Y420791D01*
X24395Y423103D02*
X7305Y423103D01*
X7305Y348945D02*
X7305Y337855D01*
X7305Y348945D02*
X24395Y348945D01*
X24395Y337855D01*
X7305Y337855D01*
X7305Y340167D02*
X24395Y340167D01*
X24395Y342479D02*
X7305Y342479D01*
X7305Y344791D02*
X24395Y344791D01*
X24395Y347103D02*
X7305Y347103D01*
D15*
X604133Y353117D02*
X604133Y358083D01*
X604133Y353117D02*
X589667Y353117D01*
X589667Y358083D01*
X604133Y358083D01*
X604133Y355547D02*
X589667Y355547D01*
X589667Y357977D02*
X604133Y357977D01*
X604133Y363117D02*
X604133Y368083D01*
X604133Y363117D02*
X589667Y363117D01*
X589667Y368083D01*
X604133Y368083D01*
X604133Y365547D02*
X589667Y365547D01*
X589667Y367977D02*
X604133Y367977D01*
X604133Y373117D02*
X604133Y378083D01*
X604133Y373117D02*
X589667Y373117D01*
X589667Y378083D01*
X604133Y378083D01*
X604133Y375547D02*
X589667Y375547D01*
X589667Y377977D02*
X604133Y377977D01*
X604133Y383117D02*
X604133Y388083D01*
X604133Y383117D02*
X589667Y383117D01*
X589667Y388083D01*
X604133Y388083D01*
X604133Y385547D02*
X589667Y385547D01*
X589667Y387977D02*
X604133Y387977D01*
X604133Y393117D02*
X604133Y398083D01*
X604133Y393117D02*
X589667Y393117D01*
X589667Y398083D01*
X604133Y398083D01*
X604133Y395547D02*
X589667Y395547D01*
X589667Y397977D02*
X604133Y397977D01*
X604133Y403117D02*
X604133Y408083D01*
X604133Y403117D02*
X589667Y403117D01*
X589667Y408083D01*
X604133Y408083D01*
X604133Y405547D02*
X589667Y405547D01*
X589667Y407977D02*
X604133Y407977D01*
D16*
X627695Y348145D02*
X627695Y337055D01*
X610605Y337055D01*
X610605Y348145D01*
X627695Y348145D01*
X627695Y339367D02*
X610605Y339367D01*
X610605Y341679D02*
X627695Y341679D01*
X627695Y343991D02*
X610605Y343991D01*
X610605Y346303D02*
X627695Y346303D01*
X627695Y413055D02*
X627695Y424145D01*
X627695Y413055D02*
X610605Y413055D01*
X610605Y424145D01*
X627695Y424145D01*
X627695Y415367D02*
X610605Y415367D01*
X610605Y417679D02*
X627695Y417679D01*
X627695Y419991D02*
X610605Y419991D01*
X610605Y422303D02*
X627695Y422303D01*
D15*
X604133Y256483D02*
X604133Y251517D01*
X589667Y251517D01*
X589667Y256483D01*
X604133Y256483D01*
X604133Y253947D02*
X589667Y253947D01*
X589667Y256377D02*
X604133Y256377D01*
X604133Y261517D02*
X604133Y266483D01*
X604133Y261517D02*
X589667Y261517D01*
X589667Y266483D01*
X604133Y266483D01*
X604133Y263947D02*
X589667Y263947D01*
X589667Y266377D02*
X604133Y266377D01*
X604133Y271517D02*
X604133Y276483D01*
X604133Y271517D02*
X589667Y271517D01*
X589667Y276483D01*
X604133Y276483D01*
X604133Y273947D02*
X589667Y273947D01*
X589667Y276377D02*
X604133Y276377D01*
X604133Y281517D02*
X604133Y286483D01*
X604133Y281517D02*
X589667Y281517D01*
X589667Y286483D01*
X604133Y286483D01*
X604133Y283947D02*
X589667Y283947D01*
X589667Y286377D02*
X604133Y286377D01*
X604133Y291517D02*
X604133Y296483D01*
X604133Y291517D02*
X589667Y291517D01*
X589667Y296483D01*
X604133Y296483D01*
X604133Y293947D02*
X589667Y293947D01*
X589667Y296377D02*
X604133Y296377D01*
X604133Y301517D02*
X604133Y306483D01*
X604133Y301517D02*
X589667Y301517D01*
X589667Y306483D01*
X604133Y306483D01*
X604133Y303947D02*
X589667Y303947D01*
X589667Y306377D02*
X604133Y306377D01*
D16*
X627695Y246545D02*
X627695Y235455D01*
X610605Y235455D01*
X610605Y246545D01*
X627695Y246545D01*
X627695Y237767D02*
X610605Y237767D01*
X610605Y240079D02*
X627695Y240079D01*
X627695Y242391D02*
X610605Y242391D01*
X610605Y244703D02*
X627695Y244703D01*
X627695Y311455D02*
X627695Y322545D01*
X627695Y311455D02*
X610605Y311455D01*
X610605Y322545D01*
X627695Y322545D01*
X627695Y313767D02*
X610605Y313767D01*
X610605Y316079D02*
X627695Y316079D01*
X627695Y318391D02*
X610605Y318391D01*
X610605Y320703D02*
X627695Y320703D01*
D17*
X11430Y165100D03*
X13970Y190500D03*
X11430Y215900D03*
X623570Y215900D03*
X621030Y190500D03*
X623570Y165100D03*
D15*
X457383Y489467D02*
X452417Y489467D01*
X452417Y503933D01*
X457383Y503933D01*
X457383Y489467D01*
X457383Y491897D02*
X452417Y491897D01*
X452417Y494327D02*
X457383Y494327D01*
X457383Y496757D02*
X452417Y496757D01*
X452417Y499187D02*
X457383Y499187D01*
X457383Y501617D02*
X452417Y501617D01*
X462417Y489467D02*
X467383Y489467D01*
X462417Y489467D02*
X462417Y503933D01*
X467383Y503933D01*
X467383Y489467D01*
X467383Y491897D02*
X462417Y491897D01*
X462417Y494327D02*
X467383Y494327D01*
X467383Y496757D02*
X462417Y496757D01*
X462417Y499187D02*
X467383Y499187D01*
X467383Y501617D02*
X462417Y501617D01*
X472417Y489467D02*
X477383Y489467D01*
X472417Y489467D02*
X472417Y503933D01*
X477383Y503933D01*
X477383Y489467D01*
X477383Y491897D02*
X472417Y491897D01*
X472417Y494327D02*
X477383Y494327D01*
X477383Y496757D02*
X472417Y496757D01*
X472417Y499187D02*
X477383Y499187D01*
X477383Y501617D02*
X472417Y501617D01*
X482417Y489467D02*
X487383Y489467D01*
X482417Y489467D02*
X482417Y503933D01*
X487383Y503933D01*
X487383Y489467D01*
X487383Y491897D02*
X482417Y491897D01*
X482417Y494327D02*
X487383Y494327D01*
X487383Y496757D02*
X482417Y496757D01*
X482417Y499187D02*
X487383Y499187D01*
X487383Y501617D02*
X482417Y501617D01*
D16*
X447445Y511405D02*
X436355Y511405D01*
X436355Y530495D01*
X447445Y530495D01*
X447445Y511405D01*
X447445Y513717D02*
X436355Y513717D01*
X436355Y516029D02*
X447445Y516029D01*
X447445Y518341D02*
X436355Y518341D01*
X436355Y520653D02*
X447445Y520653D01*
X447445Y522965D02*
X436355Y522965D01*
X436355Y525277D02*
X447445Y525277D01*
X447445Y527589D02*
X436355Y527589D01*
X436355Y529901D02*
X447445Y529901D01*
X492355Y511405D02*
X503445Y511405D01*
X492355Y511405D02*
X492355Y530495D01*
X503445Y530495D01*
X503445Y511405D01*
X503445Y513717D02*
X492355Y513717D01*
X492355Y516029D02*
X503445Y516029D01*
X503445Y518341D02*
X492355Y518341D01*
X492355Y520653D02*
X503445Y520653D01*
X503445Y522965D02*
X492355Y522965D01*
X492355Y525277D02*
X503445Y525277D01*
X503445Y527589D02*
X492355Y527589D01*
X492355Y529901D02*
X503445Y529901D01*
D18*
X459895Y236845D02*
X456405Y236845D01*
X459895Y236845D02*
X459895Y235355D01*
X456405Y235355D01*
X456405Y236845D01*
X456405Y231845D02*
X459895Y231845D01*
X459895Y230355D01*
X456405Y230355D01*
X456405Y231845D01*
X456405Y226845D02*
X459895Y226845D01*
X459895Y225355D01*
X456405Y225355D01*
X456405Y226845D01*
X456405Y221845D02*
X459895Y221845D01*
X459895Y220355D01*
X456405Y220355D01*
X456405Y221845D01*
X465645Y221095D02*
X465645Y217605D01*
X464155Y217605D01*
X464155Y221095D01*
X465645Y221095D01*
X465645Y220013D02*
X464155Y220013D01*
X470645Y221095D02*
X470645Y217605D01*
X469155Y217605D01*
X469155Y221095D01*
X470645Y221095D01*
X470645Y220013D02*
X469155Y220013D01*
X475645Y221095D02*
X475645Y217605D01*
X474155Y217605D01*
X474155Y221095D01*
X475645Y221095D01*
X475645Y220013D02*
X474155Y220013D01*
X479905Y221845D02*
X483395Y221845D01*
X483395Y220355D01*
X479905Y220355D01*
X479905Y221845D01*
X479905Y226845D02*
X483395Y226845D01*
X483395Y225355D01*
X479905Y225355D01*
X479905Y226845D01*
X479905Y231845D02*
X483395Y231845D01*
X483395Y230355D01*
X479905Y230355D01*
X479905Y231845D01*
X479905Y236845D02*
X483395Y236845D01*
X483395Y235355D01*
X479905Y235355D01*
X479905Y236845D01*
X475645Y236105D02*
X475645Y239595D01*
X475645Y236105D02*
X474155Y236105D01*
X474155Y239595D01*
X475645Y239595D01*
X475645Y238513D02*
X474155Y238513D01*
X470645Y239595D02*
X470645Y236105D01*
X469155Y236105D01*
X469155Y239595D01*
X470645Y239595D01*
X470645Y238513D02*
X469155Y238513D01*
X465645Y239595D02*
X465645Y236105D01*
X464155Y236105D01*
X464155Y239595D01*
X465645Y239595D01*
X465645Y238513D02*
X464155Y238513D01*
D19*
X106796Y343696D02*
X100804Y343696D01*
X106796Y343696D02*
X106796Y341704D01*
X100804Y341704D01*
X100804Y343696D01*
X100804Y338696D02*
X106796Y338696D01*
X106796Y336704D01*
X100804Y336704D01*
X100804Y338696D01*
X100804Y333696D02*
X106796Y333696D01*
X106796Y331704D01*
X100804Y331704D01*
X100804Y333696D01*
X100804Y328696D02*
X106796Y328696D01*
X106796Y326704D01*
X100804Y326704D01*
X100804Y328696D01*
X100804Y323696D02*
X106796Y323696D01*
X106796Y321704D01*
X100804Y321704D01*
X100804Y323696D01*
X100804Y318696D02*
X106796Y318696D01*
X106796Y316704D01*
X100804Y316704D01*
X100804Y318696D01*
X121804Y316704D02*
X127796Y316704D01*
X121804Y316704D02*
X121804Y318696D01*
X127796Y318696D01*
X127796Y316704D01*
X127796Y321704D02*
X121804Y321704D01*
X121804Y323696D01*
X127796Y323696D01*
X127796Y321704D01*
X127796Y326704D02*
X121804Y326704D01*
X121804Y328696D01*
X127796Y328696D01*
X127796Y326704D01*
X127796Y331704D02*
X121804Y331704D01*
X121804Y333696D01*
X127796Y333696D01*
X127796Y331704D01*
X127796Y336704D02*
X121804Y336704D01*
X121804Y338696D01*
X127796Y338696D01*
X127796Y336704D01*
X127796Y341704D02*
X121804Y341704D01*
X121804Y343696D01*
X127796Y343696D01*
X127796Y341704D01*
D12*
X110301Y339699D02*
X110301Y320701D01*
X110301Y339699D02*
X118299Y339699D01*
X118299Y320701D01*
X110301Y320701D01*
X110301Y323101D02*
X118299Y323101D01*
X118299Y325501D02*
X110301Y325501D01*
X110301Y327901D02*
X118299Y327901D01*
X118299Y330301D02*
X110301Y330301D01*
X110301Y332701D02*
X118299Y332701D01*
X118299Y335101D02*
X110301Y335101D01*
X110301Y337501D02*
X118299Y337501D01*
D19*
X528204Y316704D02*
X534196Y316704D01*
X528204Y316704D02*
X528204Y318696D01*
X534196Y318696D01*
X534196Y316704D01*
X534196Y321704D02*
X528204Y321704D01*
X528204Y323696D01*
X534196Y323696D01*
X534196Y321704D01*
X534196Y326704D02*
X528204Y326704D01*
X528204Y328696D01*
X534196Y328696D01*
X534196Y326704D01*
X534196Y331704D02*
X528204Y331704D01*
X528204Y333696D01*
X534196Y333696D01*
X534196Y331704D01*
X534196Y336704D02*
X528204Y336704D01*
X528204Y338696D01*
X534196Y338696D01*
X534196Y336704D01*
X534196Y341704D02*
X528204Y341704D01*
X528204Y343696D01*
X534196Y343696D01*
X534196Y341704D01*
X513196Y343696D02*
X507204Y343696D01*
X513196Y343696D02*
X513196Y341704D01*
X507204Y341704D01*
X507204Y343696D01*
X507204Y338696D02*
X513196Y338696D01*
X513196Y336704D01*
X507204Y336704D01*
X507204Y338696D01*
X507204Y333696D02*
X513196Y333696D01*
X513196Y331704D01*
X507204Y331704D01*
X507204Y333696D01*
X507204Y328696D02*
X513196Y328696D01*
X513196Y326704D01*
X507204Y326704D01*
X507204Y328696D01*
X507204Y323696D02*
X513196Y323696D01*
X513196Y321704D01*
X507204Y321704D01*
X507204Y323696D01*
X507204Y318696D02*
X513196Y318696D01*
X513196Y316704D01*
X507204Y316704D01*
X507204Y318696D01*
D12*
X524699Y320701D02*
X524699Y339699D01*
X524699Y320701D02*
X516701Y320701D01*
X516701Y339699D01*
X524699Y339699D01*
X524699Y323101D02*
X516701Y323101D01*
X516701Y325501D02*
X524699Y325501D01*
X524699Y327901D02*
X516701Y327901D01*
X516701Y330301D02*
X524699Y330301D01*
X524699Y332701D02*
X516701Y332701D01*
X516701Y335101D02*
X524699Y335101D01*
X524699Y337501D02*
X516701Y337501D01*
D20*
X62240Y69840D02*
X62240Y54112D01*
X62240Y69840D02*
X90160Y69840D01*
X90160Y54112D01*
X62240Y54112D01*
X62240Y56544D02*
X90160Y56544D01*
X90160Y58976D02*
X62240Y58976D01*
X62240Y61408D02*
X90160Y61408D01*
X90160Y63840D02*
X62240Y63840D01*
X62240Y66272D02*
X90160Y66272D01*
X90160Y68704D02*
X62240Y68704D01*
X62240Y22088D02*
X62240Y6360D01*
X62240Y22088D02*
X90160Y22088D01*
X90160Y6360D01*
X62240Y6360D01*
X62240Y8792D02*
X90160Y8792D01*
X90160Y11224D02*
X62240Y11224D01*
X62240Y13656D02*
X90160Y13656D01*
X90160Y16088D02*
X62240Y16088D01*
X62240Y18520D02*
X90160Y18520D01*
X90160Y20952D02*
X62240Y20952D01*
D14*
X456405Y198705D02*
X466395Y198705D01*
X456405Y198705D02*
X456405Y207695D01*
X466395Y207695D01*
X466395Y198705D01*
X466395Y201113D02*
X456405Y201113D01*
X456405Y203521D02*
X466395Y203521D01*
X466395Y205929D02*
X456405Y205929D01*
X473405Y198705D02*
X483395Y198705D01*
X473405Y198705D02*
X473405Y207695D01*
X483395Y207695D01*
X483395Y198705D01*
X483395Y201113D02*
X473405Y201113D01*
X473405Y203521D02*
X483395Y203521D01*
X483395Y205929D02*
X473405Y205929D01*
D15*
X528617Y489467D02*
X533583Y489467D01*
X528617Y489467D02*
X528617Y503933D01*
X533583Y503933D01*
X533583Y489467D01*
X533583Y491897D02*
X528617Y491897D01*
X528617Y494327D02*
X533583Y494327D01*
X533583Y496757D02*
X528617Y496757D01*
X528617Y499187D02*
X533583Y499187D01*
X533583Y501617D02*
X528617Y501617D01*
X538617Y489467D02*
X543583Y489467D01*
X538617Y489467D02*
X538617Y503933D01*
X543583Y503933D01*
X543583Y489467D01*
X543583Y491897D02*
X538617Y491897D01*
X538617Y494327D02*
X543583Y494327D01*
X543583Y496757D02*
X538617Y496757D01*
X538617Y499187D02*
X543583Y499187D01*
X543583Y501617D02*
X538617Y501617D01*
X548617Y489467D02*
X553583Y489467D01*
X548617Y489467D02*
X548617Y503933D01*
X553583Y503933D01*
X553583Y489467D01*
X553583Y491897D02*
X548617Y491897D01*
X548617Y494327D02*
X553583Y494327D01*
X553583Y496757D02*
X548617Y496757D01*
X548617Y499187D02*
X553583Y499187D01*
X553583Y501617D02*
X548617Y501617D01*
X558617Y489467D02*
X563583Y489467D01*
X558617Y489467D02*
X558617Y503933D01*
X563583Y503933D01*
X563583Y489467D01*
X563583Y491897D02*
X558617Y491897D01*
X558617Y494327D02*
X563583Y494327D01*
X563583Y496757D02*
X558617Y496757D01*
X558617Y499187D02*
X563583Y499187D01*
X563583Y501617D02*
X558617Y501617D01*
D16*
X523645Y511405D02*
X512555Y511405D01*
X512555Y530495D01*
X523645Y530495D01*
X523645Y511405D01*
X523645Y513717D02*
X512555Y513717D01*
X512555Y516029D02*
X523645Y516029D01*
X523645Y518341D02*
X512555Y518341D01*
X512555Y520653D02*
X523645Y520653D01*
X523645Y522965D02*
X512555Y522965D01*
X512555Y525277D02*
X523645Y525277D01*
X523645Y527589D02*
X512555Y527589D01*
X512555Y529901D02*
X523645Y529901D01*
X568555Y511405D02*
X579645Y511405D01*
X568555Y511405D02*
X568555Y530495D01*
X579645Y530495D01*
X579645Y511405D01*
X579645Y513717D02*
X568555Y513717D01*
X568555Y516029D02*
X579645Y516029D01*
X579645Y518341D02*
X568555Y518341D01*
X568555Y520653D02*
X579645Y520653D01*
X579645Y522965D02*
X568555Y522965D01*
X568555Y525277D02*
X579645Y525277D01*
X579645Y527589D02*
X568555Y527589D01*
X568555Y529901D02*
X579645Y529901D01*
D15*
X152583Y489467D02*
X147617Y489467D01*
X147617Y503933D01*
X152583Y503933D01*
X152583Y489467D01*
X152583Y491897D02*
X147617Y491897D01*
X147617Y494327D02*
X152583Y494327D01*
X152583Y496757D02*
X147617Y496757D01*
X147617Y499187D02*
X152583Y499187D01*
X152583Y501617D02*
X147617Y501617D01*
X157617Y489467D02*
X162583Y489467D01*
X157617Y489467D02*
X157617Y503933D01*
X162583Y503933D01*
X162583Y489467D01*
X162583Y491897D02*
X157617Y491897D01*
X157617Y494327D02*
X162583Y494327D01*
X162583Y496757D02*
X157617Y496757D01*
X157617Y499187D02*
X162583Y499187D01*
X162583Y501617D02*
X157617Y501617D01*
X167617Y489467D02*
X172583Y489467D01*
X167617Y489467D02*
X167617Y503933D01*
X172583Y503933D01*
X172583Y489467D01*
X172583Y491897D02*
X167617Y491897D01*
X167617Y494327D02*
X172583Y494327D01*
X172583Y496757D02*
X167617Y496757D01*
X167617Y499187D02*
X172583Y499187D01*
X172583Y501617D02*
X167617Y501617D01*
X177617Y489467D02*
X182583Y489467D01*
X177617Y489467D02*
X177617Y503933D01*
X182583Y503933D01*
X182583Y489467D01*
X182583Y491897D02*
X177617Y491897D01*
X177617Y494327D02*
X182583Y494327D01*
X182583Y496757D02*
X177617Y496757D01*
X177617Y499187D02*
X182583Y499187D01*
X182583Y501617D02*
X177617Y501617D01*
D16*
X142645Y511405D02*
X131555Y511405D01*
X131555Y530495D01*
X142645Y530495D01*
X142645Y511405D01*
X142645Y513717D02*
X131555Y513717D01*
X131555Y516029D02*
X142645Y516029D01*
X142645Y518341D02*
X131555Y518341D01*
X131555Y520653D02*
X142645Y520653D01*
X142645Y522965D02*
X131555Y522965D01*
X131555Y525277D02*
X142645Y525277D01*
X142645Y527589D02*
X131555Y527589D01*
X131555Y529901D02*
X142645Y529901D01*
X187555Y511405D02*
X198645Y511405D01*
X187555Y511405D02*
X187555Y530495D01*
X198645Y530495D01*
X198645Y511405D01*
X198645Y513717D02*
X187555Y513717D01*
X187555Y516029D02*
X198645Y516029D01*
X198645Y518341D02*
X187555Y518341D01*
X187555Y520653D02*
X198645Y520653D01*
X198645Y522965D02*
X187555Y522965D01*
X187555Y525277D02*
X198645Y525277D01*
X198645Y527589D02*
X187555Y527589D01*
X187555Y529901D02*
X198645Y529901D01*
D15*
X76383Y489467D02*
X71417Y489467D01*
X71417Y503933D01*
X76383Y503933D01*
X76383Y489467D01*
X76383Y491897D02*
X71417Y491897D01*
X71417Y494327D02*
X76383Y494327D01*
X76383Y496757D02*
X71417Y496757D01*
X71417Y499187D02*
X76383Y499187D01*
X76383Y501617D02*
X71417Y501617D01*
X81417Y489467D02*
X86383Y489467D01*
X81417Y489467D02*
X81417Y503933D01*
X86383Y503933D01*
X86383Y489467D01*
X86383Y491897D02*
X81417Y491897D01*
X81417Y494327D02*
X86383Y494327D01*
X86383Y496757D02*
X81417Y496757D01*
X81417Y499187D02*
X86383Y499187D01*
X86383Y501617D02*
X81417Y501617D01*
X91417Y489467D02*
X96383Y489467D01*
X91417Y489467D02*
X91417Y503933D01*
X96383Y503933D01*
X96383Y489467D01*
X96383Y491897D02*
X91417Y491897D01*
X91417Y494327D02*
X96383Y494327D01*
X96383Y496757D02*
X91417Y496757D01*
X91417Y499187D02*
X96383Y499187D01*
X96383Y501617D02*
X91417Y501617D01*
X101417Y489467D02*
X106383Y489467D01*
X101417Y489467D02*
X101417Y503933D01*
X106383Y503933D01*
X106383Y489467D01*
X106383Y491897D02*
X101417Y491897D01*
X101417Y494327D02*
X106383Y494327D01*
X106383Y496757D02*
X101417Y496757D01*
X101417Y499187D02*
X106383Y499187D01*
X106383Y501617D02*
X101417Y501617D01*
D16*
X66445Y511405D02*
X55355Y511405D01*
X55355Y530495D01*
X66445Y530495D01*
X66445Y511405D01*
X66445Y513717D02*
X55355Y513717D01*
X55355Y516029D02*
X66445Y516029D01*
X66445Y518341D02*
X55355Y518341D01*
X55355Y520653D02*
X66445Y520653D01*
X66445Y522965D02*
X55355Y522965D01*
X55355Y525277D02*
X66445Y525277D01*
X66445Y527589D02*
X55355Y527589D01*
X55355Y529901D02*
X66445Y529901D01*
X111355Y511405D02*
X122445Y511405D01*
X111355Y511405D02*
X111355Y530495D01*
X122445Y530495D01*
X122445Y511405D01*
X122445Y513717D02*
X111355Y513717D01*
X111355Y516029D02*
X122445Y516029D01*
X122445Y518341D02*
X111355Y518341D01*
X111355Y520653D02*
X122445Y520653D01*
X122445Y522965D02*
X111355Y522965D01*
X111355Y525277D02*
X122445Y525277D01*
X122445Y527589D02*
X111355Y527589D01*
X111355Y529901D02*
X122445Y529901D01*
D14*
X125145Y364795D02*
X125145Y354805D01*
X116155Y354805D01*
X116155Y364795D01*
X125145Y364795D01*
X125145Y357213D02*
X116155Y357213D01*
X116155Y359621D02*
X125145Y359621D01*
X125145Y362029D02*
X116155Y362029D01*
X116155Y364437D02*
X125145Y364437D01*
X125145Y371805D02*
X125145Y381795D01*
X125145Y371805D02*
X116155Y371805D01*
X116155Y381795D01*
X125145Y381795D01*
X125145Y374213D02*
X116155Y374213D01*
X116155Y376621D02*
X125145Y376621D01*
X125145Y379029D02*
X116155Y379029D01*
X116155Y381437D02*
X125145Y381437D01*
X509855Y305595D02*
X509855Y295605D01*
X509855Y305595D02*
X518845Y305595D01*
X518845Y295605D01*
X509855Y295605D01*
X509855Y298013D02*
X518845Y298013D01*
X518845Y300421D02*
X509855Y300421D01*
X509855Y302829D02*
X518845Y302829D01*
X518845Y305237D02*
X509855Y305237D01*
X509855Y288595D02*
X509855Y278605D01*
X509855Y288595D02*
X518845Y288595D01*
X518845Y278605D01*
X509855Y278605D01*
X509855Y281013D02*
X518845Y281013D01*
X518845Y283421D02*
X509855Y283421D01*
X509855Y285829D02*
X518845Y285829D01*
X518845Y288237D02*
X509855Y288237D01*
D21*
X158580Y355180D02*
X158580Y384220D01*
X171620Y384220D01*
X171620Y355180D01*
X158580Y355180D01*
X158580Y357540D02*
X171620Y357540D01*
X171620Y359900D02*
X158580Y359900D01*
X158580Y362260D02*
X171620Y362260D01*
X171620Y364620D02*
X158580Y364620D01*
X158580Y366980D02*
X171620Y366980D01*
X171620Y369340D02*
X158580Y369340D01*
X158580Y371700D02*
X171620Y371700D01*
X171620Y374060D02*
X158580Y374060D01*
X158580Y376420D02*
X171620Y376420D01*
X171620Y378780D02*
X158580Y378780D01*
X158580Y381140D02*
X171620Y381140D01*
X171620Y383500D02*
X158580Y383500D01*
X158580Y403180D02*
X158580Y432220D01*
X171620Y432220D01*
X171620Y403180D01*
X158580Y403180D01*
X158580Y405540D02*
X171620Y405540D01*
X171620Y407900D02*
X158580Y407900D01*
X158580Y410260D02*
X171620Y410260D01*
X171620Y412620D02*
X158580Y412620D01*
X158580Y414980D02*
X171620Y414980D01*
X171620Y417340D02*
X158580Y417340D01*
X158580Y419700D02*
X171620Y419700D01*
X171620Y422060D02*
X158580Y422060D01*
X158580Y424420D02*
X171620Y424420D01*
X171620Y426780D02*
X158580Y426780D01*
X158580Y429140D02*
X171620Y429140D01*
X171620Y431500D02*
X158580Y431500D01*
X501480Y384220D02*
X501480Y355180D01*
X501480Y384220D02*
X514520Y384220D01*
X514520Y355180D01*
X501480Y355180D01*
X501480Y357540D02*
X514520Y357540D01*
X514520Y359900D02*
X501480Y359900D01*
X501480Y362260D02*
X514520Y362260D01*
X514520Y364620D02*
X501480Y364620D01*
X501480Y366980D02*
X514520Y366980D01*
X514520Y369340D02*
X501480Y369340D01*
X501480Y371700D02*
X514520Y371700D01*
X514520Y374060D02*
X501480Y374060D01*
X501480Y376420D02*
X514520Y376420D01*
X514520Y378780D02*
X501480Y378780D01*
X501480Y381140D02*
X514520Y381140D01*
X514520Y383500D02*
X501480Y383500D01*
X501480Y403180D02*
X501480Y432220D01*
X514520Y432220D01*
X514520Y403180D01*
X501480Y403180D01*
X501480Y405540D02*
X514520Y405540D01*
X514520Y407900D02*
X501480Y407900D01*
X501480Y410260D02*
X514520Y410260D01*
X514520Y412620D02*
X501480Y412620D01*
X501480Y414980D02*
X514520Y414980D01*
X514520Y417340D02*
X501480Y417340D01*
X501480Y419700D02*
X514520Y419700D01*
X514520Y422060D02*
X501480Y422060D01*
X501480Y424420D02*
X514520Y424420D01*
X514520Y426780D02*
X501480Y426780D01*
X501480Y429140D02*
X514520Y429140D01*
X514520Y431500D02*
X501480Y431500D01*
D22*
X149700Y82550D02*
X129700Y82550D01*
X186690Y103030D02*
X186690Y123030D01*
D23*
X151200Y142240D02*
X128200Y142240D01*
D14*
X499795Y215105D02*
X499795Y225095D01*
X499795Y215105D02*
X490805Y215105D01*
X490805Y225095D01*
X499795Y225095D01*
X499795Y217513D02*
X490805Y217513D01*
X490805Y219921D02*
X499795Y219921D01*
X499795Y222329D02*
X490805Y222329D01*
X490805Y224737D02*
X499795Y224737D01*
X499795Y232105D02*
X499795Y242095D01*
X499795Y232105D02*
X490805Y232105D01*
X490805Y242095D01*
X499795Y242095D01*
X499795Y234513D02*
X490805Y234513D01*
X490805Y236921D02*
X499795Y236921D01*
X499795Y239329D02*
X490805Y239329D01*
X490805Y241737D02*
X499795Y241737D01*
X471755Y295605D02*
X471755Y305595D01*
X480745Y305595D01*
X480745Y295605D01*
X471755Y295605D01*
X471755Y298013D02*
X480745Y298013D01*
X480745Y300421D02*
X471755Y300421D01*
X471755Y302829D02*
X480745Y302829D01*
X480745Y305237D02*
X471755Y305237D01*
X471755Y288595D02*
X471755Y278605D01*
X471755Y288595D02*
X480745Y288595D01*
X480745Y278605D01*
X471755Y278605D01*
X471755Y281013D02*
X480745Y281013D01*
X480745Y283421D02*
X471755Y283421D01*
X471755Y285829D02*
X480745Y285829D01*
X480745Y288237D02*
X471755Y288237D01*
X499795Y288595D02*
X499795Y278605D01*
X490805Y278605D01*
X490805Y288595D01*
X499795Y288595D01*
X499795Y281013D02*
X490805Y281013D01*
X490805Y283421D02*
X499795Y283421D01*
X499795Y285829D02*
X490805Y285829D01*
X490805Y288237D02*
X499795Y288237D01*
X499795Y295605D02*
X499795Y305595D01*
X499795Y295605D02*
X490805Y295605D01*
X490805Y305595D01*
X499795Y305595D01*
X499795Y298013D02*
X490805Y298013D01*
X490805Y300421D02*
X499795Y300421D01*
X499795Y302829D02*
X490805Y302829D01*
X490805Y305237D02*
X499795Y305237D01*
X483395Y188645D02*
X473405Y188645D01*
X483395Y188645D02*
X483395Y179655D01*
X473405Y179655D01*
X473405Y188645D01*
X473405Y182063D02*
X483395Y182063D01*
X483395Y184471D02*
X473405Y184471D01*
X473405Y186879D02*
X483395Y186879D01*
X466395Y188645D02*
X456405Y188645D01*
X466395Y188645D02*
X466395Y179655D01*
X456405Y179655D01*
X456405Y188645D01*
X456405Y182063D02*
X466395Y182063D01*
X466395Y184471D02*
X456405Y184471D01*
X456405Y186879D02*
X466395Y186879D01*
X106095Y354805D02*
X106095Y364795D01*
X106095Y354805D02*
X97105Y354805D01*
X97105Y364795D01*
X106095Y364795D01*
X106095Y357213D02*
X97105Y357213D01*
X97105Y359621D02*
X106095Y359621D01*
X106095Y362029D02*
X97105Y362029D01*
X97105Y364437D02*
X106095Y364437D01*
X106095Y371805D02*
X106095Y381795D01*
X106095Y371805D02*
X97105Y371805D01*
X97105Y381795D01*
X106095Y381795D01*
X106095Y374213D02*
X97105Y374213D01*
X97105Y376621D02*
X106095Y376621D01*
X106095Y379029D02*
X97105Y379029D01*
X97105Y381437D02*
X106095Y381437D01*
X528905Y305595D02*
X528905Y295605D01*
X528905Y305595D02*
X537895Y305595D01*
X537895Y295605D01*
X528905Y295605D01*
X528905Y298013D02*
X537895Y298013D01*
X537895Y300421D02*
X528905Y300421D01*
X528905Y302829D02*
X537895Y302829D01*
X537895Y305237D02*
X528905Y305237D01*
X528905Y288595D02*
X528905Y278605D01*
X528905Y288595D02*
X537895Y288595D01*
X537895Y278605D01*
X528905Y278605D01*
X528905Y281013D02*
X537895Y281013D01*
X537895Y283421D02*
X528905Y283421D01*
X528905Y285829D02*
X537895Y285829D01*
X537895Y288237D02*
X528905Y288237D01*
D24*
X559950Y44050D03*
D25*
X560950Y54550D03*
X560950Y59050D03*
X560950Y63550D03*
X543950Y54550D03*
X543950Y59050D03*
X543950Y63550D03*
D24*
X544950Y44050D03*
D26*
X552450Y42950D03*
D27*
X557973Y24527D02*
X564927Y24527D01*
X564927Y13573D01*
X557973Y13573D01*
X557973Y24527D01*
X557973Y16015D02*
X564927Y16015D01*
X564927Y18457D02*
X557973Y18457D01*
X557973Y20899D02*
X564927Y20899D01*
X564927Y23341D02*
X557973Y23341D01*
X546927Y24527D02*
X539973Y24527D01*
X546927Y24527D02*
X546927Y13573D01*
X539973Y13573D01*
X539973Y24527D01*
X539973Y16015D02*
X546927Y16015D01*
X546927Y18457D02*
X539973Y18457D01*
X539973Y20899D02*
X546927Y20899D01*
X546927Y23341D02*
X539973Y23341D01*
D14*
X522555Y54305D02*
X522555Y64295D01*
X531545Y64295D01*
X531545Y54305D01*
X522555Y54305D01*
X522555Y56713D02*
X531545Y56713D01*
X531545Y59121D02*
X522555Y59121D01*
X522555Y61529D02*
X531545Y61529D01*
X531545Y63937D02*
X522555Y63937D01*
X522555Y47295D02*
X522555Y37305D01*
X522555Y47295D02*
X531545Y47295D01*
X531545Y37305D01*
X522555Y37305D01*
X522555Y39713D02*
X531545Y39713D01*
X531545Y42121D02*
X522555Y42121D01*
X522555Y44529D02*
X531545Y44529D01*
X531545Y46937D02*
X522555Y46937D01*
D28*
X493311Y38211D02*
X493311Y20589D01*
X459189Y20589D01*
X459189Y38211D01*
X493311Y38211D01*
X493311Y22872D02*
X459189Y22872D01*
X459189Y25155D02*
X493311Y25155D01*
X493311Y27438D02*
X459189Y27438D01*
X459189Y29721D02*
X493311Y29721D01*
X493311Y32004D02*
X459189Y32004D01*
X459189Y34287D02*
X493311Y34287D01*
X493311Y36570D02*
X459189Y36570D01*
X493311Y76089D02*
X493311Y93711D01*
X493311Y76089D02*
X459189Y76089D01*
X459189Y93711D01*
X493311Y93711D01*
X493311Y78372D02*
X459189Y78372D01*
X459189Y80655D02*
X493311Y80655D01*
X493311Y82938D02*
X459189Y82938D01*
X459189Y85221D02*
X493311Y85221D01*
X493311Y87504D02*
X459189Y87504D01*
X459189Y89787D02*
X493311Y89787D01*
X493311Y92070D02*
X459189Y92070D01*
D14*
X519905Y71705D02*
X529895Y71705D01*
X519905Y71705D02*
X519905Y80695D01*
X529895Y80695D01*
X529895Y71705D01*
X529895Y74113D02*
X519905Y74113D01*
X519905Y76521D02*
X529895Y76521D01*
X529895Y78929D02*
X519905Y78929D01*
X536905Y71705D02*
X546895Y71705D01*
X536905Y71705D02*
X536905Y80695D01*
X546895Y80695D01*
X546895Y71705D01*
X546895Y74113D02*
X536905Y74113D01*
X536905Y76521D02*
X546895Y76521D01*
X546895Y78929D02*
X536905Y78929D01*
D27*
X489777Y102473D02*
X482823Y102473D01*
X482823Y113427D01*
X489777Y113427D01*
X489777Y102473D01*
X489777Y104915D02*
X482823Y104915D01*
X482823Y107357D02*
X489777Y107357D01*
X489777Y109799D02*
X482823Y109799D01*
X482823Y112241D02*
X489777Y112241D01*
X500823Y102473D02*
X507777Y102473D01*
X500823Y102473D02*
X500823Y113427D01*
X507777Y113427D01*
X507777Y102473D01*
X507777Y104915D02*
X500823Y104915D01*
X500823Y107357D02*
X507777Y107357D01*
X507777Y109799D02*
X500823Y109799D01*
X500823Y112241D02*
X507777Y112241D01*
X469677Y113427D02*
X462723Y113427D01*
X469677Y113427D02*
X469677Y102473D01*
X462723Y102473D01*
X462723Y113427D01*
X462723Y104915D02*
X469677Y104915D01*
X469677Y107357D02*
X462723Y107357D01*
X462723Y109799D02*
X469677Y109799D01*
X469677Y112241D02*
X462723Y112241D01*
X451677Y113427D02*
X444723Y113427D01*
X451677Y113427D02*
X451677Y102473D01*
X444723Y102473D01*
X444723Y113427D01*
X444723Y104915D02*
X451677Y104915D01*
X451677Y107357D02*
X444723Y107357D01*
X444723Y109799D02*
X451677Y109799D01*
X451677Y112241D02*
X444723Y112241D01*
D14*
X536905Y99745D02*
X546895Y99745D01*
X546895Y90755D01*
X536905Y90755D01*
X536905Y99745D01*
X536905Y93163D02*
X546895Y93163D01*
X546895Y95571D02*
X536905Y95571D01*
X536905Y97979D02*
X546895Y97979D01*
X529895Y99745D02*
X519905Y99745D01*
X529895Y99745D02*
X529895Y90755D01*
X519905Y90755D01*
X519905Y99745D01*
X519905Y93163D02*
X529895Y93163D01*
X529895Y95571D02*
X519905Y95571D01*
X519905Y97979D02*
X529895Y97979D01*
X575005Y80695D02*
X584995Y80695D01*
X584995Y71705D01*
X575005Y71705D01*
X575005Y80695D01*
X575005Y74113D02*
X584995Y74113D01*
X584995Y76521D02*
X575005Y76521D01*
X575005Y78929D02*
X584995Y78929D01*
X567995Y80695D02*
X558005Y80695D01*
X567995Y80695D02*
X567995Y71705D01*
X558005Y71705D01*
X558005Y80695D01*
X558005Y74113D02*
X567995Y74113D01*
X567995Y76521D02*
X558005Y76521D01*
X558005Y78929D02*
X567995Y78929D01*
D27*
X159027Y204477D02*
X152073Y204477D01*
X159027Y204477D02*
X159027Y196523D01*
X152073Y196523D01*
X152073Y204477D01*
X152073Y198965D02*
X159027Y198965D01*
X159027Y201407D02*
X152073Y201407D01*
X152073Y203849D02*
X159027Y203849D01*
X140027Y204477D02*
X133073Y204477D01*
X140027Y204477D02*
X140027Y196523D01*
X133073Y196523D01*
X133073Y204477D01*
X133073Y198965D02*
X140027Y198965D01*
X140027Y201407D02*
X133073Y201407D01*
X133073Y203849D02*
X140027Y203849D01*
X142573Y183477D02*
X149527Y183477D01*
X149527Y175523D01*
X142573Y175523D01*
X142573Y183477D01*
X142573Y177965D02*
X149527Y177965D01*
X149527Y180407D02*
X142573Y180407D01*
X142573Y182849D02*
X149527Y182849D01*
X120927Y204477D02*
X113973Y204477D01*
X120927Y204477D02*
X120927Y196523D01*
X113973Y196523D01*
X113973Y204477D01*
X113973Y198965D02*
X120927Y198965D01*
X120927Y201407D02*
X113973Y201407D01*
X113973Y203849D02*
X120927Y203849D01*
X101927Y204477D02*
X94973Y204477D01*
X101927Y204477D02*
X101927Y196523D01*
X94973Y196523D01*
X94973Y204477D01*
X94973Y198965D02*
X101927Y198965D01*
X101927Y201407D02*
X94973Y201407D01*
X94973Y203849D02*
X101927Y203849D01*
X104473Y183477D02*
X111427Y183477D01*
X111427Y175523D01*
X104473Y175523D01*
X104473Y183477D01*
X104473Y177965D02*
X111427Y177965D01*
X111427Y180407D02*
X104473Y180407D01*
X104473Y182849D02*
X111427Y182849D01*
D14*
X135205Y257505D02*
X135205Y267495D01*
X144195Y267495D01*
X144195Y257505D01*
X135205Y257505D01*
X135205Y259913D02*
X144195Y259913D01*
X144195Y262321D02*
X135205Y262321D01*
X135205Y264729D02*
X144195Y264729D01*
X144195Y267137D02*
X135205Y267137D01*
X135205Y250495D02*
X135205Y240505D01*
X135205Y250495D02*
X144195Y250495D01*
X144195Y240505D01*
X135205Y240505D01*
X135205Y242913D02*
X144195Y242913D01*
X144195Y245321D02*
X135205Y245321D01*
X135205Y247729D02*
X144195Y247729D01*
X144195Y250137D02*
X135205Y250137D01*
X97105Y257505D02*
X97105Y267495D01*
X106095Y267495D01*
X106095Y257505D01*
X97105Y257505D01*
X97105Y259913D02*
X106095Y259913D01*
X106095Y262321D02*
X97105Y262321D01*
X97105Y264729D02*
X106095Y264729D01*
X106095Y267137D02*
X97105Y267137D01*
X97105Y250495D02*
X97105Y240505D01*
X97105Y250495D02*
X106095Y250495D01*
X106095Y240505D01*
X97105Y240505D01*
X97105Y242913D02*
X106095Y242913D01*
X106095Y245321D02*
X97105Y245321D01*
X97105Y247729D02*
X106095Y247729D01*
X106095Y250137D02*
X97105Y250137D01*
X154255Y257505D02*
X154255Y267495D01*
X163245Y267495D01*
X163245Y257505D01*
X154255Y257505D01*
X154255Y259913D02*
X163245Y259913D01*
X163245Y262321D02*
X154255Y262321D01*
X154255Y264729D02*
X163245Y264729D01*
X163245Y267137D02*
X154255Y267137D01*
X154255Y250495D02*
X154255Y240505D01*
X154255Y250495D02*
X163245Y250495D01*
X163245Y240505D01*
X154255Y240505D01*
X154255Y242913D02*
X163245Y242913D01*
X163245Y245321D02*
X154255Y245321D01*
X154255Y247729D02*
X163245Y247729D01*
X163245Y250137D02*
X154255Y250137D01*
X116155Y257505D02*
X116155Y267495D01*
X125145Y267495D01*
X125145Y257505D01*
X116155Y257505D01*
X116155Y259913D02*
X125145Y259913D01*
X125145Y262321D02*
X116155Y262321D01*
X116155Y264729D02*
X125145Y264729D01*
X125145Y267137D02*
X116155Y267137D01*
X116155Y250495D02*
X116155Y240505D01*
X116155Y250495D02*
X125145Y250495D01*
X125145Y240505D01*
X116155Y240505D01*
X116155Y242913D02*
X125145Y242913D01*
X125145Y245321D02*
X116155Y245321D01*
X116155Y247729D02*
X125145Y247729D01*
X125145Y250137D02*
X116155Y250137D01*
D29*
X138058Y210758D02*
X141042Y210758D01*
X138058Y210758D02*
X138058Y217742D01*
X141042Y217742D01*
X141042Y210758D01*
X141042Y213172D02*
X138058Y213172D01*
X138058Y215586D02*
X141042Y215586D01*
X144558Y210758D02*
X147542Y210758D01*
X144558Y210758D02*
X144558Y217742D01*
X147542Y217742D01*
X147542Y210758D01*
X147542Y213172D02*
X144558Y213172D01*
X144558Y215586D02*
X147542Y215586D01*
X151058Y210758D02*
X154042Y210758D01*
X151058Y210758D02*
X151058Y217742D01*
X154042Y217742D01*
X154042Y210758D01*
X154042Y213172D02*
X151058Y213172D01*
X151058Y215586D02*
X154042Y215586D01*
X154042Y226758D02*
X151058Y226758D01*
X151058Y233742D01*
X154042Y233742D01*
X154042Y226758D01*
X154042Y229172D02*
X151058Y229172D01*
X151058Y231586D02*
X154042Y231586D01*
X147542Y226758D02*
X144558Y226758D01*
X144558Y233742D01*
X147542Y233742D01*
X147542Y226758D01*
X147542Y229172D02*
X144558Y229172D01*
X144558Y231586D02*
X147542Y231586D01*
X141042Y226758D02*
X138058Y226758D01*
X138058Y233742D01*
X141042Y233742D01*
X141042Y226758D01*
X141042Y229172D02*
X138058Y229172D01*
X138058Y231586D02*
X141042Y231586D01*
X102942Y210758D02*
X99958Y210758D01*
X99958Y217742D01*
X102942Y217742D01*
X102942Y210758D01*
X102942Y213172D02*
X99958Y213172D01*
X99958Y215586D02*
X102942Y215586D01*
X106458Y210758D02*
X109442Y210758D01*
X106458Y210758D02*
X106458Y217742D01*
X109442Y217742D01*
X109442Y210758D01*
X109442Y213172D02*
X106458Y213172D01*
X106458Y215586D02*
X109442Y215586D01*
X112958Y210758D02*
X115942Y210758D01*
X112958Y210758D02*
X112958Y217742D01*
X115942Y217742D01*
X115942Y210758D01*
X115942Y213172D02*
X112958Y213172D01*
X112958Y215586D02*
X115942Y215586D01*
X115942Y226758D02*
X112958Y226758D01*
X112958Y233742D01*
X115942Y233742D01*
X115942Y226758D01*
X115942Y229172D02*
X112958Y229172D01*
X112958Y231586D02*
X115942Y231586D01*
X109442Y226758D02*
X106458Y226758D01*
X106458Y233742D01*
X109442Y233742D01*
X109442Y226758D01*
X109442Y229172D02*
X106458Y229172D01*
X106458Y231586D02*
X109442Y231586D01*
X102942Y226758D02*
X99958Y226758D01*
X99958Y233742D01*
X102942Y233742D01*
X102942Y226758D01*
X102942Y229172D02*
X99958Y229172D01*
X99958Y231586D02*
X102942Y231586D01*
D14*
X72695Y125045D02*
X62705Y125045D01*
X62705Y134035D01*
X72695Y134035D01*
X72695Y125045D01*
X72695Y127453D02*
X62705Y127453D01*
X62705Y129861D02*
X72695Y129861D01*
X72695Y132269D02*
X62705Y132269D01*
X79705Y125045D02*
X89695Y125045D01*
X79705Y125045D02*
X79705Y134035D01*
X89695Y134035D01*
X89695Y125045D01*
X89695Y127453D02*
X79705Y127453D01*
X79705Y129861D02*
X89695Y129861D01*
X89695Y132269D02*
X79705Y132269D01*
D27*
X90177Y82877D02*
X90177Y75923D01*
X82223Y75923D01*
X82223Y82877D01*
X90177Y82877D01*
X90177Y78365D02*
X82223Y78365D01*
X82223Y80807D02*
X90177Y80807D01*
X90177Y94923D02*
X90177Y101877D01*
X90177Y94923D02*
X82223Y94923D01*
X82223Y101877D01*
X90177Y101877D01*
X90177Y97365D02*
X82223Y97365D01*
X82223Y99807D02*
X90177Y99807D01*
X69177Y92377D02*
X69177Y85423D01*
X61223Y85423D01*
X61223Y92377D01*
X69177Y92377D01*
X69177Y87865D02*
X61223Y87865D01*
X61223Y90307D02*
X69177Y90307D01*
D30*
X42266Y82084D02*
X42266Y76116D01*
X42266Y82084D02*
X56234Y82084D01*
X56234Y76116D01*
X42266Y76116D01*
X42266Y78545D02*
X56234Y78545D01*
X56234Y80974D02*
X42266Y80974D01*
X42266Y91116D02*
X42266Y97084D01*
X56234Y97084D01*
X56234Y91116D01*
X42266Y91116D01*
X42266Y93545D02*
X56234Y93545D01*
X56234Y95974D02*
X42266Y95974D01*
X42266Y121116D02*
X42266Y127084D01*
X56234Y127084D01*
X56234Y121116D01*
X42266Y121116D01*
X42266Y123545D02*
X56234Y123545D01*
X56234Y125974D02*
X42266Y125974D01*
D15*
X24233Y69583D02*
X24233Y60617D01*
X19267Y60617D01*
X19267Y69583D01*
X24233Y69583D01*
X24233Y63047D02*
X19267Y63047D01*
X19267Y65477D02*
X24233Y65477D01*
X24233Y67907D02*
X19267Y67907D01*
D27*
X46227Y69577D02*
X46227Y60623D01*
X39273Y60623D01*
X39273Y69577D01*
X46227Y69577D01*
X46227Y63065D02*
X39273Y63065D01*
X39273Y65507D02*
X46227Y65507D01*
X46227Y67949D02*
X39273Y67949D01*
D15*
X24233Y133617D02*
X24233Y142583D01*
X24233Y133617D02*
X19267Y133617D01*
X19267Y142583D01*
X24233Y142583D01*
X24233Y136047D02*
X19267Y136047D01*
X19267Y138477D02*
X24233Y138477D01*
X24233Y140907D02*
X19267Y140907D01*
D27*
X46227Y142577D02*
X46227Y133623D01*
X39273Y133623D01*
X39273Y142577D01*
X46227Y142577D01*
X46227Y136065D02*
X39273Y136065D01*
X39273Y138507D02*
X46227Y138507D01*
X46227Y140949D02*
X39273Y140949D01*
D31*
X31750Y86600D03*
X31750Y116600D03*
D14*
X62705Y108535D02*
X72695Y108535D01*
X62705Y108535D02*
X62705Y117525D01*
X72695Y117525D01*
X72695Y108535D01*
X72695Y110943D02*
X62705Y110943D01*
X62705Y113351D02*
X72695Y113351D01*
X72695Y115759D02*
X62705Y115759D01*
X79705Y108535D02*
X89695Y108535D01*
X79705Y108535D02*
X79705Y117525D01*
X89695Y117525D01*
X89695Y108535D01*
X89695Y110943D02*
X79705Y110943D01*
X79705Y113351D02*
X89695Y113351D01*
X89695Y115759D02*
X79705Y115759D01*
D27*
X190173Y204477D02*
X197127Y204477D01*
X197127Y196523D01*
X190173Y196523D01*
X190173Y204477D01*
X190173Y198965D02*
X197127Y198965D01*
X197127Y201407D02*
X190173Y201407D01*
X190173Y203849D02*
X197127Y203849D01*
X178127Y204477D02*
X171173Y204477D01*
X178127Y204477D02*
X178127Y196523D01*
X171173Y196523D01*
X171173Y204477D01*
X171173Y198965D02*
X178127Y198965D01*
X178127Y201407D02*
X171173Y201407D01*
X171173Y203849D02*
X178127Y203849D01*
X180673Y183477D02*
X187627Y183477D01*
X187627Y175523D01*
X180673Y175523D01*
X180673Y183477D01*
X180673Y177965D02*
X187627Y177965D01*
X187627Y180407D02*
X180673Y180407D01*
X180673Y182849D02*
X187627Y182849D01*
D14*
X173305Y257505D02*
X173305Y267495D01*
X182295Y267495D01*
X182295Y257505D01*
X173305Y257505D01*
X173305Y259913D02*
X182295Y259913D01*
X182295Y262321D02*
X173305Y262321D01*
X173305Y264729D02*
X182295Y264729D01*
X182295Y267137D02*
X173305Y267137D01*
X173305Y250495D02*
X173305Y240505D01*
X173305Y250495D02*
X182295Y250495D01*
X182295Y240505D01*
X173305Y240505D01*
X173305Y242913D02*
X182295Y242913D01*
X182295Y245321D02*
X173305Y245321D01*
X173305Y247729D02*
X182295Y247729D01*
X182295Y250137D02*
X173305Y250137D01*
X173305Y295605D02*
X173305Y305595D01*
X182295Y305595D01*
X182295Y295605D01*
X173305Y295605D01*
X173305Y298013D02*
X182295Y298013D01*
X182295Y300421D02*
X173305Y300421D01*
X173305Y302829D02*
X182295Y302829D01*
X182295Y305237D02*
X173305Y305237D01*
X173305Y288595D02*
X173305Y278605D01*
X173305Y288595D02*
X182295Y288595D01*
X182295Y278605D01*
X173305Y278605D01*
X173305Y281013D02*
X182295Y281013D01*
X182295Y283421D02*
X173305Y283421D01*
X173305Y285829D02*
X182295Y285829D01*
X182295Y288237D02*
X173305Y288237D01*
D29*
X176158Y210758D02*
X179142Y210758D01*
X176158Y210758D02*
X176158Y217742D01*
X179142Y217742D01*
X179142Y210758D01*
X179142Y213172D02*
X176158Y213172D01*
X176158Y215586D02*
X179142Y215586D01*
X182658Y210758D02*
X185642Y210758D01*
X182658Y210758D02*
X182658Y217742D01*
X185642Y217742D01*
X185642Y210758D01*
X185642Y213172D02*
X182658Y213172D01*
X182658Y215586D02*
X185642Y215586D01*
X189158Y210758D02*
X192142Y210758D01*
X189158Y210758D02*
X189158Y217742D01*
X192142Y217742D01*
X192142Y210758D01*
X192142Y213172D02*
X189158Y213172D01*
X189158Y215586D02*
X192142Y215586D01*
X192142Y226758D02*
X189158Y226758D01*
X189158Y233742D01*
X192142Y233742D01*
X192142Y226758D01*
X192142Y229172D02*
X189158Y229172D01*
X189158Y231586D02*
X192142Y231586D01*
X185642Y226758D02*
X182658Y226758D01*
X182658Y233742D01*
X185642Y233742D01*
X185642Y226758D01*
X185642Y229172D02*
X182658Y229172D01*
X182658Y231586D02*
X185642Y231586D01*
X179142Y226758D02*
X176158Y226758D01*
X176158Y233742D01*
X179142Y233742D01*
X179142Y226758D01*
X179142Y229172D02*
X176158Y229172D01*
X176158Y231586D02*
X179142Y231586D01*
D14*
X163245Y278605D02*
X163245Y288595D01*
X163245Y278605D02*
X154255Y278605D01*
X154255Y288595D01*
X163245Y288595D01*
X163245Y281013D02*
X154255Y281013D01*
X154255Y283421D02*
X163245Y283421D01*
X163245Y285829D02*
X154255Y285829D01*
X154255Y288237D02*
X163245Y288237D01*
X163245Y295605D02*
X163245Y305595D01*
X163245Y295605D02*
X154255Y295605D01*
X154255Y305595D01*
X163245Y305595D01*
X163245Y298013D02*
X154255Y298013D01*
X154255Y300421D02*
X163245Y300421D01*
X163245Y302829D02*
X154255Y302829D01*
X154255Y305237D02*
X163245Y305237D01*
X182295Y316705D02*
X182295Y326695D01*
X182295Y316705D02*
X173305Y316705D01*
X173305Y326695D01*
X182295Y326695D01*
X182295Y319113D02*
X173305Y319113D01*
X173305Y321521D02*
X182295Y321521D01*
X182295Y323929D02*
X173305Y323929D01*
X173305Y326337D02*
X182295Y326337D01*
X182295Y333705D02*
X182295Y343695D01*
X182295Y333705D02*
X173305Y333705D01*
X173305Y343695D01*
X182295Y343695D01*
X182295Y336113D02*
X173305Y336113D01*
X173305Y338521D02*
X182295Y338521D01*
X182295Y340929D02*
X173305Y340929D01*
X173305Y343337D02*
X182295Y343337D01*
X116155Y422605D02*
X116155Y432595D01*
X125145Y432595D01*
X125145Y422605D01*
X116155Y422605D01*
X116155Y425013D02*
X125145Y425013D01*
X125145Y427421D02*
X116155Y427421D01*
X116155Y429829D02*
X125145Y429829D01*
X125145Y432237D02*
X116155Y432237D01*
X116155Y415595D02*
X116155Y405605D01*
X116155Y415595D02*
X125145Y415595D01*
X125145Y405605D01*
X116155Y405605D01*
X116155Y408013D02*
X125145Y408013D01*
X125145Y410421D02*
X116155Y410421D01*
X116155Y412829D02*
X125145Y412829D01*
X125145Y415237D02*
X116155Y415237D01*
D12*
X41601Y432701D02*
X41601Y440699D01*
X50599Y440699D01*
X50599Y432701D01*
X41601Y432701D01*
X41601Y435101D02*
X50599Y435101D01*
X50599Y437501D02*
X41601Y437501D01*
X41601Y439901D02*
X50599Y439901D01*
X25601Y440699D02*
X25601Y432701D01*
X25601Y440699D02*
X34599Y440699D01*
X34599Y432701D01*
X25601Y432701D01*
X25601Y435101D02*
X34599Y435101D01*
X34599Y437501D02*
X25601Y437501D01*
X25601Y439901D02*
X34599Y439901D01*
X25601Y473701D02*
X25601Y481699D01*
X34599Y481699D01*
X34599Y473701D01*
X25601Y473701D01*
X25601Y476101D02*
X34599Y476101D01*
X34599Y478501D02*
X25601Y478501D01*
X25601Y480901D02*
X34599Y480901D01*
X41601Y481699D02*
X41601Y473701D01*
X41601Y481699D02*
X50599Y481699D01*
X50599Y473701D01*
X41601Y473701D01*
X41601Y476101D02*
X50599Y476101D01*
X50599Y478501D02*
X41601Y478501D01*
X41601Y480901D02*
X50599Y480901D01*
D14*
X62705Y427305D02*
X72695Y427305D01*
X62705Y427305D02*
X62705Y436295D01*
X72695Y436295D01*
X72695Y427305D01*
X72695Y429713D02*
X62705Y429713D01*
X62705Y432121D02*
X72695Y432121D01*
X72695Y434529D02*
X62705Y434529D01*
X79705Y427305D02*
X89695Y427305D01*
X79705Y427305D02*
X79705Y436295D01*
X89695Y436295D01*
X89695Y427305D01*
X89695Y429713D02*
X79705Y429713D01*
X79705Y432121D02*
X89695Y432121D01*
X89695Y434529D02*
X79705Y434529D01*
X97105Y432595D02*
X97105Y422605D01*
X97105Y432595D02*
X106095Y432595D01*
X106095Y422605D01*
X97105Y422605D01*
X97105Y425013D02*
X106095Y425013D01*
X106095Y427421D02*
X97105Y427421D01*
X97105Y429829D02*
X106095Y429829D01*
X106095Y432237D02*
X97105Y432237D01*
X97105Y415595D02*
X97105Y405605D01*
X97105Y415595D02*
X106095Y415595D01*
X106095Y405605D01*
X97105Y405605D01*
X97105Y408013D02*
X106095Y408013D01*
X106095Y410421D02*
X97105Y410421D01*
X97105Y412829D02*
X106095Y412829D01*
X106095Y415237D02*
X97105Y415237D01*
D32*
X71474Y232356D02*
X71474Y217284D01*
X71474Y232356D02*
X88546Y232356D01*
X88546Y217284D01*
X71474Y217284D01*
X71474Y219614D02*
X88546Y219614D01*
X88546Y221944D02*
X71474Y221944D01*
X71474Y224274D02*
X88546Y224274D01*
X88546Y226604D02*
X71474Y226604D01*
X71474Y228934D02*
X88546Y228934D01*
X88546Y231264D02*
X71474Y231264D01*
X71474Y204356D02*
X71474Y189284D01*
X71474Y204356D02*
X88546Y204356D01*
X88546Y189284D01*
X71474Y189284D01*
X71474Y191614D02*
X88546Y191614D01*
X88546Y193944D02*
X71474Y193944D01*
X71474Y196274D02*
X88546Y196274D01*
X88546Y198604D02*
X71474Y198604D01*
X71474Y200934D02*
X88546Y200934D01*
X88546Y203264D02*
X71474Y203264D01*
X88546Y154826D02*
X88546Y139754D01*
X71474Y139754D01*
X71474Y154826D01*
X88546Y154826D01*
X88546Y142084D02*
X71474Y142084D01*
X71474Y144414D02*
X88546Y144414D01*
X88546Y146744D02*
X71474Y146744D01*
X71474Y149074D02*
X88546Y149074D01*
X88546Y151404D02*
X71474Y151404D01*
X71474Y153734D02*
X88546Y153734D01*
X88546Y167754D02*
X88546Y182826D01*
X88546Y167754D02*
X71474Y167754D01*
X71474Y182826D01*
X88546Y182826D01*
X88546Y170084D02*
X71474Y170084D01*
X71474Y172414D02*
X88546Y172414D01*
X88546Y174744D02*
X71474Y174744D01*
X71474Y177074D02*
X88546Y177074D01*
X88546Y179404D02*
X71474Y179404D01*
X71474Y181734D02*
X88546Y181734D01*
X398864Y39286D02*
X429936Y39286D01*
X429936Y24214D01*
X398864Y24214D01*
X398864Y39286D01*
X398864Y26544D02*
X429936Y26544D01*
X429936Y28874D02*
X398864Y28874D01*
X398864Y31204D02*
X429936Y31204D01*
X429936Y33534D02*
X398864Y33534D01*
X398864Y35864D02*
X429936Y35864D01*
X429936Y38194D02*
X398864Y38194D01*
X398864Y64686D02*
X429936Y64686D01*
X429936Y49614D01*
X398864Y49614D01*
X398864Y64686D01*
X398864Y51944D02*
X429936Y51944D01*
X429936Y54274D02*
X398864Y54274D01*
X398864Y56604D02*
X429936Y56604D01*
X429936Y58934D02*
X398864Y58934D01*
X398864Y61264D02*
X429936Y61264D01*
X429936Y63594D02*
X398864Y63594D01*
X398864Y90086D02*
X429936Y90086D01*
X429936Y75014D01*
X398864Y75014D01*
X398864Y90086D01*
X398864Y77344D02*
X429936Y77344D01*
X429936Y79674D02*
X398864Y79674D01*
X398864Y82004D02*
X429936Y82004D01*
X429936Y84334D02*
X398864Y84334D01*
X398864Y86664D02*
X429936Y86664D01*
X429936Y88994D02*
X398864Y88994D01*
X398864Y115486D02*
X429936Y115486D01*
X429936Y100414D01*
X398864Y100414D01*
X398864Y115486D01*
X398864Y102744D02*
X429936Y102744D01*
X429936Y105074D02*
X398864Y105074D01*
X398864Y107404D02*
X429936Y107404D01*
X429936Y109734D02*
X398864Y109734D01*
X398864Y112064D02*
X429936Y112064D01*
X429936Y114394D02*
X398864Y114394D01*
X398864Y140886D02*
X429936Y140886D01*
X429936Y125814D01*
X398864Y125814D01*
X398864Y140886D01*
X398864Y128144D02*
X429936Y128144D01*
X429936Y130474D02*
X398864Y130474D01*
X398864Y132804D02*
X429936Y132804D01*
X429936Y135134D02*
X398864Y135134D01*
X398864Y137464D02*
X429936Y137464D01*
X429936Y139794D02*
X398864Y139794D01*
X398864Y166286D02*
X429936Y166286D01*
X429936Y151214D01*
X398864Y151214D01*
X398864Y166286D01*
X398864Y153544D02*
X429936Y153544D01*
X429936Y155874D02*
X398864Y155874D01*
X398864Y158204D02*
X429936Y158204D01*
X429936Y160534D02*
X398864Y160534D01*
X398864Y162864D02*
X429936Y162864D01*
X429936Y165194D02*
X398864Y165194D01*
X398864Y191686D02*
X429936Y191686D01*
X429936Y176614D01*
X398864Y176614D01*
X398864Y191686D01*
X398864Y178944D02*
X429936Y178944D01*
X429936Y181274D02*
X398864Y181274D01*
X398864Y183604D02*
X429936Y183604D01*
X429936Y185934D02*
X398864Y185934D01*
X398864Y188264D02*
X429936Y188264D01*
X429936Y190594D02*
X398864Y190594D01*
X398864Y217086D02*
X429936Y217086D01*
X429936Y202014D01*
X398864Y202014D01*
X398864Y217086D01*
X398864Y204344D02*
X429936Y204344D01*
X429936Y206674D02*
X398864Y206674D01*
X398864Y209004D02*
X429936Y209004D01*
X429936Y211334D02*
X398864Y211334D01*
X398864Y213664D02*
X429936Y213664D01*
X429936Y215994D02*
X398864Y215994D01*
X398864Y242486D02*
X429936Y242486D01*
X429936Y227414D01*
X398864Y227414D01*
X398864Y242486D01*
X398864Y229744D02*
X429936Y229744D01*
X429936Y232074D02*
X398864Y232074D01*
X398864Y234404D02*
X429936Y234404D01*
X429936Y236734D02*
X398864Y236734D01*
X398864Y239064D02*
X429936Y239064D01*
X429936Y241394D02*
X398864Y241394D01*
X398864Y267886D02*
X429936Y267886D01*
X429936Y252814D01*
X398864Y252814D01*
X398864Y267886D01*
X398864Y255144D02*
X429936Y255144D01*
X429936Y257474D02*
X398864Y257474D01*
X398864Y259804D02*
X429936Y259804D01*
X429936Y262134D02*
X398864Y262134D01*
X398864Y264464D02*
X429936Y264464D01*
X429936Y266794D02*
X398864Y266794D01*
X398864Y293286D02*
X429936Y293286D01*
X429936Y278214D01*
X398864Y278214D01*
X398864Y293286D01*
X398864Y280544D02*
X429936Y280544D01*
X429936Y282874D02*
X398864Y282874D01*
X398864Y285204D02*
X429936Y285204D01*
X429936Y287534D02*
X398864Y287534D01*
X398864Y289864D02*
X429936Y289864D01*
X429936Y292194D02*
X398864Y292194D01*
X398864Y318686D02*
X429936Y318686D01*
X429936Y303614D01*
X398864Y303614D01*
X398864Y318686D01*
X398864Y305944D02*
X429936Y305944D01*
X429936Y308274D02*
X398864Y308274D01*
X398864Y310604D02*
X429936Y310604D01*
X429936Y312934D02*
X398864Y312934D01*
X398864Y315264D02*
X429936Y315264D01*
X429936Y317594D02*
X398864Y317594D01*
X398864Y344086D02*
X429936Y344086D01*
X429936Y329014D01*
X398864Y329014D01*
X398864Y344086D01*
X398864Y331344D02*
X429936Y331344D01*
X429936Y333674D02*
X398864Y333674D01*
X398864Y336004D02*
X429936Y336004D01*
X429936Y338334D02*
X398864Y338334D01*
X398864Y340664D02*
X429936Y340664D01*
X429936Y342994D02*
X398864Y342994D01*
X398864Y369486D02*
X429936Y369486D01*
X429936Y354414D01*
X398864Y354414D01*
X398864Y369486D01*
X398864Y356744D02*
X429936Y356744D01*
X429936Y359074D02*
X398864Y359074D01*
X398864Y361404D02*
X429936Y361404D01*
X429936Y363734D02*
X398864Y363734D01*
X398864Y366064D02*
X429936Y366064D01*
X429936Y368394D02*
X398864Y368394D01*
X398864Y394886D02*
X429936Y394886D01*
X429936Y379814D01*
X398864Y379814D01*
X398864Y394886D01*
X398864Y382144D02*
X429936Y382144D01*
X429936Y384474D02*
X398864Y384474D01*
X398864Y386804D02*
X429936Y386804D01*
X429936Y389134D02*
X398864Y389134D01*
X398864Y391464D02*
X429936Y391464D01*
X429936Y393794D02*
X398864Y393794D01*
X398864Y420286D02*
X429936Y420286D01*
X429936Y405214D01*
X398864Y405214D01*
X398864Y420286D01*
X398864Y407544D02*
X429936Y407544D01*
X429936Y409874D02*
X398864Y409874D01*
X398864Y412204D02*
X429936Y412204D01*
X429936Y414534D02*
X398864Y414534D01*
X398864Y416864D02*
X429936Y416864D01*
X429936Y419194D02*
X398864Y419194D01*
X398864Y445686D02*
X429936Y445686D01*
X429936Y430614D01*
X398864Y430614D01*
X398864Y445686D01*
X398864Y432944D02*
X429936Y432944D01*
X429936Y435274D02*
X398864Y435274D01*
X398864Y437604D02*
X429936Y437604D01*
X429936Y439934D02*
X398864Y439934D01*
X398864Y442264D02*
X429936Y442264D01*
X429936Y444594D02*
X398864Y444594D01*
X398864Y471086D02*
X429936Y471086D01*
X429936Y456014D01*
X398864Y456014D01*
X398864Y471086D01*
X398864Y458344D02*
X429936Y458344D01*
X429936Y460674D02*
X398864Y460674D01*
X398864Y463004D02*
X429936Y463004D01*
X429936Y465334D02*
X398864Y465334D01*
X398864Y467664D02*
X429936Y467664D01*
X429936Y469994D02*
X398864Y469994D01*
X398864Y496486D02*
X429936Y496486D01*
X429936Y481414D01*
X398864Y481414D01*
X398864Y496486D01*
X398864Y483744D02*
X429936Y483744D01*
X429936Y486074D02*
X398864Y486074D01*
X398864Y488404D02*
X429936Y488404D01*
X429936Y490734D02*
X398864Y490734D01*
X398864Y493064D02*
X429936Y493064D01*
X429936Y495394D02*
X398864Y495394D01*
X398864Y521886D02*
X429936Y521886D01*
X429936Y506814D01*
X398864Y506814D01*
X398864Y521886D01*
X398864Y509144D02*
X429936Y509144D01*
X429936Y511474D02*
X398864Y511474D01*
X398864Y513804D02*
X429936Y513804D01*
X429936Y516134D02*
X398864Y516134D01*
X398864Y518464D02*
X429936Y518464D01*
X429936Y520794D02*
X398864Y520794D01*
X236136Y506814D02*
X205064Y506814D01*
X205064Y521886D01*
X236136Y521886D01*
X236136Y506814D01*
X236136Y509144D02*
X205064Y509144D01*
X205064Y511474D02*
X236136Y511474D01*
X236136Y513804D02*
X205064Y513804D01*
X205064Y516134D02*
X236136Y516134D01*
X236136Y518464D02*
X205064Y518464D01*
X205064Y520794D02*
X236136Y520794D01*
X236136Y481414D02*
X205064Y481414D01*
X205064Y496486D01*
X236136Y496486D01*
X236136Y481414D01*
X236136Y483744D02*
X205064Y483744D01*
X205064Y486074D02*
X236136Y486074D01*
X236136Y488404D02*
X205064Y488404D01*
X205064Y490734D02*
X236136Y490734D01*
X236136Y493064D02*
X205064Y493064D01*
X205064Y495394D02*
X236136Y495394D01*
X236136Y456014D02*
X205064Y456014D01*
X205064Y471086D01*
X236136Y471086D01*
X236136Y456014D01*
X236136Y458344D02*
X205064Y458344D01*
X205064Y460674D02*
X236136Y460674D01*
X236136Y463004D02*
X205064Y463004D01*
X205064Y465334D02*
X236136Y465334D01*
X236136Y467664D02*
X205064Y467664D01*
X205064Y469994D02*
X236136Y469994D01*
X236136Y430614D02*
X205064Y430614D01*
X205064Y445686D01*
X236136Y445686D01*
X236136Y430614D01*
X236136Y432944D02*
X205064Y432944D01*
X205064Y435274D02*
X236136Y435274D01*
X236136Y437604D02*
X205064Y437604D01*
X205064Y439934D02*
X236136Y439934D01*
X236136Y442264D02*
X205064Y442264D01*
X205064Y444594D02*
X236136Y444594D01*
X236136Y405214D02*
X205064Y405214D01*
X205064Y420286D01*
X236136Y420286D01*
X236136Y405214D01*
X236136Y407544D02*
X205064Y407544D01*
X205064Y409874D02*
X236136Y409874D01*
X236136Y412204D02*
X205064Y412204D01*
X205064Y414534D02*
X236136Y414534D01*
X236136Y416864D02*
X205064Y416864D01*
X205064Y419194D02*
X236136Y419194D01*
X236136Y379814D02*
X205064Y379814D01*
X205064Y394886D01*
X236136Y394886D01*
X236136Y379814D01*
X236136Y382144D02*
X205064Y382144D01*
X205064Y384474D02*
X236136Y384474D01*
X236136Y386804D02*
X205064Y386804D01*
X205064Y389134D02*
X236136Y389134D01*
X236136Y391464D02*
X205064Y391464D01*
X205064Y393794D02*
X236136Y393794D01*
X236136Y354414D02*
X205064Y354414D01*
X205064Y369486D01*
X236136Y369486D01*
X236136Y354414D01*
X236136Y356744D02*
X205064Y356744D01*
X205064Y359074D02*
X236136Y359074D01*
X236136Y361404D02*
X205064Y361404D01*
X205064Y363734D02*
X236136Y363734D01*
X236136Y366064D02*
X205064Y366064D01*
X205064Y368394D02*
X236136Y368394D01*
X236136Y329014D02*
X205064Y329014D01*
X205064Y344086D01*
X236136Y344086D01*
X236136Y329014D01*
X236136Y331344D02*
X205064Y331344D01*
X205064Y333674D02*
X236136Y333674D01*
X236136Y336004D02*
X205064Y336004D01*
X205064Y338334D02*
X236136Y338334D01*
X236136Y340664D02*
X205064Y340664D01*
X205064Y342994D02*
X236136Y342994D01*
X236136Y303614D02*
X205064Y303614D01*
X205064Y318686D01*
X236136Y318686D01*
X236136Y303614D01*
X236136Y305944D02*
X205064Y305944D01*
X205064Y308274D02*
X236136Y308274D01*
X236136Y310604D02*
X205064Y310604D01*
X205064Y312934D02*
X236136Y312934D01*
X236136Y315264D02*
X205064Y315264D01*
X205064Y317594D02*
X236136Y317594D01*
X236136Y278214D02*
X205064Y278214D01*
X205064Y293286D01*
X236136Y293286D01*
X236136Y278214D01*
X236136Y280544D02*
X205064Y280544D01*
X205064Y282874D02*
X236136Y282874D01*
X236136Y285204D02*
X205064Y285204D01*
X205064Y287534D02*
X236136Y287534D01*
X236136Y289864D02*
X205064Y289864D01*
X205064Y292194D02*
X236136Y292194D01*
X236136Y252814D02*
X205064Y252814D01*
X205064Y267886D01*
X236136Y267886D01*
X236136Y252814D01*
X236136Y255144D02*
X205064Y255144D01*
X205064Y257474D02*
X236136Y257474D01*
X236136Y259804D02*
X205064Y259804D01*
X205064Y262134D02*
X236136Y262134D01*
X236136Y264464D02*
X205064Y264464D01*
X205064Y266794D02*
X236136Y266794D01*
X236136Y227414D02*
X205064Y227414D01*
X205064Y242486D01*
X236136Y242486D01*
X236136Y227414D01*
X236136Y229744D02*
X205064Y229744D01*
X205064Y232074D02*
X236136Y232074D01*
X236136Y234404D02*
X205064Y234404D01*
X205064Y236734D02*
X236136Y236734D01*
X236136Y239064D02*
X205064Y239064D01*
X205064Y241394D02*
X236136Y241394D01*
X236136Y202014D02*
X205064Y202014D01*
X205064Y217086D01*
X236136Y217086D01*
X236136Y202014D01*
X236136Y204344D02*
X205064Y204344D01*
X205064Y206674D02*
X236136Y206674D01*
X236136Y209004D02*
X205064Y209004D01*
X205064Y211334D02*
X236136Y211334D01*
X236136Y213664D02*
X205064Y213664D01*
X205064Y215994D02*
X236136Y215994D01*
X236136Y176614D02*
X205064Y176614D01*
X205064Y191686D01*
X236136Y191686D01*
X236136Y176614D01*
X236136Y178944D02*
X205064Y178944D01*
X205064Y181274D02*
X236136Y181274D01*
X236136Y183604D02*
X205064Y183604D01*
X205064Y185934D02*
X236136Y185934D01*
X236136Y188264D02*
X205064Y188264D01*
X205064Y190594D02*
X236136Y190594D01*
X236136Y151214D02*
X205064Y151214D01*
X205064Y166286D01*
X236136Y166286D01*
X236136Y151214D01*
X236136Y153544D02*
X205064Y153544D01*
X205064Y155874D02*
X236136Y155874D01*
X236136Y158204D02*
X205064Y158204D01*
X205064Y160534D02*
X236136Y160534D01*
X236136Y162864D02*
X205064Y162864D01*
X205064Y165194D02*
X236136Y165194D01*
X236136Y125814D02*
X205064Y125814D01*
X205064Y140886D01*
X236136Y140886D01*
X236136Y125814D01*
X236136Y128144D02*
X205064Y128144D01*
X205064Y130474D02*
X236136Y130474D01*
X236136Y132804D02*
X205064Y132804D01*
X205064Y135134D02*
X236136Y135134D01*
X236136Y137464D02*
X205064Y137464D01*
X205064Y139794D02*
X236136Y139794D01*
X236136Y100414D02*
X205064Y100414D01*
X205064Y115486D01*
X236136Y115486D01*
X236136Y100414D01*
X236136Y102744D02*
X205064Y102744D01*
X205064Y105074D02*
X236136Y105074D01*
X236136Y107404D02*
X205064Y107404D01*
X205064Y109734D02*
X236136Y109734D01*
X236136Y112064D02*
X205064Y112064D01*
X205064Y114394D02*
X236136Y114394D01*
X236136Y75014D02*
X205064Y75014D01*
X205064Y90086D01*
X236136Y90086D01*
X236136Y75014D01*
X236136Y77344D02*
X205064Y77344D01*
X205064Y79674D02*
X236136Y79674D01*
X236136Y82004D02*
X205064Y82004D01*
X205064Y84334D02*
X236136Y84334D01*
X236136Y86664D02*
X205064Y86664D01*
X205064Y88994D02*
X236136Y88994D01*
X236136Y49614D02*
X205064Y49614D01*
X205064Y64686D01*
X236136Y64686D01*
X236136Y49614D01*
X236136Y51944D02*
X205064Y51944D01*
X205064Y54274D02*
X236136Y54274D01*
X236136Y56604D02*
X205064Y56604D01*
X205064Y58934D02*
X236136Y58934D01*
X236136Y61264D02*
X205064Y61264D01*
X205064Y63594D02*
X236136Y63594D01*
X236136Y24214D02*
X205064Y24214D01*
X205064Y39286D01*
X236136Y39286D01*
X236136Y24214D01*
X236136Y26544D02*
X205064Y26544D01*
X205064Y28874D02*
X236136Y28874D01*
X236136Y31204D02*
X205064Y31204D01*
X205064Y33534D02*
X236136Y33534D01*
X236136Y35864D02*
X205064Y35864D01*
X205064Y38194D02*
X236136Y38194D01*
D33*
X310560Y69990D02*
X324440Y69990D01*
X324440Y56110D01*
X310560Y56110D01*
X310560Y69990D01*
X310560Y58622D02*
X324440Y58622D01*
X324440Y61134D02*
X310560Y61134D01*
X310560Y63646D02*
X324440Y63646D01*
X324440Y66158D02*
X310560Y66158D01*
X310560Y68670D02*
X324440Y68670D01*
X314440Y36990D02*
X300560Y36990D01*
X314440Y36990D02*
X314440Y23110D01*
X300560Y23110D01*
X300560Y36990D01*
X300560Y25622D02*
X314440Y25622D01*
X314440Y28134D02*
X300560Y28134D01*
X300560Y30646D02*
X314440Y30646D01*
X314440Y33158D02*
X300560Y33158D01*
X300560Y35670D02*
X314440Y35670D01*
X320560Y36990D02*
X334440Y36990D01*
X334440Y23110D01*
X320560Y23110D01*
X320560Y36990D01*
X320560Y25622D02*
X334440Y25622D01*
X334440Y28134D02*
X320560Y28134D01*
X320560Y30646D02*
X334440Y30646D01*
X334440Y33158D02*
X320560Y33158D01*
X320560Y35670D02*
X334440Y35670D01*
X335560Y119990D02*
X349440Y119990D01*
X349440Y106110D01*
X335560Y106110D01*
X335560Y119990D01*
X335560Y108622D02*
X349440Y108622D01*
X349440Y111134D02*
X335560Y111134D01*
X335560Y113646D02*
X349440Y113646D01*
X349440Y116158D02*
X335560Y116158D01*
X335560Y118670D02*
X349440Y118670D01*
X349440Y144990D02*
X335560Y144990D01*
X349440Y144990D02*
X349440Y131110D01*
X335560Y131110D01*
X335560Y144990D01*
X335560Y133622D02*
X349440Y133622D01*
X349440Y136134D02*
X335560Y136134D01*
X335560Y138646D02*
X349440Y138646D01*
X349440Y141158D02*
X335560Y141158D01*
X335560Y143670D02*
X349440Y143670D01*
X349440Y169990D02*
X335560Y169990D01*
X349440Y169990D02*
X349440Y156110D01*
X335560Y156110D01*
X335560Y169990D01*
X335560Y158622D02*
X349440Y158622D01*
X349440Y161134D02*
X335560Y161134D01*
X335560Y163646D02*
X349440Y163646D01*
X349440Y166158D02*
X335560Y166158D01*
X335560Y168670D02*
X349440Y168670D01*
D34*
X319086Y337477D02*
X304232Y337477D01*
X319086Y337477D02*
X319086Y322623D01*
X304232Y322623D01*
X304232Y337477D01*
X304232Y324920D02*
X319086Y324920D01*
X319086Y327217D02*
X304232Y327217D01*
X304232Y329514D02*
X319086Y329514D01*
X319086Y331811D02*
X304232Y331811D01*
X304232Y334108D02*
X319086Y334108D01*
X319086Y336405D02*
X304232Y336405D01*
X293686Y337477D02*
X278832Y337477D01*
X293686Y337477D02*
X293686Y322623D01*
X278832Y322623D01*
X278832Y337477D01*
X278832Y324920D02*
X293686Y324920D01*
X293686Y327217D02*
X278832Y327217D01*
X278832Y329514D02*
X293686Y329514D01*
X293686Y331811D02*
X278832Y331811D01*
X278832Y334108D02*
X293686Y334108D01*
X293686Y336405D02*
X278832Y336405D01*
X268286Y337477D02*
X253432Y337477D01*
X268286Y337477D02*
X268286Y322623D01*
X253432Y322623D01*
X253432Y337477D01*
X253432Y324920D02*
X268286Y324920D01*
X268286Y327217D02*
X253432Y327217D01*
X253432Y329514D02*
X268286Y329514D01*
X268286Y331811D02*
X253432Y331811D01*
X253432Y334108D02*
X268286Y334108D01*
X268286Y336405D02*
X253432Y336405D01*
D35*
X344750Y36550D02*
X344750Y29550D01*
X290250Y29550D02*
X290250Y36550D01*
D36*
X341750Y61350D02*
X341750Y65350D01*
X293250Y65350D02*
X293250Y61350D01*
D13*
X614855Y104435D02*
X614855Y111465D01*
X621885Y111465D01*
X621885Y104435D01*
X614855Y104435D01*
X614855Y108704D02*
X621885Y108704D01*
X597315Y111465D02*
X597315Y104435D01*
X597315Y111465D02*
X604345Y111465D01*
X604345Y104435D01*
X597315Y104435D01*
X597315Y108704D02*
X604345Y108704D01*
D14*
X606095Y78055D02*
X596105Y78055D01*
X596105Y87045D01*
X606095Y87045D01*
X606095Y78055D01*
X606095Y80463D02*
X596105Y80463D01*
X596105Y82871D02*
X606095Y82871D01*
X606095Y85279D02*
X596105Y85279D01*
X613105Y78055D02*
X623095Y78055D01*
X613105Y78055D02*
X613105Y87045D01*
X623095Y87045D01*
X623095Y78055D01*
X623095Y80463D02*
X613105Y80463D01*
X613105Y82871D02*
X623095Y82871D01*
X623095Y85279D02*
X613105Y85279D01*
D10*
X609600Y1033780D03*
X25400Y595630D03*
D11*
X609600Y570230D03*
X609600Y1059180D03*
X25400Y1059180D03*
X25400Y570230D03*
D12*
X137151Y834081D02*
X145149Y834081D01*
X137151Y834081D02*
X137151Y843079D01*
X145149Y843079D01*
X145149Y834081D01*
X145149Y836481D02*
X137151Y836481D01*
X137151Y838881D02*
X145149Y838881D01*
X145149Y841281D02*
X137151Y841281D01*
X137151Y818081D02*
X145149Y818081D01*
X137151Y818081D02*
X137151Y827079D01*
X145149Y827079D01*
X145149Y818081D01*
X145149Y820481D02*
X137151Y820481D01*
X137151Y822881D02*
X145149Y822881D01*
X145149Y825281D02*
X137151Y825281D01*
X104149Y818081D02*
X96151Y818081D01*
X96151Y827079D01*
X104149Y827079D01*
X104149Y818081D01*
X104149Y820481D02*
X96151Y820481D01*
X96151Y822881D02*
X104149Y822881D01*
X104149Y825281D02*
X96151Y825281D01*
X96151Y834081D02*
X104149Y834081D01*
X96151Y834081D02*
X96151Y843079D01*
X104149Y843079D01*
X104149Y834081D01*
X104149Y836481D02*
X96151Y836481D01*
X96151Y838881D02*
X104149Y838881D01*
X104149Y841281D02*
X96151Y841281D01*
D13*
X614855Y675345D02*
X614855Y668315D01*
X614855Y675345D02*
X621885Y675345D01*
X621885Y668315D01*
X614855Y668315D01*
X614855Y672584D02*
X621885Y672584D01*
X597315Y675345D02*
X597315Y668315D01*
X597315Y675345D02*
X604345Y675345D01*
X604345Y668315D01*
X597315Y668315D01*
X597315Y672584D02*
X604345Y672584D01*
D14*
X606095Y603835D02*
X596105Y603835D01*
X596105Y612825D01*
X606095Y612825D01*
X606095Y603835D01*
X606095Y606243D02*
X596105Y606243D01*
X596105Y608651D02*
X606095Y608651D01*
X606095Y611059D02*
X596105Y611059D01*
X613105Y603835D02*
X623095Y603835D01*
X613105Y603835D02*
X613105Y612825D01*
X623095Y612825D01*
X623095Y603835D01*
X623095Y606243D02*
X613105Y606243D01*
X613105Y608651D02*
X623095Y608651D01*
X623095Y611059D02*
X613105Y611059D01*
D15*
X30867Y847147D02*
X30867Y852113D01*
X45333Y852113D01*
X45333Y847147D01*
X30867Y847147D01*
X30867Y849577D02*
X45333Y849577D01*
X45333Y852007D02*
X30867Y852007D01*
X30867Y842113D02*
X30867Y837147D01*
X30867Y842113D02*
X45333Y842113D01*
X45333Y837147D01*
X30867Y837147D01*
X30867Y839577D02*
X45333Y839577D01*
X45333Y842007D02*
X30867Y842007D01*
X30867Y832113D02*
X30867Y827147D01*
X30867Y832113D02*
X45333Y832113D01*
X45333Y827147D01*
X30867Y827147D01*
X30867Y829577D02*
X45333Y829577D01*
X45333Y832007D02*
X30867Y832007D01*
X30867Y822113D02*
X30867Y817147D01*
X30867Y822113D02*
X45333Y822113D01*
X45333Y817147D01*
X30867Y817147D01*
X30867Y819577D02*
X45333Y819577D01*
X45333Y822007D02*
X30867Y822007D01*
X30867Y812113D02*
X30867Y807147D01*
X30867Y812113D02*
X45333Y812113D01*
X45333Y807147D01*
X30867Y807147D01*
X30867Y809577D02*
X45333Y809577D01*
X45333Y812007D02*
X30867Y812007D01*
X30867Y802113D02*
X30867Y797147D01*
X30867Y802113D02*
X45333Y802113D01*
X45333Y797147D01*
X30867Y797147D01*
X30867Y799577D02*
X45333Y799577D01*
X45333Y802007D02*
X30867Y802007D01*
D16*
X7305Y857085D02*
X7305Y868175D01*
X24395Y868175D01*
X24395Y857085D01*
X7305Y857085D01*
X7305Y859397D02*
X24395Y859397D01*
X24395Y861709D02*
X7305Y861709D01*
X7305Y864021D02*
X24395Y864021D01*
X24395Y866333D02*
X7305Y866333D01*
X7305Y792175D02*
X7305Y781085D01*
X7305Y792175D02*
X24395Y792175D01*
X24395Y781085D01*
X7305Y781085D01*
X7305Y783397D02*
X24395Y783397D01*
X24395Y785709D02*
X7305Y785709D01*
X7305Y788021D02*
X24395Y788021D01*
X24395Y790333D02*
X7305Y790333D01*
D15*
X30867Y948747D02*
X30867Y953713D01*
X45333Y953713D01*
X45333Y948747D01*
X30867Y948747D01*
X30867Y951177D02*
X45333Y951177D01*
X45333Y953607D02*
X30867Y953607D01*
X30867Y943713D02*
X30867Y938747D01*
X30867Y943713D02*
X45333Y943713D01*
X45333Y938747D01*
X30867Y938747D01*
X30867Y941177D02*
X45333Y941177D01*
X45333Y943607D02*
X30867Y943607D01*
X30867Y933713D02*
X30867Y928747D01*
X30867Y933713D02*
X45333Y933713D01*
X45333Y928747D01*
X30867Y928747D01*
X30867Y931177D02*
X45333Y931177D01*
X45333Y933607D02*
X30867Y933607D01*
X30867Y923713D02*
X30867Y918747D01*
X30867Y923713D02*
X45333Y923713D01*
X45333Y918747D01*
X30867Y918747D01*
X30867Y921177D02*
X45333Y921177D01*
X45333Y923607D02*
X30867Y923607D01*
X30867Y913713D02*
X30867Y908747D01*
X30867Y913713D02*
X45333Y913713D01*
X45333Y908747D01*
X30867Y908747D01*
X30867Y911177D02*
X45333Y911177D01*
X45333Y913607D02*
X30867Y913607D01*
X30867Y903713D02*
X30867Y898747D01*
X30867Y903713D02*
X45333Y903713D01*
X45333Y898747D01*
X30867Y898747D01*
X30867Y901177D02*
X45333Y901177D01*
X45333Y903607D02*
X30867Y903607D01*
D16*
X7305Y958685D02*
X7305Y969775D01*
X24395Y969775D01*
X24395Y958685D01*
X7305Y958685D01*
X7305Y960997D02*
X24395Y960997D01*
X24395Y963309D02*
X7305Y963309D01*
X7305Y965621D02*
X24395Y965621D01*
X24395Y967933D02*
X7305Y967933D01*
X7305Y893775D02*
X7305Y882685D01*
X7305Y893775D02*
X24395Y893775D01*
X24395Y882685D01*
X7305Y882685D01*
X7305Y884997D02*
X24395Y884997D01*
X24395Y887309D02*
X7305Y887309D01*
X7305Y889621D02*
X24395Y889621D01*
X24395Y891933D02*
X7305Y891933D01*
D15*
X604133Y897947D02*
X604133Y902913D01*
X604133Y897947D02*
X589667Y897947D01*
X589667Y902913D01*
X604133Y902913D01*
X604133Y900377D02*
X589667Y900377D01*
X589667Y902807D02*
X604133Y902807D01*
X604133Y907947D02*
X604133Y912913D01*
X604133Y907947D02*
X589667Y907947D01*
X589667Y912913D01*
X604133Y912913D01*
X604133Y910377D02*
X589667Y910377D01*
X589667Y912807D02*
X604133Y912807D01*
X604133Y917947D02*
X604133Y922913D01*
X604133Y917947D02*
X589667Y917947D01*
X589667Y922913D01*
X604133Y922913D01*
X604133Y920377D02*
X589667Y920377D01*
X589667Y922807D02*
X604133Y922807D01*
X604133Y927947D02*
X604133Y932913D01*
X604133Y927947D02*
X589667Y927947D01*
X589667Y932913D01*
X604133Y932913D01*
X604133Y930377D02*
X589667Y930377D01*
X589667Y932807D02*
X604133Y932807D01*
X604133Y937947D02*
X604133Y942913D01*
X604133Y937947D02*
X589667Y937947D01*
X589667Y942913D01*
X604133Y942913D01*
X604133Y940377D02*
X589667Y940377D01*
X589667Y942807D02*
X604133Y942807D01*
X604133Y947947D02*
X604133Y952913D01*
X604133Y947947D02*
X589667Y947947D01*
X589667Y952913D01*
X604133Y952913D01*
X604133Y950377D02*
X589667Y950377D01*
X589667Y952807D02*
X604133Y952807D01*
D16*
X627695Y892975D02*
X627695Y881885D01*
X610605Y881885D01*
X610605Y892975D01*
X627695Y892975D01*
X627695Y884197D02*
X610605Y884197D01*
X610605Y886509D02*
X627695Y886509D01*
X627695Y888821D02*
X610605Y888821D01*
X610605Y891133D02*
X627695Y891133D01*
X627695Y957885D02*
X627695Y968975D01*
X627695Y957885D02*
X610605Y957885D01*
X610605Y968975D01*
X627695Y968975D01*
X627695Y960197D02*
X610605Y960197D01*
X610605Y962509D02*
X627695Y962509D01*
X627695Y964821D02*
X610605Y964821D01*
X610605Y967133D02*
X627695Y967133D01*
D15*
X604133Y801313D02*
X604133Y796347D01*
X589667Y796347D01*
X589667Y801313D01*
X604133Y801313D01*
X604133Y798777D02*
X589667Y798777D01*
X589667Y801207D02*
X604133Y801207D01*
X604133Y806347D02*
X604133Y811313D01*
X604133Y806347D02*
X589667Y806347D01*
X589667Y811313D01*
X604133Y811313D01*
X604133Y808777D02*
X589667Y808777D01*
X589667Y811207D02*
X604133Y811207D01*
X604133Y816347D02*
X604133Y821313D01*
X604133Y816347D02*
X589667Y816347D01*
X589667Y821313D01*
X604133Y821313D01*
X604133Y818777D02*
X589667Y818777D01*
X589667Y821207D02*
X604133Y821207D01*
X604133Y826347D02*
X604133Y831313D01*
X604133Y826347D02*
X589667Y826347D01*
X589667Y831313D01*
X604133Y831313D01*
X604133Y828777D02*
X589667Y828777D01*
X589667Y831207D02*
X604133Y831207D01*
X604133Y836347D02*
X604133Y841313D01*
X604133Y836347D02*
X589667Y836347D01*
X589667Y841313D01*
X604133Y841313D01*
X604133Y838777D02*
X589667Y838777D01*
X589667Y841207D02*
X604133Y841207D01*
X604133Y846347D02*
X604133Y851313D01*
X604133Y846347D02*
X589667Y846347D01*
X589667Y851313D01*
X604133Y851313D01*
X604133Y848777D02*
X589667Y848777D01*
X589667Y851207D02*
X604133Y851207D01*
D16*
X627695Y791375D02*
X627695Y780285D01*
X610605Y780285D01*
X610605Y791375D01*
X627695Y791375D01*
X627695Y782597D02*
X610605Y782597D01*
X610605Y784909D02*
X627695Y784909D01*
X627695Y787221D02*
X610605Y787221D01*
X610605Y789533D02*
X627695Y789533D01*
X627695Y856285D02*
X627695Y867375D01*
X627695Y856285D02*
X610605Y856285D01*
X610605Y867375D01*
X627695Y867375D01*
X627695Y858597D02*
X610605Y858597D01*
X610605Y860909D02*
X627695Y860909D01*
X627695Y863221D02*
X610605Y863221D01*
X610605Y865533D02*
X627695Y865533D01*
D17*
X11430Y709930D03*
X13970Y735330D03*
X11430Y760730D03*
X623570Y760730D03*
X621030Y735330D03*
X623570Y709930D03*
D15*
X457383Y1034297D02*
X452417Y1034297D01*
X452417Y1048763D01*
X457383Y1048763D01*
X457383Y1034297D01*
X457383Y1036727D02*
X452417Y1036727D01*
X452417Y1039157D02*
X457383Y1039157D01*
X457383Y1041587D02*
X452417Y1041587D01*
X452417Y1044017D02*
X457383Y1044017D01*
X457383Y1046447D02*
X452417Y1046447D01*
X462417Y1034297D02*
X467383Y1034297D01*
X462417Y1034297D02*
X462417Y1048763D01*
X467383Y1048763D01*
X467383Y1034297D01*
X467383Y1036727D02*
X462417Y1036727D01*
X462417Y1039157D02*
X467383Y1039157D01*
X467383Y1041587D02*
X462417Y1041587D01*
X462417Y1044017D02*
X467383Y1044017D01*
X467383Y1046447D02*
X462417Y1046447D01*
X472417Y1034297D02*
X477383Y1034297D01*
X472417Y1034297D02*
X472417Y1048763D01*
X477383Y1048763D01*
X477383Y1034297D01*
X477383Y1036727D02*
X472417Y1036727D01*
X472417Y1039157D02*
X477383Y1039157D01*
X477383Y1041587D02*
X472417Y1041587D01*
X472417Y1044017D02*
X477383Y1044017D01*
X477383Y1046447D02*
X472417Y1046447D01*
X482417Y1034297D02*
X487383Y1034297D01*
X482417Y1034297D02*
X482417Y1048763D01*
X487383Y1048763D01*
X487383Y1034297D01*
X487383Y1036727D02*
X482417Y1036727D01*
X482417Y1039157D02*
X487383Y1039157D01*
X487383Y1041587D02*
X482417Y1041587D01*
X482417Y1044017D02*
X487383Y1044017D01*
X487383Y1046447D02*
X482417Y1046447D01*
D16*
X447445Y1056235D02*
X436355Y1056235D01*
X436355Y1075325D01*
X447445Y1075325D01*
X447445Y1056235D01*
X447445Y1058547D02*
X436355Y1058547D01*
X436355Y1060859D02*
X447445Y1060859D01*
X447445Y1063171D02*
X436355Y1063171D01*
X436355Y1065483D02*
X447445Y1065483D01*
X447445Y1067795D02*
X436355Y1067795D01*
X436355Y1070107D02*
X447445Y1070107D01*
X447445Y1072419D02*
X436355Y1072419D01*
X436355Y1074731D02*
X447445Y1074731D01*
X492355Y1056235D02*
X503445Y1056235D01*
X492355Y1056235D02*
X492355Y1075325D01*
X503445Y1075325D01*
X503445Y1056235D01*
X503445Y1058547D02*
X492355Y1058547D01*
X492355Y1060859D02*
X503445Y1060859D01*
X503445Y1063171D02*
X492355Y1063171D01*
X492355Y1065483D02*
X503445Y1065483D01*
X503445Y1067795D02*
X492355Y1067795D01*
X492355Y1070107D02*
X503445Y1070107D01*
X503445Y1072419D02*
X492355Y1072419D01*
X492355Y1074731D02*
X503445Y1074731D01*
D18*
X459895Y781675D02*
X456405Y781675D01*
X459895Y781675D02*
X459895Y780185D01*
X456405Y780185D01*
X456405Y781675D01*
X456405Y776675D02*
X459895Y776675D01*
X459895Y775185D01*
X456405Y775185D01*
X456405Y776675D01*
X456405Y771675D02*
X459895Y771675D01*
X459895Y770185D01*
X456405Y770185D01*
X456405Y771675D01*
X456405Y766675D02*
X459895Y766675D01*
X459895Y765185D01*
X456405Y765185D01*
X456405Y766675D01*
X465645Y765925D02*
X465645Y762435D01*
X464155Y762435D01*
X464155Y765925D01*
X465645Y765925D01*
X465645Y764843D02*
X464155Y764843D01*
X470645Y765925D02*
X470645Y762435D01*
X469155Y762435D01*
X469155Y765925D01*
X470645Y765925D01*
X470645Y764843D02*
X469155Y764843D01*
X475645Y765925D02*
X475645Y762435D01*
X474155Y762435D01*
X474155Y765925D01*
X475645Y765925D01*
X475645Y764843D02*
X474155Y764843D01*
X479905Y766675D02*
X483395Y766675D01*
X483395Y765185D01*
X479905Y765185D01*
X479905Y766675D01*
X479905Y771675D02*
X483395Y771675D01*
X483395Y770185D01*
X479905Y770185D01*
X479905Y771675D01*
X479905Y776675D02*
X483395Y776675D01*
X483395Y775185D01*
X479905Y775185D01*
X479905Y776675D01*
X479905Y781675D02*
X483395Y781675D01*
X483395Y780185D01*
X479905Y780185D01*
X479905Y781675D01*
X475645Y780935D02*
X475645Y784425D01*
X475645Y780935D02*
X474155Y780935D01*
X474155Y784425D01*
X475645Y784425D01*
X475645Y783343D02*
X474155Y783343D01*
X470645Y784425D02*
X470645Y780935D01*
X469155Y780935D01*
X469155Y784425D01*
X470645Y784425D01*
X470645Y783343D02*
X469155Y783343D01*
X465645Y784425D02*
X465645Y780935D01*
X464155Y780935D01*
X464155Y784425D01*
X465645Y784425D01*
X465645Y783343D02*
X464155Y783343D01*
D19*
X106796Y888526D02*
X100804Y888526D01*
X106796Y888526D02*
X106796Y886534D01*
X100804Y886534D01*
X100804Y888526D01*
X100804Y883526D02*
X106796Y883526D01*
X106796Y881534D01*
X100804Y881534D01*
X100804Y883526D01*
X100804Y878526D02*
X106796Y878526D01*
X106796Y876534D01*
X100804Y876534D01*
X100804Y878526D01*
X100804Y873526D02*
X106796Y873526D01*
X106796Y871534D01*
X100804Y871534D01*
X100804Y873526D01*
X100804Y868526D02*
X106796Y868526D01*
X106796Y866534D01*
X100804Y866534D01*
X100804Y868526D01*
X100804Y863526D02*
X106796Y863526D01*
X106796Y861534D01*
X100804Y861534D01*
X100804Y863526D01*
X121804Y861534D02*
X127796Y861534D01*
X121804Y861534D02*
X121804Y863526D01*
X127796Y863526D01*
X127796Y861534D01*
X127796Y866534D02*
X121804Y866534D01*
X121804Y868526D01*
X127796Y868526D01*
X127796Y866534D01*
X127796Y871534D02*
X121804Y871534D01*
X121804Y873526D01*
X127796Y873526D01*
X127796Y871534D01*
X127796Y876534D02*
X121804Y876534D01*
X121804Y878526D01*
X127796Y878526D01*
X127796Y876534D01*
X127796Y881534D02*
X121804Y881534D01*
X121804Y883526D01*
X127796Y883526D01*
X127796Y881534D01*
X127796Y886534D02*
X121804Y886534D01*
X121804Y888526D01*
X127796Y888526D01*
X127796Y886534D01*
D12*
X110301Y884529D02*
X110301Y865531D01*
X110301Y884529D02*
X118299Y884529D01*
X118299Y865531D01*
X110301Y865531D01*
X110301Y867931D02*
X118299Y867931D01*
X118299Y870331D02*
X110301Y870331D01*
X110301Y872731D02*
X118299Y872731D01*
X118299Y875131D02*
X110301Y875131D01*
X110301Y877531D02*
X118299Y877531D01*
X118299Y879931D02*
X110301Y879931D01*
X110301Y882331D02*
X118299Y882331D01*
D19*
X528204Y861534D02*
X534196Y861534D01*
X528204Y861534D02*
X528204Y863526D01*
X534196Y863526D01*
X534196Y861534D01*
X534196Y866534D02*
X528204Y866534D01*
X528204Y868526D01*
X534196Y868526D01*
X534196Y866534D01*
X534196Y871534D02*
X528204Y871534D01*
X528204Y873526D01*
X534196Y873526D01*
X534196Y871534D01*
X534196Y876534D02*
X528204Y876534D01*
X528204Y878526D01*
X534196Y878526D01*
X534196Y876534D01*
X534196Y881534D02*
X528204Y881534D01*
X528204Y883526D01*
X534196Y883526D01*
X534196Y881534D01*
X534196Y886534D02*
X528204Y886534D01*
X528204Y888526D01*
X534196Y888526D01*
X534196Y886534D01*
X513196Y888526D02*
X507204Y888526D01*
X513196Y888526D02*
X513196Y886534D01*
X507204Y886534D01*
X507204Y888526D01*
X507204Y883526D02*
X513196Y883526D01*
X513196Y881534D01*
X507204Y881534D01*
X507204Y883526D01*
X507204Y878526D02*
X513196Y878526D01*
X513196Y876534D01*
X507204Y876534D01*
X507204Y878526D01*
X507204Y873526D02*
X513196Y873526D01*
X513196Y871534D01*
X507204Y871534D01*
X507204Y873526D01*
X507204Y868526D02*
X513196Y868526D01*
X513196Y866534D01*
X507204Y866534D01*
X507204Y868526D01*
X507204Y863526D02*
X513196Y863526D01*
X513196Y861534D01*
X507204Y861534D01*
X507204Y863526D01*
D12*
X524699Y865531D02*
X524699Y884529D01*
X524699Y865531D02*
X516701Y865531D01*
X516701Y884529D01*
X524699Y884529D01*
X524699Y867931D02*
X516701Y867931D01*
X516701Y870331D02*
X524699Y870331D01*
X524699Y872731D02*
X516701Y872731D01*
X516701Y875131D02*
X524699Y875131D01*
X524699Y877531D02*
X516701Y877531D01*
X516701Y879931D02*
X524699Y879931D01*
X524699Y882331D02*
X516701Y882331D01*
D20*
X62240Y614670D02*
X62240Y598942D01*
X62240Y614670D02*
X90160Y614670D01*
X90160Y598942D01*
X62240Y598942D01*
X62240Y601374D02*
X90160Y601374D01*
X90160Y603806D02*
X62240Y603806D01*
X62240Y606238D02*
X90160Y606238D01*
X90160Y608670D02*
X62240Y608670D01*
X62240Y611102D02*
X90160Y611102D01*
X90160Y613534D02*
X62240Y613534D01*
X62240Y566918D02*
X62240Y551190D01*
X62240Y566918D02*
X90160Y566918D01*
X90160Y551190D01*
X62240Y551190D01*
X62240Y553622D02*
X90160Y553622D01*
X90160Y556054D02*
X62240Y556054D01*
X62240Y558486D02*
X90160Y558486D01*
X90160Y560918D02*
X62240Y560918D01*
X62240Y563350D02*
X90160Y563350D01*
X90160Y565782D02*
X62240Y565782D01*
D14*
X456405Y743535D02*
X466395Y743535D01*
X456405Y743535D02*
X456405Y752525D01*
X466395Y752525D01*
X466395Y743535D01*
X466395Y745943D02*
X456405Y745943D01*
X456405Y748351D02*
X466395Y748351D01*
X466395Y750759D02*
X456405Y750759D01*
X473405Y743535D02*
X483395Y743535D01*
X473405Y743535D02*
X473405Y752525D01*
X483395Y752525D01*
X483395Y743535D01*
X483395Y745943D02*
X473405Y745943D01*
X473405Y748351D02*
X483395Y748351D01*
X483395Y750759D02*
X473405Y750759D01*
D15*
X528617Y1034297D02*
X533583Y1034297D01*
X528617Y1034297D02*
X528617Y1048763D01*
X533583Y1048763D01*
X533583Y1034297D01*
X533583Y1036727D02*
X528617Y1036727D01*
X528617Y1039157D02*
X533583Y1039157D01*
X533583Y1041587D02*
X528617Y1041587D01*
X528617Y1044017D02*
X533583Y1044017D01*
X533583Y1046447D02*
X528617Y1046447D01*
X538617Y1034297D02*
X543583Y1034297D01*
X538617Y1034297D02*
X538617Y1048763D01*
X543583Y1048763D01*
X543583Y1034297D01*
X543583Y1036727D02*
X538617Y1036727D01*
X538617Y1039157D02*
X543583Y1039157D01*
X543583Y1041587D02*
X538617Y1041587D01*
X538617Y1044017D02*
X543583Y1044017D01*
X543583Y1046447D02*
X538617Y1046447D01*
X548617Y1034297D02*
X553583Y1034297D01*
X548617Y1034297D02*
X548617Y1048763D01*
X553583Y1048763D01*
X553583Y1034297D01*
X553583Y1036727D02*
X548617Y1036727D01*
X548617Y1039157D02*
X553583Y1039157D01*
X553583Y1041587D02*
X548617Y1041587D01*
X548617Y1044017D02*
X553583Y1044017D01*
X553583Y1046447D02*
X548617Y1046447D01*
X558617Y1034297D02*
X563583Y1034297D01*
X558617Y1034297D02*
X558617Y1048763D01*
X563583Y1048763D01*
X563583Y1034297D01*
X563583Y1036727D02*
X558617Y1036727D01*
X558617Y1039157D02*
X563583Y1039157D01*
X563583Y1041587D02*
X558617Y1041587D01*
X558617Y1044017D02*
X563583Y1044017D01*
X563583Y1046447D02*
X558617Y1046447D01*
D16*
X523645Y1056235D02*
X512555Y1056235D01*
X512555Y1075325D01*
X523645Y1075325D01*
X523645Y1056235D01*
X523645Y1058547D02*
X512555Y1058547D01*
X512555Y1060859D02*
X523645Y1060859D01*
X523645Y1063171D02*
X512555Y1063171D01*
X512555Y1065483D02*
X523645Y1065483D01*
X523645Y1067795D02*
X512555Y1067795D01*
X512555Y1070107D02*
X523645Y1070107D01*
X523645Y1072419D02*
X512555Y1072419D01*
X512555Y1074731D02*
X523645Y1074731D01*
X568555Y1056235D02*
X579645Y1056235D01*
X568555Y1056235D02*
X568555Y1075325D01*
X579645Y1075325D01*
X579645Y1056235D01*
X579645Y1058547D02*
X568555Y1058547D01*
X568555Y1060859D02*
X579645Y1060859D01*
X579645Y1063171D02*
X568555Y1063171D01*
X568555Y1065483D02*
X579645Y1065483D01*
X579645Y1067795D02*
X568555Y1067795D01*
X568555Y1070107D02*
X579645Y1070107D01*
X579645Y1072419D02*
X568555Y1072419D01*
X568555Y1074731D02*
X579645Y1074731D01*
D15*
X152583Y1034297D02*
X147617Y1034297D01*
X147617Y1048763D01*
X152583Y1048763D01*
X152583Y1034297D01*
X152583Y1036727D02*
X147617Y1036727D01*
X147617Y1039157D02*
X152583Y1039157D01*
X152583Y1041587D02*
X147617Y1041587D01*
X147617Y1044017D02*
X152583Y1044017D01*
X152583Y1046447D02*
X147617Y1046447D01*
X157617Y1034297D02*
X162583Y1034297D01*
X157617Y1034297D02*
X157617Y1048763D01*
X162583Y1048763D01*
X162583Y1034297D01*
X162583Y1036727D02*
X157617Y1036727D01*
X157617Y1039157D02*
X162583Y1039157D01*
X162583Y1041587D02*
X157617Y1041587D01*
X157617Y1044017D02*
X162583Y1044017D01*
X162583Y1046447D02*
X157617Y1046447D01*
X167617Y1034297D02*
X172583Y1034297D01*
X167617Y1034297D02*
X167617Y1048763D01*
X172583Y1048763D01*
X172583Y1034297D01*
X172583Y1036727D02*
X167617Y1036727D01*
X167617Y1039157D02*
X172583Y1039157D01*
X172583Y1041587D02*
X167617Y1041587D01*
X167617Y1044017D02*
X172583Y1044017D01*
X172583Y1046447D02*
X167617Y1046447D01*
X177617Y1034297D02*
X182583Y1034297D01*
X177617Y1034297D02*
X177617Y1048763D01*
X182583Y1048763D01*
X182583Y1034297D01*
X182583Y1036727D02*
X177617Y1036727D01*
X177617Y1039157D02*
X182583Y1039157D01*
X182583Y1041587D02*
X177617Y1041587D01*
X177617Y1044017D02*
X182583Y1044017D01*
X182583Y1046447D02*
X177617Y1046447D01*
D16*
X142645Y1056235D02*
X131555Y1056235D01*
X131555Y1075325D01*
X142645Y1075325D01*
X142645Y1056235D01*
X142645Y1058547D02*
X131555Y1058547D01*
X131555Y1060859D02*
X142645Y1060859D01*
X142645Y1063171D02*
X131555Y1063171D01*
X131555Y1065483D02*
X142645Y1065483D01*
X142645Y1067795D02*
X131555Y1067795D01*
X131555Y1070107D02*
X142645Y1070107D01*
X142645Y1072419D02*
X131555Y1072419D01*
X131555Y1074731D02*
X142645Y1074731D01*
X187555Y1056235D02*
X198645Y1056235D01*
X187555Y1056235D02*
X187555Y1075325D01*
X198645Y1075325D01*
X198645Y1056235D01*
X198645Y1058547D02*
X187555Y1058547D01*
X187555Y1060859D02*
X198645Y1060859D01*
X198645Y1063171D02*
X187555Y1063171D01*
X187555Y1065483D02*
X198645Y1065483D01*
X198645Y1067795D02*
X187555Y1067795D01*
X187555Y1070107D02*
X198645Y1070107D01*
X198645Y1072419D02*
X187555Y1072419D01*
X187555Y1074731D02*
X198645Y1074731D01*
D15*
X76383Y1034297D02*
X71417Y1034297D01*
X71417Y1048763D01*
X76383Y1048763D01*
X76383Y1034297D01*
X76383Y1036727D02*
X71417Y1036727D01*
X71417Y1039157D02*
X76383Y1039157D01*
X76383Y1041587D02*
X71417Y1041587D01*
X71417Y1044017D02*
X76383Y1044017D01*
X76383Y1046447D02*
X71417Y1046447D01*
X81417Y1034297D02*
X86383Y1034297D01*
X81417Y1034297D02*
X81417Y1048763D01*
X86383Y1048763D01*
X86383Y1034297D01*
X86383Y1036727D02*
X81417Y1036727D01*
X81417Y1039157D02*
X86383Y1039157D01*
X86383Y1041587D02*
X81417Y1041587D01*
X81417Y1044017D02*
X86383Y1044017D01*
X86383Y1046447D02*
X81417Y1046447D01*
X91417Y1034297D02*
X96383Y1034297D01*
X91417Y1034297D02*
X91417Y1048763D01*
X96383Y1048763D01*
X96383Y1034297D01*
X96383Y1036727D02*
X91417Y1036727D01*
X91417Y1039157D02*
X96383Y1039157D01*
X96383Y1041587D02*
X91417Y1041587D01*
X91417Y1044017D02*
X96383Y1044017D01*
X96383Y1046447D02*
X91417Y1046447D01*
X101417Y1034297D02*
X106383Y1034297D01*
X101417Y1034297D02*
X101417Y1048763D01*
X106383Y1048763D01*
X106383Y1034297D01*
X106383Y1036727D02*
X101417Y1036727D01*
X101417Y1039157D02*
X106383Y1039157D01*
X106383Y1041587D02*
X101417Y1041587D01*
X101417Y1044017D02*
X106383Y1044017D01*
X106383Y1046447D02*
X101417Y1046447D01*
D16*
X66445Y1056235D02*
X55355Y1056235D01*
X55355Y1075325D01*
X66445Y1075325D01*
X66445Y1056235D01*
X66445Y1058547D02*
X55355Y1058547D01*
X55355Y1060859D02*
X66445Y1060859D01*
X66445Y1063171D02*
X55355Y1063171D01*
X55355Y1065483D02*
X66445Y1065483D01*
X66445Y1067795D02*
X55355Y1067795D01*
X55355Y1070107D02*
X66445Y1070107D01*
X66445Y1072419D02*
X55355Y1072419D01*
X55355Y1074731D02*
X66445Y1074731D01*
X111355Y1056235D02*
X122445Y1056235D01*
X111355Y1056235D02*
X111355Y1075325D01*
X122445Y1075325D01*
X122445Y1056235D01*
X122445Y1058547D02*
X111355Y1058547D01*
X111355Y1060859D02*
X122445Y1060859D01*
X122445Y1063171D02*
X111355Y1063171D01*
X111355Y1065483D02*
X122445Y1065483D01*
X122445Y1067795D02*
X111355Y1067795D01*
X111355Y1070107D02*
X122445Y1070107D01*
X122445Y1072419D02*
X111355Y1072419D01*
X111355Y1074731D02*
X122445Y1074731D01*
D14*
X125145Y909625D02*
X125145Y899635D01*
X116155Y899635D01*
X116155Y909625D01*
X125145Y909625D01*
X125145Y902043D02*
X116155Y902043D01*
X116155Y904451D02*
X125145Y904451D01*
X125145Y906859D02*
X116155Y906859D01*
X116155Y909267D02*
X125145Y909267D01*
X125145Y916635D02*
X125145Y926625D01*
X125145Y916635D02*
X116155Y916635D01*
X116155Y926625D01*
X125145Y926625D01*
X125145Y919043D02*
X116155Y919043D01*
X116155Y921451D02*
X125145Y921451D01*
X125145Y923859D02*
X116155Y923859D01*
X116155Y926267D02*
X125145Y926267D01*
X509855Y850425D02*
X509855Y840435D01*
X509855Y850425D02*
X518845Y850425D01*
X518845Y840435D01*
X509855Y840435D01*
X509855Y842843D02*
X518845Y842843D01*
X518845Y845251D02*
X509855Y845251D01*
X509855Y847659D02*
X518845Y847659D01*
X518845Y850067D02*
X509855Y850067D01*
X509855Y833425D02*
X509855Y823435D01*
X509855Y833425D02*
X518845Y833425D01*
X518845Y823435D01*
X509855Y823435D01*
X509855Y825843D02*
X518845Y825843D01*
X518845Y828251D02*
X509855Y828251D01*
X509855Y830659D02*
X518845Y830659D01*
X518845Y833067D02*
X509855Y833067D01*
D21*
X158580Y900010D02*
X158580Y929050D01*
X171620Y929050D01*
X171620Y900010D01*
X158580Y900010D01*
X158580Y902370D02*
X171620Y902370D01*
X171620Y904730D02*
X158580Y904730D01*
X158580Y907090D02*
X171620Y907090D01*
X171620Y909450D02*
X158580Y909450D01*
X158580Y911810D02*
X171620Y911810D01*
X171620Y914170D02*
X158580Y914170D01*
X158580Y916530D02*
X171620Y916530D01*
X171620Y918890D02*
X158580Y918890D01*
X158580Y921250D02*
X171620Y921250D01*
X171620Y923610D02*
X158580Y923610D01*
X158580Y925970D02*
X171620Y925970D01*
X171620Y928330D02*
X158580Y928330D01*
X158580Y948010D02*
X158580Y977050D01*
X171620Y977050D01*
X171620Y948010D01*
X158580Y948010D01*
X158580Y950370D02*
X171620Y950370D01*
X171620Y952730D02*
X158580Y952730D01*
X158580Y955090D02*
X171620Y955090D01*
X171620Y957450D02*
X158580Y957450D01*
X158580Y959810D02*
X171620Y959810D01*
X171620Y962170D02*
X158580Y962170D01*
X158580Y964530D02*
X171620Y964530D01*
X171620Y966890D02*
X158580Y966890D01*
X158580Y969250D02*
X171620Y969250D01*
X171620Y971610D02*
X158580Y971610D01*
X158580Y973970D02*
X171620Y973970D01*
X171620Y976330D02*
X158580Y976330D01*
X501480Y929050D02*
X501480Y900010D01*
X501480Y929050D02*
X514520Y929050D01*
X514520Y900010D01*
X501480Y900010D01*
X501480Y902370D02*
X514520Y902370D01*
X514520Y904730D02*
X501480Y904730D01*
X501480Y907090D02*
X514520Y907090D01*
X514520Y909450D02*
X501480Y909450D01*
X501480Y911810D02*
X514520Y911810D01*
X514520Y914170D02*
X501480Y914170D01*
X501480Y916530D02*
X514520Y916530D01*
X514520Y918890D02*
X501480Y918890D01*
X501480Y921250D02*
X514520Y921250D01*
X514520Y923610D02*
X501480Y923610D01*
X501480Y925970D02*
X514520Y925970D01*
X514520Y928330D02*
X501480Y928330D01*
X501480Y948010D02*
X501480Y977050D01*
X514520Y977050D01*
X514520Y948010D01*
X501480Y948010D01*
X501480Y950370D02*
X514520Y950370D01*
X514520Y952730D02*
X501480Y952730D01*
X501480Y955090D02*
X514520Y955090D01*
X514520Y957450D02*
X501480Y957450D01*
X501480Y959810D02*
X514520Y959810D01*
X514520Y962170D02*
X501480Y962170D01*
X501480Y964530D02*
X514520Y964530D01*
X514520Y966890D02*
X501480Y966890D01*
X501480Y969250D02*
X514520Y969250D01*
X514520Y971610D02*
X501480Y971610D01*
X501480Y973970D02*
X514520Y973970D01*
X514520Y976330D02*
X501480Y976330D01*
D22*
X149700Y627380D02*
X129700Y627380D01*
X186690Y647860D02*
X186690Y667860D01*
D23*
X151200Y687070D02*
X128200Y687070D01*
D14*
X499795Y759935D02*
X499795Y769925D01*
X499795Y759935D02*
X490805Y759935D01*
X490805Y769925D01*
X499795Y769925D01*
X499795Y762343D02*
X490805Y762343D01*
X490805Y764751D02*
X499795Y764751D01*
X499795Y767159D02*
X490805Y767159D01*
X490805Y769567D02*
X499795Y769567D01*
X499795Y776935D02*
X499795Y786925D01*
X499795Y776935D02*
X490805Y776935D01*
X490805Y786925D01*
X499795Y786925D01*
X499795Y779343D02*
X490805Y779343D01*
X490805Y781751D02*
X499795Y781751D01*
X499795Y784159D02*
X490805Y784159D01*
X490805Y786567D02*
X499795Y786567D01*
X471755Y840435D02*
X471755Y850425D01*
X480745Y850425D01*
X480745Y840435D01*
X471755Y840435D01*
X471755Y842843D02*
X480745Y842843D01*
X480745Y845251D02*
X471755Y845251D01*
X471755Y847659D02*
X480745Y847659D01*
X480745Y850067D02*
X471755Y850067D01*
X471755Y833425D02*
X471755Y823435D01*
X471755Y833425D02*
X480745Y833425D01*
X480745Y823435D01*
X471755Y823435D01*
X471755Y825843D02*
X480745Y825843D01*
X480745Y828251D02*
X471755Y828251D01*
X471755Y830659D02*
X480745Y830659D01*
X480745Y833067D02*
X471755Y833067D01*
X499795Y833425D02*
X499795Y823435D01*
X490805Y823435D01*
X490805Y833425D01*
X499795Y833425D01*
X499795Y825843D02*
X490805Y825843D01*
X490805Y828251D02*
X499795Y828251D01*
X499795Y830659D02*
X490805Y830659D01*
X490805Y833067D02*
X499795Y833067D01*
X499795Y840435D02*
X499795Y850425D01*
X499795Y840435D02*
X490805Y840435D01*
X490805Y850425D01*
X499795Y850425D01*
X499795Y842843D02*
X490805Y842843D01*
X490805Y845251D02*
X499795Y845251D01*
X499795Y847659D02*
X490805Y847659D01*
X490805Y850067D02*
X499795Y850067D01*
X483395Y733475D02*
X473405Y733475D01*
X483395Y733475D02*
X483395Y724485D01*
X473405Y724485D01*
X473405Y733475D01*
X473405Y726893D02*
X483395Y726893D01*
X483395Y729301D02*
X473405Y729301D01*
X473405Y731709D02*
X483395Y731709D01*
X466395Y733475D02*
X456405Y733475D01*
X466395Y733475D02*
X466395Y724485D01*
X456405Y724485D01*
X456405Y733475D01*
X456405Y726893D02*
X466395Y726893D01*
X466395Y729301D02*
X456405Y729301D01*
X456405Y731709D02*
X466395Y731709D01*
X106095Y899635D02*
X106095Y909625D01*
X106095Y899635D02*
X97105Y899635D01*
X97105Y909625D01*
X106095Y909625D01*
X106095Y902043D02*
X97105Y902043D01*
X97105Y904451D02*
X106095Y904451D01*
X106095Y906859D02*
X97105Y906859D01*
X97105Y909267D02*
X106095Y909267D01*
X106095Y916635D02*
X106095Y926625D01*
X106095Y916635D02*
X97105Y916635D01*
X97105Y926625D01*
X106095Y926625D01*
X106095Y919043D02*
X97105Y919043D01*
X97105Y921451D02*
X106095Y921451D01*
X106095Y923859D02*
X97105Y923859D01*
X97105Y926267D02*
X106095Y926267D01*
X528905Y850425D02*
X528905Y840435D01*
X528905Y850425D02*
X537895Y850425D01*
X537895Y840435D01*
X528905Y840435D01*
X528905Y842843D02*
X537895Y842843D01*
X537895Y845251D02*
X528905Y845251D01*
X528905Y847659D02*
X537895Y847659D01*
X537895Y850067D02*
X528905Y850067D01*
X528905Y833425D02*
X528905Y823435D01*
X528905Y833425D02*
X537895Y833425D01*
X537895Y823435D01*
X528905Y823435D01*
X528905Y825843D02*
X537895Y825843D01*
X537895Y828251D02*
X528905Y828251D01*
X528905Y830659D02*
X537895Y830659D01*
X537895Y833067D02*
X528905Y833067D01*
D24*
X559950Y588880D03*
D25*
X560950Y599380D03*
X560950Y603880D03*
X560950Y608380D03*
X543950Y599380D03*
X543950Y603880D03*
X543950Y608380D03*
D24*
X544950Y588880D03*
D26*
X552450Y587780D03*
D27*
X557973Y569357D02*
X564927Y569357D01*
X564927Y558403D01*
X557973Y558403D01*
X557973Y569357D01*
X557973Y560845D02*
X564927Y560845D01*
X564927Y563287D02*
X557973Y563287D01*
X557973Y565729D02*
X564927Y565729D01*
X564927Y568171D02*
X557973Y568171D01*
X546927Y569357D02*
X539973Y569357D01*
X546927Y569357D02*
X546927Y558403D01*
X539973Y558403D01*
X539973Y569357D01*
X539973Y560845D02*
X546927Y560845D01*
X546927Y563287D02*
X539973Y563287D01*
X539973Y565729D02*
X546927Y565729D01*
X546927Y568171D02*
X539973Y568171D01*
D14*
X522555Y599135D02*
X522555Y609125D01*
X531545Y609125D01*
X531545Y599135D01*
X522555Y599135D01*
X522555Y601543D02*
X531545Y601543D01*
X531545Y603951D02*
X522555Y603951D01*
X522555Y606359D02*
X531545Y606359D01*
X531545Y608767D02*
X522555Y608767D01*
X522555Y592125D02*
X522555Y582135D01*
X522555Y592125D02*
X531545Y592125D01*
X531545Y582135D01*
X522555Y582135D01*
X522555Y584543D02*
X531545Y584543D01*
X531545Y586951D02*
X522555Y586951D01*
X522555Y589359D02*
X531545Y589359D01*
X531545Y591767D02*
X522555Y591767D01*
D28*
X493311Y583041D02*
X493311Y565419D01*
X459189Y565419D01*
X459189Y583041D01*
X493311Y583041D01*
X493311Y567702D02*
X459189Y567702D01*
X459189Y569985D02*
X493311Y569985D01*
X493311Y572268D02*
X459189Y572268D01*
X459189Y574551D02*
X493311Y574551D01*
X493311Y576834D02*
X459189Y576834D01*
X459189Y579117D02*
X493311Y579117D01*
X493311Y581400D02*
X459189Y581400D01*
X493311Y620919D02*
X493311Y638541D01*
X493311Y620919D02*
X459189Y620919D01*
X459189Y638541D01*
X493311Y638541D01*
X493311Y623202D02*
X459189Y623202D01*
X459189Y625485D02*
X493311Y625485D01*
X493311Y627768D02*
X459189Y627768D01*
X459189Y630051D02*
X493311Y630051D01*
X493311Y632334D02*
X459189Y632334D01*
X459189Y634617D02*
X493311Y634617D01*
X493311Y636900D02*
X459189Y636900D01*
D14*
X519905Y616535D02*
X529895Y616535D01*
X519905Y616535D02*
X519905Y625525D01*
X529895Y625525D01*
X529895Y616535D01*
X529895Y618943D02*
X519905Y618943D01*
X519905Y621351D02*
X529895Y621351D01*
X529895Y623759D02*
X519905Y623759D01*
X536905Y616535D02*
X546895Y616535D01*
X536905Y616535D02*
X536905Y625525D01*
X546895Y625525D01*
X546895Y616535D01*
X546895Y618943D02*
X536905Y618943D01*
X536905Y621351D02*
X546895Y621351D01*
X546895Y623759D02*
X536905Y623759D01*
D27*
X489777Y647303D02*
X482823Y647303D01*
X482823Y658257D01*
X489777Y658257D01*
X489777Y647303D01*
X489777Y649745D02*
X482823Y649745D01*
X482823Y652187D02*
X489777Y652187D01*
X489777Y654629D02*
X482823Y654629D01*
X482823Y657071D02*
X489777Y657071D01*
X500823Y647303D02*
X507777Y647303D01*
X500823Y647303D02*
X500823Y658257D01*
X507777Y658257D01*
X507777Y647303D01*
X507777Y649745D02*
X500823Y649745D01*
X500823Y652187D02*
X507777Y652187D01*
X507777Y654629D02*
X500823Y654629D01*
X500823Y657071D02*
X507777Y657071D01*
X469677Y658257D02*
X462723Y658257D01*
X469677Y658257D02*
X469677Y647303D01*
X462723Y647303D01*
X462723Y658257D01*
X462723Y649745D02*
X469677Y649745D01*
X469677Y652187D02*
X462723Y652187D01*
X462723Y654629D02*
X469677Y654629D01*
X469677Y657071D02*
X462723Y657071D01*
X451677Y658257D02*
X444723Y658257D01*
X451677Y658257D02*
X451677Y647303D01*
X444723Y647303D01*
X444723Y658257D01*
X444723Y649745D02*
X451677Y649745D01*
X451677Y652187D02*
X444723Y652187D01*
X444723Y654629D02*
X451677Y654629D01*
X451677Y657071D02*
X444723Y657071D01*
D14*
X536905Y644575D02*
X546895Y644575D01*
X546895Y635585D01*
X536905Y635585D01*
X536905Y644575D01*
X536905Y637993D02*
X546895Y637993D01*
X546895Y640401D02*
X536905Y640401D01*
X536905Y642809D02*
X546895Y642809D01*
X529895Y644575D02*
X519905Y644575D01*
X529895Y644575D02*
X529895Y635585D01*
X519905Y635585D01*
X519905Y644575D01*
X519905Y637993D02*
X529895Y637993D01*
X529895Y640401D02*
X519905Y640401D01*
X519905Y642809D02*
X529895Y642809D01*
X575005Y625525D02*
X584995Y625525D01*
X584995Y616535D01*
X575005Y616535D01*
X575005Y625525D01*
X575005Y618943D02*
X584995Y618943D01*
X584995Y621351D02*
X575005Y621351D01*
X575005Y623759D02*
X584995Y623759D01*
X567995Y625525D02*
X558005Y625525D01*
X567995Y625525D02*
X567995Y616535D01*
X558005Y616535D01*
X558005Y625525D01*
X558005Y618943D02*
X567995Y618943D01*
X567995Y621351D02*
X558005Y621351D01*
X558005Y623759D02*
X567995Y623759D01*
D27*
X159027Y749307D02*
X152073Y749307D01*
X159027Y749307D02*
X159027Y741353D01*
X152073Y741353D01*
X152073Y749307D01*
X152073Y743795D02*
X159027Y743795D01*
X159027Y746237D02*
X152073Y746237D01*
X152073Y748679D02*
X159027Y748679D01*
X140027Y749307D02*
X133073Y749307D01*
X140027Y749307D02*
X140027Y741353D01*
X133073Y741353D01*
X133073Y749307D01*
X133073Y743795D02*
X140027Y743795D01*
X140027Y746237D02*
X133073Y746237D01*
X133073Y748679D02*
X140027Y748679D01*
X142573Y728307D02*
X149527Y728307D01*
X149527Y720353D01*
X142573Y720353D01*
X142573Y728307D01*
X142573Y722795D02*
X149527Y722795D01*
X149527Y725237D02*
X142573Y725237D01*
X142573Y727679D02*
X149527Y727679D01*
X120927Y749307D02*
X113973Y749307D01*
X120927Y749307D02*
X120927Y741353D01*
X113973Y741353D01*
X113973Y749307D01*
X113973Y743795D02*
X120927Y743795D01*
X120927Y746237D02*
X113973Y746237D01*
X113973Y748679D02*
X120927Y748679D01*
X101927Y749307D02*
X94973Y749307D01*
X101927Y749307D02*
X101927Y741353D01*
X94973Y741353D01*
X94973Y749307D01*
X94973Y743795D02*
X101927Y743795D01*
X101927Y746237D02*
X94973Y746237D01*
X94973Y748679D02*
X101927Y748679D01*
X104473Y728307D02*
X111427Y728307D01*
X111427Y720353D01*
X104473Y720353D01*
X104473Y728307D01*
X104473Y722795D02*
X111427Y722795D01*
X111427Y725237D02*
X104473Y725237D01*
X104473Y727679D02*
X111427Y727679D01*
D14*
X135205Y802335D02*
X135205Y812325D01*
X144195Y812325D01*
X144195Y802335D01*
X135205Y802335D01*
X135205Y804743D02*
X144195Y804743D01*
X144195Y807151D02*
X135205Y807151D01*
X135205Y809559D02*
X144195Y809559D01*
X144195Y811967D02*
X135205Y811967D01*
X135205Y795325D02*
X135205Y785335D01*
X135205Y795325D02*
X144195Y795325D01*
X144195Y785335D01*
X135205Y785335D01*
X135205Y787743D02*
X144195Y787743D01*
X144195Y790151D02*
X135205Y790151D01*
X135205Y792559D02*
X144195Y792559D01*
X144195Y794967D02*
X135205Y794967D01*
X97105Y802335D02*
X97105Y812325D01*
X106095Y812325D01*
X106095Y802335D01*
X97105Y802335D01*
X97105Y804743D02*
X106095Y804743D01*
X106095Y807151D02*
X97105Y807151D01*
X97105Y809559D02*
X106095Y809559D01*
X106095Y811967D02*
X97105Y811967D01*
X97105Y795325D02*
X97105Y785335D01*
X97105Y795325D02*
X106095Y795325D01*
X106095Y785335D01*
X97105Y785335D01*
X97105Y787743D02*
X106095Y787743D01*
X106095Y790151D02*
X97105Y790151D01*
X97105Y792559D02*
X106095Y792559D01*
X106095Y794967D02*
X97105Y794967D01*
X154255Y802335D02*
X154255Y812325D01*
X163245Y812325D01*
X163245Y802335D01*
X154255Y802335D01*
X154255Y804743D02*
X163245Y804743D01*
X163245Y807151D02*
X154255Y807151D01*
X154255Y809559D02*
X163245Y809559D01*
X163245Y811967D02*
X154255Y811967D01*
X154255Y795325D02*
X154255Y785335D01*
X154255Y795325D02*
X163245Y795325D01*
X163245Y785335D01*
X154255Y785335D01*
X154255Y787743D02*
X163245Y787743D01*
X163245Y790151D02*
X154255Y790151D01*
X154255Y792559D02*
X163245Y792559D01*
X163245Y794967D02*
X154255Y794967D01*
X116155Y802335D02*
X116155Y812325D01*
X125145Y812325D01*
X125145Y802335D01*
X116155Y802335D01*
X116155Y804743D02*
X125145Y804743D01*
X125145Y807151D02*
X116155Y807151D01*
X116155Y809559D02*
X125145Y809559D01*
X125145Y811967D02*
X116155Y811967D01*
X116155Y795325D02*
X116155Y785335D01*
X116155Y795325D02*
X125145Y795325D01*
X125145Y785335D01*
X116155Y785335D01*
X116155Y787743D02*
X125145Y787743D01*
X125145Y790151D02*
X116155Y790151D01*
X116155Y792559D02*
X125145Y792559D01*
X125145Y794967D02*
X116155Y794967D01*
D29*
X138058Y755588D02*
X141042Y755588D01*
X138058Y755588D02*
X138058Y762572D01*
X141042Y762572D01*
X141042Y755588D01*
X141042Y758002D02*
X138058Y758002D01*
X138058Y760416D02*
X141042Y760416D01*
X144558Y755588D02*
X147542Y755588D01*
X144558Y755588D02*
X144558Y762572D01*
X147542Y762572D01*
X147542Y755588D01*
X147542Y758002D02*
X144558Y758002D01*
X144558Y760416D02*
X147542Y760416D01*
X151058Y755588D02*
X154042Y755588D01*
X151058Y755588D02*
X151058Y762572D01*
X154042Y762572D01*
X154042Y755588D01*
X154042Y758002D02*
X151058Y758002D01*
X151058Y760416D02*
X154042Y760416D01*
X154042Y771588D02*
X151058Y771588D01*
X151058Y778572D01*
X154042Y778572D01*
X154042Y771588D01*
X154042Y774002D02*
X151058Y774002D01*
X151058Y776416D02*
X154042Y776416D01*
X147542Y771588D02*
X144558Y771588D01*
X144558Y778572D01*
X147542Y778572D01*
X147542Y771588D01*
X147542Y774002D02*
X144558Y774002D01*
X144558Y776416D02*
X147542Y776416D01*
X141042Y771588D02*
X138058Y771588D01*
X138058Y778572D01*
X141042Y778572D01*
X141042Y771588D01*
X141042Y774002D02*
X138058Y774002D01*
X138058Y776416D02*
X141042Y776416D01*
X102942Y755588D02*
X99958Y755588D01*
X99958Y762572D01*
X102942Y762572D01*
X102942Y755588D01*
X102942Y758002D02*
X99958Y758002D01*
X99958Y760416D02*
X102942Y760416D01*
X106458Y755588D02*
X109442Y755588D01*
X106458Y755588D02*
X106458Y762572D01*
X109442Y762572D01*
X109442Y755588D01*
X109442Y758002D02*
X106458Y758002D01*
X106458Y760416D02*
X109442Y760416D01*
X112958Y755588D02*
X115942Y755588D01*
X112958Y755588D02*
X112958Y762572D01*
X115942Y762572D01*
X115942Y755588D01*
X115942Y758002D02*
X112958Y758002D01*
X112958Y760416D02*
X115942Y760416D01*
X115942Y771588D02*
X112958Y771588D01*
X112958Y778572D01*
X115942Y778572D01*
X115942Y771588D01*
X115942Y774002D02*
X112958Y774002D01*
X112958Y776416D02*
X115942Y776416D01*
X109442Y771588D02*
X106458Y771588D01*
X106458Y778572D01*
X109442Y778572D01*
X109442Y771588D01*
X109442Y774002D02*
X106458Y774002D01*
X106458Y776416D02*
X109442Y776416D01*
X102942Y771588D02*
X99958Y771588D01*
X99958Y778572D01*
X102942Y778572D01*
X102942Y771588D01*
X102942Y774002D02*
X99958Y774002D01*
X99958Y776416D02*
X102942Y776416D01*
D14*
X72695Y669875D02*
X62705Y669875D01*
X62705Y678865D01*
X72695Y678865D01*
X72695Y669875D01*
X72695Y672283D02*
X62705Y672283D01*
X62705Y674691D02*
X72695Y674691D01*
X72695Y677099D02*
X62705Y677099D01*
X79705Y669875D02*
X89695Y669875D01*
X79705Y669875D02*
X79705Y678865D01*
X89695Y678865D01*
X89695Y669875D01*
X89695Y672283D02*
X79705Y672283D01*
X79705Y674691D02*
X89695Y674691D01*
X89695Y677099D02*
X79705Y677099D01*
D27*
X90177Y627707D02*
X90177Y620753D01*
X82223Y620753D01*
X82223Y627707D01*
X90177Y627707D01*
X90177Y623195D02*
X82223Y623195D01*
X82223Y625637D02*
X90177Y625637D01*
X90177Y639753D02*
X90177Y646707D01*
X90177Y639753D02*
X82223Y639753D01*
X82223Y646707D01*
X90177Y646707D01*
X90177Y642195D02*
X82223Y642195D01*
X82223Y644637D02*
X90177Y644637D01*
X69177Y637207D02*
X69177Y630253D01*
X61223Y630253D01*
X61223Y637207D01*
X69177Y637207D01*
X69177Y632695D02*
X61223Y632695D01*
X61223Y635137D02*
X69177Y635137D01*
D30*
X42266Y626914D02*
X42266Y620946D01*
X42266Y626914D02*
X56234Y626914D01*
X56234Y620946D01*
X42266Y620946D01*
X42266Y623375D02*
X56234Y623375D01*
X56234Y625804D02*
X42266Y625804D01*
X42266Y635946D02*
X42266Y641914D01*
X56234Y641914D01*
X56234Y635946D01*
X42266Y635946D01*
X42266Y638375D02*
X56234Y638375D01*
X56234Y640804D02*
X42266Y640804D01*
X42266Y665946D02*
X42266Y671914D01*
X56234Y671914D01*
X56234Y665946D01*
X42266Y665946D01*
X42266Y668375D02*
X56234Y668375D01*
X56234Y670804D02*
X42266Y670804D01*
D15*
X24233Y614413D02*
X24233Y605447D01*
X19267Y605447D01*
X19267Y614413D01*
X24233Y614413D01*
X24233Y607877D02*
X19267Y607877D01*
X19267Y610307D02*
X24233Y610307D01*
X24233Y612737D02*
X19267Y612737D01*
D27*
X46227Y614407D02*
X46227Y605453D01*
X39273Y605453D01*
X39273Y614407D01*
X46227Y614407D01*
X46227Y607895D02*
X39273Y607895D01*
X39273Y610337D02*
X46227Y610337D01*
X46227Y612779D02*
X39273Y612779D01*
D15*
X24233Y678447D02*
X24233Y687413D01*
X24233Y678447D02*
X19267Y678447D01*
X19267Y687413D01*
X24233Y687413D01*
X24233Y680877D02*
X19267Y680877D01*
X19267Y683307D02*
X24233Y683307D01*
X24233Y685737D02*
X19267Y685737D01*
D27*
X46227Y687407D02*
X46227Y678453D01*
X39273Y678453D01*
X39273Y687407D01*
X46227Y687407D01*
X46227Y680895D02*
X39273Y680895D01*
X39273Y683337D02*
X46227Y683337D01*
X46227Y685779D02*
X39273Y685779D01*
D31*
X31750Y631430D03*
X31750Y661430D03*
D14*
X62705Y653365D02*
X72695Y653365D01*
X62705Y653365D02*
X62705Y662355D01*
X72695Y662355D01*
X72695Y653365D01*
X72695Y655773D02*
X62705Y655773D01*
X62705Y658181D02*
X72695Y658181D01*
X72695Y660589D02*
X62705Y660589D01*
X79705Y653365D02*
X89695Y653365D01*
X79705Y653365D02*
X79705Y662355D01*
X89695Y662355D01*
X89695Y653365D01*
X89695Y655773D02*
X79705Y655773D01*
X79705Y658181D02*
X89695Y658181D01*
X89695Y660589D02*
X79705Y660589D01*
D27*
X190173Y749307D02*
X197127Y749307D01*
X197127Y741353D01*
X190173Y741353D01*
X190173Y749307D01*
X190173Y743795D02*
X197127Y743795D01*
X197127Y746237D02*
X190173Y746237D01*
X190173Y748679D02*
X197127Y748679D01*
X178127Y749307D02*
X171173Y749307D01*
X178127Y749307D02*
X178127Y741353D01*
X171173Y741353D01*
X171173Y749307D01*
X171173Y743795D02*
X178127Y743795D01*
X178127Y746237D02*
X171173Y746237D01*
X171173Y748679D02*
X178127Y748679D01*
X180673Y728307D02*
X187627Y728307D01*
X187627Y720353D01*
X180673Y720353D01*
X180673Y728307D01*
X180673Y722795D02*
X187627Y722795D01*
X187627Y725237D02*
X180673Y725237D01*
X180673Y727679D02*
X187627Y727679D01*
D14*
X173305Y802335D02*
X173305Y812325D01*
X182295Y812325D01*
X182295Y802335D01*
X173305Y802335D01*
X173305Y804743D02*
X182295Y804743D01*
X182295Y807151D02*
X173305Y807151D01*
X173305Y809559D02*
X182295Y809559D01*
X182295Y811967D02*
X173305Y811967D01*
X173305Y795325D02*
X173305Y785335D01*
X173305Y795325D02*
X182295Y795325D01*
X182295Y785335D01*
X173305Y785335D01*
X173305Y787743D02*
X182295Y787743D01*
X182295Y790151D02*
X173305Y790151D01*
X173305Y792559D02*
X182295Y792559D01*
X182295Y794967D02*
X173305Y794967D01*
X173305Y840435D02*
X173305Y850425D01*
X182295Y850425D01*
X182295Y840435D01*
X173305Y840435D01*
X173305Y842843D02*
X182295Y842843D01*
X182295Y845251D02*
X173305Y845251D01*
X173305Y847659D02*
X182295Y847659D01*
X182295Y850067D02*
X173305Y850067D01*
X173305Y833425D02*
X173305Y823435D01*
X173305Y833425D02*
X182295Y833425D01*
X182295Y823435D01*
X173305Y823435D01*
X173305Y825843D02*
X182295Y825843D01*
X182295Y828251D02*
X173305Y828251D01*
X173305Y830659D02*
X182295Y830659D01*
X182295Y833067D02*
X173305Y833067D01*
D29*
X176158Y755588D02*
X179142Y755588D01*
X176158Y755588D02*
X176158Y762572D01*
X179142Y762572D01*
X179142Y755588D01*
X179142Y758002D02*
X176158Y758002D01*
X176158Y760416D02*
X179142Y760416D01*
X182658Y755588D02*
X185642Y755588D01*
X182658Y755588D02*
X182658Y762572D01*
X185642Y762572D01*
X185642Y755588D01*
X185642Y758002D02*
X182658Y758002D01*
X182658Y760416D02*
X185642Y760416D01*
X189158Y755588D02*
X192142Y755588D01*
X189158Y755588D02*
X189158Y762572D01*
X192142Y762572D01*
X192142Y755588D01*
X192142Y758002D02*
X189158Y758002D01*
X189158Y760416D02*
X192142Y760416D01*
X192142Y771588D02*
X189158Y771588D01*
X189158Y778572D01*
X192142Y778572D01*
X192142Y771588D01*
X192142Y774002D02*
X189158Y774002D01*
X189158Y776416D02*
X192142Y776416D01*
X185642Y771588D02*
X182658Y771588D01*
X182658Y778572D01*
X185642Y778572D01*
X185642Y771588D01*
X185642Y774002D02*
X182658Y774002D01*
X182658Y776416D02*
X185642Y776416D01*
X179142Y771588D02*
X176158Y771588D01*
X176158Y778572D01*
X179142Y778572D01*
X179142Y771588D01*
X179142Y774002D02*
X176158Y774002D01*
X176158Y776416D02*
X179142Y776416D01*
D14*
X163245Y823435D02*
X163245Y833425D01*
X163245Y823435D02*
X154255Y823435D01*
X154255Y833425D01*
X163245Y833425D01*
X163245Y825843D02*
X154255Y825843D01*
X154255Y828251D02*
X163245Y828251D01*
X163245Y830659D02*
X154255Y830659D01*
X154255Y833067D02*
X163245Y833067D01*
X163245Y840435D02*
X163245Y850425D01*
X163245Y840435D02*
X154255Y840435D01*
X154255Y850425D01*
X163245Y850425D01*
X163245Y842843D02*
X154255Y842843D01*
X154255Y845251D02*
X163245Y845251D01*
X163245Y847659D02*
X154255Y847659D01*
X154255Y850067D02*
X163245Y850067D01*
X182295Y861535D02*
X182295Y871525D01*
X182295Y861535D02*
X173305Y861535D01*
X173305Y871525D01*
X182295Y871525D01*
X182295Y863943D02*
X173305Y863943D01*
X173305Y866351D02*
X182295Y866351D01*
X182295Y868759D02*
X173305Y868759D01*
X173305Y871167D02*
X182295Y871167D01*
X182295Y878535D02*
X182295Y888525D01*
X182295Y878535D02*
X173305Y878535D01*
X173305Y888525D01*
X182295Y888525D01*
X182295Y880943D02*
X173305Y880943D01*
X173305Y883351D02*
X182295Y883351D01*
X182295Y885759D02*
X173305Y885759D01*
X173305Y888167D02*
X182295Y888167D01*
X116155Y967435D02*
X116155Y977425D01*
X125145Y977425D01*
X125145Y967435D01*
X116155Y967435D01*
X116155Y969843D02*
X125145Y969843D01*
X125145Y972251D02*
X116155Y972251D01*
X116155Y974659D02*
X125145Y974659D01*
X125145Y977067D02*
X116155Y977067D01*
X116155Y960425D02*
X116155Y950435D01*
X116155Y960425D02*
X125145Y960425D01*
X125145Y950435D01*
X116155Y950435D01*
X116155Y952843D02*
X125145Y952843D01*
X125145Y955251D02*
X116155Y955251D01*
X116155Y957659D02*
X125145Y957659D01*
X125145Y960067D02*
X116155Y960067D01*
D12*
X41601Y977531D02*
X41601Y985529D01*
X50599Y985529D01*
X50599Y977531D01*
X41601Y977531D01*
X41601Y979931D02*
X50599Y979931D01*
X50599Y982331D02*
X41601Y982331D01*
X41601Y984731D02*
X50599Y984731D01*
X25601Y985529D02*
X25601Y977531D01*
X25601Y985529D02*
X34599Y985529D01*
X34599Y977531D01*
X25601Y977531D01*
X25601Y979931D02*
X34599Y979931D01*
X34599Y982331D02*
X25601Y982331D01*
X25601Y984731D02*
X34599Y984731D01*
X25601Y1018531D02*
X25601Y1026529D01*
X34599Y1026529D01*
X34599Y1018531D01*
X25601Y1018531D01*
X25601Y1020931D02*
X34599Y1020931D01*
X34599Y1023331D02*
X25601Y1023331D01*
X25601Y1025731D02*
X34599Y1025731D01*
X41601Y1026529D02*
X41601Y1018531D01*
X41601Y1026529D02*
X50599Y1026529D01*
X50599Y1018531D01*
X41601Y1018531D01*
X41601Y1020931D02*
X50599Y1020931D01*
X50599Y1023331D02*
X41601Y1023331D01*
X41601Y1025731D02*
X50599Y1025731D01*
D14*
X62705Y972135D02*
X72695Y972135D01*
X62705Y972135D02*
X62705Y981125D01*
X72695Y981125D01*
X72695Y972135D01*
X72695Y974543D02*
X62705Y974543D01*
X62705Y976951D02*
X72695Y976951D01*
X72695Y979359D02*
X62705Y979359D01*
X79705Y972135D02*
X89695Y972135D01*
X79705Y972135D02*
X79705Y981125D01*
X89695Y981125D01*
X89695Y972135D01*
X89695Y974543D02*
X79705Y974543D01*
X79705Y976951D02*
X89695Y976951D01*
X89695Y979359D02*
X79705Y979359D01*
X97105Y977425D02*
X97105Y967435D01*
X97105Y977425D02*
X106095Y977425D01*
X106095Y967435D01*
X97105Y967435D01*
X97105Y969843D02*
X106095Y969843D01*
X106095Y972251D02*
X97105Y972251D01*
X97105Y974659D02*
X106095Y974659D01*
X106095Y977067D02*
X97105Y977067D01*
X97105Y960425D02*
X97105Y950435D01*
X97105Y960425D02*
X106095Y960425D01*
X106095Y950435D01*
X97105Y950435D01*
X97105Y952843D02*
X106095Y952843D01*
X106095Y955251D02*
X97105Y955251D01*
X97105Y957659D02*
X106095Y957659D01*
X106095Y960067D02*
X97105Y960067D01*
D32*
X71474Y777186D02*
X71474Y762114D01*
X71474Y777186D02*
X88546Y777186D01*
X88546Y762114D01*
X71474Y762114D01*
X71474Y764444D02*
X88546Y764444D01*
X88546Y766774D02*
X71474Y766774D01*
X71474Y769104D02*
X88546Y769104D01*
X88546Y771434D02*
X71474Y771434D01*
X71474Y773764D02*
X88546Y773764D01*
X88546Y776094D02*
X71474Y776094D01*
X71474Y749186D02*
X71474Y734114D01*
X71474Y749186D02*
X88546Y749186D01*
X88546Y734114D01*
X71474Y734114D01*
X71474Y736444D02*
X88546Y736444D01*
X88546Y738774D02*
X71474Y738774D01*
X71474Y741104D02*
X88546Y741104D01*
X88546Y743434D02*
X71474Y743434D01*
X71474Y745764D02*
X88546Y745764D01*
X88546Y748094D02*
X71474Y748094D01*
X88546Y699656D02*
X88546Y684584D01*
X71474Y684584D01*
X71474Y699656D01*
X88546Y699656D01*
X88546Y686914D02*
X71474Y686914D01*
X71474Y689244D02*
X88546Y689244D01*
X88546Y691574D02*
X71474Y691574D01*
X71474Y693904D02*
X88546Y693904D01*
X88546Y696234D02*
X71474Y696234D01*
X71474Y698564D02*
X88546Y698564D01*
X88546Y712584D02*
X88546Y727656D01*
X88546Y712584D02*
X71474Y712584D01*
X71474Y727656D01*
X88546Y727656D01*
X88546Y714914D02*
X71474Y714914D01*
X71474Y717244D02*
X88546Y717244D01*
X88546Y719574D02*
X71474Y719574D01*
X71474Y721904D02*
X88546Y721904D01*
X88546Y724234D02*
X71474Y724234D01*
X71474Y726564D02*
X88546Y726564D01*
X398864Y584116D02*
X429936Y584116D01*
X429936Y569044D01*
X398864Y569044D01*
X398864Y584116D01*
X398864Y571374D02*
X429936Y571374D01*
X429936Y573704D02*
X398864Y573704D01*
X398864Y576034D02*
X429936Y576034D01*
X429936Y578364D02*
X398864Y578364D01*
X398864Y580694D02*
X429936Y580694D01*
X429936Y583024D02*
X398864Y583024D01*
X398864Y609516D02*
X429936Y609516D01*
X429936Y594444D01*
X398864Y594444D01*
X398864Y609516D01*
X398864Y596774D02*
X429936Y596774D01*
X429936Y599104D02*
X398864Y599104D01*
X398864Y601434D02*
X429936Y601434D01*
X429936Y603764D02*
X398864Y603764D01*
X398864Y606094D02*
X429936Y606094D01*
X429936Y608424D02*
X398864Y608424D01*
X398864Y634916D02*
X429936Y634916D01*
X429936Y619844D01*
X398864Y619844D01*
X398864Y634916D01*
X398864Y622174D02*
X429936Y622174D01*
X429936Y624504D02*
X398864Y624504D01*
X398864Y626834D02*
X429936Y626834D01*
X429936Y629164D02*
X398864Y629164D01*
X398864Y631494D02*
X429936Y631494D01*
X429936Y633824D02*
X398864Y633824D01*
X398864Y660316D02*
X429936Y660316D01*
X429936Y645244D01*
X398864Y645244D01*
X398864Y660316D01*
X398864Y647574D02*
X429936Y647574D01*
X429936Y649904D02*
X398864Y649904D01*
X398864Y652234D02*
X429936Y652234D01*
X429936Y654564D02*
X398864Y654564D01*
X398864Y656894D02*
X429936Y656894D01*
X429936Y659224D02*
X398864Y659224D01*
X398864Y685716D02*
X429936Y685716D01*
X429936Y670644D01*
X398864Y670644D01*
X398864Y685716D01*
X398864Y672974D02*
X429936Y672974D01*
X429936Y675304D02*
X398864Y675304D01*
X398864Y677634D02*
X429936Y677634D01*
X429936Y679964D02*
X398864Y679964D01*
X398864Y682294D02*
X429936Y682294D01*
X429936Y684624D02*
X398864Y684624D01*
X398864Y711116D02*
X429936Y711116D01*
X429936Y696044D01*
X398864Y696044D01*
X398864Y711116D01*
X398864Y698374D02*
X429936Y698374D01*
X429936Y700704D02*
X398864Y700704D01*
X398864Y703034D02*
X429936Y703034D01*
X429936Y705364D02*
X398864Y705364D01*
X398864Y707694D02*
X429936Y707694D01*
X429936Y710024D02*
X398864Y710024D01*
X398864Y736516D02*
X429936Y736516D01*
X429936Y721444D01*
X398864Y721444D01*
X398864Y736516D01*
X398864Y723774D02*
X429936Y723774D01*
X429936Y726104D02*
X398864Y726104D01*
X398864Y728434D02*
X429936Y728434D01*
X429936Y730764D02*
X398864Y730764D01*
X398864Y733094D02*
X429936Y733094D01*
X429936Y735424D02*
X398864Y735424D01*
X398864Y761916D02*
X429936Y761916D01*
X429936Y746844D01*
X398864Y746844D01*
X398864Y761916D01*
X398864Y749174D02*
X429936Y749174D01*
X429936Y751504D02*
X398864Y751504D01*
X398864Y753834D02*
X429936Y753834D01*
X429936Y756164D02*
X398864Y756164D01*
X398864Y758494D02*
X429936Y758494D01*
X429936Y760824D02*
X398864Y760824D01*
X398864Y787316D02*
X429936Y787316D01*
X429936Y772244D01*
X398864Y772244D01*
X398864Y787316D01*
X398864Y774574D02*
X429936Y774574D01*
X429936Y776904D02*
X398864Y776904D01*
X398864Y779234D02*
X429936Y779234D01*
X429936Y781564D02*
X398864Y781564D01*
X398864Y783894D02*
X429936Y783894D01*
X429936Y786224D02*
X398864Y786224D01*
X398864Y812716D02*
X429936Y812716D01*
X429936Y797644D01*
X398864Y797644D01*
X398864Y812716D01*
X398864Y799974D02*
X429936Y799974D01*
X429936Y802304D02*
X398864Y802304D01*
X398864Y804634D02*
X429936Y804634D01*
X429936Y806964D02*
X398864Y806964D01*
X398864Y809294D02*
X429936Y809294D01*
X429936Y811624D02*
X398864Y811624D01*
X398864Y838116D02*
X429936Y838116D01*
X429936Y823044D01*
X398864Y823044D01*
X398864Y838116D01*
X398864Y825374D02*
X429936Y825374D01*
X429936Y827704D02*
X398864Y827704D01*
X398864Y830034D02*
X429936Y830034D01*
X429936Y832364D02*
X398864Y832364D01*
X398864Y834694D02*
X429936Y834694D01*
X429936Y837024D02*
X398864Y837024D01*
X398864Y863516D02*
X429936Y863516D01*
X429936Y848444D01*
X398864Y848444D01*
X398864Y863516D01*
X398864Y850774D02*
X429936Y850774D01*
X429936Y853104D02*
X398864Y853104D01*
X398864Y855434D02*
X429936Y855434D01*
X429936Y857764D02*
X398864Y857764D01*
X398864Y860094D02*
X429936Y860094D01*
X429936Y862424D02*
X398864Y862424D01*
X398864Y888916D02*
X429936Y888916D01*
X429936Y873844D01*
X398864Y873844D01*
X398864Y888916D01*
X398864Y876174D02*
X429936Y876174D01*
X429936Y878504D02*
X398864Y878504D01*
X398864Y880834D02*
X429936Y880834D01*
X429936Y883164D02*
X398864Y883164D01*
X398864Y885494D02*
X429936Y885494D01*
X429936Y887824D02*
X398864Y887824D01*
X398864Y914316D02*
X429936Y914316D01*
X429936Y899244D01*
X398864Y899244D01*
X398864Y914316D01*
X398864Y901574D02*
X429936Y901574D01*
X429936Y903904D02*
X398864Y903904D01*
X398864Y906234D02*
X429936Y906234D01*
X429936Y908564D02*
X398864Y908564D01*
X398864Y910894D02*
X429936Y910894D01*
X429936Y913224D02*
X398864Y913224D01*
X398864Y939716D02*
X429936Y939716D01*
X429936Y924644D01*
X398864Y924644D01*
X398864Y939716D01*
X398864Y926974D02*
X429936Y926974D01*
X429936Y929304D02*
X398864Y929304D01*
X398864Y931634D02*
X429936Y931634D01*
X429936Y933964D02*
X398864Y933964D01*
X398864Y936294D02*
X429936Y936294D01*
X429936Y938624D02*
X398864Y938624D01*
X398864Y965116D02*
X429936Y965116D01*
X429936Y950044D01*
X398864Y950044D01*
X398864Y965116D01*
X398864Y952374D02*
X429936Y952374D01*
X429936Y954704D02*
X398864Y954704D01*
X398864Y957034D02*
X429936Y957034D01*
X429936Y959364D02*
X398864Y959364D01*
X398864Y961694D02*
X429936Y961694D01*
X429936Y964024D02*
X398864Y964024D01*
X398864Y990516D02*
X429936Y990516D01*
X429936Y975444D01*
X398864Y975444D01*
X398864Y990516D01*
X398864Y977774D02*
X429936Y977774D01*
X429936Y980104D02*
X398864Y980104D01*
X398864Y982434D02*
X429936Y982434D01*
X429936Y984764D02*
X398864Y984764D01*
X398864Y987094D02*
X429936Y987094D01*
X429936Y989424D02*
X398864Y989424D01*
X398864Y1015916D02*
X429936Y1015916D01*
X429936Y1000844D01*
X398864Y1000844D01*
X398864Y1015916D01*
X398864Y1003174D02*
X429936Y1003174D01*
X429936Y1005504D02*
X398864Y1005504D01*
X398864Y1007834D02*
X429936Y1007834D01*
X429936Y1010164D02*
X398864Y1010164D01*
X398864Y1012494D02*
X429936Y1012494D01*
X429936Y1014824D02*
X398864Y1014824D01*
X398864Y1041316D02*
X429936Y1041316D01*
X429936Y1026244D01*
X398864Y1026244D01*
X398864Y1041316D01*
X398864Y1028574D02*
X429936Y1028574D01*
X429936Y1030904D02*
X398864Y1030904D01*
X398864Y1033234D02*
X429936Y1033234D01*
X429936Y1035564D02*
X398864Y1035564D01*
X398864Y1037894D02*
X429936Y1037894D01*
X429936Y1040224D02*
X398864Y1040224D01*
X398864Y1066716D02*
X429936Y1066716D01*
X429936Y1051644D01*
X398864Y1051644D01*
X398864Y1066716D01*
X398864Y1053974D02*
X429936Y1053974D01*
X429936Y1056304D02*
X398864Y1056304D01*
X398864Y1058634D02*
X429936Y1058634D01*
X429936Y1060964D02*
X398864Y1060964D01*
X398864Y1063294D02*
X429936Y1063294D01*
X429936Y1065624D02*
X398864Y1065624D01*
X236136Y1051644D02*
X205064Y1051644D01*
X205064Y1066716D01*
X236136Y1066716D01*
X236136Y1051644D01*
X236136Y1053974D02*
X205064Y1053974D01*
X205064Y1056304D02*
X236136Y1056304D01*
X236136Y1058634D02*
X205064Y1058634D01*
X205064Y1060964D02*
X236136Y1060964D01*
X236136Y1063294D02*
X205064Y1063294D01*
X205064Y1065624D02*
X236136Y1065624D01*
X236136Y1026244D02*
X205064Y1026244D01*
X205064Y1041316D01*
X236136Y1041316D01*
X236136Y1026244D01*
X236136Y1028574D02*
X205064Y1028574D01*
X205064Y1030904D02*
X236136Y1030904D01*
X236136Y1033234D02*
X205064Y1033234D01*
X205064Y1035564D02*
X236136Y1035564D01*
X236136Y1037894D02*
X205064Y1037894D01*
X205064Y1040224D02*
X236136Y1040224D01*
X236136Y1000844D02*
X205064Y1000844D01*
X205064Y1015916D01*
X236136Y1015916D01*
X236136Y1000844D01*
X236136Y1003174D02*
X205064Y1003174D01*
X205064Y1005504D02*
X236136Y1005504D01*
X236136Y1007834D02*
X205064Y1007834D01*
X205064Y1010164D02*
X236136Y1010164D01*
X236136Y1012494D02*
X205064Y1012494D01*
X205064Y1014824D02*
X236136Y1014824D01*
X236136Y975444D02*
X205064Y975444D01*
X205064Y990516D01*
X236136Y990516D01*
X236136Y975444D01*
X236136Y977774D02*
X205064Y977774D01*
X205064Y980104D02*
X236136Y980104D01*
X236136Y982434D02*
X205064Y982434D01*
X205064Y984764D02*
X236136Y984764D01*
X236136Y987094D02*
X205064Y987094D01*
X205064Y989424D02*
X236136Y989424D01*
X236136Y950044D02*
X205064Y950044D01*
X205064Y965116D01*
X236136Y965116D01*
X236136Y950044D01*
X236136Y952374D02*
X205064Y952374D01*
X205064Y954704D02*
X236136Y954704D01*
X236136Y957034D02*
X205064Y957034D01*
X205064Y959364D02*
X236136Y959364D01*
X236136Y961694D02*
X205064Y961694D01*
X205064Y964024D02*
X236136Y964024D01*
X236136Y924644D02*
X205064Y924644D01*
X205064Y939716D01*
X236136Y939716D01*
X236136Y924644D01*
X236136Y926974D02*
X205064Y926974D01*
X205064Y929304D02*
X236136Y929304D01*
X236136Y931634D02*
X205064Y931634D01*
X205064Y933964D02*
X236136Y933964D01*
X236136Y936294D02*
X205064Y936294D01*
X205064Y938624D02*
X236136Y938624D01*
X236136Y899244D02*
X205064Y899244D01*
X205064Y914316D01*
X236136Y914316D01*
X236136Y899244D01*
X236136Y901574D02*
X205064Y901574D01*
X205064Y903904D02*
X236136Y903904D01*
X236136Y906234D02*
X205064Y906234D01*
X205064Y908564D02*
X236136Y908564D01*
X236136Y910894D02*
X205064Y910894D01*
X205064Y913224D02*
X236136Y913224D01*
X236136Y873844D02*
X205064Y873844D01*
X205064Y888916D01*
X236136Y888916D01*
X236136Y873844D01*
X236136Y876174D02*
X205064Y876174D01*
X205064Y878504D02*
X236136Y878504D01*
X236136Y880834D02*
X205064Y880834D01*
X205064Y883164D02*
X236136Y883164D01*
X236136Y885494D02*
X205064Y885494D01*
X205064Y887824D02*
X236136Y887824D01*
X236136Y848444D02*
X205064Y848444D01*
X205064Y863516D01*
X236136Y863516D01*
X236136Y848444D01*
X236136Y850774D02*
X205064Y850774D01*
X205064Y853104D02*
X236136Y853104D01*
X236136Y855434D02*
X205064Y855434D01*
X205064Y857764D02*
X236136Y857764D01*
X236136Y860094D02*
X205064Y860094D01*
X205064Y862424D02*
X236136Y862424D01*
X236136Y823044D02*
X205064Y823044D01*
X205064Y838116D01*
X236136Y838116D01*
X236136Y823044D01*
X236136Y825374D02*
X205064Y825374D01*
X205064Y827704D02*
X236136Y827704D01*
X236136Y830034D02*
X205064Y830034D01*
X205064Y832364D02*
X236136Y832364D01*
X236136Y834694D02*
X205064Y834694D01*
X205064Y837024D02*
X236136Y837024D01*
X236136Y797644D02*
X205064Y797644D01*
X205064Y812716D01*
X236136Y812716D01*
X236136Y797644D01*
X236136Y799974D02*
X205064Y799974D01*
X205064Y802304D02*
X236136Y802304D01*
X236136Y804634D02*
X205064Y804634D01*
X205064Y806964D02*
X236136Y806964D01*
X236136Y809294D02*
X205064Y809294D01*
X205064Y811624D02*
X236136Y811624D01*
X236136Y772244D02*
X205064Y772244D01*
X205064Y787316D01*
X236136Y787316D01*
X236136Y772244D01*
X236136Y774574D02*
X205064Y774574D01*
X205064Y776904D02*
X236136Y776904D01*
X236136Y779234D02*
X205064Y779234D01*
X205064Y781564D02*
X236136Y781564D01*
X236136Y783894D02*
X205064Y783894D01*
X205064Y786224D02*
X236136Y786224D01*
X236136Y746844D02*
X205064Y746844D01*
X205064Y761916D01*
X236136Y761916D01*
X236136Y746844D01*
X236136Y749174D02*
X205064Y749174D01*
X205064Y751504D02*
X236136Y751504D01*
X236136Y753834D02*
X205064Y753834D01*
X205064Y756164D02*
X236136Y756164D01*
X236136Y758494D02*
X205064Y758494D01*
X205064Y760824D02*
X236136Y760824D01*
X236136Y721444D02*
X205064Y721444D01*
X205064Y736516D01*
X236136Y736516D01*
X236136Y721444D01*
X236136Y723774D02*
X205064Y723774D01*
X205064Y726104D02*
X236136Y726104D01*
X236136Y728434D02*
X205064Y728434D01*
X205064Y730764D02*
X236136Y730764D01*
X236136Y733094D02*
X205064Y733094D01*
X205064Y735424D02*
X236136Y735424D01*
X236136Y696044D02*
X205064Y696044D01*
X205064Y711116D01*
X236136Y711116D01*
X236136Y696044D01*
X236136Y698374D02*
X205064Y698374D01*
X205064Y700704D02*
X236136Y700704D01*
X236136Y703034D02*
X205064Y703034D01*
X205064Y705364D02*
X236136Y705364D01*
X236136Y707694D02*
X205064Y707694D01*
X205064Y710024D02*
X236136Y710024D01*
X236136Y670644D02*
X205064Y670644D01*
X205064Y685716D01*
X236136Y685716D01*
X236136Y670644D01*
X236136Y672974D02*
X205064Y672974D01*
X205064Y675304D02*
X236136Y675304D01*
X236136Y677634D02*
X205064Y677634D01*
X205064Y679964D02*
X236136Y679964D01*
X236136Y682294D02*
X205064Y682294D01*
X205064Y684624D02*
X236136Y684624D01*
X236136Y645244D02*
X205064Y645244D01*
X205064Y660316D01*
X236136Y660316D01*
X236136Y645244D01*
X236136Y647574D02*
X205064Y647574D01*
X205064Y649904D02*
X236136Y649904D01*
X236136Y652234D02*
X205064Y652234D01*
X205064Y654564D02*
X236136Y654564D01*
X236136Y656894D02*
X205064Y656894D01*
X205064Y659224D02*
X236136Y659224D01*
X236136Y619844D02*
X205064Y619844D01*
X205064Y634916D01*
X236136Y634916D01*
X236136Y619844D01*
X236136Y622174D02*
X205064Y622174D01*
X205064Y624504D02*
X236136Y624504D01*
X236136Y626834D02*
X205064Y626834D01*
X205064Y629164D02*
X236136Y629164D01*
X236136Y631494D02*
X205064Y631494D01*
X205064Y633824D02*
X236136Y633824D01*
X236136Y594444D02*
X205064Y594444D01*
X205064Y609516D01*
X236136Y609516D01*
X236136Y594444D01*
X236136Y596774D02*
X205064Y596774D01*
X205064Y599104D02*
X236136Y599104D01*
X236136Y601434D02*
X205064Y601434D01*
X205064Y603764D02*
X236136Y603764D01*
X236136Y606094D02*
X205064Y606094D01*
X205064Y608424D02*
X236136Y608424D01*
X236136Y569044D02*
X205064Y569044D01*
X205064Y584116D01*
X236136Y584116D01*
X236136Y569044D01*
X236136Y571374D02*
X205064Y571374D01*
X205064Y573704D02*
X236136Y573704D01*
X236136Y576034D02*
X205064Y576034D01*
X205064Y578364D02*
X236136Y578364D01*
X236136Y580694D02*
X205064Y580694D01*
X205064Y583024D02*
X236136Y583024D01*
D33*
X310560Y614820D02*
X324440Y614820D01*
X324440Y600940D01*
X310560Y600940D01*
X310560Y614820D01*
X310560Y603452D02*
X324440Y603452D01*
X324440Y605964D02*
X310560Y605964D01*
X310560Y608476D02*
X324440Y608476D01*
X324440Y610988D02*
X310560Y610988D01*
X310560Y613500D02*
X324440Y613500D01*
X314440Y581820D02*
X300560Y581820D01*
X314440Y581820D02*
X314440Y567940D01*
X300560Y567940D01*
X300560Y581820D01*
X300560Y570452D02*
X314440Y570452D01*
X314440Y572964D02*
X300560Y572964D01*
X300560Y575476D02*
X314440Y575476D01*
X314440Y577988D02*
X300560Y577988D01*
X300560Y580500D02*
X314440Y580500D01*
X320560Y581820D02*
X334440Y581820D01*
X334440Y567940D01*
X320560Y567940D01*
X320560Y581820D01*
X320560Y570452D02*
X334440Y570452D01*
X334440Y572964D02*
X320560Y572964D01*
X320560Y575476D02*
X334440Y575476D01*
X334440Y577988D02*
X320560Y577988D01*
X320560Y580500D02*
X334440Y580500D01*
X335560Y664820D02*
X349440Y664820D01*
X349440Y650940D01*
X335560Y650940D01*
X335560Y664820D01*
X335560Y653452D02*
X349440Y653452D01*
X349440Y655964D02*
X335560Y655964D01*
X335560Y658476D02*
X349440Y658476D01*
X349440Y660988D02*
X335560Y660988D01*
X335560Y663500D02*
X349440Y663500D01*
X349440Y689820D02*
X335560Y689820D01*
X349440Y689820D02*
X349440Y675940D01*
X335560Y675940D01*
X335560Y689820D01*
X335560Y678452D02*
X349440Y678452D01*
X349440Y680964D02*
X335560Y680964D01*
X335560Y683476D02*
X349440Y683476D01*
X349440Y685988D02*
X335560Y685988D01*
X335560Y688500D02*
X349440Y688500D01*
X349440Y714820D02*
X335560Y714820D01*
X349440Y714820D02*
X349440Y700940D01*
X335560Y700940D01*
X335560Y714820D01*
X335560Y703452D02*
X349440Y703452D01*
X349440Y705964D02*
X335560Y705964D01*
X335560Y708476D02*
X349440Y708476D01*
X349440Y710988D02*
X335560Y710988D01*
X335560Y713500D02*
X349440Y713500D01*
D34*
X319086Y882307D02*
X304232Y882307D01*
X319086Y882307D02*
X319086Y867453D01*
X304232Y867453D01*
X304232Y882307D01*
X304232Y869750D02*
X319086Y869750D01*
X319086Y872047D02*
X304232Y872047D01*
X304232Y874344D02*
X319086Y874344D01*
X319086Y876641D02*
X304232Y876641D01*
X304232Y878938D02*
X319086Y878938D01*
X319086Y881235D02*
X304232Y881235D01*
X293686Y882307D02*
X278832Y882307D01*
X293686Y882307D02*
X293686Y867453D01*
X278832Y867453D01*
X278832Y882307D01*
X278832Y869750D02*
X293686Y869750D01*
X293686Y872047D02*
X278832Y872047D01*
X278832Y874344D02*
X293686Y874344D01*
X293686Y876641D02*
X278832Y876641D01*
X278832Y878938D02*
X293686Y878938D01*
X293686Y881235D02*
X278832Y881235D01*
X268286Y882307D02*
X253432Y882307D01*
X268286Y882307D02*
X268286Y867453D01*
X253432Y867453D01*
X253432Y882307D01*
X253432Y869750D02*
X268286Y869750D01*
X268286Y872047D02*
X253432Y872047D01*
X253432Y874344D02*
X268286Y874344D01*
X268286Y876641D02*
X253432Y876641D01*
X253432Y878938D02*
X268286Y878938D01*
X268286Y881235D02*
X253432Y881235D01*
D35*
X344750Y581380D02*
X344750Y574380D01*
X290250Y574380D02*
X290250Y581380D01*
D36*
X341750Y606180D02*
X341750Y610180D01*
X293250Y610180D02*
X293250Y606180D01*
D13*
X614855Y649265D02*
X614855Y656295D01*
X621885Y656295D01*
X621885Y649265D01*
X614855Y649265D01*
X614855Y653534D02*
X621885Y653534D01*
X597315Y656295D02*
X597315Y649265D01*
X597315Y656295D02*
X604345Y656295D01*
X604345Y649265D01*
X597315Y649265D01*
X597315Y653534D02*
X604345Y653534D01*
D14*
X606095Y622885D02*
X596105Y622885D01*
X596105Y631875D01*
X606095Y631875D01*
X606095Y622885D01*
X606095Y625293D02*
X596105Y625293D01*
X596105Y627701D02*
X606095Y627701D01*
X606095Y630109D02*
X596105Y630109D01*
X613105Y622885D02*
X623095Y622885D01*
X613105Y622885D02*
X613105Y631875D01*
X623095Y631875D01*
X623095Y622885D01*
X623095Y625293D02*
X613105Y625293D01*
X613105Y627701D02*
X623095Y627701D01*
X623095Y630109D02*
X613105Y630109D01*
D10*
X68580Y1105535D03*
X565785Y1105535D03*
D37*
X59525Y-20955D02*
X59528Y-20733D01*
X59536Y-20511D01*
X59550Y-20289D01*
X59569Y-20067D01*
X59593Y-19847D01*
X59623Y-19626D01*
X59658Y-19407D01*
X59699Y-19188D01*
X59745Y-18971D01*
X59796Y-18755D01*
X59853Y-18540D01*
X59915Y-18326D01*
X59982Y-18115D01*
X60054Y-17904D01*
X60132Y-17696D01*
X60214Y-17490D01*
X60302Y-17286D01*
X60394Y-17083D01*
X60492Y-16884D01*
X60594Y-16687D01*
X60701Y-16492D01*
X60813Y-16300D01*
X60930Y-16111D01*
X61051Y-15924D01*
X61177Y-15741D01*
X61307Y-15561D01*
X61442Y-15384D01*
X61580Y-15211D01*
X61723Y-15041D01*
X61871Y-14874D01*
X62022Y-14711D01*
X62177Y-14552D01*
X62336Y-14397D01*
X62499Y-14246D01*
X62666Y-14098D01*
X62836Y-13955D01*
X63009Y-13817D01*
X63186Y-13682D01*
X63366Y-13552D01*
X63549Y-13426D01*
X63736Y-13305D01*
X63925Y-13188D01*
X64117Y-13076D01*
X64312Y-12969D01*
X64509Y-12867D01*
X64708Y-12769D01*
X64911Y-12677D01*
X65115Y-12589D01*
X65321Y-12507D01*
X65529Y-12429D01*
X65740Y-12357D01*
X65951Y-12290D01*
X66165Y-12228D01*
X66380Y-12171D01*
X66596Y-12120D01*
X66813Y-12074D01*
X67032Y-12033D01*
X67251Y-11998D01*
X67472Y-11968D01*
X67692Y-11944D01*
X67914Y-11925D01*
X68136Y-11911D01*
X68358Y-11903D01*
X68580Y-11900D01*
X68802Y-11903D01*
X69024Y-11911D01*
X69246Y-11925D01*
X69468Y-11944D01*
X69688Y-11968D01*
X69909Y-11998D01*
X70128Y-12033D01*
X70347Y-12074D01*
X70564Y-12120D01*
X70780Y-12171D01*
X70995Y-12228D01*
X71209Y-12290D01*
X71420Y-12357D01*
X71631Y-12429D01*
X71839Y-12507D01*
X72045Y-12589D01*
X72249Y-12677D01*
X72452Y-12769D01*
X72651Y-12867D01*
X72848Y-12969D01*
X73043Y-13076D01*
X73235Y-13188D01*
X73424Y-13305D01*
X73611Y-13426D01*
X73794Y-13552D01*
X73974Y-13682D01*
X74151Y-13817D01*
X74324Y-13955D01*
X74494Y-14098D01*
X74661Y-14246D01*
X74824Y-14397D01*
X74983Y-14552D01*
X75138Y-14711D01*
X75289Y-14874D01*
X75437Y-15041D01*
X75580Y-15211D01*
X75718Y-15384D01*
X75853Y-15561D01*
X75983Y-15741D01*
X76109Y-15924D01*
X76230Y-16111D01*
X76347Y-16300D01*
X76459Y-16492D01*
X76566Y-16687D01*
X76668Y-16884D01*
X76766Y-17083D01*
X76858Y-17286D01*
X76946Y-17490D01*
X77028Y-17696D01*
X77106Y-17904D01*
X77178Y-18115D01*
X77245Y-18326D01*
X77307Y-18540D01*
X77364Y-18755D01*
X77415Y-18971D01*
X77461Y-19188D01*
X77502Y-19407D01*
X77537Y-19626D01*
X77567Y-19847D01*
X77591Y-20067D01*
X77610Y-20289D01*
X77624Y-20511D01*
X77632Y-20733D01*
X77635Y-20955D01*
X77632Y-21177D01*
X77624Y-21399D01*
X77610Y-21621D01*
X77591Y-21843D01*
X77567Y-22063D01*
X77537Y-22284D01*
X77502Y-22503D01*
X77461Y-22722D01*
X77415Y-22939D01*
X77364Y-23155D01*
X77307Y-23370D01*
X77245Y-23584D01*
X77178Y-23795D01*
X77106Y-24006D01*
X77028Y-24214D01*
X76946Y-24420D01*
X76858Y-24624D01*
X76766Y-24827D01*
X76668Y-25026D01*
X76566Y-25223D01*
X76459Y-25418D01*
X76347Y-25610D01*
X76230Y-25799D01*
X76109Y-25986D01*
X75983Y-26169D01*
X75853Y-26349D01*
X75718Y-26526D01*
X75580Y-26699D01*
X75437Y-26869D01*
X75289Y-27036D01*
X75138Y-27199D01*
X74983Y-27358D01*
X74824Y-27513D01*
X74661Y-27664D01*
X74494Y-27812D01*
X74324Y-27955D01*
X74151Y-28093D01*
X73974Y-28228D01*
X73794Y-28358D01*
X73611Y-28484D01*
X73424Y-28605D01*
X73235Y-28722D01*
X73043Y-28834D01*
X72848Y-28941D01*
X72651Y-29043D01*
X72452Y-29141D01*
X72249Y-29233D01*
X72045Y-29321D01*
X71839Y-29403D01*
X71631Y-29481D01*
X71420Y-29553D01*
X71209Y-29620D01*
X70995Y-29682D01*
X70780Y-29739D01*
X70564Y-29790D01*
X70347Y-29836D01*
X70128Y-29877D01*
X69909Y-29912D01*
X69688Y-29942D01*
X69468Y-29966D01*
X69246Y-29985D01*
X69024Y-29999D01*
X68802Y-30007D01*
X68580Y-30010D01*
X68358Y-30007D01*
X68136Y-29999D01*
X67914Y-29985D01*
X67692Y-29966D01*
X67472Y-29942D01*
X67251Y-29912D01*
X67032Y-29877D01*
X66813Y-29836D01*
X66596Y-29790D01*
X66380Y-29739D01*
X66165Y-29682D01*
X65951Y-29620D01*
X65740Y-29553D01*
X65529Y-29481D01*
X65321Y-29403D01*
X65115Y-29321D01*
X64911Y-29233D01*
X64708Y-29141D01*
X64509Y-29043D01*
X64312Y-28941D01*
X64117Y-28834D01*
X63925Y-28722D01*
X63736Y-28605D01*
X63549Y-28484D01*
X63366Y-28358D01*
X63186Y-28228D01*
X63009Y-28093D01*
X62836Y-27955D01*
X62666Y-27812D01*
X62499Y-27664D01*
X62336Y-27513D01*
X62177Y-27358D01*
X62022Y-27199D01*
X61871Y-27036D01*
X61723Y-26869D01*
X61580Y-26699D01*
X61442Y-26526D01*
X61307Y-26349D01*
X61177Y-26169D01*
X61051Y-25986D01*
X60930Y-25799D01*
X60813Y-25610D01*
X60701Y-25418D01*
X60594Y-25223D01*
X60492Y-25026D01*
X60394Y-24827D01*
X60302Y-24624D01*
X60214Y-24420D01*
X60132Y-24214D01*
X60054Y-24006D01*
X59982Y-23795D01*
X59915Y-23584D01*
X59853Y-23370D01*
X59796Y-23155D01*
X59745Y-22939D01*
X59699Y-22722D01*
X59658Y-22503D01*
X59623Y-22284D01*
X59593Y-22063D01*
X59569Y-21843D01*
X59550Y-21621D01*
X59536Y-21399D01*
X59528Y-21177D01*
X59525Y-20955D01*
D38*
X68580Y-20955D03*
M02*
