M48
;GenerationSoftware,Autodesk,EAGLE,9.6.2*%
;CreationDate,2023-03-31T21:51:11Z*%
FMAT,2
ICI,OFF
METRIC,TZ,000.000
T5C0.305
T4C0.900
T3C1.000
T2C1.016
T1C3.302
%
G90
M71
T1
X60960Y2540
X60960Y51435
X2540Y51435
X2540Y2540
X60960Y57023
X60960Y105918
X2540Y105918
X2540Y57023
T2
X1143Y16510
X1397Y19050
X1143Y21590
X62357Y21590
X62103Y19050
X62357Y16510
X1143Y70993
X1397Y73533
X1143Y76073
X62357Y76073
X62103Y73533
X62357Y70993
T3
X13970Y68707
X13970Y8255
X18669Y11303
X13970Y14224
X13970Y62738
X18669Y65786
T4
X3175Y8660
X3175Y11660
X3175Y63143
X3175Y66143
T5
X48260Y53340
X62865Y40640
X62865Y33020
X62865Y25400
X26035Y8890
X19685Y8890
X24765Y34290
X19685Y46355
X44450Y31750
X43815Y19685
X43815Y6985
X32385Y7620
X36195Y3429
X14986Y41910
X17780Y41910
X12065Y39370
X9144Y36830
X49530Y40640
X52070Y40640
X51435Y25908
X53340Y25908
X50800Y24003
X45720Y25908
X46355Y29972
X52705Y635
X55245Y635
X53975Y3175
X57150Y6350
X57785Y9525
X51435Y12065
X43815Y12065
X45085Y8255
X43815Y9525
X45085Y5715
X46355Y6858
X44704Y3175
X50165Y635
X47625Y635
X45085Y635
X55245Y10795
X3810Y34290
X3810Y24130
X59690Y41910
X59690Y31750
X28575Y34290
X28575Y29845
X13335Y49530
X7620Y51435
X52070Y49530
X45720Y51435
X31115Y29845
X34290Y29845
X31115Y26670
X28575Y26670
X33655Y26670
X38100Y39370
X26035Y38100
X15240Y34290
X14605Y30480
X47625Y31750
X47625Y34925
X47625Y40640
X57150Y43180
X53340Y43180
X50165Y31115
X26035Y26670
X26035Y29845
X34290Y34290
X31115Y22225
X29210Y17780
X57150Y33020
X6350Y33020
X46355Y12065
X49022Y12065
X46355Y4572
X48895Y4572
X48895Y6858
X47625Y5715
X50165Y5715
X51435Y6858
X43815Y4445
X12700Y20320
X16510Y20320
X19939Y20955
X7366Y21082
X8255Y24130
X12065Y28575
X19050Y24130
X39370Y20955
X6350Y7620
X8890Y8890
X6985Y4445
X8255Y4445
X10795Y5715
X18415Y15240
X15875Y17780
X19685Y17780
X24765Y29845
X37465Y34290
X38100Y29845
X38100Y26035
X39370Y22225
X635Y44450
X17780Y39370
X17780Y34925
X9144Y34544
X10795Y635
X20955Y635
X28575Y635
X34925Y635
X42545Y635
X33020Y12065
X34290Y17780
X26035Y13335
X24765Y14605
X26289Y3429
X24765Y5715
X29845Y15240
X24765Y20955
X31115Y38100
X54356Y31496
X54356Y29210
X50165Y19685
X49530Y18034
X55245Y14605
X54610Y12954
X46355Y43942
X60960Y20320
X2540Y20320
X3810Y31750
X59690Y34290
X7239Y26289
X15875Y12700
X43815Y27559
X38735Y8890
X13970Y46355
X6350Y47625
X13335Y41910
X16828Y29210
X8890Y41910
X5715Y44450
X3810Y41910
X9144Y31496
X54356Y34544
X7620Y4445
X35560Y12700
X39370Y50165
X24130Y50165
X24130Y47625
X24130Y45085
X39370Y47625
X39370Y45085
X27940Y43180
X30480Y43180
X35560Y43180
X38100Y13335
X26035Y40005
X24765Y17780
X58420Y24130
X10160Y12700
X5080Y10795
X5080Y15240
X8001Y16129
X6350Y22860
X11811Y17780
X13589Y17780
X8636Y16129
X7366Y16129
X8001Y21082
X8636Y21082
X50800Y21336
X13208Y43815
X36195Y8890
X57785Y13335
X51435Y31115
X12065Y34925
X2540Y29210
X2540Y39370
X8890Y51435
X16510Y51435
X60960Y36830
X60960Y26670
X54610Y51435
X46990Y51435
X26670Y24765
X10160Y39370
X52324Y26670
X19685Y28575
X14732Y28829
X58928Y9652
X35560Y31750
X14605Y31750
X36195Y31115
X15240Y31115
X38735Y31750
X14605Y33020
X39370Y23495
X39370Y29845
X15240Y32385
X39370Y26035
X43815Y46990
X43815Y50165
X39370Y36195
X39370Y38735
X5080Y31750
X7620Y31750
X7620Y34290
X5080Y34290
X58420Y34290
X55880Y34290
X55880Y31750
X58420Y31750
X29845Y22860
X29210Y39370
X19685Y50165
X33020Y21590
X32385Y38735
X19685Y48895
X25400Y41910
X48260Y43180
X48260Y31115
X48260Y35560
X24765Y42545
X46990Y43180
X46990Y31115
X46990Y35560
X13970Y34290
X49530Y31750
X34290Y27940
X2540Y27940
X24765Y41275
X54610Y43180
X25400Y40640
X55880Y43180
X19431Y44069
X12065Y44450
X12065Y45720
X19050Y45720
X20193Y40005
X35560Y37465
X2540Y38100
X36195Y36830
X2540Y36830
X44450Y38735
X60960Y39370
X43815Y28575
X60960Y27940
X44450Y29210
X60960Y29210
X44450Y22987
X46990Y25908
X49530Y25908
X47625Y10160
X47625Y11430
X18415Y16510
X47625Y10795
X19050Y16510
X55435Y12382
X34925Y27305
X2540Y26670
X43815Y38100
X60960Y38100
X15875Y22225
X12065Y22225
X10160Y19050
X13970Y19050
X13335Y19050
X9525Y19050
X10160Y34925
X53340Y31115
X15240Y36830
X52070Y36830
X17526Y36830
X49530Y36830
X57150Y3810
X57150Y2540
X8255Y3175
X6985Y3175
X27305Y1905
X26670Y35560
X27940Y35560
X26035Y1905
X27305Y35560
X7620Y3175
X26670Y1905
X57150Y3175
X53721Y6604
X57150Y5461
X35560Y16510
X19533Y22225
X17780Y19050
X13291Y39834
X9525Y43815
X17780Y3175
X17145Y3175
X6350Y14097
X6350Y14732
X50800Y22860
X45085Y19685
X61087Y9525
X11430Y88773
X11430Y86233
X52070Y86233
X52070Y88773
X45085Y76708
X48895Y74803
X39370Y107823
X24130Y107823
X25400Y97663
X38100Y97663
X33020Y97663
X59055Y107823
X62865Y104013
X62865Y58928
X59055Y55118
X4445Y55118
X635Y58928
X635Y104013
X4445Y107823
X59055Y104013
X59055Y58928
X4445Y58928
X4445Y104013
X635Y87503
X635Y79883
X635Y95123
X3810Y99568
X15240Y107823
X10160Y107823
X53340Y107823
X48260Y107823
X62865Y95123
X62865Y87503
X62865Y79883
X26035Y63373
X19685Y63373
X24765Y88773
X19685Y100838
X44450Y86233
X43815Y74168
X43815Y61468
X32385Y62103
X36195Y57912
X14986Y96393
X17780Y96393
X12065Y93853
X9144Y91313
X49530Y95123
X52070Y95123
X51435Y80391
X53340Y80391
X50800Y78486
X45720Y80391
X46355Y84455
X52705Y55118
X55245Y55118
X53975Y57658
X57150Y60833
X57785Y64008
X51435Y66548
X43815Y66548
X45085Y62738
X43815Y64008
X45085Y60198
X46355Y61341
X44704Y57658
X50165Y55118
X47625Y55118
X45085Y55118
X55245Y65278
X3810Y88773
X3810Y78613
X59690Y96393
X59690Y86233
X28575Y88773
X28575Y84328
X13335Y104013
X7620Y105918
X52070Y104013
X45720Y105918
X31115Y84328
X34290Y84328
X31115Y81153
X28575Y81153
X33655Y81153
X38100Y93853
X26035Y92583
X15240Y88773
X14605Y84963
X47625Y86233
X47625Y89408
X47625Y95123
X57150Y97663
X53340Y97663
X50165Y85598
X26035Y81153
X26035Y84328
X34290Y88773
X31115Y76708
X29210Y72263
X57150Y87503
X6350Y87503
X46355Y66548
X49022Y66548
X46355Y59055
X48895Y59055
X48895Y61341
X47625Y60198
X50165Y60198
X51435Y61341
X43815Y58928
X12700Y74803
X16510Y74803
X19939Y75438
X7366Y75565
X8255Y78613
X12065Y83058
X19050Y78613
X39370Y75438
X6350Y62103
X8890Y63373
X6985Y58928
X8255Y58928
X10795Y60198
X18415Y69723
X15875Y72263
X19685Y72263
X24765Y84328
X37465Y88773
X38100Y84328
X38100Y80518
X39370Y76708
X635Y98933
X17780Y93853
X17780Y89408
X9144Y89027
X10795Y55118
X20955Y55118
X28575Y55118
X34925Y55118
X42545Y55118
X33020Y66548
X34290Y72263
X26035Y67818
X24765Y69088
X26289Y57912
X24765Y60198
X29845Y69723
X24765Y75438
X31115Y92583
X54356Y85979
X54356Y83693
X50165Y74168
X49530Y72517
X55245Y69088
X54610Y67437
X46355Y98425
X60960Y74803
X2540Y74803
X3810Y86233
X59690Y88773
X7239Y80772
X15875Y67183
X43815Y82042
X38735Y63373
X13970Y100838
X6350Y102108
X13335Y96393
X16828Y83693
X8890Y96393
X5715Y98933
X3810Y96393
X9144Y85979
X54356Y89027
X7620Y58928
X35560Y67183
X39370Y104648
X24130Y104648
X24130Y102108
X24130Y99568
X39370Y102108
X39370Y99568
X27940Y97663
X30480Y97663
X35560Y97663
X38100Y67818
X26035Y94488
X11430Y34290
X58420Y78613
X10160Y67183
X5080Y65278
X5080Y69723
X8001Y70612
X6350Y77343
X11811Y72263
X13589Y72263
X8636Y70612
X7366Y70612
X8001Y75565
X8636Y75565
X50800Y75819
X13208Y98298
X36195Y63373
X57785Y67818
X51435Y85598
X12065Y89408
X2540Y83693
X2540Y93853
X8890Y105918
X16510Y105918
X60960Y91313
X60960Y81153
X54610Y105918
X46990Y105918
X26670Y79248
X10160Y93853
X52324Y81153
X19685Y83058
X14732Y83312
X58928Y64135
X35560Y86233
X14605Y86233
X36195Y85598
X15240Y85598
X38735Y86233
X14605Y87503
X39370Y77978
X39370Y84328
X15240Y86868
X39370Y80518
X43815Y101473
X43815Y104648
X39370Y90678
X39370Y93218
X5080Y86233
X7620Y86233
X7620Y88773
X5080Y88773
X58420Y88773
X55880Y88773
X55880Y86233
X58420Y86233
X29845Y77343
X29210Y93853
X19685Y104648
X33020Y76073
X32385Y93218
X19685Y103378
X25400Y96393
X48260Y97663
X48260Y85598
X48260Y90043
X24765Y97028
X46990Y97663
X46990Y85598
X46990Y90043
X13970Y88773
X49530Y86233
X34290Y82423
X2540Y82423
X24765Y95758
X54610Y97663
X25400Y95123
X55880Y97663
X19431Y98552
X12065Y98933
X12065Y100203
X19050Y100203
X20193Y94488
X35560Y91948
X2540Y92583
X36195Y91313
X2540Y91313
X24765Y72263
X60960Y93853
X43815Y83058
X60960Y82423
X44450Y83693
X60960Y83693
X44450Y77470
X46990Y80391
X49530Y80391
X47625Y64643
X47625Y65913
X18415Y70993
X47625Y65278
X19050Y70993
X55435Y66866
X34925Y81788
X2540Y81153
X43815Y92583
X60960Y92583
X15875Y76708
X12065Y76708
X10160Y73533
X13970Y73533
X13335Y73533
X9525Y73533
X10160Y89408
X53340Y85598
X15240Y91313
X52070Y91313
X17526Y91313
X49530Y91313
X57150Y58293
X57150Y57023
X8255Y57658
X6985Y57658
X27305Y56388
X26670Y90043
X27940Y90043
X26035Y56388
X27305Y90043
X7620Y57658
X26670Y56388
X57150Y57658
X53721Y61087
X57150Y59944
X35560Y70993
X19533Y76708
X17780Y73533
X13291Y94317
X9525Y98298
X17780Y57658
X17145Y57658
X6350Y68580
X6350Y69215
X50800Y77343
X45085Y74168
X61087Y64008
X11430Y31750
X52070Y31750
X52070Y34290
X45085Y22225
X48895Y20320
X39370Y53340
X24130Y53340
X25400Y43180
X38100Y43180
X33020Y43180
X59055Y53340
X62865Y49530
X62865Y4445
X59055Y635
X4445Y635
X635Y4445
X635Y49530
X4445Y53340
X59055Y49530
X59055Y4445
X4445Y4445
X4445Y49530
X635Y33020
X635Y25400
X635Y40640
X3810Y45085
X15240Y53340
X10160Y53340
X53340Y53340
X44450Y93218
M30