G04 EAGLE Gerber RS-274X export*
G75*
%MOMM*%
%FSLAX34Y34*%
%LPD*%
%INSoldermask Bottom*%
%IPPOS*%
%AMOC8*
5,1,8,0,0,1.08239X$1,22.5*%
G01*
%ADD10C,1.152400*%
%ADD11C,3.454400*%
%ADD12C,0.251966*%
%ADD13C,2.032000*%
%ADD14C,2.152400*%
%ADD15C,2.452400*%
%ADD16C,1.052400*%
%ADD17C,1.422400*%
%ADD18C,1.270000*%
%ADD19C,1.652400*%

G36*
X605220Y106057D02*
X605220Y106057D01*
X605286Y106059D01*
X605329Y106077D01*
X605376Y106085D01*
X605433Y106119D01*
X605493Y106144D01*
X605528Y106175D01*
X605569Y106200D01*
X605611Y106251D01*
X605659Y106295D01*
X605681Y106337D01*
X605710Y106374D01*
X605731Y106436D01*
X605762Y106495D01*
X605770Y106549D01*
X605782Y106586D01*
X605781Y106626D01*
X605789Y106680D01*
X605789Y109220D01*
X605778Y109285D01*
X605776Y109351D01*
X605758Y109394D01*
X605750Y109441D01*
X605716Y109498D01*
X605691Y109558D01*
X605660Y109593D01*
X605635Y109634D01*
X605584Y109676D01*
X605540Y109724D01*
X605498Y109746D01*
X605461Y109775D01*
X605399Y109796D01*
X605340Y109827D01*
X605286Y109835D01*
X605249Y109847D01*
X605209Y109846D01*
X605155Y109854D01*
X601345Y109854D01*
X601280Y109843D01*
X601214Y109841D01*
X601171Y109823D01*
X601124Y109815D01*
X601067Y109781D01*
X601007Y109756D01*
X600972Y109725D01*
X600931Y109700D01*
X600890Y109649D01*
X600841Y109605D01*
X600819Y109563D01*
X600790Y109526D01*
X600769Y109464D01*
X600738Y109405D01*
X600730Y109351D01*
X600718Y109314D01*
X600718Y109311D01*
X600719Y109274D01*
X600711Y109220D01*
X600711Y106680D01*
X600722Y106615D01*
X600724Y106549D01*
X600742Y106506D01*
X600750Y106459D01*
X600784Y106402D01*
X600809Y106342D01*
X600840Y106307D01*
X600865Y106266D01*
X600916Y106225D01*
X600960Y106176D01*
X601002Y106154D01*
X601039Y106125D01*
X601101Y106104D01*
X601160Y106073D01*
X601214Y106065D01*
X601251Y106053D01*
X601291Y106054D01*
X601345Y106046D01*
X605155Y106046D01*
X605220Y106057D01*
G37*
G36*
X154370Y974737D02*
X154370Y974737D01*
X154436Y974739D01*
X154479Y974757D01*
X154526Y974765D01*
X154583Y974799D01*
X154643Y974824D01*
X154678Y974855D01*
X154719Y974880D01*
X154761Y974931D01*
X154809Y974975D01*
X154831Y975017D01*
X154860Y975054D01*
X154881Y975116D01*
X154912Y975175D01*
X154920Y975229D01*
X154932Y975266D01*
X154931Y975306D01*
X154939Y975360D01*
X154939Y977900D01*
X154928Y977965D01*
X154926Y978031D01*
X154908Y978074D01*
X154900Y978121D01*
X154866Y978178D01*
X154841Y978238D01*
X154810Y978273D01*
X154785Y978314D01*
X154734Y978356D01*
X154690Y978404D01*
X154648Y978426D01*
X154611Y978455D01*
X154549Y978476D01*
X154490Y978507D01*
X154436Y978515D01*
X154399Y978527D01*
X154359Y978526D01*
X154305Y978534D01*
X150495Y978534D01*
X150430Y978523D01*
X150364Y978521D01*
X150321Y978503D01*
X150274Y978495D01*
X150217Y978461D01*
X150157Y978436D01*
X150122Y978405D01*
X150081Y978380D01*
X150040Y978329D01*
X149991Y978285D01*
X149969Y978243D01*
X149940Y978206D01*
X149919Y978144D01*
X149888Y978085D01*
X149880Y978031D01*
X149868Y977994D01*
X149868Y977991D01*
X149869Y977954D01*
X149861Y977900D01*
X149861Y975360D01*
X149872Y975295D01*
X149874Y975229D01*
X149892Y975186D01*
X149900Y975139D01*
X149934Y975082D01*
X149959Y975022D01*
X149990Y974987D01*
X150015Y974946D01*
X150066Y974905D01*
X150110Y974856D01*
X150152Y974834D01*
X150189Y974805D01*
X150251Y974784D01*
X150310Y974753D01*
X150364Y974745D01*
X150401Y974733D01*
X150441Y974734D01*
X150495Y974726D01*
X154305Y974726D01*
X154370Y974737D01*
G37*
G36*
X154370Y949337D02*
X154370Y949337D01*
X154436Y949339D01*
X154479Y949357D01*
X154526Y949365D01*
X154583Y949399D01*
X154643Y949424D01*
X154678Y949455D01*
X154719Y949480D01*
X154761Y949531D01*
X154809Y949575D01*
X154831Y949617D01*
X154860Y949654D01*
X154881Y949716D01*
X154912Y949775D01*
X154920Y949829D01*
X154932Y949866D01*
X154931Y949906D01*
X154939Y949960D01*
X154939Y952500D01*
X154928Y952565D01*
X154926Y952631D01*
X154908Y952674D01*
X154900Y952721D01*
X154866Y952778D01*
X154841Y952838D01*
X154810Y952873D01*
X154785Y952914D01*
X154734Y952956D01*
X154690Y953004D01*
X154648Y953026D01*
X154611Y953055D01*
X154549Y953076D01*
X154490Y953107D01*
X154436Y953115D01*
X154399Y953127D01*
X154359Y953126D01*
X154305Y953134D01*
X150495Y953134D01*
X150430Y953123D01*
X150364Y953121D01*
X150321Y953103D01*
X150274Y953095D01*
X150217Y953061D01*
X150157Y953036D01*
X150122Y953005D01*
X150081Y952980D01*
X150040Y952929D01*
X149991Y952885D01*
X149969Y952843D01*
X149940Y952806D01*
X149919Y952744D01*
X149888Y952685D01*
X149880Y952631D01*
X149868Y952594D01*
X149868Y952591D01*
X149869Y952554D01*
X149861Y952500D01*
X149861Y949960D01*
X149872Y949895D01*
X149874Y949829D01*
X149892Y949786D01*
X149900Y949739D01*
X149934Y949682D01*
X149959Y949622D01*
X149990Y949587D01*
X150015Y949546D01*
X150066Y949505D01*
X150110Y949456D01*
X150152Y949434D01*
X150189Y949405D01*
X150251Y949384D01*
X150310Y949353D01*
X150364Y949345D01*
X150401Y949333D01*
X150441Y949334D01*
X150495Y949326D01*
X154305Y949326D01*
X154370Y949337D01*
G37*
G36*
X509970Y873137D02*
X509970Y873137D01*
X510036Y873139D01*
X510079Y873157D01*
X510126Y873165D01*
X510183Y873199D01*
X510243Y873224D01*
X510278Y873255D01*
X510319Y873280D01*
X510361Y873331D01*
X510409Y873375D01*
X510431Y873417D01*
X510460Y873454D01*
X510481Y873516D01*
X510512Y873575D01*
X510520Y873629D01*
X510532Y873666D01*
X510531Y873706D01*
X510539Y873760D01*
X510539Y876300D01*
X510528Y876365D01*
X510526Y876431D01*
X510508Y876474D01*
X510500Y876521D01*
X510466Y876578D01*
X510441Y876638D01*
X510410Y876673D01*
X510385Y876714D01*
X510334Y876756D01*
X510290Y876804D01*
X510248Y876826D01*
X510211Y876855D01*
X510149Y876876D01*
X510090Y876907D01*
X510036Y876915D01*
X509999Y876927D01*
X509959Y876926D01*
X509905Y876934D01*
X506095Y876934D01*
X506030Y876923D01*
X505964Y876921D01*
X505921Y876903D01*
X505874Y876895D01*
X505817Y876861D01*
X505757Y876836D01*
X505722Y876805D01*
X505681Y876780D01*
X505640Y876729D01*
X505591Y876685D01*
X505569Y876643D01*
X505540Y876606D01*
X505519Y876544D01*
X505488Y876485D01*
X505480Y876431D01*
X505468Y876394D01*
X505468Y876391D01*
X505469Y876354D01*
X505461Y876300D01*
X505461Y873760D01*
X505472Y873695D01*
X505474Y873629D01*
X505492Y873586D01*
X505500Y873539D01*
X505534Y873482D01*
X505559Y873422D01*
X505590Y873387D01*
X505615Y873346D01*
X505666Y873305D01*
X505710Y873256D01*
X505752Y873234D01*
X505789Y873205D01*
X505851Y873184D01*
X505910Y873153D01*
X505964Y873145D01*
X506001Y873133D01*
X506041Y873134D01*
X506095Y873126D01*
X509905Y873126D01*
X509970Y873137D01*
G37*
G36*
X128970Y873137D02*
X128970Y873137D01*
X129036Y873139D01*
X129079Y873157D01*
X129126Y873165D01*
X129183Y873199D01*
X129243Y873224D01*
X129278Y873255D01*
X129319Y873280D01*
X129361Y873331D01*
X129409Y873375D01*
X129431Y873417D01*
X129460Y873454D01*
X129481Y873516D01*
X129512Y873575D01*
X129520Y873629D01*
X129532Y873666D01*
X129531Y873706D01*
X129539Y873760D01*
X129539Y876300D01*
X129528Y876365D01*
X129526Y876431D01*
X129508Y876474D01*
X129500Y876521D01*
X129466Y876578D01*
X129441Y876638D01*
X129410Y876673D01*
X129385Y876714D01*
X129334Y876756D01*
X129290Y876804D01*
X129248Y876826D01*
X129211Y876855D01*
X129149Y876876D01*
X129090Y876907D01*
X129036Y876915D01*
X128999Y876927D01*
X128959Y876926D01*
X128905Y876934D01*
X125095Y876934D01*
X125030Y876923D01*
X124964Y876921D01*
X124921Y876903D01*
X124874Y876895D01*
X124817Y876861D01*
X124757Y876836D01*
X124722Y876805D01*
X124681Y876780D01*
X124640Y876729D01*
X124591Y876685D01*
X124569Y876643D01*
X124540Y876606D01*
X124519Y876544D01*
X124488Y876485D01*
X124480Y876431D01*
X124468Y876394D01*
X124468Y876391D01*
X124469Y876354D01*
X124461Y876300D01*
X124461Y873760D01*
X124472Y873695D01*
X124474Y873629D01*
X124492Y873586D01*
X124500Y873539D01*
X124534Y873482D01*
X124559Y873422D01*
X124590Y873387D01*
X124615Y873346D01*
X124666Y873305D01*
X124710Y873256D01*
X124752Y873234D01*
X124789Y873205D01*
X124851Y873184D01*
X124910Y873153D01*
X124964Y873145D01*
X125001Y873133D01*
X125041Y873134D01*
X125095Y873126D01*
X128905Y873126D01*
X128970Y873137D01*
G37*
G36*
X489650Y790587D02*
X489650Y790587D01*
X489716Y790589D01*
X489759Y790607D01*
X489806Y790615D01*
X489863Y790649D01*
X489923Y790674D01*
X489958Y790705D01*
X489999Y790730D01*
X490041Y790781D01*
X490089Y790825D01*
X490111Y790867D01*
X490140Y790904D01*
X490161Y790966D01*
X490192Y791025D01*
X490200Y791079D01*
X490212Y791116D01*
X490211Y791156D01*
X490219Y791210D01*
X490219Y793750D01*
X490208Y793815D01*
X490206Y793881D01*
X490188Y793924D01*
X490180Y793971D01*
X490146Y794028D01*
X490121Y794088D01*
X490090Y794123D01*
X490065Y794164D01*
X490014Y794206D01*
X489970Y794254D01*
X489928Y794276D01*
X489891Y794305D01*
X489829Y794326D01*
X489770Y794357D01*
X489716Y794365D01*
X489679Y794377D01*
X489639Y794376D01*
X489585Y794384D01*
X485775Y794384D01*
X485710Y794373D01*
X485644Y794371D01*
X485601Y794353D01*
X485554Y794345D01*
X485497Y794311D01*
X485437Y794286D01*
X485402Y794255D01*
X485361Y794230D01*
X485320Y794179D01*
X485271Y794135D01*
X485249Y794093D01*
X485220Y794056D01*
X485199Y793994D01*
X485168Y793935D01*
X485160Y793881D01*
X485148Y793844D01*
X485148Y793841D01*
X485149Y793804D01*
X485141Y793750D01*
X485141Y791210D01*
X485152Y791145D01*
X485154Y791079D01*
X485172Y791036D01*
X485180Y790989D01*
X485214Y790932D01*
X485239Y790872D01*
X485270Y790837D01*
X485295Y790796D01*
X485346Y790755D01*
X485390Y790706D01*
X485432Y790684D01*
X485469Y790655D01*
X485531Y790634D01*
X485590Y790603D01*
X485644Y790595D01*
X485681Y790583D01*
X485721Y790584D01*
X485775Y790576D01*
X489585Y790576D01*
X489650Y790587D01*
G37*
G36*
X479490Y790587D02*
X479490Y790587D01*
X479556Y790589D01*
X479599Y790607D01*
X479646Y790615D01*
X479703Y790649D01*
X479763Y790674D01*
X479798Y790705D01*
X479839Y790730D01*
X479881Y790781D01*
X479929Y790825D01*
X479951Y790867D01*
X479980Y790904D01*
X480001Y790966D01*
X480032Y791025D01*
X480040Y791079D01*
X480052Y791116D01*
X480051Y791156D01*
X480059Y791210D01*
X480059Y793750D01*
X480048Y793815D01*
X480046Y793881D01*
X480028Y793924D01*
X480020Y793971D01*
X479986Y794028D01*
X479961Y794088D01*
X479930Y794123D01*
X479905Y794164D01*
X479854Y794206D01*
X479810Y794254D01*
X479768Y794276D01*
X479731Y794305D01*
X479669Y794326D01*
X479610Y794357D01*
X479556Y794365D01*
X479519Y794377D01*
X479479Y794376D01*
X479425Y794384D01*
X475615Y794384D01*
X475550Y794373D01*
X475484Y794371D01*
X475441Y794353D01*
X475394Y794345D01*
X475337Y794311D01*
X475277Y794286D01*
X475242Y794255D01*
X475201Y794230D01*
X475160Y794179D01*
X475111Y794135D01*
X475089Y794093D01*
X475060Y794056D01*
X475039Y793994D01*
X475008Y793935D01*
X475000Y793881D01*
X474988Y793844D01*
X474988Y793841D01*
X474989Y793804D01*
X474981Y793750D01*
X474981Y791210D01*
X474992Y791145D01*
X474994Y791079D01*
X475012Y791036D01*
X475020Y790989D01*
X475054Y790932D01*
X475079Y790872D01*
X475110Y790837D01*
X475135Y790796D01*
X475186Y790755D01*
X475230Y790706D01*
X475272Y790684D01*
X475309Y790655D01*
X475371Y790634D01*
X475430Y790603D01*
X475484Y790595D01*
X475521Y790583D01*
X475561Y790584D01*
X475615Y790576D01*
X479425Y790576D01*
X479490Y790587D01*
G37*
G36*
X446470Y790587D02*
X446470Y790587D01*
X446536Y790589D01*
X446579Y790607D01*
X446626Y790615D01*
X446683Y790649D01*
X446743Y790674D01*
X446778Y790705D01*
X446819Y790730D01*
X446861Y790781D01*
X446909Y790825D01*
X446931Y790867D01*
X446960Y790904D01*
X446981Y790966D01*
X447012Y791025D01*
X447020Y791079D01*
X447032Y791116D01*
X447031Y791156D01*
X447039Y791210D01*
X447039Y793750D01*
X447028Y793815D01*
X447026Y793881D01*
X447008Y793924D01*
X447000Y793971D01*
X446966Y794028D01*
X446941Y794088D01*
X446910Y794123D01*
X446885Y794164D01*
X446834Y794206D01*
X446790Y794254D01*
X446748Y794276D01*
X446711Y794305D01*
X446649Y794326D01*
X446590Y794357D01*
X446536Y794365D01*
X446499Y794377D01*
X446459Y794376D01*
X446405Y794384D01*
X442595Y794384D01*
X442530Y794373D01*
X442464Y794371D01*
X442421Y794353D01*
X442374Y794345D01*
X442317Y794311D01*
X442257Y794286D01*
X442222Y794255D01*
X442181Y794230D01*
X442140Y794179D01*
X442091Y794135D01*
X442069Y794093D01*
X442040Y794056D01*
X442019Y793994D01*
X441988Y793935D01*
X441980Y793881D01*
X441968Y793844D01*
X441968Y793841D01*
X441969Y793804D01*
X441961Y793750D01*
X441961Y791210D01*
X441972Y791145D01*
X441974Y791079D01*
X441992Y791036D01*
X442000Y790989D01*
X442034Y790932D01*
X442059Y790872D01*
X442090Y790837D01*
X442115Y790796D01*
X442166Y790755D01*
X442210Y790706D01*
X442252Y790684D01*
X442289Y790655D01*
X442351Y790634D01*
X442410Y790603D01*
X442464Y790595D01*
X442501Y790583D01*
X442541Y790584D01*
X442595Y790576D01*
X446405Y790576D01*
X446470Y790587D01*
G37*
G36*
X605220Y650887D02*
X605220Y650887D01*
X605286Y650889D01*
X605329Y650907D01*
X605376Y650915D01*
X605433Y650949D01*
X605493Y650974D01*
X605528Y651005D01*
X605569Y651030D01*
X605611Y651081D01*
X605659Y651125D01*
X605681Y651167D01*
X605710Y651204D01*
X605731Y651266D01*
X605762Y651325D01*
X605770Y651379D01*
X605782Y651416D01*
X605781Y651456D01*
X605789Y651510D01*
X605789Y654050D01*
X605778Y654115D01*
X605776Y654181D01*
X605758Y654224D01*
X605750Y654271D01*
X605716Y654328D01*
X605691Y654388D01*
X605660Y654423D01*
X605635Y654464D01*
X605584Y654506D01*
X605540Y654554D01*
X605498Y654576D01*
X605461Y654605D01*
X605399Y654626D01*
X605340Y654657D01*
X605286Y654665D01*
X605249Y654677D01*
X605209Y654676D01*
X605155Y654684D01*
X601345Y654684D01*
X601280Y654673D01*
X601214Y654671D01*
X601171Y654653D01*
X601124Y654645D01*
X601067Y654611D01*
X601007Y654586D01*
X600972Y654555D01*
X600931Y654530D01*
X600890Y654479D01*
X600841Y654435D01*
X600819Y654393D01*
X600790Y654356D01*
X600769Y654294D01*
X600738Y654235D01*
X600730Y654181D01*
X600718Y654144D01*
X600718Y654141D01*
X600719Y654104D01*
X600711Y654050D01*
X600711Y651510D01*
X600722Y651445D01*
X600724Y651379D01*
X600742Y651336D01*
X600750Y651289D01*
X600784Y651232D01*
X600809Y651172D01*
X600840Y651137D01*
X600865Y651096D01*
X600916Y651055D01*
X600960Y651006D01*
X601002Y650984D01*
X601039Y650955D01*
X601101Y650934D01*
X601160Y650903D01*
X601214Y650895D01*
X601251Y650883D01*
X601291Y650884D01*
X601345Y650876D01*
X605155Y650876D01*
X605220Y650887D01*
G37*
G36*
X605220Y625487D02*
X605220Y625487D01*
X605286Y625489D01*
X605329Y625507D01*
X605376Y625515D01*
X605433Y625549D01*
X605493Y625574D01*
X605528Y625605D01*
X605569Y625630D01*
X605611Y625681D01*
X605659Y625725D01*
X605681Y625767D01*
X605710Y625804D01*
X605731Y625866D01*
X605762Y625925D01*
X605770Y625979D01*
X605782Y626016D01*
X605781Y626056D01*
X605789Y626110D01*
X605789Y628650D01*
X605778Y628715D01*
X605776Y628781D01*
X605758Y628824D01*
X605750Y628871D01*
X605716Y628928D01*
X605691Y628988D01*
X605660Y629023D01*
X605635Y629064D01*
X605584Y629106D01*
X605540Y629154D01*
X605498Y629176D01*
X605461Y629205D01*
X605399Y629226D01*
X605340Y629257D01*
X605286Y629265D01*
X605249Y629277D01*
X605209Y629276D01*
X605155Y629284D01*
X601345Y629284D01*
X601280Y629273D01*
X601214Y629271D01*
X601171Y629253D01*
X601124Y629245D01*
X601067Y629211D01*
X601007Y629186D01*
X600972Y629155D01*
X600931Y629130D01*
X600890Y629079D01*
X600841Y629035D01*
X600819Y628993D01*
X600790Y628956D01*
X600769Y628894D01*
X600738Y628835D01*
X600730Y628781D01*
X600718Y628744D01*
X600718Y628741D01*
X600719Y628704D01*
X600711Y628650D01*
X600711Y626110D01*
X600722Y626045D01*
X600724Y625979D01*
X600742Y625936D01*
X600750Y625889D01*
X600784Y625832D01*
X600809Y625772D01*
X600840Y625737D01*
X600865Y625696D01*
X600916Y625655D01*
X600960Y625606D01*
X601002Y625584D01*
X601039Y625555D01*
X601101Y625534D01*
X601160Y625503D01*
X601214Y625495D01*
X601251Y625483D01*
X601291Y625484D01*
X601345Y625476D01*
X605155Y625476D01*
X605220Y625487D01*
G37*
G36*
X141670Y587387D02*
X141670Y587387D01*
X141736Y587389D01*
X141779Y587407D01*
X141826Y587415D01*
X141883Y587449D01*
X141943Y587474D01*
X141978Y587505D01*
X142019Y587530D01*
X142061Y587581D01*
X142109Y587625D01*
X142131Y587667D01*
X142160Y587704D01*
X142181Y587766D01*
X142212Y587825D01*
X142220Y587879D01*
X142232Y587916D01*
X142231Y587956D01*
X142239Y588010D01*
X142239Y590550D01*
X142228Y590615D01*
X142226Y590681D01*
X142208Y590724D01*
X142200Y590771D01*
X142166Y590828D01*
X142141Y590888D01*
X142110Y590923D01*
X142085Y590964D01*
X142034Y591006D01*
X141990Y591054D01*
X141948Y591076D01*
X141911Y591105D01*
X141849Y591126D01*
X141790Y591157D01*
X141736Y591165D01*
X141699Y591177D01*
X141659Y591176D01*
X141605Y591184D01*
X137795Y591184D01*
X137730Y591173D01*
X137664Y591171D01*
X137621Y591153D01*
X137574Y591145D01*
X137517Y591111D01*
X137457Y591086D01*
X137422Y591055D01*
X137381Y591030D01*
X137340Y590979D01*
X137291Y590935D01*
X137269Y590893D01*
X137240Y590856D01*
X137219Y590794D01*
X137188Y590735D01*
X137180Y590681D01*
X137168Y590644D01*
X137168Y590641D01*
X137169Y590604D01*
X137161Y590550D01*
X137161Y588010D01*
X137172Y587945D01*
X137174Y587879D01*
X137192Y587836D01*
X137200Y587789D01*
X137234Y587732D01*
X137259Y587672D01*
X137290Y587637D01*
X137315Y587596D01*
X137366Y587555D01*
X137410Y587506D01*
X137452Y587484D01*
X137489Y587455D01*
X137551Y587434D01*
X137610Y587403D01*
X137664Y587395D01*
X137701Y587383D01*
X137741Y587384D01*
X137795Y587376D01*
X141605Y587376D01*
X141670Y587387D01*
G37*
G36*
X154370Y429907D02*
X154370Y429907D01*
X154436Y429909D01*
X154479Y429927D01*
X154526Y429935D01*
X154583Y429969D01*
X154643Y429994D01*
X154678Y430025D01*
X154719Y430050D01*
X154761Y430101D01*
X154809Y430145D01*
X154831Y430187D01*
X154860Y430224D01*
X154881Y430286D01*
X154912Y430345D01*
X154920Y430399D01*
X154932Y430436D01*
X154931Y430476D01*
X154939Y430530D01*
X154939Y433070D01*
X154928Y433135D01*
X154926Y433201D01*
X154908Y433244D01*
X154900Y433291D01*
X154866Y433348D01*
X154841Y433408D01*
X154810Y433443D01*
X154785Y433484D01*
X154734Y433526D01*
X154690Y433574D01*
X154648Y433596D01*
X154611Y433625D01*
X154549Y433646D01*
X154490Y433677D01*
X154436Y433685D01*
X154399Y433697D01*
X154359Y433696D01*
X154305Y433704D01*
X150495Y433704D01*
X150430Y433693D01*
X150364Y433691D01*
X150321Y433673D01*
X150274Y433665D01*
X150217Y433631D01*
X150157Y433606D01*
X150122Y433575D01*
X150081Y433550D01*
X150040Y433499D01*
X149991Y433455D01*
X149969Y433413D01*
X149940Y433376D01*
X149919Y433314D01*
X149888Y433255D01*
X149880Y433201D01*
X149868Y433164D01*
X149868Y433161D01*
X149869Y433124D01*
X149861Y433070D01*
X149861Y430530D01*
X149872Y430465D01*
X149874Y430399D01*
X149892Y430356D01*
X149900Y430309D01*
X149934Y430252D01*
X149959Y430192D01*
X149990Y430157D01*
X150015Y430116D01*
X150066Y430075D01*
X150110Y430026D01*
X150152Y430004D01*
X150189Y429975D01*
X150251Y429954D01*
X150310Y429923D01*
X150364Y429915D01*
X150401Y429903D01*
X150441Y429904D01*
X150495Y429896D01*
X154305Y429896D01*
X154370Y429907D01*
G37*
G36*
X154370Y404507D02*
X154370Y404507D01*
X154436Y404509D01*
X154479Y404527D01*
X154526Y404535D01*
X154583Y404569D01*
X154643Y404594D01*
X154678Y404625D01*
X154719Y404650D01*
X154761Y404701D01*
X154809Y404745D01*
X154831Y404787D01*
X154860Y404824D01*
X154881Y404886D01*
X154912Y404945D01*
X154920Y404999D01*
X154932Y405036D01*
X154931Y405076D01*
X154939Y405130D01*
X154939Y407670D01*
X154928Y407735D01*
X154926Y407801D01*
X154908Y407844D01*
X154900Y407891D01*
X154866Y407948D01*
X154841Y408008D01*
X154810Y408043D01*
X154785Y408084D01*
X154734Y408126D01*
X154690Y408174D01*
X154648Y408196D01*
X154611Y408225D01*
X154549Y408246D01*
X154490Y408277D01*
X154436Y408285D01*
X154399Y408297D01*
X154359Y408296D01*
X154305Y408304D01*
X150495Y408304D01*
X150430Y408293D01*
X150364Y408291D01*
X150321Y408273D01*
X150274Y408265D01*
X150217Y408231D01*
X150157Y408206D01*
X150122Y408175D01*
X150081Y408150D01*
X150040Y408099D01*
X149991Y408055D01*
X149969Y408013D01*
X149940Y407976D01*
X149919Y407914D01*
X149888Y407855D01*
X149880Y407801D01*
X149868Y407764D01*
X149868Y407761D01*
X149869Y407724D01*
X149861Y407670D01*
X149861Y405130D01*
X149872Y405065D01*
X149874Y404999D01*
X149892Y404956D01*
X149900Y404909D01*
X149934Y404852D01*
X149959Y404792D01*
X149990Y404757D01*
X150015Y404716D01*
X150066Y404675D01*
X150110Y404626D01*
X150152Y404604D01*
X150189Y404575D01*
X150251Y404554D01*
X150310Y404523D01*
X150364Y404515D01*
X150401Y404503D01*
X150441Y404504D01*
X150495Y404496D01*
X154305Y404496D01*
X154370Y404507D01*
G37*
G36*
X509970Y328307D02*
X509970Y328307D01*
X510036Y328309D01*
X510079Y328327D01*
X510126Y328335D01*
X510183Y328369D01*
X510243Y328394D01*
X510278Y328425D01*
X510319Y328450D01*
X510361Y328501D01*
X510409Y328545D01*
X510431Y328587D01*
X510460Y328624D01*
X510481Y328686D01*
X510512Y328745D01*
X510520Y328799D01*
X510532Y328836D01*
X510531Y328876D01*
X510539Y328930D01*
X510539Y331470D01*
X510528Y331535D01*
X510526Y331601D01*
X510508Y331644D01*
X510500Y331691D01*
X510466Y331748D01*
X510441Y331808D01*
X510410Y331843D01*
X510385Y331884D01*
X510334Y331926D01*
X510290Y331974D01*
X510248Y331996D01*
X510211Y332025D01*
X510149Y332046D01*
X510090Y332077D01*
X510036Y332085D01*
X509999Y332097D01*
X509959Y332096D01*
X509905Y332104D01*
X506095Y332104D01*
X506030Y332093D01*
X505964Y332091D01*
X505921Y332073D01*
X505874Y332065D01*
X505817Y332031D01*
X505757Y332006D01*
X505722Y331975D01*
X505681Y331950D01*
X505640Y331899D01*
X505591Y331855D01*
X505569Y331813D01*
X505540Y331776D01*
X505519Y331714D01*
X505488Y331655D01*
X505480Y331601D01*
X505468Y331564D01*
X505468Y331561D01*
X505469Y331524D01*
X505461Y331470D01*
X505461Y328930D01*
X505472Y328865D01*
X505474Y328799D01*
X505492Y328756D01*
X505500Y328709D01*
X505534Y328652D01*
X505559Y328592D01*
X505590Y328557D01*
X505615Y328516D01*
X505666Y328475D01*
X505710Y328426D01*
X505752Y328404D01*
X505789Y328375D01*
X505851Y328354D01*
X505910Y328323D01*
X505964Y328315D01*
X506001Y328303D01*
X506041Y328304D01*
X506095Y328296D01*
X509905Y328296D01*
X509970Y328307D01*
G37*
G36*
X128970Y328307D02*
X128970Y328307D01*
X129036Y328309D01*
X129079Y328327D01*
X129126Y328335D01*
X129183Y328369D01*
X129243Y328394D01*
X129278Y328425D01*
X129319Y328450D01*
X129361Y328501D01*
X129409Y328545D01*
X129431Y328587D01*
X129460Y328624D01*
X129481Y328686D01*
X129512Y328745D01*
X129520Y328799D01*
X129532Y328836D01*
X129531Y328876D01*
X129539Y328930D01*
X129539Y331470D01*
X129528Y331535D01*
X129526Y331601D01*
X129508Y331644D01*
X129500Y331691D01*
X129466Y331748D01*
X129441Y331808D01*
X129410Y331843D01*
X129385Y331884D01*
X129334Y331926D01*
X129290Y331974D01*
X129248Y331996D01*
X129211Y332025D01*
X129149Y332046D01*
X129090Y332077D01*
X129036Y332085D01*
X128999Y332097D01*
X128959Y332096D01*
X128905Y332104D01*
X125095Y332104D01*
X125030Y332093D01*
X124964Y332091D01*
X124921Y332073D01*
X124874Y332065D01*
X124817Y332031D01*
X124757Y332006D01*
X124722Y331975D01*
X124681Y331950D01*
X124640Y331899D01*
X124591Y331855D01*
X124569Y331813D01*
X124540Y331776D01*
X124519Y331714D01*
X124488Y331655D01*
X124480Y331601D01*
X124468Y331564D01*
X124468Y331561D01*
X124469Y331524D01*
X124461Y331470D01*
X124461Y328930D01*
X124472Y328865D01*
X124474Y328799D01*
X124492Y328756D01*
X124500Y328709D01*
X124534Y328652D01*
X124559Y328592D01*
X124590Y328557D01*
X124615Y328516D01*
X124666Y328475D01*
X124710Y328426D01*
X124752Y328404D01*
X124789Y328375D01*
X124851Y328354D01*
X124910Y328323D01*
X124964Y328315D01*
X125001Y328303D01*
X125041Y328304D01*
X125095Y328296D01*
X128905Y328296D01*
X128970Y328307D01*
G37*
G36*
X489650Y245757D02*
X489650Y245757D01*
X489716Y245759D01*
X489759Y245777D01*
X489806Y245785D01*
X489863Y245819D01*
X489923Y245844D01*
X489958Y245875D01*
X489999Y245900D01*
X490041Y245951D01*
X490089Y245995D01*
X490111Y246037D01*
X490140Y246074D01*
X490161Y246136D01*
X490192Y246195D01*
X490200Y246249D01*
X490212Y246286D01*
X490211Y246326D01*
X490219Y246380D01*
X490219Y248920D01*
X490208Y248985D01*
X490206Y249051D01*
X490188Y249094D01*
X490180Y249141D01*
X490146Y249198D01*
X490121Y249258D01*
X490090Y249293D01*
X490065Y249334D01*
X490014Y249376D01*
X489970Y249424D01*
X489928Y249446D01*
X489891Y249475D01*
X489829Y249496D01*
X489770Y249527D01*
X489716Y249535D01*
X489679Y249547D01*
X489639Y249546D01*
X489585Y249554D01*
X485775Y249554D01*
X485710Y249543D01*
X485644Y249541D01*
X485601Y249523D01*
X485554Y249515D01*
X485497Y249481D01*
X485437Y249456D01*
X485402Y249425D01*
X485361Y249400D01*
X485320Y249349D01*
X485271Y249305D01*
X485249Y249263D01*
X485220Y249226D01*
X485199Y249164D01*
X485168Y249105D01*
X485160Y249051D01*
X485148Y249014D01*
X485148Y249011D01*
X485149Y248974D01*
X485141Y248920D01*
X485141Y246380D01*
X485152Y246315D01*
X485154Y246249D01*
X485172Y246206D01*
X485180Y246159D01*
X485214Y246102D01*
X485239Y246042D01*
X485270Y246007D01*
X485295Y245966D01*
X485346Y245925D01*
X485390Y245876D01*
X485432Y245854D01*
X485469Y245825D01*
X485531Y245804D01*
X485590Y245773D01*
X485644Y245765D01*
X485681Y245753D01*
X485721Y245754D01*
X485775Y245746D01*
X489585Y245746D01*
X489650Y245757D01*
G37*
G36*
X479490Y245757D02*
X479490Y245757D01*
X479556Y245759D01*
X479599Y245777D01*
X479646Y245785D01*
X479703Y245819D01*
X479763Y245844D01*
X479798Y245875D01*
X479839Y245900D01*
X479881Y245951D01*
X479929Y245995D01*
X479951Y246037D01*
X479980Y246074D01*
X480001Y246136D01*
X480032Y246195D01*
X480040Y246249D01*
X480052Y246286D01*
X480051Y246326D01*
X480059Y246380D01*
X480059Y248920D01*
X480048Y248985D01*
X480046Y249051D01*
X480028Y249094D01*
X480020Y249141D01*
X479986Y249198D01*
X479961Y249258D01*
X479930Y249293D01*
X479905Y249334D01*
X479854Y249376D01*
X479810Y249424D01*
X479768Y249446D01*
X479731Y249475D01*
X479669Y249496D01*
X479610Y249527D01*
X479556Y249535D01*
X479519Y249547D01*
X479479Y249546D01*
X479425Y249554D01*
X475615Y249554D01*
X475550Y249543D01*
X475484Y249541D01*
X475441Y249523D01*
X475394Y249515D01*
X475337Y249481D01*
X475277Y249456D01*
X475242Y249425D01*
X475201Y249400D01*
X475160Y249349D01*
X475111Y249305D01*
X475089Y249263D01*
X475060Y249226D01*
X475039Y249164D01*
X475008Y249105D01*
X475000Y249051D01*
X474988Y249014D01*
X474988Y249011D01*
X474989Y248974D01*
X474981Y248920D01*
X474981Y246380D01*
X474992Y246315D01*
X474994Y246249D01*
X475012Y246206D01*
X475020Y246159D01*
X475054Y246102D01*
X475079Y246042D01*
X475110Y246007D01*
X475135Y245966D01*
X475186Y245925D01*
X475230Y245876D01*
X475272Y245854D01*
X475309Y245825D01*
X475371Y245804D01*
X475430Y245773D01*
X475484Y245765D01*
X475521Y245753D01*
X475561Y245754D01*
X475615Y245746D01*
X479425Y245746D01*
X479490Y245757D01*
G37*
G36*
X446470Y245757D02*
X446470Y245757D01*
X446536Y245759D01*
X446579Y245777D01*
X446626Y245785D01*
X446683Y245819D01*
X446743Y245844D01*
X446778Y245875D01*
X446819Y245900D01*
X446861Y245951D01*
X446909Y245995D01*
X446931Y246037D01*
X446960Y246074D01*
X446981Y246136D01*
X447012Y246195D01*
X447020Y246249D01*
X447032Y246286D01*
X447031Y246326D01*
X447039Y246380D01*
X447039Y248920D01*
X447028Y248985D01*
X447026Y249051D01*
X447008Y249094D01*
X447000Y249141D01*
X446966Y249198D01*
X446941Y249258D01*
X446910Y249293D01*
X446885Y249334D01*
X446834Y249376D01*
X446790Y249424D01*
X446748Y249446D01*
X446711Y249475D01*
X446649Y249496D01*
X446590Y249527D01*
X446536Y249535D01*
X446499Y249547D01*
X446459Y249546D01*
X446405Y249554D01*
X442595Y249554D01*
X442530Y249543D01*
X442464Y249541D01*
X442421Y249523D01*
X442374Y249515D01*
X442317Y249481D01*
X442257Y249456D01*
X442222Y249425D01*
X442181Y249400D01*
X442140Y249349D01*
X442091Y249305D01*
X442069Y249263D01*
X442040Y249226D01*
X442019Y249164D01*
X441988Y249105D01*
X441980Y249051D01*
X441968Y249014D01*
X441968Y249011D01*
X441969Y248974D01*
X441961Y248920D01*
X441961Y246380D01*
X441972Y246315D01*
X441974Y246249D01*
X441992Y246206D01*
X442000Y246159D01*
X442034Y246102D01*
X442059Y246042D01*
X442090Y246007D01*
X442115Y245966D01*
X442166Y245925D01*
X442210Y245876D01*
X442252Y245854D01*
X442289Y245825D01*
X442351Y245804D01*
X442410Y245773D01*
X442464Y245765D01*
X442501Y245753D01*
X442541Y245754D01*
X442595Y245746D01*
X446405Y245746D01*
X446470Y245757D01*
G37*
G36*
X605220Y80657D02*
X605220Y80657D01*
X605286Y80659D01*
X605329Y80677D01*
X605376Y80685D01*
X605433Y80719D01*
X605493Y80744D01*
X605528Y80775D01*
X605569Y80800D01*
X605611Y80851D01*
X605659Y80895D01*
X605681Y80937D01*
X605710Y80974D01*
X605731Y81036D01*
X605762Y81095D01*
X605770Y81149D01*
X605782Y81186D01*
X605781Y81226D01*
X605789Y81280D01*
X605789Y83820D01*
X605778Y83885D01*
X605776Y83951D01*
X605758Y83994D01*
X605750Y84041D01*
X605716Y84098D01*
X605691Y84158D01*
X605660Y84193D01*
X605635Y84234D01*
X605584Y84276D01*
X605540Y84324D01*
X605498Y84346D01*
X605461Y84375D01*
X605399Y84396D01*
X605340Y84427D01*
X605286Y84435D01*
X605249Y84447D01*
X605209Y84446D01*
X605155Y84454D01*
X601345Y84454D01*
X601280Y84443D01*
X601214Y84441D01*
X601171Y84423D01*
X601124Y84415D01*
X601067Y84381D01*
X601007Y84356D01*
X600972Y84325D01*
X600931Y84300D01*
X600890Y84249D01*
X600841Y84205D01*
X600819Y84163D01*
X600790Y84126D01*
X600769Y84064D01*
X600738Y84005D01*
X600730Y83951D01*
X600718Y83914D01*
X600718Y83911D01*
X600719Y83874D01*
X600711Y83820D01*
X600711Y81280D01*
X600722Y81215D01*
X600724Y81149D01*
X600742Y81106D01*
X600750Y81059D01*
X600784Y81002D01*
X600809Y80942D01*
X600840Y80907D01*
X600865Y80866D01*
X600916Y80825D01*
X600960Y80776D01*
X601002Y80754D01*
X601039Y80725D01*
X601101Y80704D01*
X601160Y80673D01*
X601214Y80665D01*
X601251Y80653D01*
X601291Y80654D01*
X601345Y80646D01*
X605155Y80646D01*
X605220Y80657D01*
G37*
G36*
X141670Y42557D02*
X141670Y42557D01*
X141736Y42559D01*
X141779Y42577D01*
X141826Y42585D01*
X141883Y42619D01*
X141943Y42644D01*
X141978Y42675D01*
X142019Y42700D01*
X142061Y42751D01*
X142109Y42795D01*
X142131Y42837D01*
X142160Y42874D01*
X142181Y42936D01*
X142212Y42995D01*
X142220Y43049D01*
X142232Y43086D01*
X142231Y43126D01*
X142239Y43180D01*
X142239Y45720D01*
X142228Y45785D01*
X142226Y45851D01*
X142208Y45894D01*
X142200Y45941D01*
X142166Y45998D01*
X142141Y46058D01*
X142110Y46093D01*
X142085Y46134D01*
X142034Y46176D01*
X141990Y46224D01*
X141948Y46246D01*
X141911Y46275D01*
X141849Y46296D01*
X141790Y46327D01*
X141736Y46335D01*
X141699Y46347D01*
X141659Y46346D01*
X141605Y46354D01*
X137795Y46354D01*
X137730Y46343D01*
X137664Y46341D01*
X137621Y46323D01*
X137574Y46315D01*
X137517Y46281D01*
X137457Y46256D01*
X137422Y46225D01*
X137381Y46200D01*
X137340Y46149D01*
X137291Y46105D01*
X137269Y46063D01*
X137240Y46026D01*
X137219Y45964D01*
X137188Y45905D01*
X137180Y45851D01*
X137168Y45814D01*
X137168Y45811D01*
X137169Y45774D01*
X137161Y45720D01*
X137161Y43180D01*
X137172Y43115D01*
X137174Y43049D01*
X137192Y43006D01*
X137200Y42959D01*
X137234Y42902D01*
X137259Y42842D01*
X137290Y42807D01*
X137315Y42766D01*
X137366Y42725D01*
X137410Y42676D01*
X137452Y42654D01*
X137489Y42625D01*
X137551Y42604D01*
X137610Y42573D01*
X137664Y42565D01*
X137701Y42553D01*
X137741Y42554D01*
X137795Y42546D01*
X141605Y42546D01*
X141670Y42557D01*
G37*
D10*
X609600Y488950D03*
X25400Y50800D03*
D11*
X609600Y25400D03*
X609600Y514350D03*
X25400Y514350D03*
X25400Y25400D03*
D12*
X605653Y113802D02*
X611261Y113802D01*
X611261Y102098D01*
X605653Y102098D01*
X605653Y113802D01*
X605653Y104492D02*
X611261Y104492D01*
X611261Y106886D02*
X605653Y106886D01*
X605653Y109280D02*
X611261Y109280D01*
X611261Y111674D02*
X605653Y111674D01*
X600847Y113802D02*
X595239Y113802D01*
X600847Y113802D02*
X600847Y102098D01*
X595239Y102098D01*
X595239Y113802D01*
X595239Y104492D02*
X600847Y104492D01*
X600847Y106886D02*
X595239Y106886D01*
X595239Y109280D02*
X600847Y109280D01*
X600847Y111674D02*
X595239Y111674D01*
D13*
X11430Y165100D03*
X13970Y190500D03*
X11430Y215900D03*
X623570Y215900D03*
X621030Y190500D03*
X623570Y165100D03*
D12*
X135011Y336052D02*
X129403Y336052D01*
X135011Y336052D02*
X135011Y324348D01*
X129403Y324348D01*
X129403Y336052D01*
X129403Y326742D02*
X135011Y326742D01*
X135011Y329136D02*
X129403Y329136D01*
X129403Y331530D02*
X135011Y331530D01*
X135011Y333924D02*
X129403Y333924D01*
X124597Y336052D02*
X118989Y336052D01*
X124597Y336052D02*
X124597Y324348D01*
X118989Y324348D01*
X118989Y336052D01*
X118989Y326742D02*
X124597Y326742D01*
X124597Y329136D02*
X118989Y329136D01*
X118989Y331530D02*
X124597Y331530D01*
X124597Y333924D02*
X118989Y333924D01*
X499989Y324348D02*
X505597Y324348D01*
X499989Y324348D02*
X499989Y336052D01*
X505597Y336052D01*
X505597Y324348D01*
X505597Y326742D02*
X499989Y326742D01*
X499989Y329136D02*
X505597Y329136D01*
X505597Y331530D02*
X499989Y331530D01*
X499989Y333924D02*
X505597Y333924D01*
X510403Y324348D02*
X516011Y324348D01*
X510403Y324348D02*
X510403Y336052D01*
X516011Y336052D01*
X516011Y324348D01*
X516011Y326742D02*
X510403Y326742D01*
X510403Y329136D02*
X516011Y329136D01*
X516011Y331530D02*
X510403Y331530D01*
X510403Y333924D02*
X516011Y333924D01*
D14*
X149700Y82550D02*
X129700Y82550D01*
X186690Y103030D02*
X186690Y123030D01*
D15*
X151200Y142240D02*
X128200Y142240D01*
D12*
X436489Y241798D02*
X442097Y241798D01*
X436489Y241798D02*
X436489Y253502D01*
X442097Y253502D01*
X442097Y241798D01*
X442097Y244192D02*
X436489Y244192D01*
X436489Y246586D02*
X442097Y246586D01*
X442097Y248980D02*
X436489Y248980D01*
X436489Y251374D02*
X442097Y251374D01*
X446903Y241798D02*
X452511Y241798D01*
X446903Y241798D02*
X446903Y253502D01*
X452511Y253502D01*
X452511Y241798D01*
X452511Y244192D02*
X446903Y244192D01*
X446903Y246586D02*
X452511Y246586D01*
X452511Y248980D02*
X446903Y248980D01*
X446903Y251374D02*
X452511Y251374D01*
X490210Y253502D02*
X495818Y253502D01*
X495818Y241798D01*
X490210Y241798D01*
X490210Y253502D01*
X490210Y244192D02*
X495818Y244192D01*
X495818Y246586D02*
X490210Y246586D01*
X490210Y248980D02*
X495818Y248980D01*
X495818Y251374D02*
X490210Y251374D01*
X485404Y253502D02*
X479796Y253502D01*
X485404Y253502D02*
X485404Y241798D01*
X479796Y241798D01*
X479796Y253502D01*
X479796Y244192D02*
X485404Y244192D01*
X485404Y246586D02*
X479796Y246586D01*
X479796Y248980D02*
X485404Y248980D01*
X485404Y251374D02*
X479796Y251374D01*
X474990Y253502D02*
X469382Y253502D01*
X474990Y253502D02*
X474990Y241798D01*
X469382Y241798D01*
X469382Y253502D01*
X469382Y244192D02*
X474990Y244192D01*
X474990Y246586D02*
X469382Y246586D01*
X469382Y248980D02*
X474990Y248980D01*
X474990Y251374D02*
X469382Y251374D01*
X137297Y38598D02*
X131689Y38598D01*
X131689Y50302D01*
X137297Y50302D01*
X137297Y38598D01*
X137297Y40992D02*
X131689Y40992D01*
X131689Y43386D02*
X137297Y43386D01*
X137297Y45780D02*
X131689Y45780D01*
X131689Y48174D02*
X137297Y48174D01*
X142103Y38598D02*
X147711Y38598D01*
X142103Y38598D02*
X142103Y50302D01*
X147711Y50302D01*
X147711Y38598D01*
X147711Y40992D02*
X142103Y40992D01*
X142103Y43386D02*
X147711Y43386D01*
X147711Y45780D02*
X142103Y45780D01*
X142103Y48174D02*
X147711Y48174D01*
D16*
X31750Y86600D03*
X31750Y116600D03*
D17*
X63500Y279400D03*
X38100Y266700D03*
X190500Y311150D03*
X215900Y304800D03*
X38100Y381000D03*
X63500Y368300D03*
X393700Y234950D03*
X393700Y260350D03*
X596900Y279400D03*
X571500Y292100D03*
X393700Y361950D03*
X393700Y387350D03*
X571500Y381000D03*
X596900Y393700D03*
X438150Y469900D03*
X438150Y501650D03*
X476250Y482600D03*
X488950Y457200D03*
X546100Y482600D03*
X558800Y457200D03*
X158750Y457200D03*
X88900Y457200D03*
X101600Y482600D03*
X171450Y482600D03*
X50800Y317500D03*
X76200Y317500D03*
X76200Y342900D03*
X50800Y342900D03*
X558800Y317500D03*
X584200Y342900D03*
X584200Y317500D03*
X558800Y342900D03*
X63500Y254000D03*
X584200Y63500D03*
X558800Y63500D03*
X508000Y165100D03*
D12*
X160411Y412252D02*
X154803Y412252D01*
X160411Y412252D02*
X160411Y400548D01*
X154803Y400548D01*
X154803Y412252D01*
X154803Y402942D02*
X160411Y402942D01*
X160411Y405336D02*
X154803Y405336D01*
X154803Y407730D02*
X160411Y407730D01*
X160411Y410124D02*
X154803Y410124D01*
X149997Y412252D02*
X144389Y412252D01*
X149997Y412252D02*
X149997Y400548D01*
X144389Y400548D01*
X144389Y412252D01*
X144389Y402942D02*
X149997Y402942D01*
X149997Y405336D02*
X144389Y405336D01*
X144389Y407730D02*
X149997Y407730D01*
X149997Y410124D02*
X144389Y410124D01*
D17*
X88900Y139700D03*
D12*
X144389Y425948D02*
X149997Y425948D01*
X144389Y425948D02*
X144389Y437652D01*
X149997Y437652D01*
X149997Y425948D01*
X149997Y428342D02*
X144389Y428342D01*
X144389Y430736D02*
X149997Y430736D01*
X149997Y433130D02*
X144389Y433130D01*
X144389Y435524D02*
X149997Y435524D01*
X154803Y425948D02*
X160411Y425948D01*
X154803Y425948D02*
X154803Y437652D01*
X160411Y437652D01*
X160411Y425948D01*
X160411Y428342D02*
X154803Y428342D01*
X154803Y430736D02*
X160411Y430736D01*
X160411Y433130D02*
X154803Y433130D01*
X154803Y435524D02*
X160411Y435524D01*
D17*
X508000Y228600D03*
X450850Y196850D03*
D12*
X595239Y76698D02*
X600847Y76698D01*
X595239Y76698D02*
X595239Y88402D01*
X600847Y88402D01*
X600847Y76698D01*
X600847Y79092D02*
X595239Y79092D01*
X595239Y81486D02*
X600847Y81486D01*
X600847Y83880D02*
X595239Y83880D01*
X595239Y86274D02*
X600847Y86274D01*
X605653Y76698D02*
X611261Y76698D01*
X605653Y76698D02*
X605653Y88402D01*
X611261Y88402D01*
X611261Y76698D01*
X611261Y79092D02*
X605653Y79092D01*
X605653Y81486D02*
X611261Y81486D01*
X611261Y83880D02*
X605653Y83880D01*
X605653Y86274D02*
X611261Y86274D01*
D10*
X609600Y1033780D03*
X25400Y595630D03*
D11*
X609600Y570230D03*
X609600Y1059180D03*
X25400Y1059180D03*
X25400Y570230D03*
D12*
X605653Y658632D02*
X611261Y658632D01*
X611261Y646928D01*
X605653Y646928D01*
X605653Y658632D01*
X605653Y649322D02*
X611261Y649322D01*
X611261Y651716D02*
X605653Y651716D01*
X605653Y654110D02*
X611261Y654110D01*
X611261Y656504D02*
X605653Y656504D01*
X600847Y658632D02*
X595239Y658632D01*
X600847Y658632D02*
X600847Y646928D01*
X595239Y646928D01*
X595239Y658632D01*
X595239Y649322D02*
X600847Y649322D01*
X600847Y651716D02*
X595239Y651716D01*
X595239Y654110D02*
X600847Y654110D01*
X600847Y656504D02*
X595239Y656504D01*
D13*
X11430Y709930D03*
X13970Y735330D03*
X11430Y760730D03*
X623570Y760730D03*
X621030Y735330D03*
X623570Y709930D03*
D12*
X135011Y880882D02*
X129403Y880882D01*
X135011Y880882D02*
X135011Y869178D01*
X129403Y869178D01*
X129403Y880882D01*
X129403Y871572D02*
X135011Y871572D01*
X135011Y873966D02*
X129403Y873966D01*
X129403Y876360D02*
X135011Y876360D01*
X135011Y878754D02*
X129403Y878754D01*
X124597Y880882D02*
X118989Y880882D01*
X124597Y880882D02*
X124597Y869178D01*
X118989Y869178D01*
X118989Y880882D01*
X118989Y871572D02*
X124597Y871572D01*
X124597Y873966D02*
X118989Y873966D01*
X118989Y876360D02*
X124597Y876360D01*
X124597Y878754D02*
X118989Y878754D01*
X499989Y869178D02*
X505597Y869178D01*
X499989Y869178D02*
X499989Y880882D01*
X505597Y880882D01*
X505597Y869178D01*
X505597Y871572D02*
X499989Y871572D01*
X499989Y873966D02*
X505597Y873966D01*
X505597Y876360D02*
X499989Y876360D01*
X499989Y878754D02*
X505597Y878754D01*
X510403Y869178D02*
X516011Y869178D01*
X510403Y869178D02*
X510403Y880882D01*
X516011Y880882D01*
X516011Y869178D01*
X516011Y871572D02*
X510403Y871572D01*
X510403Y873966D02*
X516011Y873966D01*
X516011Y876360D02*
X510403Y876360D01*
X510403Y878754D02*
X516011Y878754D01*
D14*
X149700Y627380D02*
X129700Y627380D01*
X186690Y647860D02*
X186690Y667860D01*
D15*
X151200Y687070D02*
X128200Y687070D01*
D12*
X436489Y786628D02*
X442097Y786628D01*
X436489Y786628D02*
X436489Y798332D01*
X442097Y798332D01*
X442097Y786628D01*
X442097Y789022D02*
X436489Y789022D01*
X436489Y791416D02*
X442097Y791416D01*
X442097Y793810D02*
X436489Y793810D01*
X436489Y796204D02*
X442097Y796204D01*
X446903Y786628D02*
X452511Y786628D01*
X446903Y786628D02*
X446903Y798332D01*
X452511Y798332D01*
X452511Y786628D01*
X452511Y789022D02*
X446903Y789022D01*
X446903Y791416D02*
X452511Y791416D01*
X452511Y793810D02*
X446903Y793810D01*
X446903Y796204D02*
X452511Y796204D01*
X490210Y798332D02*
X495818Y798332D01*
X495818Y786628D01*
X490210Y786628D01*
X490210Y798332D01*
X490210Y789022D02*
X495818Y789022D01*
X495818Y791416D02*
X490210Y791416D01*
X490210Y793810D02*
X495818Y793810D01*
X495818Y796204D02*
X490210Y796204D01*
X485404Y798332D02*
X479796Y798332D01*
X485404Y798332D02*
X485404Y786628D01*
X479796Y786628D01*
X479796Y798332D01*
X479796Y789022D02*
X485404Y789022D01*
X485404Y791416D02*
X479796Y791416D01*
X479796Y793810D02*
X485404Y793810D01*
X485404Y796204D02*
X479796Y796204D01*
X474990Y798332D02*
X469382Y798332D01*
X474990Y798332D02*
X474990Y786628D01*
X469382Y786628D01*
X469382Y798332D01*
X469382Y789022D02*
X474990Y789022D01*
X474990Y791416D02*
X469382Y791416D01*
X469382Y793810D02*
X474990Y793810D01*
X474990Y796204D02*
X469382Y796204D01*
X137297Y583428D02*
X131689Y583428D01*
X131689Y595132D01*
X137297Y595132D01*
X137297Y583428D01*
X137297Y585822D02*
X131689Y585822D01*
X131689Y588216D02*
X137297Y588216D01*
X137297Y590610D02*
X131689Y590610D01*
X131689Y593004D02*
X137297Y593004D01*
X142103Y583428D02*
X147711Y583428D01*
X142103Y583428D02*
X142103Y595132D01*
X147711Y595132D01*
X147711Y583428D01*
X147711Y585822D02*
X142103Y585822D01*
X142103Y588216D02*
X147711Y588216D01*
X147711Y590610D02*
X142103Y590610D01*
X142103Y593004D02*
X147711Y593004D01*
D16*
X31750Y631430D03*
X31750Y661430D03*
D17*
X63500Y824230D03*
X38100Y811530D03*
X190500Y855980D03*
X215900Y849630D03*
X38100Y925830D03*
X63500Y913130D03*
X393700Y779780D03*
X393700Y805180D03*
X596900Y824230D03*
X571500Y836930D03*
X393700Y906780D03*
X393700Y932180D03*
X571500Y925830D03*
X596900Y938530D03*
X438150Y1014730D03*
X438150Y1046480D03*
X476250Y1027430D03*
X488950Y1002030D03*
X546100Y1027430D03*
X558800Y1002030D03*
X158750Y1002030D03*
X88900Y1002030D03*
X101600Y1027430D03*
X171450Y1027430D03*
X50800Y862330D03*
X76200Y862330D03*
X76200Y887730D03*
X50800Y887730D03*
X558800Y862330D03*
X584200Y887730D03*
X584200Y862330D03*
X558800Y887730D03*
X63500Y798830D03*
X584200Y608330D03*
X558800Y608330D03*
X508000Y709930D03*
D12*
X160411Y957082D02*
X154803Y957082D01*
X160411Y957082D02*
X160411Y945378D01*
X154803Y945378D01*
X154803Y957082D01*
X154803Y947772D02*
X160411Y947772D01*
X160411Y950166D02*
X154803Y950166D01*
X154803Y952560D02*
X160411Y952560D01*
X160411Y954954D02*
X154803Y954954D01*
X149997Y957082D02*
X144389Y957082D01*
X149997Y957082D02*
X149997Y945378D01*
X144389Y945378D01*
X144389Y957082D01*
X144389Y947772D02*
X149997Y947772D01*
X149997Y950166D02*
X144389Y950166D01*
X144389Y952560D02*
X149997Y952560D01*
X149997Y954954D02*
X144389Y954954D01*
D17*
X88900Y684530D03*
D12*
X144389Y970778D02*
X149997Y970778D01*
X144389Y970778D02*
X144389Y982482D01*
X149997Y982482D01*
X149997Y970778D01*
X149997Y973172D02*
X144389Y973172D01*
X144389Y975566D02*
X149997Y975566D01*
X149997Y977960D02*
X144389Y977960D01*
X144389Y980354D02*
X149997Y980354D01*
X154803Y970778D02*
X160411Y970778D01*
X154803Y970778D02*
X154803Y982482D01*
X160411Y982482D01*
X160411Y970778D01*
X160411Y973172D02*
X154803Y973172D01*
X154803Y975566D02*
X160411Y975566D01*
X160411Y977960D02*
X154803Y977960D01*
X154803Y980354D02*
X160411Y980354D01*
D17*
X508000Y773430D03*
X450850Y741680D03*
D12*
X595239Y621528D02*
X600847Y621528D01*
X595239Y621528D02*
X595239Y633232D01*
X600847Y633232D01*
X600847Y621528D01*
X600847Y623922D02*
X595239Y623922D01*
X595239Y626316D02*
X600847Y626316D01*
X600847Y628710D02*
X595239Y628710D01*
X595239Y631104D02*
X600847Y631104D01*
X605653Y621528D02*
X611261Y621528D01*
X605653Y621528D02*
X605653Y633232D01*
X611261Y633232D01*
X611261Y621528D01*
X611261Y623922D02*
X605653Y623922D01*
X605653Y626316D02*
X611261Y626316D01*
X611261Y628710D02*
X605653Y628710D01*
X605653Y631104D02*
X611261Y631104D01*
D10*
X68580Y1105535D03*
X565785Y1105535D03*
D18*
X59525Y-20955D02*
X59528Y-20733D01*
X59536Y-20511D01*
X59550Y-20289D01*
X59569Y-20067D01*
X59593Y-19847D01*
X59623Y-19626D01*
X59658Y-19407D01*
X59699Y-19188D01*
X59745Y-18971D01*
X59796Y-18755D01*
X59853Y-18540D01*
X59915Y-18326D01*
X59982Y-18115D01*
X60054Y-17904D01*
X60132Y-17696D01*
X60214Y-17490D01*
X60302Y-17286D01*
X60394Y-17083D01*
X60492Y-16884D01*
X60594Y-16687D01*
X60701Y-16492D01*
X60813Y-16300D01*
X60930Y-16111D01*
X61051Y-15924D01*
X61177Y-15741D01*
X61307Y-15561D01*
X61442Y-15384D01*
X61580Y-15211D01*
X61723Y-15041D01*
X61871Y-14874D01*
X62022Y-14711D01*
X62177Y-14552D01*
X62336Y-14397D01*
X62499Y-14246D01*
X62666Y-14098D01*
X62836Y-13955D01*
X63009Y-13817D01*
X63186Y-13682D01*
X63366Y-13552D01*
X63549Y-13426D01*
X63736Y-13305D01*
X63925Y-13188D01*
X64117Y-13076D01*
X64312Y-12969D01*
X64509Y-12867D01*
X64708Y-12769D01*
X64911Y-12677D01*
X65115Y-12589D01*
X65321Y-12507D01*
X65529Y-12429D01*
X65740Y-12357D01*
X65951Y-12290D01*
X66165Y-12228D01*
X66380Y-12171D01*
X66596Y-12120D01*
X66813Y-12074D01*
X67032Y-12033D01*
X67251Y-11998D01*
X67472Y-11968D01*
X67692Y-11944D01*
X67914Y-11925D01*
X68136Y-11911D01*
X68358Y-11903D01*
X68580Y-11900D01*
X68802Y-11903D01*
X69024Y-11911D01*
X69246Y-11925D01*
X69468Y-11944D01*
X69688Y-11968D01*
X69909Y-11998D01*
X70128Y-12033D01*
X70347Y-12074D01*
X70564Y-12120D01*
X70780Y-12171D01*
X70995Y-12228D01*
X71209Y-12290D01*
X71420Y-12357D01*
X71631Y-12429D01*
X71839Y-12507D01*
X72045Y-12589D01*
X72249Y-12677D01*
X72452Y-12769D01*
X72651Y-12867D01*
X72848Y-12969D01*
X73043Y-13076D01*
X73235Y-13188D01*
X73424Y-13305D01*
X73611Y-13426D01*
X73794Y-13552D01*
X73974Y-13682D01*
X74151Y-13817D01*
X74324Y-13955D01*
X74494Y-14098D01*
X74661Y-14246D01*
X74824Y-14397D01*
X74983Y-14552D01*
X75138Y-14711D01*
X75289Y-14874D01*
X75437Y-15041D01*
X75580Y-15211D01*
X75718Y-15384D01*
X75853Y-15561D01*
X75983Y-15741D01*
X76109Y-15924D01*
X76230Y-16111D01*
X76347Y-16300D01*
X76459Y-16492D01*
X76566Y-16687D01*
X76668Y-16884D01*
X76766Y-17083D01*
X76858Y-17286D01*
X76946Y-17490D01*
X77028Y-17696D01*
X77106Y-17904D01*
X77178Y-18115D01*
X77245Y-18326D01*
X77307Y-18540D01*
X77364Y-18755D01*
X77415Y-18971D01*
X77461Y-19188D01*
X77502Y-19407D01*
X77537Y-19626D01*
X77567Y-19847D01*
X77591Y-20067D01*
X77610Y-20289D01*
X77624Y-20511D01*
X77632Y-20733D01*
X77635Y-20955D01*
X77632Y-21177D01*
X77624Y-21399D01*
X77610Y-21621D01*
X77591Y-21843D01*
X77567Y-22063D01*
X77537Y-22284D01*
X77502Y-22503D01*
X77461Y-22722D01*
X77415Y-22939D01*
X77364Y-23155D01*
X77307Y-23370D01*
X77245Y-23584D01*
X77178Y-23795D01*
X77106Y-24006D01*
X77028Y-24214D01*
X76946Y-24420D01*
X76858Y-24624D01*
X76766Y-24827D01*
X76668Y-25026D01*
X76566Y-25223D01*
X76459Y-25418D01*
X76347Y-25610D01*
X76230Y-25799D01*
X76109Y-25986D01*
X75983Y-26169D01*
X75853Y-26349D01*
X75718Y-26526D01*
X75580Y-26699D01*
X75437Y-26869D01*
X75289Y-27036D01*
X75138Y-27199D01*
X74983Y-27358D01*
X74824Y-27513D01*
X74661Y-27664D01*
X74494Y-27812D01*
X74324Y-27955D01*
X74151Y-28093D01*
X73974Y-28228D01*
X73794Y-28358D01*
X73611Y-28484D01*
X73424Y-28605D01*
X73235Y-28722D01*
X73043Y-28834D01*
X72848Y-28941D01*
X72651Y-29043D01*
X72452Y-29141D01*
X72249Y-29233D01*
X72045Y-29321D01*
X71839Y-29403D01*
X71631Y-29481D01*
X71420Y-29553D01*
X71209Y-29620D01*
X70995Y-29682D01*
X70780Y-29739D01*
X70564Y-29790D01*
X70347Y-29836D01*
X70128Y-29877D01*
X69909Y-29912D01*
X69688Y-29942D01*
X69468Y-29966D01*
X69246Y-29985D01*
X69024Y-29999D01*
X68802Y-30007D01*
X68580Y-30010D01*
X68358Y-30007D01*
X68136Y-29999D01*
X67914Y-29985D01*
X67692Y-29966D01*
X67472Y-29942D01*
X67251Y-29912D01*
X67032Y-29877D01*
X66813Y-29836D01*
X66596Y-29790D01*
X66380Y-29739D01*
X66165Y-29682D01*
X65951Y-29620D01*
X65740Y-29553D01*
X65529Y-29481D01*
X65321Y-29403D01*
X65115Y-29321D01*
X64911Y-29233D01*
X64708Y-29141D01*
X64509Y-29043D01*
X64312Y-28941D01*
X64117Y-28834D01*
X63925Y-28722D01*
X63736Y-28605D01*
X63549Y-28484D01*
X63366Y-28358D01*
X63186Y-28228D01*
X63009Y-28093D01*
X62836Y-27955D01*
X62666Y-27812D01*
X62499Y-27664D01*
X62336Y-27513D01*
X62177Y-27358D01*
X62022Y-27199D01*
X61871Y-27036D01*
X61723Y-26869D01*
X61580Y-26699D01*
X61442Y-26526D01*
X61307Y-26349D01*
X61177Y-26169D01*
X61051Y-25986D01*
X60930Y-25799D01*
X60813Y-25610D01*
X60701Y-25418D01*
X60594Y-25223D01*
X60492Y-25026D01*
X60394Y-24827D01*
X60302Y-24624D01*
X60214Y-24420D01*
X60132Y-24214D01*
X60054Y-24006D01*
X59982Y-23795D01*
X59915Y-23584D01*
X59853Y-23370D01*
X59796Y-23155D01*
X59745Y-22939D01*
X59699Y-22722D01*
X59658Y-22503D01*
X59623Y-22284D01*
X59593Y-22063D01*
X59569Y-21843D01*
X59550Y-21621D01*
X59536Y-21399D01*
X59528Y-21177D01*
X59525Y-20955D01*
D19*
X68580Y-20955D03*
M02*
