M48
;GenerationSoftware,Autodesk,EAGLE,9.6.2*%
;CreationDate,2023-01-20T23:53:22Z*%
FMAT,2
ICI,OFF
METRIC,TZ,000.000
T5C0.305
T4C0.900
T3C1.000
T2C1.016
T1C3.302
%
G90
M71
T1
X124968Y2540
X60960Y2540
X60960Y51435
X2540Y51435
X2540Y2540
X2540Y57023
X66548Y105918
X60960Y105918
X124968Y51435
X66548Y51435
X66548Y2540
X66548Y57023
X124968Y57023
X60960Y57023
X124968Y105918
X2540Y105918
T2
X62230Y73533
X62230Y76073
X65278Y70993
X65278Y73533
X65278Y76073
X126238Y70993
X126238Y73533
X62230Y21590
X126238Y76073
X1270Y16510
X1270Y19050
X1270Y21590
X62230Y16510
X62230Y19050
X126238Y16510
X65278Y16510
X65278Y19050
X65278Y21590
X126238Y19050
X126238Y21590
X1270Y70993
X1270Y73533
X1270Y76073
X62230Y70993
T3
X77978Y68707
X82677Y11303
X13970Y62738
X18669Y65786
X13970Y68707
X77978Y14224
X13970Y14224
X13970Y8255
X18669Y11303
X77978Y8255
X77978Y62738
X82677Y65786
T4
X3175Y8660
X3175Y11660
X67183Y8660
X67183Y11660
X3175Y63143
X3175Y66143
X67183Y66143
X67183Y63143
T5
X57150Y6350
X57150Y8890
X51435Y12065
X43815Y12065
X45085Y8255
X43815Y9525
X45085Y5715
X46355Y6858
X45085Y3175
X50165Y635
X47625Y635
X45085Y635
X55245Y10795
X3810Y34290
X3810Y24130
X59690Y41910
X59690Y31750
X28575Y34925
X28575Y30480
X13335Y49530
X7620Y51435
X52070Y49530
X46355Y51435
X31115Y30480
X33655Y30480
X31115Y26670
X28575Y26670
X33655Y26670
X38100Y39370
X26670Y39370
X24765Y42799
X15240Y34290
X14605Y30480
X47371Y31750
X47625Y34925
X47625Y41275
X57150Y43180
X53340Y43180
X50165Y31115
X26035Y26670
X26035Y30480
X33655Y33655
X31115Y22225
X28575Y17780
X57150Y33020
X6350Y33020
X46355Y12065
X49022Y12065
X46355Y4572
X48895Y4572
X48895Y6858
X47625Y5715
X50165Y5715
X51435Y6858
X43815Y4445
X12065Y20955
X15875Y20955
X19685Y20955
X8255Y20955
X8255Y23495
X12065Y28575
X19050Y24130
X22860Y46355
X40640Y46355
X40640Y20955
X40640Y8255
X5715Y13335
X6350Y7620
X8890Y8890
X6985Y14605
X3810Y10160
X6985Y4445
X8255Y4445
X11430Y5080
X11430Y15240
X17780Y15240
X12065Y17780
X15875Y17780
X19050Y17780
X7620Y17780
X22860Y30480
X37465Y33655
X38735Y31115
X38735Y26670
X40640Y22225
X1270Y44450
X17780Y39370
X17780Y35560
X9144Y34544
X10795Y635
X20955Y635
X28575Y635
X34925Y635
X42545Y635
X37465Y9525
X35560Y19050
X26035Y13335
X24765Y14605
X26035Y3175
X23495Y5715
X32385Y15240
X24765Y21590
X31750Y39370
X54356Y31496
X54356Y29210
X50165Y19558
X49530Y18034
X55245Y14605
X53975Y13335
X45720Y43180
X60960Y20320
X2540Y20320
X3810Y31750
X59690Y34290
X7112Y26289
X51435Y31115
X12065Y34925
X2540Y29210
X2540Y39370
X8890Y51435
X15875Y51435
X60960Y36830
X60960Y26670
X54610Y51435
X47625Y51435
X26035Y25400
X10160Y39370
X52451Y26670
X19685Y28575
X14986Y28575
X62230Y6350
X35560Y31750
X13970Y31750
X36195Y31115
X13335Y31115
X39370Y33020
X15240Y33020
X40005Y32385
X14605Y32385
X32385Y22860
X29845Y21590
X25400Y41275
X48260Y43180
X48260Y31750
X48260Y35560
X24765Y41910
X46990Y43180
X46355Y31750
X46990Y35560
X13970Y34290
X49530Y31750
X34290Y27940
X2540Y27940
X24765Y40640
X54610Y43180
X25400Y40005
X55880Y43180
X35560Y38735
X2540Y38100
X36195Y38100
X2540Y36830
X39370Y38735
X60960Y39370
X43815Y28575
X60960Y27940
X44450Y29210
X60960Y29210
X24765Y3810
X44450Y25400
X46990Y25400
X49530Y25400
X47625Y10160
X47625Y11430
X17780Y16510
X34925Y27305
X2540Y26670
X40005Y38100
X60960Y38100
X10160Y13970
X15240Y22225
X11430Y22225
X9525Y19050
X13335Y19050
X10160Y34925
X53340Y31115
X14986Y36830
X52070Y36830
X17526Y36830
X49530Y36830
X27305Y36830
X57150Y4445
X57150Y3175
X8255Y3175
X6985Y3175
X27305Y1905
X19050Y22225
X17145Y19050
X53721Y6604
X57150Y5461
X34290Y19050
X75438Y34290
X75438Y31750
X116078Y31750
X116078Y34290
X108458Y22860
X112903Y20320
X102743Y53340
X88773Y53340
X90678Y44450
X100838Y44450
X95758Y44450
X123063Y53340
X126873Y49530
X126873Y4445
X123063Y635
X68453Y635
X64643Y4445
X64643Y49530
X68453Y53340
X123063Y49530
X123063Y4445
X68453Y4445
X68453Y49530
X64643Y33020
X64643Y25400
X64643Y40640
X69088Y45720
X79248Y53340
X74168Y53340
X117348Y53340
X112268Y53340
X126873Y40640
X126873Y33020
X126873Y25400
X86868Y20955
X86868Y8255
X83693Y8890
X86868Y34290
X83693Y46355
X102743Y46355
X107823Y32385
X104648Y34290
X107823Y19685
X107823Y6985
X95758Y7620
X100203Y3175
X78994Y41910
X81534Y41910
X75438Y39370
X73152Y36830
X113538Y41910
X116078Y41910
X115443Y25908
X117348Y25908
X114808Y22860
X109728Y25400
X110363Y29972
X116713Y635
X119253Y635
X117983Y3175
X121158Y6350
X121158Y8890
X115443Y12065
X107823Y12065
X109093Y8255
X107823Y9525
X109093Y5715
X110363Y6858
X109093Y3175
X114173Y635
X111633Y635
X109093Y635
X119253Y10795
X67818Y34290
X67818Y24130
X123698Y41910
X123698Y31750
X92583Y34925
X92583Y30480
X77343Y49530
X71628Y51435
X116078Y49530
X110363Y51435
X95123Y30480
X97663Y30480
X95123Y26670
X92583Y26670
X97663Y26670
X102108Y39370
X90678Y39370
X88773Y42799
X79248Y34290
X78613Y30480
X111379Y31750
X111633Y34925
X111633Y41275
X121158Y43180
X117348Y43180
X114173Y31115
X90043Y26670
X90043Y30480
X97663Y33655
X95123Y22225
X92583Y17780
X121158Y33020
X70358Y33020
X110363Y12065
X113030Y12065
X110363Y4572
X112903Y4572
X112903Y6858
X111633Y5715
X114173Y5715
X115443Y6858
X107823Y4445
X76073Y20955
X79883Y20955
X83693Y20955
X72263Y20955
X72263Y23495
X76073Y28575
X83058Y24130
X86868Y46355
X104648Y46355
X104648Y20955
X104648Y8255
X69723Y13335
X70358Y7620
X72898Y8890
X70993Y14605
X67818Y10160
X70993Y4445
X72263Y4445
X75438Y5080
X75438Y15240
X81788Y15240
X76073Y17780
X79883Y17780
X83058Y17780
X71628Y17780
X86868Y30480
X101473Y33655
X102743Y31115
X102743Y26670
X104648Y22225
X65278Y44450
X81788Y39370
X81788Y35560
X73152Y34544
X74803Y635
X84963Y635
X92583Y635
X98933Y635
X106553Y635
X101473Y9525
X99568Y19050
X90043Y13335
X88773Y14605
X90043Y3175
X87503Y5715
X96393Y15240
X88773Y21590
X95758Y39370
X118364Y31496
X118364Y29210
X114173Y19558
X113538Y18034
X119253Y14605
X117983Y13335
X109728Y43180
X124968Y20320
X66548Y20320
X67818Y31750
X123698Y34290
X71120Y26289
X115443Y31115
X76073Y34925
X66548Y29210
X66548Y39370
X72898Y51435
X79883Y51435
X124968Y36830
X124968Y26670
X118618Y51435
X111633Y51435
X90043Y25400
X74168Y39370
X116459Y26670
X83693Y28575
X78994Y28575
X126238Y6350
X99568Y31750
X77978Y31750
X100203Y31115
X77343Y31115
X103378Y33020
X79248Y33020
X104013Y32385
X78613Y32385
X96393Y22860
X93853Y21590
X89408Y41275
X112268Y43180
X112268Y31750
X112268Y35560
X88773Y41910
X110998Y43180
X110363Y31750
X110998Y35560
X77978Y34290
X113538Y31750
X98298Y27940
X66548Y27940
X88773Y40640
X118618Y43180
X89408Y40005
X119888Y43180
X99568Y38735
X66548Y38100
X100203Y38100
X66548Y36830
X103378Y38735
X124968Y39370
X107823Y28575
X124968Y27940
X108458Y29210
X124968Y29210
X88773Y3810
X108458Y25400
X110998Y25400
X113538Y25400
X111633Y10160
X111633Y11430
X81788Y16510
X98933Y27305
X66548Y26670
X104013Y38100
X124968Y38100
X74168Y13970
X79248Y22225
X75438Y22225
X73533Y19050
X77343Y19050
X74168Y34925
X117348Y31115
X78994Y36830
X116078Y36830
X81534Y36830
X113538Y36830
X91313Y36830
X121158Y4445
X121158Y3175
X72263Y3175
X70993Y3175
X91313Y1905
X83058Y22225
X81153Y19050
X117729Y6604
X121158Y5461
X98298Y19050
X11430Y88773
X11430Y86233
X52070Y86233
X52070Y88773
X44450Y77343
X48895Y74803
X38735Y107823
X24765Y107823
X26670Y98933
X36830Y98933
X31750Y98933
X59055Y107823
X62865Y104013
X62865Y58928
X59055Y55118
X4445Y55118
X635Y58928
X635Y104013
X4445Y107823
X59055Y104013
X59055Y58928
X4445Y58928
X4445Y104013
X635Y87503
X635Y79883
X635Y95123
X5080Y100203
X15240Y107823
X10160Y107823
X53340Y107823
X48260Y107823
X62865Y95123
X62865Y87503
X62865Y79883
X22860Y75438
X22860Y62738
X19685Y63373
X22860Y88773
X19685Y100838
X38735Y100838
X43815Y86868
X40640Y88773
X43815Y74168
X43815Y61468
X31750Y62103
X36195Y57658
X14986Y96393
X17526Y96393
X11430Y93853
X9144Y91313
X49530Y96393
X52070Y96393
X51435Y80391
X53340Y80391
X50800Y77343
X45720Y79883
X46355Y84455
X52705Y55118
X55245Y55118
X53975Y57658
X57150Y60833
X57150Y63373
X51435Y66548
X43815Y66548
X45085Y62738
X43815Y64008
X45085Y60198
X46355Y61341
X45085Y57658
X50165Y55118
X47625Y55118
X45085Y55118
X55245Y65278
X3810Y88773
X3810Y78613
X59690Y96393
X59690Y86233
X28575Y89408
X28575Y84963
X13335Y104013
X7620Y105918
X52070Y104013
X46355Y105918
X31115Y84963
X33655Y84963
X31115Y81153
X28575Y81153
X33655Y81153
X38100Y93853
X26670Y93853
X24765Y97282
X15240Y88773
X14605Y84963
X47371Y86233
X47625Y89408
X47625Y95758
X57150Y97663
X53340Y97663
X50165Y85598
X26035Y81153
X26035Y84963
X33655Y88138
X31115Y76708
X28575Y72263
X57150Y87503
X6350Y87503
X46355Y66548
X49022Y66548
X46355Y59055
X48895Y59055
X48895Y61341
X47625Y60198
X50165Y60198
X51435Y61341
X43815Y58928
X12065Y75438
X15875Y75438
X19685Y75438
X8255Y75438
X8255Y77978
X12065Y83058
X19050Y78613
X22860Y100838
X40640Y100838
X40640Y75438
X40640Y62738
X5715Y67818
X6350Y62103
X8890Y63373
X6985Y69088
X3810Y64643
X6985Y58928
X8255Y58928
X11430Y59563
X11430Y69723
X17780Y69723
X12065Y72263
X15875Y72263
X19050Y72263
X7620Y72263
X22860Y84963
X37465Y88138
X38735Y85598
X38735Y81153
X40640Y76708
X1270Y98933
X17780Y93853
X17780Y90043
X9144Y89027
X10795Y55118
X20955Y55118
X28575Y55118
X34925Y55118
X42545Y55118
X37465Y64008
X35560Y73533
X26035Y67818
X24765Y69088
X26035Y57658
X23495Y60198
X32385Y69723
X24765Y76073
X31750Y93853
X54356Y85979
X54356Y83693
X50165Y74041
X49530Y72517
X55245Y69088
X53975Y67818
X45720Y97663
X60960Y74803
X2540Y74803
X3810Y86233
X59690Y88773
X7112Y80772
X51435Y85598
X12065Y89408
X2540Y83693
X2540Y93853
X8890Y105918
X15875Y105918
X60960Y91313
X60960Y81153
X54610Y105918
X47625Y105918
X26035Y79883
X10160Y93853
X52451Y81153
X19685Y83058
X14986Y83058
X62230Y60833
X35560Y86233
X13970Y86233
X36195Y85598
X13335Y85598
X39370Y87503
X15240Y87503
X40005Y86868
X14605Y86868
X32385Y77343
X29845Y76073
X25400Y95758
X48260Y97663
X48260Y86233
X48260Y90043
X24765Y96393
X46990Y97663
X46355Y86233
X46990Y90043
X13970Y88773
X49530Y86233
X34290Y82423
X2540Y82423
X24765Y95123
X54610Y97663
X25400Y94488
X55880Y97663
X35560Y93218
X2540Y92583
X36195Y92583
X2540Y91313
X39370Y93218
X60960Y93853
X43815Y83058
X60960Y82423
X44450Y83693
X60960Y83693
X24765Y58293
X44450Y79883
X46990Y79883
X49530Y79883
X47625Y64643
X47625Y65913
X17780Y70993
X34925Y81788
X2540Y81153
X40005Y92583
X60960Y92583
X10160Y68453
X15240Y76708
X11430Y76708
X9525Y73533
X13335Y73533
X10160Y89408
X53340Y85598
X14986Y91313
X52070Y91313
X17526Y91313
X49530Y91313
X27305Y91313
X57150Y58928
X57150Y57658
X8255Y57658
X6985Y57658
X27305Y56388
X19050Y76708
X17145Y73533
X53721Y61087
X57150Y59944
X34290Y73533
X75438Y88773
X75438Y86233
X116078Y86233
X116078Y88773
X108458Y77343
X112903Y74803
X102743Y107823
X88773Y107823
X90678Y98933
X100838Y98933
X95758Y98933
X123063Y107823
X126873Y104013
X126873Y58928
X123063Y55118
X68453Y55118
X64643Y58928
X64643Y104013
X68453Y107823
X123063Y104013
X123063Y58928
X68453Y58928
X68453Y104013
X64643Y87503
X64643Y79883
X64643Y95123
X69088Y100203
X79248Y107823
X74168Y107823
X117348Y107823
X112268Y107823
X126873Y95123
X126873Y87503
X126873Y79883
X86868Y75438
X86868Y62738
X83693Y63373
X86868Y88773
X83693Y100838
X102743Y100838
X107823Y86868
X104648Y88773
X107823Y74168
X107823Y61468
X95758Y62103
X11430Y34290
X78994Y96393
X81534Y96393
X75438Y93853
X73152Y91313
X113538Y96393
X116078Y96393
X115443Y80391
X117348Y80391
X114808Y77343
X109728Y79883
X110363Y84455
X116713Y55118
X119253Y55118
X117983Y57658
X121158Y60833
X121158Y63373
X115443Y66548
X107823Y66548
X109093Y62738
X107823Y64008
X109093Y60198
X110363Y61341
X109093Y57658
X114173Y55118
X111633Y55118
X109093Y55118
X119253Y65278
X67818Y88773
X67818Y78613
X123698Y96393
X123698Y86233
X92583Y89408
X92583Y84963
X77343Y104013
X71628Y105918
X116078Y104013
X110363Y105918
X95123Y84963
X97663Y84963
X95123Y81153
X92583Y81153
X97663Y81153
X102108Y93853
X90678Y93853
X88773Y97282
X79248Y88773
X78613Y84963
X111379Y86233
X111633Y89408
X111633Y95758
X121158Y97663
X117348Y97663
X114173Y85598
X90043Y81153
X90043Y84963
X97663Y88138
X95123Y76708
X92583Y72263
X121158Y87503
X70358Y87503
X110363Y66548
X113030Y66548
X110363Y59055
X112903Y59055
X112903Y61341
X111633Y60198
X114173Y60198
X115443Y61341
X107823Y58928
X76073Y75438
X79883Y75438
X83693Y75438
X72263Y75438
X72263Y77978
X76073Y83058
X83058Y78613
X86868Y100838
X104648Y100838
X104648Y75438
X104648Y62738
X69723Y67818
X70358Y62103
X72898Y63373
X70993Y69088
X67818Y64643
X70993Y58928
X72263Y58928
X75438Y59563
X75438Y69723
X81788Y69723
X76073Y72263
X79883Y72263
X83058Y72263
X71628Y72263
X86868Y84963
X101473Y88138
X102743Y85598
X102743Y81153
X104648Y76708
X65278Y98933
X81788Y93853
X81788Y90043
X73152Y89027
X74803Y55118
X84963Y55118
X92583Y55118
X98933Y55118
X106553Y55118
X101473Y64008
X99568Y73533
X90043Y67818
X88773Y69088
X90043Y57658
X87503Y60198
X96393Y69723
X88773Y76073
X95758Y93853
X118364Y85979
X118364Y83693
X114173Y74041
X113538Y72517
X119253Y69088
X117983Y67818
X109728Y97663
X124968Y74803
X66548Y74803
X67818Y86233
X123698Y88773
X71120Y80772
X115443Y85598
X76073Y89408
X66548Y83693
X66548Y93853
X72898Y105918
X79883Y105918
X124968Y91313
X100203Y57658
X118618Y105918
X111633Y105918
X90043Y79883
X74168Y93853
X116459Y81153
X83693Y83058
X78994Y83058
X126238Y60833
X99568Y86233
X77978Y86233
X100203Y85598
X77343Y85598
X103378Y87503
X79248Y87503
X104013Y86868
X78613Y86868
X96393Y77343
X93853Y76073
X89408Y95758
X112268Y97663
X112268Y86233
X112268Y90043
X88773Y96393
X110998Y97663
X110363Y86233
X110998Y90043
X77978Y88773
X113538Y86233
X98298Y82423
X66548Y82423
X88773Y95123
X118618Y97663
X89408Y94488
X119888Y97663
X99568Y93218
X66548Y92583
X100203Y92583
X66548Y91313
X103378Y93218
X124968Y93853
X107823Y83058
X124968Y82423
X108458Y83693
X124968Y83693
X88773Y58293
X108458Y79883
X110998Y79883
X113538Y79883
X111633Y64643
X111633Y65913
X81788Y70993
X98933Y81788
X66548Y81153
X104013Y92583
X124968Y92583
X74168Y68453
X79248Y76708
X75438Y76708
X73533Y73533
X77343Y73533
X74168Y89408
X117348Y85598
X78994Y91313
X116078Y91313
X81534Y91313
X113538Y91313
X91313Y91313
X121158Y58928
X121158Y57658
X72263Y57658
X70993Y57658
X91313Y56388
X83058Y76708
X81153Y73533
X117729Y61087
X121158Y59944
X98298Y73533
X11430Y31750
X52070Y31750
X52070Y34290
X44450Y22860
X48895Y20320
X38735Y53340
X24765Y53340
X26670Y44450
X36830Y44450
X31750Y44450
X59055Y53340
X62865Y49530
X62865Y4445
X59055Y635
X4445Y635
X635Y4445
X635Y49530
X4445Y53340
X59055Y49530
X59055Y4445
X4445Y4445
X4445Y49530
X635Y33020
X635Y25400
X635Y40640
X5080Y45720
X15240Y53340
X10160Y53340
X53340Y53340
X48260Y53340
X62865Y40640
X62865Y33020
X62865Y25400
X22860Y20955
X22860Y8255
X19685Y8890
X22860Y34290
X19685Y46355
X38735Y46355
X43815Y32385
X40640Y34290
X43815Y19685
X43815Y6985
X31750Y7620
X36195Y3175
X14986Y41910
X17526Y41910
X11430Y39370
X9144Y36830
X49530Y41910
X52070Y41910
X51435Y25908
X53340Y25908
X50800Y22860
X45720Y25400
X46355Y29972
X52705Y635
X55245Y635
X53975Y3175
X124968Y81153
M30