G04 EAGLE Gerber RS-274X export*
G75*
%MOMM*%
%FSLAX34Y34*%
%LPD*%
%IN*%
%IPPOS*%
%AMOC8*
5,1,8,0,0,1.08239X$1,22.5*%
G01*
%ADD10C,0.203200*%
%ADD11C,0.381000*%
%ADD12C,0.279400*%
%ADD13C,0.254000*%
%ADD14C,0.000000*%

G36*
X152703Y682333D02*
X152703Y682333D01*
X152706Y682331D01*
X153818Y682456D01*
X153824Y682462D01*
X153829Y682459D01*
X154886Y682829D01*
X154890Y682836D01*
X154896Y682833D01*
X155844Y683429D01*
X155847Y683437D01*
X155852Y683436D01*
X156644Y684228D01*
X156645Y684236D01*
X156651Y684236D01*
X157247Y685184D01*
X157246Y685193D01*
X157251Y685194D01*
X157621Y686251D01*
X157620Y686255D01*
X157622Y686257D01*
X157620Y686260D01*
X157624Y686262D01*
X157749Y687375D01*
X157745Y687382D01*
X157749Y687386D01*
X157624Y688498D01*
X157618Y688504D01*
X157621Y688509D01*
X157251Y689566D01*
X157245Y689570D01*
X157247Y689576D01*
X156651Y690524D01*
X156643Y690527D01*
X156644Y690532D01*
X155852Y691324D01*
X155844Y691325D01*
X155844Y691331D01*
X154896Y691927D01*
X154887Y691926D01*
X154886Y691931D01*
X153829Y692301D01*
X153821Y692299D01*
X153818Y692304D01*
X152706Y692429D01*
X152702Y692427D01*
X152700Y692429D01*
X126700Y692429D01*
X126697Y692427D01*
X126696Y692427D01*
X126695Y692429D01*
X125582Y692304D01*
X125576Y692298D01*
X125571Y692301D01*
X124514Y691931D01*
X124510Y691925D01*
X124504Y691927D01*
X123556Y691331D01*
X123553Y691323D01*
X123548Y691324D01*
X122756Y690532D01*
X122755Y690524D01*
X122749Y690524D01*
X122153Y689576D01*
X122154Y689567D01*
X122149Y689566D01*
X121779Y688509D01*
X121781Y688503D01*
X121777Y688500D01*
X121778Y688499D01*
X121776Y688498D01*
X121651Y687386D01*
X121655Y687378D01*
X121651Y687375D01*
X121776Y686262D01*
X121782Y686256D01*
X121779Y686251D01*
X122149Y685194D01*
X122156Y685190D01*
X122153Y685184D01*
X122749Y684236D01*
X122757Y684233D01*
X122756Y684228D01*
X123548Y683436D01*
X123556Y683435D01*
X123556Y683429D01*
X124504Y682833D01*
X124513Y682834D01*
X124514Y682829D01*
X125571Y682459D01*
X125579Y682461D01*
X125582Y682456D01*
X126695Y682331D01*
X126698Y682333D01*
X126700Y682331D01*
X152700Y682331D01*
X152703Y682333D01*
G37*
G36*
X152703Y137503D02*
X152703Y137503D01*
X152706Y137501D01*
X153818Y137626D01*
X153824Y137632D01*
X153829Y137629D01*
X154886Y137999D01*
X154890Y138006D01*
X154896Y138003D01*
X155844Y138599D01*
X155847Y138607D01*
X155852Y138606D01*
X156644Y139398D01*
X156645Y139406D01*
X156651Y139406D01*
X157247Y140354D01*
X157246Y140363D01*
X157251Y140364D01*
X157621Y141421D01*
X157620Y141425D01*
X157622Y141427D01*
X157620Y141430D01*
X157624Y141432D01*
X157749Y142545D01*
X157745Y142552D01*
X157749Y142556D01*
X157624Y143668D01*
X157618Y143674D01*
X157621Y143679D01*
X157251Y144736D01*
X157245Y144740D01*
X157247Y144746D01*
X156651Y145694D01*
X156643Y145697D01*
X156644Y145702D01*
X155852Y146494D01*
X155844Y146495D01*
X155844Y146501D01*
X154896Y147097D01*
X154887Y147096D01*
X154886Y147101D01*
X153829Y147471D01*
X153821Y147469D01*
X153818Y147474D01*
X152706Y147599D01*
X152702Y147597D01*
X152700Y147599D01*
X126700Y147599D01*
X126697Y147597D01*
X126696Y147597D01*
X126695Y147599D01*
X125582Y147474D01*
X125576Y147468D01*
X125571Y147471D01*
X124514Y147101D01*
X124510Y147095D01*
X124504Y147097D01*
X123556Y146501D01*
X123553Y146493D01*
X123548Y146494D01*
X122756Y145702D01*
X122755Y145694D01*
X122749Y145694D01*
X122153Y144746D01*
X122154Y144737D01*
X122149Y144736D01*
X121779Y143679D01*
X121781Y143673D01*
X121777Y143670D01*
X121778Y143669D01*
X121776Y143668D01*
X121651Y142556D01*
X121655Y142548D01*
X121651Y142545D01*
X121776Y141432D01*
X121782Y141426D01*
X121779Y141421D01*
X122149Y140364D01*
X122156Y140360D01*
X122153Y140354D01*
X122749Y139406D01*
X122757Y139403D01*
X122756Y139398D01*
X123548Y138606D01*
X123556Y138605D01*
X123556Y138599D01*
X124504Y138003D01*
X124513Y138004D01*
X124514Y137999D01*
X125571Y137629D01*
X125579Y137631D01*
X125582Y137626D01*
X126695Y137501D01*
X126698Y137503D01*
X126700Y137501D01*
X152700Y137501D01*
X152703Y137503D01*
G37*
G36*
X149703Y622333D02*
X149703Y622333D01*
X149706Y622331D01*
X150818Y622456D01*
X150824Y622462D01*
X150829Y622459D01*
X151886Y622829D01*
X151890Y622836D01*
X151896Y622833D01*
X152844Y623429D01*
X152847Y623437D01*
X152852Y623436D01*
X153644Y624228D01*
X153645Y624236D01*
X153651Y624236D01*
X154247Y625184D01*
X154246Y625193D01*
X154251Y625194D01*
X154621Y626251D01*
X154620Y626255D01*
X154622Y626257D01*
X154620Y626260D01*
X154624Y626262D01*
X154749Y627375D01*
X154745Y627382D01*
X154749Y627386D01*
X154624Y628498D01*
X154618Y628504D01*
X154621Y628509D01*
X154251Y629566D01*
X154245Y629570D01*
X154247Y629576D01*
X153651Y630524D01*
X153643Y630527D01*
X153644Y630532D01*
X152852Y631324D01*
X152844Y631325D01*
X152844Y631331D01*
X151896Y631927D01*
X151887Y631926D01*
X151886Y631931D01*
X150829Y632301D01*
X150821Y632299D01*
X150818Y632304D01*
X149706Y632429D01*
X149702Y632427D01*
X149700Y632429D01*
X129700Y632429D01*
X129697Y632427D01*
X129696Y632427D01*
X129695Y632429D01*
X128582Y632304D01*
X128576Y632298D01*
X128571Y632301D01*
X127514Y631931D01*
X127510Y631925D01*
X127504Y631927D01*
X126556Y631331D01*
X126553Y631323D01*
X126548Y631324D01*
X125756Y630532D01*
X125755Y630524D01*
X125749Y630524D01*
X125153Y629576D01*
X125154Y629567D01*
X125149Y629566D01*
X124779Y628509D01*
X124781Y628503D01*
X124777Y628500D01*
X124778Y628499D01*
X124776Y628498D01*
X124651Y627386D01*
X124655Y627378D01*
X124651Y627375D01*
X124776Y626262D01*
X124782Y626256D01*
X124779Y626251D01*
X125149Y625194D01*
X125156Y625190D01*
X125153Y625184D01*
X125749Y624236D01*
X125757Y624233D01*
X125756Y624228D01*
X126548Y623436D01*
X126556Y623435D01*
X126556Y623429D01*
X127504Y622833D01*
X127513Y622834D01*
X127514Y622829D01*
X128571Y622459D01*
X128579Y622461D01*
X128582Y622456D01*
X129695Y622331D01*
X129698Y622333D01*
X129700Y622331D01*
X149700Y622331D01*
X149703Y622333D01*
G37*
G36*
X149703Y77503D02*
X149703Y77503D01*
X149706Y77501D01*
X150818Y77626D01*
X150824Y77632D01*
X150829Y77629D01*
X151886Y77999D01*
X151890Y78006D01*
X151896Y78003D01*
X152844Y78599D01*
X152847Y78607D01*
X152852Y78606D01*
X153644Y79398D01*
X153645Y79406D01*
X153651Y79406D01*
X154247Y80354D01*
X154246Y80363D01*
X154251Y80364D01*
X154621Y81421D01*
X154620Y81425D01*
X154622Y81427D01*
X154620Y81430D01*
X154624Y81432D01*
X154749Y82545D01*
X154745Y82552D01*
X154749Y82556D01*
X154624Y83668D01*
X154618Y83674D01*
X154621Y83679D01*
X154251Y84736D01*
X154245Y84740D01*
X154247Y84746D01*
X153651Y85694D01*
X153643Y85697D01*
X153644Y85702D01*
X152852Y86494D01*
X152844Y86495D01*
X152844Y86501D01*
X151896Y87097D01*
X151887Y87096D01*
X151886Y87101D01*
X150829Y87471D01*
X150821Y87469D01*
X150818Y87474D01*
X149706Y87599D01*
X149702Y87597D01*
X149700Y87599D01*
X129700Y87599D01*
X129697Y87597D01*
X129696Y87597D01*
X129695Y87599D01*
X128582Y87474D01*
X128576Y87468D01*
X128571Y87471D01*
X127514Y87101D01*
X127510Y87095D01*
X127504Y87097D01*
X126556Y86501D01*
X126553Y86493D01*
X126548Y86494D01*
X125756Y85702D01*
X125755Y85694D01*
X125749Y85694D01*
X125153Y84746D01*
X125154Y84737D01*
X125149Y84736D01*
X124779Y83679D01*
X124781Y83673D01*
X124777Y83670D01*
X124778Y83669D01*
X124776Y83668D01*
X124651Y82556D01*
X124655Y82548D01*
X124651Y82545D01*
X124776Y81432D01*
X124782Y81426D01*
X124779Y81421D01*
X125149Y80364D01*
X125156Y80360D01*
X125153Y80354D01*
X125749Y79406D01*
X125757Y79403D01*
X125756Y79398D01*
X126548Y78606D01*
X126556Y78605D01*
X126556Y78599D01*
X127504Y78003D01*
X127513Y78004D01*
X127514Y77999D01*
X128571Y77629D01*
X128579Y77631D01*
X128582Y77626D01*
X129695Y77501D01*
X129698Y77503D01*
X129700Y77501D01*
X149700Y77501D01*
X149703Y77503D01*
G37*
G36*
X187818Y642456D02*
X187818Y642456D01*
X187824Y642462D01*
X187829Y642459D01*
X188886Y642829D01*
X188890Y642836D01*
X188896Y642833D01*
X189844Y643429D01*
X189847Y643437D01*
X189852Y643436D01*
X190644Y644228D01*
X190645Y644236D01*
X190651Y644236D01*
X191247Y645184D01*
X191246Y645193D01*
X191251Y645194D01*
X191621Y646251D01*
X191620Y646255D01*
X191622Y646257D01*
X191620Y646260D01*
X191624Y646262D01*
X191749Y647375D01*
X191747Y647378D01*
X191749Y647380D01*
X191749Y667380D01*
X191747Y667383D01*
X191749Y667386D01*
X191624Y668498D01*
X191618Y668504D01*
X191621Y668509D01*
X191251Y669566D01*
X191245Y669570D01*
X191247Y669576D01*
X190651Y670524D01*
X190643Y670527D01*
X190644Y670532D01*
X189852Y671324D01*
X189844Y671325D01*
X189844Y671331D01*
X188896Y671927D01*
X188887Y671926D01*
X188886Y671931D01*
X187829Y672301D01*
X187821Y672299D01*
X187818Y672304D01*
X186706Y672429D01*
X186698Y672425D01*
X186695Y672429D01*
X185582Y672304D01*
X185576Y672298D01*
X185571Y672301D01*
X184514Y671931D01*
X184510Y671925D01*
X184504Y671927D01*
X183556Y671331D01*
X183553Y671323D01*
X183548Y671324D01*
X182756Y670532D01*
X182755Y670524D01*
X182749Y670524D01*
X182153Y669576D01*
X182154Y669567D01*
X182149Y669566D01*
X181779Y668509D01*
X181781Y668501D01*
X181776Y668498D01*
X181651Y667386D01*
X181653Y667382D01*
X181651Y667380D01*
X181651Y647380D01*
X181653Y647377D01*
X181651Y647375D01*
X181776Y646262D01*
X181782Y646256D01*
X181779Y646251D01*
X182149Y645194D01*
X182156Y645190D01*
X182153Y645184D01*
X182749Y644236D01*
X182757Y644233D01*
X182756Y644228D01*
X183548Y643436D01*
X183556Y643435D01*
X183556Y643429D01*
X184504Y642833D01*
X184513Y642834D01*
X184514Y642829D01*
X185571Y642459D01*
X185579Y642461D01*
X185582Y642456D01*
X186695Y642331D01*
X186702Y642335D01*
X186706Y642331D01*
X187818Y642456D01*
G37*
G36*
X187818Y97626D02*
X187818Y97626D01*
X187824Y97632D01*
X187829Y97629D01*
X188886Y97999D01*
X188890Y98006D01*
X188896Y98003D01*
X189844Y98599D01*
X189847Y98607D01*
X189852Y98606D01*
X190644Y99398D01*
X190645Y99406D01*
X190651Y99406D01*
X191247Y100354D01*
X191246Y100363D01*
X191251Y100364D01*
X191621Y101421D01*
X191620Y101425D01*
X191622Y101427D01*
X191620Y101430D01*
X191624Y101432D01*
X191749Y102545D01*
X191747Y102548D01*
X191749Y102550D01*
X191749Y122550D01*
X191747Y122553D01*
X191749Y122556D01*
X191624Y123668D01*
X191618Y123674D01*
X191621Y123679D01*
X191251Y124736D01*
X191245Y124740D01*
X191247Y124746D01*
X190651Y125694D01*
X190643Y125697D01*
X190644Y125702D01*
X189852Y126494D01*
X189844Y126495D01*
X189844Y126501D01*
X188896Y127097D01*
X188887Y127096D01*
X188886Y127101D01*
X187829Y127471D01*
X187821Y127469D01*
X187818Y127474D01*
X186706Y127599D01*
X186698Y127595D01*
X186695Y127599D01*
X185582Y127474D01*
X185576Y127468D01*
X185571Y127471D01*
X184514Y127101D01*
X184510Y127095D01*
X184504Y127097D01*
X183556Y126501D01*
X183553Y126493D01*
X183548Y126494D01*
X182756Y125702D01*
X182755Y125694D01*
X182749Y125694D01*
X182153Y124746D01*
X182154Y124737D01*
X182149Y124736D01*
X181779Y123679D01*
X181781Y123671D01*
X181776Y123668D01*
X181651Y122556D01*
X181653Y122552D01*
X181651Y122550D01*
X181651Y102550D01*
X181653Y102547D01*
X181651Y102545D01*
X181776Y101432D01*
X181782Y101426D01*
X181779Y101421D01*
X182149Y100364D01*
X182156Y100360D01*
X182153Y100354D01*
X182749Y99406D01*
X182757Y99403D01*
X182756Y99398D01*
X183548Y98606D01*
X183556Y98605D01*
X183556Y98599D01*
X184504Y98003D01*
X184513Y98004D01*
X184514Y97999D01*
X185571Y97629D01*
X185579Y97631D01*
X185582Y97626D01*
X186695Y97501D01*
X186702Y97505D01*
X186706Y97501D01*
X187818Y97626D01*
G37*
D10*
X0Y0D02*
X635000Y0D01*
X635000Y539750D01*
X0Y539750D01*
X0Y0D01*
X0Y544830D02*
X635000Y544830D01*
X635000Y1084580D01*
X0Y1084580D01*
X0Y544830D01*
D11*
X-2540Y-68580D02*
X-2540Y1158240D01*
D12*
X-42921Y1173607D02*
X-46251Y1183598D01*
X-39590Y1183598D02*
X-42921Y1173607D01*
X-32806Y1179435D02*
X-22815Y1179435D01*
X-14261Y1179435D02*
X-10098Y1177770D01*
X-14261Y1179434D02*
X-14346Y1179470D01*
X-14429Y1179510D01*
X-14510Y1179553D01*
X-14590Y1179600D01*
X-14667Y1179650D01*
X-14743Y1179703D01*
X-14816Y1179759D01*
X-14886Y1179819D01*
X-14954Y1179881D01*
X-15019Y1179946D01*
X-15081Y1180014D01*
X-15141Y1180085D01*
X-15197Y1180158D01*
X-15250Y1180233D01*
X-15300Y1180311D01*
X-15346Y1180390D01*
X-15389Y1180472D01*
X-15429Y1180555D01*
X-15465Y1180640D01*
X-15497Y1180726D01*
X-15526Y1180814D01*
X-15550Y1180903D01*
X-15571Y1180993D01*
X-15588Y1181083D01*
X-15602Y1181174D01*
X-15611Y1181266D01*
X-15616Y1181358D01*
X-15618Y1181450D01*
X-15616Y1181542D01*
X-15609Y1181634D01*
X-15599Y1181726D01*
X-15585Y1181817D01*
X-15567Y1181908D01*
X-15545Y1181997D01*
X-15519Y1182086D01*
X-15489Y1182173D01*
X-15456Y1182259D01*
X-15419Y1182343D01*
X-15379Y1182426D01*
X-15335Y1182507D01*
X-15288Y1182586D01*
X-15237Y1182663D01*
X-15183Y1182738D01*
X-15126Y1182811D01*
X-15066Y1182881D01*
X-15003Y1182948D01*
X-14937Y1183012D01*
X-14869Y1183074D01*
X-14798Y1183133D01*
X-14724Y1183188D01*
X-14648Y1183241D01*
X-14570Y1183290D01*
X-14490Y1183336D01*
X-14409Y1183378D01*
X-14325Y1183417D01*
X-14240Y1183452D01*
X-14153Y1183483D01*
X-14065Y1183511D01*
X-13976Y1183535D01*
X-13886Y1183555D01*
X-13796Y1183572D01*
X-13704Y1183584D01*
X-13612Y1183593D01*
X-13520Y1183597D01*
X-13428Y1183598D01*
X-13201Y1183592D01*
X-12974Y1183581D01*
X-12747Y1183564D01*
X-12521Y1183541D01*
X-12295Y1183514D01*
X-12070Y1183480D01*
X-11846Y1183442D01*
X-11623Y1183398D01*
X-11401Y1183349D01*
X-11180Y1183294D01*
X-10961Y1183234D01*
X-10743Y1183169D01*
X-10527Y1183098D01*
X-10313Y1183023D01*
X-10100Y1182942D01*
X-9890Y1182856D01*
X-9681Y1182765D01*
X-10098Y1177770D02*
X-10013Y1177734D01*
X-9930Y1177694D01*
X-9849Y1177651D01*
X-9769Y1177604D01*
X-9692Y1177554D01*
X-9616Y1177501D01*
X-9543Y1177445D01*
X-9473Y1177385D01*
X-9405Y1177323D01*
X-9340Y1177258D01*
X-9278Y1177190D01*
X-9218Y1177119D01*
X-9162Y1177046D01*
X-9109Y1176971D01*
X-9059Y1176893D01*
X-9013Y1176814D01*
X-8970Y1176732D01*
X-8930Y1176649D01*
X-8894Y1176564D01*
X-8862Y1176478D01*
X-8833Y1176390D01*
X-8809Y1176301D01*
X-8788Y1176211D01*
X-8771Y1176121D01*
X-8757Y1176030D01*
X-8748Y1175938D01*
X-8743Y1175846D01*
X-8741Y1175754D01*
X-8743Y1175662D01*
X-8750Y1175570D01*
X-8760Y1175478D01*
X-8774Y1175387D01*
X-8792Y1175296D01*
X-8814Y1175207D01*
X-8840Y1175118D01*
X-8870Y1175031D01*
X-8903Y1174945D01*
X-8940Y1174861D01*
X-8980Y1174778D01*
X-9024Y1174697D01*
X-9071Y1174618D01*
X-9122Y1174541D01*
X-9176Y1174466D01*
X-9233Y1174393D01*
X-9293Y1174323D01*
X-9356Y1174256D01*
X-9422Y1174192D01*
X-9490Y1174130D01*
X-9561Y1174071D01*
X-9635Y1174016D01*
X-9711Y1173963D01*
X-9789Y1173914D01*
X-9869Y1173868D01*
X-9950Y1173826D01*
X-10034Y1173787D01*
X-10119Y1173752D01*
X-10206Y1173721D01*
X-10294Y1173693D01*
X-10383Y1173669D01*
X-10473Y1173649D01*
X-10563Y1173632D01*
X-10655Y1173620D01*
X-10747Y1173611D01*
X-10839Y1173607D01*
X-10931Y1173606D01*
X-10931Y1173607D02*
X-11265Y1173616D01*
X-11598Y1173633D01*
X-11931Y1173657D01*
X-12264Y1173690D01*
X-12595Y1173730D01*
X-12926Y1173778D01*
X-13255Y1173834D01*
X-13583Y1173897D01*
X-13909Y1173969D01*
X-14233Y1174048D01*
X-14556Y1174134D01*
X-14876Y1174229D01*
X-15194Y1174331D01*
X-15510Y1174440D01*
X562Y1173607D02*
X3892Y1173607D01*
X562Y1173607D02*
X464Y1173609D01*
X366Y1173615D01*
X268Y1173624D01*
X171Y1173638D01*
X75Y1173655D01*
X-21Y1173676D01*
X-116Y1173701D01*
X-210Y1173729D01*
X-303Y1173761D01*
X-394Y1173797D01*
X-484Y1173836D01*
X-572Y1173879D01*
X-659Y1173926D01*
X-743Y1173975D01*
X-826Y1174028D01*
X-906Y1174084D01*
X-985Y1174143D01*
X-1060Y1174206D01*
X-1134Y1174271D01*
X-1204Y1174339D01*
X-1272Y1174409D01*
X-1338Y1174483D01*
X-1400Y1174559D01*
X-1459Y1174637D01*
X-1515Y1174717D01*
X-1568Y1174800D01*
X-1618Y1174884D01*
X-1664Y1174971D01*
X-1707Y1175059D01*
X-1746Y1175149D01*
X-1782Y1175240D01*
X-1814Y1175333D01*
X-1842Y1175427D01*
X-1867Y1175522D01*
X-1888Y1175618D01*
X-1905Y1175714D01*
X-1919Y1175811D01*
X-1928Y1175909D01*
X-1934Y1176007D01*
X-1936Y1176105D01*
X-1936Y1181100D01*
X-1934Y1181198D01*
X-1928Y1181296D01*
X-1919Y1181394D01*
X-1905Y1181491D01*
X-1888Y1181587D01*
X-1867Y1181683D01*
X-1842Y1181778D01*
X-1814Y1181872D01*
X-1782Y1181965D01*
X-1746Y1182056D01*
X-1707Y1182146D01*
X-1664Y1182234D01*
X-1617Y1182321D01*
X-1568Y1182405D01*
X-1515Y1182488D01*
X-1459Y1182568D01*
X-1400Y1182646D01*
X-1337Y1182722D01*
X-1272Y1182796D01*
X-1204Y1182866D01*
X-1134Y1182934D01*
X-1060Y1182999D01*
X-984Y1183062D01*
X-906Y1183121D01*
X-826Y1183177D01*
X-743Y1183230D01*
X-659Y1183279D01*
X-572Y1183326D01*
X-484Y1183369D01*
X-394Y1183408D01*
X-303Y1183444D01*
X-210Y1183476D01*
X-116Y1183504D01*
X-21Y1183529D01*
X75Y1183550D01*
X171Y1183567D01*
X268Y1183581D01*
X366Y1183590D01*
X464Y1183596D01*
X562Y1183598D01*
X3892Y1183598D01*
X10022Y1180267D02*
X10022Y1176937D01*
X10022Y1180267D02*
X10024Y1180381D01*
X10030Y1180494D01*
X10039Y1180608D01*
X10053Y1180720D01*
X10070Y1180833D01*
X10092Y1180945D01*
X10117Y1181055D01*
X10145Y1181165D01*
X10178Y1181274D01*
X10214Y1181382D01*
X10254Y1181489D01*
X10298Y1181594D01*
X10345Y1181697D01*
X10395Y1181799D01*
X10449Y1181899D01*
X10507Y1181997D01*
X10568Y1182093D01*
X10631Y1182187D01*
X10699Y1182279D01*
X10769Y1182369D01*
X10842Y1182455D01*
X10918Y1182540D01*
X10997Y1182622D01*
X11079Y1182701D01*
X11164Y1182777D01*
X11250Y1182850D01*
X11340Y1182920D01*
X11432Y1182988D01*
X11526Y1183051D01*
X11622Y1183112D01*
X11720Y1183170D01*
X11820Y1183224D01*
X11922Y1183274D01*
X12025Y1183321D01*
X12130Y1183365D01*
X12237Y1183405D01*
X12345Y1183441D01*
X12454Y1183474D01*
X12564Y1183502D01*
X12674Y1183527D01*
X12786Y1183549D01*
X12899Y1183566D01*
X13011Y1183580D01*
X13125Y1183589D01*
X13238Y1183595D01*
X13352Y1183597D01*
X13466Y1183595D01*
X13579Y1183589D01*
X13693Y1183580D01*
X13805Y1183566D01*
X13918Y1183549D01*
X14030Y1183527D01*
X14140Y1183502D01*
X14250Y1183474D01*
X14359Y1183441D01*
X14467Y1183405D01*
X14574Y1183365D01*
X14679Y1183321D01*
X14782Y1183274D01*
X14884Y1183224D01*
X14984Y1183170D01*
X15082Y1183112D01*
X15178Y1183051D01*
X15272Y1182988D01*
X15364Y1182920D01*
X15454Y1182850D01*
X15540Y1182777D01*
X15625Y1182701D01*
X15707Y1182622D01*
X15786Y1182540D01*
X15862Y1182455D01*
X15935Y1182369D01*
X16005Y1182279D01*
X16073Y1182187D01*
X16136Y1182093D01*
X16197Y1181997D01*
X16255Y1181899D01*
X16309Y1181799D01*
X16359Y1181697D01*
X16406Y1181594D01*
X16450Y1181489D01*
X16490Y1181382D01*
X16526Y1181274D01*
X16559Y1181165D01*
X16587Y1181055D01*
X16612Y1180945D01*
X16634Y1180833D01*
X16651Y1180720D01*
X16665Y1180608D01*
X16674Y1180494D01*
X16680Y1180381D01*
X16682Y1180267D01*
X16682Y1176937D01*
X16680Y1176823D01*
X16674Y1176710D01*
X16665Y1176596D01*
X16651Y1176484D01*
X16634Y1176371D01*
X16612Y1176259D01*
X16587Y1176149D01*
X16559Y1176039D01*
X16526Y1175930D01*
X16490Y1175822D01*
X16450Y1175715D01*
X16406Y1175610D01*
X16359Y1175507D01*
X16309Y1175405D01*
X16255Y1175305D01*
X16197Y1175207D01*
X16136Y1175111D01*
X16073Y1175017D01*
X16005Y1174925D01*
X15935Y1174835D01*
X15862Y1174749D01*
X15786Y1174664D01*
X15707Y1174582D01*
X15625Y1174503D01*
X15540Y1174427D01*
X15454Y1174354D01*
X15364Y1174284D01*
X15272Y1174216D01*
X15178Y1174153D01*
X15082Y1174092D01*
X14984Y1174034D01*
X14884Y1173980D01*
X14782Y1173930D01*
X14679Y1173883D01*
X14574Y1173839D01*
X14467Y1173799D01*
X14359Y1173763D01*
X14250Y1173730D01*
X14140Y1173702D01*
X14030Y1173677D01*
X13918Y1173655D01*
X13805Y1173638D01*
X13693Y1173624D01*
X13579Y1173615D01*
X13466Y1173609D01*
X13352Y1173607D01*
X13238Y1173609D01*
X13125Y1173615D01*
X13011Y1173624D01*
X12899Y1173638D01*
X12786Y1173655D01*
X12674Y1173677D01*
X12564Y1173702D01*
X12454Y1173730D01*
X12345Y1173763D01*
X12237Y1173799D01*
X12130Y1173839D01*
X12025Y1173883D01*
X11922Y1173930D01*
X11820Y1173980D01*
X11720Y1174034D01*
X11622Y1174092D01*
X11526Y1174153D01*
X11432Y1174216D01*
X11340Y1174284D01*
X11250Y1174354D01*
X11164Y1174427D01*
X11079Y1174503D01*
X10997Y1174582D01*
X10918Y1174664D01*
X10842Y1174749D01*
X10769Y1174835D01*
X10699Y1174925D01*
X10631Y1175017D01*
X10568Y1175111D01*
X10507Y1175207D01*
X10449Y1175305D01*
X10395Y1175405D01*
X10345Y1175507D01*
X10298Y1175610D01*
X10254Y1175715D01*
X10214Y1175822D01*
X10178Y1175930D01*
X10145Y1176039D01*
X10117Y1176149D01*
X10092Y1176259D01*
X10070Y1176371D01*
X10053Y1176484D01*
X10039Y1176596D01*
X10030Y1176710D01*
X10024Y1176823D01*
X10022Y1176937D01*
X24218Y1173607D02*
X24218Y1183598D01*
X29213Y1183598D01*
X29213Y1181933D01*
X37008Y1173607D02*
X41171Y1173607D01*
X37008Y1173607D02*
X36910Y1173609D01*
X36812Y1173615D01*
X36714Y1173624D01*
X36617Y1173638D01*
X36521Y1173655D01*
X36425Y1173676D01*
X36330Y1173701D01*
X36236Y1173729D01*
X36143Y1173761D01*
X36052Y1173797D01*
X35962Y1173836D01*
X35874Y1173879D01*
X35787Y1173926D01*
X35703Y1173975D01*
X35620Y1174028D01*
X35540Y1174084D01*
X35462Y1174143D01*
X35386Y1174206D01*
X35312Y1174271D01*
X35242Y1174339D01*
X35174Y1174409D01*
X35109Y1174483D01*
X35046Y1174559D01*
X34987Y1174637D01*
X34931Y1174717D01*
X34878Y1174800D01*
X34829Y1174884D01*
X34782Y1174971D01*
X34739Y1175059D01*
X34700Y1175149D01*
X34664Y1175240D01*
X34632Y1175333D01*
X34604Y1175427D01*
X34579Y1175522D01*
X34558Y1175618D01*
X34541Y1175714D01*
X34527Y1175811D01*
X34518Y1175909D01*
X34512Y1176007D01*
X34510Y1176105D01*
X34510Y1180267D01*
X34511Y1180267D02*
X34513Y1180381D01*
X34519Y1180494D01*
X34528Y1180608D01*
X34542Y1180720D01*
X34559Y1180833D01*
X34581Y1180945D01*
X34606Y1181055D01*
X34634Y1181165D01*
X34667Y1181274D01*
X34703Y1181382D01*
X34743Y1181489D01*
X34787Y1181594D01*
X34834Y1181697D01*
X34884Y1181799D01*
X34938Y1181899D01*
X34996Y1181997D01*
X35057Y1182093D01*
X35120Y1182187D01*
X35188Y1182279D01*
X35258Y1182369D01*
X35331Y1182455D01*
X35407Y1182540D01*
X35486Y1182622D01*
X35568Y1182701D01*
X35653Y1182777D01*
X35739Y1182850D01*
X35829Y1182920D01*
X35921Y1182988D01*
X36015Y1183051D01*
X36111Y1183112D01*
X36209Y1183170D01*
X36309Y1183224D01*
X36411Y1183274D01*
X36514Y1183321D01*
X36619Y1183365D01*
X36726Y1183405D01*
X36834Y1183441D01*
X36943Y1183474D01*
X37053Y1183502D01*
X37163Y1183527D01*
X37275Y1183549D01*
X37388Y1183566D01*
X37500Y1183580D01*
X37614Y1183589D01*
X37727Y1183595D01*
X37841Y1183597D01*
X37955Y1183595D01*
X38068Y1183589D01*
X38182Y1183580D01*
X38294Y1183566D01*
X38407Y1183549D01*
X38519Y1183527D01*
X38629Y1183502D01*
X38739Y1183474D01*
X38848Y1183441D01*
X38956Y1183405D01*
X39063Y1183365D01*
X39168Y1183321D01*
X39271Y1183274D01*
X39373Y1183224D01*
X39473Y1183170D01*
X39571Y1183112D01*
X39667Y1183051D01*
X39761Y1182988D01*
X39853Y1182920D01*
X39943Y1182850D01*
X40029Y1182777D01*
X40114Y1182701D01*
X40196Y1182622D01*
X40275Y1182540D01*
X40351Y1182455D01*
X40424Y1182369D01*
X40494Y1182279D01*
X40562Y1182187D01*
X40625Y1182093D01*
X40686Y1181997D01*
X40744Y1181899D01*
X40798Y1181799D01*
X40848Y1181697D01*
X40895Y1181594D01*
X40939Y1181489D01*
X40979Y1181382D01*
X41015Y1181274D01*
X41048Y1181165D01*
X41076Y1181055D01*
X41101Y1180945D01*
X41123Y1180833D01*
X41140Y1180720D01*
X41154Y1180608D01*
X41163Y1180494D01*
X41169Y1180381D01*
X41171Y1180267D01*
X41171Y1178602D01*
X34510Y1178602D01*
D11*
X637540Y1158240D02*
X637540Y-68580D01*
D12*
X597159Y1173607D02*
X593829Y1183598D01*
X600490Y1183598D02*
X597159Y1173607D01*
X607274Y1179435D02*
X617265Y1179435D01*
X625819Y1179435D02*
X629982Y1177770D01*
X625819Y1179434D02*
X625734Y1179470D01*
X625651Y1179510D01*
X625570Y1179553D01*
X625490Y1179600D01*
X625413Y1179650D01*
X625337Y1179703D01*
X625264Y1179759D01*
X625194Y1179819D01*
X625126Y1179881D01*
X625061Y1179946D01*
X624999Y1180014D01*
X624939Y1180085D01*
X624883Y1180158D01*
X624830Y1180233D01*
X624780Y1180311D01*
X624734Y1180390D01*
X624691Y1180472D01*
X624651Y1180555D01*
X624615Y1180640D01*
X624583Y1180726D01*
X624554Y1180814D01*
X624530Y1180903D01*
X624509Y1180993D01*
X624492Y1181083D01*
X624478Y1181174D01*
X624469Y1181266D01*
X624464Y1181358D01*
X624462Y1181450D01*
X624464Y1181542D01*
X624471Y1181634D01*
X624481Y1181726D01*
X624495Y1181817D01*
X624513Y1181908D01*
X624535Y1181997D01*
X624561Y1182086D01*
X624591Y1182173D01*
X624624Y1182259D01*
X624661Y1182343D01*
X624701Y1182426D01*
X624745Y1182507D01*
X624792Y1182586D01*
X624843Y1182663D01*
X624897Y1182738D01*
X624954Y1182811D01*
X625014Y1182881D01*
X625077Y1182948D01*
X625143Y1183012D01*
X625211Y1183074D01*
X625282Y1183133D01*
X625356Y1183188D01*
X625432Y1183241D01*
X625510Y1183290D01*
X625590Y1183336D01*
X625671Y1183378D01*
X625755Y1183417D01*
X625840Y1183452D01*
X625927Y1183483D01*
X626015Y1183511D01*
X626104Y1183535D01*
X626194Y1183555D01*
X626284Y1183572D01*
X626376Y1183584D01*
X626468Y1183593D01*
X626560Y1183597D01*
X626652Y1183598D01*
X626879Y1183592D01*
X627106Y1183581D01*
X627333Y1183564D01*
X627559Y1183541D01*
X627785Y1183514D01*
X628010Y1183480D01*
X628234Y1183442D01*
X628457Y1183398D01*
X628679Y1183349D01*
X628900Y1183294D01*
X629119Y1183234D01*
X629337Y1183169D01*
X629553Y1183098D01*
X629767Y1183023D01*
X629980Y1182942D01*
X630190Y1182856D01*
X630399Y1182765D01*
X629982Y1177770D02*
X630067Y1177734D01*
X630150Y1177694D01*
X630231Y1177651D01*
X630311Y1177604D01*
X630388Y1177554D01*
X630464Y1177501D01*
X630537Y1177445D01*
X630607Y1177385D01*
X630675Y1177323D01*
X630740Y1177258D01*
X630802Y1177190D01*
X630862Y1177119D01*
X630918Y1177046D01*
X630971Y1176971D01*
X631021Y1176893D01*
X631067Y1176814D01*
X631110Y1176732D01*
X631150Y1176649D01*
X631186Y1176564D01*
X631218Y1176478D01*
X631247Y1176390D01*
X631271Y1176301D01*
X631292Y1176211D01*
X631309Y1176121D01*
X631323Y1176030D01*
X631332Y1175938D01*
X631337Y1175846D01*
X631339Y1175754D01*
X631337Y1175662D01*
X631330Y1175570D01*
X631320Y1175478D01*
X631306Y1175387D01*
X631288Y1175296D01*
X631266Y1175207D01*
X631240Y1175118D01*
X631210Y1175031D01*
X631177Y1174945D01*
X631140Y1174861D01*
X631100Y1174778D01*
X631056Y1174697D01*
X631009Y1174618D01*
X630958Y1174541D01*
X630904Y1174466D01*
X630847Y1174393D01*
X630787Y1174323D01*
X630724Y1174256D01*
X630658Y1174192D01*
X630590Y1174130D01*
X630519Y1174071D01*
X630445Y1174016D01*
X630369Y1173963D01*
X630291Y1173914D01*
X630211Y1173868D01*
X630130Y1173826D01*
X630046Y1173787D01*
X629961Y1173752D01*
X629874Y1173721D01*
X629786Y1173693D01*
X629697Y1173669D01*
X629607Y1173649D01*
X629517Y1173632D01*
X629425Y1173620D01*
X629333Y1173611D01*
X629241Y1173607D01*
X629149Y1173606D01*
X629149Y1173607D02*
X628815Y1173616D01*
X628482Y1173633D01*
X628149Y1173657D01*
X627816Y1173690D01*
X627485Y1173730D01*
X627154Y1173778D01*
X626825Y1173834D01*
X626497Y1173897D01*
X626171Y1173969D01*
X625847Y1174048D01*
X625524Y1174134D01*
X625204Y1174229D01*
X624886Y1174331D01*
X624570Y1174440D01*
X640642Y1173607D02*
X643972Y1173607D01*
X640642Y1173607D02*
X640544Y1173609D01*
X640446Y1173615D01*
X640348Y1173624D01*
X640251Y1173638D01*
X640155Y1173655D01*
X640059Y1173676D01*
X639964Y1173701D01*
X639870Y1173729D01*
X639777Y1173761D01*
X639686Y1173797D01*
X639596Y1173836D01*
X639508Y1173879D01*
X639421Y1173926D01*
X639337Y1173975D01*
X639254Y1174028D01*
X639174Y1174084D01*
X639096Y1174143D01*
X639020Y1174206D01*
X638946Y1174271D01*
X638876Y1174339D01*
X638808Y1174409D01*
X638743Y1174483D01*
X638680Y1174559D01*
X638621Y1174637D01*
X638565Y1174717D01*
X638512Y1174800D01*
X638463Y1174884D01*
X638416Y1174971D01*
X638373Y1175059D01*
X638334Y1175149D01*
X638298Y1175240D01*
X638266Y1175333D01*
X638238Y1175427D01*
X638213Y1175522D01*
X638192Y1175618D01*
X638175Y1175714D01*
X638161Y1175811D01*
X638152Y1175909D01*
X638146Y1176007D01*
X638144Y1176105D01*
X638144Y1181100D01*
X638146Y1181198D01*
X638152Y1181296D01*
X638161Y1181394D01*
X638175Y1181491D01*
X638192Y1181587D01*
X638213Y1181683D01*
X638238Y1181778D01*
X638266Y1181872D01*
X638298Y1181965D01*
X638334Y1182056D01*
X638373Y1182146D01*
X638416Y1182234D01*
X638463Y1182321D01*
X638512Y1182405D01*
X638565Y1182488D01*
X638621Y1182568D01*
X638680Y1182647D01*
X638743Y1182722D01*
X638808Y1182796D01*
X638876Y1182866D01*
X638946Y1182934D01*
X639020Y1183000D01*
X639096Y1183062D01*
X639174Y1183121D01*
X639254Y1183177D01*
X639337Y1183230D01*
X639421Y1183280D01*
X639508Y1183326D01*
X639596Y1183369D01*
X639686Y1183408D01*
X639777Y1183444D01*
X639870Y1183476D01*
X639964Y1183504D01*
X640059Y1183529D01*
X640155Y1183550D01*
X640251Y1183567D01*
X640348Y1183581D01*
X640446Y1183590D01*
X640544Y1183596D01*
X640642Y1183598D01*
X643972Y1183598D01*
X650102Y1180267D02*
X650102Y1176937D01*
X650102Y1180267D02*
X650104Y1180381D01*
X650110Y1180494D01*
X650119Y1180608D01*
X650133Y1180720D01*
X650150Y1180833D01*
X650172Y1180945D01*
X650197Y1181055D01*
X650225Y1181165D01*
X650258Y1181274D01*
X650294Y1181382D01*
X650334Y1181489D01*
X650378Y1181594D01*
X650425Y1181697D01*
X650475Y1181799D01*
X650529Y1181899D01*
X650587Y1181997D01*
X650648Y1182093D01*
X650711Y1182187D01*
X650779Y1182279D01*
X650849Y1182369D01*
X650922Y1182455D01*
X650998Y1182540D01*
X651077Y1182622D01*
X651159Y1182701D01*
X651244Y1182777D01*
X651330Y1182850D01*
X651420Y1182920D01*
X651512Y1182988D01*
X651606Y1183051D01*
X651702Y1183112D01*
X651800Y1183170D01*
X651900Y1183224D01*
X652002Y1183274D01*
X652105Y1183321D01*
X652210Y1183365D01*
X652317Y1183405D01*
X652425Y1183441D01*
X652534Y1183474D01*
X652644Y1183502D01*
X652754Y1183527D01*
X652866Y1183549D01*
X652979Y1183566D01*
X653091Y1183580D01*
X653205Y1183589D01*
X653318Y1183595D01*
X653432Y1183597D01*
X653546Y1183595D01*
X653659Y1183589D01*
X653773Y1183580D01*
X653885Y1183566D01*
X653998Y1183549D01*
X654110Y1183527D01*
X654220Y1183502D01*
X654330Y1183474D01*
X654439Y1183441D01*
X654547Y1183405D01*
X654654Y1183365D01*
X654759Y1183321D01*
X654862Y1183274D01*
X654964Y1183224D01*
X655064Y1183170D01*
X655162Y1183112D01*
X655258Y1183051D01*
X655352Y1182988D01*
X655444Y1182920D01*
X655534Y1182850D01*
X655620Y1182777D01*
X655705Y1182701D01*
X655787Y1182622D01*
X655866Y1182540D01*
X655942Y1182455D01*
X656015Y1182369D01*
X656085Y1182279D01*
X656153Y1182187D01*
X656216Y1182093D01*
X656277Y1181997D01*
X656335Y1181899D01*
X656389Y1181799D01*
X656439Y1181697D01*
X656486Y1181594D01*
X656530Y1181489D01*
X656570Y1181382D01*
X656606Y1181274D01*
X656639Y1181165D01*
X656667Y1181055D01*
X656692Y1180945D01*
X656714Y1180833D01*
X656731Y1180720D01*
X656745Y1180608D01*
X656754Y1180494D01*
X656760Y1180381D01*
X656762Y1180267D01*
X656762Y1176937D01*
X656760Y1176823D01*
X656754Y1176710D01*
X656745Y1176596D01*
X656731Y1176484D01*
X656714Y1176371D01*
X656692Y1176259D01*
X656667Y1176149D01*
X656639Y1176039D01*
X656606Y1175930D01*
X656570Y1175822D01*
X656530Y1175715D01*
X656486Y1175610D01*
X656439Y1175507D01*
X656389Y1175405D01*
X656335Y1175305D01*
X656277Y1175207D01*
X656216Y1175111D01*
X656153Y1175017D01*
X656085Y1174925D01*
X656015Y1174835D01*
X655942Y1174749D01*
X655866Y1174664D01*
X655787Y1174582D01*
X655705Y1174503D01*
X655620Y1174427D01*
X655534Y1174354D01*
X655444Y1174284D01*
X655352Y1174216D01*
X655258Y1174153D01*
X655162Y1174092D01*
X655064Y1174034D01*
X654964Y1173980D01*
X654862Y1173930D01*
X654759Y1173883D01*
X654654Y1173839D01*
X654547Y1173799D01*
X654439Y1173763D01*
X654330Y1173730D01*
X654220Y1173702D01*
X654110Y1173677D01*
X653998Y1173655D01*
X653885Y1173638D01*
X653773Y1173624D01*
X653659Y1173615D01*
X653546Y1173609D01*
X653432Y1173607D01*
X653318Y1173609D01*
X653205Y1173615D01*
X653091Y1173624D01*
X652979Y1173638D01*
X652866Y1173655D01*
X652754Y1173677D01*
X652644Y1173702D01*
X652534Y1173730D01*
X652425Y1173763D01*
X652317Y1173799D01*
X652210Y1173839D01*
X652105Y1173883D01*
X652002Y1173930D01*
X651900Y1173980D01*
X651800Y1174034D01*
X651702Y1174092D01*
X651606Y1174153D01*
X651512Y1174216D01*
X651420Y1174284D01*
X651330Y1174354D01*
X651244Y1174427D01*
X651159Y1174503D01*
X651077Y1174582D01*
X650998Y1174664D01*
X650922Y1174749D01*
X650849Y1174835D01*
X650779Y1174925D01*
X650711Y1175017D01*
X650648Y1175111D01*
X650587Y1175207D01*
X650529Y1175305D01*
X650475Y1175405D01*
X650425Y1175507D01*
X650378Y1175610D01*
X650334Y1175715D01*
X650294Y1175822D01*
X650258Y1175930D01*
X650225Y1176039D01*
X650197Y1176149D01*
X650172Y1176259D01*
X650150Y1176371D01*
X650133Y1176484D01*
X650119Y1176596D01*
X650110Y1176710D01*
X650104Y1176823D01*
X650102Y1176937D01*
X664298Y1173607D02*
X664298Y1183598D01*
X669293Y1183598D01*
X669293Y1181933D01*
X677088Y1173607D02*
X681251Y1173607D01*
X677088Y1173607D02*
X676990Y1173609D01*
X676892Y1173615D01*
X676794Y1173624D01*
X676697Y1173638D01*
X676601Y1173655D01*
X676505Y1173676D01*
X676410Y1173701D01*
X676316Y1173729D01*
X676223Y1173761D01*
X676132Y1173797D01*
X676042Y1173836D01*
X675954Y1173879D01*
X675867Y1173926D01*
X675783Y1173975D01*
X675700Y1174028D01*
X675620Y1174084D01*
X675542Y1174143D01*
X675466Y1174206D01*
X675392Y1174271D01*
X675322Y1174339D01*
X675254Y1174409D01*
X675189Y1174483D01*
X675126Y1174559D01*
X675067Y1174637D01*
X675011Y1174717D01*
X674958Y1174800D01*
X674909Y1174884D01*
X674862Y1174971D01*
X674819Y1175059D01*
X674780Y1175149D01*
X674744Y1175240D01*
X674712Y1175333D01*
X674684Y1175427D01*
X674659Y1175522D01*
X674638Y1175618D01*
X674621Y1175714D01*
X674607Y1175811D01*
X674598Y1175909D01*
X674592Y1176007D01*
X674590Y1176105D01*
X674590Y1180267D01*
X674591Y1180267D02*
X674593Y1180381D01*
X674599Y1180494D01*
X674608Y1180608D01*
X674622Y1180720D01*
X674639Y1180833D01*
X674661Y1180945D01*
X674686Y1181055D01*
X674714Y1181165D01*
X674747Y1181274D01*
X674783Y1181382D01*
X674823Y1181489D01*
X674867Y1181594D01*
X674914Y1181697D01*
X674964Y1181799D01*
X675018Y1181899D01*
X675076Y1181997D01*
X675137Y1182093D01*
X675200Y1182187D01*
X675268Y1182279D01*
X675338Y1182369D01*
X675411Y1182455D01*
X675487Y1182540D01*
X675566Y1182622D01*
X675648Y1182701D01*
X675733Y1182777D01*
X675819Y1182850D01*
X675909Y1182920D01*
X676001Y1182988D01*
X676095Y1183051D01*
X676191Y1183112D01*
X676289Y1183170D01*
X676389Y1183224D01*
X676491Y1183274D01*
X676594Y1183321D01*
X676699Y1183365D01*
X676806Y1183405D01*
X676914Y1183441D01*
X677023Y1183474D01*
X677133Y1183502D01*
X677243Y1183527D01*
X677355Y1183549D01*
X677468Y1183566D01*
X677580Y1183580D01*
X677694Y1183589D01*
X677807Y1183595D01*
X677921Y1183597D01*
X678035Y1183595D01*
X678148Y1183589D01*
X678262Y1183580D01*
X678374Y1183566D01*
X678487Y1183549D01*
X678599Y1183527D01*
X678709Y1183502D01*
X678819Y1183474D01*
X678928Y1183441D01*
X679036Y1183405D01*
X679143Y1183365D01*
X679248Y1183321D01*
X679351Y1183274D01*
X679453Y1183224D01*
X679553Y1183170D01*
X679651Y1183112D01*
X679747Y1183051D01*
X679841Y1182988D01*
X679933Y1182920D01*
X680023Y1182850D01*
X680109Y1182777D01*
X680194Y1182701D01*
X680276Y1182622D01*
X680355Y1182540D01*
X680431Y1182455D01*
X680504Y1182369D01*
X680574Y1182279D01*
X680642Y1182187D01*
X680705Y1182093D01*
X680766Y1181997D01*
X680824Y1181899D01*
X680878Y1181799D01*
X680928Y1181697D01*
X680975Y1181594D01*
X681019Y1181489D01*
X681059Y1181382D01*
X681095Y1181274D01*
X681128Y1181165D01*
X681156Y1181055D01*
X681181Y1180945D01*
X681203Y1180833D01*
X681220Y1180720D01*
X681234Y1180608D01*
X681243Y1180494D01*
X681249Y1180381D01*
X681251Y1180267D01*
X681251Y1178602D01*
X674590Y1178602D01*
D11*
X767080Y-2540D02*
X-68580Y-2540D01*
D12*
X799569Y-42D02*
X802899Y-10033D01*
X806230Y-42D01*
X813014Y-4205D02*
X823005Y-4205D01*
X831559Y-4205D02*
X835722Y-5870D01*
X831559Y-4206D02*
X831474Y-4170D01*
X831391Y-4130D01*
X831310Y-4087D01*
X831230Y-4040D01*
X831153Y-3990D01*
X831077Y-3937D01*
X831004Y-3881D01*
X830934Y-3821D01*
X830866Y-3759D01*
X830801Y-3694D01*
X830739Y-3626D01*
X830679Y-3555D01*
X830623Y-3482D01*
X830570Y-3407D01*
X830520Y-3329D01*
X830474Y-3250D01*
X830431Y-3168D01*
X830391Y-3085D01*
X830355Y-3000D01*
X830323Y-2914D01*
X830294Y-2826D01*
X830270Y-2737D01*
X830249Y-2647D01*
X830232Y-2557D01*
X830218Y-2466D01*
X830209Y-2374D01*
X830204Y-2282D01*
X830202Y-2190D01*
X830204Y-2098D01*
X830211Y-2006D01*
X830221Y-1914D01*
X830235Y-1823D01*
X830253Y-1732D01*
X830275Y-1643D01*
X830301Y-1554D01*
X830331Y-1467D01*
X830364Y-1381D01*
X830401Y-1297D01*
X830441Y-1214D01*
X830485Y-1133D01*
X830532Y-1054D01*
X830583Y-977D01*
X830637Y-902D01*
X830694Y-829D01*
X830754Y-759D01*
X830817Y-692D01*
X830883Y-628D01*
X830951Y-566D01*
X831022Y-507D01*
X831096Y-452D01*
X831172Y-399D01*
X831250Y-350D01*
X831330Y-304D01*
X831411Y-262D01*
X831495Y-223D01*
X831580Y-188D01*
X831667Y-157D01*
X831755Y-129D01*
X831844Y-105D01*
X831934Y-85D01*
X832024Y-68D01*
X832116Y-56D01*
X832208Y-47D01*
X832300Y-43D01*
X832392Y-42D01*
X832619Y-48D01*
X832846Y-59D01*
X833073Y-76D01*
X833299Y-99D01*
X833525Y-126D01*
X833750Y-160D01*
X833974Y-198D01*
X834197Y-242D01*
X834419Y-291D01*
X834640Y-346D01*
X834859Y-406D01*
X835077Y-471D01*
X835293Y-542D01*
X835507Y-617D01*
X835720Y-698D01*
X835930Y-784D01*
X836139Y-875D01*
X835722Y-5870D02*
X835807Y-5906D01*
X835890Y-5946D01*
X835971Y-5989D01*
X836051Y-6036D01*
X836128Y-6086D01*
X836204Y-6139D01*
X836277Y-6195D01*
X836347Y-6255D01*
X836415Y-6317D01*
X836480Y-6382D01*
X836542Y-6450D01*
X836602Y-6521D01*
X836658Y-6594D01*
X836711Y-6669D01*
X836761Y-6747D01*
X836807Y-6826D01*
X836850Y-6908D01*
X836890Y-6991D01*
X836926Y-7076D01*
X836958Y-7162D01*
X836987Y-7250D01*
X837011Y-7339D01*
X837032Y-7429D01*
X837049Y-7519D01*
X837063Y-7610D01*
X837072Y-7702D01*
X837077Y-7794D01*
X837079Y-7886D01*
X837077Y-7978D01*
X837070Y-8070D01*
X837060Y-8162D01*
X837046Y-8253D01*
X837028Y-8344D01*
X837006Y-8433D01*
X836980Y-8522D01*
X836950Y-8609D01*
X836917Y-8695D01*
X836880Y-8779D01*
X836840Y-8862D01*
X836796Y-8943D01*
X836749Y-9022D01*
X836698Y-9099D01*
X836644Y-9174D01*
X836587Y-9247D01*
X836527Y-9317D01*
X836464Y-9384D01*
X836398Y-9448D01*
X836330Y-9510D01*
X836259Y-9569D01*
X836185Y-9624D01*
X836109Y-9677D01*
X836031Y-9726D01*
X835951Y-9772D01*
X835870Y-9814D01*
X835786Y-9853D01*
X835701Y-9888D01*
X835614Y-9919D01*
X835526Y-9947D01*
X835437Y-9971D01*
X835347Y-9991D01*
X835257Y-10008D01*
X835165Y-10020D01*
X835073Y-10029D01*
X834981Y-10033D01*
X834889Y-10034D01*
X834889Y-10033D02*
X834555Y-10024D01*
X834222Y-10007D01*
X833889Y-9983D01*
X833556Y-9950D01*
X833225Y-9910D01*
X832894Y-9862D01*
X832565Y-9806D01*
X832237Y-9743D01*
X831911Y-9671D01*
X831587Y-9592D01*
X831264Y-9506D01*
X830944Y-9411D01*
X830626Y-9309D01*
X830310Y-9200D01*
X846382Y-10033D02*
X849712Y-10033D01*
X846382Y-10033D02*
X846284Y-10031D01*
X846186Y-10025D01*
X846088Y-10016D01*
X845991Y-10002D01*
X845895Y-9985D01*
X845799Y-9964D01*
X845704Y-9939D01*
X845610Y-9911D01*
X845517Y-9879D01*
X845426Y-9843D01*
X845336Y-9804D01*
X845248Y-9761D01*
X845161Y-9714D01*
X845077Y-9665D01*
X844994Y-9612D01*
X844914Y-9556D01*
X844836Y-9497D01*
X844760Y-9435D01*
X844686Y-9369D01*
X844616Y-9301D01*
X844548Y-9231D01*
X844483Y-9157D01*
X844420Y-9082D01*
X844361Y-9003D01*
X844305Y-8923D01*
X844252Y-8840D01*
X844203Y-8756D01*
X844156Y-8669D01*
X844113Y-8581D01*
X844074Y-8491D01*
X844038Y-8400D01*
X844006Y-8307D01*
X843978Y-8213D01*
X843953Y-8118D01*
X843932Y-8022D01*
X843915Y-7926D01*
X843901Y-7829D01*
X843892Y-7731D01*
X843886Y-7633D01*
X843884Y-7535D01*
X843884Y-2540D01*
X843886Y-2442D01*
X843892Y-2344D01*
X843901Y-2246D01*
X843915Y-2149D01*
X843932Y-2053D01*
X843953Y-1957D01*
X843978Y-1862D01*
X844006Y-1768D01*
X844038Y-1675D01*
X844074Y-1584D01*
X844113Y-1494D01*
X844156Y-1406D01*
X844203Y-1319D01*
X844252Y-1235D01*
X844305Y-1152D01*
X844361Y-1072D01*
X844420Y-994D01*
X844483Y-918D01*
X844548Y-844D01*
X844616Y-774D01*
X844686Y-706D01*
X844760Y-641D01*
X844836Y-578D01*
X844914Y-519D01*
X844994Y-463D01*
X845077Y-410D01*
X845161Y-361D01*
X845248Y-314D01*
X845336Y-271D01*
X845426Y-232D01*
X845517Y-196D01*
X845610Y-164D01*
X845704Y-136D01*
X845799Y-111D01*
X845895Y-90D01*
X845991Y-73D01*
X846088Y-59D01*
X846186Y-50D01*
X846284Y-44D01*
X846382Y-42D01*
X849712Y-42D01*
X855842Y-3373D02*
X855842Y-6703D01*
X855842Y-3373D02*
X855844Y-3259D01*
X855850Y-3146D01*
X855859Y-3032D01*
X855873Y-2920D01*
X855890Y-2807D01*
X855912Y-2695D01*
X855937Y-2585D01*
X855965Y-2475D01*
X855998Y-2366D01*
X856034Y-2258D01*
X856074Y-2151D01*
X856118Y-2046D01*
X856165Y-1943D01*
X856215Y-1841D01*
X856269Y-1741D01*
X856327Y-1643D01*
X856388Y-1547D01*
X856451Y-1453D01*
X856519Y-1361D01*
X856589Y-1271D01*
X856662Y-1185D01*
X856738Y-1100D01*
X856817Y-1018D01*
X856899Y-939D01*
X856984Y-863D01*
X857070Y-790D01*
X857160Y-720D01*
X857252Y-652D01*
X857346Y-589D01*
X857442Y-528D01*
X857540Y-470D01*
X857640Y-416D01*
X857742Y-366D01*
X857845Y-319D01*
X857950Y-275D01*
X858057Y-235D01*
X858165Y-199D01*
X858274Y-166D01*
X858384Y-138D01*
X858494Y-113D01*
X858606Y-91D01*
X858719Y-74D01*
X858831Y-60D01*
X858945Y-51D01*
X859058Y-45D01*
X859172Y-43D01*
X859286Y-45D01*
X859399Y-51D01*
X859513Y-60D01*
X859625Y-74D01*
X859738Y-91D01*
X859850Y-113D01*
X859960Y-138D01*
X860070Y-166D01*
X860179Y-199D01*
X860287Y-235D01*
X860394Y-275D01*
X860499Y-319D01*
X860602Y-366D01*
X860704Y-416D01*
X860804Y-470D01*
X860902Y-528D01*
X860998Y-589D01*
X861092Y-652D01*
X861184Y-720D01*
X861274Y-790D01*
X861360Y-863D01*
X861445Y-939D01*
X861527Y-1018D01*
X861606Y-1100D01*
X861682Y-1185D01*
X861755Y-1271D01*
X861825Y-1361D01*
X861893Y-1453D01*
X861956Y-1547D01*
X862017Y-1643D01*
X862075Y-1741D01*
X862129Y-1841D01*
X862179Y-1943D01*
X862226Y-2046D01*
X862270Y-2151D01*
X862310Y-2258D01*
X862346Y-2366D01*
X862379Y-2475D01*
X862407Y-2585D01*
X862432Y-2695D01*
X862454Y-2807D01*
X862471Y-2920D01*
X862485Y-3032D01*
X862494Y-3146D01*
X862500Y-3259D01*
X862502Y-3373D01*
X862502Y-6703D01*
X862500Y-6817D01*
X862494Y-6930D01*
X862485Y-7044D01*
X862471Y-7156D01*
X862454Y-7269D01*
X862432Y-7381D01*
X862407Y-7491D01*
X862379Y-7601D01*
X862346Y-7710D01*
X862310Y-7818D01*
X862270Y-7925D01*
X862226Y-8030D01*
X862179Y-8133D01*
X862129Y-8235D01*
X862075Y-8335D01*
X862017Y-8433D01*
X861956Y-8529D01*
X861893Y-8623D01*
X861825Y-8715D01*
X861755Y-8805D01*
X861682Y-8891D01*
X861606Y-8976D01*
X861527Y-9058D01*
X861445Y-9137D01*
X861360Y-9213D01*
X861274Y-9286D01*
X861184Y-9356D01*
X861092Y-9424D01*
X860998Y-9487D01*
X860902Y-9548D01*
X860804Y-9606D01*
X860704Y-9660D01*
X860602Y-9710D01*
X860499Y-9757D01*
X860394Y-9801D01*
X860287Y-9841D01*
X860179Y-9877D01*
X860070Y-9910D01*
X859960Y-9938D01*
X859850Y-9963D01*
X859738Y-9985D01*
X859625Y-10002D01*
X859513Y-10016D01*
X859399Y-10025D01*
X859286Y-10031D01*
X859172Y-10033D01*
X859058Y-10031D01*
X858945Y-10025D01*
X858831Y-10016D01*
X858719Y-10002D01*
X858606Y-9985D01*
X858494Y-9963D01*
X858384Y-9938D01*
X858274Y-9910D01*
X858165Y-9877D01*
X858057Y-9841D01*
X857950Y-9801D01*
X857845Y-9757D01*
X857742Y-9710D01*
X857640Y-9660D01*
X857540Y-9606D01*
X857442Y-9548D01*
X857346Y-9487D01*
X857252Y-9424D01*
X857160Y-9356D01*
X857070Y-9286D01*
X856984Y-9213D01*
X856899Y-9137D01*
X856817Y-9058D01*
X856738Y-8976D01*
X856662Y-8891D01*
X856589Y-8805D01*
X856519Y-8715D01*
X856451Y-8623D01*
X856388Y-8529D01*
X856327Y-8433D01*
X856269Y-8335D01*
X856215Y-8235D01*
X856165Y-8133D01*
X856118Y-8030D01*
X856074Y-7925D01*
X856034Y-7818D01*
X855998Y-7710D01*
X855965Y-7601D01*
X855937Y-7491D01*
X855912Y-7381D01*
X855890Y-7269D01*
X855873Y-7156D01*
X855859Y-7044D01*
X855850Y-6930D01*
X855844Y-6817D01*
X855842Y-6703D01*
X870038Y-10033D02*
X870038Y-42D01*
X875033Y-42D01*
X875033Y-1707D01*
X882828Y-10033D02*
X886991Y-10033D01*
X882828Y-10033D02*
X882730Y-10031D01*
X882632Y-10025D01*
X882534Y-10016D01*
X882437Y-10002D01*
X882341Y-9985D01*
X882245Y-9964D01*
X882150Y-9939D01*
X882056Y-9911D01*
X881963Y-9879D01*
X881872Y-9843D01*
X881782Y-9804D01*
X881694Y-9761D01*
X881607Y-9714D01*
X881523Y-9665D01*
X881440Y-9612D01*
X881360Y-9556D01*
X881282Y-9497D01*
X881206Y-9435D01*
X881132Y-9369D01*
X881062Y-9301D01*
X880994Y-9231D01*
X880929Y-9157D01*
X880866Y-9082D01*
X880807Y-9003D01*
X880751Y-8923D01*
X880698Y-8840D01*
X880649Y-8756D01*
X880602Y-8669D01*
X880559Y-8581D01*
X880520Y-8491D01*
X880484Y-8400D01*
X880452Y-8307D01*
X880424Y-8213D01*
X880399Y-8118D01*
X880378Y-8022D01*
X880361Y-7926D01*
X880347Y-7829D01*
X880338Y-7731D01*
X880332Y-7633D01*
X880330Y-7535D01*
X880330Y-3373D01*
X880331Y-3373D02*
X880333Y-3259D01*
X880339Y-3146D01*
X880348Y-3032D01*
X880362Y-2920D01*
X880379Y-2807D01*
X880401Y-2695D01*
X880426Y-2585D01*
X880454Y-2475D01*
X880487Y-2366D01*
X880523Y-2258D01*
X880563Y-2151D01*
X880607Y-2046D01*
X880654Y-1943D01*
X880704Y-1841D01*
X880758Y-1741D01*
X880816Y-1643D01*
X880877Y-1547D01*
X880940Y-1453D01*
X881008Y-1361D01*
X881078Y-1271D01*
X881151Y-1185D01*
X881227Y-1100D01*
X881306Y-1018D01*
X881388Y-939D01*
X881473Y-863D01*
X881559Y-790D01*
X881649Y-720D01*
X881741Y-652D01*
X881835Y-589D01*
X881931Y-528D01*
X882029Y-470D01*
X882129Y-416D01*
X882231Y-366D01*
X882334Y-319D01*
X882439Y-275D01*
X882546Y-235D01*
X882654Y-199D01*
X882763Y-166D01*
X882873Y-138D01*
X882983Y-113D01*
X883095Y-91D01*
X883208Y-74D01*
X883320Y-60D01*
X883434Y-51D01*
X883547Y-45D01*
X883661Y-43D01*
X883775Y-45D01*
X883888Y-51D01*
X884002Y-60D01*
X884114Y-74D01*
X884227Y-91D01*
X884339Y-113D01*
X884449Y-138D01*
X884559Y-166D01*
X884668Y-199D01*
X884776Y-235D01*
X884883Y-275D01*
X884988Y-319D01*
X885091Y-366D01*
X885193Y-416D01*
X885293Y-470D01*
X885391Y-528D01*
X885487Y-589D01*
X885581Y-652D01*
X885673Y-720D01*
X885763Y-790D01*
X885849Y-863D01*
X885934Y-939D01*
X886016Y-1018D01*
X886095Y-1100D01*
X886171Y-1185D01*
X886244Y-1271D01*
X886314Y-1361D01*
X886382Y-1453D01*
X886445Y-1547D01*
X886506Y-1643D01*
X886564Y-1741D01*
X886618Y-1841D01*
X886668Y-1943D01*
X886715Y-2046D01*
X886759Y-2151D01*
X886799Y-2258D01*
X886835Y-2366D01*
X886868Y-2475D01*
X886896Y-2585D01*
X886921Y-2695D01*
X886943Y-2807D01*
X886960Y-2920D01*
X886974Y-3032D01*
X886983Y-3146D01*
X886989Y-3259D01*
X886991Y-3373D01*
X886991Y-5038D01*
X880330Y-5038D01*
D11*
X767080Y542290D02*
X-68580Y542290D01*
D12*
X799569Y544788D02*
X802899Y534797D01*
X806230Y544788D01*
X813014Y540625D02*
X823005Y540625D01*
X831559Y540625D02*
X835722Y538960D01*
X831559Y540624D02*
X831474Y540660D01*
X831391Y540700D01*
X831310Y540743D01*
X831230Y540790D01*
X831153Y540840D01*
X831077Y540893D01*
X831004Y540949D01*
X830934Y541009D01*
X830866Y541071D01*
X830801Y541136D01*
X830739Y541204D01*
X830679Y541275D01*
X830623Y541348D01*
X830570Y541423D01*
X830520Y541501D01*
X830474Y541580D01*
X830431Y541662D01*
X830391Y541745D01*
X830355Y541830D01*
X830323Y541916D01*
X830294Y542004D01*
X830270Y542093D01*
X830249Y542183D01*
X830232Y542273D01*
X830218Y542364D01*
X830209Y542456D01*
X830204Y542548D01*
X830202Y542640D01*
X830204Y542732D01*
X830211Y542824D01*
X830221Y542916D01*
X830235Y543007D01*
X830253Y543098D01*
X830275Y543187D01*
X830301Y543276D01*
X830331Y543363D01*
X830364Y543449D01*
X830401Y543533D01*
X830441Y543616D01*
X830485Y543697D01*
X830532Y543776D01*
X830583Y543853D01*
X830637Y543928D01*
X830694Y544001D01*
X830754Y544071D01*
X830817Y544138D01*
X830883Y544202D01*
X830951Y544264D01*
X831022Y544323D01*
X831096Y544378D01*
X831172Y544431D01*
X831250Y544480D01*
X831330Y544526D01*
X831411Y544568D01*
X831495Y544607D01*
X831580Y544642D01*
X831667Y544673D01*
X831755Y544701D01*
X831844Y544725D01*
X831934Y544745D01*
X832024Y544762D01*
X832116Y544774D01*
X832208Y544783D01*
X832300Y544787D01*
X832392Y544788D01*
X832619Y544782D01*
X832846Y544771D01*
X833073Y544754D01*
X833299Y544731D01*
X833525Y544704D01*
X833750Y544670D01*
X833974Y544632D01*
X834197Y544588D01*
X834419Y544539D01*
X834640Y544484D01*
X834859Y544424D01*
X835077Y544359D01*
X835293Y544288D01*
X835507Y544213D01*
X835720Y544132D01*
X835930Y544046D01*
X836139Y543955D01*
X835722Y538960D02*
X835807Y538924D01*
X835890Y538884D01*
X835971Y538841D01*
X836051Y538794D01*
X836128Y538744D01*
X836204Y538691D01*
X836277Y538635D01*
X836347Y538575D01*
X836415Y538513D01*
X836480Y538448D01*
X836542Y538380D01*
X836602Y538309D01*
X836658Y538236D01*
X836711Y538161D01*
X836761Y538083D01*
X836807Y538004D01*
X836850Y537922D01*
X836890Y537839D01*
X836926Y537754D01*
X836958Y537668D01*
X836987Y537580D01*
X837011Y537491D01*
X837032Y537401D01*
X837049Y537311D01*
X837063Y537220D01*
X837072Y537128D01*
X837077Y537036D01*
X837079Y536944D01*
X837077Y536852D01*
X837070Y536760D01*
X837060Y536668D01*
X837046Y536577D01*
X837028Y536486D01*
X837006Y536397D01*
X836980Y536308D01*
X836950Y536221D01*
X836917Y536135D01*
X836880Y536051D01*
X836840Y535968D01*
X836796Y535887D01*
X836749Y535808D01*
X836698Y535731D01*
X836644Y535656D01*
X836587Y535583D01*
X836527Y535513D01*
X836464Y535446D01*
X836398Y535382D01*
X836330Y535320D01*
X836259Y535261D01*
X836185Y535206D01*
X836109Y535153D01*
X836031Y535104D01*
X835951Y535058D01*
X835870Y535016D01*
X835786Y534977D01*
X835701Y534942D01*
X835614Y534911D01*
X835526Y534883D01*
X835437Y534859D01*
X835347Y534839D01*
X835257Y534822D01*
X835165Y534810D01*
X835073Y534801D01*
X834981Y534797D01*
X834889Y534796D01*
X834889Y534797D02*
X834555Y534806D01*
X834222Y534823D01*
X833889Y534847D01*
X833556Y534880D01*
X833225Y534920D01*
X832894Y534968D01*
X832565Y535024D01*
X832237Y535087D01*
X831911Y535159D01*
X831587Y535238D01*
X831264Y535324D01*
X830944Y535419D01*
X830626Y535521D01*
X830310Y535630D01*
X846382Y534797D02*
X849712Y534797D01*
X846382Y534797D02*
X846284Y534799D01*
X846186Y534805D01*
X846088Y534814D01*
X845991Y534828D01*
X845895Y534845D01*
X845799Y534866D01*
X845704Y534891D01*
X845610Y534919D01*
X845517Y534951D01*
X845426Y534987D01*
X845336Y535026D01*
X845248Y535069D01*
X845161Y535116D01*
X845077Y535165D01*
X844994Y535218D01*
X844914Y535274D01*
X844836Y535333D01*
X844760Y535396D01*
X844686Y535461D01*
X844616Y535529D01*
X844548Y535599D01*
X844483Y535673D01*
X844420Y535749D01*
X844361Y535827D01*
X844305Y535907D01*
X844252Y535990D01*
X844203Y536074D01*
X844156Y536161D01*
X844113Y536249D01*
X844074Y536339D01*
X844038Y536430D01*
X844006Y536523D01*
X843978Y536617D01*
X843953Y536712D01*
X843932Y536808D01*
X843915Y536904D01*
X843901Y537001D01*
X843892Y537099D01*
X843886Y537197D01*
X843884Y537295D01*
X843884Y542290D01*
X843886Y542388D01*
X843892Y542486D01*
X843901Y542584D01*
X843915Y542681D01*
X843932Y542777D01*
X843953Y542873D01*
X843978Y542968D01*
X844006Y543062D01*
X844038Y543155D01*
X844074Y543246D01*
X844113Y543336D01*
X844156Y543424D01*
X844203Y543511D01*
X844252Y543595D01*
X844305Y543678D01*
X844361Y543758D01*
X844420Y543837D01*
X844483Y543912D01*
X844548Y543986D01*
X844616Y544056D01*
X844686Y544124D01*
X844760Y544190D01*
X844836Y544252D01*
X844914Y544311D01*
X844994Y544367D01*
X845077Y544420D01*
X845161Y544470D01*
X845248Y544516D01*
X845336Y544559D01*
X845426Y544598D01*
X845517Y544634D01*
X845610Y544666D01*
X845704Y544694D01*
X845799Y544719D01*
X845895Y544740D01*
X845991Y544757D01*
X846088Y544771D01*
X846186Y544780D01*
X846284Y544786D01*
X846382Y544788D01*
X849712Y544788D01*
X855842Y541457D02*
X855842Y538127D01*
X855842Y541457D02*
X855844Y541571D01*
X855850Y541684D01*
X855859Y541798D01*
X855873Y541910D01*
X855890Y542023D01*
X855912Y542135D01*
X855937Y542245D01*
X855965Y542355D01*
X855998Y542464D01*
X856034Y542572D01*
X856074Y542679D01*
X856118Y542784D01*
X856165Y542887D01*
X856215Y542989D01*
X856269Y543089D01*
X856327Y543187D01*
X856388Y543283D01*
X856451Y543377D01*
X856519Y543469D01*
X856589Y543559D01*
X856662Y543645D01*
X856738Y543730D01*
X856817Y543812D01*
X856899Y543891D01*
X856984Y543967D01*
X857070Y544040D01*
X857160Y544110D01*
X857252Y544178D01*
X857346Y544241D01*
X857442Y544302D01*
X857540Y544360D01*
X857640Y544414D01*
X857742Y544464D01*
X857845Y544511D01*
X857950Y544555D01*
X858057Y544595D01*
X858165Y544631D01*
X858274Y544664D01*
X858384Y544692D01*
X858494Y544717D01*
X858606Y544739D01*
X858719Y544756D01*
X858831Y544770D01*
X858945Y544779D01*
X859058Y544785D01*
X859172Y544787D01*
X859286Y544785D01*
X859399Y544779D01*
X859513Y544770D01*
X859625Y544756D01*
X859738Y544739D01*
X859850Y544717D01*
X859960Y544692D01*
X860070Y544664D01*
X860179Y544631D01*
X860287Y544595D01*
X860394Y544555D01*
X860499Y544511D01*
X860602Y544464D01*
X860704Y544414D01*
X860804Y544360D01*
X860902Y544302D01*
X860998Y544241D01*
X861092Y544178D01*
X861184Y544110D01*
X861274Y544040D01*
X861360Y543967D01*
X861445Y543891D01*
X861527Y543812D01*
X861606Y543730D01*
X861682Y543645D01*
X861755Y543559D01*
X861825Y543469D01*
X861893Y543377D01*
X861956Y543283D01*
X862017Y543187D01*
X862075Y543089D01*
X862129Y542989D01*
X862179Y542887D01*
X862226Y542784D01*
X862270Y542679D01*
X862310Y542572D01*
X862346Y542464D01*
X862379Y542355D01*
X862407Y542245D01*
X862432Y542135D01*
X862454Y542023D01*
X862471Y541910D01*
X862485Y541798D01*
X862494Y541684D01*
X862500Y541571D01*
X862502Y541457D01*
X862502Y538127D01*
X862500Y538013D01*
X862494Y537900D01*
X862485Y537786D01*
X862471Y537674D01*
X862454Y537561D01*
X862432Y537449D01*
X862407Y537339D01*
X862379Y537229D01*
X862346Y537120D01*
X862310Y537012D01*
X862270Y536905D01*
X862226Y536800D01*
X862179Y536697D01*
X862129Y536595D01*
X862075Y536495D01*
X862017Y536397D01*
X861956Y536301D01*
X861893Y536207D01*
X861825Y536115D01*
X861755Y536025D01*
X861682Y535939D01*
X861606Y535854D01*
X861527Y535772D01*
X861445Y535693D01*
X861360Y535617D01*
X861274Y535544D01*
X861184Y535474D01*
X861092Y535406D01*
X860998Y535343D01*
X860902Y535282D01*
X860804Y535224D01*
X860704Y535170D01*
X860602Y535120D01*
X860499Y535073D01*
X860394Y535029D01*
X860287Y534989D01*
X860179Y534953D01*
X860070Y534920D01*
X859960Y534892D01*
X859850Y534867D01*
X859738Y534845D01*
X859625Y534828D01*
X859513Y534814D01*
X859399Y534805D01*
X859286Y534799D01*
X859172Y534797D01*
X859058Y534799D01*
X858945Y534805D01*
X858831Y534814D01*
X858719Y534828D01*
X858606Y534845D01*
X858494Y534867D01*
X858384Y534892D01*
X858274Y534920D01*
X858165Y534953D01*
X858057Y534989D01*
X857950Y535029D01*
X857845Y535073D01*
X857742Y535120D01*
X857640Y535170D01*
X857540Y535224D01*
X857442Y535282D01*
X857346Y535343D01*
X857252Y535406D01*
X857160Y535474D01*
X857070Y535544D01*
X856984Y535617D01*
X856899Y535693D01*
X856817Y535772D01*
X856738Y535854D01*
X856662Y535939D01*
X856589Y536025D01*
X856519Y536115D01*
X856451Y536207D01*
X856388Y536301D01*
X856327Y536397D01*
X856269Y536495D01*
X856215Y536595D01*
X856165Y536697D01*
X856118Y536800D01*
X856074Y536905D01*
X856034Y537012D01*
X855998Y537120D01*
X855965Y537229D01*
X855937Y537339D01*
X855912Y537449D01*
X855890Y537561D01*
X855873Y537674D01*
X855859Y537786D01*
X855850Y537900D01*
X855844Y538013D01*
X855842Y538127D01*
X870038Y534797D02*
X870038Y544788D01*
X875033Y544788D01*
X875033Y543123D01*
X882828Y534797D02*
X886991Y534797D01*
X882828Y534797D02*
X882730Y534799D01*
X882632Y534805D01*
X882534Y534814D01*
X882437Y534828D01*
X882341Y534845D01*
X882245Y534866D01*
X882150Y534891D01*
X882056Y534919D01*
X881963Y534951D01*
X881872Y534987D01*
X881782Y535026D01*
X881694Y535069D01*
X881607Y535116D01*
X881523Y535165D01*
X881440Y535218D01*
X881360Y535274D01*
X881282Y535333D01*
X881206Y535396D01*
X881132Y535461D01*
X881062Y535529D01*
X880994Y535599D01*
X880929Y535673D01*
X880866Y535749D01*
X880807Y535827D01*
X880751Y535907D01*
X880698Y535990D01*
X880649Y536074D01*
X880602Y536161D01*
X880559Y536249D01*
X880520Y536339D01*
X880484Y536430D01*
X880452Y536523D01*
X880424Y536617D01*
X880399Y536712D01*
X880378Y536808D01*
X880361Y536904D01*
X880347Y537001D01*
X880338Y537099D01*
X880332Y537197D01*
X880330Y537295D01*
X880330Y541457D01*
X880331Y541457D02*
X880333Y541571D01*
X880339Y541684D01*
X880348Y541798D01*
X880362Y541910D01*
X880379Y542023D01*
X880401Y542135D01*
X880426Y542245D01*
X880454Y542355D01*
X880487Y542464D01*
X880523Y542572D01*
X880563Y542679D01*
X880607Y542784D01*
X880654Y542887D01*
X880704Y542989D01*
X880758Y543089D01*
X880816Y543187D01*
X880877Y543283D01*
X880940Y543377D01*
X881008Y543469D01*
X881078Y543559D01*
X881151Y543645D01*
X881227Y543730D01*
X881306Y543812D01*
X881388Y543891D01*
X881473Y543967D01*
X881559Y544040D01*
X881649Y544110D01*
X881741Y544178D01*
X881835Y544241D01*
X881931Y544302D01*
X882029Y544360D01*
X882129Y544414D01*
X882231Y544464D01*
X882334Y544511D01*
X882439Y544555D01*
X882546Y544595D01*
X882654Y544631D01*
X882763Y544664D01*
X882873Y544692D01*
X882983Y544717D01*
X883095Y544739D01*
X883208Y544756D01*
X883320Y544770D01*
X883434Y544779D01*
X883547Y544785D01*
X883661Y544787D01*
X883775Y544785D01*
X883888Y544779D01*
X884002Y544770D01*
X884114Y544756D01*
X884227Y544739D01*
X884339Y544717D01*
X884449Y544692D01*
X884559Y544664D01*
X884668Y544631D01*
X884776Y544595D01*
X884883Y544555D01*
X884988Y544511D01*
X885091Y544464D01*
X885193Y544414D01*
X885293Y544360D01*
X885391Y544302D01*
X885487Y544241D01*
X885581Y544178D01*
X885673Y544110D01*
X885763Y544040D01*
X885849Y543967D01*
X885934Y543891D01*
X886016Y543812D01*
X886095Y543730D01*
X886171Y543645D01*
X886244Y543559D01*
X886314Y543469D01*
X886382Y543377D01*
X886445Y543283D01*
X886506Y543187D01*
X886564Y543089D01*
X886618Y542989D01*
X886668Y542887D01*
X886715Y542784D01*
X886759Y542679D01*
X886799Y542572D01*
X886835Y542464D01*
X886868Y542355D01*
X886896Y542245D01*
X886921Y542135D01*
X886943Y542023D01*
X886960Y541910D01*
X886974Y541798D01*
X886983Y541684D01*
X886989Y541571D01*
X886991Y541457D01*
X886991Y539792D01*
X880330Y539792D01*
D11*
X767080Y1087120D02*
X-68580Y1087120D01*
D12*
X799569Y1089618D02*
X802899Y1079627D01*
X806230Y1089618D01*
X813014Y1085455D02*
X823005Y1085455D01*
X831559Y1085455D02*
X835722Y1083790D01*
X831559Y1085454D02*
X831474Y1085490D01*
X831391Y1085530D01*
X831310Y1085573D01*
X831230Y1085620D01*
X831153Y1085670D01*
X831077Y1085723D01*
X831004Y1085779D01*
X830934Y1085839D01*
X830866Y1085901D01*
X830801Y1085966D01*
X830739Y1086034D01*
X830679Y1086105D01*
X830623Y1086178D01*
X830570Y1086253D01*
X830520Y1086331D01*
X830474Y1086410D01*
X830431Y1086492D01*
X830391Y1086575D01*
X830355Y1086660D01*
X830323Y1086746D01*
X830294Y1086834D01*
X830270Y1086923D01*
X830249Y1087013D01*
X830232Y1087103D01*
X830218Y1087194D01*
X830209Y1087286D01*
X830204Y1087378D01*
X830202Y1087470D01*
X830204Y1087562D01*
X830211Y1087654D01*
X830221Y1087746D01*
X830235Y1087837D01*
X830253Y1087928D01*
X830275Y1088017D01*
X830301Y1088106D01*
X830331Y1088193D01*
X830364Y1088279D01*
X830401Y1088363D01*
X830441Y1088446D01*
X830485Y1088527D01*
X830532Y1088606D01*
X830583Y1088683D01*
X830637Y1088758D01*
X830694Y1088831D01*
X830754Y1088901D01*
X830817Y1088968D01*
X830883Y1089032D01*
X830951Y1089094D01*
X831022Y1089153D01*
X831096Y1089208D01*
X831172Y1089261D01*
X831250Y1089310D01*
X831330Y1089356D01*
X831411Y1089398D01*
X831495Y1089437D01*
X831580Y1089472D01*
X831667Y1089503D01*
X831755Y1089531D01*
X831844Y1089555D01*
X831934Y1089575D01*
X832024Y1089592D01*
X832116Y1089604D01*
X832208Y1089613D01*
X832300Y1089617D01*
X832392Y1089618D01*
X832619Y1089612D01*
X832846Y1089601D01*
X833073Y1089584D01*
X833299Y1089561D01*
X833525Y1089534D01*
X833750Y1089500D01*
X833974Y1089462D01*
X834197Y1089418D01*
X834419Y1089369D01*
X834640Y1089314D01*
X834859Y1089254D01*
X835077Y1089189D01*
X835293Y1089118D01*
X835507Y1089043D01*
X835720Y1088962D01*
X835930Y1088876D01*
X836139Y1088785D01*
X835722Y1083790D02*
X835807Y1083754D01*
X835890Y1083714D01*
X835971Y1083671D01*
X836051Y1083624D01*
X836128Y1083574D01*
X836204Y1083521D01*
X836277Y1083465D01*
X836347Y1083405D01*
X836415Y1083343D01*
X836480Y1083278D01*
X836542Y1083210D01*
X836602Y1083139D01*
X836658Y1083066D01*
X836711Y1082991D01*
X836761Y1082913D01*
X836807Y1082834D01*
X836850Y1082752D01*
X836890Y1082669D01*
X836926Y1082584D01*
X836958Y1082498D01*
X836987Y1082410D01*
X837011Y1082321D01*
X837032Y1082231D01*
X837049Y1082141D01*
X837063Y1082050D01*
X837072Y1081958D01*
X837077Y1081866D01*
X837079Y1081774D01*
X837077Y1081682D01*
X837070Y1081590D01*
X837060Y1081498D01*
X837046Y1081407D01*
X837028Y1081316D01*
X837006Y1081227D01*
X836980Y1081138D01*
X836950Y1081051D01*
X836917Y1080965D01*
X836880Y1080881D01*
X836840Y1080798D01*
X836796Y1080717D01*
X836749Y1080638D01*
X836698Y1080561D01*
X836644Y1080486D01*
X836587Y1080413D01*
X836527Y1080343D01*
X836464Y1080276D01*
X836398Y1080212D01*
X836330Y1080150D01*
X836259Y1080091D01*
X836185Y1080036D01*
X836109Y1079983D01*
X836031Y1079934D01*
X835951Y1079888D01*
X835870Y1079846D01*
X835786Y1079807D01*
X835701Y1079772D01*
X835614Y1079741D01*
X835526Y1079713D01*
X835437Y1079689D01*
X835347Y1079669D01*
X835257Y1079652D01*
X835165Y1079640D01*
X835073Y1079631D01*
X834981Y1079627D01*
X834889Y1079626D01*
X834889Y1079627D02*
X834555Y1079636D01*
X834222Y1079653D01*
X833889Y1079677D01*
X833556Y1079710D01*
X833225Y1079750D01*
X832894Y1079798D01*
X832565Y1079854D01*
X832237Y1079917D01*
X831911Y1079989D01*
X831587Y1080068D01*
X831264Y1080154D01*
X830944Y1080249D01*
X830626Y1080351D01*
X830310Y1080460D01*
X846382Y1079627D02*
X849712Y1079627D01*
X846382Y1079627D02*
X846284Y1079629D01*
X846186Y1079635D01*
X846088Y1079644D01*
X845991Y1079658D01*
X845895Y1079675D01*
X845799Y1079696D01*
X845704Y1079721D01*
X845610Y1079749D01*
X845517Y1079781D01*
X845426Y1079817D01*
X845336Y1079856D01*
X845248Y1079899D01*
X845161Y1079946D01*
X845077Y1079995D01*
X844994Y1080048D01*
X844914Y1080104D01*
X844836Y1080163D01*
X844760Y1080226D01*
X844686Y1080291D01*
X844616Y1080359D01*
X844548Y1080429D01*
X844483Y1080503D01*
X844420Y1080579D01*
X844361Y1080657D01*
X844305Y1080737D01*
X844252Y1080820D01*
X844203Y1080904D01*
X844156Y1080991D01*
X844113Y1081079D01*
X844074Y1081169D01*
X844038Y1081260D01*
X844006Y1081353D01*
X843978Y1081447D01*
X843953Y1081542D01*
X843932Y1081638D01*
X843915Y1081734D01*
X843901Y1081831D01*
X843892Y1081929D01*
X843886Y1082027D01*
X843884Y1082125D01*
X843884Y1087120D01*
X843886Y1087218D01*
X843892Y1087316D01*
X843901Y1087414D01*
X843915Y1087511D01*
X843932Y1087607D01*
X843953Y1087703D01*
X843978Y1087798D01*
X844006Y1087892D01*
X844038Y1087985D01*
X844074Y1088076D01*
X844113Y1088166D01*
X844156Y1088254D01*
X844203Y1088341D01*
X844252Y1088425D01*
X844305Y1088508D01*
X844361Y1088588D01*
X844420Y1088667D01*
X844483Y1088742D01*
X844548Y1088816D01*
X844616Y1088886D01*
X844686Y1088954D01*
X844760Y1089020D01*
X844836Y1089082D01*
X844914Y1089141D01*
X844994Y1089197D01*
X845077Y1089250D01*
X845161Y1089300D01*
X845248Y1089346D01*
X845336Y1089389D01*
X845426Y1089428D01*
X845517Y1089464D01*
X845610Y1089496D01*
X845704Y1089524D01*
X845799Y1089549D01*
X845895Y1089570D01*
X845991Y1089587D01*
X846088Y1089601D01*
X846186Y1089610D01*
X846284Y1089616D01*
X846382Y1089618D01*
X849712Y1089618D01*
X855842Y1086287D02*
X855842Y1082957D01*
X855842Y1086287D02*
X855844Y1086401D01*
X855850Y1086514D01*
X855859Y1086628D01*
X855873Y1086740D01*
X855890Y1086853D01*
X855912Y1086965D01*
X855937Y1087075D01*
X855965Y1087185D01*
X855998Y1087294D01*
X856034Y1087402D01*
X856074Y1087509D01*
X856118Y1087614D01*
X856165Y1087717D01*
X856215Y1087819D01*
X856269Y1087919D01*
X856327Y1088017D01*
X856388Y1088113D01*
X856451Y1088207D01*
X856519Y1088299D01*
X856589Y1088389D01*
X856662Y1088475D01*
X856738Y1088560D01*
X856817Y1088642D01*
X856899Y1088721D01*
X856984Y1088797D01*
X857070Y1088870D01*
X857160Y1088940D01*
X857252Y1089008D01*
X857346Y1089071D01*
X857442Y1089132D01*
X857540Y1089190D01*
X857640Y1089244D01*
X857742Y1089294D01*
X857845Y1089341D01*
X857950Y1089385D01*
X858057Y1089425D01*
X858165Y1089461D01*
X858274Y1089494D01*
X858384Y1089522D01*
X858494Y1089547D01*
X858606Y1089569D01*
X858719Y1089586D01*
X858831Y1089600D01*
X858945Y1089609D01*
X859058Y1089615D01*
X859172Y1089617D01*
X859286Y1089615D01*
X859399Y1089609D01*
X859513Y1089600D01*
X859625Y1089586D01*
X859738Y1089569D01*
X859850Y1089547D01*
X859960Y1089522D01*
X860070Y1089494D01*
X860179Y1089461D01*
X860287Y1089425D01*
X860394Y1089385D01*
X860499Y1089341D01*
X860602Y1089294D01*
X860704Y1089244D01*
X860804Y1089190D01*
X860902Y1089132D01*
X860998Y1089071D01*
X861092Y1089008D01*
X861184Y1088940D01*
X861274Y1088870D01*
X861360Y1088797D01*
X861445Y1088721D01*
X861527Y1088642D01*
X861606Y1088560D01*
X861682Y1088475D01*
X861755Y1088389D01*
X861825Y1088299D01*
X861893Y1088207D01*
X861956Y1088113D01*
X862017Y1088017D01*
X862075Y1087919D01*
X862129Y1087819D01*
X862179Y1087717D01*
X862226Y1087614D01*
X862270Y1087509D01*
X862310Y1087402D01*
X862346Y1087294D01*
X862379Y1087185D01*
X862407Y1087075D01*
X862432Y1086965D01*
X862454Y1086853D01*
X862471Y1086740D01*
X862485Y1086628D01*
X862494Y1086514D01*
X862500Y1086401D01*
X862502Y1086287D01*
X862502Y1082957D01*
X862500Y1082843D01*
X862494Y1082730D01*
X862485Y1082616D01*
X862471Y1082504D01*
X862454Y1082391D01*
X862432Y1082279D01*
X862407Y1082169D01*
X862379Y1082059D01*
X862346Y1081950D01*
X862310Y1081842D01*
X862270Y1081735D01*
X862226Y1081630D01*
X862179Y1081527D01*
X862129Y1081425D01*
X862075Y1081325D01*
X862017Y1081227D01*
X861956Y1081131D01*
X861893Y1081037D01*
X861825Y1080945D01*
X861755Y1080855D01*
X861682Y1080769D01*
X861606Y1080684D01*
X861527Y1080602D01*
X861445Y1080523D01*
X861360Y1080447D01*
X861274Y1080374D01*
X861184Y1080304D01*
X861092Y1080236D01*
X860998Y1080173D01*
X860902Y1080112D01*
X860804Y1080054D01*
X860704Y1080000D01*
X860602Y1079950D01*
X860499Y1079903D01*
X860394Y1079859D01*
X860287Y1079819D01*
X860179Y1079783D01*
X860070Y1079750D01*
X859960Y1079722D01*
X859850Y1079697D01*
X859738Y1079675D01*
X859625Y1079658D01*
X859513Y1079644D01*
X859399Y1079635D01*
X859286Y1079629D01*
X859172Y1079627D01*
X859058Y1079629D01*
X858945Y1079635D01*
X858831Y1079644D01*
X858719Y1079658D01*
X858606Y1079675D01*
X858494Y1079697D01*
X858384Y1079722D01*
X858274Y1079750D01*
X858165Y1079783D01*
X858057Y1079819D01*
X857950Y1079859D01*
X857845Y1079903D01*
X857742Y1079950D01*
X857640Y1080000D01*
X857540Y1080054D01*
X857442Y1080112D01*
X857346Y1080173D01*
X857252Y1080236D01*
X857160Y1080304D01*
X857070Y1080374D01*
X856984Y1080447D01*
X856899Y1080523D01*
X856817Y1080602D01*
X856738Y1080684D01*
X856662Y1080769D01*
X856589Y1080855D01*
X856519Y1080945D01*
X856451Y1081037D01*
X856388Y1081131D01*
X856327Y1081227D01*
X856269Y1081325D01*
X856215Y1081425D01*
X856165Y1081527D01*
X856118Y1081630D01*
X856074Y1081735D01*
X856034Y1081842D01*
X855998Y1081950D01*
X855965Y1082059D01*
X855937Y1082169D01*
X855912Y1082279D01*
X855890Y1082391D01*
X855873Y1082504D01*
X855859Y1082616D01*
X855850Y1082730D01*
X855844Y1082843D01*
X855842Y1082957D01*
X870038Y1079627D02*
X870038Y1089618D01*
X875033Y1089618D01*
X875033Y1087953D01*
X882828Y1079627D02*
X886991Y1079627D01*
X882828Y1079627D02*
X882730Y1079629D01*
X882632Y1079635D01*
X882534Y1079644D01*
X882437Y1079658D01*
X882341Y1079675D01*
X882245Y1079696D01*
X882150Y1079721D01*
X882056Y1079749D01*
X881963Y1079781D01*
X881872Y1079817D01*
X881782Y1079856D01*
X881694Y1079899D01*
X881607Y1079946D01*
X881523Y1079995D01*
X881440Y1080048D01*
X881360Y1080104D01*
X881282Y1080163D01*
X881206Y1080226D01*
X881132Y1080291D01*
X881062Y1080359D01*
X880994Y1080429D01*
X880929Y1080503D01*
X880866Y1080579D01*
X880807Y1080657D01*
X880751Y1080737D01*
X880698Y1080820D01*
X880649Y1080904D01*
X880602Y1080991D01*
X880559Y1081079D01*
X880520Y1081169D01*
X880484Y1081260D01*
X880452Y1081353D01*
X880424Y1081447D01*
X880399Y1081542D01*
X880378Y1081638D01*
X880361Y1081734D01*
X880347Y1081831D01*
X880338Y1081929D01*
X880332Y1082027D01*
X880330Y1082125D01*
X880330Y1086287D01*
X880331Y1086287D02*
X880333Y1086401D01*
X880339Y1086514D01*
X880348Y1086628D01*
X880362Y1086740D01*
X880379Y1086853D01*
X880401Y1086965D01*
X880426Y1087075D01*
X880454Y1087185D01*
X880487Y1087294D01*
X880523Y1087402D01*
X880563Y1087509D01*
X880607Y1087614D01*
X880654Y1087717D01*
X880704Y1087819D01*
X880758Y1087919D01*
X880816Y1088017D01*
X880877Y1088113D01*
X880940Y1088207D01*
X881008Y1088299D01*
X881078Y1088389D01*
X881151Y1088475D01*
X881227Y1088560D01*
X881306Y1088642D01*
X881388Y1088721D01*
X881473Y1088797D01*
X881559Y1088870D01*
X881649Y1088940D01*
X881741Y1089008D01*
X881835Y1089071D01*
X881931Y1089132D01*
X882029Y1089190D01*
X882129Y1089244D01*
X882231Y1089294D01*
X882334Y1089341D01*
X882439Y1089385D01*
X882546Y1089425D01*
X882654Y1089461D01*
X882763Y1089494D01*
X882873Y1089522D01*
X882983Y1089547D01*
X883095Y1089569D01*
X883208Y1089586D01*
X883320Y1089600D01*
X883434Y1089609D01*
X883547Y1089615D01*
X883661Y1089617D01*
X883775Y1089615D01*
X883888Y1089609D01*
X884002Y1089600D01*
X884114Y1089586D01*
X884227Y1089569D01*
X884339Y1089547D01*
X884449Y1089522D01*
X884559Y1089494D01*
X884668Y1089461D01*
X884776Y1089425D01*
X884883Y1089385D01*
X884988Y1089341D01*
X885091Y1089294D01*
X885193Y1089244D01*
X885293Y1089190D01*
X885391Y1089132D01*
X885487Y1089071D01*
X885581Y1089008D01*
X885673Y1088940D01*
X885763Y1088870D01*
X885849Y1088797D01*
X885934Y1088721D01*
X886016Y1088642D01*
X886095Y1088560D01*
X886171Y1088475D01*
X886244Y1088389D01*
X886314Y1088299D01*
X886382Y1088207D01*
X886445Y1088113D01*
X886506Y1088017D01*
X886564Y1087919D01*
X886618Y1087819D01*
X886668Y1087717D01*
X886715Y1087614D01*
X886759Y1087509D01*
X886799Y1087402D01*
X886835Y1087294D01*
X886868Y1087185D01*
X886896Y1087075D01*
X886921Y1086965D01*
X886943Y1086853D01*
X886960Y1086740D01*
X886974Y1086628D01*
X886983Y1086514D01*
X886989Y1086401D01*
X886991Y1086287D01*
X886991Y1084622D01*
X880330Y1084622D01*
D13*
X703580Y-5080D02*
X-68580Y-5080D01*
X703580Y-5080D02*
X703580Y-68580D01*
X-68580Y-68580D01*
X-68580Y-5080D01*
X640080Y1084580D02*
X703580Y1084580D01*
X703580Y0D01*
X640080Y0D01*
X640080Y1084580D01*
X703580Y1153160D02*
X-68580Y1153160D01*
X703580Y1153160D02*
X703580Y1089660D01*
X-68580Y1089660D01*
X-68580Y1153160D01*
X-68580Y1084580D02*
X-5080Y1084580D01*
X-5080Y0D01*
X-68580Y0D01*
X-68580Y1084580D01*
D14*
X593090Y25400D02*
X593095Y25805D01*
X593110Y26210D01*
X593135Y26615D01*
X593170Y27018D01*
X593214Y27421D01*
X593269Y27823D01*
X593333Y28223D01*
X593407Y28621D01*
X593491Y29017D01*
X593585Y29412D01*
X593688Y29803D01*
X593801Y30193D01*
X593923Y30579D01*
X594055Y30962D01*
X594196Y31342D01*
X594347Y31718D01*
X594506Y32091D01*
X594675Y32459D01*
X594853Y32823D01*
X595039Y33183D01*
X595235Y33538D01*
X595439Y33888D01*
X595651Y34233D01*
X595872Y34572D01*
X596102Y34907D01*
X596339Y35235D01*
X596584Y35557D01*
X596838Y35874D01*
X597098Y36184D01*
X597367Y36487D01*
X597643Y36784D01*
X597926Y37074D01*
X598216Y37357D01*
X598513Y37633D01*
X598816Y37902D01*
X599126Y38162D01*
X599443Y38416D01*
X599765Y38661D01*
X600093Y38898D01*
X600428Y39128D01*
X600767Y39349D01*
X601112Y39561D01*
X601462Y39765D01*
X601817Y39961D01*
X602177Y40147D01*
X602541Y40325D01*
X602909Y40494D01*
X603282Y40653D01*
X603658Y40804D01*
X604038Y40945D01*
X604421Y41077D01*
X604807Y41199D01*
X605197Y41312D01*
X605588Y41415D01*
X605983Y41509D01*
X606379Y41593D01*
X606777Y41667D01*
X607177Y41731D01*
X607579Y41786D01*
X607982Y41830D01*
X608385Y41865D01*
X608790Y41890D01*
X609195Y41905D01*
X609600Y41910D01*
X610005Y41905D01*
X610410Y41890D01*
X610815Y41865D01*
X611218Y41830D01*
X611621Y41786D01*
X612023Y41731D01*
X612423Y41667D01*
X612821Y41593D01*
X613217Y41509D01*
X613612Y41415D01*
X614003Y41312D01*
X614393Y41199D01*
X614779Y41077D01*
X615162Y40945D01*
X615542Y40804D01*
X615918Y40653D01*
X616291Y40494D01*
X616659Y40325D01*
X617023Y40147D01*
X617383Y39961D01*
X617738Y39765D01*
X618088Y39561D01*
X618433Y39349D01*
X618772Y39128D01*
X619107Y38898D01*
X619435Y38661D01*
X619757Y38416D01*
X620074Y38162D01*
X620384Y37902D01*
X620687Y37633D01*
X620984Y37357D01*
X621274Y37074D01*
X621557Y36784D01*
X621833Y36487D01*
X622102Y36184D01*
X622362Y35874D01*
X622616Y35557D01*
X622861Y35235D01*
X623098Y34907D01*
X623328Y34572D01*
X623549Y34233D01*
X623761Y33888D01*
X623965Y33538D01*
X624161Y33183D01*
X624347Y32823D01*
X624525Y32459D01*
X624694Y32091D01*
X624853Y31718D01*
X625004Y31342D01*
X625145Y30962D01*
X625277Y30579D01*
X625399Y30193D01*
X625512Y29803D01*
X625615Y29412D01*
X625709Y29017D01*
X625793Y28621D01*
X625867Y28223D01*
X625931Y27823D01*
X625986Y27421D01*
X626030Y27018D01*
X626065Y26615D01*
X626090Y26210D01*
X626105Y25805D01*
X626110Y25400D01*
X626105Y24995D01*
X626090Y24590D01*
X626065Y24185D01*
X626030Y23782D01*
X625986Y23379D01*
X625931Y22977D01*
X625867Y22577D01*
X625793Y22179D01*
X625709Y21783D01*
X625615Y21388D01*
X625512Y20997D01*
X625399Y20607D01*
X625277Y20221D01*
X625145Y19838D01*
X625004Y19458D01*
X624853Y19082D01*
X624694Y18709D01*
X624525Y18341D01*
X624347Y17977D01*
X624161Y17617D01*
X623965Y17262D01*
X623761Y16912D01*
X623549Y16567D01*
X623328Y16228D01*
X623098Y15893D01*
X622861Y15565D01*
X622616Y15243D01*
X622362Y14926D01*
X622102Y14616D01*
X621833Y14313D01*
X621557Y14016D01*
X621274Y13726D01*
X620984Y13443D01*
X620687Y13167D01*
X620384Y12898D01*
X620074Y12638D01*
X619757Y12384D01*
X619435Y12139D01*
X619107Y11902D01*
X618772Y11672D01*
X618433Y11451D01*
X618088Y11239D01*
X617738Y11035D01*
X617383Y10839D01*
X617023Y10653D01*
X616659Y10475D01*
X616291Y10306D01*
X615918Y10147D01*
X615542Y9996D01*
X615162Y9855D01*
X614779Y9723D01*
X614393Y9601D01*
X614003Y9488D01*
X613612Y9385D01*
X613217Y9291D01*
X612821Y9207D01*
X612423Y9133D01*
X612023Y9069D01*
X611621Y9014D01*
X611218Y8970D01*
X610815Y8935D01*
X610410Y8910D01*
X610005Y8895D01*
X609600Y8890D01*
X609195Y8895D01*
X608790Y8910D01*
X608385Y8935D01*
X607982Y8970D01*
X607579Y9014D01*
X607177Y9069D01*
X606777Y9133D01*
X606379Y9207D01*
X605983Y9291D01*
X605588Y9385D01*
X605197Y9488D01*
X604807Y9601D01*
X604421Y9723D01*
X604038Y9855D01*
X603658Y9996D01*
X603282Y10147D01*
X602909Y10306D01*
X602541Y10475D01*
X602177Y10653D01*
X601817Y10839D01*
X601462Y11035D01*
X601112Y11239D01*
X600767Y11451D01*
X600428Y11672D01*
X600093Y11902D01*
X599765Y12139D01*
X599443Y12384D01*
X599126Y12638D01*
X598816Y12898D01*
X598513Y13167D01*
X598216Y13443D01*
X597926Y13726D01*
X597643Y14016D01*
X597367Y14313D01*
X597098Y14616D01*
X596838Y14926D01*
X596584Y15243D01*
X596339Y15565D01*
X596102Y15893D01*
X595872Y16228D01*
X595651Y16567D01*
X595439Y16912D01*
X595235Y17262D01*
X595039Y17617D01*
X594853Y17977D01*
X594675Y18341D01*
X594506Y18709D01*
X594347Y19082D01*
X594196Y19458D01*
X594055Y19838D01*
X593923Y20221D01*
X593801Y20607D01*
X593688Y20997D01*
X593585Y21388D01*
X593491Y21783D01*
X593407Y22179D01*
X593333Y22577D01*
X593269Y22977D01*
X593214Y23379D01*
X593170Y23782D01*
X593135Y24185D01*
X593110Y24590D01*
X593095Y24995D01*
X593090Y25400D01*
X593090Y514350D02*
X593095Y514755D01*
X593110Y515160D01*
X593135Y515565D01*
X593170Y515968D01*
X593214Y516371D01*
X593269Y516773D01*
X593333Y517173D01*
X593407Y517571D01*
X593491Y517967D01*
X593585Y518362D01*
X593688Y518753D01*
X593801Y519143D01*
X593923Y519529D01*
X594055Y519912D01*
X594196Y520292D01*
X594347Y520668D01*
X594506Y521041D01*
X594675Y521409D01*
X594853Y521773D01*
X595039Y522133D01*
X595235Y522488D01*
X595439Y522838D01*
X595651Y523183D01*
X595872Y523522D01*
X596102Y523857D01*
X596339Y524185D01*
X596584Y524507D01*
X596838Y524824D01*
X597098Y525134D01*
X597367Y525437D01*
X597643Y525734D01*
X597926Y526024D01*
X598216Y526307D01*
X598513Y526583D01*
X598816Y526852D01*
X599126Y527112D01*
X599443Y527366D01*
X599765Y527611D01*
X600093Y527848D01*
X600428Y528078D01*
X600767Y528299D01*
X601112Y528511D01*
X601462Y528715D01*
X601817Y528911D01*
X602177Y529097D01*
X602541Y529275D01*
X602909Y529444D01*
X603282Y529603D01*
X603658Y529754D01*
X604038Y529895D01*
X604421Y530027D01*
X604807Y530149D01*
X605197Y530262D01*
X605588Y530365D01*
X605983Y530459D01*
X606379Y530543D01*
X606777Y530617D01*
X607177Y530681D01*
X607579Y530736D01*
X607982Y530780D01*
X608385Y530815D01*
X608790Y530840D01*
X609195Y530855D01*
X609600Y530860D01*
X610005Y530855D01*
X610410Y530840D01*
X610815Y530815D01*
X611218Y530780D01*
X611621Y530736D01*
X612023Y530681D01*
X612423Y530617D01*
X612821Y530543D01*
X613217Y530459D01*
X613612Y530365D01*
X614003Y530262D01*
X614393Y530149D01*
X614779Y530027D01*
X615162Y529895D01*
X615542Y529754D01*
X615918Y529603D01*
X616291Y529444D01*
X616659Y529275D01*
X617023Y529097D01*
X617383Y528911D01*
X617738Y528715D01*
X618088Y528511D01*
X618433Y528299D01*
X618772Y528078D01*
X619107Y527848D01*
X619435Y527611D01*
X619757Y527366D01*
X620074Y527112D01*
X620384Y526852D01*
X620687Y526583D01*
X620984Y526307D01*
X621274Y526024D01*
X621557Y525734D01*
X621833Y525437D01*
X622102Y525134D01*
X622362Y524824D01*
X622616Y524507D01*
X622861Y524185D01*
X623098Y523857D01*
X623328Y523522D01*
X623549Y523183D01*
X623761Y522838D01*
X623965Y522488D01*
X624161Y522133D01*
X624347Y521773D01*
X624525Y521409D01*
X624694Y521041D01*
X624853Y520668D01*
X625004Y520292D01*
X625145Y519912D01*
X625277Y519529D01*
X625399Y519143D01*
X625512Y518753D01*
X625615Y518362D01*
X625709Y517967D01*
X625793Y517571D01*
X625867Y517173D01*
X625931Y516773D01*
X625986Y516371D01*
X626030Y515968D01*
X626065Y515565D01*
X626090Y515160D01*
X626105Y514755D01*
X626110Y514350D01*
X626105Y513945D01*
X626090Y513540D01*
X626065Y513135D01*
X626030Y512732D01*
X625986Y512329D01*
X625931Y511927D01*
X625867Y511527D01*
X625793Y511129D01*
X625709Y510733D01*
X625615Y510338D01*
X625512Y509947D01*
X625399Y509557D01*
X625277Y509171D01*
X625145Y508788D01*
X625004Y508408D01*
X624853Y508032D01*
X624694Y507659D01*
X624525Y507291D01*
X624347Y506927D01*
X624161Y506567D01*
X623965Y506212D01*
X623761Y505862D01*
X623549Y505517D01*
X623328Y505178D01*
X623098Y504843D01*
X622861Y504515D01*
X622616Y504193D01*
X622362Y503876D01*
X622102Y503566D01*
X621833Y503263D01*
X621557Y502966D01*
X621274Y502676D01*
X620984Y502393D01*
X620687Y502117D01*
X620384Y501848D01*
X620074Y501588D01*
X619757Y501334D01*
X619435Y501089D01*
X619107Y500852D01*
X618772Y500622D01*
X618433Y500401D01*
X618088Y500189D01*
X617738Y499985D01*
X617383Y499789D01*
X617023Y499603D01*
X616659Y499425D01*
X616291Y499256D01*
X615918Y499097D01*
X615542Y498946D01*
X615162Y498805D01*
X614779Y498673D01*
X614393Y498551D01*
X614003Y498438D01*
X613612Y498335D01*
X613217Y498241D01*
X612821Y498157D01*
X612423Y498083D01*
X612023Y498019D01*
X611621Y497964D01*
X611218Y497920D01*
X610815Y497885D01*
X610410Y497860D01*
X610005Y497845D01*
X609600Y497840D01*
X609195Y497845D01*
X608790Y497860D01*
X608385Y497885D01*
X607982Y497920D01*
X607579Y497964D01*
X607177Y498019D01*
X606777Y498083D01*
X606379Y498157D01*
X605983Y498241D01*
X605588Y498335D01*
X605197Y498438D01*
X604807Y498551D01*
X604421Y498673D01*
X604038Y498805D01*
X603658Y498946D01*
X603282Y499097D01*
X602909Y499256D01*
X602541Y499425D01*
X602177Y499603D01*
X601817Y499789D01*
X601462Y499985D01*
X601112Y500189D01*
X600767Y500401D01*
X600428Y500622D01*
X600093Y500852D01*
X599765Y501089D01*
X599443Y501334D01*
X599126Y501588D01*
X598816Y501848D01*
X598513Y502117D01*
X598216Y502393D01*
X597926Y502676D01*
X597643Y502966D01*
X597367Y503263D01*
X597098Y503566D01*
X596838Y503876D01*
X596584Y504193D01*
X596339Y504515D01*
X596102Y504843D01*
X595872Y505178D01*
X595651Y505517D01*
X595439Y505862D01*
X595235Y506212D01*
X595039Y506567D01*
X594853Y506927D01*
X594675Y507291D01*
X594506Y507659D01*
X594347Y508032D01*
X594196Y508408D01*
X594055Y508788D01*
X593923Y509171D01*
X593801Y509557D01*
X593688Y509947D01*
X593585Y510338D01*
X593491Y510733D01*
X593407Y511129D01*
X593333Y511527D01*
X593269Y511927D01*
X593214Y512329D01*
X593170Y512732D01*
X593135Y513135D01*
X593110Y513540D01*
X593095Y513945D01*
X593090Y514350D01*
X8890Y514350D02*
X8895Y514755D01*
X8910Y515160D01*
X8935Y515565D01*
X8970Y515968D01*
X9014Y516371D01*
X9069Y516773D01*
X9133Y517173D01*
X9207Y517571D01*
X9291Y517967D01*
X9385Y518362D01*
X9488Y518753D01*
X9601Y519143D01*
X9723Y519529D01*
X9855Y519912D01*
X9996Y520292D01*
X10147Y520668D01*
X10306Y521041D01*
X10475Y521409D01*
X10653Y521773D01*
X10839Y522133D01*
X11035Y522488D01*
X11239Y522838D01*
X11451Y523183D01*
X11672Y523522D01*
X11902Y523857D01*
X12139Y524185D01*
X12384Y524507D01*
X12638Y524824D01*
X12898Y525134D01*
X13167Y525437D01*
X13443Y525734D01*
X13726Y526024D01*
X14016Y526307D01*
X14313Y526583D01*
X14616Y526852D01*
X14926Y527112D01*
X15243Y527366D01*
X15565Y527611D01*
X15893Y527848D01*
X16228Y528078D01*
X16567Y528299D01*
X16912Y528511D01*
X17262Y528715D01*
X17617Y528911D01*
X17977Y529097D01*
X18341Y529275D01*
X18709Y529444D01*
X19082Y529603D01*
X19458Y529754D01*
X19838Y529895D01*
X20221Y530027D01*
X20607Y530149D01*
X20997Y530262D01*
X21388Y530365D01*
X21783Y530459D01*
X22179Y530543D01*
X22577Y530617D01*
X22977Y530681D01*
X23379Y530736D01*
X23782Y530780D01*
X24185Y530815D01*
X24590Y530840D01*
X24995Y530855D01*
X25400Y530860D01*
X25805Y530855D01*
X26210Y530840D01*
X26615Y530815D01*
X27018Y530780D01*
X27421Y530736D01*
X27823Y530681D01*
X28223Y530617D01*
X28621Y530543D01*
X29017Y530459D01*
X29412Y530365D01*
X29803Y530262D01*
X30193Y530149D01*
X30579Y530027D01*
X30962Y529895D01*
X31342Y529754D01*
X31718Y529603D01*
X32091Y529444D01*
X32459Y529275D01*
X32823Y529097D01*
X33183Y528911D01*
X33538Y528715D01*
X33888Y528511D01*
X34233Y528299D01*
X34572Y528078D01*
X34907Y527848D01*
X35235Y527611D01*
X35557Y527366D01*
X35874Y527112D01*
X36184Y526852D01*
X36487Y526583D01*
X36784Y526307D01*
X37074Y526024D01*
X37357Y525734D01*
X37633Y525437D01*
X37902Y525134D01*
X38162Y524824D01*
X38416Y524507D01*
X38661Y524185D01*
X38898Y523857D01*
X39128Y523522D01*
X39349Y523183D01*
X39561Y522838D01*
X39765Y522488D01*
X39961Y522133D01*
X40147Y521773D01*
X40325Y521409D01*
X40494Y521041D01*
X40653Y520668D01*
X40804Y520292D01*
X40945Y519912D01*
X41077Y519529D01*
X41199Y519143D01*
X41312Y518753D01*
X41415Y518362D01*
X41509Y517967D01*
X41593Y517571D01*
X41667Y517173D01*
X41731Y516773D01*
X41786Y516371D01*
X41830Y515968D01*
X41865Y515565D01*
X41890Y515160D01*
X41905Y514755D01*
X41910Y514350D01*
X41905Y513945D01*
X41890Y513540D01*
X41865Y513135D01*
X41830Y512732D01*
X41786Y512329D01*
X41731Y511927D01*
X41667Y511527D01*
X41593Y511129D01*
X41509Y510733D01*
X41415Y510338D01*
X41312Y509947D01*
X41199Y509557D01*
X41077Y509171D01*
X40945Y508788D01*
X40804Y508408D01*
X40653Y508032D01*
X40494Y507659D01*
X40325Y507291D01*
X40147Y506927D01*
X39961Y506567D01*
X39765Y506212D01*
X39561Y505862D01*
X39349Y505517D01*
X39128Y505178D01*
X38898Y504843D01*
X38661Y504515D01*
X38416Y504193D01*
X38162Y503876D01*
X37902Y503566D01*
X37633Y503263D01*
X37357Y502966D01*
X37074Y502676D01*
X36784Y502393D01*
X36487Y502117D01*
X36184Y501848D01*
X35874Y501588D01*
X35557Y501334D01*
X35235Y501089D01*
X34907Y500852D01*
X34572Y500622D01*
X34233Y500401D01*
X33888Y500189D01*
X33538Y499985D01*
X33183Y499789D01*
X32823Y499603D01*
X32459Y499425D01*
X32091Y499256D01*
X31718Y499097D01*
X31342Y498946D01*
X30962Y498805D01*
X30579Y498673D01*
X30193Y498551D01*
X29803Y498438D01*
X29412Y498335D01*
X29017Y498241D01*
X28621Y498157D01*
X28223Y498083D01*
X27823Y498019D01*
X27421Y497964D01*
X27018Y497920D01*
X26615Y497885D01*
X26210Y497860D01*
X25805Y497845D01*
X25400Y497840D01*
X24995Y497845D01*
X24590Y497860D01*
X24185Y497885D01*
X23782Y497920D01*
X23379Y497964D01*
X22977Y498019D01*
X22577Y498083D01*
X22179Y498157D01*
X21783Y498241D01*
X21388Y498335D01*
X20997Y498438D01*
X20607Y498551D01*
X20221Y498673D01*
X19838Y498805D01*
X19458Y498946D01*
X19082Y499097D01*
X18709Y499256D01*
X18341Y499425D01*
X17977Y499603D01*
X17617Y499789D01*
X17262Y499985D01*
X16912Y500189D01*
X16567Y500401D01*
X16228Y500622D01*
X15893Y500852D01*
X15565Y501089D01*
X15243Y501334D01*
X14926Y501588D01*
X14616Y501848D01*
X14313Y502117D01*
X14016Y502393D01*
X13726Y502676D01*
X13443Y502966D01*
X13167Y503263D01*
X12898Y503566D01*
X12638Y503876D01*
X12384Y504193D01*
X12139Y504515D01*
X11902Y504843D01*
X11672Y505178D01*
X11451Y505517D01*
X11239Y505862D01*
X11035Y506212D01*
X10839Y506567D01*
X10653Y506927D01*
X10475Y507291D01*
X10306Y507659D01*
X10147Y508032D01*
X9996Y508408D01*
X9855Y508788D01*
X9723Y509171D01*
X9601Y509557D01*
X9488Y509947D01*
X9385Y510338D01*
X9291Y510733D01*
X9207Y511129D01*
X9133Y511527D01*
X9069Y511927D01*
X9014Y512329D01*
X8970Y512732D01*
X8935Y513135D01*
X8910Y513540D01*
X8895Y513945D01*
X8890Y514350D01*
X8890Y25400D02*
X8895Y25805D01*
X8910Y26210D01*
X8935Y26615D01*
X8970Y27018D01*
X9014Y27421D01*
X9069Y27823D01*
X9133Y28223D01*
X9207Y28621D01*
X9291Y29017D01*
X9385Y29412D01*
X9488Y29803D01*
X9601Y30193D01*
X9723Y30579D01*
X9855Y30962D01*
X9996Y31342D01*
X10147Y31718D01*
X10306Y32091D01*
X10475Y32459D01*
X10653Y32823D01*
X10839Y33183D01*
X11035Y33538D01*
X11239Y33888D01*
X11451Y34233D01*
X11672Y34572D01*
X11902Y34907D01*
X12139Y35235D01*
X12384Y35557D01*
X12638Y35874D01*
X12898Y36184D01*
X13167Y36487D01*
X13443Y36784D01*
X13726Y37074D01*
X14016Y37357D01*
X14313Y37633D01*
X14616Y37902D01*
X14926Y38162D01*
X15243Y38416D01*
X15565Y38661D01*
X15893Y38898D01*
X16228Y39128D01*
X16567Y39349D01*
X16912Y39561D01*
X17262Y39765D01*
X17617Y39961D01*
X17977Y40147D01*
X18341Y40325D01*
X18709Y40494D01*
X19082Y40653D01*
X19458Y40804D01*
X19838Y40945D01*
X20221Y41077D01*
X20607Y41199D01*
X20997Y41312D01*
X21388Y41415D01*
X21783Y41509D01*
X22179Y41593D01*
X22577Y41667D01*
X22977Y41731D01*
X23379Y41786D01*
X23782Y41830D01*
X24185Y41865D01*
X24590Y41890D01*
X24995Y41905D01*
X25400Y41910D01*
X25805Y41905D01*
X26210Y41890D01*
X26615Y41865D01*
X27018Y41830D01*
X27421Y41786D01*
X27823Y41731D01*
X28223Y41667D01*
X28621Y41593D01*
X29017Y41509D01*
X29412Y41415D01*
X29803Y41312D01*
X30193Y41199D01*
X30579Y41077D01*
X30962Y40945D01*
X31342Y40804D01*
X31718Y40653D01*
X32091Y40494D01*
X32459Y40325D01*
X32823Y40147D01*
X33183Y39961D01*
X33538Y39765D01*
X33888Y39561D01*
X34233Y39349D01*
X34572Y39128D01*
X34907Y38898D01*
X35235Y38661D01*
X35557Y38416D01*
X35874Y38162D01*
X36184Y37902D01*
X36487Y37633D01*
X36784Y37357D01*
X37074Y37074D01*
X37357Y36784D01*
X37633Y36487D01*
X37902Y36184D01*
X38162Y35874D01*
X38416Y35557D01*
X38661Y35235D01*
X38898Y34907D01*
X39128Y34572D01*
X39349Y34233D01*
X39561Y33888D01*
X39765Y33538D01*
X39961Y33183D01*
X40147Y32823D01*
X40325Y32459D01*
X40494Y32091D01*
X40653Y31718D01*
X40804Y31342D01*
X40945Y30962D01*
X41077Y30579D01*
X41199Y30193D01*
X41312Y29803D01*
X41415Y29412D01*
X41509Y29017D01*
X41593Y28621D01*
X41667Y28223D01*
X41731Y27823D01*
X41786Y27421D01*
X41830Y27018D01*
X41865Y26615D01*
X41890Y26210D01*
X41905Y25805D01*
X41910Y25400D01*
X41905Y24995D01*
X41890Y24590D01*
X41865Y24185D01*
X41830Y23782D01*
X41786Y23379D01*
X41731Y22977D01*
X41667Y22577D01*
X41593Y22179D01*
X41509Y21783D01*
X41415Y21388D01*
X41312Y20997D01*
X41199Y20607D01*
X41077Y20221D01*
X40945Y19838D01*
X40804Y19458D01*
X40653Y19082D01*
X40494Y18709D01*
X40325Y18341D01*
X40147Y17977D01*
X39961Y17617D01*
X39765Y17262D01*
X39561Y16912D01*
X39349Y16567D01*
X39128Y16228D01*
X38898Y15893D01*
X38661Y15565D01*
X38416Y15243D01*
X38162Y14926D01*
X37902Y14616D01*
X37633Y14313D01*
X37357Y14016D01*
X37074Y13726D01*
X36784Y13443D01*
X36487Y13167D01*
X36184Y12898D01*
X35874Y12638D01*
X35557Y12384D01*
X35235Y12139D01*
X34907Y11902D01*
X34572Y11672D01*
X34233Y11451D01*
X33888Y11239D01*
X33538Y11035D01*
X33183Y10839D01*
X32823Y10653D01*
X32459Y10475D01*
X32091Y10306D01*
X31718Y10147D01*
X31342Y9996D01*
X30962Y9855D01*
X30579Y9723D01*
X30193Y9601D01*
X29803Y9488D01*
X29412Y9385D01*
X29017Y9291D01*
X28621Y9207D01*
X28223Y9133D01*
X27823Y9069D01*
X27421Y9014D01*
X27018Y8970D01*
X26615Y8935D01*
X26210Y8910D01*
X25805Y8895D01*
X25400Y8890D01*
X24995Y8895D01*
X24590Y8910D01*
X24185Y8935D01*
X23782Y8970D01*
X23379Y9014D01*
X22977Y9069D01*
X22577Y9133D01*
X22179Y9207D01*
X21783Y9291D01*
X21388Y9385D01*
X20997Y9488D01*
X20607Y9601D01*
X20221Y9723D01*
X19838Y9855D01*
X19458Y9996D01*
X19082Y10147D01*
X18709Y10306D01*
X18341Y10475D01*
X17977Y10653D01*
X17617Y10839D01*
X17262Y11035D01*
X16912Y11239D01*
X16567Y11451D01*
X16228Y11672D01*
X15893Y11902D01*
X15565Y12139D01*
X15243Y12384D01*
X14926Y12638D01*
X14616Y12898D01*
X14313Y13167D01*
X14016Y13443D01*
X13726Y13726D01*
X13443Y14016D01*
X13167Y14313D01*
X12898Y14616D01*
X12638Y14926D01*
X12384Y15243D01*
X12139Y15565D01*
X11902Y15893D01*
X11672Y16228D01*
X11451Y16567D01*
X11239Y16912D01*
X11035Y17262D01*
X10839Y17617D01*
X10653Y17977D01*
X10475Y18341D01*
X10306Y18709D01*
X10147Y19082D01*
X9996Y19458D01*
X9855Y19838D01*
X9723Y20221D01*
X9601Y20607D01*
X9488Y20997D01*
X9385Y21388D01*
X9291Y21783D01*
X9207Y22179D01*
X9133Y22577D01*
X9069Y22977D01*
X9014Y23379D01*
X8970Y23782D01*
X8935Y24185D01*
X8910Y24590D01*
X8895Y24995D01*
X8890Y25400D01*
X27250Y86600D02*
X27252Y86734D01*
X27258Y86868D01*
X27268Y87001D01*
X27282Y87135D01*
X27300Y87268D01*
X27322Y87400D01*
X27347Y87531D01*
X27377Y87662D01*
X27411Y87792D01*
X27448Y87920D01*
X27489Y88048D01*
X27534Y88174D01*
X27583Y88299D01*
X27635Y88422D01*
X27691Y88544D01*
X27751Y88664D01*
X27814Y88782D01*
X27881Y88898D01*
X27951Y89012D01*
X28025Y89124D01*
X28102Y89234D01*
X28182Y89342D01*
X28265Y89447D01*
X28351Y89549D01*
X28440Y89649D01*
X28533Y89746D01*
X28628Y89841D01*
X28726Y89932D01*
X28826Y90021D01*
X28929Y90106D01*
X29035Y90189D01*
X29143Y90268D01*
X29253Y90344D01*
X29366Y90417D01*
X29481Y90486D01*
X29597Y90552D01*
X29716Y90614D01*
X29836Y90673D01*
X29959Y90728D01*
X30082Y90780D01*
X30207Y90827D01*
X30334Y90871D01*
X30462Y90912D01*
X30591Y90948D01*
X30721Y90981D01*
X30852Y91009D01*
X30983Y91034D01*
X31116Y91055D01*
X31249Y91072D01*
X31382Y91085D01*
X31516Y91094D01*
X31650Y91099D01*
X31784Y91100D01*
X31917Y91097D01*
X32051Y91090D01*
X32185Y91079D01*
X32318Y91064D01*
X32451Y91045D01*
X32583Y91022D01*
X32714Y90996D01*
X32844Y90965D01*
X32974Y90930D01*
X33102Y90892D01*
X33229Y90850D01*
X33355Y90804D01*
X33480Y90754D01*
X33603Y90701D01*
X33724Y90644D01*
X33844Y90583D01*
X33961Y90519D01*
X34077Y90452D01*
X34191Y90381D01*
X34302Y90306D01*
X34411Y90229D01*
X34518Y90148D01*
X34623Y90064D01*
X34724Y89977D01*
X34824Y89887D01*
X34920Y89794D01*
X35014Y89698D01*
X35105Y89599D01*
X35192Y89498D01*
X35277Y89394D01*
X35359Y89288D01*
X35437Y89180D01*
X35512Y89069D01*
X35584Y88956D01*
X35653Y88840D01*
X35718Y88723D01*
X35779Y88604D01*
X35837Y88483D01*
X35891Y88361D01*
X35942Y88237D01*
X35989Y88111D01*
X36032Y87984D01*
X36071Y87856D01*
X36107Y87727D01*
X36138Y87597D01*
X36166Y87466D01*
X36190Y87334D01*
X36210Y87201D01*
X36226Y87068D01*
X36238Y86935D01*
X36246Y86801D01*
X36250Y86667D01*
X36250Y86533D01*
X36246Y86399D01*
X36238Y86265D01*
X36226Y86132D01*
X36210Y85999D01*
X36190Y85866D01*
X36166Y85734D01*
X36138Y85603D01*
X36107Y85473D01*
X36071Y85344D01*
X36032Y85216D01*
X35989Y85089D01*
X35942Y84963D01*
X35891Y84839D01*
X35837Y84717D01*
X35779Y84596D01*
X35718Y84477D01*
X35653Y84360D01*
X35584Y84244D01*
X35512Y84131D01*
X35437Y84020D01*
X35359Y83912D01*
X35277Y83806D01*
X35192Y83702D01*
X35105Y83601D01*
X35014Y83502D01*
X34920Y83406D01*
X34824Y83313D01*
X34724Y83223D01*
X34623Y83136D01*
X34518Y83052D01*
X34411Y82971D01*
X34302Y82894D01*
X34191Y82819D01*
X34077Y82748D01*
X33961Y82681D01*
X33844Y82617D01*
X33724Y82556D01*
X33603Y82499D01*
X33480Y82446D01*
X33355Y82396D01*
X33229Y82350D01*
X33102Y82308D01*
X32974Y82270D01*
X32844Y82235D01*
X32714Y82204D01*
X32583Y82178D01*
X32451Y82155D01*
X32318Y82136D01*
X32185Y82121D01*
X32051Y82110D01*
X31917Y82103D01*
X31784Y82100D01*
X31650Y82101D01*
X31516Y82106D01*
X31382Y82115D01*
X31249Y82128D01*
X31116Y82145D01*
X30983Y82166D01*
X30852Y82191D01*
X30721Y82219D01*
X30591Y82252D01*
X30462Y82288D01*
X30334Y82329D01*
X30207Y82373D01*
X30082Y82420D01*
X29959Y82472D01*
X29836Y82527D01*
X29716Y82586D01*
X29597Y82648D01*
X29481Y82714D01*
X29366Y82783D01*
X29253Y82856D01*
X29143Y82932D01*
X29035Y83011D01*
X28929Y83094D01*
X28826Y83179D01*
X28726Y83268D01*
X28628Y83359D01*
X28533Y83454D01*
X28440Y83551D01*
X28351Y83651D01*
X28265Y83753D01*
X28182Y83858D01*
X28102Y83966D01*
X28025Y84076D01*
X27951Y84188D01*
X27881Y84302D01*
X27814Y84418D01*
X27751Y84536D01*
X27691Y84656D01*
X27635Y84778D01*
X27583Y84901D01*
X27534Y85026D01*
X27489Y85152D01*
X27448Y85280D01*
X27411Y85408D01*
X27377Y85538D01*
X27347Y85669D01*
X27322Y85800D01*
X27300Y85932D01*
X27282Y86065D01*
X27268Y86199D01*
X27258Y86332D01*
X27252Y86466D01*
X27250Y86600D01*
X27250Y116600D02*
X27252Y116734D01*
X27258Y116868D01*
X27268Y117001D01*
X27282Y117135D01*
X27300Y117268D01*
X27322Y117400D01*
X27347Y117531D01*
X27377Y117662D01*
X27411Y117792D01*
X27448Y117920D01*
X27489Y118048D01*
X27534Y118174D01*
X27583Y118299D01*
X27635Y118422D01*
X27691Y118544D01*
X27751Y118664D01*
X27814Y118782D01*
X27881Y118898D01*
X27951Y119012D01*
X28025Y119124D01*
X28102Y119234D01*
X28182Y119342D01*
X28265Y119447D01*
X28351Y119549D01*
X28440Y119649D01*
X28533Y119746D01*
X28628Y119841D01*
X28726Y119932D01*
X28826Y120021D01*
X28929Y120106D01*
X29035Y120189D01*
X29143Y120268D01*
X29253Y120344D01*
X29366Y120417D01*
X29481Y120486D01*
X29597Y120552D01*
X29716Y120614D01*
X29836Y120673D01*
X29959Y120728D01*
X30082Y120780D01*
X30207Y120827D01*
X30334Y120871D01*
X30462Y120912D01*
X30591Y120948D01*
X30721Y120981D01*
X30852Y121009D01*
X30983Y121034D01*
X31116Y121055D01*
X31249Y121072D01*
X31382Y121085D01*
X31516Y121094D01*
X31650Y121099D01*
X31784Y121100D01*
X31917Y121097D01*
X32051Y121090D01*
X32185Y121079D01*
X32318Y121064D01*
X32451Y121045D01*
X32583Y121022D01*
X32714Y120996D01*
X32844Y120965D01*
X32974Y120930D01*
X33102Y120892D01*
X33229Y120850D01*
X33355Y120804D01*
X33480Y120754D01*
X33603Y120701D01*
X33724Y120644D01*
X33844Y120583D01*
X33961Y120519D01*
X34077Y120452D01*
X34191Y120381D01*
X34302Y120306D01*
X34411Y120229D01*
X34518Y120148D01*
X34623Y120064D01*
X34724Y119977D01*
X34824Y119887D01*
X34920Y119794D01*
X35014Y119698D01*
X35105Y119599D01*
X35192Y119498D01*
X35277Y119394D01*
X35359Y119288D01*
X35437Y119180D01*
X35512Y119069D01*
X35584Y118956D01*
X35653Y118840D01*
X35718Y118723D01*
X35779Y118604D01*
X35837Y118483D01*
X35891Y118361D01*
X35942Y118237D01*
X35989Y118111D01*
X36032Y117984D01*
X36071Y117856D01*
X36107Y117727D01*
X36138Y117597D01*
X36166Y117466D01*
X36190Y117334D01*
X36210Y117201D01*
X36226Y117068D01*
X36238Y116935D01*
X36246Y116801D01*
X36250Y116667D01*
X36250Y116533D01*
X36246Y116399D01*
X36238Y116265D01*
X36226Y116132D01*
X36210Y115999D01*
X36190Y115866D01*
X36166Y115734D01*
X36138Y115603D01*
X36107Y115473D01*
X36071Y115344D01*
X36032Y115216D01*
X35989Y115089D01*
X35942Y114963D01*
X35891Y114839D01*
X35837Y114717D01*
X35779Y114596D01*
X35718Y114477D01*
X35653Y114360D01*
X35584Y114244D01*
X35512Y114131D01*
X35437Y114020D01*
X35359Y113912D01*
X35277Y113806D01*
X35192Y113702D01*
X35105Y113601D01*
X35014Y113502D01*
X34920Y113406D01*
X34824Y113313D01*
X34724Y113223D01*
X34623Y113136D01*
X34518Y113052D01*
X34411Y112971D01*
X34302Y112894D01*
X34191Y112819D01*
X34077Y112748D01*
X33961Y112681D01*
X33844Y112617D01*
X33724Y112556D01*
X33603Y112499D01*
X33480Y112446D01*
X33355Y112396D01*
X33229Y112350D01*
X33102Y112308D01*
X32974Y112270D01*
X32844Y112235D01*
X32714Y112204D01*
X32583Y112178D01*
X32451Y112155D01*
X32318Y112136D01*
X32185Y112121D01*
X32051Y112110D01*
X31917Y112103D01*
X31784Y112100D01*
X31650Y112101D01*
X31516Y112106D01*
X31382Y112115D01*
X31249Y112128D01*
X31116Y112145D01*
X30983Y112166D01*
X30852Y112191D01*
X30721Y112219D01*
X30591Y112252D01*
X30462Y112288D01*
X30334Y112329D01*
X30207Y112373D01*
X30082Y112420D01*
X29959Y112472D01*
X29836Y112527D01*
X29716Y112586D01*
X29597Y112648D01*
X29481Y112714D01*
X29366Y112783D01*
X29253Y112856D01*
X29143Y112932D01*
X29035Y113011D01*
X28929Y113094D01*
X28826Y113179D01*
X28726Y113268D01*
X28628Y113359D01*
X28533Y113454D01*
X28440Y113551D01*
X28351Y113651D01*
X28265Y113753D01*
X28182Y113858D01*
X28102Y113966D01*
X28025Y114076D01*
X27951Y114188D01*
X27881Y114302D01*
X27814Y114418D01*
X27751Y114536D01*
X27691Y114656D01*
X27635Y114778D01*
X27583Y114901D01*
X27534Y115026D01*
X27489Y115152D01*
X27448Y115280D01*
X27411Y115408D01*
X27377Y115538D01*
X27347Y115669D01*
X27322Y115800D01*
X27300Y115932D01*
X27282Y116065D01*
X27268Y116199D01*
X27258Y116332D01*
X27252Y116466D01*
X27250Y116600D01*
X593090Y570230D02*
X593095Y570635D01*
X593110Y571040D01*
X593135Y571445D01*
X593170Y571848D01*
X593214Y572251D01*
X593269Y572653D01*
X593333Y573053D01*
X593407Y573451D01*
X593491Y573847D01*
X593585Y574242D01*
X593688Y574633D01*
X593801Y575023D01*
X593923Y575409D01*
X594055Y575792D01*
X594196Y576172D01*
X594347Y576548D01*
X594506Y576921D01*
X594675Y577289D01*
X594853Y577653D01*
X595039Y578013D01*
X595235Y578368D01*
X595439Y578718D01*
X595651Y579063D01*
X595872Y579402D01*
X596102Y579737D01*
X596339Y580065D01*
X596584Y580387D01*
X596838Y580704D01*
X597098Y581014D01*
X597367Y581317D01*
X597643Y581614D01*
X597926Y581904D01*
X598216Y582187D01*
X598513Y582463D01*
X598816Y582732D01*
X599126Y582992D01*
X599443Y583246D01*
X599765Y583491D01*
X600093Y583728D01*
X600428Y583958D01*
X600767Y584179D01*
X601112Y584391D01*
X601462Y584595D01*
X601817Y584791D01*
X602177Y584977D01*
X602541Y585155D01*
X602909Y585324D01*
X603282Y585483D01*
X603658Y585634D01*
X604038Y585775D01*
X604421Y585907D01*
X604807Y586029D01*
X605197Y586142D01*
X605588Y586245D01*
X605983Y586339D01*
X606379Y586423D01*
X606777Y586497D01*
X607177Y586561D01*
X607579Y586616D01*
X607982Y586660D01*
X608385Y586695D01*
X608790Y586720D01*
X609195Y586735D01*
X609600Y586740D01*
X610005Y586735D01*
X610410Y586720D01*
X610815Y586695D01*
X611218Y586660D01*
X611621Y586616D01*
X612023Y586561D01*
X612423Y586497D01*
X612821Y586423D01*
X613217Y586339D01*
X613612Y586245D01*
X614003Y586142D01*
X614393Y586029D01*
X614779Y585907D01*
X615162Y585775D01*
X615542Y585634D01*
X615918Y585483D01*
X616291Y585324D01*
X616659Y585155D01*
X617023Y584977D01*
X617383Y584791D01*
X617738Y584595D01*
X618088Y584391D01*
X618433Y584179D01*
X618772Y583958D01*
X619107Y583728D01*
X619435Y583491D01*
X619757Y583246D01*
X620074Y582992D01*
X620384Y582732D01*
X620687Y582463D01*
X620984Y582187D01*
X621274Y581904D01*
X621557Y581614D01*
X621833Y581317D01*
X622102Y581014D01*
X622362Y580704D01*
X622616Y580387D01*
X622861Y580065D01*
X623098Y579737D01*
X623328Y579402D01*
X623549Y579063D01*
X623761Y578718D01*
X623965Y578368D01*
X624161Y578013D01*
X624347Y577653D01*
X624525Y577289D01*
X624694Y576921D01*
X624853Y576548D01*
X625004Y576172D01*
X625145Y575792D01*
X625277Y575409D01*
X625399Y575023D01*
X625512Y574633D01*
X625615Y574242D01*
X625709Y573847D01*
X625793Y573451D01*
X625867Y573053D01*
X625931Y572653D01*
X625986Y572251D01*
X626030Y571848D01*
X626065Y571445D01*
X626090Y571040D01*
X626105Y570635D01*
X626110Y570230D01*
X626105Y569825D01*
X626090Y569420D01*
X626065Y569015D01*
X626030Y568612D01*
X625986Y568209D01*
X625931Y567807D01*
X625867Y567407D01*
X625793Y567009D01*
X625709Y566613D01*
X625615Y566218D01*
X625512Y565827D01*
X625399Y565437D01*
X625277Y565051D01*
X625145Y564668D01*
X625004Y564288D01*
X624853Y563912D01*
X624694Y563539D01*
X624525Y563171D01*
X624347Y562807D01*
X624161Y562447D01*
X623965Y562092D01*
X623761Y561742D01*
X623549Y561397D01*
X623328Y561058D01*
X623098Y560723D01*
X622861Y560395D01*
X622616Y560073D01*
X622362Y559756D01*
X622102Y559446D01*
X621833Y559143D01*
X621557Y558846D01*
X621274Y558556D01*
X620984Y558273D01*
X620687Y557997D01*
X620384Y557728D01*
X620074Y557468D01*
X619757Y557214D01*
X619435Y556969D01*
X619107Y556732D01*
X618772Y556502D01*
X618433Y556281D01*
X618088Y556069D01*
X617738Y555865D01*
X617383Y555669D01*
X617023Y555483D01*
X616659Y555305D01*
X616291Y555136D01*
X615918Y554977D01*
X615542Y554826D01*
X615162Y554685D01*
X614779Y554553D01*
X614393Y554431D01*
X614003Y554318D01*
X613612Y554215D01*
X613217Y554121D01*
X612821Y554037D01*
X612423Y553963D01*
X612023Y553899D01*
X611621Y553844D01*
X611218Y553800D01*
X610815Y553765D01*
X610410Y553740D01*
X610005Y553725D01*
X609600Y553720D01*
X609195Y553725D01*
X608790Y553740D01*
X608385Y553765D01*
X607982Y553800D01*
X607579Y553844D01*
X607177Y553899D01*
X606777Y553963D01*
X606379Y554037D01*
X605983Y554121D01*
X605588Y554215D01*
X605197Y554318D01*
X604807Y554431D01*
X604421Y554553D01*
X604038Y554685D01*
X603658Y554826D01*
X603282Y554977D01*
X602909Y555136D01*
X602541Y555305D01*
X602177Y555483D01*
X601817Y555669D01*
X601462Y555865D01*
X601112Y556069D01*
X600767Y556281D01*
X600428Y556502D01*
X600093Y556732D01*
X599765Y556969D01*
X599443Y557214D01*
X599126Y557468D01*
X598816Y557728D01*
X598513Y557997D01*
X598216Y558273D01*
X597926Y558556D01*
X597643Y558846D01*
X597367Y559143D01*
X597098Y559446D01*
X596838Y559756D01*
X596584Y560073D01*
X596339Y560395D01*
X596102Y560723D01*
X595872Y561058D01*
X595651Y561397D01*
X595439Y561742D01*
X595235Y562092D01*
X595039Y562447D01*
X594853Y562807D01*
X594675Y563171D01*
X594506Y563539D01*
X594347Y563912D01*
X594196Y564288D01*
X594055Y564668D01*
X593923Y565051D01*
X593801Y565437D01*
X593688Y565827D01*
X593585Y566218D01*
X593491Y566613D01*
X593407Y567009D01*
X593333Y567407D01*
X593269Y567807D01*
X593214Y568209D01*
X593170Y568612D01*
X593135Y569015D01*
X593110Y569420D01*
X593095Y569825D01*
X593090Y570230D01*
X593090Y1059180D02*
X593095Y1059585D01*
X593110Y1059990D01*
X593135Y1060395D01*
X593170Y1060798D01*
X593214Y1061201D01*
X593269Y1061603D01*
X593333Y1062003D01*
X593407Y1062401D01*
X593491Y1062797D01*
X593585Y1063192D01*
X593688Y1063583D01*
X593801Y1063973D01*
X593923Y1064359D01*
X594055Y1064742D01*
X594196Y1065122D01*
X594347Y1065498D01*
X594506Y1065871D01*
X594675Y1066239D01*
X594853Y1066603D01*
X595039Y1066963D01*
X595235Y1067318D01*
X595439Y1067668D01*
X595651Y1068013D01*
X595872Y1068352D01*
X596102Y1068687D01*
X596339Y1069015D01*
X596584Y1069337D01*
X596838Y1069654D01*
X597098Y1069964D01*
X597367Y1070267D01*
X597643Y1070564D01*
X597926Y1070854D01*
X598216Y1071137D01*
X598513Y1071413D01*
X598816Y1071682D01*
X599126Y1071942D01*
X599443Y1072196D01*
X599765Y1072441D01*
X600093Y1072678D01*
X600428Y1072908D01*
X600767Y1073129D01*
X601112Y1073341D01*
X601462Y1073545D01*
X601817Y1073741D01*
X602177Y1073927D01*
X602541Y1074105D01*
X602909Y1074274D01*
X603282Y1074433D01*
X603658Y1074584D01*
X604038Y1074725D01*
X604421Y1074857D01*
X604807Y1074979D01*
X605197Y1075092D01*
X605588Y1075195D01*
X605983Y1075289D01*
X606379Y1075373D01*
X606777Y1075447D01*
X607177Y1075511D01*
X607579Y1075566D01*
X607982Y1075610D01*
X608385Y1075645D01*
X608790Y1075670D01*
X609195Y1075685D01*
X609600Y1075690D01*
X610005Y1075685D01*
X610410Y1075670D01*
X610815Y1075645D01*
X611218Y1075610D01*
X611621Y1075566D01*
X612023Y1075511D01*
X612423Y1075447D01*
X612821Y1075373D01*
X613217Y1075289D01*
X613612Y1075195D01*
X614003Y1075092D01*
X614393Y1074979D01*
X614779Y1074857D01*
X615162Y1074725D01*
X615542Y1074584D01*
X615918Y1074433D01*
X616291Y1074274D01*
X616659Y1074105D01*
X617023Y1073927D01*
X617383Y1073741D01*
X617738Y1073545D01*
X618088Y1073341D01*
X618433Y1073129D01*
X618772Y1072908D01*
X619107Y1072678D01*
X619435Y1072441D01*
X619757Y1072196D01*
X620074Y1071942D01*
X620384Y1071682D01*
X620687Y1071413D01*
X620984Y1071137D01*
X621274Y1070854D01*
X621557Y1070564D01*
X621833Y1070267D01*
X622102Y1069964D01*
X622362Y1069654D01*
X622616Y1069337D01*
X622861Y1069015D01*
X623098Y1068687D01*
X623328Y1068352D01*
X623549Y1068013D01*
X623761Y1067668D01*
X623965Y1067318D01*
X624161Y1066963D01*
X624347Y1066603D01*
X624525Y1066239D01*
X624694Y1065871D01*
X624853Y1065498D01*
X625004Y1065122D01*
X625145Y1064742D01*
X625277Y1064359D01*
X625399Y1063973D01*
X625512Y1063583D01*
X625615Y1063192D01*
X625709Y1062797D01*
X625793Y1062401D01*
X625867Y1062003D01*
X625931Y1061603D01*
X625986Y1061201D01*
X626030Y1060798D01*
X626065Y1060395D01*
X626090Y1059990D01*
X626105Y1059585D01*
X626110Y1059180D01*
X626105Y1058775D01*
X626090Y1058370D01*
X626065Y1057965D01*
X626030Y1057562D01*
X625986Y1057159D01*
X625931Y1056757D01*
X625867Y1056357D01*
X625793Y1055959D01*
X625709Y1055563D01*
X625615Y1055168D01*
X625512Y1054777D01*
X625399Y1054387D01*
X625277Y1054001D01*
X625145Y1053618D01*
X625004Y1053238D01*
X624853Y1052862D01*
X624694Y1052489D01*
X624525Y1052121D01*
X624347Y1051757D01*
X624161Y1051397D01*
X623965Y1051042D01*
X623761Y1050692D01*
X623549Y1050347D01*
X623328Y1050008D01*
X623098Y1049673D01*
X622861Y1049345D01*
X622616Y1049023D01*
X622362Y1048706D01*
X622102Y1048396D01*
X621833Y1048093D01*
X621557Y1047796D01*
X621274Y1047506D01*
X620984Y1047223D01*
X620687Y1046947D01*
X620384Y1046678D01*
X620074Y1046418D01*
X619757Y1046164D01*
X619435Y1045919D01*
X619107Y1045682D01*
X618772Y1045452D01*
X618433Y1045231D01*
X618088Y1045019D01*
X617738Y1044815D01*
X617383Y1044619D01*
X617023Y1044433D01*
X616659Y1044255D01*
X616291Y1044086D01*
X615918Y1043927D01*
X615542Y1043776D01*
X615162Y1043635D01*
X614779Y1043503D01*
X614393Y1043381D01*
X614003Y1043268D01*
X613612Y1043165D01*
X613217Y1043071D01*
X612821Y1042987D01*
X612423Y1042913D01*
X612023Y1042849D01*
X611621Y1042794D01*
X611218Y1042750D01*
X610815Y1042715D01*
X610410Y1042690D01*
X610005Y1042675D01*
X609600Y1042670D01*
X609195Y1042675D01*
X608790Y1042690D01*
X608385Y1042715D01*
X607982Y1042750D01*
X607579Y1042794D01*
X607177Y1042849D01*
X606777Y1042913D01*
X606379Y1042987D01*
X605983Y1043071D01*
X605588Y1043165D01*
X605197Y1043268D01*
X604807Y1043381D01*
X604421Y1043503D01*
X604038Y1043635D01*
X603658Y1043776D01*
X603282Y1043927D01*
X602909Y1044086D01*
X602541Y1044255D01*
X602177Y1044433D01*
X601817Y1044619D01*
X601462Y1044815D01*
X601112Y1045019D01*
X600767Y1045231D01*
X600428Y1045452D01*
X600093Y1045682D01*
X599765Y1045919D01*
X599443Y1046164D01*
X599126Y1046418D01*
X598816Y1046678D01*
X598513Y1046947D01*
X598216Y1047223D01*
X597926Y1047506D01*
X597643Y1047796D01*
X597367Y1048093D01*
X597098Y1048396D01*
X596838Y1048706D01*
X596584Y1049023D01*
X596339Y1049345D01*
X596102Y1049673D01*
X595872Y1050008D01*
X595651Y1050347D01*
X595439Y1050692D01*
X595235Y1051042D01*
X595039Y1051397D01*
X594853Y1051757D01*
X594675Y1052121D01*
X594506Y1052489D01*
X594347Y1052862D01*
X594196Y1053238D01*
X594055Y1053618D01*
X593923Y1054001D01*
X593801Y1054387D01*
X593688Y1054777D01*
X593585Y1055168D01*
X593491Y1055563D01*
X593407Y1055959D01*
X593333Y1056357D01*
X593269Y1056757D01*
X593214Y1057159D01*
X593170Y1057562D01*
X593135Y1057965D01*
X593110Y1058370D01*
X593095Y1058775D01*
X593090Y1059180D01*
X8890Y1059180D02*
X8895Y1059585D01*
X8910Y1059990D01*
X8935Y1060395D01*
X8970Y1060798D01*
X9014Y1061201D01*
X9069Y1061603D01*
X9133Y1062003D01*
X9207Y1062401D01*
X9291Y1062797D01*
X9385Y1063192D01*
X9488Y1063583D01*
X9601Y1063973D01*
X9723Y1064359D01*
X9855Y1064742D01*
X9996Y1065122D01*
X10147Y1065498D01*
X10306Y1065871D01*
X10475Y1066239D01*
X10653Y1066603D01*
X10839Y1066963D01*
X11035Y1067318D01*
X11239Y1067668D01*
X11451Y1068013D01*
X11672Y1068352D01*
X11902Y1068687D01*
X12139Y1069015D01*
X12384Y1069337D01*
X12638Y1069654D01*
X12898Y1069964D01*
X13167Y1070267D01*
X13443Y1070564D01*
X13726Y1070854D01*
X14016Y1071137D01*
X14313Y1071413D01*
X14616Y1071682D01*
X14926Y1071942D01*
X15243Y1072196D01*
X15565Y1072441D01*
X15893Y1072678D01*
X16228Y1072908D01*
X16567Y1073129D01*
X16912Y1073341D01*
X17262Y1073545D01*
X17617Y1073741D01*
X17977Y1073927D01*
X18341Y1074105D01*
X18709Y1074274D01*
X19082Y1074433D01*
X19458Y1074584D01*
X19838Y1074725D01*
X20221Y1074857D01*
X20607Y1074979D01*
X20997Y1075092D01*
X21388Y1075195D01*
X21783Y1075289D01*
X22179Y1075373D01*
X22577Y1075447D01*
X22977Y1075511D01*
X23379Y1075566D01*
X23782Y1075610D01*
X24185Y1075645D01*
X24590Y1075670D01*
X24995Y1075685D01*
X25400Y1075690D01*
X25805Y1075685D01*
X26210Y1075670D01*
X26615Y1075645D01*
X27018Y1075610D01*
X27421Y1075566D01*
X27823Y1075511D01*
X28223Y1075447D01*
X28621Y1075373D01*
X29017Y1075289D01*
X29412Y1075195D01*
X29803Y1075092D01*
X30193Y1074979D01*
X30579Y1074857D01*
X30962Y1074725D01*
X31342Y1074584D01*
X31718Y1074433D01*
X32091Y1074274D01*
X32459Y1074105D01*
X32823Y1073927D01*
X33183Y1073741D01*
X33538Y1073545D01*
X33888Y1073341D01*
X34233Y1073129D01*
X34572Y1072908D01*
X34907Y1072678D01*
X35235Y1072441D01*
X35557Y1072196D01*
X35874Y1071942D01*
X36184Y1071682D01*
X36487Y1071413D01*
X36784Y1071137D01*
X37074Y1070854D01*
X37357Y1070564D01*
X37633Y1070267D01*
X37902Y1069964D01*
X38162Y1069654D01*
X38416Y1069337D01*
X38661Y1069015D01*
X38898Y1068687D01*
X39128Y1068352D01*
X39349Y1068013D01*
X39561Y1067668D01*
X39765Y1067318D01*
X39961Y1066963D01*
X40147Y1066603D01*
X40325Y1066239D01*
X40494Y1065871D01*
X40653Y1065498D01*
X40804Y1065122D01*
X40945Y1064742D01*
X41077Y1064359D01*
X41199Y1063973D01*
X41312Y1063583D01*
X41415Y1063192D01*
X41509Y1062797D01*
X41593Y1062401D01*
X41667Y1062003D01*
X41731Y1061603D01*
X41786Y1061201D01*
X41830Y1060798D01*
X41865Y1060395D01*
X41890Y1059990D01*
X41905Y1059585D01*
X41910Y1059180D01*
X41905Y1058775D01*
X41890Y1058370D01*
X41865Y1057965D01*
X41830Y1057562D01*
X41786Y1057159D01*
X41731Y1056757D01*
X41667Y1056357D01*
X41593Y1055959D01*
X41509Y1055563D01*
X41415Y1055168D01*
X41312Y1054777D01*
X41199Y1054387D01*
X41077Y1054001D01*
X40945Y1053618D01*
X40804Y1053238D01*
X40653Y1052862D01*
X40494Y1052489D01*
X40325Y1052121D01*
X40147Y1051757D01*
X39961Y1051397D01*
X39765Y1051042D01*
X39561Y1050692D01*
X39349Y1050347D01*
X39128Y1050008D01*
X38898Y1049673D01*
X38661Y1049345D01*
X38416Y1049023D01*
X38162Y1048706D01*
X37902Y1048396D01*
X37633Y1048093D01*
X37357Y1047796D01*
X37074Y1047506D01*
X36784Y1047223D01*
X36487Y1046947D01*
X36184Y1046678D01*
X35874Y1046418D01*
X35557Y1046164D01*
X35235Y1045919D01*
X34907Y1045682D01*
X34572Y1045452D01*
X34233Y1045231D01*
X33888Y1045019D01*
X33538Y1044815D01*
X33183Y1044619D01*
X32823Y1044433D01*
X32459Y1044255D01*
X32091Y1044086D01*
X31718Y1043927D01*
X31342Y1043776D01*
X30962Y1043635D01*
X30579Y1043503D01*
X30193Y1043381D01*
X29803Y1043268D01*
X29412Y1043165D01*
X29017Y1043071D01*
X28621Y1042987D01*
X28223Y1042913D01*
X27823Y1042849D01*
X27421Y1042794D01*
X27018Y1042750D01*
X26615Y1042715D01*
X26210Y1042690D01*
X25805Y1042675D01*
X25400Y1042670D01*
X24995Y1042675D01*
X24590Y1042690D01*
X24185Y1042715D01*
X23782Y1042750D01*
X23379Y1042794D01*
X22977Y1042849D01*
X22577Y1042913D01*
X22179Y1042987D01*
X21783Y1043071D01*
X21388Y1043165D01*
X20997Y1043268D01*
X20607Y1043381D01*
X20221Y1043503D01*
X19838Y1043635D01*
X19458Y1043776D01*
X19082Y1043927D01*
X18709Y1044086D01*
X18341Y1044255D01*
X17977Y1044433D01*
X17617Y1044619D01*
X17262Y1044815D01*
X16912Y1045019D01*
X16567Y1045231D01*
X16228Y1045452D01*
X15893Y1045682D01*
X15565Y1045919D01*
X15243Y1046164D01*
X14926Y1046418D01*
X14616Y1046678D01*
X14313Y1046947D01*
X14016Y1047223D01*
X13726Y1047506D01*
X13443Y1047796D01*
X13167Y1048093D01*
X12898Y1048396D01*
X12638Y1048706D01*
X12384Y1049023D01*
X12139Y1049345D01*
X11902Y1049673D01*
X11672Y1050008D01*
X11451Y1050347D01*
X11239Y1050692D01*
X11035Y1051042D01*
X10839Y1051397D01*
X10653Y1051757D01*
X10475Y1052121D01*
X10306Y1052489D01*
X10147Y1052862D01*
X9996Y1053238D01*
X9855Y1053618D01*
X9723Y1054001D01*
X9601Y1054387D01*
X9488Y1054777D01*
X9385Y1055168D01*
X9291Y1055563D01*
X9207Y1055959D01*
X9133Y1056357D01*
X9069Y1056757D01*
X9014Y1057159D01*
X8970Y1057562D01*
X8935Y1057965D01*
X8910Y1058370D01*
X8895Y1058775D01*
X8890Y1059180D01*
X8890Y570230D02*
X8895Y570635D01*
X8910Y571040D01*
X8935Y571445D01*
X8970Y571848D01*
X9014Y572251D01*
X9069Y572653D01*
X9133Y573053D01*
X9207Y573451D01*
X9291Y573847D01*
X9385Y574242D01*
X9488Y574633D01*
X9601Y575023D01*
X9723Y575409D01*
X9855Y575792D01*
X9996Y576172D01*
X10147Y576548D01*
X10306Y576921D01*
X10475Y577289D01*
X10653Y577653D01*
X10839Y578013D01*
X11035Y578368D01*
X11239Y578718D01*
X11451Y579063D01*
X11672Y579402D01*
X11902Y579737D01*
X12139Y580065D01*
X12384Y580387D01*
X12638Y580704D01*
X12898Y581014D01*
X13167Y581317D01*
X13443Y581614D01*
X13726Y581904D01*
X14016Y582187D01*
X14313Y582463D01*
X14616Y582732D01*
X14926Y582992D01*
X15243Y583246D01*
X15565Y583491D01*
X15893Y583728D01*
X16228Y583958D01*
X16567Y584179D01*
X16912Y584391D01*
X17262Y584595D01*
X17617Y584791D01*
X17977Y584977D01*
X18341Y585155D01*
X18709Y585324D01*
X19082Y585483D01*
X19458Y585634D01*
X19838Y585775D01*
X20221Y585907D01*
X20607Y586029D01*
X20997Y586142D01*
X21388Y586245D01*
X21783Y586339D01*
X22179Y586423D01*
X22577Y586497D01*
X22977Y586561D01*
X23379Y586616D01*
X23782Y586660D01*
X24185Y586695D01*
X24590Y586720D01*
X24995Y586735D01*
X25400Y586740D01*
X25805Y586735D01*
X26210Y586720D01*
X26615Y586695D01*
X27018Y586660D01*
X27421Y586616D01*
X27823Y586561D01*
X28223Y586497D01*
X28621Y586423D01*
X29017Y586339D01*
X29412Y586245D01*
X29803Y586142D01*
X30193Y586029D01*
X30579Y585907D01*
X30962Y585775D01*
X31342Y585634D01*
X31718Y585483D01*
X32091Y585324D01*
X32459Y585155D01*
X32823Y584977D01*
X33183Y584791D01*
X33538Y584595D01*
X33888Y584391D01*
X34233Y584179D01*
X34572Y583958D01*
X34907Y583728D01*
X35235Y583491D01*
X35557Y583246D01*
X35874Y582992D01*
X36184Y582732D01*
X36487Y582463D01*
X36784Y582187D01*
X37074Y581904D01*
X37357Y581614D01*
X37633Y581317D01*
X37902Y581014D01*
X38162Y580704D01*
X38416Y580387D01*
X38661Y580065D01*
X38898Y579737D01*
X39128Y579402D01*
X39349Y579063D01*
X39561Y578718D01*
X39765Y578368D01*
X39961Y578013D01*
X40147Y577653D01*
X40325Y577289D01*
X40494Y576921D01*
X40653Y576548D01*
X40804Y576172D01*
X40945Y575792D01*
X41077Y575409D01*
X41199Y575023D01*
X41312Y574633D01*
X41415Y574242D01*
X41509Y573847D01*
X41593Y573451D01*
X41667Y573053D01*
X41731Y572653D01*
X41786Y572251D01*
X41830Y571848D01*
X41865Y571445D01*
X41890Y571040D01*
X41905Y570635D01*
X41910Y570230D01*
X41905Y569825D01*
X41890Y569420D01*
X41865Y569015D01*
X41830Y568612D01*
X41786Y568209D01*
X41731Y567807D01*
X41667Y567407D01*
X41593Y567009D01*
X41509Y566613D01*
X41415Y566218D01*
X41312Y565827D01*
X41199Y565437D01*
X41077Y565051D01*
X40945Y564668D01*
X40804Y564288D01*
X40653Y563912D01*
X40494Y563539D01*
X40325Y563171D01*
X40147Y562807D01*
X39961Y562447D01*
X39765Y562092D01*
X39561Y561742D01*
X39349Y561397D01*
X39128Y561058D01*
X38898Y560723D01*
X38661Y560395D01*
X38416Y560073D01*
X38162Y559756D01*
X37902Y559446D01*
X37633Y559143D01*
X37357Y558846D01*
X37074Y558556D01*
X36784Y558273D01*
X36487Y557997D01*
X36184Y557728D01*
X35874Y557468D01*
X35557Y557214D01*
X35235Y556969D01*
X34907Y556732D01*
X34572Y556502D01*
X34233Y556281D01*
X33888Y556069D01*
X33538Y555865D01*
X33183Y555669D01*
X32823Y555483D01*
X32459Y555305D01*
X32091Y555136D01*
X31718Y554977D01*
X31342Y554826D01*
X30962Y554685D01*
X30579Y554553D01*
X30193Y554431D01*
X29803Y554318D01*
X29412Y554215D01*
X29017Y554121D01*
X28621Y554037D01*
X28223Y553963D01*
X27823Y553899D01*
X27421Y553844D01*
X27018Y553800D01*
X26615Y553765D01*
X26210Y553740D01*
X25805Y553725D01*
X25400Y553720D01*
X24995Y553725D01*
X24590Y553740D01*
X24185Y553765D01*
X23782Y553800D01*
X23379Y553844D01*
X22977Y553899D01*
X22577Y553963D01*
X22179Y554037D01*
X21783Y554121D01*
X21388Y554215D01*
X20997Y554318D01*
X20607Y554431D01*
X20221Y554553D01*
X19838Y554685D01*
X19458Y554826D01*
X19082Y554977D01*
X18709Y555136D01*
X18341Y555305D01*
X17977Y555483D01*
X17617Y555669D01*
X17262Y555865D01*
X16912Y556069D01*
X16567Y556281D01*
X16228Y556502D01*
X15893Y556732D01*
X15565Y556969D01*
X15243Y557214D01*
X14926Y557468D01*
X14616Y557728D01*
X14313Y557997D01*
X14016Y558273D01*
X13726Y558556D01*
X13443Y558846D01*
X13167Y559143D01*
X12898Y559446D01*
X12638Y559756D01*
X12384Y560073D01*
X12139Y560395D01*
X11902Y560723D01*
X11672Y561058D01*
X11451Y561397D01*
X11239Y561742D01*
X11035Y562092D01*
X10839Y562447D01*
X10653Y562807D01*
X10475Y563171D01*
X10306Y563539D01*
X10147Y563912D01*
X9996Y564288D01*
X9855Y564668D01*
X9723Y565051D01*
X9601Y565437D01*
X9488Y565827D01*
X9385Y566218D01*
X9291Y566613D01*
X9207Y567009D01*
X9133Y567407D01*
X9069Y567807D01*
X9014Y568209D01*
X8970Y568612D01*
X8935Y569015D01*
X8910Y569420D01*
X8895Y569825D01*
X8890Y570230D01*
X27250Y631430D02*
X27252Y631564D01*
X27258Y631698D01*
X27268Y631831D01*
X27282Y631965D01*
X27300Y632098D01*
X27322Y632230D01*
X27347Y632361D01*
X27377Y632492D01*
X27411Y632622D01*
X27448Y632750D01*
X27489Y632878D01*
X27534Y633004D01*
X27583Y633129D01*
X27635Y633252D01*
X27691Y633374D01*
X27751Y633494D01*
X27814Y633612D01*
X27881Y633728D01*
X27951Y633842D01*
X28025Y633954D01*
X28102Y634064D01*
X28182Y634172D01*
X28265Y634277D01*
X28351Y634379D01*
X28440Y634479D01*
X28533Y634576D01*
X28628Y634671D01*
X28726Y634762D01*
X28826Y634851D01*
X28929Y634936D01*
X29035Y635019D01*
X29143Y635098D01*
X29253Y635174D01*
X29366Y635247D01*
X29481Y635316D01*
X29597Y635382D01*
X29716Y635444D01*
X29836Y635503D01*
X29959Y635558D01*
X30082Y635610D01*
X30207Y635657D01*
X30334Y635701D01*
X30462Y635742D01*
X30591Y635778D01*
X30721Y635811D01*
X30852Y635839D01*
X30983Y635864D01*
X31116Y635885D01*
X31249Y635902D01*
X31382Y635915D01*
X31516Y635924D01*
X31650Y635929D01*
X31784Y635930D01*
X31917Y635927D01*
X32051Y635920D01*
X32185Y635909D01*
X32318Y635894D01*
X32451Y635875D01*
X32583Y635852D01*
X32714Y635826D01*
X32844Y635795D01*
X32974Y635760D01*
X33102Y635722D01*
X33229Y635680D01*
X33355Y635634D01*
X33480Y635584D01*
X33603Y635531D01*
X33724Y635474D01*
X33844Y635413D01*
X33961Y635349D01*
X34077Y635282D01*
X34191Y635211D01*
X34302Y635136D01*
X34411Y635059D01*
X34518Y634978D01*
X34623Y634894D01*
X34724Y634807D01*
X34824Y634717D01*
X34920Y634624D01*
X35014Y634528D01*
X35105Y634429D01*
X35192Y634328D01*
X35277Y634224D01*
X35359Y634118D01*
X35437Y634010D01*
X35512Y633899D01*
X35584Y633786D01*
X35653Y633670D01*
X35718Y633553D01*
X35779Y633434D01*
X35837Y633313D01*
X35891Y633191D01*
X35942Y633067D01*
X35989Y632941D01*
X36032Y632814D01*
X36071Y632686D01*
X36107Y632557D01*
X36138Y632427D01*
X36166Y632296D01*
X36190Y632164D01*
X36210Y632031D01*
X36226Y631898D01*
X36238Y631765D01*
X36246Y631631D01*
X36250Y631497D01*
X36250Y631363D01*
X36246Y631229D01*
X36238Y631095D01*
X36226Y630962D01*
X36210Y630829D01*
X36190Y630696D01*
X36166Y630564D01*
X36138Y630433D01*
X36107Y630303D01*
X36071Y630174D01*
X36032Y630046D01*
X35989Y629919D01*
X35942Y629793D01*
X35891Y629669D01*
X35837Y629547D01*
X35779Y629426D01*
X35718Y629307D01*
X35653Y629190D01*
X35584Y629074D01*
X35512Y628961D01*
X35437Y628850D01*
X35359Y628742D01*
X35277Y628636D01*
X35192Y628532D01*
X35105Y628431D01*
X35014Y628332D01*
X34920Y628236D01*
X34824Y628143D01*
X34724Y628053D01*
X34623Y627966D01*
X34518Y627882D01*
X34411Y627801D01*
X34302Y627724D01*
X34191Y627649D01*
X34077Y627578D01*
X33961Y627511D01*
X33844Y627447D01*
X33724Y627386D01*
X33603Y627329D01*
X33480Y627276D01*
X33355Y627226D01*
X33229Y627180D01*
X33102Y627138D01*
X32974Y627100D01*
X32844Y627065D01*
X32714Y627034D01*
X32583Y627008D01*
X32451Y626985D01*
X32318Y626966D01*
X32185Y626951D01*
X32051Y626940D01*
X31917Y626933D01*
X31784Y626930D01*
X31650Y626931D01*
X31516Y626936D01*
X31382Y626945D01*
X31249Y626958D01*
X31116Y626975D01*
X30983Y626996D01*
X30852Y627021D01*
X30721Y627049D01*
X30591Y627082D01*
X30462Y627118D01*
X30334Y627159D01*
X30207Y627203D01*
X30082Y627250D01*
X29959Y627302D01*
X29836Y627357D01*
X29716Y627416D01*
X29597Y627478D01*
X29481Y627544D01*
X29366Y627613D01*
X29253Y627686D01*
X29143Y627762D01*
X29035Y627841D01*
X28929Y627924D01*
X28826Y628009D01*
X28726Y628098D01*
X28628Y628189D01*
X28533Y628284D01*
X28440Y628381D01*
X28351Y628481D01*
X28265Y628583D01*
X28182Y628688D01*
X28102Y628796D01*
X28025Y628906D01*
X27951Y629018D01*
X27881Y629132D01*
X27814Y629248D01*
X27751Y629366D01*
X27691Y629486D01*
X27635Y629608D01*
X27583Y629731D01*
X27534Y629856D01*
X27489Y629982D01*
X27448Y630110D01*
X27411Y630238D01*
X27377Y630368D01*
X27347Y630499D01*
X27322Y630630D01*
X27300Y630762D01*
X27282Y630895D01*
X27268Y631029D01*
X27258Y631162D01*
X27252Y631296D01*
X27250Y631430D01*
X27250Y661430D02*
X27252Y661564D01*
X27258Y661698D01*
X27268Y661831D01*
X27282Y661965D01*
X27300Y662098D01*
X27322Y662230D01*
X27347Y662361D01*
X27377Y662492D01*
X27411Y662622D01*
X27448Y662750D01*
X27489Y662878D01*
X27534Y663004D01*
X27583Y663129D01*
X27635Y663252D01*
X27691Y663374D01*
X27751Y663494D01*
X27814Y663612D01*
X27881Y663728D01*
X27951Y663842D01*
X28025Y663954D01*
X28102Y664064D01*
X28182Y664172D01*
X28265Y664277D01*
X28351Y664379D01*
X28440Y664479D01*
X28533Y664576D01*
X28628Y664671D01*
X28726Y664762D01*
X28826Y664851D01*
X28929Y664936D01*
X29035Y665019D01*
X29143Y665098D01*
X29253Y665174D01*
X29366Y665247D01*
X29481Y665316D01*
X29597Y665382D01*
X29716Y665444D01*
X29836Y665503D01*
X29959Y665558D01*
X30082Y665610D01*
X30207Y665657D01*
X30334Y665701D01*
X30462Y665742D01*
X30591Y665778D01*
X30721Y665811D01*
X30852Y665839D01*
X30983Y665864D01*
X31116Y665885D01*
X31249Y665902D01*
X31382Y665915D01*
X31516Y665924D01*
X31650Y665929D01*
X31784Y665930D01*
X31917Y665927D01*
X32051Y665920D01*
X32185Y665909D01*
X32318Y665894D01*
X32451Y665875D01*
X32583Y665852D01*
X32714Y665826D01*
X32844Y665795D01*
X32974Y665760D01*
X33102Y665722D01*
X33229Y665680D01*
X33355Y665634D01*
X33480Y665584D01*
X33603Y665531D01*
X33724Y665474D01*
X33844Y665413D01*
X33961Y665349D01*
X34077Y665282D01*
X34191Y665211D01*
X34302Y665136D01*
X34411Y665059D01*
X34518Y664978D01*
X34623Y664894D01*
X34724Y664807D01*
X34824Y664717D01*
X34920Y664624D01*
X35014Y664528D01*
X35105Y664429D01*
X35192Y664328D01*
X35277Y664224D01*
X35359Y664118D01*
X35437Y664010D01*
X35512Y663899D01*
X35584Y663786D01*
X35653Y663670D01*
X35718Y663553D01*
X35779Y663434D01*
X35837Y663313D01*
X35891Y663191D01*
X35942Y663067D01*
X35989Y662941D01*
X36032Y662814D01*
X36071Y662686D01*
X36107Y662557D01*
X36138Y662427D01*
X36166Y662296D01*
X36190Y662164D01*
X36210Y662031D01*
X36226Y661898D01*
X36238Y661765D01*
X36246Y661631D01*
X36250Y661497D01*
X36250Y661363D01*
X36246Y661229D01*
X36238Y661095D01*
X36226Y660962D01*
X36210Y660829D01*
X36190Y660696D01*
X36166Y660564D01*
X36138Y660433D01*
X36107Y660303D01*
X36071Y660174D01*
X36032Y660046D01*
X35989Y659919D01*
X35942Y659793D01*
X35891Y659669D01*
X35837Y659547D01*
X35779Y659426D01*
X35718Y659307D01*
X35653Y659190D01*
X35584Y659074D01*
X35512Y658961D01*
X35437Y658850D01*
X35359Y658742D01*
X35277Y658636D01*
X35192Y658532D01*
X35105Y658431D01*
X35014Y658332D01*
X34920Y658236D01*
X34824Y658143D01*
X34724Y658053D01*
X34623Y657966D01*
X34518Y657882D01*
X34411Y657801D01*
X34302Y657724D01*
X34191Y657649D01*
X34077Y657578D01*
X33961Y657511D01*
X33844Y657447D01*
X33724Y657386D01*
X33603Y657329D01*
X33480Y657276D01*
X33355Y657226D01*
X33229Y657180D01*
X33102Y657138D01*
X32974Y657100D01*
X32844Y657065D01*
X32714Y657034D01*
X32583Y657008D01*
X32451Y656985D01*
X32318Y656966D01*
X32185Y656951D01*
X32051Y656940D01*
X31917Y656933D01*
X31784Y656930D01*
X31650Y656931D01*
X31516Y656936D01*
X31382Y656945D01*
X31249Y656958D01*
X31116Y656975D01*
X30983Y656996D01*
X30852Y657021D01*
X30721Y657049D01*
X30591Y657082D01*
X30462Y657118D01*
X30334Y657159D01*
X30207Y657203D01*
X30082Y657250D01*
X29959Y657302D01*
X29836Y657357D01*
X29716Y657416D01*
X29597Y657478D01*
X29481Y657544D01*
X29366Y657613D01*
X29253Y657686D01*
X29143Y657762D01*
X29035Y657841D01*
X28929Y657924D01*
X28826Y658009D01*
X28726Y658098D01*
X28628Y658189D01*
X28533Y658284D01*
X28440Y658381D01*
X28351Y658481D01*
X28265Y658583D01*
X28182Y658688D01*
X28102Y658796D01*
X28025Y658906D01*
X27951Y659018D01*
X27881Y659132D01*
X27814Y659248D01*
X27751Y659366D01*
X27691Y659486D01*
X27635Y659608D01*
X27583Y659731D01*
X27534Y659856D01*
X27489Y659982D01*
X27448Y660110D01*
X27411Y660238D01*
X27377Y660368D01*
X27347Y660499D01*
X27322Y660630D01*
X27300Y660762D01*
X27282Y660895D01*
X27268Y661029D01*
X27258Y661162D01*
X27252Y661296D01*
X27250Y661430D01*
M02*
