M48
;GenerationSoftware,Autodesk,EAGLE,9.6.2*%
;CreationDate,2023-04-14T16:57:00Z*%
FMAT,2
ICI,OFF
METRIC,TZ,000.000
T5C0.305
T4C0.900
T3C1.000
T2C1.016
T1C3.302
%
G90
M71
T1
X66548Y57023
X60960Y2540
X60960Y51435
X2540Y51435
X2540Y2540
X124968Y160401
X60960Y111506
X124968Y2540
X124968Y51435
X66548Y51435
X66548Y2540
X60960Y160401
X2540Y160401
X60960Y57023
X60960Y105918
X2540Y105918
X2540Y57023
X2540Y111506
X66548Y160401
X124968Y57023
X124968Y105918
X66548Y105918
X66548Y111506
X124968Y111506
T2
X126365Y76073
X126111Y73533
X1397Y73533
X126365Y70993
X1143Y125476
X1397Y128016
X1143Y130556
X62357Y130556
X62103Y128016
X65151Y125476
X65405Y128016
X65151Y130556
X126365Y130556
X1143Y16510
X1397Y19050
X1143Y21590
X62357Y21590
X62103Y19050
X62357Y16510
X126111Y128016
X126365Y125476
X62357Y125476
X65151Y16510
X65405Y19050
X65151Y21590
X126365Y21590
X126111Y19050
X126365Y16510
X1143Y70993
X1143Y76073
X62357Y76073
X62103Y73533
X62357Y70993
X65151Y70993
X65405Y73533
X65151Y76073
T3
X13970Y8255
X18669Y11303
X82677Y11303
X77978Y14224
X77978Y8255
X13970Y14224
X77978Y123190
X13970Y117221
X18669Y120269
X13970Y123190
X13970Y62738
X18669Y65786
X77978Y62738
X82677Y65786
X77978Y68707
X13970Y68707
X77978Y117221
X82677Y120269
T4
X3175Y8660
X3175Y11660
X67183Y11660
X3175Y63143
X3175Y66143
X67183Y8660
X67183Y63143
X67183Y66143
X3175Y117626
X3175Y120626
X67183Y117626
X67183Y120626
T5
X47625Y34925
X47625Y40640
X57150Y43180
X53340Y43180
X50165Y31115
X26035Y26670
X26035Y29845
X34290Y34290
X31750Y22860
X29210Y17780
X57150Y33020
X6350Y33020
X46355Y12065
X49022Y12065
X46355Y4572
X48895Y4572
X48895Y6858
X47625Y5715
X50165Y5715
X51435Y6858
X43815Y4445
X12700Y20320
X16510Y20320
X19939Y20955
X7366Y21082
X8255Y24130
X12065Y28575
X19050Y24130
X39370Y20955
X6350Y7620
X8890Y8890
X6985Y4445
X8255Y4445
X10795Y5715
X18415Y15240
X15875Y17780
X19685Y17780
X24765Y29845
X37465Y34290
X38100Y29845
X38100Y26035
X39370Y22225
X635Y44450
X17780Y39370
X17780Y34925
X9144Y34544
X10795Y635
X20955Y635
X28575Y635
X34925Y635
X42545Y635
X33020Y12065
X34290Y17780
X26035Y13335
X24765Y14605
X26289Y3429
X24765Y5715
X29845Y15240
X24765Y20955
X31115Y38100
X54356Y31496
X54356Y29210
X50165Y19685
X49530Y18034
X55245Y14605
X54610Y12954
X46355Y43942
X60960Y20320
X2540Y20320
X3810Y31750
X59690Y34290
X7239Y26289
X15875Y12700
X43815Y27559
X38735Y8890
X13970Y46355
X6350Y47625
X13335Y41910
X16828Y29210
X8890Y41910
X5715Y44450
X3810Y41910
X9144Y31496
X54356Y34544
X7620Y4445
X35560Y12700
X39370Y50165
X24130Y50165
X24130Y47625
X24130Y45085
X39370Y47625
X39370Y45085
X27940Y43180
X30480Y43180
X35560Y43180
X38100Y13335
X26035Y40005
X24765Y17780
X58420Y24130
X10160Y12700
X5080Y10795
X5080Y15240
X8001Y16129
X6350Y22860
X11811Y17780
X13589Y17780
X8636Y16129
X7366Y16129
X8001Y21082
X8636Y21082
X50800Y21336
X13208Y43815
X36195Y8890
X57785Y13335
X51435Y31115
X12065Y34925
X2540Y29210
X2540Y39370
X8890Y51435
X16510Y51435
X60960Y36830
X60960Y26670
X54610Y51435
X46990Y51435
X26670Y24765
X10160Y39370
X52324Y26670
X19685Y28575
X14732Y28829
X58928Y9652
X35560Y31750
X14605Y31750
X36195Y31115
X15240Y31115
X38735Y31750
X14605Y33020
X39370Y23495
X39370Y29845
X15240Y32385
X39370Y26035
X43815Y46990
X43815Y50165
X39370Y36195
X39370Y38735
X5080Y31750
X7620Y31750
X7620Y34290
X5080Y34290
X58420Y34290
X55880Y34290
X55880Y31750
X58420Y31750
X29845Y22860
X29210Y39370
X19685Y50165
X33020Y21590
X32385Y38735
X19685Y48895
X25400Y41910
X48260Y43180
X48260Y31115
X48260Y35560
X24765Y42545
X46990Y43180
X46990Y31115
X46990Y35560
X13970Y34290
X49530Y31750
X34290Y27940
X2540Y27940
X24765Y41275
X54610Y43180
X25400Y40640
X55880Y43180
X19431Y44069
X12065Y44450
X12065Y45720
X19050Y45720
X20193Y40005
X35560Y37465
X2540Y38100
X36195Y36830
X2540Y36830
X44450Y38735
X60960Y39370
X43815Y28575
X60960Y27940
X44450Y29210
X60960Y29210
X44450Y22987
X46990Y25908
X49530Y25908
X47625Y10160
X47625Y11430
X18415Y16510
X47625Y10795
X19050Y16510
X55435Y12382
X34925Y27305
X2540Y26670
X43815Y38100
X60960Y38100
X15875Y22225
X12065Y22225
X10160Y19050
X13970Y19050
X13335Y19050
X9525Y19050
X10160Y34925
X53340Y31115
X15240Y36830
X52070Y36830
X17526Y36830
X49530Y36830
X57150Y3810
X57150Y2540
X8255Y3175
X6985Y3175
X27305Y1905
X26670Y35560
X27940Y35560
X26035Y1905
X27305Y35560
X7620Y3175
X26670Y1905
X57150Y3175
X53721Y6604
X57150Y5461
X35560Y16510
X19533Y22225
X17780Y19050
X13291Y39834
X9525Y43815
X17780Y3175
X17145Y3175
X6350Y14097
X6350Y14732
X50800Y22860
X45085Y19685
X61087Y9525
X75438Y34290
X75438Y31750
X116078Y31750
X116078Y34290
X109093Y22225
X112903Y20320
X103378Y53340
X88138Y53340
X89408Y43180
X102108Y43180
X97028Y43180
X123063Y53340
X126873Y49530
X126873Y4445
X123063Y635
X68453Y635
X64643Y4445
X64643Y49530
X68453Y53340
X123063Y49530
X123063Y4445
X68453Y4445
X68453Y49530
X64643Y33020
X64643Y25400
X64643Y40640
X67818Y45085
X79248Y53340
X74168Y53340
X117348Y53340
X112268Y53340
X126873Y40640
X126873Y33020
X126873Y25400
X90043Y8890
X83693Y8890
X88773Y34290
X83693Y46355
X108458Y31750
X107823Y19685
X107823Y6985
X96393Y7620
X100203Y3429
X78994Y41910
X81788Y41910
X76073Y39370
X73152Y36830
X113538Y40640
X116078Y40640
X115443Y25908
X117348Y25908
X114808Y24003
X109728Y25908
X110363Y29972
X116713Y635
X119253Y635
X117983Y3175
X121158Y6350
X121793Y9525
X115443Y12065
X107823Y12065
X109093Y8255
X107823Y9525
X109093Y5715
X110363Y6858
X108712Y3175
X114173Y635
X111633Y635
X109093Y635
X119253Y10795
X67818Y34290
X67818Y24130
X123698Y41910
X123698Y31750
X92583Y34290
X92583Y29845
X77343Y49530
X71628Y51435
X116078Y49530
X109728Y51435
X95123Y29845
X98298Y29845
X95123Y26670
X92583Y26670
X97663Y26670
X102108Y39370
X90043Y38100
X79248Y34290
X78613Y30480
X111633Y31750
X111633Y34925
X111633Y40640
X121158Y43180
X117348Y43180
X114173Y31115
X90043Y26670
X90043Y29845
X98298Y34290
X95758Y22860
X93218Y17780
X121158Y33020
X70358Y33020
X110363Y12065
X113030Y12065
X110363Y4572
X112903Y4572
X112903Y6858
X111633Y5715
X114173Y5715
X115443Y6858
X107823Y4445
X76708Y20320
X80518Y20320
X83947Y20955
X71374Y21082
X72263Y24130
X76073Y28575
X83058Y24130
X103378Y20955
X70358Y7620
X72898Y8890
X70993Y4445
X72263Y4445
X74803Y5715
X82423Y15240
X79883Y17780
X83693Y17780
X88773Y29845
X101473Y34290
X102108Y29845
X102108Y26035
X103378Y22225
X64643Y44450
X81788Y39370
X81788Y34925
X73152Y34544
X74803Y635
X84963Y635
X92583Y635
X98933Y635
X106553Y635
X97028Y12065
X98298Y17780
X90043Y13335
X88773Y14605
X90297Y3429
X88773Y5715
X93853Y15240
X88773Y20955
X95123Y38100
X118364Y31496
X118364Y29210
X114173Y19685
X113538Y18034
X119253Y14605
X118618Y12954
X110363Y43942
X124968Y20320
X66548Y20320
X67818Y31750
X123698Y34290
X71247Y26289
X79883Y12700
X107823Y27559
X102743Y8890
X77978Y46355
X70358Y47625
X77343Y41910
X80836Y29210
X72898Y41910
X69723Y44450
X67818Y41910
X73152Y31496
X118364Y34544
X71628Y4445
X99568Y12700
X103378Y50165
X88138Y50165
X88138Y47625
X88138Y45085
X103378Y47625
X103378Y45085
X91948Y43180
X94488Y43180
X99568Y43180
X102108Y13335
X90043Y40005
X88773Y17780
X122428Y24130
X74168Y12700
X69088Y10795
X69088Y15240
X72009Y16129
X70358Y22860
X75819Y17780
X77597Y17780
X72644Y16129
X71374Y16129
X72009Y21082
X72644Y21082
X114808Y21336
X77216Y43815
X100203Y8890
X121793Y13335
X115443Y31115
X76073Y34925
X66548Y29210
X66548Y39370
X72898Y51435
X80518Y51435
X124968Y36830
X124968Y26670
X118618Y51435
X110998Y51435
X90678Y24765
X74168Y39370
X116332Y26670
X83693Y28575
X78740Y28829
X122936Y9652
X99568Y31750
X78613Y31750
X100203Y31115
X79248Y31115
X102743Y31750
X78613Y33020
X103378Y23495
X103378Y29845
X79248Y32385
X103378Y26035
X107823Y46990
X107823Y50165
X103378Y36195
X103378Y38735
X69088Y31750
X71628Y31750
X71628Y34290
X69088Y34290
X122428Y34290
X119888Y34290
X119888Y31750
X122428Y31750
X93853Y22860
X93218Y39370
X83693Y50165
X97028Y21590
X96393Y38735
X83693Y48895
X89408Y41910
X112268Y43180
X112268Y31115
X112268Y35560
X88773Y42545
X110998Y43180
X110998Y31115
X110998Y35560
X77978Y34290
X113538Y31750
X98298Y27940
X66548Y27940
X88773Y41275
X118618Y43180
X89408Y40640
X119888Y43180
X83439Y44069
X76073Y44450
X76073Y45720
X83058Y45720
X84201Y40005
X99568Y37465
X66548Y38100
X100203Y36830
X66548Y36830
X108458Y38735
X124968Y39370
X107823Y28575
X124968Y27940
X108458Y29210
X124968Y29210
X108458Y22987
X110998Y25908
X113538Y25908
X111633Y10160
X111633Y11430
X82423Y16510
X111633Y10795
X83058Y16510
X119443Y12382
X98933Y27305
X66548Y26670
X107823Y38100
X124968Y38100
X79883Y22225
X76073Y22225
X74168Y19050
X77978Y19050
X77343Y19050
X73533Y19050
X74168Y34925
X117348Y31115
X79248Y36830
X116078Y36830
X81534Y36830
X113538Y36830
X121158Y3810
X121158Y2540
X72263Y3175
X70993Y3175
X91313Y1905
X90678Y35560
X91948Y35560
X90043Y1905
X91313Y35560
X71628Y3175
X90678Y1905
X121158Y3175
X117729Y6604
X121158Y5461
X99568Y16510
X83541Y22225
X81788Y19050
X77299Y39834
X73533Y43815
X81788Y3175
X81153Y3175
X70358Y14097
X70358Y14732
X114808Y22860
X109093Y19685
X125095Y9525
X11430Y88773
X11430Y86233
X52070Y86233
X52070Y88773
X45085Y76708
X48895Y74803
X39370Y107823
X24130Y107823
X25400Y97663
X38100Y97663
X33020Y97663
X59055Y107823
X62865Y104013
X62865Y58928
X59055Y55118
X4445Y55118
X635Y58928
X635Y104013
X4445Y107823
X59055Y104013
X59055Y58928
X4445Y58928
X4445Y104013
X635Y87503
X635Y79883
X635Y95123
X3810Y99568
X15240Y107823
X10160Y107823
X53340Y107823
X48260Y107823
X62865Y95123
X62865Y87503
X62865Y79883
X26035Y63373
X19685Y63373
X24765Y88773
X19685Y100838
X44450Y86233
X43815Y74168
X43815Y61468
X32385Y62103
X36195Y57912
X14986Y96393
X17780Y96393
X12065Y93853
X9144Y91313
X49530Y95123
X52070Y95123
X51435Y80391
X53340Y80391
X50800Y78486
X45720Y80391
X46355Y84455
X52705Y55118
X55245Y55118
X53975Y57658
X57150Y60833
X57785Y64008
X51435Y66548
X43815Y66548
X45085Y62738
X43815Y64008
X45085Y60198
X46355Y61341
X44704Y57658
X50165Y55118
X47625Y55118
X45085Y55118
X55245Y65278
X3810Y88773
X3810Y78613
X59690Y96393
X59690Y86233
X28575Y88773
X28575Y84328
X13335Y104013
X7620Y105918
X52070Y104013
X45720Y105918
X31115Y84328
X34290Y84328
X31115Y81153
X28575Y81153
X33655Y81153
X38100Y93853
X26035Y92583
X15240Y88773
X14605Y84963
X47625Y86233
X47625Y89408
X47625Y95123
X57150Y97663
X53340Y97663
X50165Y85598
X26035Y81153
X26035Y84328
X34290Y88773
X31750Y77343
X29210Y72263
X57150Y87503
X6350Y87503
X46355Y66548
X49022Y66548
X46355Y59055
X48895Y59055
X48895Y61341
X47625Y60198
X50165Y60198
X51435Y61341
X43815Y58928
X12700Y74803
X16510Y74803
X19939Y75438
X7366Y75565
X8255Y78613
X12065Y83058
X19050Y78613
X39370Y75438
X6350Y62103
X8890Y63373
X6985Y58928
X8255Y58928
X10795Y60198
X18415Y69723
X15875Y72263
X19685Y72263
X24765Y84328
X37465Y88773
X38100Y84328
X38100Y80518
X39370Y76708
X635Y98933
X17780Y93853
X17780Y89408
X9144Y89027
X10795Y55118
X20955Y55118
X28575Y55118
X34925Y55118
X42545Y55118
X33020Y66548
X34290Y72263
X26035Y67818
X24765Y69088
X26289Y57912
X24765Y60198
X29845Y69723
X24765Y75438
X31115Y92583
X54356Y85979
X54356Y83693
X50165Y74168
X49530Y72517
X55245Y69088
X54610Y67437
X46355Y98425
X60960Y74803
X2540Y74803
X3810Y86233
X59690Y88773
X7239Y80772
X15875Y67183
X43815Y82042
X38735Y63373
X13970Y100838
X6350Y102108
X13335Y96393
X16828Y83693
X8890Y96393
X5715Y98933
X3810Y96393
X9144Y85979
X54356Y89027
X7620Y58928
X35560Y67183
X39370Y104648
X24130Y104648
X24130Y102108
X24130Y99568
X39370Y102108
X39370Y99568
X27940Y97663
X30480Y97663
X35560Y97663
X38100Y67818
X26035Y94488
X24765Y72263
X58420Y78613
X10160Y67183
X5080Y65278
X5080Y69723
X8001Y70612
X6350Y77343
X11811Y72263
X13589Y72263
X8636Y70612
X7366Y70612
X8001Y75565
X8636Y75565
X50800Y75819
X13208Y98298
X36195Y63373
X57785Y67818
X51435Y85598
X12065Y89408
X2540Y83693
X2540Y93853
X8890Y105918
X16510Y105918
X60960Y91313
X60960Y81153
X54610Y105918
X46990Y105918
X26670Y79248
X10160Y93853
X52324Y81153
X19685Y83058
X14732Y83312
X58928Y64135
X35560Y86233
X14605Y86233
X36195Y85598
X15240Y85598
X38735Y86233
X14605Y87503
X39370Y77978
X39370Y84328
X15240Y86868
X39370Y80518
X43815Y101473
X43815Y104648
X39370Y90678
X39370Y93218
X5080Y86233
X7620Y86233
X7620Y88773
X5080Y88773
X58420Y88773
X55880Y88773
X55880Y86233
X58420Y86233
X29845Y77343
X29210Y93853
X19685Y104648
X33020Y76073
X32385Y93218
X19685Y103378
X25400Y96393
X48260Y97663
X48260Y85598
X48260Y90043
X24765Y97028
X46990Y97663
X46990Y85598
X46990Y90043
X13970Y88773
X49530Y86233
X34290Y82423
X2540Y82423
X24765Y95758
X54610Y97663
X25400Y95123
X55880Y97663
X19431Y98552
X12065Y98933
X12065Y100203
X19050Y100203
X20193Y94488
X35560Y91948
X2540Y92583
X36195Y91313
X2540Y91313
X44450Y93218
X60960Y93853
X43815Y83058
X60960Y82423
X44450Y83693
X60960Y83693
X44450Y77470
X46990Y80391
X49530Y80391
X47625Y64643
X47625Y65913
X18415Y70993
X47625Y65278
X19050Y70993
X55435Y66866
X34925Y81788
X2540Y81153
X43815Y92583
X60960Y92583
X15875Y76708
X12065Y76708
X10160Y73533
X13970Y73533
X13335Y73533
X9525Y73533
X10160Y89408
X53340Y85598
X15240Y91313
X52070Y91313
X17526Y91313
X49530Y91313
X57150Y58293
X57150Y57023
X8255Y57658
X6985Y57658
X27305Y56388
X26670Y90043
X27940Y90043
X26035Y56388
X27305Y90043
X7620Y57658
X26670Y56388
X57150Y57658
X53721Y61087
X57150Y59944
X35560Y70993
X19533Y76708
X17780Y73533
X13291Y94317
X9525Y98298
X17780Y57658
X17145Y57658
X6350Y68580
X6350Y69215
X50800Y77343
X45085Y74168
X61087Y64008
X75438Y88773
X75438Y86233
X116078Y86233
X116078Y88773
X109093Y76708
X112903Y74803
X103378Y107823
X88138Y107823
X89408Y97663
X102108Y97663
X97028Y97663
X123063Y107823
X126873Y104013
X126873Y58928
X123063Y55118
X68453Y55118
X64643Y58928
X64643Y104013
X68453Y107823
X123063Y104013
X123063Y58928
X68453Y58928
X68453Y104013
X64643Y87503
X64643Y79883
X64643Y95123
X67818Y99568
X79248Y107823
X74168Y107823
X117348Y107823
X112268Y107823
X126873Y95123
X126873Y87503
X126873Y79883
X90043Y63373
X83693Y63373
X88773Y88773
X83693Y100838
X108458Y86233
X107823Y74168
X107823Y61468
X96393Y62103
X100203Y57912
X78994Y96393
X81788Y96393
X76073Y93853
X73152Y91313
X113538Y95123
X116078Y95123
X115443Y80391
X117348Y80391
X114808Y78486
X109728Y80391
X110363Y84455
X116713Y55118
X119253Y55118
X117983Y57658
X121158Y60833
X121793Y64008
X115443Y66548
X107823Y66548
X109093Y62738
X107823Y64008
X109093Y60198
X110363Y61341
X108712Y57658
X114173Y55118
X111633Y55118
X109093Y55118
X119253Y65278
X67818Y88773
X67818Y78613
X123698Y96393
X123698Y86233
X92583Y88773
X92583Y84328
X77343Y104013
X71628Y105918
X116078Y104013
X109728Y105918
X95123Y84328
X98298Y84328
X95123Y81153
X92583Y81153
X97663Y81153
X102108Y93853
X90043Y92583
X79248Y88773
X78613Y84963
X111633Y86233
X111633Y89408
X111633Y95123
X121158Y97663
X117348Y97663
X114173Y85598
X90043Y81153
X90043Y84328
X98298Y88773
X95758Y77343
X93218Y72263
X121158Y87503
X70358Y87503
X110363Y66548
X113030Y66548
X110363Y59055
X112903Y59055
X112903Y61341
X111633Y60198
X114173Y60198
X115443Y61341
X107823Y58928
X76708Y74803
X80518Y74803
X83947Y75438
X71374Y75565
X72263Y78613
X76073Y83058
X83058Y78613
X103378Y75438
X70358Y62103
X72898Y63373
X70993Y58928
X72263Y58928
X74803Y60198
X82423Y69723
X79883Y72263
X83693Y72263
X88773Y84328
X101473Y88773
X102108Y84328
X102108Y80518
X103378Y76708
X64643Y98933
X81788Y93853
X81788Y89408
X73152Y89027
X74803Y55118
X84963Y55118
X92583Y55118
X98933Y55118
X106553Y55118
X97028Y66548
X98298Y72263
X90043Y67818
X88773Y69088
X90297Y57912
X88773Y60198
X93853Y69723
X88773Y75438
X95123Y92583
X118364Y85979
X118364Y83693
X114173Y74168
X113538Y72517
X119253Y69088
X118618Y67437
X110363Y98425
X124968Y74803
X66548Y74803
X67818Y86233
X123698Y88773
X71247Y80772
X79883Y67183
X107823Y82042
X102743Y63373
X77978Y100838
X70358Y102108
X77343Y96393
X80836Y83693
X72898Y96393
X69723Y98933
X67818Y96393
X73152Y85979
X118364Y89027
X71628Y58928
X99568Y67183
X103378Y104648
X88138Y104648
X88138Y102108
X88138Y99568
X103378Y102108
X103378Y99568
X91948Y97663
X94488Y97663
X99568Y97663
X102108Y67818
X90043Y94488
X88773Y72263
X122428Y78613
X74168Y67183
X69088Y65278
X69088Y69723
X72009Y70612
X70358Y77343
X75819Y72263
X77597Y72263
X72644Y70612
X71374Y70612
X72009Y75565
X72644Y75565
X114808Y75819
X77216Y98298
X100203Y63373
X121793Y67818
X115443Y85598
X76073Y89408
X66548Y83693
X66548Y93853
X72898Y105918
X80518Y105918
X124968Y91313
X124968Y81153
X118618Y105918
X110998Y105918
X90678Y79248
X74168Y93853
X116332Y81153
X83693Y83058
X78740Y83312
X122936Y64135
X99568Y86233
X78613Y86233
X100203Y85598
X79248Y85598
X102743Y86233
X78613Y87503
X103378Y77978
X103378Y84328
X79248Y86868
X103378Y80518
X107823Y101473
X107823Y104648
X103378Y90678
X103378Y93218
X69088Y86233
X71628Y86233
X71628Y88773
X69088Y88773
X122428Y88773
X119888Y88773
X119888Y86233
X122428Y86233
X93853Y77343
X93218Y93853
X83693Y104648
X97028Y76073
X96393Y93218
X83693Y103378
X89408Y96393
X112268Y97663
X112268Y85598
X112268Y90043
X88773Y97028
X110998Y97663
X110998Y85598
X110998Y90043
X77978Y88773
X113538Y86233
X98298Y82423
X66548Y82423
X88773Y95758
X118618Y97663
X89408Y95123
X119888Y97663
X83439Y98552
X76073Y98933
X76073Y100203
X83058Y100203
X84201Y94488
X99568Y91948
X66548Y92583
X100203Y91313
X66548Y91313
X108458Y93218
X124968Y93853
X107823Y83058
X124968Y82423
X108458Y83693
X124968Y83693
X108458Y77470
X110998Y80391
X113538Y80391
X111633Y64643
X111633Y65913
X82423Y70993
X111633Y65278
X83058Y70993
X119443Y66866
X98933Y81788
X66548Y81153
X107823Y92583
X124968Y92583
X79883Y76708
X76073Y76708
X74168Y73533
X77978Y73533
X77343Y73533
X73533Y73533
X74168Y89408
X117348Y85598
X79248Y91313
X116078Y91313
X81534Y91313
X113538Y91313
X121158Y58293
X121158Y57023
X72263Y57658
X70993Y57658
X91313Y56388
X90678Y90043
X91948Y90043
X90043Y56388
X91313Y90043
X71628Y57658
X90678Y56388
X121158Y57658
X117729Y61087
X121158Y59944
X99568Y70993
X83541Y76708
X81788Y73533
X77299Y94317
X73533Y98298
X81788Y57658
X81153Y57658
X70358Y68580
X70358Y69215
X114808Y77343
X109093Y74168
X125095Y64008
X11430Y143256
X11430Y140716
X52070Y140716
X52070Y143256
X45085Y131191
X48895Y129286
X39370Y162306
X24130Y162306
X25400Y152146
X38100Y152146
X33020Y152146
X59055Y162306
X62865Y158496
X62865Y113411
X59055Y109601
X4445Y109601
X635Y113411
X635Y158496
X4445Y162306
X59055Y158496
X59055Y113411
X4445Y113411
X4445Y158496
X635Y141986
X635Y134366
X635Y149606
X3810Y154051
X15240Y162306
X10160Y162306
X53340Y162306
X48260Y162306
X62865Y149606
X62865Y141986
X62865Y134366
X26035Y117856
X19685Y117856
X24765Y143256
X19685Y155321
X44450Y140716
X43815Y128651
X43815Y115951
X32385Y116586
X36195Y112395
X14986Y150876
X17780Y150876
X12065Y148336
X9144Y145796
X49530Y149606
X52070Y149606
X51435Y134874
X53340Y134874
X50800Y132969
X45720Y134874
X46355Y138938
X52705Y109601
X55245Y109601
X53975Y112141
X57150Y115316
X57785Y118491
X51435Y121031
X43815Y121031
X45085Y117221
X43815Y118491
X45085Y114681
X46355Y115824
X44704Y112141
X50165Y109601
X47625Y109601
X45085Y109601
X55245Y119761
X3810Y143256
X3810Y133096
X59690Y150876
X59690Y140716
X28575Y143256
X28575Y138811
X13335Y158496
X7620Y160401
X52070Y158496
X45720Y160401
X31115Y138811
X34290Y138811
X31115Y135636
X28575Y135636
X33655Y135636
X38100Y148336
X26035Y147066
X15240Y143256
X14605Y139446
X47625Y140716
X47625Y143891
X47625Y149606
X57150Y152146
X53340Y152146
X50165Y140081
X26035Y135636
X26035Y138811
X34290Y143256
X31750Y131826
X29210Y126746
X57150Y141986
X6350Y141986
X46355Y121031
X49022Y121031
X46355Y113538
X48895Y113538
X48895Y115824
X47625Y114681
X50165Y114681
X51435Y115824
X43815Y113411
X12700Y129286
X16510Y129286
X19939Y129921
X7366Y130048
X8255Y133096
X12065Y137541
X19050Y133096
X39370Y129921
X6350Y116586
X8890Y117856
X6985Y113411
X8255Y113411
X10795Y114681
X18415Y124206
X15875Y126746
X19685Y126746
X24765Y138811
X37465Y143256
X38100Y138811
X38100Y135001
X39370Y131191
X635Y153416
X17780Y148336
X17780Y143891
X9144Y143510
X10795Y109601
X20955Y109601
X28575Y109601
X34925Y109601
X42545Y109601
X33020Y121031
X34290Y126746
X26035Y122301
X24765Y123571
X26289Y112395
X24765Y114681
X29845Y124206
X24765Y129921
X31115Y147066
X54356Y140462
X54356Y138176
X50165Y128651
X49530Y127000
X55245Y123571
X54610Y121920
X46355Y152908
X60960Y129286
X2540Y129286
X3810Y140716
X59690Y143256
X7239Y135255
X15875Y121666
X43815Y136525
X38735Y117856
X13970Y155321
X6350Y156591
X13335Y150876
X16828Y138176
X8890Y150876
X5715Y153416
X3810Y150876
X9144Y140462
X54356Y143510
X7620Y113411
X35560Y121666
X39370Y159131
X24130Y159131
X24130Y156591
X24130Y154051
X39370Y156591
X39370Y154051
X27940Y152146
X30480Y152146
X35560Y152146
X38100Y122301
X26035Y148971
X24765Y126746
X58420Y133096
X10160Y121666
X5080Y119761
X5080Y124206
X8001Y125095
X6350Y131826
X11811Y126746
X13589Y126746
X8636Y125095
X7366Y125095
X8001Y130048
X8636Y130048
X50800Y130302
X13208Y152781
X36195Y117856
X57785Y122301
X51435Y140081
X12065Y143891
X2540Y138176
X2540Y148336
X8890Y160401
X16510Y160401
X60960Y145796
X60960Y135636
X54610Y160401
X46990Y160401
X26670Y133731
X10160Y148336
X52324Y135636
X19685Y137541
X14732Y137795
X58928Y118618
X35560Y140716
X14605Y140716
X36195Y140081
X15240Y140081
X38735Y140716
X14605Y141986
X39370Y132461
X39370Y138811
X15240Y141351
X39370Y135001
X43815Y155956
X43815Y159131
X39370Y145161
X11430Y34290
X5080Y140716
X7620Y140716
X7620Y143256
X5080Y143256
X58420Y143256
X55880Y143256
X55880Y140716
X58420Y140716
X29845Y131826
X29210Y148336
X19685Y159131
X33020Y130556
X32385Y147701
X19685Y157861
X25400Y150876
X48260Y152146
X48260Y140081
X48260Y144526
X24765Y151511
X46990Y152146
X46990Y140081
X46990Y144526
X13970Y143256
X49530Y140716
X34290Y136906
X2540Y136906
X24765Y150241
X54610Y152146
X25400Y149606
X55880Y152146
X19431Y153035
X12065Y153416
X12065Y154686
X19050Y154686
X20193Y148971
X35560Y146431
X2540Y147066
X36195Y145796
X2540Y145796
X44450Y147701
X60960Y148336
X43815Y137541
X60960Y136906
X44450Y138176
X60960Y138176
X44450Y131953
X46990Y134874
X49530Y134874
X47625Y119126
X47625Y120396
X18415Y125476
X47625Y119761
X19050Y125476
X55435Y121348
X34925Y136271
X2540Y135636
X43815Y147066
X60960Y147066
X15875Y131191
X12065Y131191
X10160Y128016
X13970Y128016
X13335Y128016
X9525Y128016
X10160Y143891
X53340Y140081
X15240Y145796
X52070Y145796
X17526Y145796
X49530Y145796
X57150Y112776
X57150Y111506
X8255Y112141
X6985Y112141
X27305Y110871
X26670Y144526
X27940Y144526
X26035Y110871
X27305Y144526
X7620Y112141
X26670Y110871
X57150Y112141
X53721Y115570
X57150Y114427
X35560Y125476
X19533Y131191
X17780Y128016
X13291Y148800
X9525Y152781
X17780Y112141
X17145Y112141
X6350Y123063
X6350Y123698
X50800Y131826
X45085Y128651
X61087Y118491
X75438Y143256
X75438Y140716
X116078Y140716
X116078Y143256
X109093Y131191
X112903Y129286
X103378Y162306
X88138Y162306
X89408Y152146
X102108Y152146
X97028Y152146
X123063Y162306
X126873Y158496
X126873Y113411
X123063Y109601
X68453Y109601
X64643Y113411
X64643Y158496
X68453Y162306
X123063Y158496
X123063Y113411
X68453Y113411
X68453Y158496
X64643Y141986
X64643Y134366
X64643Y149606
X67818Y154051
X79248Y162306
X74168Y162306
X117348Y162306
X112268Y162306
X126873Y149606
X126873Y141986
X126873Y134366
X90043Y117856
X83693Y117856
X88773Y143256
X83693Y155321
X108458Y140716
X107823Y128651
X107823Y115951
X96393Y116586
X100203Y112395
X78994Y150876
X81788Y150876
X76073Y148336
X73152Y145796
X113538Y149606
X116078Y149606
X115443Y134874
X117348Y134874
X114808Y132969
X109728Y134874
X110363Y138938
X116713Y109601
X119253Y109601
X117983Y112141
X121158Y115316
X121793Y118491
X115443Y121031
X107823Y121031
X109093Y117221
X107823Y118491
X109093Y114681
X110363Y115824
X108712Y112141
X114173Y109601
X111633Y109601
X109093Y109601
X119253Y119761
X67818Y143256
X67818Y133096
X123698Y150876
X123698Y140716
X92583Y143256
X92583Y138811
X77343Y158496
X71628Y160401
X116078Y158496
X109728Y160401
X95123Y138811
X98298Y138811
X95123Y135636
X92583Y135636
X97663Y135636
X102108Y148336
X90043Y147066
X79248Y143256
X78613Y139446
X111633Y140716
X111633Y143891
X111633Y149606
X121158Y152146
X117348Y152146
X114173Y140081
X90043Y135636
X90043Y138811
X98298Y143256
X95758Y131826
X93218Y126746
X121158Y141986
X70358Y141986
X110363Y121031
X113030Y121031
X110363Y113538
X112903Y113538
X112903Y115824
X111633Y114681
X114173Y114681
X115443Y115824
X107823Y113411
X76708Y129286
X80518Y129286
X83947Y129921
X71374Y130048
X72263Y133096
X76073Y137541
X83058Y133096
X103378Y129921
X70358Y116586
X72898Y117856
X70993Y113411
X72263Y113411
X74803Y114681
X82423Y124206
X79883Y126746
X83693Y126746
X88773Y138811
X101473Y143256
X102108Y138811
X102108Y135001
X103378Y131191
X64643Y153416
X81788Y148336
X81788Y143891
X73152Y143510
X74803Y109601
X84963Y109601
X92583Y109601
X98933Y109601
X106553Y109601
X97028Y121031
X98298Y126746
X90043Y122301
X88773Y123571
X90297Y112395
X88773Y114681
X93853Y124206
X88773Y129921
X95123Y147066
X118364Y140462
X118364Y138176
X114173Y128651
X113538Y127000
X119253Y123571
X118618Y121920
X110363Y152908
X124968Y129286
X66548Y129286
X67818Y140716
X123698Y143256
X39370Y147701
X79883Y121666
X107823Y136525
X102743Y117856
X77978Y155321
X70358Y156591
X77343Y150876
X80836Y138176
X72898Y150876
X69723Y153416
X67818Y150876
X73152Y140462
X118364Y143510
X71628Y113411
X99568Y121666
X103378Y159131
X88138Y159131
X88138Y156591
X88138Y154051
X103378Y156591
X103378Y154051
X91948Y152146
X94488Y152146
X99568Y152146
X102108Y122301
X90043Y148971
X88773Y126746
X122428Y133096
X74168Y121666
X69088Y119761
X69088Y124206
X72009Y125095
X70358Y131826
X75819Y126746
X77597Y126746
X72644Y125095
X71374Y125095
X72009Y130048
X72644Y130048
X114808Y130302
X77216Y152781
X100203Y117856
X121793Y122301
X115443Y140081
X76073Y143891
X66548Y138176
X66548Y148336
X72898Y160401
X80518Y160401
X124968Y145796
X124968Y135636
X118618Y160401
X110998Y160401
X90678Y133731
X74168Y148336
X116332Y135636
X83693Y137541
X78740Y137795
X122936Y118618
X99568Y140716
X78613Y140716
X100203Y140081
X79248Y140081
X102743Y140716
X78613Y141986
X103378Y132461
X103378Y138811
X79248Y141351
X103378Y135001
X107823Y155956
X107823Y159131
X103378Y145161
X103378Y147701
X69088Y140716
X71628Y140716
X71628Y143256
X69088Y143256
X122428Y143256
X119888Y143256
X119888Y140716
X122428Y140716
X93853Y131826
X93218Y148336
X83693Y159131
X97028Y130556
X96393Y147701
X83693Y157861
X89408Y150876
X112268Y152146
X112268Y140081
X112268Y144526
X88773Y151511
X110998Y152146
X110998Y140081
X110998Y144526
X77978Y143256
X113538Y140716
X98298Y136906
X66548Y136906
X88773Y150241
X118618Y152146
X89408Y149606
X119888Y152146
X83439Y153035
X76073Y153416
X76073Y154686
X83058Y154686
X84201Y148971
X99568Y146431
X66548Y147066
X100203Y145796
X66548Y145796
X108458Y147701
X124968Y148336
X107823Y137541
X124968Y136906
X108458Y138176
X124968Y138176
X108458Y131953
X110998Y134874
X113538Y134874
X111633Y119126
X111633Y120396
X82423Y125476
X111633Y119761
X83058Y125476
X119443Y121348
X98933Y136271
X66548Y135636
X107823Y147066
X124968Y147066
X79883Y131191
X76073Y131191
X74168Y128016
X77978Y128016
X77343Y128016
X73533Y128016
X74168Y143891
X117348Y140081
X79248Y145796
X116078Y145796
X81534Y145796
X113538Y145796
X121158Y112776
X121158Y111506
X72263Y112141
X70993Y112141
X91313Y110871
X90678Y144526
X91948Y144526
X90043Y110871
X91313Y144526
X71628Y112141
X90678Y110871
X121158Y112141
X117729Y115570
X121158Y114427
X99568Y125476
X83541Y131191
X81788Y128016
X77299Y148800
X73533Y152781
X81788Y112141
X81153Y112141
X70358Y123063
X70358Y123698
X114808Y131826
X109093Y128651
X125095Y118491
X11430Y31750
X52070Y31750
X52070Y34290
X45085Y22225
X48895Y20320
X39370Y53340
X24130Y53340
X25400Y43180
X38100Y43180
X33020Y43180
X59055Y53340
X62865Y49530
X62865Y4445
X59055Y635
X4445Y635
X635Y4445
X635Y49530
X4445Y53340
X59055Y49530
X59055Y4445
X4445Y4445
X4445Y49530
X635Y33020
X635Y25400
X635Y40640
X3810Y45085
X15240Y53340
X10160Y53340
X53340Y53340
X48260Y53340
X62865Y40640
X62865Y33020
X62865Y25400
X26035Y8890
X19685Y8890
X24765Y34290
X19685Y46355
X44450Y31750
X43815Y19685
X43815Y6985
X32385Y7620
X36195Y3429
X14986Y41910
X17780Y41910
X12065Y39370
X9144Y36830
X49530Y40640
X52070Y40640
X51435Y25908
X53340Y25908
X50800Y24003
X45720Y25908
X46355Y29972
X52705Y635
X55245Y635
X53975Y3175
X57150Y6350
X57785Y9525
X51435Y12065
X43815Y12065
X45085Y8255
X43815Y9525
X45085Y5715
X46355Y6858
X44704Y3175
X50165Y635
X47625Y635
X45085Y635
X55245Y10795
X3810Y34290
X3810Y24130
X59690Y41910
X59690Y31750
X28575Y34290
X28575Y29845
X13335Y49530
X7620Y51435
X52070Y49530
X45720Y51435
X31115Y29845
X34290Y29845
X31115Y26670
X28575Y26670
X33655Y26670
X38100Y39370
X26035Y38100
X15240Y34290
X14605Y30480
X47625Y31750
X71247Y135255
M30