%TF.GenerationSoftware,KiCad,Pcbnew,8.0.5*%
%TF.CreationDate,2024-12-18T16:51:18-07:00*%
%TF.ProjectId,SparkFun_XRP_Controller_panelized,53706172-6b46-4756-9e5f-5852505f436f,v20*%
%TF.SameCoordinates,Original*%
%TF.FileFunction,Paste,Top*%
%TF.FilePolarity,Positive*%
%FSLAX46Y46*%
G04 Gerber Fmt 4.6, Leading zero omitted, Abs format (unit mm)*
G04 Created by KiCad (PCBNEW 8.0.5) date 2024-12-18 16:51:18*
%MOMM*%
%LPD*%
G01*
G04 APERTURE LIST*
G04 Aperture macros list*
%AMRoundRect*
0 Rectangle with rounded corners*
0 $1 Rounding radius*
0 $2 $3 $4 $5 $6 $7 $8 $9 X,Y pos of 4 corners*
0 Add a 4 corners polygon primitive as box body*
4,1,4,$2,$3,$4,$5,$6,$7,$8,$9,$2,$3,0*
0 Add four circle primitives for the rounded corners*
1,1,$1+$1,$2,$3*
1,1,$1+$1,$4,$5*
1,1,$1+$1,$6,$7*
1,1,$1+$1,$8,$9*
0 Add four rect primitives between the rounded corners*
20,1,$1+$1,$2,$3,$4,$5,0*
20,1,$1+$1,$4,$5,$6,$7,0*
20,1,$1+$1,$6,$7,$8,$9,0*
20,1,$1+$1,$8,$9,$2,$3,0*%
G04 Aperture macros list end*
%ADD10C,0.000000*%
%ADD11RoundRect,0.140000X-0.170000X0.140000X-0.170000X-0.140000X0.170000X-0.140000X0.170000X0.140000X0*%
%ADD12RoundRect,0.135000X-0.135000X-0.185000X0.135000X-0.185000X0.135000X0.185000X-0.135000X0.185000X0*%
%ADD13R,0.660000X0.300000*%
%ADD14R,0.550000X1.200000*%
%ADD15R,0.450000X0.250000*%
%ADD16R,0.250000X0.450000*%
%ADD17R,0.550000X1.600000*%
%ADD18RoundRect,0.140000X0.170000X-0.140000X0.170000X0.140000X-0.170000X0.140000X-0.170000X-0.140000X0*%
%ADD19RoundRect,0.135000X0.135000X0.185000X-0.135000X0.185000X-0.135000X-0.185000X0.135000X-0.185000X0*%
%ADD20RoundRect,0.135000X-0.185000X0.135000X-0.185000X-0.135000X0.185000X-0.135000X0.185000X0.135000X0*%
%ADD21RoundRect,0.250000X-0.475000X0.250000X-0.475000X-0.250000X0.475000X-0.250000X0.475000X0.250000X0*%
%ADD22R,0.300000X0.660000*%
%ADD23R,0.900000X0.800000*%
%ADD24RoundRect,0.140000X-0.140000X-0.170000X0.140000X-0.170000X0.140000X0.170000X-0.140000X0.170000X0*%
%ADD25R,0.800000X0.900000*%
%ADD26RoundRect,0.140000X0.140000X0.170000X-0.140000X0.170000X-0.140000X-0.170000X0.140000X-0.170000X0*%
%ADD27RoundRect,0.250000X0.475000X-0.250000X0.475000X0.250000X-0.475000X0.250000X-0.475000X-0.250000X0*%
%ADD28R,1.000000X0.900000*%
%ADD29R,1.550000X0.600000*%
%ADD30R,2.000000X1.200000*%
%ADD31R,0.700000X1.500000*%
%ADD32R,1.000000X0.600000*%
%ADD33R,1.000000X0.800000*%
%ADD34R,0.850000X0.500000*%
%ADD35RoundRect,0.218750X0.256250X-0.218750X0.256250X0.218750X-0.256250X0.218750X-0.256250X-0.218750X0*%
%ADD36R,0.300000X1.000000*%
%ADD37R,0.600000X1.000000*%
%ADD38O,1.000000X1.600000*%
%ADD39O,1.000000X2.100000*%
%ADD40R,1.850000X3.500000*%
%ADD41R,1.800000X1.200000*%
%ADD42R,1.600000X1.800000*%
%ADD43R,0.700000X0.700000*%
%ADD44RoundRect,0.225000X-0.225000X-0.250000X0.225000X-0.250000X0.225000X0.250000X-0.225000X0.250000X0*%
%ADD45R,2.895600X1.676400*%
%ADD46R,1.200000X1.000000*%
%ADD47RoundRect,0.135000X0.185000X-0.135000X0.185000X0.135000X-0.185000X0.135000X-0.185000X-0.135000X0*%
%ADD48RoundRect,0.218750X-0.218750X-0.256250X0.218750X-0.256250X0.218750X0.256250X-0.218750X0.256250X0*%
%ADD49RoundRect,0.200000X0.550000X-0.300000X0.550000X0.300000X-0.550000X0.300000X-0.550000X-0.300000X0*%
%ADD50RoundRect,0.200000X-0.300000X-0.550000X0.300000X-0.550000X0.300000X0.550000X-0.300000X0.550000X0*%
%ADD51RoundRect,0.218750X0.218750X0.256250X-0.218750X0.256250X-0.218750X-0.256250X0.218750X-0.256250X0*%
G04 APERTURE END LIST*
D10*
%TO.C,U3*%
G36*
X34333000Y12715000D02*
G01*
X34033000Y12715000D01*
X34033000Y12915000D01*
X34333000Y12915000D01*
X34333000Y12715000D01*
G37*
G36*
X34333000Y12215000D02*
G01*
X34033000Y12215000D01*
X34033000Y12415000D01*
X34333000Y12415000D01*
X34333000Y12215000D01*
G37*
G36*
X34333000Y11715000D02*
G01*
X34033000Y11715000D01*
X34033000Y11915000D01*
X34333000Y11915000D01*
X34333000Y11715000D01*
G37*
G36*
X34333000Y11215000D02*
G01*
X34033000Y11215000D01*
X34033000Y11415000D01*
X34333000Y11415000D01*
X34333000Y11215000D01*
G37*
G36*
X35533000Y11465000D02*
G01*
X35333000Y11465000D01*
X35333000Y12665000D01*
X35533000Y12665000D01*
X35533000Y11465000D01*
G37*
G36*
X36833000Y12715000D02*
G01*
X36533000Y12715000D01*
X36533000Y12915000D01*
X36833000Y12915000D01*
X36833000Y12715000D01*
G37*
G36*
X36833000Y12215000D02*
G01*
X36533000Y12215000D01*
X36533000Y12415000D01*
X36833000Y12415000D01*
X36833000Y12215000D01*
G37*
G36*
X36833000Y11715000D02*
G01*
X36533000Y11715000D01*
X36533000Y11915000D01*
X36833000Y11915000D01*
X36833000Y11715000D01*
G37*
G36*
X36833000Y11215000D02*
G01*
X36533000Y11215000D01*
X36533000Y11415000D01*
X36833000Y11415000D01*
X36833000Y11215000D01*
G37*
G36*
X34333000Y67190000D02*
G01*
X34033000Y67190000D01*
X34033000Y67390000D01*
X34333000Y67390000D01*
X34333000Y67190000D01*
G37*
G36*
X34333000Y66690000D02*
G01*
X34033000Y66690000D01*
X34033000Y66890000D01*
X34333000Y66890000D01*
X34333000Y66690000D01*
G37*
G36*
X34333000Y66190000D02*
G01*
X34033000Y66190000D01*
X34033000Y66390000D01*
X34333000Y66390000D01*
X34333000Y66190000D01*
G37*
G36*
X34333000Y65690000D02*
G01*
X34033000Y65690000D01*
X34033000Y65890000D01*
X34333000Y65890000D01*
X34333000Y65690000D01*
G37*
G36*
X35533000Y65940000D02*
G01*
X35333000Y65940000D01*
X35333000Y67140000D01*
X35533000Y67140000D01*
X35533000Y65940000D01*
G37*
G36*
X36833000Y67190000D02*
G01*
X36533000Y67190000D01*
X36533000Y67390000D01*
X36833000Y67390000D01*
X36833000Y67190000D01*
G37*
G36*
X36833000Y66690000D02*
G01*
X36533000Y66690000D01*
X36533000Y66890000D01*
X36833000Y66890000D01*
X36833000Y66690000D01*
G37*
G36*
X36833000Y66190000D02*
G01*
X36533000Y66190000D01*
X36533000Y66390000D01*
X36833000Y66390000D01*
X36833000Y66190000D01*
G37*
G36*
X36833000Y65690000D02*
G01*
X36533000Y65690000D01*
X36533000Y65890000D01*
X36833000Y65890000D01*
X36833000Y65690000D01*
G37*
G36*
X98333000Y67190000D02*
G01*
X98033000Y67190000D01*
X98033000Y67390000D01*
X98333000Y67390000D01*
X98333000Y67190000D01*
G37*
G36*
X98333000Y66690000D02*
G01*
X98033000Y66690000D01*
X98033000Y66890000D01*
X98333000Y66890000D01*
X98333000Y66690000D01*
G37*
G36*
X98333000Y66190000D02*
G01*
X98033000Y66190000D01*
X98033000Y66390000D01*
X98333000Y66390000D01*
X98333000Y66190000D01*
G37*
G36*
X98333000Y65690000D02*
G01*
X98033000Y65690000D01*
X98033000Y65890000D01*
X98333000Y65890000D01*
X98333000Y65690000D01*
G37*
G36*
X99533000Y65940000D02*
G01*
X99333000Y65940000D01*
X99333000Y67140000D01*
X99533000Y67140000D01*
X99533000Y65940000D01*
G37*
G36*
X100833000Y67190000D02*
G01*
X100533000Y67190000D01*
X100533000Y67390000D01*
X100833000Y67390000D01*
X100833000Y67190000D01*
G37*
G36*
X100833000Y66690000D02*
G01*
X100533000Y66690000D01*
X100533000Y66890000D01*
X100833000Y66890000D01*
X100833000Y66690000D01*
G37*
G36*
X100833000Y66190000D02*
G01*
X100533000Y66190000D01*
X100533000Y66390000D01*
X100833000Y66390000D01*
X100833000Y66190000D01*
G37*
G36*
X100833000Y65690000D02*
G01*
X100533000Y65690000D01*
X100533000Y65890000D01*
X100833000Y65890000D01*
X100833000Y65690000D01*
G37*
G36*
X98333000Y121665000D02*
G01*
X98033000Y121665000D01*
X98033000Y121865000D01*
X98333000Y121865000D01*
X98333000Y121665000D01*
G37*
G36*
X98333000Y121165000D02*
G01*
X98033000Y121165000D01*
X98033000Y121365000D01*
X98333000Y121365000D01*
X98333000Y121165000D01*
G37*
G36*
X98333000Y120665000D02*
G01*
X98033000Y120665000D01*
X98033000Y120865000D01*
X98333000Y120865000D01*
X98333000Y120665000D01*
G37*
G36*
X98333000Y120165000D02*
G01*
X98033000Y120165000D01*
X98033000Y120365000D01*
X98333000Y120365000D01*
X98333000Y120165000D01*
G37*
G36*
X99533000Y120415000D02*
G01*
X99333000Y120415000D01*
X99333000Y121615000D01*
X99533000Y121615000D01*
X99533000Y120415000D01*
G37*
G36*
X100833000Y121665000D02*
G01*
X100533000Y121665000D01*
X100533000Y121865000D01*
X100833000Y121865000D01*
X100833000Y121665000D01*
G37*
G36*
X100833000Y121165000D02*
G01*
X100533000Y121165000D01*
X100533000Y121365000D01*
X100833000Y121365000D01*
X100833000Y121165000D01*
G37*
G36*
X100833000Y120665000D02*
G01*
X100533000Y120665000D01*
X100533000Y120865000D01*
X100833000Y120865000D01*
X100833000Y120665000D01*
G37*
G36*
X100833000Y120165000D02*
G01*
X100533000Y120165000D01*
X100533000Y120365000D01*
X100833000Y120365000D01*
X100833000Y120165000D01*
G37*
G36*
X34333000Y121665000D02*
G01*
X34033000Y121665000D01*
X34033000Y121865000D01*
X34333000Y121865000D01*
X34333000Y121665000D01*
G37*
G36*
X34333000Y121165000D02*
G01*
X34033000Y121165000D01*
X34033000Y121365000D01*
X34333000Y121365000D01*
X34333000Y121165000D01*
G37*
G36*
X34333000Y120665000D02*
G01*
X34033000Y120665000D01*
X34033000Y120865000D01*
X34333000Y120865000D01*
X34333000Y120665000D01*
G37*
G36*
X34333000Y120165000D02*
G01*
X34033000Y120165000D01*
X34033000Y120365000D01*
X34333000Y120365000D01*
X34333000Y120165000D01*
G37*
G36*
X35533000Y120415000D02*
G01*
X35333000Y120415000D01*
X35333000Y121615000D01*
X35533000Y121615000D01*
X35533000Y120415000D01*
G37*
G36*
X36833000Y121665000D02*
G01*
X36533000Y121665000D01*
X36533000Y121865000D01*
X36833000Y121865000D01*
X36833000Y121665000D01*
G37*
G36*
X36833000Y121165000D02*
G01*
X36533000Y121165000D01*
X36533000Y121365000D01*
X36833000Y121365000D01*
X36833000Y121165000D01*
G37*
G36*
X36833000Y120665000D02*
G01*
X36533000Y120665000D01*
X36533000Y120865000D01*
X36833000Y120865000D01*
X36833000Y120665000D01*
G37*
G36*
X36833000Y120165000D02*
G01*
X36533000Y120165000D01*
X36533000Y120365000D01*
X36833000Y120365000D01*
X36833000Y120165000D01*
G37*
G36*
X98333000Y12715000D02*
G01*
X98033000Y12715000D01*
X98033000Y12915000D01*
X98333000Y12915000D01*
X98333000Y12715000D01*
G37*
G36*
X98333000Y12215000D02*
G01*
X98033000Y12215000D01*
X98033000Y12415000D01*
X98333000Y12415000D01*
X98333000Y12215000D01*
G37*
G36*
X98333000Y11715000D02*
G01*
X98033000Y11715000D01*
X98033000Y11915000D01*
X98333000Y11915000D01*
X98333000Y11715000D01*
G37*
G36*
X98333000Y11215000D02*
G01*
X98033000Y11215000D01*
X98033000Y11415000D01*
X98333000Y11415000D01*
X98333000Y11215000D01*
G37*
G36*
X99533000Y11465000D02*
G01*
X99333000Y11465000D01*
X99333000Y12665000D01*
X99533000Y12665000D01*
X99533000Y11465000D01*
G37*
G36*
X100833000Y12715000D02*
G01*
X100533000Y12715000D01*
X100533000Y12915000D01*
X100833000Y12915000D01*
X100833000Y12715000D01*
G37*
G36*
X100833000Y12215000D02*
G01*
X100533000Y12215000D01*
X100533000Y12415000D01*
X100833000Y12415000D01*
X100833000Y12215000D01*
G37*
G36*
X100833000Y11715000D02*
G01*
X100533000Y11715000D01*
X100533000Y11915000D01*
X100833000Y11915000D01*
X100833000Y11715000D01*
G37*
G36*
X100833000Y11215000D02*
G01*
X100533000Y11215000D01*
X100533000Y11415000D01*
X100833000Y11415000D01*
X100833000Y11215000D01*
G37*
%TO.C,U2*%
G36*
X35833000Y16110000D02*
G01*
X35033000Y16110000D01*
X35033000Y16910000D01*
X35833000Y16910000D01*
X35833000Y16110000D01*
G37*
G36*
X35833000Y125060000D02*
G01*
X35033000Y125060000D01*
X35033000Y125860000D01*
X35833000Y125860000D01*
X35833000Y125060000D01*
G37*
G36*
X99833000Y70585000D02*
G01*
X99033000Y70585000D01*
X99033000Y71385000D01*
X99833000Y71385000D01*
X99833000Y70585000D01*
G37*
G36*
X99833000Y16110000D02*
G01*
X99033000Y16110000D01*
X99033000Y16910000D01*
X99833000Y16910000D01*
X99833000Y16110000D01*
G37*
G36*
X35833000Y70585000D02*
G01*
X35033000Y70585000D01*
X35033000Y71385000D01*
X35833000Y71385000D01*
X35833000Y70585000D01*
G37*
G36*
X99833000Y125060000D02*
G01*
X99033000Y125060000D01*
X99033000Y125860000D01*
X99833000Y125860000D01*
X99833000Y125060000D01*
G37*
%TO.C,U8*%
G36*
X52900000Y34280000D02*
G01*
X52050000Y34280000D01*
X52050000Y34520000D01*
X52900000Y34520000D01*
X52900000Y34280000D01*
G37*
G36*
X52900000Y33780000D02*
G01*
X52050000Y33780000D01*
X52050000Y34020000D01*
X52900000Y34020000D01*
X52900000Y33780000D01*
G37*
G36*
X52900000Y33280000D02*
G01*
X52050000Y33280000D01*
X52050000Y33520000D01*
X52900000Y33520000D01*
X52900000Y33280000D01*
G37*
G36*
X52900000Y32780000D02*
G01*
X52050000Y32780000D01*
X52050000Y33020000D01*
X52900000Y33020000D01*
X52900000Y32780000D01*
G37*
G36*
X53340000Y34730000D02*
G01*
X53100000Y34730000D01*
X53100000Y35580000D01*
X53340000Y35580000D01*
X53340000Y34730000D01*
G37*
G36*
X53340000Y31730000D02*
G01*
X53100000Y31730000D01*
X53100000Y32580000D01*
X53340000Y32580000D01*
X53340000Y31730000D01*
G37*
G36*
X53675000Y33955000D02*
G01*
X53475000Y33955000D01*
X53475000Y34155000D01*
X53675000Y34155000D01*
X53675000Y33955000D01*
G37*
G36*
X53675000Y33155000D02*
G01*
X53475000Y33155000D01*
X53475000Y33355000D01*
X53675000Y33355000D01*
X53675000Y33155000D01*
G37*
G36*
X53840000Y34730000D02*
G01*
X53600000Y34730000D01*
X53600000Y35580000D01*
X53840000Y35580000D01*
X53840000Y34730000D01*
G37*
G36*
X53840000Y31730000D02*
G01*
X53600000Y31730000D01*
X53600000Y32580000D01*
X53840000Y32580000D01*
X53840000Y31730000D01*
G37*
G36*
X54340000Y34730000D02*
G01*
X54100000Y34730000D01*
X54100000Y35580000D01*
X54340000Y35580000D01*
X54340000Y34730000D01*
G37*
G36*
X54340000Y31730000D02*
G01*
X54100000Y31730000D01*
X54100000Y32580000D01*
X54340000Y32580000D01*
X54340000Y31730000D01*
G37*
G36*
X54475000Y33955000D02*
G01*
X54275000Y33955000D01*
X54275000Y34155000D01*
X54475000Y34155000D01*
X54475000Y33955000D01*
G37*
G36*
X54475000Y33155000D02*
G01*
X54275000Y33155000D01*
X54275000Y33355000D01*
X54475000Y33355000D01*
X54475000Y33155000D01*
G37*
G36*
X54840000Y34730000D02*
G01*
X54600000Y34730000D01*
X54600000Y35580000D01*
X54840000Y35580000D01*
X54840000Y34730000D01*
G37*
G36*
X54840000Y31730000D02*
G01*
X54600000Y31730000D01*
X54600000Y32580000D01*
X54840000Y32580000D01*
X54840000Y31730000D01*
G37*
G36*
X55900000Y34290000D02*
G01*
X55050000Y34290000D01*
X55050000Y34530000D01*
X55900000Y34530000D01*
X55900000Y34290000D01*
G37*
G36*
X55900000Y33790000D02*
G01*
X55050000Y33790000D01*
X55050000Y34030000D01*
X55900000Y34030000D01*
X55900000Y33790000D01*
G37*
G36*
X55900000Y33290000D02*
G01*
X55050000Y33290000D01*
X55050000Y33530000D01*
X55900000Y33530000D01*
X55900000Y33290000D01*
G37*
G36*
X55900000Y32790000D02*
G01*
X55050000Y32790000D01*
X55050000Y33030000D01*
X55900000Y33030000D01*
X55900000Y32790000D01*
G37*
G36*
X116900000Y34280000D02*
G01*
X116050000Y34280000D01*
X116050000Y34520000D01*
X116900000Y34520000D01*
X116900000Y34280000D01*
G37*
G36*
X116900000Y33780000D02*
G01*
X116050000Y33780000D01*
X116050000Y34020000D01*
X116900000Y34020000D01*
X116900000Y33780000D01*
G37*
G36*
X116900000Y33280000D02*
G01*
X116050000Y33280000D01*
X116050000Y33520000D01*
X116900000Y33520000D01*
X116900000Y33280000D01*
G37*
G36*
X116900000Y32780000D02*
G01*
X116050000Y32780000D01*
X116050000Y33020000D01*
X116900000Y33020000D01*
X116900000Y32780000D01*
G37*
G36*
X117340000Y34730000D02*
G01*
X117100000Y34730000D01*
X117100000Y35580000D01*
X117340000Y35580000D01*
X117340000Y34730000D01*
G37*
G36*
X117340000Y31730000D02*
G01*
X117100000Y31730000D01*
X117100000Y32580000D01*
X117340000Y32580000D01*
X117340000Y31730000D01*
G37*
G36*
X117675000Y33955000D02*
G01*
X117475000Y33955000D01*
X117475000Y34155000D01*
X117675000Y34155000D01*
X117675000Y33955000D01*
G37*
G36*
X117675000Y33155000D02*
G01*
X117475000Y33155000D01*
X117475000Y33355000D01*
X117675000Y33355000D01*
X117675000Y33155000D01*
G37*
G36*
X117840000Y34730000D02*
G01*
X117600000Y34730000D01*
X117600000Y35580000D01*
X117840000Y35580000D01*
X117840000Y34730000D01*
G37*
G36*
X117840000Y31730000D02*
G01*
X117600000Y31730000D01*
X117600000Y32580000D01*
X117840000Y32580000D01*
X117840000Y31730000D01*
G37*
G36*
X118340000Y34730000D02*
G01*
X118100000Y34730000D01*
X118100000Y35580000D01*
X118340000Y35580000D01*
X118340000Y34730000D01*
G37*
G36*
X118340000Y31730000D02*
G01*
X118100000Y31730000D01*
X118100000Y32580000D01*
X118340000Y32580000D01*
X118340000Y31730000D01*
G37*
G36*
X118475000Y33955000D02*
G01*
X118275000Y33955000D01*
X118275000Y34155000D01*
X118475000Y34155000D01*
X118475000Y33955000D01*
G37*
G36*
X118475000Y33155000D02*
G01*
X118275000Y33155000D01*
X118275000Y33355000D01*
X118475000Y33355000D01*
X118475000Y33155000D01*
G37*
G36*
X118840000Y34730000D02*
G01*
X118600000Y34730000D01*
X118600000Y35580000D01*
X118840000Y35580000D01*
X118840000Y34730000D01*
G37*
G36*
X118840000Y31730000D02*
G01*
X118600000Y31730000D01*
X118600000Y32580000D01*
X118840000Y32580000D01*
X118840000Y31730000D01*
G37*
G36*
X119900000Y34290000D02*
G01*
X119050000Y34290000D01*
X119050000Y34530000D01*
X119900000Y34530000D01*
X119900000Y34290000D01*
G37*
G36*
X119900000Y33790000D02*
G01*
X119050000Y33790000D01*
X119050000Y34030000D01*
X119900000Y34030000D01*
X119900000Y33790000D01*
G37*
G36*
X119900000Y33290000D02*
G01*
X119050000Y33290000D01*
X119050000Y33530000D01*
X119900000Y33530000D01*
X119900000Y33290000D01*
G37*
G36*
X119900000Y32790000D02*
G01*
X119050000Y32790000D01*
X119050000Y33030000D01*
X119900000Y33030000D01*
X119900000Y32790000D01*
G37*
G36*
X52900000Y88755000D02*
G01*
X52050000Y88755000D01*
X52050000Y88995000D01*
X52900000Y88995000D01*
X52900000Y88755000D01*
G37*
G36*
X52900000Y88255000D02*
G01*
X52050000Y88255000D01*
X52050000Y88495000D01*
X52900000Y88495000D01*
X52900000Y88255000D01*
G37*
G36*
X52900000Y87755000D02*
G01*
X52050000Y87755000D01*
X52050000Y87995000D01*
X52900000Y87995000D01*
X52900000Y87755000D01*
G37*
G36*
X52900000Y87255000D02*
G01*
X52050000Y87255000D01*
X52050000Y87495000D01*
X52900000Y87495000D01*
X52900000Y87255000D01*
G37*
G36*
X53340000Y89205000D02*
G01*
X53100000Y89205000D01*
X53100000Y90055000D01*
X53340000Y90055000D01*
X53340000Y89205000D01*
G37*
G36*
X53340000Y86205000D02*
G01*
X53100000Y86205000D01*
X53100000Y87055000D01*
X53340000Y87055000D01*
X53340000Y86205000D01*
G37*
G36*
X53675000Y88430000D02*
G01*
X53475000Y88430000D01*
X53475000Y88630000D01*
X53675000Y88630000D01*
X53675000Y88430000D01*
G37*
G36*
X53675000Y87630000D02*
G01*
X53475000Y87630000D01*
X53475000Y87830000D01*
X53675000Y87830000D01*
X53675000Y87630000D01*
G37*
G36*
X53840000Y89205000D02*
G01*
X53600000Y89205000D01*
X53600000Y90055000D01*
X53840000Y90055000D01*
X53840000Y89205000D01*
G37*
G36*
X53840000Y86205000D02*
G01*
X53600000Y86205000D01*
X53600000Y87055000D01*
X53840000Y87055000D01*
X53840000Y86205000D01*
G37*
G36*
X54340000Y89205000D02*
G01*
X54100000Y89205000D01*
X54100000Y90055000D01*
X54340000Y90055000D01*
X54340000Y89205000D01*
G37*
G36*
X54340000Y86205000D02*
G01*
X54100000Y86205000D01*
X54100000Y87055000D01*
X54340000Y87055000D01*
X54340000Y86205000D01*
G37*
G36*
X54475000Y88430000D02*
G01*
X54275000Y88430000D01*
X54275000Y88630000D01*
X54475000Y88630000D01*
X54475000Y88430000D01*
G37*
G36*
X54475000Y87630000D02*
G01*
X54275000Y87630000D01*
X54275000Y87830000D01*
X54475000Y87830000D01*
X54475000Y87630000D01*
G37*
G36*
X54840000Y89205000D02*
G01*
X54600000Y89205000D01*
X54600000Y90055000D01*
X54840000Y90055000D01*
X54840000Y89205000D01*
G37*
G36*
X54840000Y86205000D02*
G01*
X54600000Y86205000D01*
X54600000Y87055000D01*
X54840000Y87055000D01*
X54840000Y86205000D01*
G37*
G36*
X55900000Y88765000D02*
G01*
X55050000Y88765000D01*
X55050000Y89005000D01*
X55900000Y89005000D01*
X55900000Y88765000D01*
G37*
G36*
X55900000Y88265000D02*
G01*
X55050000Y88265000D01*
X55050000Y88505000D01*
X55900000Y88505000D01*
X55900000Y88265000D01*
G37*
G36*
X55900000Y87765000D02*
G01*
X55050000Y87765000D01*
X55050000Y88005000D01*
X55900000Y88005000D01*
X55900000Y87765000D01*
G37*
G36*
X55900000Y87265000D02*
G01*
X55050000Y87265000D01*
X55050000Y87505000D01*
X55900000Y87505000D01*
X55900000Y87265000D01*
G37*
G36*
X52900000Y143230000D02*
G01*
X52050000Y143230000D01*
X52050000Y143470000D01*
X52900000Y143470000D01*
X52900000Y143230000D01*
G37*
G36*
X52900000Y142730000D02*
G01*
X52050000Y142730000D01*
X52050000Y142970000D01*
X52900000Y142970000D01*
X52900000Y142730000D01*
G37*
G36*
X52900000Y142230000D02*
G01*
X52050000Y142230000D01*
X52050000Y142470000D01*
X52900000Y142470000D01*
X52900000Y142230000D01*
G37*
G36*
X52900000Y141730000D02*
G01*
X52050000Y141730000D01*
X52050000Y141970000D01*
X52900000Y141970000D01*
X52900000Y141730000D01*
G37*
G36*
X53340000Y143680000D02*
G01*
X53100000Y143680000D01*
X53100000Y144530000D01*
X53340000Y144530000D01*
X53340000Y143680000D01*
G37*
G36*
X53340000Y140680000D02*
G01*
X53100000Y140680000D01*
X53100000Y141530000D01*
X53340000Y141530000D01*
X53340000Y140680000D01*
G37*
G36*
X53675000Y142905000D02*
G01*
X53475000Y142905000D01*
X53475000Y143105000D01*
X53675000Y143105000D01*
X53675000Y142905000D01*
G37*
G36*
X53675000Y142105000D02*
G01*
X53475000Y142105000D01*
X53475000Y142305000D01*
X53675000Y142305000D01*
X53675000Y142105000D01*
G37*
G36*
X53840000Y143680000D02*
G01*
X53600000Y143680000D01*
X53600000Y144530000D01*
X53840000Y144530000D01*
X53840000Y143680000D01*
G37*
G36*
X53840000Y140680000D02*
G01*
X53600000Y140680000D01*
X53600000Y141530000D01*
X53840000Y141530000D01*
X53840000Y140680000D01*
G37*
G36*
X54340000Y143680000D02*
G01*
X54100000Y143680000D01*
X54100000Y144530000D01*
X54340000Y144530000D01*
X54340000Y143680000D01*
G37*
G36*
X54340000Y140680000D02*
G01*
X54100000Y140680000D01*
X54100000Y141530000D01*
X54340000Y141530000D01*
X54340000Y140680000D01*
G37*
G36*
X54475000Y142905000D02*
G01*
X54275000Y142905000D01*
X54275000Y143105000D01*
X54475000Y143105000D01*
X54475000Y142905000D01*
G37*
G36*
X54475000Y142105000D02*
G01*
X54275000Y142105000D01*
X54275000Y142305000D01*
X54475000Y142305000D01*
X54475000Y142105000D01*
G37*
G36*
X54840000Y143680000D02*
G01*
X54600000Y143680000D01*
X54600000Y144530000D01*
X54840000Y144530000D01*
X54840000Y143680000D01*
G37*
G36*
X54840000Y140680000D02*
G01*
X54600000Y140680000D01*
X54600000Y141530000D01*
X54840000Y141530000D01*
X54840000Y140680000D01*
G37*
G36*
X55900000Y143240000D02*
G01*
X55050000Y143240000D01*
X55050000Y143480000D01*
X55900000Y143480000D01*
X55900000Y143240000D01*
G37*
G36*
X55900000Y142740000D02*
G01*
X55050000Y142740000D01*
X55050000Y142980000D01*
X55900000Y142980000D01*
X55900000Y142740000D01*
G37*
G36*
X55900000Y142240000D02*
G01*
X55050000Y142240000D01*
X55050000Y142480000D01*
X55900000Y142480000D01*
X55900000Y142240000D01*
G37*
G36*
X55900000Y141740000D02*
G01*
X55050000Y141740000D01*
X55050000Y141980000D01*
X55900000Y141980000D01*
X55900000Y141740000D01*
G37*
G36*
X116900000Y88755000D02*
G01*
X116050000Y88755000D01*
X116050000Y88995000D01*
X116900000Y88995000D01*
X116900000Y88755000D01*
G37*
G36*
X116900000Y88255000D02*
G01*
X116050000Y88255000D01*
X116050000Y88495000D01*
X116900000Y88495000D01*
X116900000Y88255000D01*
G37*
G36*
X116900000Y87755000D02*
G01*
X116050000Y87755000D01*
X116050000Y87995000D01*
X116900000Y87995000D01*
X116900000Y87755000D01*
G37*
G36*
X116900000Y87255000D02*
G01*
X116050000Y87255000D01*
X116050000Y87495000D01*
X116900000Y87495000D01*
X116900000Y87255000D01*
G37*
G36*
X117340000Y89205000D02*
G01*
X117100000Y89205000D01*
X117100000Y90055000D01*
X117340000Y90055000D01*
X117340000Y89205000D01*
G37*
G36*
X117340000Y86205000D02*
G01*
X117100000Y86205000D01*
X117100000Y87055000D01*
X117340000Y87055000D01*
X117340000Y86205000D01*
G37*
G36*
X117675000Y88430000D02*
G01*
X117475000Y88430000D01*
X117475000Y88630000D01*
X117675000Y88630000D01*
X117675000Y88430000D01*
G37*
G36*
X117675000Y87630000D02*
G01*
X117475000Y87630000D01*
X117475000Y87830000D01*
X117675000Y87830000D01*
X117675000Y87630000D01*
G37*
G36*
X117840000Y89205000D02*
G01*
X117600000Y89205000D01*
X117600000Y90055000D01*
X117840000Y90055000D01*
X117840000Y89205000D01*
G37*
G36*
X117840000Y86205000D02*
G01*
X117600000Y86205000D01*
X117600000Y87055000D01*
X117840000Y87055000D01*
X117840000Y86205000D01*
G37*
G36*
X118340000Y89205000D02*
G01*
X118100000Y89205000D01*
X118100000Y90055000D01*
X118340000Y90055000D01*
X118340000Y89205000D01*
G37*
G36*
X118340000Y86205000D02*
G01*
X118100000Y86205000D01*
X118100000Y87055000D01*
X118340000Y87055000D01*
X118340000Y86205000D01*
G37*
G36*
X118475000Y88430000D02*
G01*
X118275000Y88430000D01*
X118275000Y88630000D01*
X118475000Y88630000D01*
X118475000Y88430000D01*
G37*
G36*
X118475000Y87630000D02*
G01*
X118275000Y87630000D01*
X118275000Y87830000D01*
X118475000Y87830000D01*
X118475000Y87630000D01*
G37*
G36*
X118840000Y89205000D02*
G01*
X118600000Y89205000D01*
X118600000Y90055000D01*
X118840000Y90055000D01*
X118840000Y89205000D01*
G37*
G36*
X118840000Y86205000D02*
G01*
X118600000Y86205000D01*
X118600000Y87055000D01*
X118840000Y87055000D01*
X118840000Y86205000D01*
G37*
G36*
X119900000Y88765000D02*
G01*
X119050000Y88765000D01*
X119050000Y89005000D01*
X119900000Y89005000D01*
X119900000Y88765000D01*
G37*
G36*
X119900000Y88265000D02*
G01*
X119050000Y88265000D01*
X119050000Y88505000D01*
X119900000Y88505000D01*
X119900000Y88265000D01*
G37*
G36*
X119900000Y87765000D02*
G01*
X119050000Y87765000D01*
X119050000Y88005000D01*
X119900000Y88005000D01*
X119900000Y87765000D01*
G37*
G36*
X119900000Y87265000D02*
G01*
X119050000Y87265000D01*
X119050000Y87505000D01*
X119900000Y87505000D01*
X119900000Y87265000D01*
G37*
G36*
X116900000Y143230000D02*
G01*
X116050000Y143230000D01*
X116050000Y143470000D01*
X116900000Y143470000D01*
X116900000Y143230000D01*
G37*
G36*
X116900000Y142730000D02*
G01*
X116050000Y142730000D01*
X116050000Y142970000D01*
X116900000Y142970000D01*
X116900000Y142730000D01*
G37*
G36*
X116900000Y142230000D02*
G01*
X116050000Y142230000D01*
X116050000Y142470000D01*
X116900000Y142470000D01*
X116900000Y142230000D01*
G37*
G36*
X116900000Y141730000D02*
G01*
X116050000Y141730000D01*
X116050000Y141970000D01*
X116900000Y141970000D01*
X116900000Y141730000D01*
G37*
G36*
X117340000Y143680000D02*
G01*
X117100000Y143680000D01*
X117100000Y144530000D01*
X117340000Y144530000D01*
X117340000Y143680000D01*
G37*
G36*
X117340000Y140680000D02*
G01*
X117100000Y140680000D01*
X117100000Y141530000D01*
X117340000Y141530000D01*
X117340000Y140680000D01*
G37*
G36*
X117675000Y142905000D02*
G01*
X117475000Y142905000D01*
X117475000Y143105000D01*
X117675000Y143105000D01*
X117675000Y142905000D01*
G37*
G36*
X117675000Y142105000D02*
G01*
X117475000Y142105000D01*
X117475000Y142305000D01*
X117675000Y142305000D01*
X117675000Y142105000D01*
G37*
G36*
X117840000Y143680000D02*
G01*
X117600000Y143680000D01*
X117600000Y144530000D01*
X117840000Y144530000D01*
X117840000Y143680000D01*
G37*
G36*
X117840000Y140680000D02*
G01*
X117600000Y140680000D01*
X117600000Y141530000D01*
X117840000Y141530000D01*
X117840000Y140680000D01*
G37*
G36*
X118340000Y143680000D02*
G01*
X118100000Y143680000D01*
X118100000Y144530000D01*
X118340000Y144530000D01*
X118340000Y143680000D01*
G37*
G36*
X118340000Y140680000D02*
G01*
X118100000Y140680000D01*
X118100000Y141530000D01*
X118340000Y141530000D01*
X118340000Y140680000D01*
G37*
G36*
X118475000Y142905000D02*
G01*
X118275000Y142905000D01*
X118275000Y143105000D01*
X118475000Y143105000D01*
X118475000Y142905000D01*
G37*
G36*
X118475000Y142105000D02*
G01*
X118275000Y142105000D01*
X118275000Y142305000D01*
X118475000Y142305000D01*
X118475000Y142105000D01*
G37*
G36*
X118840000Y143680000D02*
G01*
X118600000Y143680000D01*
X118600000Y144530000D01*
X118840000Y144530000D01*
X118840000Y143680000D01*
G37*
G36*
X118840000Y140680000D02*
G01*
X118600000Y140680000D01*
X118600000Y141530000D01*
X118840000Y141530000D01*
X118840000Y140680000D01*
G37*
G36*
X119900000Y143240000D02*
G01*
X119050000Y143240000D01*
X119050000Y143480000D01*
X119900000Y143480000D01*
X119900000Y143240000D01*
G37*
G36*
X119900000Y142740000D02*
G01*
X119050000Y142740000D01*
X119050000Y142980000D01*
X119900000Y142980000D01*
X119900000Y142740000D01*
G37*
G36*
X119900000Y142240000D02*
G01*
X119050000Y142240000D01*
X119050000Y142480000D01*
X119900000Y142480000D01*
X119900000Y142240000D01*
G37*
G36*
X119900000Y141740000D02*
G01*
X119050000Y141740000D01*
X119050000Y141980000D01*
X119900000Y141980000D01*
X119900000Y141740000D01*
G37*
%TO.C,U1*%
G36*
X28050000Y30000000D02*
G01*
X27850000Y30000000D01*
X27850000Y30650000D01*
X28050000Y30650000D01*
X28050000Y30000000D01*
G37*
G36*
X28050000Y20175000D02*
G01*
X27850000Y20175000D01*
X27850000Y20825000D01*
X28050000Y20825000D01*
X28050000Y20175000D01*
G37*
G36*
X28450000Y30000000D02*
G01*
X28250000Y30000000D01*
X28250000Y30650000D01*
X28450000Y30650000D01*
X28450000Y30000000D01*
G37*
G36*
X28450000Y20175000D02*
G01*
X28250000Y20175000D01*
X28250000Y20825000D01*
X28450000Y20825000D01*
X28450000Y20175000D01*
G37*
G36*
X28850000Y30000000D02*
G01*
X28650000Y30000000D01*
X28650000Y30650000D01*
X28850000Y30650000D01*
X28850000Y30000000D01*
G37*
G36*
X28850000Y20175000D02*
G01*
X28650000Y20175000D01*
X28650000Y20825000D01*
X28850000Y20825000D01*
X28850000Y20175000D01*
G37*
G36*
X29250000Y30000000D02*
G01*
X29050000Y30000000D01*
X29050000Y30650000D01*
X29250000Y30650000D01*
X29250000Y30000000D01*
G37*
G36*
X29250000Y20175000D02*
G01*
X29050000Y20175000D01*
X29050000Y20825000D01*
X29250000Y20825000D01*
X29250000Y20175000D01*
G37*
G36*
X29650000Y30000000D02*
G01*
X29450000Y30000000D01*
X29450000Y30650000D01*
X29650000Y30650000D01*
X29650000Y30000000D01*
G37*
G36*
X29650000Y20175000D02*
G01*
X29450000Y20175000D01*
X29450000Y20825000D01*
X29650000Y20825000D01*
X29650000Y20175000D01*
G37*
G36*
X30050000Y30000000D02*
G01*
X29850000Y30000000D01*
X29850000Y30650000D01*
X30050000Y30650000D01*
X30050000Y30000000D01*
G37*
G36*
X30050000Y20175000D02*
G01*
X29850000Y20175000D01*
X29850000Y20825000D01*
X30050000Y20825000D01*
X30050000Y20175000D01*
G37*
G36*
X30450000Y30000000D02*
G01*
X30250000Y30000000D01*
X30250000Y30650000D01*
X30450000Y30650000D01*
X30450000Y30000000D01*
G37*
G36*
X30450000Y20175000D02*
G01*
X30250000Y20175000D01*
X30250000Y20825000D01*
X30450000Y20825000D01*
X30450000Y20175000D01*
G37*
G36*
X30850000Y30000000D02*
G01*
X30650000Y30000000D01*
X30650000Y30650000D01*
X30850000Y30650000D01*
X30850000Y30000000D01*
G37*
G36*
X30850000Y20175000D02*
G01*
X30650000Y20175000D01*
X30650000Y20825000D01*
X30850000Y20825000D01*
X30850000Y20175000D01*
G37*
G36*
X31250000Y30000000D02*
G01*
X31050000Y30000000D01*
X31050000Y30650000D01*
X31250000Y30650000D01*
X31250000Y30000000D01*
G37*
G36*
X31250000Y20175000D02*
G01*
X31050000Y20175000D01*
X31050000Y20825000D01*
X31250000Y20825000D01*
X31250000Y20175000D01*
G37*
G36*
X31650000Y30000000D02*
G01*
X31450000Y30000000D01*
X31450000Y30650000D01*
X31650000Y30650000D01*
X31650000Y30000000D01*
G37*
G36*
X31650000Y20175000D02*
G01*
X31450000Y20175000D01*
X31450000Y20825000D01*
X31650000Y20825000D01*
X31650000Y20175000D01*
G37*
G36*
X32050000Y30000000D02*
G01*
X31850000Y30000000D01*
X31850000Y30650000D01*
X32050000Y30650000D01*
X32050000Y30000000D01*
G37*
G36*
X32050000Y20175000D02*
G01*
X31850000Y20175000D01*
X31850000Y20825000D01*
X32050000Y20825000D01*
X32050000Y20175000D01*
G37*
G36*
X32450000Y30000000D02*
G01*
X32250000Y30000000D01*
X32250000Y30650000D01*
X32450000Y30650000D01*
X32450000Y30000000D01*
G37*
G36*
X32450000Y20175000D02*
G01*
X32250000Y20175000D01*
X32250000Y20825000D01*
X32450000Y20825000D01*
X32450000Y20175000D01*
G37*
G36*
X32850000Y30000000D02*
G01*
X32650000Y30000000D01*
X32650000Y30650000D01*
X32850000Y30650000D01*
X32850000Y30000000D01*
G37*
G36*
X32850000Y20175000D02*
G01*
X32650000Y20175000D01*
X32650000Y20825000D01*
X32850000Y20825000D01*
X32850000Y20175000D01*
G37*
G36*
X33250000Y30000000D02*
G01*
X33050000Y30000000D01*
X33050000Y30650000D01*
X33250000Y30650000D01*
X33250000Y30000000D01*
G37*
G36*
X33250000Y20175000D02*
G01*
X33050000Y20175000D01*
X33050000Y20825000D01*
X33250000Y20825000D01*
X33250000Y20175000D01*
G37*
G36*
X33650000Y30000000D02*
G01*
X33450000Y30000000D01*
X33450000Y30650000D01*
X33650000Y30650000D01*
X33650000Y30000000D01*
G37*
G36*
X33650000Y20175000D02*
G01*
X33450000Y20175000D01*
X33450000Y20825000D01*
X33650000Y20825000D01*
X33650000Y20175000D01*
G37*
G36*
X34050000Y30000000D02*
G01*
X33850000Y30000000D01*
X33850000Y30650000D01*
X34050000Y30650000D01*
X34050000Y30000000D01*
G37*
G36*
X34050000Y20175000D02*
G01*
X33850000Y20175000D01*
X33850000Y20825000D01*
X34050000Y20825000D01*
X34050000Y20175000D01*
G37*
G36*
X34450000Y30000000D02*
G01*
X34250000Y30000000D01*
X34250000Y30650000D01*
X34450000Y30650000D01*
X34450000Y30000000D01*
G37*
G36*
X34450000Y20175000D02*
G01*
X34250000Y20175000D01*
X34250000Y20825000D01*
X34450000Y20825000D01*
X34450000Y20175000D01*
G37*
G36*
X34850000Y30000000D02*
G01*
X34650000Y30000000D01*
X34650000Y30650000D01*
X34850000Y30650000D01*
X34850000Y30000000D01*
G37*
G36*
X34850000Y20175000D02*
G01*
X34650000Y20175000D01*
X34650000Y20825000D01*
X34850000Y20825000D01*
X34850000Y20175000D01*
G37*
G36*
X35250000Y30000000D02*
G01*
X35050000Y30000000D01*
X35050000Y30650000D01*
X35250000Y30650000D01*
X35250000Y30000000D01*
G37*
G36*
X35250000Y20175000D02*
G01*
X35050000Y20175000D01*
X35050000Y20825000D01*
X35250000Y20825000D01*
X35250000Y20175000D01*
G37*
G36*
X35650000Y30000000D02*
G01*
X35450000Y30000000D01*
X35450000Y30650000D01*
X35650000Y30650000D01*
X35650000Y30000000D01*
G37*
G36*
X35650000Y20175000D02*
G01*
X35450000Y20175000D01*
X35450000Y20825000D01*
X35650000Y20825000D01*
X35650000Y20175000D01*
G37*
G36*
X27175000Y29100000D02*
G01*
X26525000Y29100000D01*
X26525000Y29300000D01*
X27175000Y29300000D01*
X27175000Y29100000D01*
G37*
G36*
X27175000Y28700000D02*
G01*
X26525000Y28700000D01*
X26525000Y28900000D01*
X27175000Y28900000D01*
X27175000Y28700000D01*
G37*
G36*
X27175000Y28300000D02*
G01*
X26525000Y28300000D01*
X26525000Y28500000D01*
X27175000Y28500000D01*
X27175000Y28300000D01*
G37*
G36*
X27175000Y27900000D02*
G01*
X26525000Y27900000D01*
X26525000Y28100000D01*
X27175000Y28100000D01*
X27175000Y27900000D01*
G37*
G36*
X27175000Y27500000D02*
G01*
X26525000Y27500000D01*
X26525000Y27700000D01*
X27175000Y27700000D01*
X27175000Y27500000D01*
G37*
G36*
X27175000Y27100000D02*
G01*
X26525000Y27100000D01*
X26525000Y27300000D01*
X27175000Y27300000D01*
X27175000Y27100000D01*
G37*
G36*
X27175000Y26700000D02*
G01*
X26525000Y26700000D01*
X26525000Y26900000D01*
X27175000Y26900000D01*
X27175000Y26700000D01*
G37*
G36*
X27175000Y26300000D02*
G01*
X26525000Y26300000D01*
X26525000Y26500000D01*
X27175000Y26500000D01*
X27175000Y26300000D01*
G37*
G36*
X27175000Y25900000D02*
G01*
X26525000Y25900000D01*
X26525000Y26100000D01*
X27175000Y26100000D01*
X27175000Y25900000D01*
G37*
G36*
X27175000Y25500000D02*
G01*
X26525000Y25500000D01*
X26525000Y25700000D01*
X27175000Y25700000D01*
X27175000Y25500000D01*
G37*
G36*
X27175000Y25100000D02*
G01*
X26525000Y25100000D01*
X26525000Y25300000D01*
X27175000Y25300000D01*
X27175000Y25100000D01*
G37*
G36*
X27175000Y24700000D02*
G01*
X26525000Y24700000D01*
X26525000Y24900000D01*
X27175000Y24900000D01*
X27175000Y24700000D01*
G37*
G36*
X27175000Y24300000D02*
G01*
X26525000Y24300000D01*
X26525000Y24500000D01*
X27175000Y24500000D01*
X27175000Y24300000D01*
G37*
G36*
X27175000Y23900000D02*
G01*
X26525000Y23900000D01*
X26525000Y24100000D01*
X27175000Y24100000D01*
X27175000Y23900000D01*
G37*
G36*
X27175000Y23500000D02*
G01*
X26525000Y23500000D01*
X26525000Y23700000D01*
X27175000Y23700000D01*
X27175000Y23500000D01*
G37*
G36*
X27175000Y23100000D02*
G01*
X26525000Y23100000D01*
X26525000Y23300000D01*
X27175000Y23300000D01*
X27175000Y23100000D01*
G37*
G36*
X27175000Y22700000D02*
G01*
X26525000Y22700000D01*
X26525000Y22900000D01*
X27175000Y22900000D01*
X27175000Y22700000D01*
G37*
G36*
X27175000Y22300000D02*
G01*
X26525000Y22300000D01*
X26525000Y22500000D01*
X27175000Y22500000D01*
X27175000Y22300000D01*
G37*
G36*
X27175000Y21900000D02*
G01*
X26525000Y21900000D01*
X26525000Y22100000D01*
X27175000Y22100000D01*
X27175000Y21900000D01*
G37*
G36*
X27175000Y21500000D02*
G01*
X26525000Y21500000D01*
X26525000Y21700000D01*
X27175000Y21700000D01*
X27175000Y21500000D01*
G37*
G36*
X31350000Y25800000D02*
G01*
X30750000Y25800000D01*
X30750000Y26400000D01*
X31350000Y26400000D01*
X31350000Y25800000D01*
G37*
G36*
X31350000Y24400000D02*
G01*
X30750000Y24400000D01*
X30750000Y25000000D01*
X31350000Y25000000D01*
X31350000Y24400000D01*
G37*
G36*
X32750000Y25800000D02*
G01*
X32150000Y25800000D01*
X32150000Y26400000D01*
X32750000Y26400000D01*
X32750000Y25800000D01*
G37*
G36*
X32750000Y24400000D02*
G01*
X32150000Y24400000D01*
X32150000Y25000000D01*
X32750000Y25000000D01*
X32750000Y24400000D01*
G37*
G36*
X36975000Y29100000D02*
G01*
X36325000Y29100000D01*
X36325000Y29300000D01*
X36975000Y29300000D01*
X36975000Y29100000D01*
G37*
G36*
X36975000Y28700000D02*
G01*
X36325000Y28700000D01*
X36325000Y28900000D01*
X36975000Y28900000D01*
X36975000Y28700000D01*
G37*
G36*
X36975000Y28300000D02*
G01*
X36325000Y28300000D01*
X36325000Y28500000D01*
X36975000Y28500000D01*
X36975000Y28300000D01*
G37*
G36*
X36975000Y27900000D02*
G01*
X36325000Y27900000D01*
X36325000Y28100000D01*
X36975000Y28100000D01*
X36975000Y27900000D01*
G37*
G36*
X36975000Y27500000D02*
G01*
X36325000Y27500000D01*
X36325000Y27700000D01*
X36975000Y27700000D01*
X36975000Y27500000D01*
G37*
G36*
X36975000Y27100000D02*
G01*
X36325000Y27100000D01*
X36325000Y27300000D01*
X36975000Y27300000D01*
X36975000Y27100000D01*
G37*
G36*
X36975000Y26700000D02*
G01*
X36325000Y26700000D01*
X36325000Y26900000D01*
X36975000Y26900000D01*
X36975000Y26700000D01*
G37*
G36*
X36975000Y26300000D02*
G01*
X36325000Y26300000D01*
X36325000Y26500000D01*
X36975000Y26500000D01*
X36975000Y26300000D01*
G37*
G36*
X36975000Y25900000D02*
G01*
X36325000Y25900000D01*
X36325000Y26100000D01*
X36975000Y26100000D01*
X36975000Y25900000D01*
G37*
G36*
X36975000Y25500000D02*
G01*
X36325000Y25500000D01*
X36325000Y25700000D01*
X36975000Y25700000D01*
X36975000Y25500000D01*
G37*
G36*
X36975000Y25100000D02*
G01*
X36325000Y25100000D01*
X36325000Y25300000D01*
X36975000Y25300000D01*
X36975000Y25100000D01*
G37*
G36*
X36975000Y24700000D02*
G01*
X36325000Y24700000D01*
X36325000Y24900000D01*
X36975000Y24900000D01*
X36975000Y24700000D01*
G37*
G36*
X36975000Y24300000D02*
G01*
X36325000Y24300000D01*
X36325000Y24500000D01*
X36975000Y24500000D01*
X36975000Y24300000D01*
G37*
G36*
X36975000Y23900000D02*
G01*
X36325000Y23900000D01*
X36325000Y24100000D01*
X36975000Y24100000D01*
X36975000Y23900000D01*
G37*
G36*
X36975000Y23500000D02*
G01*
X36325000Y23500000D01*
X36325000Y23700000D01*
X36975000Y23700000D01*
X36975000Y23500000D01*
G37*
G36*
X36975000Y23100000D02*
G01*
X36325000Y23100000D01*
X36325000Y23300000D01*
X36975000Y23300000D01*
X36975000Y23100000D01*
G37*
G36*
X36975000Y22700000D02*
G01*
X36325000Y22700000D01*
X36325000Y22900000D01*
X36975000Y22900000D01*
X36975000Y22700000D01*
G37*
G36*
X36975000Y22300000D02*
G01*
X36325000Y22300000D01*
X36325000Y22500000D01*
X36975000Y22500000D01*
X36975000Y22300000D01*
G37*
G36*
X36975000Y21900000D02*
G01*
X36325000Y21900000D01*
X36325000Y22100000D01*
X36975000Y22100000D01*
X36975000Y21900000D01*
G37*
G36*
X36975000Y21500000D02*
G01*
X36325000Y21500000D01*
X36325000Y21700000D01*
X36975000Y21700000D01*
X36975000Y21500000D01*
G37*
G36*
X28050000Y138950000D02*
G01*
X27850000Y138950000D01*
X27850000Y139600000D01*
X28050000Y139600000D01*
X28050000Y138950000D01*
G37*
G36*
X28050000Y129125000D02*
G01*
X27850000Y129125000D01*
X27850000Y129775000D01*
X28050000Y129775000D01*
X28050000Y129125000D01*
G37*
G36*
X28450000Y138950000D02*
G01*
X28250000Y138950000D01*
X28250000Y139600000D01*
X28450000Y139600000D01*
X28450000Y138950000D01*
G37*
G36*
X28450000Y129125000D02*
G01*
X28250000Y129125000D01*
X28250000Y129775000D01*
X28450000Y129775000D01*
X28450000Y129125000D01*
G37*
G36*
X28850000Y138950000D02*
G01*
X28650000Y138950000D01*
X28650000Y139600000D01*
X28850000Y139600000D01*
X28850000Y138950000D01*
G37*
G36*
X28850000Y129125000D02*
G01*
X28650000Y129125000D01*
X28650000Y129775000D01*
X28850000Y129775000D01*
X28850000Y129125000D01*
G37*
G36*
X29250000Y138950000D02*
G01*
X29050000Y138950000D01*
X29050000Y139600000D01*
X29250000Y139600000D01*
X29250000Y138950000D01*
G37*
G36*
X29250000Y129125000D02*
G01*
X29050000Y129125000D01*
X29050000Y129775000D01*
X29250000Y129775000D01*
X29250000Y129125000D01*
G37*
G36*
X29650000Y138950000D02*
G01*
X29450000Y138950000D01*
X29450000Y139600000D01*
X29650000Y139600000D01*
X29650000Y138950000D01*
G37*
G36*
X29650000Y129125000D02*
G01*
X29450000Y129125000D01*
X29450000Y129775000D01*
X29650000Y129775000D01*
X29650000Y129125000D01*
G37*
G36*
X30050000Y138950000D02*
G01*
X29850000Y138950000D01*
X29850000Y139600000D01*
X30050000Y139600000D01*
X30050000Y138950000D01*
G37*
G36*
X30050000Y129125000D02*
G01*
X29850000Y129125000D01*
X29850000Y129775000D01*
X30050000Y129775000D01*
X30050000Y129125000D01*
G37*
G36*
X30450000Y138950000D02*
G01*
X30250000Y138950000D01*
X30250000Y139600000D01*
X30450000Y139600000D01*
X30450000Y138950000D01*
G37*
G36*
X30450000Y129125000D02*
G01*
X30250000Y129125000D01*
X30250000Y129775000D01*
X30450000Y129775000D01*
X30450000Y129125000D01*
G37*
G36*
X30850000Y138950000D02*
G01*
X30650000Y138950000D01*
X30650000Y139600000D01*
X30850000Y139600000D01*
X30850000Y138950000D01*
G37*
G36*
X30850000Y129125000D02*
G01*
X30650000Y129125000D01*
X30650000Y129775000D01*
X30850000Y129775000D01*
X30850000Y129125000D01*
G37*
G36*
X31250000Y138950000D02*
G01*
X31050000Y138950000D01*
X31050000Y139600000D01*
X31250000Y139600000D01*
X31250000Y138950000D01*
G37*
G36*
X31250000Y129125000D02*
G01*
X31050000Y129125000D01*
X31050000Y129775000D01*
X31250000Y129775000D01*
X31250000Y129125000D01*
G37*
G36*
X31650000Y138950000D02*
G01*
X31450000Y138950000D01*
X31450000Y139600000D01*
X31650000Y139600000D01*
X31650000Y138950000D01*
G37*
G36*
X31650000Y129125000D02*
G01*
X31450000Y129125000D01*
X31450000Y129775000D01*
X31650000Y129775000D01*
X31650000Y129125000D01*
G37*
G36*
X32050000Y138950000D02*
G01*
X31850000Y138950000D01*
X31850000Y139600000D01*
X32050000Y139600000D01*
X32050000Y138950000D01*
G37*
G36*
X32050000Y129125000D02*
G01*
X31850000Y129125000D01*
X31850000Y129775000D01*
X32050000Y129775000D01*
X32050000Y129125000D01*
G37*
G36*
X32450000Y138950000D02*
G01*
X32250000Y138950000D01*
X32250000Y139600000D01*
X32450000Y139600000D01*
X32450000Y138950000D01*
G37*
G36*
X32450000Y129125000D02*
G01*
X32250000Y129125000D01*
X32250000Y129775000D01*
X32450000Y129775000D01*
X32450000Y129125000D01*
G37*
G36*
X32850000Y138950000D02*
G01*
X32650000Y138950000D01*
X32650000Y139600000D01*
X32850000Y139600000D01*
X32850000Y138950000D01*
G37*
G36*
X32850000Y129125000D02*
G01*
X32650000Y129125000D01*
X32650000Y129775000D01*
X32850000Y129775000D01*
X32850000Y129125000D01*
G37*
G36*
X33250000Y138950000D02*
G01*
X33050000Y138950000D01*
X33050000Y139600000D01*
X33250000Y139600000D01*
X33250000Y138950000D01*
G37*
G36*
X33250000Y129125000D02*
G01*
X33050000Y129125000D01*
X33050000Y129775000D01*
X33250000Y129775000D01*
X33250000Y129125000D01*
G37*
G36*
X33650000Y138950000D02*
G01*
X33450000Y138950000D01*
X33450000Y139600000D01*
X33650000Y139600000D01*
X33650000Y138950000D01*
G37*
G36*
X33650000Y129125000D02*
G01*
X33450000Y129125000D01*
X33450000Y129775000D01*
X33650000Y129775000D01*
X33650000Y129125000D01*
G37*
G36*
X34050000Y138950000D02*
G01*
X33850000Y138950000D01*
X33850000Y139600000D01*
X34050000Y139600000D01*
X34050000Y138950000D01*
G37*
G36*
X34050000Y129125000D02*
G01*
X33850000Y129125000D01*
X33850000Y129775000D01*
X34050000Y129775000D01*
X34050000Y129125000D01*
G37*
G36*
X34450000Y138950000D02*
G01*
X34250000Y138950000D01*
X34250000Y139600000D01*
X34450000Y139600000D01*
X34450000Y138950000D01*
G37*
G36*
X34450000Y129125000D02*
G01*
X34250000Y129125000D01*
X34250000Y129775000D01*
X34450000Y129775000D01*
X34450000Y129125000D01*
G37*
G36*
X34850000Y138950000D02*
G01*
X34650000Y138950000D01*
X34650000Y139600000D01*
X34850000Y139600000D01*
X34850000Y138950000D01*
G37*
G36*
X34850000Y129125000D02*
G01*
X34650000Y129125000D01*
X34650000Y129775000D01*
X34850000Y129775000D01*
X34850000Y129125000D01*
G37*
G36*
X35250000Y138950000D02*
G01*
X35050000Y138950000D01*
X35050000Y139600000D01*
X35250000Y139600000D01*
X35250000Y138950000D01*
G37*
G36*
X35250000Y129125000D02*
G01*
X35050000Y129125000D01*
X35050000Y129775000D01*
X35250000Y129775000D01*
X35250000Y129125000D01*
G37*
G36*
X35650000Y138950000D02*
G01*
X35450000Y138950000D01*
X35450000Y139600000D01*
X35650000Y139600000D01*
X35650000Y138950000D01*
G37*
G36*
X35650000Y129125000D02*
G01*
X35450000Y129125000D01*
X35450000Y129775000D01*
X35650000Y129775000D01*
X35650000Y129125000D01*
G37*
G36*
X27175000Y138050000D02*
G01*
X26525000Y138050000D01*
X26525000Y138250000D01*
X27175000Y138250000D01*
X27175000Y138050000D01*
G37*
G36*
X27175000Y137650000D02*
G01*
X26525000Y137650000D01*
X26525000Y137850000D01*
X27175000Y137850000D01*
X27175000Y137650000D01*
G37*
G36*
X27175000Y137250000D02*
G01*
X26525000Y137250000D01*
X26525000Y137450000D01*
X27175000Y137450000D01*
X27175000Y137250000D01*
G37*
G36*
X27175000Y136850000D02*
G01*
X26525000Y136850000D01*
X26525000Y137050000D01*
X27175000Y137050000D01*
X27175000Y136850000D01*
G37*
G36*
X27175000Y136450000D02*
G01*
X26525000Y136450000D01*
X26525000Y136650000D01*
X27175000Y136650000D01*
X27175000Y136450000D01*
G37*
G36*
X27175000Y136050000D02*
G01*
X26525000Y136050000D01*
X26525000Y136250000D01*
X27175000Y136250000D01*
X27175000Y136050000D01*
G37*
G36*
X27175000Y135650000D02*
G01*
X26525000Y135650000D01*
X26525000Y135850000D01*
X27175000Y135850000D01*
X27175000Y135650000D01*
G37*
G36*
X27175000Y135250000D02*
G01*
X26525000Y135250000D01*
X26525000Y135450000D01*
X27175000Y135450000D01*
X27175000Y135250000D01*
G37*
G36*
X27175000Y134850000D02*
G01*
X26525000Y134850000D01*
X26525000Y135050000D01*
X27175000Y135050000D01*
X27175000Y134850000D01*
G37*
G36*
X27175000Y134450000D02*
G01*
X26525000Y134450000D01*
X26525000Y134650000D01*
X27175000Y134650000D01*
X27175000Y134450000D01*
G37*
G36*
X27175000Y134050000D02*
G01*
X26525000Y134050000D01*
X26525000Y134250000D01*
X27175000Y134250000D01*
X27175000Y134050000D01*
G37*
G36*
X27175000Y133650000D02*
G01*
X26525000Y133650000D01*
X26525000Y133850000D01*
X27175000Y133850000D01*
X27175000Y133650000D01*
G37*
G36*
X27175000Y133250000D02*
G01*
X26525000Y133250000D01*
X26525000Y133450000D01*
X27175000Y133450000D01*
X27175000Y133250000D01*
G37*
G36*
X27175000Y132850000D02*
G01*
X26525000Y132850000D01*
X26525000Y133050000D01*
X27175000Y133050000D01*
X27175000Y132850000D01*
G37*
G36*
X27175000Y132450000D02*
G01*
X26525000Y132450000D01*
X26525000Y132650000D01*
X27175000Y132650000D01*
X27175000Y132450000D01*
G37*
G36*
X27175000Y132050000D02*
G01*
X26525000Y132050000D01*
X26525000Y132250000D01*
X27175000Y132250000D01*
X27175000Y132050000D01*
G37*
G36*
X27175000Y131650000D02*
G01*
X26525000Y131650000D01*
X26525000Y131850000D01*
X27175000Y131850000D01*
X27175000Y131650000D01*
G37*
G36*
X27175000Y131250000D02*
G01*
X26525000Y131250000D01*
X26525000Y131450000D01*
X27175000Y131450000D01*
X27175000Y131250000D01*
G37*
G36*
X27175000Y130850000D02*
G01*
X26525000Y130850000D01*
X26525000Y131050000D01*
X27175000Y131050000D01*
X27175000Y130850000D01*
G37*
G36*
X27175000Y130450000D02*
G01*
X26525000Y130450000D01*
X26525000Y130650000D01*
X27175000Y130650000D01*
X27175000Y130450000D01*
G37*
G36*
X31350000Y134750000D02*
G01*
X30750000Y134750000D01*
X30750000Y135350000D01*
X31350000Y135350000D01*
X31350000Y134750000D01*
G37*
G36*
X31350000Y133350000D02*
G01*
X30750000Y133350000D01*
X30750000Y133950000D01*
X31350000Y133950000D01*
X31350000Y133350000D01*
G37*
G36*
X32750000Y134750000D02*
G01*
X32150000Y134750000D01*
X32150000Y135350000D01*
X32750000Y135350000D01*
X32750000Y134750000D01*
G37*
G36*
X32750000Y133350000D02*
G01*
X32150000Y133350000D01*
X32150000Y133950000D01*
X32750000Y133950000D01*
X32750000Y133350000D01*
G37*
G36*
X36975000Y138050000D02*
G01*
X36325000Y138050000D01*
X36325000Y138250000D01*
X36975000Y138250000D01*
X36975000Y138050000D01*
G37*
G36*
X36975000Y137650000D02*
G01*
X36325000Y137650000D01*
X36325000Y137850000D01*
X36975000Y137850000D01*
X36975000Y137650000D01*
G37*
G36*
X36975000Y137250000D02*
G01*
X36325000Y137250000D01*
X36325000Y137450000D01*
X36975000Y137450000D01*
X36975000Y137250000D01*
G37*
G36*
X36975000Y136850000D02*
G01*
X36325000Y136850000D01*
X36325000Y137050000D01*
X36975000Y137050000D01*
X36975000Y136850000D01*
G37*
G36*
X36975000Y136450000D02*
G01*
X36325000Y136450000D01*
X36325000Y136650000D01*
X36975000Y136650000D01*
X36975000Y136450000D01*
G37*
G36*
X36975000Y136050000D02*
G01*
X36325000Y136050000D01*
X36325000Y136250000D01*
X36975000Y136250000D01*
X36975000Y136050000D01*
G37*
G36*
X36975000Y135650000D02*
G01*
X36325000Y135650000D01*
X36325000Y135850000D01*
X36975000Y135850000D01*
X36975000Y135650000D01*
G37*
G36*
X36975000Y135250000D02*
G01*
X36325000Y135250000D01*
X36325000Y135450000D01*
X36975000Y135450000D01*
X36975000Y135250000D01*
G37*
G36*
X36975000Y134850000D02*
G01*
X36325000Y134850000D01*
X36325000Y135050000D01*
X36975000Y135050000D01*
X36975000Y134850000D01*
G37*
G36*
X36975000Y134450000D02*
G01*
X36325000Y134450000D01*
X36325000Y134650000D01*
X36975000Y134650000D01*
X36975000Y134450000D01*
G37*
G36*
X36975000Y134050000D02*
G01*
X36325000Y134050000D01*
X36325000Y134250000D01*
X36975000Y134250000D01*
X36975000Y134050000D01*
G37*
G36*
X36975000Y133650000D02*
G01*
X36325000Y133650000D01*
X36325000Y133850000D01*
X36975000Y133850000D01*
X36975000Y133650000D01*
G37*
G36*
X36975000Y133250000D02*
G01*
X36325000Y133250000D01*
X36325000Y133450000D01*
X36975000Y133450000D01*
X36975000Y133250000D01*
G37*
G36*
X36975000Y132850000D02*
G01*
X36325000Y132850000D01*
X36325000Y133050000D01*
X36975000Y133050000D01*
X36975000Y132850000D01*
G37*
G36*
X36975000Y132450000D02*
G01*
X36325000Y132450000D01*
X36325000Y132650000D01*
X36975000Y132650000D01*
X36975000Y132450000D01*
G37*
G36*
X36975000Y132050000D02*
G01*
X36325000Y132050000D01*
X36325000Y132250000D01*
X36975000Y132250000D01*
X36975000Y132050000D01*
G37*
G36*
X36975000Y131650000D02*
G01*
X36325000Y131650000D01*
X36325000Y131850000D01*
X36975000Y131850000D01*
X36975000Y131650000D01*
G37*
G36*
X36975000Y131250000D02*
G01*
X36325000Y131250000D01*
X36325000Y131450000D01*
X36975000Y131450000D01*
X36975000Y131250000D01*
G37*
G36*
X36975000Y130850000D02*
G01*
X36325000Y130850000D01*
X36325000Y131050000D01*
X36975000Y131050000D01*
X36975000Y130850000D01*
G37*
G36*
X36975000Y130450000D02*
G01*
X36325000Y130450000D01*
X36325000Y130650000D01*
X36975000Y130650000D01*
X36975000Y130450000D01*
G37*
G36*
X28050000Y84475000D02*
G01*
X27850000Y84475000D01*
X27850000Y85125000D01*
X28050000Y85125000D01*
X28050000Y84475000D01*
G37*
G36*
X28050000Y74650000D02*
G01*
X27850000Y74650000D01*
X27850000Y75300000D01*
X28050000Y75300000D01*
X28050000Y74650000D01*
G37*
G36*
X28450000Y84475000D02*
G01*
X28250000Y84475000D01*
X28250000Y85125000D01*
X28450000Y85125000D01*
X28450000Y84475000D01*
G37*
G36*
X28450000Y74650000D02*
G01*
X28250000Y74650000D01*
X28250000Y75300000D01*
X28450000Y75300000D01*
X28450000Y74650000D01*
G37*
G36*
X28850000Y84475000D02*
G01*
X28650000Y84475000D01*
X28650000Y85125000D01*
X28850000Y85125000D01*
X28850000Y84475000D01*
G37*
G36*
X28850000Y74650000D02*
G01*
X28650000Y74650000D01*
X28650000Y75300000D01*
X28850000Y75300000D01*
X28850000Y74650000D01*
G37*
G36*
X29250000Y84475000D02*
G01*
X29050000Y84475000D01*
X29050000Y85125000D01*
X29250000Y85125000D01*
X29250000Y84475000D01*
G37*
G36*
X29250000Y74650000D02*
G01*
X29050000Y74650000D01*
X29050000Y75300000D01*
X29250000Y75300000D01*
X29250000Y74650000D01*
G37*
G36*
X29650000Y84475000D02*
G01*
X29450000Y84475000D01*
X29450000Y85125000D01*
X29650000Y85125000D01*
X29650000Y84475000D01*
G37*
G36*
X29650000Y74650000D02*
G01*
X29450000Y74650000D01*
X29450000Y75300000D01*
X29650000Y75300000D01*
X29650000Y74650000D01*
G37*
G36*
X30050000Y84475000D02*
G01*
X29850000Y84475000D01*
X29850000Y85125000D01*
X30050000Y85125000D01*
X30050000Y84475000D01*
G37*
G36*
X30050000Y74650000D02*
G01*
X29850000Y74650000D01*
X29850000Y75300000D01*
X30050000Y75300000D01*
X30050000Y74650000D01*
G37*
G36*
X30450000Y84475000D02*
G01*
X30250000Y84475000D01*
X30250000Y85125000D01*
X30450000Y85125000D01*
X30450000Y84475000D01*
G37*
G36*
X30450000Y74650000D02*
G01*
X30250000Y74650000D01*
X30250000Y75300000D01*
X30450000Y75300000D01*
X30450000Y74650000D01*
G37*
G36*
X30850000Y84475000D02*
G01*
X30650000Y84475000D01*
X30650000Y85125000D01*
X30850000Y85125000D01*
X30850000Y84475000D01*
G37*
G36*
X30850000Y74650000D02*
G01*
X30650000Y74650000D01*
X30650000Y75300000D01*
X30850000Y75300000D01*
X30850000Y74650000D01*
G37*
G36*
X31250000Y84475000D02*
G01*
X31050000Y84475000D01*
X31050000Y85125000D01*
X31250000Y85125000D01*
X31250000Y84475000D01*
G37*
G36*
X31250000Y74650000D02*
G01*
X31050000Y74650000D01*
X31050000Y75300000D01*
X31250000Y75300000D01*
X31250000Y74650000D01*
G37*
G36*
X31650000Y84475000D02*
G01*
X31450000Y84475000D01*
X31450000Y85125000D01*
X31650000Y85125000D01*
X31650000Y84475000D01*
G37*
G36*
X31650000Y74650000D02*
G01*
X31450000Y74650000D01*
X31450000Y75300000D01*
X31650000Y75300000D01*
X31650000Y74650000D01*
G37*
G36*
X32050000Y84475000D02*
G01*
X31850000Y84475000D01*
X31850000Y85125000D01*
X32050000Y85125000D01*
X32050000Y84475000D01*
G37*
G36*
X32050000Y74650000D02*
G01*
X31850000Y74650000D01*
X31850000Y75300000D01*
X32050000Y75300000D01*
X32050000Y74650000D01*
G37*
G36*
X32450000Y84475000D02*
G01*
X32250000Y84475000D01*
X32250000Y85125000D01*
X32450000Y85125000D01*
X32450000Y84475000D01*
G37*
G36*
X32450000Y74650000D02*
G01*
X32250000Y74650000D01*
X32250000Y75300000D01*
X32450000Y75300000D01*
X32450000Y74650000D01*
G37*
G36*
X32850000Y84475000D02*
G01*
X32650000Y84475000D01*
X32650000Y85125000D01*
X32850000Y85125000D01*
X32850000Y84475000D01*
G37*
G36*
X32850000Y74650000D02*
G01*
X32650000Y74650000D01*
X32650000Y75300000D01*
X32850000Y75300000D01*
X32850000Y74650000D01*
G37*
G36*
X33250000Y84475000D02*
G01*
X33050000Y84475000D01*
X33050000Y85125000D01*
X33250000Y85125000D01*
X33250000Y84475000D01*
G37*
G36*
X33250000Y74650000D02*
G01*
X33050000Y74650000D01*
X33050000Y75300000D01*
X33250000Y75300000D01*
X33250000Y74650000D01*
G37*
G36*
X33650000Y84475000D02*
G01*
X33450000Y84475000D01*
X33450000Y85125000D01*
X33650000Y85125000D01*
X33650000Y84475000D01*
G37*
G36*
X33650000Y74650000D02*
G01*
X33450000Y74650000D01*
X33450000Y75300000D01*
X33650000Y75300000D01*
X33650000Y74650000D01*
G37*
G36*
X34050000Y84475000D02*
G01*
X33850000Y84475000D01*
X33850000Y85125000D01*
X34050000Y85125000D01*
X34050000Y84475000D01*
G37*
G36*
X34050000Y74650000D02*
G01*
X33850000Y74650000D01*
X33850000Y75300000D01*
X34050000Y75300000D01*
X34050000Y74650000D01*
G37*
G36*
X34450000Y84475000D02*
G01*
X34250000Y84475000D01*
X34250000Y85125000D01*
X34450000Y85125000D01*
X34450000Y84475000D01*
G37*
G36*
X34450000Y74650000D02*
G01*
X34250000Y74650000D01*
X34250000Y75300000D01*
X34450000Y75300000D01*
X34450000Y74650000D01*
G37*
G36*
X34850000Y84475000D02*
G01*
X34650000Y84475000D01*
X34650000Y85125000D01*
X34850000Y85125000D01*
X34850000Y84475000D01*
G37*
G36*
X34850000Y74650000D02*
G01*
X34650000Y74650000D01*
X34650000Y75300000D01*
X34850000Y75300000D01*
X34850000Y74650000D01*
G37*
G36*
X35250000Y84475000D02*
G01*
X35050000Y84475000D01*
X35050000Y85125000D01*
X35250000Y85125000D01*
X35250000Y84475000D01*
G37*
G36*
X35250000Y74650000D02*
G01*
X35050000Y74650000D01*
X35050000Y75300000D01*
X35250000Y75300000D01*
X35250000Y74650000D01*
G37*
G36*
X35650000Y84475000D02*
G01*
X35450000Y84475000D01*
X35450000Y85125000D01*
X35650000Y85125000D01*
X35650000Y84475000D01*
G37*
G36*
X35650000Y74650000D02*
G01*
X35450000Y74650000D01*
X35450000Y75300000D01*
X35650000Y75300000D01*
X35650000Y74650000D01*
G37*
G36*
X27175000Y83575000D02*
G01*
X26525000Y83575000D01*
X26525000Y83775000D01*
X27175000Y83775000D01*
X27175000Y83575000D01*
G37*
G36*
X27175000Y83175000D02*
G01*
X26525000Y83175000D01*
X26525000Y83375000D01*
X27175000Y83375000D01*
X27175000Y83175000D01*
G37*
G36*
X27175000Y82775000D02*
G01*
X26525000Y82775000D01*
X26525000Y82975000D01*
X27175000Y82975000D01*
X27175000Y82775000D01*
G37*
G36*
X27175000Y82375000D02*
G01*
X26525000Y82375000D01*
X26525000Y82575000D01*
X27175000Y82575000D01*
X27175000Y82375000D01*
G37*
G36*
X27175000Y81975000D02*
G01*
X26525000Y81975000D01*
X26525000Y82175000D01*
X27175000Y82175000D01*
X27175000Y81975000D01*
G37*
G36*
X27175000Y81575000D02*
G01*
X26525000Y81575000D01*
X26525000Y81775000D01*
X27175000Y81775000D01*
X27175000Y81575000D01*
G37*
G36*
X27175000Y81175000D02*
G01*
X26525000Y81175000D01*
X26525000Y81375000D01*
X27175000Y81375000D01*
X27175000Y81175000D01*
G37*
G36*
X27175000Y80775000D02*
G01*
X26525000Y80775000D01*
X26525000Y80975000D01*
X27175000Y80975000D01*
X27175000Y80775000D01*
G37*
G36*
X27175000Y80375000D02*
G01*
X26525000Y80375000D01*
X26525000Y80575000D01*
X27175000Y80575000D01*
X27175000Y80375000D01*
G37*
G36*
X27175000Y79975000D02*
G01*
X26525000Y79975000D01*
X26525000Y80175000D01*
X27175000Y80175000D01*
X27175000Y79975000D01*
G37*
G36*
X27175000Y79575000D02*
G01*
X26525000Y79575000D01*
X26525000Y79775000D01*
X27175000Y79775000D01*
X27175000Y79575000D01*
G37*
G36*
X27175000Y79175000D02*
G01*
X26525000Y79175000D01*
X26525000Y79375000D01*
X27175000Y79375000D01*
X27175000Y79175000D01*
G37*
G36*
X27175000Y78775000D02*
G01*
X26525000Y78775000D01*
X26525000Y78975000D01*
X27175000Y78975000D01*
X27175000Y78775000D01*
G37*
G36*
X27175000Y78375000D02*
G01*
X26525000Y78375000D01*
X26525000Y78575000D01*
X27175000Y78575000D01*
X27175000Y78375000D01*
G37*
G36*
X27175000Y77975000D02*
G01*
X26525000Y77975000D01*
X26525000Y78175000D01*
X27175000Y78175000D01*
X27175000Y77975000D01*
G37*
G36*
X27175000Y77575000D02*
G01*
X26525000Y77575000D01*
X26525000Y77775000D01*
X27175000Y77775000D01*
X27175000Y77575000D01*
G37*
G36*
X27175000Y77175000D02*
G01*
X26525000Y77175000D01*
X26525000Y77375000D01*
X27175000Y77375000D01*
X27175000Y77175000D01*
G37*
G36*
X27175000Y76775000D02*
G01*
X26525000Y76775000D01*
X26525000Y76975000D01*
X27175000Y76975000D01*
X27175000Y76775000D01*
G37*
G36*
X27175000Y76375000D02*
G01*
X26525000Y76375000D01*
X26525000Y76575000D01*
X27175000Y76575000D01*
X27175000Y76375000D01*
G37*
G36*
X27175000Y75975000D02*
G01*
X26525000Y75975000D01*
X26525000Y76175000D01*
X27175000Y76175000D01*
X27175000Y75975000D01*
G37*
G36*
X31350000Y80275000D02*
G01*
X30750000Y80275000D01*
X30750000Y80875000D01*
X31350000Y80875000D01*
X31350000Y80275000D01*
G37*
G36*
X31350000Y78875000D02*
G01*
X30750000Y78875000D01*
X30750000Y79475000D01*
X31350000Y79475000D01*
X31350000Y78875000D01*
G37*
G36*
X32750000Y80275000D02*
G01*
X32150000Y80275000D01*
X32150000Y80875000D01*
X32750000Y80875000D01*
X32750000Y80275000D01*
G37*
G36*
X32750000Y78875000D02*
G01*
X32150000Y78875000D01*
X32150000Y79475000D01*
X32750000Y79475000D01*
X32750000Y78875000D01*
G37*
G36*
X36975000Y83575000D02*
G01*
X36325000Y83575000D01*
X36325000Y83775000D01*
X36975000Y83775000D01*
X36975000Y83575000D01*
G37*
G36*
X36975000Y83175000D02*
G01*
X36325000Y83175000D01*
X36325000Y83375000D01*
X36975000Y83375000D01*
X36975000Y83175000D01*
G37*
G36*
X36975000Y82775000D02*
G01*
X36325000Y82775000D01*
X36325000Y82975000D01*
X36975000Y82975000D01*
X36975000Y82775000D01*
G37*
G36*
X36975000Y82375000D02*
G01*
X36325000Y82375000D01*
X36325000Y82575000D01*
X36975000Y82575000D01*
X36975000Y82375000D01*
G37*
G36*
X36975000Y81975000D02*
G01*
X36325000Y81975000D01*
X36325000Y82175000D01*
X36975000Y82175000D01*
X36975000Y81975000D01*
G37*
G36*
X36975000Y81575000D02*
G01*
X36325000Y81575000D01*
X36325000Y81775000D01*
X36975000Y81775000D01*
X36975000Y81575000D01*
G37*
G36*
X36975000Y81175000D02*
G01*
X36325000Y81175000D01*
X36325000Y81375000D01*
X36975000Y81375000D01*
X36975000Y81175000D01*
G37*
G36*
X36975000Y80775000D02*
G01*
X36325000Y80775000D01*
X36325000Y80975000D01*
X36975000Y80975000D01*
X36975000Y80775000D01*
G37*
G36*
X36975000Y80375000D02*
G01*
X36325000Y80375000D01*
X36325000Y80575000D01*
X36975000Y80575000D01*
X36975000Y80375000D01*
G37*
G36*
X36975000Y79975000D02*
G01*
X36325000Y79975000D01*
X36325000Y80175000D01*
X36975000Y80175000D01*
X36975000Y79975000D01*
G37*
G36*
X36975000Y79575000D02*
G01*
X36325000Y79575000D01*
X36325000Y79775000D01*
X36975000Y79775000D01*
X36975000Y79575000D01*
G37*
G36*
X36975000Y79175000D02*
G01*
X36325000Y79175000D01*
X36325000Y79375000D01*
X36975000Y79375000D01*
X36975000Y79175000D01*
G37*
G36*
X36975000Y78775000D02*
G01*
X36325000Y78775000D01*
X36325000Y78975000D01*
X36975000Y78975000D01*
X36975000Y78775000D01*
G37*
G36*
X36975000Y78375000D02*
G01*
X36325000Y78375000D01*
X36325000Y78575000D01*
X36975000Y78575000D01*
X36975000Y78375000D01*
G37*
G36*
X36975000Y77975000D02*
G01*
X36325000Y77975000D01*
X36325000Y78175000D01*
X36975000Y78175000D01*
X36975000Y77975000D01*
G37*
G36*
X36975000Y77575000D02*
G01*
X36325000Y77575000D01*
X36325000Y77775000D01*
X36975000Y77775000D01*
X36975000Y77575000D01*
G37*
G36*
X36975000Y77175000D02*
G01*
X36325000Y77175000D01*
X36325000Y77375000D01*
X36975000Y77375000D01*
X36975000Y77175000D01*
G37*
G36*
X36975000Y76775000D02*
G01*
X36325000Y76775000D01*
X36325000Y76975000D01*
X36975000Y76975000D01*
X36975000Y76775000D01*
G37*
G36*
X36975000Y76375000D02*
G01*
X36325000Y76375000D01*
X36325000Y76575000D01*
X36975000Y76575000D01*
X36975000Y76375000D01*
G37*
G36*
X36975000Y75975000D02*
G01*
X36325000Y75975000D01*
X36325000Y76175000D01*
X36975000Y76175000D01*
X36975000Y75975000D01*
G37*
G36*
X92050000Y30000000D02*
G01*
X91850000Y30000000D01*
X91850000Y30650000D01*
X92050000Y30650000D01*
X92050000Y30000000D01*
G37*
G36*
X92050000Y20175000D02*
G01*
X91850000Y20175000D01*
X91850000Y20825000D01*
X92050000Y20825000D01*
X92050000Y20175000D01*
G37*
G36*
X92450000Y30000000D02*
G01*
X92250000Y30000000D01*
X92250000Y30650000D01*
X92450000Y30650000D01*
X92450000Y30000000D01*
G37*
G36*
X92450000Y20175000D02*
G01*
X92250000Y20175000D01*
X92250000Y20825000D01*
X92450000Y20825000D01*
X92450000Y20175000D01*
G37*
G36*
X92850000Y30000000D02*
G01*
X92650000Y30000000D01*
X92650000Y30650000D01*
X92850000Y30650000D01*
X92850000Y30000000D01*
G37*
G36*
X92850000Y20175000D02*
G01*
X92650000Y20175000D01*
X92650000Y20825000D01*
X92850000Y20825000D01*
X92850000Y20175000D01*
G37*
G36*
X93250000Y30000000D02*
G01*
X93050000Y30000000D01*
X93050000Y30650000D01*
X93250000Y30650000D01*
X93250000Y30000000D01*
G37*
G36*
X93250000Y20175000D02*
G01*
X93050000Y20175000D01*
X93050000Y20825000D01*
X93250000Y20825000D01*
X93250000Y20175000D01*
G37*
G36*
X93650000Y30000000D02*
G01*
X93450000Y30000000D01*
X93450000Y30650000D01*
X93650000Y30650000D01*
X93650000Y30000000D01*
G37*
G36*
X93650000Y20175000D02*
G01*
X93450000Y20175000D01*
X93450000Y20825000D01*
X93650000Y20825000D01*
X93650000Y20175000D01*
G37*
G36*
X94050000Y30000000D02*
G01*
X93850000Y30000000D01*
X93850000Y30650000D01*
X94050000Y30650000D01*
X94050000Y30000000D01*
G37*
G36*
X94050000Y20175000D02*
G01*
X93850000Y20175000D01*
X93850000Y20825000D01*
X94050000Y20825000D01*
X94050000Y20175000D01*
G37*
G36*
X94450000Y30000000D02*
G01*
X94250000Y30000000D01*
X94250000Y30650000D01*
X94450000Y30650000D01*
X94450000Y30000000D01*
G37*
G36*
X94450000Y20175000D02*
G01*
X94250000Y20175000D01*
X94250000Y20825000D01*
X94450000Y20825000D01*
X94450000Y20175000D01*
G37*
G36*
X94850000Y30000000D02*
G01*
X94650000Y30000000D01*
X94650000Y30650000D01*
X94850000Y30650000D01*
X94850000Y30000000D01*
G37*
G36*
X94850000Y20175000D02*
G01*
X94650000Y20175000D01*
X94650000Y20825000D01*
X94850000Y20825000D01*
X94850000Y20175000D01*
G37*
G36*
X95250000Y30000000D02*
G01*
X95050000Y30000000D01*
X95050000Y30650000D01*
X95250000Y30650000D01*
X95250000Y30000000D01*
G37*
G36*
X95250000Y20175000D02*
G01*
X95050000Y20175000D01*
X95050000Y20825000D01*
X95250000Y20825000D01*
X95250000Y20175000D01*
G37*
G36*
X95650000Y30000000D02*
G01*
X95450000Y30000000D01*
X95450000Y30650000D01*
X95650000Y30650000D01*
X95650000Y30000000D01*
G37*
G36*
X95650000Y20175000D02*
G01*
X95450000Y20175000D01*
X95450000Y20825000D01*
X95650000Y20825000D01*
X95650000Y20175000D01*
G37*
G36*
X96050000Y30000000D02*
G01*
X95850000Y30000000D01*
X95850000Y30650000D01*
X96050000Y30650000D01*
X96050000Y30000000D01*
G37*
G36*
X96050000Y20175000D02*
G01*
X95850000Y20175000D01*
X95850000Y20825000D01*
X96050000Y20825000D01*
X96050000Y20175000D01*
G37*
G36*
X96450000Y30000000D02*
G01*
X96250000Y30000000D01*
X96250000Y30650000D01*
X96450000Y30650000D01*
X96450000Y30000000D01*
G37*
G36*
X96450000Y20175000D02*
G01*
X96250000Y20175000D01*
X96250000Y20825000D01*
X96450000Y20825000D01*
X96450000Y20175000D01*
G37*
G36*
X96850000Y30000000D02*
G01*
X96650000Y30000000D01*
X96650000Y30650000D01*
X96850000Y30650000D01*
X96850000Y30000000D01*
G37*
G36*
X96850000Y20175000D02*
G01*
X96650000Y20175000D01*
X96650000Y20825000D01*
X96850000Y20825000D01*
X96850000Y20175000D01*
G37*
G36*
X97250000Y30000000D02*
G01*
X97050000Y30000000D01*
X97050000Y30650000D01*
X97250000Y30650000D01*
X97250000Y30000000D01*
G37*
G36*
X97250000Y20175000D02*
G01*
X97050000Y20175000D01*
X97050000Y20825000D01*
X97250000Y20825000D01*
X97250000Y20175000D01*
G37*
G36*
X97650000Y30000000D02*
G01*
X97450000Y30000000D01*
X97450000Y30650000D01*
X97650000Y30650000D01*
X97650000Y30000000D01*
G37*
G36*
X97650000Y20175000D02*
G01*
X97450000Y20175000D01*
X97450000Y20825000D01*
X97650000Y20825000D01*
X97650000Y20175000D01*
G37*
G36*
X98050000Y30000000D02*
G01*
X97850000Y30000000D01*
X97850000Y30650000D01*
X98050000Y30650000D01*
X98050000Y30000000D01*
G37*
G36*
X98050000Y20175000D02*
G01*
X97850000Y20175000D01*
X97850000Y20825000D01*
X98050000Y20825000D01*
X98050000Y20175000D01*
G37*
G36*
X98450000Y30000000D02*
G01*
X98250000Y30000000D01*
X98250000Y30650000D01*
X98450000Y30650000D01*
X98450000Y30000000D01*
G37*
G36*
X98450000Y20175000D02*
G01*
X98250000Y20175000D01*
X98250000Y20825000D01*
X98450000Y20825000D01*
X98450000Y20175000D01*
G37*
G36*
X98850000Y30000000D02*
G01*
X98650000Y30000000D01*
X98650000Y30650000D01*
X98850000Y30650000D01*
X98850000Y30000000D01*
G37*
G36*
X98850000Y20175000D02*
G01*
X98650000Y20175000D01*
X98650000Y20825000D01*
X98850000Y20825000D01*
X98850000Y20175000D01*
G37*
G36*
X99250000Y30000000D02*
G01*
X99050000Y30000000D01*
X99050000Y30650000D01*
X99250000Y30650000D01*
X99250000Y30000000D01*
G37*
G36*
X99250000Y20175000D02*
G01*
X99050000Y20175000D01*
X99050000Y20825000D01*
X99250000Y20825000D01*
X99250000Y20175000D01*
G37*
G36*
X99650000Y30000000D02*
G01*
X99450000Y30000000D01*
X99450000Y30650000D01*
X99650000Y30650000D01*
X99650000Y30000000D01*
G37*
G36*
X99650000Y20175000D02*
G01*
X99450000Y20175000D01*
X99450000Y20825000D01*
X99650000Y20825000D01*
X99650000Y20175000D01*
G37*
G36*
X91175000Y29100000D02*
G01*
X90525000Y29100000D01*
X90525000Y29300000D01*
X91175000Y29300000D01*
X91175000Y29100000D01*
G37*
G36*
X91175000Y28700000D02*
G01*
X90525000Y28700000D01*
X90525000Y28900000D01*
X91175000Y28900000D01*
X91175000Y28700000D01*
G37*
G36*
X91175000Y28300000D02*
G01*
X90525000Y28300000D01*
X90525000Y28500000D01*
X91175000Y28500000D01*
X91175000Y28300000D01*
G37*
G36*
X91175000Y27900000D02*
G01*
X90525000Y27900000D01*
X90525000Y28100000D01*
X91175000Y28100000D01*
X91175000Y27900000D01*
G37*
G36*
X91175000Y27500000D02*
G01*
X90525000Y27500000D01*
X90525000Y27700000D01*
X91175000Y27700000D01*
X91175000Y27500000D01*
G37*
G36*
X91175000Y27100000D02*
G01*
X90525000Y27100000D01*
X90525000Y27300000D01*
X91175000Y27300000D01*
X91175000Y27100000D01*
G37*
G36*
X91175000Y26700000D02*
G01*
X90525000Y26700000D01*
X90525000Y26900000D01*
X91175000Y26900000D01*
X91175000Y26700000D01*
G37*
G36*
X91175000Y26300000D02*
G01*
X90525000Y26300000D01*
X90525000Y26500000D01*
X91175000Y26500000D01*
X91175000Y26300000D01*
G37*
G36*
X91175000Y25900000D02*
G01*
X90525000Y25900000D01*
X90525000Y26100000D01*
X91175000Y26100000D01*
X91175000Y25900000D01*
G37*
G36*
X91175000Y25500000D02*
G01*
X90525000Y25500000D01*
X90525000Y25700000D01*
X91175000Y25700000D01*
X91175000Y25500000D01*
G37*
G36*
X91175000Y25100000D02*
G01*
X90525000Y25100000D01*
X90525000Y25300000D01*
X91175000Y25300000D01*
X91175000Y25100000D01*
G37*
G36*
X91175000Y24700000D02*
G01*
X90525000Y24700000D01*
X90525000Y24900000D01*
X91175000Y24900000D01*
X91175000Y24700000D01*
G37*
G36*
X91175000Y24300000D02*
G01*
X90525000Y24300000D01*
X90525000Y24500000D01*
X91175000Y24500000D01*
X91175000Y24300000D01*
G37*
G36*
X91175000Y23900000D02*
G01*
X90525000Y23900000D01*
X90525000Y24100000D01*
X91175000Y24100000D01*
X91175000Y23900000D01*
G37*
G36*
X91175000Y23500000D02*
G01*
X90525000Y23500000D01*
X90525000Y23700000D01*
X91175000Y23700000D01*
X91175000Y23500000D01*
G37*
G36*
X91175000Y23100000D02*
G01*
X90525000Y23100000D01*
X90525000Y23300000D01*
X91175000Y23300000D01*
X91175000Y23100000D01*
G37*
G36*
X91175000Y22700000D02*
G01*
X90525000Y22700000D01*
X90525000Y22900000D01*
X91175000Y22900000D01*
X91175000Y22700000D01*
G37*
G36*
X91175000Y22300000D02*
G01*
X90525000Y22300000D01*
X90525000Y22500000D01*
X91175000Y22500000D01*
X91175000Y22300000D01*
G37*
G36*
X91175000Y21900000D02*
G01*
X90525000Y21900000D01*
X90525000Y22100000D01*
X91175000Y22100000D01*
X91175000Y21900000D01*
G37*
G36*
X91175000Y21500000D02*
G01*
X90525000Y21500000D01*
X90525000Y21700000D01*
X91175000Y21700000D01*
X91175000Y21500000D01*
G37*
G36*
X95350000Y25800000D02*
G01*
X94750000Y25800000D01*
X94750000Y26400000D01*
X95350000Y26400000D01*
X95350000Y25800000D01*
G37*
G36*
X95350000Y24400000D02*
G01*
X94750000Y24400000D01*
X94750000Y25000000D01*
X95350000Y25000000D01*
X95350000Y24400000D01*
G37*
G36*
X96750000Y25800000D02*
G01*
X96150000Y25800000D01*
X96150000Y26400000D01*
X96750000Y26400000D01*
X96750000Y25800000D01*
G37*
G36*
X96750000Y24400000D02*
G01*
X96150000Y24400000D01*
X96150000Y25000000D01*
X96750000Y25000000D01*
X96750000Y24400000D01*
G37*
G36*
X100975000Y29100000D02*
G01*
X100325000Y29100000D01*
X100325000Y29300000D01*
X100975000Y29300000D01*
X100975000Y29100000D01*
G37*
G36*
X100975000Y28700000D02*
G01*
X100325000Y28700000D01*
X100325000Y28900000D01*
X100975000Y28900000D01*
X100975000Y28700000D01*
G37*
G36*
X100975000Y28300000D02*
G01*
X100325000Y28300000D01*
X100325000Y28500000D01*
X100975000Y28500000D01*
X100975000Y28300000D01*
G37*
G36*
X100975000Y27900000D02*
G01*
X100325000Y27900000D01*
X100325000Y28100000D01*
X100975000Y28100000D01*
X100975000Y27900000D01*
G37*
G36*
X100975000Y27500000D02*
G01*
X100325000Y27500000D01*
X100325000Y27700000D01*
X100975000Y27700000D01*
X100975000Y27500000D01*
G37*
G36*
X100975000Y27100000D02*
G01*
X100325000Y27100000D01*
X100325000Y27300000D01*
X100975000Y27300000D01*
X100975000Y27100000D01*
G37*
G36*
X100975000Y26700000D02*
G01*
X100325000Y26700000D01*
X100325000Y26900000D01*
X100975000Y26900000D01*
X100975000Y26700000D01*
G37*
G36*
X100975000Y26300000D02*
G01*
X100325000Y26300000D01*
X100325000Y26500000D01*
X100975000Y26500000D01*
X100975000Y26300000D01*
G37*
G36*
X100975000Y25900000D02*
G01*
X100325000Y25900000D01*
X100325000Y26100000D01*
X100975000Y26100000D01*
X100975000Y25900000D01*
G37*
G36*
X100975000Y25500000D02*
G01*
X100325000Y25500000D01*
X100325000Y25700000D01*
X100975000Y25700000D01*
X100975000Y25500000D01*
G37*
G36*
X100975000Y25100000D02*
G01*
X100325000Y25100000D01*
X100325000Y25300000D01*
X100975000Y25300000D01*
X100975000Y25100000D01*
G37*
G36*
X100975000Y24700000D02*
G01*
X100325000Y24700000D01*
X100325000Y24900000D01*
X100975000Y24900000D01*
X100975000Y24700000D01*
G37*
G36*
X100975000Y24300000D02*
G01*
X100325000Y24300000D01*
X100325000Y24500000D01*
X100975000Y24500000D01*
X100975000Y24300000D01*
G37*
G36*
X100975000Y23900000D02*
G01*
X100325000Y23900000D01*
X100325000Y24100000D01*
X100975000Y24100000D01*
X100975000Y23900000D01*
G37*
G36*
X100975000Y23500000D02*
G01*
X100325000Y23500000D01*
X100325000Y23700000D01*
X100975000Y23700000D01*
X100975000Y23500000D01*
G37*
G36*
X100975000Y23100000D02*
G01*
X100325000Y23100000D01*
X100325000Y23300000D01*
X100975000Y23300000D01*
X100975000Y23100000D01*
G37*
G36*
X100975000Y22700000D02*
G01*
X100325000Y22700000D01*
X100325000Y22900000D01*
X100975000Y22900000D01*
X100975000Y22700000D01*
G37*
G36*
X100975000Y22300000D02*
G01*
X100325000Y22300000D01*
X100325000Y22500000D01*
X100975000Y22500000D01*
X100975000Y22300000D01*
G37*
G36*
X100975000Y21900000D02*
G01*
X100325000Y21900000D01*
X100325000Y22100000D01*
X100975000Y22100000D01*
X100975000Y21900000D01*
G37*
G36*
X100975000Y21500000D02*
G01*
X100325000Y21500000D01*
X100325000Y21700000D01*
X100975000Y21700000D01*
X100975000Y21500000D01*
G37*
G36*
X92050000Y84475000D02*
G01*
X91850000Y84475000D01*
X91850000Y85125000D01*
X92050000Y85125000D01*
X92050000Y84475000D01*
G37*
G36*
X92050000Y74650000D02*
G01*
X91850000Y74650000D01*
X91850000Y75300000D01*
X92050000Y75300000D01*
X92050000Y74650000D01*
G37*
G36*
X92450000Y84475000D02*
G01*
X92250000Y84475000D01*
X92250000Y85125000D01*
X92450000Y85125000D01*
X92450000Y84475000D01*
G37*
G36*
X92450000Y74650000D02*
G01*
X92250000Y74650000D01*
X92250000Y75300000D01*
X92450000Y75300000D01*
X92450000Y74650000D01*
G37*
G36*
X92850000Y84475000D02*
G01*
X92650000Y84475000D01*
X92650000Y85125000D01*
X92850000Y85125000D01*
X92850000Y84475000D01*
G37*
G36*
X92850000Y74650000D02*
G01*
X92650000Y74650000D01*
X92650000Y75300000D01*
X92850000Y75300000D01*
X92850000Y74650000D01*
G37*
G36*
X93250000Y84475000D02*
G01*
X93050000Y84475000D01*
X93050000Y85125000D01*
X93250000Y85125000D01*
X93250000Y84475000D01*
G37*
G36*
X93250000Y74650000D02*
G01*
X93050000Y74650000D01*
X93050000Y75300000D01*
X93250000Y75300000D01*
X93250000Y74650000D01*
G37*
G36*
X93650000Y84475000D02*
G01*
X93450000Y84475000D01*
X93450000Y85125000D01*
X93650000Y85125000D01*
X93650000Y84475000D01*
G37*
G36*
X93650000Y74650000D02*
G01*
X93450000Y74650000D01*
X93450000Y75300000D01*
X93650000Y75300000D01*
X93650000Y74650000D01*
G37*
G36*
X94050000Y84475000D02*
G01*
X93850000Y84475000D01*
X93850000Y85125000D01*
X94050000Y85125000D01*
X94050000Y84475000D01*
G37*
G36*
X94050000Y74650000D02*
G01*
X93850000Y74650000D01*
X93850000Y75300000D01*
X94050000Y75300000D01*
X94050000Y74650000D01*
G37*
G36*
X94450000Y84475000D02*
G01*
X94250000Y84475000D01*
X94250000Y85125000D01*
X94450000Y85125000D01*
X94450000Y84475000D01*
G37*
G36*
X94450000Y74650000D02*
G01*
X94250000Y74650000D01*
X94250000Y75300000D01*
X94450000Y75300000D01*
X94450000Y74650000D01*
G37*
G36*
X94850000Y84475000D02*
G01*
X94650000Y84475000D01*
X94650000Y85125000D01*
X94850000Y85125000D01*
X94850000Y84475000D01*
G37*
G36*
X94850000Y74650000D02*
G01*
X94650000Y74650000D01*
X94650000Y75300000D01*
X94850000Y75300000D01*
X94850000Y74650000D01*
G37*
G36*
X95250000Y84475000D02*
G01*
X95050000Y84475000D01*
X95050000Y85125000D01*
X95250000Y85125000D01*
X95250000Y84475000D01*
G37*
G36*
X95250000Y74650000D02*
G01*
X95050000Y74650000D01*
X95050000Y75300000D01*
X95250000Y75300000D01*
X95250000Y74650000D01*
G37*
G36*
X95650000Y84475000D02*
G01*
X95450000Y84475000D01*
X95450000Y85125000D01*
X95650000Y85125000D01*
X95650000Y84475000D01*
G37*
G36*
X95650000Y74650000D02*
G01*
X95450000Y74650000D01*
X95450000Y75300000D01*
X95650000Y75300000D01*
X95650000Y74650000D01*
G37*
G36*
X96050000Y84475000D02*
G01*
X95850000Y84475000D01*
X95850000Y85125000D01*
X96050000Y85125000D01*
X96050000Y84475000D01*
G37*
G36*
X96050000Y74650000D02*
G01*
X95850000Y74650000D01*
X95850000Y75300000D01*
X96050000Y75300000D01*
X96050000Y74650000D01*
G37*
G36*
X96450000Y84475000D02*
G01*
X96250000Y84475000D01*
X96250000Y85125000D01*
X96450000Y85125000D01*
X96450000Y84475000D01*
G37*
G36*
X96450000Y74650000D02*
G01*
X96250000Y74650000D01*
X96250000Y75300000D01*
X96450000Y75300000D01*
X96450000Y74650000D01*
G37*
G36*
X96850000Y84475000D02*
G01*
X96650000Y84475000D01*
X96650000Y85125000D01*
X96850000Y85125000D01*
X96850000Y84475000D01*
G37*
G36*
X96850000Y74650000D02*
G01*
X96650000Y74650000D01*
X96650000Y75300000D01*
X96850000Y75300000D01*
X96850000Y74650000D01*
G37*
G36*
X97250000Y84475000D02*
G01*
X97050000Y84475000D01*
X97050000Y85125000D01*
X97250000Y85125000D01*
X97250000Y84475000D01*
G37*
G36*
X97250000Y74650000D02*
G01*
X97050000Y74650000D01*
X97050000Y75300000D01*
X97250000Y75300000D01*
X97250000Y74650000D01*
G37*
G36*
X97650000Y84475000D02*
G01*
X97450000Y84475000D01*
X97450000Y85125000D01*
X97650000Y85125000D01*
X97650000Y84475000D01*
G37*
G36*
X97650000Y74650000D02*
G01*
X97450000Y74650000D01*
X97450000Y75300000D01*
X97650000Y75300000D01*
X97650000Y74650000D01*
G37*
G36*
X98050000Y84475000D02*
G01*
X97850000Y84475000D01*
X97850000Y85125000D01*
X98050000Y85125000D01*
X98050000Y84475000D01*
G37*
G36*
X98050000Y74650000D02*
G01*
X97850000Y74650000D01*
X97850000Y75300000D01*
X98050000Y75300000D01*
X98050000Y74650000D01*
G37*
G36*
X98450000Y84475000D02*
G01*
X98250000Y84475000D01*
X98250000Y85125000D01*
X98450000Y85125000D01*
X98450000Y84475000D01*
G37*
G36*
X98450000Y74650000D02*
G01*
X98250000Y74650000D01*
X98250000Y75300000D01*
X98450000Y75300000D01*
X98450000Y74650000D01*
G37*
G36*
X98850000Y84475000D02*
G01*
X98650000Y84475000D01*
X98650000Y85125000D01*
X98850000Y85125000D01*
X98850000Y84475000D01*
G37*
G36*
X98850000Y74650000D02*
G01*
X98650000Y74650000D01*
X98650000Y75300000D01*
X98850000Y75300000D01*
X98850000Y74650000D01*
G37*
G36*
X99250000Y84475000D02*
G01*
X99050000Y84475000D01*
X99050000Y85125000D01*
X99250000Y85125000D01*
X99250000Y84475000D01*
G37*
G36*
X99250000Y74650000D02*
G01*
X99050000Y74650000D01*
X99050000Y75300000D01*
X99250000Y75300000D01*
X99250000Y74650000D01*
G37*
G36*
X99650000Y84475000D02*
G01*
X99450000Y84475000D01*
X99450000Y85125000D01*
X99650000Y85125000D01*
X99650000Y84475000D01*
G37*
G36*
X99650000Y74650000D02*
G01*
X99450000Y74650000D01*
X99450000Y75300000D01*
X99650000Y75300000D01*
X99650000Y74650000D01*
G37*
G36*
X91175000Y83575000D02*
G01*
X90525000Y83575000D01*
X90525000Y83775000D01*
X91175000Y83775000D01*
X91175000Y83575000D01*
G37*
G36*
X91175000Y83175000D02*
G01*
X90525000Y83175000D01*
X90525000Y83375000D01*
X91175000Y83375000D01*
X91175000Y83175000D01*
G37*
G36*
X91175000Y82775000D02*
G01*
X90525000Y82775000D01*
X90525000Y82975000D01*
X91175000Y82975000D01*
X91175000Y82775000D01*
G37*
G36*
X91175000Y82375000D02*
G01*
X90525000Y82375000D01*
X90525000Y82575000D01*
X91175000Y82575000D01*
X91175000Y82375000D01*
G37*
G36*
X91175000Y81975000D02*
G01*
X90525000Y81975000D01*
X90525000Y82175000D01*
X91175000Y82175000D01*
X91175000Y81975000D01*
G37*
G36*
X91175000Y81575000D02*
G01*
X90525000Y81575000D01*
X90525000Y81775000D01*
X91175000Y81775000D01*
X91175000Y81575000D01*
G37*
G36*
X91175000Y81175000D02*
G01*
X90525000Y81175000D01*
X90525000Y81375000D01*
X91175000Y81375000D01*
X91175000Y81175000D01*
G37*
G36*
X91175000Y80775000D02*
G01*
X90525000Y80775000D01*
X90525000Y80975000D01*
X91175000Y80975000D01*
X91175000Y80775000D01*
G37*
G36*
X91175000Y80375000D02*
G01*
X90525000Y80375000D01*
X90525000Y80575000D01*
X91175000Y80575000D01*
X91175000Y80375000D01*
G37*
G36*
X91175000Y79975000D02*
G01*
X90525000Y79975000D01*
X90525000Y80175000D01*
X91175000Y80175000D01*
X91175000Y79975000D01*
G37*
G36*
X91175000Y79575000D02*
G01*
X90525000Y79575000D01*
X90525000Y79775000D01*
X91175000Y79775000D01*
X91175000Y79575000D01*
G37*
G36*
X91175000Y79175000D02*
G01*
X90525000Y79175000D01*
X90525000Y79375000D01*
X91175000Y79375000D01*
X91175000Y79175000D01*
G37*
G36*
X91175000Y78775000D02*
G01*
X90525000Y78775000D01*
X90525000Y78975000D01*
X91175000Y78975000D01*
X91175000Y78775000D01*
G37*
G36*
X91175000Y78375000D02*
G01*
X90525000Y78375000D01*
X90525000Y78575000D01*
X91175000Y78575000D01*
X91175000Y78375000D01*
G37*
G36*
X91175000Y77975000D02*
G01*
X90525000Y77975000D01*
X90525000Y78175000D01*
X91175000Y78175000D01*
X91175000Y77975000D01*
G37*
G36*
X91175000Y77575000D02*
G01*
X90525000Y77575000D01*
X90525000Y77775000D01*
X91175000Y77775000D01*
X91175000Y77575000D01*
G37*
G36*
X91175000Y77175000D02*
G01*
X90525000Y77175000D01*
X90525000Y77375000D01*
X91175000Y77375000D01*
X91175000Y77175000D01*
G37*
G36*
X91175000Y76775000D02*
G01*
X90525000Y76775000D01*
X90525000Y76975000D01*
X91175000Y76975000D01*
X91175000Y76775000D01*
G37*
G36*
X91175000Y76375000D02*
G01*
X90525000Y76375000D01*
X90525000Y76575000D01*
X91175000Y76575000D01*
X91175000Y76375000D01*
G37*
G36*
X91175000Y75975000D02*
G01*
X90525000Y75975000D01*
X90525000Y76175000D01*
X91175000Y76175000D01*
X91175000Y75975000D01*
G37*
G36*
X95350000Y80275000D02*
G01*
X94750000Y80275000D01*
X94750000Y80875000D01*
X95350000Y80875000D01*
X95350000Y80275000D01*
G37*
G36*
X95350000Y78875000D02*
G01*
X94750000Y78875000D01*
X94750000Y79475000D01*
X95350000Y79475000D01*
X95350000Y78875000D01*
G37*
G36*
X96750000Y80275000D02*
G01*
X96150000Y80275000D01*
X96150000Y80875000D01*
X96750000Y80875000D01*
X96750000Y80275000D01*
G37*
G36*
X96750000Y78875000D02*
G01*
X96150000Y78875000D01*
X96150000Y79475000D01*
X96750000Y79475000D01*
X96750000Y78875000D01*
G37*
G36*
X100975000Y83575000D02*
G01*
X100325000Y83575000D01*
X100325000Y83775000D01*
X100975000Y83775000D01*
X100975000Y83575000D01*
G37*
G36*
X100975000Y83175000D02*
G01*
X100325000Y83175000D01*
X100325000Y83375000D01*
X100975000Y83375000D01*
X100975000Y83175000D01*
G37*
G36*
X100975000Y82775000D02*
G01*
X100325000Y82775000D01*
X100325000Y82975000D01*
X100975000Y82975000D01*
X100975000Y82775000D01*
G37*
G36*
X100975000Y82375000D02*
G01*
X100325000Y82375000D01*
X100325000Y82575000D01*
X100975000Y82575000D01*
X100975000Y82375000D01*
G37*
G36*
X100975000Y81975000D02*
G01*
X100325000Y81975000D01*
X100325000Y82175000D01*
X100975000Y82175000D01*
X100975000Y81975000D01*
G37*
G36*
X100975000Y81575000D02*
G01*
X100325000Y81575000D01*
X100325000Y81775000D01*
X100975000Y81775000D01*
X100975000Y81575000D01*
G37*
G36*
X100975000Y81175000D02*
G01*
X100325000Y81175000D01*
X100325000Y81375000D01*
X100975000Y81375000D01*
X100975000Y81175000D01*
G37*
G36*
X100975000Y80775000D02*
G01*
X100325000Y80775000D01*
X100325000Y80975000D01*
X100975000Y80975000D01*
X100975000Y80775000D01*
G37*
G36*
X100975000Y80375000D02*
G01*
X100325000Y80375000D01*
X100325000Y80575000D01*
X100975000Y80575000D01*
X100975000Y80375000D01*
G37*
G36*
X100975000Y79975000D02*
G01*
X100325000Y79975000D01*
X100325000Y80175000D01*
X100975000Y80175000D01*
X100975000Y79975000D01*
G37*
G36*
X100975000Y79575000D02*
G01*
X100325000Y79575000D01*
X100325000Y79775000D01*
X100975000Y79775000D01*
X100975000Y79575000D01*
G37*
G36*
X100975000Y79175000D02*
G01*
X100325000Y79175000D01*
X100325000Y79375000D01*
X100975000Y79375000D01*
X100975000Y79175000D01*
G37*
G36*
X100975000Y78775000D02*
G01*
X100325000Y78775000D01*
X100325000Y78975000D01*
X100975000Y78975000D01*
X100975000Y78775000D01*
G37*
G36*
X100975000Y78375000D02*
G01*
X100325000Y78375000D01*
X100325000Y78575000D01*
X100975000Y78575000D01*
X100975000Y78375000D01*
G37*
G36*
X100975000Y77975000D02*
G01*
X100325000Y77975000D01*
X100325000Y78175000D01*
X100975000Y78175000D01*
X100975000Y77975000D01*
G37*
G36*
X100975000Y77575000D02*
G01*
X100325000Y77575000D01*
X100325000Y77775000D01*
X100975000Y77775000D01*
X100975000Y77575000D01*
G37*
G36*
X100975000Y77175000D02*
G01*
X100325000Y77175000D01*
X100325000Y77375000D01*
X100975000Y77375000D01*
X100975000Y77175000D01*
G37*
G36*
X100975000Y76775000D02*
G01*
X100325000Y76775000D01*
X100325000Y76975000D01*
X100975000Y76975000D01*
X100975000Y76775000D01*
G37*
G36*
X100975000Y76375000D02*
G01*
X100325000Y76375000D01*
X100325000Y76575000D01*
X100975000Y76575000D01*
X100975000Y76375000D01*
G37*
G36*
X100975000Y75975000D02*
G01*
X100325000Y75975000D01*
X100325000Y76175000D01*
X100975000Y76175000D01*
X100975000Y75975000D01*
G37*
G36*
X92050000Y138950000D02*
G01*
X91850000Y138950000D01*
X91850000Y139600000D01*
X92050000Y139600000D01*
X92050000Y138950000D01*
G37*
G36*
X92050000Y129125000D02*
G01*
X91850000Y129125000D01*
X91850000Y129775000D01*
X92050000Y129775000D01*
X92050000Y129125000D01*
G37*
G36*
X92450000Y138950000D02*
G01*
X92250000Y138950000D01*
X92250000Y139600000D01*
X92450000Y139600000D01*
X92450000Y138950000D01*
G37*
G36*
X92450000Y129125000D02*
G01*
X92250000Y129125000D01*
X92250000Y129775000D01*
X92450000Y129775000D01*
X92450000Y129125000D01*
G37*
G36*
X92850000Y138950000D02*
G01*
X92650000Y138950000D01*
X92650000Y139600000D01*
X92850000Y139600000D01*
X92850000Y138950000D01*
G37*
G36*
X92850000Y129125000D02*
G01*
X92650000Y129125000D01*
X92650000Y129775000D01*
X92850000Y129775000D01*
X92850000Y129125000D01*
G37*
G36*
X93250000Y138950000D02*
G01*
X93050000Y138950000D01*
X93050000Y139600000D01*
X93250000Y139600000D01*
X93250000Y138950000D01*
G37*
G36*
X93250000Y129125000D02*
G01*
X93050000Y129125000D01*
X93050000Y129775000D01*
X93250000Y129775000D01*
X93250000Y129125000D01*
G37*
G36*
X93650000Y138950000D02*
G01*
X93450000Y138950000D01*
X93450000Y139600000D01*
X93650000Y139600000D01*
X93650000Y138950000D01*
G37*
G36*
X93650000Y129125000D02*
G01*
X93450000Y129125000D01*
X93450000Y129775000D01*
X93650000Y129775000D01*
X93650000Y129125000D01*
G37*
G36*
X94050000Y138950000D02*
G01*
X93850000Y138950000D01*
X93850000Y139600000D01*
X94050000Y139600000D01*
X94050000Y138950000D01*
G37*
G36*
X94050000Y129125000D02*
G01*
X93850000Y129125000D01*
X93850000Y129775000D01*
X94050000Y129775000D01*
X94050000Y129125000D01*
G37*
G36*
X94450000Y138950000D02*
G01*
X94250000Y138950000D01*
X94250000Y139600000D01*
X94450000Y139600000D01*
X94450000Y138950000D01*
G37*
G36*
X94450000Y129125000D02*
G01*
X94250000Y129125000D01*
X94250000Y129775000D01*
X94450000Y129775000D01*
X94450000Y129125000D01*
G37*
G36*
X94850000Y138950000D02*
G01*
X94650000Y138950000D01*
X94650000Y139600000D01*
X94850000Y139600000D01*
X94850000Y138950000D01*
G37*
G36*
X94850000Y129125000D02*
G01*
X94650000Y129125000D01*
X94650000Y129775000D01*
X94850000Y129775000D01*
X94850000Y129125000D01*
G37*
G36*
X95250000Y138950000D02*
G01*
X95050000Y138950000D01*
X95050000Y139600000D01*
X95250000Y139600000D01*
X95250000Y138950000D01*
G37*
G36*
X95250000Y129125000D02*
G01*
X95050000Y129125000D01*
X95050000Y129775000D01*
X95250000Y129775000D01*
X95250000Y129125000D01*
G37*
G36*
X95650000Y138950000D02*
G01*
X95450000Y138950000D01*
X95450000Y139600000D01*
X95650000Y139600000D01*
X95650000Y138950000D01*
G37*
G36*
X95650000Y129125000D02*
G01*
X95450000Y129125000D01*
X95450000Y129775000D01*
X95650000Y129775000D01*
X95650000Y129125000D01*
G37*
G36*
X96050000Y138950000D02*
G01*
X95850000Y138950000D01*
X95850000Y139600000D01*
X96050000Y139600000D01*
X96050000Y138950000D01*
G37*
G36*
X96050000Y129125000D02*
G01*
X95850000Y129125000D01*
X95850000Y129775000D01*
X96050000Y129775000D01*
X96050000Y129125000D01*
G37*
G36*
X96450000Y138950000D02*
G01*
X96250000Y138950000D01*
X96250000Y139600000D01*
X96450000Y139600000D01*
X96450000Y138950000D01*
G37*
G36*
X96450000Y129125000D02*
G01*
X96250000Y129125000D01*
X96250000Y129775000D01*
X96450000Y129775000D01*
X96450000Y129125000D01*
G37*
G36*
X96850000Y138950000D02*
G01*
X96650000Y138950000D01*
X96650000Y139600000D01*
X96850000Y139600000D01*
X96850000Y138950000D01*
G37*
G36*
X96850000Y129125000D02*
G01*
X96650000Y129125000D01*
X96650000Y129775000D01*
X96850000Y129775000D01*
X96850000Y129125000D01*
G37*
G36*
X97250000Y138950000D02*
G01*
X97050000Y138950000D01*
X97050000Y139600000D01*
X97250000Y139600000D01*
X97250000Y138950000D01*
G37*
G36*
X97250000Y129125000D02*
G01*
X97050000Y129125000D01*
X97050000Y129775000D01*
X97250000Y129775000D01*
X97250000Y129125000D01*
G37*
G36*
X97650000Y138950000D02*
G01*
X97450000Y138950000D01*
X97450000Y139600000D01*
X97650000Y139600000D01*
X97650000Y138950000D01*
G37*
G36*
X97650000Y129125000D02*
G01*
X97450000Y129125000D01*
X97450000Y129775000D01*
X97650000Y129775000D01*
X97650000Y129125000D01*
G37*
G36*
X98050000Y138950000D02*
G01*
X97850000Y138950000D01*
X97850000Y139600000D01*
X98050000Y139600000D01*
X98050000Y138950000D01*
G37*
G36*
X98050000Y129125000D02*
G01*
X97850000Y129125000D01*
X97850000Y129775000D01*
X98050000Y129775000D01*
X98050000Y129125000D01*
G37*
G36*
X98450000Y138950000D02*
G01*
X98250000Y138950000D01*
X98250000Y139600000D01*
X98450000Y139600000D01*
X98450000Y138950000D01*
G37*
G36*
X98450000Y129125000D02*
G01*
X98250000Y129125000D01*
X98250000Y129775000D01*
X98450000Y129775000D01*
X98450000Y129125000D01*
G37*
G36*
X98850000Y138950000D02*
G01*
X98650000Y138950000D01*
X98650000Y139600000D01*
X98850000Y139600000D01*
X98850000Y138950000D01*
G37*
G36*
X98850000Y129125000D02*
G01*
X98650000Y129125000D01*
X98650000Y129775000D01*
X98850000Y129775000D01*
X98850000Y129125000D01*
G37*
G36*
X99250000Y138950000D02*
G01*
X99050000Y138950000D01*
X99050000Y139600000D01*
X99250000Y139600000D01*
X99250000Y138950000D01*
G37*
G36*
X99250000Y129125000D02*
G01*
X99050000Y129125000D01*
X99050000Y129775000D01*
X99250000Y129775000D01*
X99250000Y129125000D01*
G37*
G36*
X99650000Y138950000D02*
G01*
X99450000Y138950000D01*
X99450000Y139600000D01*
X99650000Y139600000D01*
X99650000Y138950000D01*
G37*
G36*
X99650000Y129125000D02*
G01*
X99450000Y129125000D01*
X99450000Y129775000D01*
X99650000Y129775000D01*
X99650000Y129125000D01*
G37*
G36*
X91175000Y138050000D02*
G01*
X90525000Y138050000D01*
X90525000Y138250000D01*
X91175000Y138250000D01*
X91175000Y138050000D01*
G37*
G36*
X91175000Y137650000D02*
G01*
X90525000Y137650000D01*
X90525000Y137850000D01*
X91175000Y137850000D01*
X91175000Y137650000D01*
G37*
G36*
X91175000Y137250000D02*
G01*
X90525000Y137250000D01*
X90525000Y137450000D01*
X91175000Y137450000D01*
X91175000Y137250000D01*
G37*
G36*
X91175000Y136850000D02*
G01*
X90525000Y136850000D01*
X90525000Y137050000D01*
X91175000Y137050000D01*
X91175000Y136850000D01*
G37*
G36*
X91175000Y136450000D02*
G01*
X90525000Y136450000D01*
X90525000Y136650000D01*
X91175000Y136650000D01*
X91175000Y136450000D01*
G37*
G36*
X91175000Y136050000D02*
G01*
X90525000Y136050000D01*
X90525000Y136250000D01*
X91175000Y136250000D01*
X91175000Y136050000D01*
G37*
G36*
X91175000Y135650000D02*
G01*
X90525000Y135650000D01*
X90525000Y135850000D01*
X91175000Y135850000D01*
X91175000Y135650000D01*
G37*
G36*
X91175000Y135250000D02*
G01*
X90525000Y135250000D01*
X90525000Y135450000D01*
X91175000Y135450000D01*
X91175000Y135250000D01*
G37*
G36*
X91175000Y134850000D02*
G01*
X90525000Y134850000D01*
X90525000Y135050000D01*
X91175000Y135050000D01*
X91175000Y134850000D01*
G37*
G36*
X91175000Y134450000D02*
G01*
X90525000Y134450000D01*
X90525000Y134650000D01*
X91175000Y134650000D01*
X91175000Y134450000D01*
G37*
G36*
X91175000Y134050000D02*
G01*
X90525000Y134050000D01*
X90525000Y134250000D01*
X91175000Y134250000D01*
X91175000Y134050000D01*
G37*
G36*
X91175000Y133650000D02*
G01*
X90525000Y133650000D01*
X90525000Y133850000D01*
X91175000Y133850000D01*
X91175000Y133650000D01*
G37*
G36*
X91175000Y133250000D02*
G01*
X90525000Y133250000D01*
X90525000Y133450000D01*
X91175000Y133450000D01*
X91175000Y133250000D01*
G37*
G36*
X91175000Y132850000D02*
G01*
X90525000Y132850000D01*
X90525000Y133050000D01*
X91175000Y133050000D01*
X91175000Y132850000D01*
G37*
G36*
X91175000Y132450000D02*
G01*
X90525000Y132450000D01*
X90525000Y132650000D01*
X91175000Y132650000D01*
X91175000Y132450000D01*
G37*
G36*
X91175000Y132050000D02*
G01*
X90525000Y132050000D01*
X90525000Y132250000D01*
X91175000Y132250000D01*
X91175000Y132050000D01*
G37*
G36*
X91175000Y131650000D02*
G01*
X90525000Y131650000D01*
X90525000Y131850000D01*
X91175000Y131850000D01*
X91175000Y131650000D01*
G37*
G36*
X91175000Y131250000D02*
G01*
X90525000Y131250000D01*
X90525000Y131450000D01*
X91175000Y131450000D01*
X91175000Y131250000D01*
G37*
G36*
X91175000Y130850000D02*
G01*
X90525000Y130850000D01*
X90525000Y131050000D01*
X91175000Y131050000D01*
X91175000Y130850000D01*
G37*
G36*
X91175000Y130450000D02*
G01*
X90525000Y130450000D01*
X90525000Y130650000D01*
X91175000Y130650000D01*
X91175000Y130450000D01*
G37*
G36*
X95350000Y134750000D02*
G01*
X94750000Y134750000D01*
X94750000Y135350000D01*
X95350000Y135350000D01*
X95350000Y134750000D01*
G37*
G36*
X95350000Y133350000D02*
G01*
X94750000Y133350000D01*
X94750000Y133950000D01*
X95350000Y133950000D01*
X95350000Y133350000D01*
G37*
G36*
X96750000Y134750000D02*
G01*
X96150000Y134750000D01*
X96150000Y135350000D01*
X96750000Y135350000D01*
X96750000Y134750000D01*
G37*
G36*
X96750000Y133350000D02*
G01*
X96150000Y133350000D01*
X96150000Y133950000D01*
X96750000Y133950000D01*
X96750000Y133350000D01*
G37*
G36*
X100975000Y138050000D02*
G01*
X100325000Y138050000D01*
X100325000Y138250000D01*
X100975000Y138250000D01*
X100975000Y138050000D01*
G37*
G36*
X100975000Y137650000D02*
G01*
X100325000Y137650000D01*
X100325000Y137850000D01*
X100975000Y137850000D01*
X100975000Y137650000D01*
G37*
G36*
X100975000Y137250000D02*
G01*
X100325000Y137250000D01*
X100325000Y137450000D01*
X100975000Y137450000D01*
X100975000Y137250000D01*
G37*
G36*
X100975000Y136850000D02*
G01*
X100325000Y136850000D01*
X100325000Y137050000D01*
X100975000Y137050000D01*
X100975000Y136850000D01*
G37*
G36*
X100975000Y136450000D02*
G01*
X100325000Y136450000D01*
X100325000Y136650000D01*
X100975000Y136650000D01*
X100975000Y136450000D01*
G37*
G36*
X100975000Y136050000D02*
G01*
X100325000Y136050000D01*
X100325000Y136250000D01*
X100975000Y136250000D01*
X100975000Y136050000D01*
G37*
G36*
X100975000Y135650000D02*
G01*
X100325000Y135650000D01*
X100325000Y135850000D01*
X100975000Y135850000D01*
X100975000Y135650000D01*
G37*
G36*
X100975000Y135250000D02*
G01*
X100325000Y135250000D01*
X100325000Y135450000D01*
X100975000Y135450000D01*
X100975000Y135250000D01*
G37*
G36*
X100975000Y134850000D02*
G01*
X100325000Y134850000D01*
X100325000Y135050000D01*
X100975000Y135050000D01*
X100975000Y134850000D01*
G37*
G36*
X100975000Y134450000D02*
G01*
X100325000Y134450000D01*
X100325000Y134650000D01*
X100975000Y134650000D01*
X100975000Y134450000D01*
G37*
G36*
X100975000Y134050000D02*
G01*
X100325000Y134050000D01*
X100325000Y134250000D01*
X100975000Y134250000D01*
X100975000Y134050000D01*
G37*
G36*
X100975000Y133650000D02*
G01*
X100325000Y133650000D01*
X100325000Y133850000D01*
X100975000Y133850000D01*
X100975000Y133650000D01*
G37*
G36*
X100975000Y133250000D02*
G01*
X100325000Y133250000D01*
X100325000Y133450000D01*
X100975000Y133450000D01*
X100975000Y133250000D01*
G37*
G36*
X100975000Y132850000D02*
G01*
X100325000Y132850000D01*
X100325000Y133050000D01*
X100975000Y133050000D01*
X100975000Y132850000D01*
G37*
G36*
X100975000Y132450000D02*
G01*
X100325000Y132450000D01*
X100325000Y132650000D01*
X100975000Y132650000D01*
X100975000Y132450000D01*
G37*
G36*
X100975000Y132050000D02*
G01*
X100325000Y132050000D01*
X100325000Y132250000D01*
X100975000Y132250000D01*
X100975000Y132050000D01*
G37*
G36*
X100975000Y131650000D02*
G01*
X100325000Y131650000D01*
X100325000Y131850000D01*
X100975000Y131850000D01*
X100975000Y131650000D01*
G37*
G36*
X100975000Y131250000D02*
G01*
X100325000Y131250000D01*
X100325000Y131450000D01*
X100975000Y131450000D01*
X100975000Y131250000D01*
G37*
G36*
X100975000Y130850000D02*
G01*
X100325000Y130850000D01*
X100325000Y131050000D01*
X100975000Y131050000D01*
X100975000Y130850000D01*
G37*
G36*
X100975000Y130450000D02*
G01*
X100325000Y130450000D01*
X100325000Y130650000D01*
X100975000Y130650000D01*
X100975000Y130450000D01*
G37*
%TO.C,U7*%
G36*
X8450000Y38090000D02*
G01*
X7600000Y38090000D01*
X7600000Y38330000D01*
X8450000Y38330000D01*
X8450000Y38090000D01*
G37*
G36*
X8450000Y37590000D02*
G01*
X7600000Y37590000D01*
X7600000Y37830000D01*
X8450000Y37830000D01*
X8450000Y37590000D01*
G37*
G36*
X8450000Y37090000D02*
G01*
X7600000Y37090000D01*
X7600000Y37330000D01*
X8450000Y37330000D01*
X8450000Y37090000D01*
G37*
G36*
X8450000Y36590000D02*
G01*
X7600000Y36590000D01*
X7600000Y36830000D01*
X8450000Y36830000D01*
X8450000Y36590000D01*
G37*
G36*
X8900000Y38540000D02*
G01*
X8660000Y38540000D01*
X8660000Y39390000D01*
X8900000Y39390000D01*
X8900000Y38540000D01*
G37*
G36*
X8900000Y35540000D02*
G01*
X8660000Y35540000D01*
X8660000Y36390000D01*
X8900000Y36390000D01*
X8900000Y35540000D01*
G37*
G36*
X9225000Y37765000D02*
G01*
X9025000Y37765000D01*
X9025000Y37965000D01*
X9225000Y37965000D01*
X9225000Y37765000D01*
G37*
G36*
X9225000Y36965000D02*
G01*
X9025000Y36965000D01*
X9025000Y37165000D01*
X9225000Y37165000D01*
X9225000Y36965000D01*
G37*
G36*
X9400000Y38540000D02*
G01*
X9160000Y38540000D01*
X9160000Y39390000D01*
X9400000Y39390000D01*
X9400000Y38540000D01*
G37*
G36*
X9400000Y35540000D02*
G01*
X9160000Y35540000D01*
X9160000Y36390000D01*
X9400000Y36390000D01*
X9400000Y35540000D01*
G37*
G36*
X9900000Y38540000D02*
G01*
X9660000Y38540000D01*
X9660000Y39390000D01*
X9900000Y39390000D01*
X9900000Y38540000D01*
G37*
G36*
X9900000Y35540000D02*
G01*
X9660000Y35540000D01*
X9660000Y36390000D01*
X9900000Y36390000D01*
X9900000Y35540000D01*
G37*
G36*
X10025000Y37765000D02*
G01*
X9825000Y37765000D01*
X9825000Y37965000D01*
X10025000Y37965000D01*
X10025000Y37765000D01*
G37*
G36*
X10025000Y36965000D02*
G01*
X9825000Y36965000D01*
X9825000Y37165000D01*
X10025000Y37165000D01*
X10025000Y36965000D01*
G37*
G36*
X10400000Y38540000D02*
G01*
X10160000Y38540000D01*
X10160000Y39390000D01*
X10400000Y39390000D01*
X10400000Y38540000D01*
G37*
G36*
X10400000Y35540000D02*
G01*
X10160000Y35540000D01*
X10160000Y36390000D01*
X10400000Y36390000D01*
X10400000Y35540000D01*
G37*
G36*
X11450000Y38100000D02*
G01*
X10600000Y38100000D01*
X10600000Y38340000D01*
X11450000Y38340000D01*
X11450000Y38100000D01*
G37*
G36*
X11450000Y37600000D02*
G01*
X10600000Y37600000D01*
X10600000Y37840000D01*
X11450000Y37840000D01*
X11450000Y37600000D01*
G37*
G36*
X11450000Y37100000D02*
G01*
X10600000Y37100000D01*
X10600000Y37340000D01*
X11450000Y37340000D01*
X11450000Y37100000D01*
G37*
G36*
X11450000Y36600000D02*
G01*
X10600000Y36600000D01*
X10600000Y36840000D01*
X11450000Y36840000D01*
X11450000Y36600000D01*
G37*
G36*
X72450000Y92565000D02*
G01*
X71600000Y92565000D01*
X71600000Y92805000D01*
X72450000Y92805000D01*
X72450000Y92565000D01*
G37*
G36*
X72450000Y92065000D02*
G01*
X71600000Y92065000D01*
X71600000Y92305000D01*
X72450000Y92305000D01*
X72450000Y92065000D01*
G37*
G36*
X72450000Y91565000D02*
G01*
X71600000Y91565000D01*
X71600000Y91805000D01*
X72450000Y91805000D01*
X72450000Y91565000D01*
G37*
G36*
X72450000Y91065000D02*
G01*
X71600000Y91065000D01*
X71600000Y91305000D01*
X72450000Y91305000D01*
X72450000Y91065000D01*
G37*
G36*
X72900000Y93015000D02*
G01*
X72660000Y93015000D01*
X72660000Y93865000D01*
X72900000Y93865000D01*
X72900000Y93015000D01*
G37*
G36*
X72900000Y90015000D02*
G01*
X72660000Y90015000D01*
X72660000Y90865000D01*
X72900000Y90865000D01*
X72900000Y90015000D01*
G37*
G36*
X73225000Y92240000D02*
G01*
X73025000Y92240000D01*
X73025000Y92440000D01*
X73225000Y92440000D01*
X73225000Y92240000D01*
G37*
G36*
X73225000Y91440000D02*
G01*
X73025000Y91440000D01*
X73025000Y91640000D01*
X73225000Y91640000D01*
X73225000Y91440000D01*
G37*
G36*
X73400000Y93015000D02*
G01*
X73160000Y93015000D01*
X73160000Y93865000D01*
X73400000Y93865000D01*
X73400000Y93015000D01*
G37*
G36*
X73400000Y90015000D02*
G01*
X73160000Y90015000D01*
X73160000Y90865000D01*
X73400000Y90865000D01*
X73400000Y90015000D01*
G37*
G36*
X73900000Y93015000D02*
G01*
X73660000Y93015000D01*
X73660000Y93865000D01*
X73900000Y93865000D01*
X73900000Y93015000D01*
G37*
G36*
X73900000Y90015000D02*
G01*
X73660000Y90015000D01*
X73660000Y90865000D01*
X73900000Y90865000D01*
X73900000Y90015000D01*
G37*
G36*
X74025000Y92240000D02*
G01*
X73825000Y92240000D01*
X73825000Y92440000D01*
X74025000Y92440000D01*
X74025000Y92240000D01*
G37*
G36*
X74025000Y91440000D02*
G01*
X73825000Y91440000D01*
X73825000Y91640000D01*
X74025000Y91640000D01*
X74025000Y91440000D01*
G37*
G36*
X74400000Y93015000D02*
G01*
X74160000Y93015000D01*
X74160000Y93865000D01*
X74400000Y93865000D01*
X74400000Y93015000D01*
G37*
G36*
X74400000Y90015000D02*
G01*
X74160000Y90015000D01*
X74160000Y90865000D01*
X74400000Y90865000D01*
X74400000Y90015000D01*
G37*
G36*
X75450000Y92575000D02*
G01*
X74600000Y92575000D01*
X74600000Y92815000D01*
X75450000Y92815000D01*
X75450000Y92575000D01*
G37*
G36*
X75450000Y92075000D02*
G01*
X74600000Y92075000D01*
X74600000Y92315000D01*
X75450000Y92315000D01*
X75450000Y92075000D01*
G37*
G36*
X75450000Y91575000D02*
G01*
X74600000Y91575000D01*
X74600000Y91815000D01*
X75450000Y91815000D01*
X75450000Y91575000D01*
G37*
G36*
X75450000Y91075000D02*
G01*
X74600000Y91075000D01*
X74600000Y91315000D01*
X75450000Y91315000D01*
X75450000Y91075000D01*
G37*
G36*
X8450000Y147040000D02*
G01*
X7600000Y147040000D01*
X7600000Y147280000D01*
X8450000Y147280000D01*
X8450000Y147040000D01*
G37*
G36*
X8450000Y146540000D02*
G01*
X7600000Y146540000D01*
X7600000Y146780000D01*
X8450000Y146780000D01*
X8450000Y146540000D01*
G37*
G36*
X8450000Y146040000D02*
G01*
X7600000Y146040000D01*
X7600000Y146280000D01*
X8450000Y146280000D01*
X8450000Y146040000D01*
G37*
G36*
X8450000Y145540000D02*
G01*
X7600000Y145540000D01*
X7600000Y145780000D01*
X8450000Y145780000D01*
X8450000Y145540000D01*
G37*
G36*
X8900000Y147490000D02*
G01*
X8660000Y147490000D01*
X8660000Y148340000D01*
X8900000Y148340000D01*
X8900000Y147490000D01*
G37*
G36*
X8900000Y144490000D02*
G01*
X8660000Y144490000D01*
X8660000Y145340000D01*
X8900000Y145340000D01*
X8900000Y144490000D01*
G37*
G36*
X9225000Y146715000D02*
G01*
X9025000Y146715000D01*
X9025000Y146915000D01*
X9225000Y146915000D01*
X9225000Y146715000D01*
G37*
G36*
X9225000Y145915000D02*
G01*
X9025000Y145915000D01*
X9025000Y146115000D01*
X9225000Y146115000D01*
X9225000Y145915000D01*
G37*
G36*
X9400000Y147490000D02*
G01*
X9160000Y147490000D01*
X9160000Y148340000D01*
X9400000Y148340000D01*
X9400000Y147490000D01*
G37*
G36*
X9400000Y144490000D02*
G01*
X9160000Y144490000D01*
X9160000Y145340000D01*
X9400000Y145340000D01*
X9400000Y144490000D01*
G37*
G36*
X9900000Y147490000D02*
G01*
X9660000Y147490000D01*
X9660000Y148340000D01*
X9900000Y148340000D01*
X9900000Y147490000D01*
G37*
G36*
X9900000Y144490000D02*
G01*
X9660000Y144490000D01*
X9660000Y145340000D01*
X9900000Y145340000D01*
X9900000Y144490000D01*
G37*
G36*
X10025000Y146715000D02*
G01*
X9825000Y146715000D01*
X9825000Y146915000D01*
X10025000Y146915000D01*
X10025000Y146715000D01*
G37*
G36*
X10025000Y145915000D02*
G01*
X9825000Y145915000D01*
X9825000Y146115000D01*
X10025000Y146115000D01*
X10025000Y145915000D01*
G37*
G36*
X10400000Y147490000D02*
G01*
X10160000Y147490000D01*
X10160000Y148340000D01*
X10400000Y148340000D01*
X10400000Y147490000D01*
G37*
G36*
X10400000Y144490000D02*
G01*
X10160000Y144490000D01*
X10160000Y145340000D01*
X10400000Y145340000D01*
X10400000Y144490000D01*
G37*
G36*
X11450000Y147050000D02*
G01*
X10600000Y147050000D01*
X10600000Y147290000D01*
X11450000Y147290000D01*
X11450000Y147050000D01*
G37*
G36*
X11450000Y146550000D02*
G01*
X10600000Y146550000D01*
X10600000Y146790000D01*
X11450000Y146790000D01*
X11450000Y146550000D01*
G37*
G36*
X11450000Y146050000D02*
G01*
X10600000Y146050000D01*
X10600000Y146290000D01*
X11450000Y146290000D01*
X11450000Y146050000D01*
G37*
G36*
X11450000Y145550000D02*
G01*
X10600000Y145550000D01*
X10600000Y145790000D01*
X11450000Y145790000D01*
X11450000Y145550000D01*
G37*
G36*
X72450000Y38090000D02*
G01*
X71600000Y38090000D01*
X71600000Y38330000D01*
X72450000Y38330000D01*
X72450000Y38090000D01*
G37*
G36*
X72450000Y37590000D02*
G01*
X71600000Y37590000D01*
X71600000Y37830000D01*
X72450000Y37830000D01*
X72450000Y37590000D01*
G37*
G36*
X72450000Y37090000D02*
G01*
X71600000Y37090000D01*
X71600000Y37330000D01*
X72450000Y37330000D01*
X72450000Y37090000D01*
G37*
G36*
X72450000Y36590000D02*
G01*
X71600000Y36590000D01*
X71600000Y36830000D01*
X72450000Y36830000D01*
X72450000Y36590000D01*
G37*
G36*
X72900000Y38540000D02*
G01*
X72660000Y38540000D01*
X72660000Y39390000D01*
X72900000Y39390000D01*
X72900000Y38540000D01*
G37*
G36*
X72900000Y35540000D02*
G01*
X72660000Y35540000D01*
X72660000Y36390000D01*
X72900000Y36390000D01*
X72900000Y35540000D01*
G37*
G36*
X73225000Y37765000D02*
G01*
X73025000Y37765000D01*
X73025000Y37965000D01*
X73225000Y37965000D01*
X73225000Y37765000D01*
G37*
G36*
X73225000Y36965000D02*
G01*
X73025000Y36965000D01*
X73025000Y37165000D01*
X73225000Y37165000D01*
X73225000Y36965000D01*
G37*
G36*
X73400000Y38540000D02*
G01*
X73160000Y38540000D01*
X73160000Y39390000D01*
X73400000Y39390000D01*
X73400000Y38540000D01*
G37*
G36*
X73400000Y35540000D02*
G01*
X73160000Y35540000D01*
X73160000Y36390000D01*
X73400000Y36390000D01*
X73400000Y35540000D01*
G37*
G36*
X73900000Y38540000D02*
G01*
X73660000Y38540000D01*
X73660000Y39390000D01*
X73900000Y39390000D01*
X73900000Y38540000D01*
G37*
G36*
X73900000Y35540000D02*
G01*
X73660000Y35540000D01*
X73660000Y36390000D01*
X73900000Y36390000D01*
X73900000Y35540000D01*
G37*
G36*
X74025000Y37765000D02*
G01*
X73825000Y37765000D01*
X73825000Y37965000D01*
X74025000Y37965000D01*
X74025000Y37765000D01*
G37*
G36*
X74025000Y36965000D02*
G01*
X73825000Y36965000D01*
X73825000Y37165000D01*
X74025000Y37165000D01*
X74025000Y36965000D01*
G37*
G36*
X74400000Y38540000D02*
G01*
X74160000Y38540000D01*
X74160000Y39390000D01*
X74400000Y39390000D01*
X74400000Y38540000D01*
G37*
G36*
X74400000Y35540000D02*
G01*
X74160000Y35540000D01*
X74160000Y36390000D01*
X74400000Y36390000D01*
X74400000Y35540000D01*
G37*
G36*
X75450000Y38100000D02*
G01*
X74600000Y38100000D01*
X74600000Y38340000D01*
X75450000Y38340000D01*
X75450000Y38100000D01*
G37*
G36*
X75450000Y37600000D02*
G01*
X74600000Y37600000D01*
X74600000Y37840000D01*
X75450000Y37840000D01*
X75450000Y37600000D01*
G37*
G36*
X75450000Y37100000D02*
G01*
X74600000Y37100000D01*
X74600000Y37340000D01*
X75450000Y37340000D01*
X75450000Y37100000D01*
G37*
G36*
X75450000Y36600000D02*
G01*
X74600000Y36600000D01*
X74600000Y36840000D01*
X75450000Y36840000D01*
X75450000Y36600000D01*
G37*
G36*
X72450000Y147040000D02*
G01*
X71600000Y147040000D01*
X71600000Y147280000D01*
X72450000Y147280000D01*
X72450000Y147040000D01*
G37*
G36*
X72450000Y146540000D02*
G01*
X71600000Y146540000D01*
X71600000Y146780000D01*
X72450000Y146780000D01*
X72450000Y146540000D01*
G37*
G36*
X72450000Y146040000D02*
G01*
X71600000Y146040000D01*
X71600000Y146280000D01*
X72450000Y146280000D01*
X72450000Y146040000D01*
G37*
G36*
X72450000Y145540000D02*
G01*
X71600000Y145540000D01*
X71600000Y145780000D01*
X72450000Y145780000D01*
X72450000Y145540000D01*
G37*
G36*
X72900000Y147490000D02*
G01*
X72660000Y147490000D01*
X72660000Y148340000D01*
X72900000Y148340000D01*
X72900000Y147490000D01*
G37*
G36*
X72900000Y144490000D02*
G01*
X72660000Y144490000D01*
X72660000Y145340000D01*
X72900000Y145340000D01*
X72900000Y144490000D01*
G37*
G36*
X73225000Y146715000D02*
G01*
X73025000Y146715000D01*
X73025000Y146915000D01*
X73225000Y146915000D01*
X73225000Y146715000D01*
G37*
G36*
X73225000Y145915000D02*
G01*
X73025000Y145915000D01*
X73025000Y146115000D01*
X73225000Y146115000D01*
X73225000Y145915000D01*
G37*
G36*
X73400000Y147490000D02*
G01*
X73160000Y147490000D01*
X73160000Y148340000D01*
X73400000Y148340000D01*
X73400000Y147490000D01*
G37*
G36*
X73400000Y144490000D02*
G01*
X73160000Y144490000D01*
X73160000Y145340000D01*
X73400000Y145340000D01*
X73400000Y144490000D01*
G37*
G36*
X73900000Y147490000D02*
G01*
X73660000Y147490000D01*
X73660000Y148340000D01*
X73900000Y148340000D01*
X73900000Y147490000D01*
G37*
G36*
X73900000Y144490000D02*
G01*
X73660000Y144490000D01*
X73660000Y145340000D01*
X73900000Y145340000D01*
X73900000Y144490000D01*
G37*
G36*
X74025000Y146715000D02*
G01*
X73825000Y146715000D01*
X73825000Y146915000D01*
X74025000Y146915000D01*
X74025000Y146715000D01*
G37*
G36*
X74025000Y145915000D02*
G01*
X73825000Y145915000D01*
X73825000Y146115000D01*
X74025000Y146115000D01*
X74025000Y145915000D01*
G37*
G36*
X74400000Y147490000D02*
G01*
X74160000Y147490000D01*
X74160000Y148340000D01*
X74400000Y148340000D01*
X74400000Y147490000D01*
G37*
G36*
X74400000Y144490000D02*
G01*
X74160000Y144490000D01*
X74160000Y145340000D01*
X74400000Y145340000D01*
X74400000Y144490000D01*
G37*
G36*
X75450000Y147050000D02*
G01*
X74600000Y147050000D01*
X74600000Y147290000D01*
X75450000Y147290000D01*
X75450000Y147050000D01*
G37*
G36*
X75450000Y146550000D02*
G01*
X74600000Y146550000D01*
X74600000Y146790000D01*
X75450000Y146790000D01*
X75450000Y146550000D01*
G37*
G36*
X75450000Y146050000D02*
G01*
X74600000Y146050000D01*
X74600000Y146290000D01*
X75450000Y146290000D01*
X75450000Y146050000D01*
G37*
G36*
X75450000Y145550000D02*
G01*
X74600000Y145550000D01*
X74600000Y145790000D01*
X75450000Y145790000D01*
X75450000Y145550000D01*
G37*
G36*
X8450000Y92565000D02*
G01*
X7600000Y92565000D01*
X7600000Y92805000D01*
X8450000Y92805000D01*
X8450000Y92565000D01*
G37*
G36*
X8450000Y92065000D02*
G01*
X7600000Y92065000D01*
X7600000Y92305000D01*
X8450000Y92305000D01*
X8450000Y92065000D01*
G37*
G36*
X8450000Y91565000D02*
G01*
X7600000Y91565000D01*
X7600000Y91805000D01*
X8450000Y91805000D01*
X8450000Y91565000D01*
G37*
G36*
X8450000Y91065000D02*
G01*
X7600000Y91065000D01*
X7600000Y91305000D01*
X8450000Y91305000D01*
X8450000Y91065000D01*
G37*
G36*
X8900000Y93015000D02*
G01*
X8660000Y93015000D01*
X8660000Y93865000D01*
X8900000Y93865000D01*
X8900000Y93015000D01*
G37*
G36*
X8900000Y90015000D02*
G01*
X8660000Y90015000D01*
X8660000Y90865000D01*
X8900000Y90865000D01*
X8900000Y90015000D01*
G37*
G36*
X9225000Y92240000D02*
G01*
X9025000Y92240000D01*
X9025000Y92440000D01*
X9225000Y92440000D01*
X9225000Y92240000D01*
G37*
G36*
X9225000Y91440000D02*
G01*
X9025000Y91440000D01*
X9025000Y91640000D01*
X9225000Y91640000D01*
X9225000Y91440000D01*
G37*
G36*
X9400000Y93015000D02*
G01*
X9160000Y93015000D01*
X9160000Y93865000D01*
X9400000Y93865000D01*
X9400000Y93015000D01*
G37*
G36*
X9400000Y90015000D02*
G01*
X9160000Y90015000D01*
X9160000Y90865000D01*
X9400000Y90865000D01*
X9400000Y90015000D01*
G37*
G36*
X9900000Y93015000D02*
G01*
X9660000Y93015000D01*
X9660000Y93865000D01*
X9900000Y93865000D01*
X9900000Y93015000D01*
G37*
G36*
X9900000Y90015000D02*
G01*
X9660000Y90015000D01*
X9660000Y90865000D01*
X9900000Y90865000D01*
X9900000Y90015000D01*
G37*
G36*
X10025000Y92240000D02*
G01*
X9825000Y92240000D01*
X9825000Y92440000D01*
X10025000Y92440000D01*
X10025000Y92240000D01*
G37*
G36*
X10025000Y91440000D02*
G01*
X9825000Y91440000D01*
X9825000Y91640000D01*
X10025000Y91640000D01*
X10025000Y91440000D01*
G37*
G36*
X10400000Y93015000D02*
G01*
X10160000Y93015000D01*
X10160000Y93865000D01*
X10400000Y93865000D01*
X10400000Y93015000D01*
G37*
G36*
X10400000Y90015000D02*
G01*
X10160000Y90015000D01*
X10160000Y90865000D01*
X10400000Y90865000D01*
X10400000Y90015000D01*
G37*
G36*
X11450000Y92575000D02*
G01*
X10600000Y92575000D01*
X10600000Y92815000D01*
X11450000Y92815000D01*
X11450000Y92575000D01*
G37*
G36*
X11450000Y92075000D02*
G01*
X10600000Y92075000D01*
X10600000Y92315000D01*
X11450000Y92315000D01*
X11450000Y92075000D01*
G37*
G36*
X11450000Y91575000D02*
G01*
X10600000Y91575000D01*
X10600000Y91815000D01*
X11450000Y91815000D01*
X11450000Y91575000D01*
G37*
G36*
X11450000Y91075000D02*
G01*
X10600000Y91075000D01*
X10600000Y91315000D01*
X11450000Y91315000D01*
X11450000Y91075000D01*
G37*
%TO.C,U4*%
G36*
X9696000Y24361000D02*
G01*
X10996000Y24361000D01*
X10996000Y24661000D01*
X9696000Y24661000D01*
X9696000Y24361000D01*
G37*
G36*
X9936000Y24961000D02*
G01*
X11066000Y24961000D01*
X11066000Y25561000D01*
X9936000Y25561000D01*
X9936000Y24961000D01*
G37*
G36*
X9936000Y23461000D02*
G01*
X11066000Y23461000D01*
X11066000Y24061000D01*
X9936000Y24061000D01*
X9936000Y23461000D01*
G37*
G36*
X11436000Y25141000D02*
G01*
X11666000Y25141000D01*
X11666000Y25591000D01*
X11436000Y25591000D01*
X11436000Y25141000D01*
G37*
G36*
X11436000Y23431000D02*
G01*
X11666000Y23431000D01*
X11666000Y23881000D01*
X11436000Y23881000D01*
X11436000Y23431000D01*
G37*
G36*
X11886000Y25141000D02*
G01*
X12116000Y25141000D01*
X12116000Y25591000D01*
X11886000Y25591000D01*
X11886000Y25141000D01*
G37*
G36*
X11886000Y23431000D02*
G01*
X12116000Y23431000D01*
X12116000Y23881000D01*
X11886000Y23881000D01*
X11886000Y23431000D01*
G37*
G36*
X12336000Y25141000D02*
G01*
X12566000Y25141000D01*
X12566000Y25591000D01*
X12336000Y25591000D01*
X12336000Y25141000D01*
G37*
G36*
X12336000Y23431000D02*
G01*
X12566000Y23431000D01*
X12566000Y23881000D01*
X12336000Y23881000D01*
X12336000Y23431000D01*
G37*
G36*
X9696000Y78836000D02*
G01*
X10996000Y78836000D01*
X10996000Y79136000D01*
X9696000Y79136000D01*
X9696000Y78836000D01*
G37*
G36*
X9936000Y79436000D02*
G01*
X11066000Y79436000D01*
X11066000Y80036000D01*
X9936000Y80036000D01*
X9936000Y79436000D01*
G37*
G36*
X9936000Y77936000D02*
G01*
X11066000Y77936000D01*
X11066000Y78536000D01*
X9936000Y78536000D01*
X9936000Y77936000D01*
G37*
G36*
X11436000Y79616000D02*
G01*
X11666000Y79616000D01*
X11666000Y80066000D01*
X11436000Y80066000D01*
X11436000Y79616000D01*
G37*
G36*
X11436000Y77906000D02*
G01*
X11666000Y77906000D01*
X11666000Y78356000D01*
X11436000Y78356000D01*
X11436000Y77906000D01*
G37*
G36*
X11886000Y79616000D02*
G01*
X12116000Y79616000D01*
X12116000Y80066000D01*
X11886000Y80066000D01*
X11886000Y79616000D01*
G37*
G36*
X11886000Y77906000D02*
G01*
X12116000Y77906000D01*
X12116000Y78356000D01*
X11886000Y78356000D01*
X11886000Y77906000D01*
G37*
G36*
X12336000Y79616000D02*
G01*
X12566000Y79616000D01*
X12566000Y80066000D01*
X12336000Y80066000D01*
X12336000Y79616000D01*
G37*
G36*
X12336000Y77906000D02*
G01*
X12566000Y77906000D01*
X12566000Y78356000D01*
X12336000Y78356000D01*
X12336000Y77906000D01*
G37*
G36*
X73696000Y24361000D02*
G01*
X74996000Y24361000D01*
X74996000Y24661000D01*
X73696000Y24661000D01*
X73696000Y24361000D01*
G37*
G36*
X73936000Y24961000D02*
G01*
X75066000Y24961000D01*
X75066000Y25561000D01*
X73936000Y25561000D01*
X73936000Y24961000D01*
G37*
G36*
X73936000Y23461000D02*
G01*
X75066000Y23461000D01*
X75066000Y24061000D01*
X73936000Y24061000D01*
X73936000Y23461000D01*
G37*
G36*
X75436000Y25141000D02*
G01*
X75666000Y25141000D01*
X75666000Y25591000D01*
X75436000Y25591000D01*
X75436000Y25141000D01*
G37*
G36*
X75436000Y23431000D02*
G01*
X75666000Y23431000D01*
X75666000Y23881000D01*
X75436000Y23881000D01*
X75436000Y23431000D01*
G37*
G36*
X75886000Y25141000D02*
G01*
X76116000Y25141000D01*
X76116000Y25591000D01*
X75886000Y25591000D01*
X75886000Y25141000D01*
G37*
G36*
X75886000Y23431000D02*
G01*
X76116000Y23431000D01*
X76116000Y23881000D01*
X75886000Y23881000D01*
X75886000Y23431000D01*
G37*
G36*
X76336000Y25141000D02*
G01*
X76566000Y25141000D01*
X76566000Y25591000D01*
X76336000Y25591000D01*
X76336000Y25141000D01*
G37*
G36*
X76336000Y23431000D02*
G01*
X76566000Y23431000D01*
X76566000Y23881000D01*
X76336000Y23881000D01*
X76336000Y23431000D01*
G37*
G36*
X73696000Y133311000D02*
G01*
X74996000Y133311000D01*
X74996000Y133611000D01*
X73696000Y133611000D01*
X73696000Y133311000D01*
G37*
G36*
X73936000Y133911000D02*
G01*
X75066000Y133911000D01*
X75066000Y134511000D01*
X73936000Y134511000D01*
X73936000Y133911000D01*
G37*
G36*
X73936000Y132411000D02*
G01*
X75066000Y132411000D01*
X75066000Y133011000D01*
X73936000Y133011000D01*
X73936000Y132411000D01*
G37*
G36*
X75436000Y134091000D02*
G01*
X75666000Y134091000D01*
X75666000Y134541000D01*
X75436000Y134541000D01*
X75436000Y134091000D01*
G37*
G36*
X75436000Y132381000D02*
G01*
X75666000Y132381000D01*
X75666000Y132831000D01*
X75436000Y132831000D01*
X75436000Y132381000D01*
G37*
G36*
X75886000Y134091000D02*
G01*
X76116000Y134091000D01*
X76116000Y134541000D01*
X75886000Y134541000D01*
X75886000Y134091000D01*
G37*
G36*
X75886000Y132381000D02*
G01*
X76116000Y132381000D01*
X76116000Y132831000D01*
X75886000Y132831000D01*
X75886000Y132381000D01*
G37*
G36*
X76336000Y134091000D02*
G01*
X76566000Y134091000D01*
X76566000Y134541000D01*
X76336000Y134541000D01*
X76336000Y134091000D01*
G37*
G36*
X76336000Y132381000D02*
G01*
X76566000Y132381000D01*
X76566000Y132831000D01*
X76336000Y132831000D01*
X76336000Y132381000D01*
G37*
G36*
X9696000Y133311000D02*
G01*
X10996000Y133311000D01*
X10996000Y133611000D01*
X9696000Y133611000D01*
X9696000Y133311000D01*
G37*
G36*
X9936000Y133911000D02*
G01*
X11066000Y133911000D01*
X11066000Y134511000D01*
X9936000Y134511000D01*
X9936000Y133911000D01*
G37*
G36*
X9936000Y132411000D02*
G01*
X11066000Y132411000D01*
X11066000Y133011000D01*
X9936000Y133011000D01*
X9936000Y132411000D01*
G37*
G36*
X11436000Y134091000D02*
G01*
X11666000Y134091000D01*
X11666000Y134541000D01*
X11436000Y134541000D01*
X11436000Y134091000D01*
G37*
G36*
X11436000Y132381000D02*
G01*
X11666000Y132381000D01*
X11666000Y132831000D01*
X11436000Y132831000D01*
X11436000Y132381000D01*
G37*
G36*
X11886000Y134091000D02*
G01*
X12116000Y134091000D01*
X12116000Y134541000D01*
X11886000Y134541000D01*
X11886000Y134091000D01*
G37*
G36*
X11886000Y132381000D02*
G01*
X12116000Y132381000D01*
X12116000Y132831000D01*
X11886000Y132831000D01*
X11886000Y132381000D01*
G37*
G36*
X12336000Y134091000D02*
G01*
X12566000Y134091000D01*
X12566000Y134541000D01*
X12336000Y134541000D01*
X12336000Y134091000D01*
G37*
G36*
X12336000Y132381000D02*
G01*
X12566000Y132381000D01*
X12566000Y132831000D01*
X12336000Y132831000D01*
X12336000Y132381000D01*
G37*
G36*
X73696000Y78836000D02*
G01*
X74996000Y78836000D01*
X74996000Y79136000D01*
X73696000Y79136000D01*
X73696000Y78836000D01*
G37*
G36*
X73936000Y79436000D02*
G01*
X75066000Y79436000D01*
X75066000Y80036000D01*
X73936000Y80036000D01*
X73936000Y79436000D01*
G37*
G36*
X73936000Y77936000D02*
G01*
X75066000Y77936000D01*
X75066000Y78536000D01*
X73936000Y78536000D01*
X73936000Y77936000D01*
G37*
G36*
X75436000Y79616000D02*
G01*
X75666000Y79616000D01*
X75666000Y80066000D01*
X75436000Y80066000D01*
X75436000Y79616000D01*
G37*
G36*
X75436000Y77906000D02*
G01*
X75666000Y77906000D01*
X75666000Y78356000D01*
X75436000Y78356000D01*
X75436000Y77906000D01*
G37*
G36*
X75886000Y79616000D02*
G01*
X76116000Y79616000D01*
X76116000Y80066000D01*
X75886000Y80066000D01*
X75886000Y79616000D01*
G37*
G36*
X75886000Y77906000D02*
G01*
X76116000Y77906000D01*
X76116000Y78356000D01*
X75886000Y78356000D01*
X75886000Y77906000D01*
G37*
G36*
X76336000Y79616000D02*
G01*
X76566000Y79616000D01*
X76566000Y80066000D01*
X76336000Y80066000D01*
X76336000Y79616000D01*
G37*
G36*
X76336000Y77906000D02*
G01*
X76566000Y77906000D01*
X76566000Y78356000D01*
X76336000Y78356000D01*
X76336000Y77906000D01*
G37*
%TD*%
D11*
%TO.C,C14*%
X26797000Y19276000D03*
X26797000Y18316000D03*
%TD*%
%TO.C,C14*%
X90797000Y128226000D03*
X90797000Y127266000D03*
%TD*%
%TO.C,C14*%
X26797000Y128226000D03*
X26797000Y127266000D03*
%TD*%
%TO.C,C14*%
X90797000Y19276000D03*
X90797000Y18316000D03*
%TD*%
%TO.C,C14*%
X26797000Y73751000D03*
X26797000Y72791000D03*
%TD*%
%TO.C,C14*%
X90797000Y73751000D03*
X90797000Y72791000D03*
%TD*%
D12*
%TO.C,R39*%
X6729000Y21717000D03*
X7749000Y21717000D03*
%TD*%
%TO.C,R39*%
X70729000Y130667000D03*
X71749000Y130667000D03*
%TD*%
%TO.C,R39*%
X70729000Y21717000D03*
X71749000Y21717000D03*
%TD*%
%TO.C,R39*%
X6729000Y130667000D03*
X7749000Y130667000D03*
%TD*%
%TO.C,R39*%
X70729000Y76192000D03*
X71749000Y76192000D03*
%TD*%
%TO.C,R39*%
X6729000Y76192000D03*
X7749000Y76192000D03*
%TD*%
D13*
%TO.C,Q3*%
X14320000Y22240000D03*
X14320000Y21590000D03*
X14320000Y20940000D03*
X16160000Y20940000D03*
X16160000Y21590000D03*
X16160000Y22240000D03*
%TD*%
%TO.C,Q3*%
X78320000Y22240000D03*
X78320000Y21590000D03*
X78320000Y20940000D03*
X80160000Y20940000D03*
X80160000Y21590000D03*
X80160000Y22240000D03*
%TD*%
%TO.C,Q3*%
X14320000Y76715000D03*
X14320000Y76065000D03*
X14320000Y75415000D03*
X16160000Y75415000D03*
X16160000Y76065000D03*
X16160000Y76715000D03*
%TD*%
%TO.C,Q3*%
X14320000Y131190000D03*
X14320000Y130540000D03*
X14320000Y129890000D03*
X16160000Y129890000D03*
X16160000Y130540000D03*
X16160000Y131190000D03*
%TD*%
%TO.C,Q3*%
X78320000Y131190000D03*
X78320000Y130540000D03*
X78320000Y129890000D03*
X80160000Y129890000D03*
X80160000Y130540000D03*
X80160000Y131190000D03*
%TD*%
%TO.C,Q3*%
X78320000Y76715000D03*
X78320000Y76065000D03*
X78320000Y75415000D03*
X80160000Y75415000D03*
X80160000Y76065000D03*
X80160000Y76715000D03*
%TD*%
D14*
%TO.C,D5*%
X29530000Y10129900D03*
X30480000Y10129900D03*
X31430000Y10129900D03*
X31430000Y12730100D03*
X30480000Y12730000D03*
X29530000Y12730100D03*
%TD*%
%TO.C,D5*%
X93530000Y119079900D03*
X94480000Y119079900D03*
X95430000Y119079900D03*
X95430000Y121680100D03*
X94480000Y121680000D03*
X93530000Y121680100D03*
%TD*%
%TO.C,D5*%
X29530000Y64604900D03*
X30480000Y64604900D03*
X31430000Y64604900D03*
X31430000Y67205100D03*
X30480000Y67205000D03*
X29530000Y67205100D03*
%TD*%
%TO.C,D5*%
X93530000Y10129900D03*
X94480000Y10129900D03*
X95430000Y10129900D03*
X95430000Y12730100D03*
X94480000Y12730000D03*
X93530000Y12730100D03*
%TD*%
%TO.C,D5*%
X29530000Y119079900D03*
X30480000Y119079900D03*
X31430000Y119079900D03*
X31430000Y121680100D03*
X30480000Y121680000D03*
X29530000Y121680100D03*
%TD*%
%TO.C,D5*%
X93530000Y64604900D03*
X94480000Y64604900D03*
X95430000Y64604900D03*
X95430000Y67205100D03*
X94480000Y67205000D03*
X93530000Y67205100D03*
%TD*%
D15*
%TO.C,U6*%
X45815000Y23610000D03*
X45815000Y23110000D03*
X45815000Y22610000D03*
X45815000Y22110000D03*
D16*
X46490000Y21935000D03*
X46990000Y21935000D03*
X47490000Y21935000D03*
D15*
X48165000Y22110000D03*
X48165000Y22610000D03*
X48165000Y23110000D03*
X48165000Y23610000D03*
D16*
X47490000Y23785000D03*
X46990000Y23785000D03*
X46490000Y23785000D03*
%TD*%
D15*
%TO.C,U6*%
X109815000Y78085000D03*
X109815000Y77585000D03*
X109815000Y77085000D03*
X109815000Y76585000D03*
D16*
X110490000Y76410000D03*
X110990000Y76410000D03*
X111490000Y76410000D03*
D15*
X112165000Y76585000D03*
X112165000Y77085000D03*
X112165000Y77585000D03*
X112165000Y78085000D03*
D16*
X111490000Y78260000D03*
X110990000Y78260000D03*
X110490000Y78260000D03*
%TD*%
D15*
%TO.C,U6*%
X45815000Y132560000D03*
X45815000Y132060000D03*
X45815000Y131560000D03*
X45815000Y131060000D03*
D16*
X46490000Y130885000D03*
X46990000Y130885000D03*
X47490000Y130885000D03*
D15*
X48165000Y131060000D03*
X48165000Y131560000D03*
X48165000Y132060000D03*
X48165000Y132560000D03*
D16*
X47490000Y132735000D03*
X46990000Y132735000D03*
X46490000Y132735000D03*
%TD*%
D15*
%TO.C,U6*%
X109815000Y23610000D03*
X109815000Y23110000D03*
X109815000Y22610000D03*
X109815000Y22110000D03*
D16*
X110490000Y21935000D03*
X110990000Y21935000D03*
X111490000Y21935000D03*
D15*
X112165000Y22110000D03*
X112165000Y22610000D03*
X112165000Y23110000D03*
X112165000Y23610000D03*
D16*
X111490000Y23785000D03*
X110990000Y23785000D03*
X110490000Y23785000D03*
%TD*%
D15*
%TO.C,U6*%
X45815000Y78085000D03*
X45815000Y77585000D03*
X45815000Y77085000D03*
X45815000Y76585000D03*
D16*
X46490000Y76410000D03*
X46990000Y76410000D03*
X47490000Y76410000D03*
D15*
X48165000Y76585000D03*
X48165000Y77085000D03*
X48165000Y77585000D03*
X48165000Y78085000D03*
D16*
X47490000Y78260000D03*
X46990000Y78260000D03*
X46490000Y78260000D03*
%TD*%
D15*
%TO.C,U6*%
X109815000Y132560000D03*
X109815000Y132060000D03*
X109815000Y131560000D03*
X109815000Y131060000D03*
D16*
X110490000Y130885000D03*
X110990000Y130885000D03*
X111490000Y130885000D03*
D15*
X112165000Y131060000D03*
X112165000Y131560000D03*
X112165000Y132060000D03*
X112165000Y132560000D03*
D16*
X111490000Y132735000D03*
X110990000Y132735000D03*
X110490000Y132735000D03*
%TD*%
D17*
%TO.C,L1*%
X29477800Y16891000D03*
X28027800Y16891000D03*
%TD*%
%TO.C,L1*%
X29477800Y71366000D03*
X28027800Y71366000D03*
%TD*%
%TO.C,L1*%
X93477800Y16891000D03*
X92027800Y16891000D03*
%TD*%
%TO.C,L1*%
X93477800Y71366000D03*
X92027800Y71366000D03*
%TD*%
%TO.C,L1*%
X93477800Y125841000D03*
X92027800Y125841000D03*
%TD*%
%TO.C,L1*%
X29477800Y125841000D03*
X28027800Y125841000D03*
%TD*%
D12*
%TO.C,R47*%
X4824000Y25019000D03*
X5844000Y25019000D03*
%TD*%
%TO.C,R47*%
X4824000Y79494000D03*
X5844000Y79494000D03*
%TD*%
%TO.C,R47*%
X68824000Y25019000D03*
X69844000Y25019000D03*
%TD*%
%TO.C,R47*%
X4824000Y133969000D03*
X5844000Y133969000D03*
%TD*%
%TO.C,R47*%
X68824000Y79494000D03*
X69844000Y79494000D03*
%TD*%
%TO.C,R47*%
X68824000Y133969000D03*
X69844000Y133969000D03*
%TD*%
D18*
%TO.C,C31*%
X50800000Y6505000D03*
X50800000Y7465000D03*
%TD*%
%TO.C,C31*%
X50800000Y115455000D03*
X50800000Y116415000D03*
%TD*%
%TO.C,C31*%
X50800000Y60980000D03*
X50800000Y61940000D03*
%TD*%
%TO.C,C31*%
X114800000Y115455000D03*
X114800000Y116415000D03*
%TD*%
%TO.C,C31*%
X114800000Y60980000D03*
X114800000Y61940000D03*
%TD*%
%TO.C,C31*%
X114800000Y6505000D03*
X114800000Y7465000D03*
%TD*%
D19*
%TO.C,R10*%
X55120000Y43815000D03*
X54100000Y43815000D03*
%TD*%
%TO.C,R10*%
X55120000Y98290000D03*
X54100000Y98290000D03*
%TD*%
%TO.C,R10*%
X119120000Y152765000D03*
X118100000Y152765000D03*
%TD*%
%TO.C,R10*%
X55120000Y152765000D03*
X54100000Y152765000D03*
%TD*%
%TO.C,R10*%
X119120000Y43815000D03*
X118100000Y43815000D03*
%TD*%
%TO.C,R10*%
X119120000Y98290000D03*
X118100000Y98290000D03*
%TD*%
D20*
%TO.C,R36*%
X49530000Y16385000D03*
X49530000Y15365000D03*
%TD*%
%TO.C,R36*%
X113530000Y16385000D03*
X113530000Y15365000D03*
%TD*%
%TO.C,R36*%
X49530000Y70860000D03*
X49530000Y69840000D03*
%TD*%
%TO.C,R36*%
X113530000Y125335000D03*
X113530000Y124315000D03*
%TD*%
%TO.C,R36*%
X49530000Y125335000D03*
X49530000Y124315000D03*
%TD*%
%TO.C,R36*%
X113530000Y70860000D03*
X113530000Y69840000D03*
%TD*%
D21*
%TO.C,C24*%
X16002000Y26096000D03*
X16002000Y24196000D03*
%TD*%
%TO.C,C24*%
X16002000Y135046000D03*
X16002000Y133146000D03*
%TD*%
%TO.C,C24*%
X80002000Y80571000D03*
X80002000Y78671000D03*
%TD*%
%TO.C,C24*%
X80002000Y26096000D03*
X80002000Y24196000D03*
%TD*%
%TO.C,C24*%
X16002000Y80571000D03*
X16002000Y78671000D03*
%TD*%
%TO.C,C24*%
X80002000Y135046000D03*
X80002000Y133146000D03*
%TD*%
D12*
%TO.C,R26*%
X49655000Y30861000D03*
X50675000Y30861000D03*
%TD*%
%TO.C,R26*%
X49655000Y139811000D03*
X50675000Y139811000D03*
%TD*%
%TO.C,R26*%
X49655000Y85336000D03*
X50675000Y85336000D03*
%TD*%
%TO.C,R26*%
X113655000Y30861000D03*
X114675000Y30861000D03*
%TD*%
%TO.C,R26*%
X113655000Y85336000D03*
X114675000Y85336000D03*
%TD*%
%TO.C,R26*%
X113655000Y139811000D03*
X114675000Y139811000D03*
%TD*%
D22*
%TO.C,Q5*%
X46340000Y12415000D03*
X46990000Y12415000D03*
X47640000Y12415000D03*
X47640000Y14255000D03*
X46990000Y14255000D03*
X46340000Y14255000D03*
%TD*%
%TO.C,Q5*%
X110340000Y66890000D03*
X110990000Y66890000D03*
X111640000Y66890000D03*
X111640000Y68730000D03*
X110990000Y68730000D03*
X110340000Y68730000D03*
%TD*%
%TO.C,Q5*%
X110340000Y12415000D03*
X110990000Y12415000D03*
X111640000Y12415000D03*
X111640000Y14255000D03*
X110990000Y14255000D03*
X110340000Y14255000D03*
%TD*%
%TO.C,Q5*%
X46340000Y66890000D03*
X46990000Y66890000D03*
X47640000Y66890000D03*
X47640000Y68730000D03*
X46990000Y68730000D03*
X46340000Y68730000D03*
%TD*%
%TO.C,Q5*%
X46340000Y121365000D03*
X46990000Y121365000D03*
X47640000Y121365000D03*
X47640000Y123205000D03*
X46990000Y123205000D03*
X46340000Y123205000D03*
%TD*%
%TO.C,Q5*%
X110340000Y121365000D03*
X110990000Y121365000D03*
X111640000Y121365000D03*
X111640000Y123205000D03*
X110990000Y123205000D03*
X110340000Y123205000D03*
%TD*%
D19*
%TO.C,R44*%
X50675000Y29845000D03*
X49655000Y29845000D03*
%TD*%
%TO.C,R44*%
X114675000Y29845000D03*
X113655000Y29845000D03*
%TD*%
%TO.C,R44*%
X50675000Y84320000D03*
X49655000Y84320000D03*
%TD*%
%TO.C,R44*%
X114675000Y138795000D03*
X113655000Y138795000D03*
%TD*%
%TO.C,R44*%
X50675000Y138795000D03*
X49655000Y138795000D03*
%TD*%
%TO.C,R44*%
X114675000Y84320000D03*
X113655000Y84320000D03*
%TD*%
D20*
%TO.C,R3*%
X32258000Y34165000D03*
X32258000Y33145000D03*
%TD*%
%TO.C,R3*%
X32258000Y88640000D03*
X32258000Y87620000D03*
%TD*%
%TO.C,R3*%
X96258000Y34165000D03*
X96258000Y33145000D03*
%TD*%
%TO.C,R3*%
X96258000Y88640000D03*
X96258000Y87620000D03*
%TD*%
%TO.C,R3*%
X32258000Y143115000D03*
X32258000Y142095000D03*
%TD*%
%TO.C,R3*%
X96258000Y143115000D03*
X96258000Y142095000D03*
%TD*%
D21*
%TO.C,C41*%
X58420000Y21905000D03*
X58420000Y20005000D03*
%TD*%
%TO.C,C41*%
X122420000Y21905000D03*
X122420000Y20005000D03*
%TD*%
%TO.C,C41*%
X122420000Y76380000D03*
X122420000Y74480000D03*
%TD*%
%TO.C,C41*%
X58420000Y130855000D03*
X58420000Y128955000D03*
%TD*%
%TO.C,C41*%
X122420000Y130855000D03*
X122420000Y128955000D03*
%TD*%
%TO.C,C41*%
X58420000Y76380000D03*
X58420000Y74480000D03*
%TD*%
D23*
%TO.C,Q4*%
X13065000Y20640000D03*
X13065000Y22540000D03*
X10965000Y21590000D03*
%TD*%
%TO.C,Q4*%
X13065000Y129590000D03*
X13065000Y131490000D03*
X10965000Y130540000D03*
%TD*%
%TO.C,Q4*%
X77065000Y20640000D03*
X77065000Y22540000D03*
X74965000Y21590000D03*
%TD*%
%TO.C,Q4*%
X77065000Y129590000D03*
X77065000Y131490000D03*
X74965000Y130540000D03*
%TD*%
%TO.C,Q4*%
X13065000Y75115000D03*
X13065000Y77015000D03*
X10965000Y76065000D03*
%TD*%
%TO.C,Q4*%
X77065000Y75115000D03*
X77065000Y77015000D03*
X74965000Y76065000D03*
%TD*%
D11*
%TO.C,C17*%
X37592000Y34008000D03*
X37592000Y33048000D03*
%TD*%
%TO.C,C17*%
X101592000Y34008000D03*
X101592000Y33048000D03*
%TD*%
%TO.C,C17*%
X101592000Y88483000D03*
X101592000Y87523000D03*
%TD*%
%TO.C,C17*%
X101592000Y142958000D03*
X101592000Y141998000D03*
%TD*%
%TO.C,C17*%
X37592000Y142958000D03*
X37592000Y141998000D03*
%TD*%
%TO.C,C17*%
X37592000Y88483000D03*
X37592000Y87523000D03*
%TD*%
D20*
%TO.C,R35*%
X47625000Y16385000D03*
X47625000Y15365000D03*
%TD*%
%TO.C,R35*%
X47625000Y70860000D03*
X47625000Y69840000D03*
%TD*%
%TO.C,R35*%
X111625000Y16385000D03*
X111625000Y15365000D03*
%TD*%
%TO.C,R35*%
X111625000Y70860000D03*
X111625000Y69840000D03*
%TD*%
%TO.C,R35*%
X111625000Y125335000D03*
X111625000Y124315000D03*
%TD*%
%TO.C,R35*%
X47625000Y125335000D03*
X47625000Y124315000D03*
%TD*%
D19*
%TO.C,R1*%
X25656000Y23241000D03*
X24636000Y23241000D03*
%TD*%
%TO.C,R1*%
X89656000Y132191000D03*
X88636000Y132191000D03*
%TD*%
%TO.C,R1*%
X25656000Y132191000D03*
X24636000Y132191000D03*
%TD*%
%TO.C,R1*%
X25656000Y77716000D03*
X24636000Y77716000D03*
%TD*%
%TO.C,R1*%
X89656000Y23241000D03*
X88636000Y23241000D03*
%TD*%
%TO.C,R1*%
X89656000Y77716000D03*
X88636000Y77716000D03*
%TD*%
D14*
%TO.C,U5*%
X51120000Y21559900D03*
X52070000Y21559900D03*
X53020000Y21559900D03*
X53020000Y24160100D03*
X51120000Y24160100D03*
%TD*%
%TO.C,U5*%
X115120000Y21559900D03*
X116070000Y21559900D03*
X117020000Y21559900D03*
X117020000Y24160100D03*
X115120000Y24160100D03*
%TD*%
%TO.C,U5*%
X115120000Y130509900D03*
X116070000Y130509900D03*
X117020000Y130509900D03*
X117020000Y133110100D03*
X115120000Y133110100D03*
%TD*%
%TO.C,U5*%
X51120000Y76034900D03*
X52070000Y76034900D03*
X53020000Y76034900D03*
X53020000Y78635100D03*
X51120000Y78635100D03*
%TD*%
%TO.C,U5*%
X51120000Y130509900D03*
X52070000Y130509900D03*
X53020000Y130509900D03*
X53020000Y133110100D03*
X51120000Y133110100D03*
%TD*%
%TO.C,U5*%
X115120000Y76034900D03*
X116070000Y76034900D03*
X117020000Y76034900D03*
X117020000Y78635100D03*
X115120000Y78635100D03*
%TD*%
D24*
%TO.C,C10*%
X37874000Y25146000D03*
X38834000Y25146000D03*
%TD*%
%TO.C,C10*%
X37874000Y79621000D03*
X38834000Y79621000D03*
%TD*%
%TO.C,C10*%
X101874000Y25146000D03*
X102834000Y25146000D03*
%TD*%
%TO.C,C10*%
X101874000Y134096000D03*
X102834000Y134096000D03*
%TD*%
%TO.C,C10*%
X101874000Y79621000D03*
X102834000Y79621000D03*
%TD*%
%TO.C,C10*%
X37874000Y134096000D03*
X38834000Y134096000D03*
%TD*%
D25*
%TO.C,Q9*%
X6924000Y22876000D03*
X8824000Y22876000D03*
X7874000Y24976000D03*
%TD*%
%TO.C,Q9*%
X70924000Y22876000D03*
X72824000Y22876000D03*
X71874000Y24976000D03*
%TD*%
%TO.C,Q9*%
X6924000Y131826000D03*
X8824000Y131826000D03*
X7874000Y133926000D03*
%TD*%
%TO.C,Q9*%
X6924000Y77351000D03*
X8824000Y77351000D03*
X7874000Y79451000D03*
%TD*%
%TO.C,Q9*%
X70924000Y77351000D03*
X72824000Y77351000D03*
X71874000Y79451000D03*
%TD*%
%TO.C,Q9*%
X70924000Y131826000D03*
X72824000Y131826000D03*
X71874000Y133926000D03*
%TD*%
D24*
%TO.C,C5*%
X32667000Y31496000D03*
X33627000Y31496000D03*
%TD*%
%TO.C,C5*%
X32667000Y140446000D03*
X33627000Y140446000D03*
%TD*%
%TO.C,C5*%
X96667000Y31496000D03*
X97627000Y31496000D03*
%TD*%
%TO.C,C5*%
X96667000Y85971000D03*
X97627000Y85971000D03*
%TD*%
%TO.C,C5*%
X32667000Y85971000D03*
X33627000Y85971000D03*
%TD*%
%TO.C,C5*%
X96667000Y140446000D03*
X97627000Y140446000D03*
%TD*%
D26*
%TO.C,C43*%
X11910000Y34671000D03*
X10950000Y34671000D03*
%TD*%
%TO.C,C43*%
X75910000Y89146000D03*
X74950000Y89146000D03*
%TD*%
%TO.C,C43*%
X11910000Y89146000D03*
X10950000Y89146000D03*
%TD*%
%TO.C,C43*%
X75910000Y34671000D03*
X74950000Y34671000D03*
%TD*%
%TO.C,C43*%
X75910000Y143621000D03*
X74950000Y143621000D03*
%TD*%
%TO.C,C43*%
X11910000Y143621000D03*
X10950000Y143621000D03*
%TD*%
D27*
%TO.C,C21*%
X8382000Y26355000D03*
X8382000Y28255000D03*
%TD*%
%TO.C,C21*%
X8382000Y80830000D03*
X8382000Y82730000D03*
%TD*%
%TO.C,C21*%
X8382000Y135305000D03*
X8382000Y137205000D03*
%TD*%
%TO.C,C21*%
X72382000Y26355000D03*
X72382000Y28255000D03*
%TD*%
%TO.C,C21*%
X72382000Y80830000D03*
X72382000Y82730000D03*
%TD*%
%TO.C,C21*%
X72382000Y135305000D03*
X72382000Y137205000D03*
%TD*%
D28*
%TO.C,SW4*%
X56045000Y5225000D03*
X56045000Y1125000D03*
X54445000Y5225000D03*
X54445000Y1125000D03*
%TD*%
%TO.C,SW4*%
X120045000Y5225000D03*
X120045000Y1125000D03*
X118445000Y5225000D03*
X118445000Y1125000D03*
%TD*%
%TO.C,SW4*%
X56045000Y114175000D03*
X56045000Y110075000D03*
X54445000Y114175000D03*
X54445000Y110075000D03*
%TD*%
%TO.C,SW4*%
X120045000Y59700000D03*
X120045000Y55600000D03*
X118445000Y59700000D03*
X118445000Y55600000D03*
%TD*%
%TO.C,SW4*%
X56045000Y59700000D03*
X56045000Y55600000D03*
X54445000Y59700000D03*
X54445000Y55600000D03*
%TD*%
%TO.C,SW4*%
X120045000Y114175000D03*
X120045000Y110075000D03*
X118445000Y114175000D03*
X118445000Y110075000D03*
%TD*%
D24*
%TO.C,C45*%
X51590000Y36449000D03*
X52550000Y36449000D03*
%TD*%
%TO.C,C45*%
X115590000Y145399000D03*
X116550000Y145399000D03*
%TD*%
%TO.C,C45*%
X51590000Y145399000D03*
X52550000Y145399000D03*
%TD*%
%TO.C,C45*%
X51590000Y90924000D03*
X52550000Y90924000D03*
%TD*%
%TO.C,C45*%
X115590000Y36449000D03*
X116550000Y36449000D03*
%TD*%
%TO.C,C45*%
X115590000Y90924000D03*
X116550000Y90924000D03*
%TD*%
D19*
%TO.C,R24*%
X13845000Y40259000D03*
X12825000Y40259000D03*
%TD*%
%TO.C,R24*%
X13845000Y94734000D03*
X12825000Y94734000D03*
%TD*%
%TO.C,R24*%
X13845000Y149209000D03*
X12825000Y149209000D03*
%TD*%
%TO.C,R24*%
X77845000Y40259000D03*
X76825000Y40259000D03*
%TD*%
%TO.C,R24*%
X77845000Y94734000D03*
X76825000Y94734000D03*
%TD*%
%TO.C,R24*%
X77845000Y149209000D03*
X76825000Y149209000D03*
%TD*%
D29*
%TO.C,J12*%
X8014000Y51665000D03*
X8014000Y50665000D03*
X8014000Y49665000D03*
X8014000Y48665000D03*
D30*
X10439000Y52965000D03*
X10439000Y47365000D03*
%TD*%
D29*
%TO.C,J12*%
X72014000Y51665000D03*
X72014000Y50665000D03*
X72014000Y49665000D03*
X72014000Y48665000D03*
D30*
X74439000Y52965000D03*
X74439000Y47365000D03*
%TD*%
D29*
%TO.C,J12*%
X8014000Y160615000D03*
X8014000Y159615000D03*
X8014000Y158615000D03*
X8014000Y157615000D03*
D30*
X10439000Y161915000D03*
X10439000Y156315000D03*
%TD*%
D29*
%TO.C,J12*%
X72014000Y160615000D03*
X72014000Y159615000D03*
X72014000Y158615000D03*
X72014000Y157615000D03*
D30*
X74439000Y161915000D03*
X74439000Y156315000D03*
%TD*%
D29*
%TO.C,J12*%
X8014000Y106140000D03*
X8014000Y105140000D03*
X8014000Y104140000D03*
X8014000Y103140000D03*
D30*
X10439000Y107440000D03*
X10439000Y101840000D03*
%TD*%
D29*
%TO.C,J12*%
X72014000Y106140000D03*
X72014000Y105140000D03*
X72014000Y104140000D03*
X72014000Y103140000D03*
D30*
X74439000Y107440000D03*
X74439000Y101840000D03*
%TD*%
D11*
%TO.C,C37*%
X51308000Y34135000D03*
X51308000Y33175000D03*
%TD*%
%TO.C,C37*%
X51308000Y143085000D03*
X51308000Y142125000D03*
%TD*%
%TO.C,C37*%
X115308000Y143085000D03*
X115308000Y142125000D03*
%TD*%
%TO.C,C37*%
X51308000Y88610000D03*
X51308000Y87650000D03*
%TD*%
%TO.C,C37*%
X115308000Y34135000D03*
X115308000Y33175000D03*
%TD*%
%TO.C,C37*%
X115308000Y88610000D03*
X115308000Y87650000D03*
%TD*%
D31*
%TO.C,SW1*%
X51145000Y4925000D03*
X49645000Y4925000D03*
X46645000Y4925000D03*
D32*
X52545000Y2175000D03*
D33*
X52545000Y4275000D03*
X45245000Y4275000D03*
D32*
X45245000Y2175000D03*
%TD*%
D31*
%TO.C,SW1*%
X51145000Y113875000D03*
X49645000Y113875000D03*
X46645000Y113875000D03*
D32*
X52545000Y111125000D03*
D33*
X52545000Y113225000D03*
X45245000Y113225000D03*
D32*
X45245000Y111125000D03*
%TD*%
D31*
%TO.C,SW1*%
X115145000Y4925000D03*
X113645000Y4925000D03*
X110645000Y4925000D03*
D32*
X116545000Y2175000D03*
D33*
X116545000Y4275000D03*
X109245000Y4275000D03*
D32*
X109245000Y2175000D03*
%TD*%
D31*
%TO.C,SW1*%
X115145000Y59400000D03*
X113645000Y59400000D03*
X110645000Y59400000D03*
D32*
X116545000Y56650000D03*
D33*
X116545000Y58750000D03*
X109245000Y58750000D03*
D32*
X109245000Y56650000D03*
%TD*%
D31*
%TO.C,SW1*%
X115145000Y113875000D03*
X113645000Y113875000D03*
X110645000Y113875000D03*
D32*
X116545000Y111125000D03*
D33*
X116545000Y113225000D03*
X109245000Y113225000D03*
D32*
X109245000Y111125000D03*
%TD*%
D31*
%TO.C,SW1*%
X51145000Y59400000D03*
X49645000Y59400000D03*
X46645000Y59400000D03*
D32*
X52545000Y56650000D03*
D33*
X52545000Y58750000D03*
X45245000Y58750000D03*
D32*
X45245000Y56650000D03*
%TD*%
D20*
%TO.C,R22*%
X18415000Y16385000D03*
X18415000Y15365000D03*
%TD*%
%TO.C,R22*%
X18415000Y70860000D03*
X18415000Y69840000D03*
%TD*%
%TO.C,R22*%
X18415000Y125335000D03*
X18415000Y124315000D03*
%TD*%
%TO.C,R22*%
X82415000Y70860000D03*
X82415000Y69840000D03*
%TD*%
%TO.C,R22*%
X82415000Y16385000D03*
X82415000Y15365000D03*
%TD*%
%TO.C,R22*%
X82415000Y125335000D03*
X82415000Y124315000D03*
%TD*%
D26*
%TO.C,C23*%
X14450000Y26416000D03*
X13490000Y26416000D03*
%TD*%
%TO.C,C23*%
X78450000Y135366000D03*
X77490000Y135366000D03*
%TD*%
%TO.C,C23*%
X14450000Y80891000D03*
X13490000Y80891000D03*
%TD*%
%TO.C,C23*%
X14450000Y135366000D03*
X13490000Y135366000D03*
%TD*%
%TO.C,C23*%
X78450000Y26416000D03*
X77490000Y26416000D03*
%TD*%
%TO.C,C23*%
X78450000Y80891000D03*
X77490000Y80891000D03*
%TD*%
D19*
%TO.C,R32*%
X18290000Y22225000D03*
X17270000Y22225000D03*
%TD*%
%TO.C,R32*%
X18290000Y76700000D03*
X17270000Y76700000D03*
%TD*%
%TO.C,R32*%
X82290000Y76700000D03*
X81270000Y76700000D03*
%TD*%
%TO.C,R32*%
X18290000Y131175000D03*
X17270000Y131175000D03*
%TD*%
%TO.C,R32*%
X82290000Y22225000D03*
X81270000Y22225000D03*
%TD*%
%TO.C,R32*%
X82290000Y131175000D03*
X81270000Y131175000D03*
%TD*%
D18*
%TO.C,C18*%
X33274000Y33175000D03*
X33274000Y34135000D03*
%TD*%
%TO.C,C18*%
X97274000Y142125000D03*
X97274000Y143085000D03*
%TD*%
%TO.C,C18*%
X33274000Y87650000D03*
X33274000Y88610000D03*
%TD*%
%TO.C,C18*%
X97274000Y33175000D03*
X97274000Y34135000D03*
%TD*%
%TO.C,C18*%
X97274000Y87650000D03*
X97274000Y88610000D03*
%TD*%
%TO.C,C18*%
X33274000Y142125000D03*
X33274000Y143085000D03*
%TD*%
D26*
%TO.C,C22*%
X12164000Y26289000D03*
X11204000Y26289000D03*
%TD*%
%TO.C,C22*%
X12164000Y135239000D03*
X11204000Y135239000D03*
%TD*%
%TO.C,C22*%
X76164000Y80764000D03*
X75204000Y80764000D03*
%TD*%
%TO.C,C22*%
X76164000Y135239000D03*
X75204000Y135239000D03*
%TD*%
%TO.C,C22*%
X12164000Y80764000D03*
X11204000Y80764000D03*
%TD*%
%TO.C,C22*%
X76164000Y26289000D03*
X75204000Y26289000D03*
%TD*%
D21*
%TO.C,C36*%
X49657000Y34605000D03*
X49657000Y32705000D03*
%TD*%
%TO.C,C36*%
X49657000Y143555000D03*
X49657000Y141655000D03*
%TD*%
%TO.C,C36*%
X113657000Y143555000D03*
X113657000Y141655000D03*
%TD*%
%TO.C,C36*%
X113657000Y89080000D03*
X113657000Y87180000D03*
%TD*%
%TO.C,C36*%
X49657000Y89080000D03*
X49657000Y87180000D03*
%TD*%
%TO.C,C36*%
X113657000Y34605000D03*
X113657000Y32705000D03*
%TD*%
D20*
%TO.C,R2*%
X25781000Y19306000D03*
X25781000Y18286000D03*
%TD*%
%TO.C,R2*%
X89781000Y73781000D03*
X89781000Y72761000D03*
%TD*%
%TO.C,R2*%
X89781000Y19306000D03*
X89781000Y18286000D03*
%TD*%
%TO.C,R2*%
X25781000Y73781000D03*
X25781000Y72761000D03*
%TD*%
%TO.C,R2*%
X25781000Y128256000D03*
X25781000Y127236000D03*
%TD*%
%TO.C,R2*%
X89781000Y128256000D03*
X89781000Y127236000D03*
%TD*%
D11*
%TO.C,C19*%
X32766000Y13180000D03*
X32766000Y12220000D03*
%TD*%
%TO.C,C19*%
X96766000Y67655000D03*
X96766000Y66695000D03*
%TD*%
%TO.C,C19*%
X96766000Y122130000D03*
X96766000Y121170000D03*
%TD*%
%TO.C,C19*%
X32766000Y122130000D03*
X32766000Y121170000D03*
%TD*%
%TO.C,C19*%
X32766000Y67655000D03*
X32766000Y66695000D03*
%TD*%
%TO.C,C19*%
X96766000Y13180000D03*
X96766000Y12220000D03*
%TD*%
D19*
%TO.C,R18*%
X55590000Y19215000D03*
X54570000Y19215000D03*
%TD*%
%TO.C,R18*%
X119590000Y73690000D03*
X118570000Y73690000D03*
%TD*%
%TO.C,R18*%
X55590000Y73690000D03*
X54570000Y73690000D03*
%TD*%
%TO.C,R18*%
X119590000Y128165000D03*
X118570000Y128165000D03*
%TD*%
%TO.C,R18*%
X55590000Y128165000D03*
X54570000Y128165000D03*
%TD*%
%TO.C,R18*%
X119590000Y19215000D03*
X118570000Y19215000D03*
%TD*%
D21*
%TO.C,C38*%
X5080000Y11745000D03*
X5080000Y9845000D03*
%TD*%
%TO.C,C38*%
X5080000Y66220000D03*
X5080000Y64320000D03*
%TD*%
%TO.C,C38*%
X69080000Y66220000D03*
X69080000Y64320000D03*
%TD*%
%TO.C,C38*%
X69080000Y120695000D03*
X69080000Y118795000D03*
%TD*%
%TO.C,C38*%
X5080000Y120695000D03*
X5080000Y118795000D03*
%TD*%
%TO.C,C38*%
X69080000Y11745000D03*
X69080000Y9845000D03*
%TD*%
D12*
%TO.C,R7*%
X35939000Y10160000D03*
X36959000Y10160000D03*
%TD*%
%TO.C,R7*%
X99939000Y119110000D03*
X100959000Y119110000D03*
%TD*%
%TO.C,R7*%
X99939000Y64635000D03*
X100959000Y64635000D03*
%TD*%
%TO.C,R7*%
X35939000Y64635000D03*
X36959000Y64635000D03*
%TD*%
%TO.C,R7*%
X35939000Y119110000D03*
X36959000Y119110000D03*
%TD*%
%TO.C,R7*%
X99939000Y10160000D03*
X100959000Y10160000D03*
%TD*%
D24*
%TO.C,C26*%
X51590000Y20066000D03*
X52550000Y20066000D03*
%TD*%
%TO.C,C26*%
X51590000Y129016000D03*
X52550000Y129016000D03*
%TD*%
%TO.C,C26*%
X51590000Y74541000D03*
X52550000Y74541000D03*
%TD*%
%TO.C,C26*%
X115590000Y20066000D03*
X116550000Y20066000D03*
%TD*%
%TO.C,C26*%
X115590000Y74541000D03*
X116550000Y74541000D03*
%TD*%
%TO.C,C26*%
X115590000Y129016000D03*
X116550000Y129016000D03*
%TD*%
D22*
%TO.C,Q7*%
X49515000Y12415000D03*
X50165000Y12415000D03*
X50815000Y12415000D03*
X50815000Y14255000D03*
X50165000Y14255000D03*
X49515000Y14255000D03*
%TD*%
%TO.C,Q7*%
X113515000Y66890000D03*
X114165000Y66890000D03*
X114815000Y66890000D03*
X114815000Y68730000D03*
X114165000Y68730000D03*
X113515000Y68730000D03*
%TD*%
%TO.C,Q7*%
X49515000Y121365000D03*
X50165000Y121365000D03*
X50815000Y121365000D03*
X50815000Y123205000D03*
X50165000Y123205000D03*
X49515000Y123205000D03*
%TD*%
%TO.C,Q7*%
X49515000Y66890000D03*
X50165000Y66890000D03*
X50815000Y66890000D03*
X50815000Y68730000D03*
X50165000Y68730000D03*
X49515000Y68730000D03*
%TD*%
%TO.C,Q7*%
X113515000Y121365000D03*
X114165000Y121365000D03*
X114815000Y121365000D03*
X114815000Y123205000D03*
X114165000Y123205000D03*
X113515000Y123205000D03*
%TD*%
%TO.C,Q7*%
X113515000Y12415000D03*
X114165000Y12415000D03*
X114815000Y12415000D03*
X114815000Y14255000D03*
X114165000Y14255000D03*
X113515000Y14255000D03*
%TD*%
D19*
%TO.C,R31*%
X18290000Y17780000D03*
X17270000Y17780000D03*
%TD*%
%TO.C,R31*%
X82290000Y72255000D03*
X81270000Y72255000D03*
%TD*%
%TO.C,R31*%
X82290000Y17780000D03*
X81270000Y17780000D03*
%TD*%
%TO.C,R31*%
X18290000Y126730000D03*
X17270000Y126730000D03*
%TD*%
%TO.C,R31*%
X18290000Y72255000D03*
X17270000Y72255000D03*
%TD*%
%TO.C,R31*%
X82290000Y126730000D03*
X81270000Y126730000D03*
%TD*%
%TO.C,R25*%
X13845000Y34671000D03*
X12825000Y34671000D03*
%TD*%
%TO.C,R25*%
X13845000Y143621000D03*
X12825000Y143621000D03*
%TD*%
%TO.C,R25*%
X13845000Y89146000D03*
X12825000Y89146000D03*
%TD*%
%TO.C,R25*%
X77845000Y89146000D03*
X76825000Y89146000D03*
%TD*%
%TO.C,R25*%
X77845000Y34671000D03*
X76825000Y34671000D03*
%TD*%
%TO.C,R25*%
X77845000Y143621000D03*
X76825000Y143621000D03*
%TD*%
D18*
%TO.C,C6*%
X25654000Y29492000D03*
X25654000Y30452000D03*
%TD*%
%TO.C,C6*%
X25654000Y138442000D03*
X25654000Y139402000D03*
%TD*%
%TO.C,C6*%
X89654000Y29492000D03*
X89654000Y30452000D03*
%TD*%
%TO.C,C6*%
X89654000Y138442000D03*
X89654000Y139402000D03*
%TD*%
%TO.C,C6*%
X89654000Y83967000D03*
X89654000Y84927000D03*
%TD*%
%TO.C,C6*%
X25654000Y83967000D03*
X25654000Y84927000D03*
%TD*%
D11*
%TO.C,C9*%
X31115000Y19276000D03*
X31115000Y18316000D03*
%TD*%
%TO.C,C9*%
X31115000Y73751000D03*
X31115000Y72791000D03*
%TD*%
%TO.C,C9*%
X95115000Y128226000D03*
X95115000Y127266000D03*
%TD*%
%TO.C,C9*%
X31115000Y128226000D03*
X31115000Y127266000D03*
%TD*%
%TO.C,C9*%
X95115000Y19276000D03*
X95115000Y18316000D03*
%TD*%
%TO.C,C9*%
X95115000Y73751000D03*
X95115000Y72791000D03*
%TD*%
D19*
%TO.C,R45*%
X52580000Y29845000D03*
X51560000Y29845000D03*
%TD*%
%TO.C,R45*%
X52580000Y84320000D03*
X51560000Y84320000D03*
%TD*%
%TO.C,R45*%
X116580000Y138795000D03*
X115560000Y138795000D03*
%TD*%
%TO.C,R45*%
X116580000Y29845000D03*
X115560000Y29845000D03*
%TD*%
%TO.C,R45*%
X116580000Y84320000D03*
X115560000Y84320000D03*
%TD*%
%TO.C,R45*%
X52580000Y138795000D03*
X51560000Y138795000D03*
%TD*%
D29*
%TO.C,J13*%
X14999000Y51665000D03*
X14999000Y50665000D03*
X14999000Y49665000D03*
X14999000Y48665000D03*
D30*
X17424000Y52965000D03*
X17424000Y47365000D03*
%TD*%
D29*
%TO.C,J13*%
X78999000Y160615000D03*
X78999000Y159615000D03*
X78999000Y158615000D03*
X78999000Y157615000D03*
D30*
X81424000Y161915000D03*
X81424000Y156315000D03*
%TD*%
D29*
%TO.C,J13*%
X78999000Y51665000D03*
X78999000Y50665000D03*
X78999000Y49665000D03*
X78999000Y48665000D03*
D30*
X81424000Y52965000D03*
X81424000Y47365000D03*
%TD*%
D29*
%TO.C,J13*%
X78999000Y106140000D03*
X78999000Y105140000D03*
X78999000Y104140000D03*
X78999000Y103140000D03*
D30*
X81424000Y107440000D03*
X81424000Y101840000D03*
%TD*%
D29*
%TO.C,J13*%
X14999000Y160615000D03*
X14999000Y159615000D03*
X14999000Y158615000D03*
X14999000Y157615000D03*
D30*
X17424000Y161915000D03*
X17424000Y156315000D03*
%TD*%
D29*
%TO.C,J13*%
X14999000Y106140000D03*
X14999000Y105140000D03*
X14999000Y104140000D03*
X14999000Y103140000D03*
D30*
X17424000Y107440000D03*
X17424000Y101840000D03*
%TD*%
D19*
%TO.C,R33*%
X18290000Y20955000D03*
X17270000Y20955000D03*
%TD*%
%TO.C,R33*%
X82290000Y20955000D03*
X81270000Y20955000D03*
%TD*%
%TO.C,R33*%
X18290000Y75430000D03*
X17270000Y75430000D03*
%TD*%
%TO.C,R33*%
X18290000Y129905000D03*
X17270000Y129905000D03*
%TD*%
%TO.C,R33*%
X82290000Y75430000D03*
X81270000Y75430000D03*
%TD*%
%TO.C,R33*%
X82290000Y129905000D03*
X81270000Y129905000D03*
%TD*%
D26*
%TO.C,C11*%
X25626000Y24892000D03*
X24666000Y24892000D03*
%TD*%
%TO.C,C11*%
X25626000Y79367000D03*
X24666000Y79367000D03*
%TD*%
%TO.C,C11*%
X89626000Y133842000D03*
X88666000Y133842000D03*
%TD*%
%TO.C,C11*%
X89626000Y24892000D03*
X88666000Y24892000D03*
%TD*%
%TO.C,C11*%
X25626000Y133842000D03*
X24666000Y133842000D03*
%TD*%
%TO.C,C11*%
X89626000Y79367000D03*
X88666000Y79367000D03*
%TD*%
%TO.C,C7*%
X25626000Y25908000D03*
X24666000Y25908000D03*
%TD*%
%TO.C,C7*%
X25626000Y80383000D03*
X24666000Y80383000D03*
%TD*%
%TO.C,C7*%
X89626000Y25908000D03*
X88666000Y25908000D03*
%TD*%
%TO.C,C7*%
X25626000Y134858000D03*
X24666000Y134858000D03*
%TD*%
%TO.C,C7*%
X89626000Y134858000D03*
X88666000Y134858000D03*
%TD*%
%TO.C,C7*%
X89626000Y80383000D03*
X88666000Y80383000D03*
%TD*%
D34*
%TO.C,U2*%
X38208000Y14605000D03*
X38208000Y15875000D03*
X38208000Y17145000D03*
X38208000Y18415000D03*
X32658000Y18415000D03*
X32658000Y17145000D03*
X32658000Y15875000D03*
X32658000Y14605000D03*
%TD*%
%TO.C,U2*%
X38208000Y123555000D03*
X38208000Y124825000D03*
X38208000Y126095000D03*
X38208000Y127365000D03*
X32658000Y127365000D03*
X32658000Y126095000D03*
X32658000Y124825000D03*
X32658000Y123555000D03*
%TD*%
%TO.C,U2*%
X102208000Y69080000D03*
X102208000Y70350000D03*
X102208000Y71620000D03*
X102208000Y72890000D03*
X96658000Y72890000D03*
X96658000Y71620000D03*
X96658000Y70350000D03*
X96658000Y69080000D03*
%TD*%
%TO.C,U2*%
X102208000Y14605000D03*
X102208000Y15875000D03*
X102208000Y17145000D03*
X102208000Y18415000D03*
X96658000Y18415000D03*
X96658000Y17145000D03*
X96658000Y15875000D03*
X96658000Y14605000D03*
%TD*%
%TO.C,U2*%
X38208000Y69080000D03*
X38208000Y70350000D03*
X38208000Y71620000D03*
X38208000Y72890000D03*
X32658000Y72890000D03*
X32658000Y71620000D03*
X32658000Y70350000D03*
X32658000Y69080000D03*
%TD*%
%TO.C,U2*%
X102208000Y123555000D03*
X102208000Y124825000D03*
X102208000Y126095000D03*
X102208000Y127365000D03*
X96658000Y127365000D03*
X96658000Y126095000D03*
X96658000Y124825000D03*
X96658000Y123555000D03*
%TD*%
D24*
%TO.C,C3*%
X37874000Y27178000D03*
X38834000Y27178000D03*
%TD*%
%TO.C,C3*%
X101874000Y27178000D03*
X102834000Y27178000D03*
%TD*%
%TO.C,C3*%
X101874000Y81653000D03*
X102834000Y81653000D03*
%TD*%
%TO.C,C3*%
X37874000Y136128000D03*
X38834000Y136128000D03*
%TD*%
%TO.C,C3*%
X101874000Y136128000D03*
X102834000Y136128000D03*
%TD*%
%TO.C,C3*%
X37874000Y81653000D03*
X38834000Y81653000D03*
%TD*%
D35*
%TO.C,D2*%
X26035000Y1117500D03*
X26035000Y2692500D03*
%TD*%
%TO.C,D2*%
X90035000Y110067500D03*
X90035000Y111642500D03*
%TD*%
%TO.C,D2*%
X90035000Y55592500D03*
X90035000Y57167500D03*
%TD*%
%TO.C,D2*%
X26035000Y110067500D03*
X26035000Y111642500D03*
%TD*%
%TO.C,D2*%
X90035000Y1117500D03*
X90035000Y2692500D03*
%TD*%
%TO.C,D2*%
X26035000Y55592500D03*
X26035000Y57167500D03*
%TD*%
D29*
%TO.C,J14*%
X48501000Y48665000D03*
X48501000Y49665000D03*
X48501000Y50665000D03*
X48501000Y51665000D03*
D30*
X46076000Y47365000D03*
X46076000Y52965000D03*
%TD*%
D29*
%TO.C,J14*%
X48501000Y103140000D03*
X48501000Y104140000D03*
X48501000Y105140000D03*
X48501000Y106140000D03*
D30*
X46076000Y101840000D03*
X46076000Y107440000D03*
%TD*%
D29*
%TO.C,J14*%
X112501000Y48665000D03*
X112501000Y49665000D03*
X112501000Y50665000D03*
X112501000Y51665000D03*
D30*
X110076000Y47365000D03*
X110076000Y52965000D03*
%TD*%
D29*
%TO.C,J14*%
X48501000Y157615000D03*
X48501000Y158615000D03*
X48501000Y159615000D03*
X48501000Y160615000D03*
D30*
X46076000Y156315000D03*
X46076000Y161915000D03*
%TD*%
D29*
%TO.C,J14*%
X112501000Y157615000D03*
X112501000Y158615000D03*
X112501000Y159615000D03*
X112501000Y160615000D03*
D30*
X110076000Y156315000D03*
X110076000Y161915000D03*
%TD*%
D29*
%TO.C,J14*%
X112501000Y103140000D03*
X112501000Y104140000D03*
X112501000Y105140000D03*
X112501000Y106140000D03*
D30*
X110076000Y101840000D03*
X110076000Y107440000D03*
%TD*%
D19*
%TO.C,R19*%
X55590000Y17945000D03*
X54570000Y17945000D03*
%TD*%
%TO.C,R19*%
X119590000Y72420000D03*
X118570000Y72420000D03*
%TD*%
%TO.C,R19*%
X119590000Y17945000D03*
X118570000Y17945000D03*
%TD*%
%TO.C,R19*%
X55590000Y72420000D03*
X54570000Y72420000D03*
%TD*%
%TO.C,R19*%
X55590000Y126895000D03*
X54570000Y126895000D03*
%TD*%
%TO.C,R19*%
X119590000Y126895000D03*
X118570000Y126895000D03*
%TD*%
D27*
%TO.C,C32*%
X15875000Y36515000D03*
X15875000Y38415000D03*
%TD*%
%TO.C,C32*%
X79875000Y36515000D03*
X79875000Y38415000D03*
%TD*%
%TO.C,C32*%
X15875000Y145465000D03*
X15875000Y147365000D03*
%TD*%
%TO.C,C32*%
X15875000Y90990000D03*
X15875000Y92890000D03*
%TD*%
%TO.C,C32*%
X79875000Y90990000D03*
X79875000Y92890000D03*
%TD*%
%TO.C,C32*%
X79875000Y145465000D03*
X79875000Y147365000D03*
%TD*%
D24*
%TO.C,C27*%
X51590000Y25654000D03*
X52550000Y25654000D03*
%TD*%
%TO.C,C27*%
X115590000Y134604000D03*
X116550000Y134604000D03*
%TD*%
%TO.C,C27*%
X51590000Y80129000D03*
X52550000Y80129000D03*
%TD*%
%TO.C,C27*%
X51590000Y134604000D03*
X52550000Y134604000D03*
%TD*%
%TO.C,C27*%
X115590000Y80129000D03*
X116550000Y80129000D03*
%TD*%
%TO.C,C27*%
X115590000Y25654000D03*
X116550000Y25654000D03*
%TD*%
D12*
%TO.C,R46*%
X51560000Y19050000D03*
X52580000Y19050000D03*
%TD*%
%TO.C,R46*%
X115560000Y19050000D03*
X116580000Y19050000D03*
%TD*%
%TO.C,R46*%
X51560000Y73525000D03*
X52580000Y73525000D03*
%TD*%
%TO.C,R46*%
X51560000Y128000000D03*
X52580000Y128000000D03*
%TD*%
%TO.C,R46*%
X115560000Y73525000D03*
X116580000Y73525000D03*
%TD*%
%TO.C,R46*%
X115560000Y128000000D03*
X116580000Y128000000D03*
%TD*%
D35*
%TO.C,D3*%
X37465000Y1117500D03*
X37465000Y2692500D03*
%TD*%
%TO.C,D3*%
X37465000Y55592500D03*
X37465000Y57167500D03*
%TD*%
%TO.C,D3*%
X37465000Y110067500D03*
X37465000Y111642500D03*
%TD*%
%TO.C,D3*%
X101465000Y110067500D03*
X101465000Y111642500D03*
%TD*%
%TO.C,D3*%
X101465000Y1117500D03*
X101465000Y2692500D03*
%TD*%
%TO.C,D3*%
X101465000Y55592500D03*
X101465000Y57167500D03*
%TD*%
D12*
%TO.C,R40*%
X25906000Y36195000D03*
X26926000Y36195000D03*
%TD*%
%TO.C,R40*%
X25906000Y145145000D03*
X26926000Y145145000D03*
%TD*%
%TO.C,R40*%
X25906000Y90670000D03*
X26926000Y90670000D03*
%TD*%
%TO.C,R40*%
X89906000Y36195000D03*
X90926000Y36195000D03*
%TD*%
%TO.C,R40*%
X89906000Y145145000D03*
X90926000Y145145000D03*
%TD*%
%TO.C,R40*%
X89906000Y90670000D03*
X90926000Y90670000D03*
%TD*%
D28*
%TO.C,SW2*%
X56045000Y16655000D03*
X56045000Y12555000D03*
X54445000Y16655000D03*
X54445000Y12555000D03*
%TD*%
%TO.C,SW2*%
X120045000Y16655000D03*
X120045000Y12555000D03*
X118445000Y16655000D03*
X118445000Y12555000D03*
%TD*%
%TO.C,SW2*%
X56045000Y71130000D03*
X56045000Y67030000D03*
X54445000Y71130000D03*
X54445000Y67030000D03*
%TD*%
%TO.C,SW2*%
X120045000Y125605000D03*
X120045000Y121505000D03*
X118445000Y125605000D03*
X118445000Y121505000D03*
%TD*%
%TO.C,SW2*%
X120045000Y71130000D03*
X120045000Y67030000D03*
X118445000Y71130000D03*
X118445000Y67030000D03*
%TD*%
%TO.C,SW2*%
X56045000Y125605000D03*
X56045000Y121505000D03*
X54445000Y125605000D03*
X54445000Y121505000D03*
%TD*%
D12*
%TO.C,R17*%
X47750000Y43815000D03*
X48770000Y43815000D03*
%TD*%
%TO.C,R17*%
X111750000Y43815000D03*
X112770000Y43815000D03*
%TD*%
%TO.C,R17*%
X47750000Y98290000D03*
X48770000Y98290000D03*
%TD*%
%TO.C,R17*%
X47750000Y152765000D03*
X48770000Y152765000D03*
%TD*%
%TO.C,R17*%
X111750000Y152765000D03*
X112770000Y152765000D03*
%TD*%
%TO.C,R17*%
X111750000Y98290000D03*
X112770000Y98290000D03*
%TD*%
D24*
%TO.C,C2*%
X37874000Y23368000D03*
X38834000Y23368000D03*
%TD*%
%TO.C,C2*%
X37874000Y77843000D03*
X38834000Y77843000D03*
%TD*%
%TO.C,C2*%
X101874000Y23368000D03*
X102834000Y23368000D03*
%TD*%
%TO.C,C2*%
X101874000Y132318000D03*
X102834000Y132318000D03*
%TD*%
%TO.C,C2*%
X101874000Y77843000D03*
X102834000Y77843000D03*
%TD*%
%TO.C,C2*%
X37874000Y132318000D03*
X38834000Y132318000D03*
%TD*%
D20*
%TO.C,R4*%
X31115000Y15115000D03*
X31115000Y14095000D03*
%TD*%
%TO.C,R4*%
X31115000Y124065000D03*
X31115000Y123045000D03*
%TD*%
%TO.C,R4*%
X95115000Y15115000D03*
X95115000Y14095000D03*
%TD*%
%TO.C,R4*%
X31115000Y69590000D03*
X31115000Y68570000D03*
%TD*%
%TO.C,R4*%
X95115000Y69590000D03*
X95115000Y68570000D03*
%TD*%
%TO.C,R4*%
X95115000Y124065000D03*
X95115000Y123045000D03*
%TD*%
D12*
%TO.C,R43*%
X10920000Y41275000D03*
X11940000Y41275000D03*
%TD*%
%TO.C,R43*%
X10920000Y150225000D03*
X11940000Y150225000D03*
%TD*%
%TO.C,R43*%
X74920000Y41275000D03*
X75940000Y41275000D03*
%TD*%
%TO.C,R43*%
X74920000Y95750000D03*
X75940000Y95750000D03*
%TD*%
%TO.C,R43*%
X10920000Y95750000D03*
X11940000Y95750000D03*
%TD*%
%TO.C,R43*%
X74920000Y150225000D03*
X75940000Y150225000D03*
%TD*%
%TO.C,R27*%
X49655000Y36449000D03*
X50675000Y36449000D03*
%TD*%
%TO.C,R27*%
X49655000Y90924000D03*
X50675000Y90924000D03*
%TD*%
%TO.C,R27*%
X113655000Y145399000D03*
X114675000Y145399000D03*
%TD*%
%TO.C,R27*%
X113655000Y36449000D03*
X114675000Y36449000D03*
%TD*%
%TO.C,R27*%
X49655000Y145399000D03*
X50675000Y145399000D03*
%TD*%
%TO.C,R27*%
X113655000Y90924000D03*
X114675000Y90924000D03*
%TD*%
D19*
%TO.C,R9*%
X14480000Y24384000D03*
X13460000Y24384000D03*
%TD*%
%TO.C,R9*%
X14480000Y78859000D03*
X13460000Y78859000D03*
%TD*%
%TO.C,R9*%
X14480000Y133334000D03*
X13460000Y133334000D03*
%TD*%
%TO.C,R9*%
X78480000Y24384000D03*
X77460000Y24384000D03*
%TD*%
%TO.C,R9*%
X78480000Y78859000D03*
X77460000Y78859000D03*
%TD*%
%TO.C,R9*%
X78480000Y133334000D03*
X77460000Y133334000D03*
%TD*%
D36*
%TO.C,J2*%
X30500000Y7661000D03*
X31500000Y7661000D03*
X32000000Y7661000D03*
X33000000Y7661000D03*
X33500000Y7661000D03*
X32500000Y7661000D03*
X31000000Y7661000D03*
X30000000Y7661000D03*
D37*
X28525000Y7661000D03*
X34975000Y7661000D03*
D38*
X27432000Y2906000D03*
D39*
X27432000Y7086000D03*
X36068000Y7086000D03*
D38*
X36068000Y2906000D03*
D37*
X29300000Y7661000D03*
X34200000Y7661000D03*
%TD*%
D36*
%TO.C,J2*%
X94500000Y62136000D03*
X95500000Y62136000D03*
X96000000Y62136000D03*
X97000000Y62136000D03*
X97500000Y62136000D03*
X96500000Y62136000D03*
X95000000Y62136000D03*
X94000000Y62136000D03*
D37*
X92525000Y62136000D03*
X98975000Y62136000D03*
D38*
X91432000Y57381000D03*
D39*
X91432000Y61561000D03*
X100068000Y61561000D03*
D38*
X100068000Y57381000D03*
D37*
X93300000Y62136000D03*
X98200000Y62136000D03*
%TD*%
D36*
%TO.C,J2*%
X30500000Y62136000D03*
X31500000Y62136000D03*
X32000000Y62136000D03*
X33000000Y62136000D03*
X33500000Y62136000D03*
X32500000Y62136000D03*
X31000000Y62136000D03*
X30000000Y62136000D03*
D37*
X28525000Y62136000D03*
X34975000Y62136000D03*
D38*
X27432000Y57381000D03*
D39*
X27432000Y61561000D03*
X36068000Y61561000D03*
D38*
X36068000Y57381000D03*
D37*
X29300000Y62136000D03*
X34200000Y62136000D03*
%TD*%
D36*
%TO.C,J2*%
X30500000Y116611000D03*
X31500000Y116611000D03*
X32000000Y116611000D03*
X33000000Y116611000D03*
X33500000Y116611000D03*
X32500000Y116611000D03*
X31000000Y116611000D03*
X30000000Y116611000D03*
D37*
X28525000Y116611000D03*
X34975000Y116611000D03*
D38*
X27432000Y111856000D03*
D39*
X27432000Y116036000D03*
X36068000Y116036000D03*
D38*
X36068000Y111856000D03*
D37*
X29300000Y116611000D03*
X34200000Y116611000D03*
%TD*%
D36*
%TO.C,J2*%
X94500000Y7661000D03*
X95500000Y7661000D03*
X96000000Y7661000D03*
X97000000Y7661000D03*
X97500000Y7661000D03*
X96500000Y7661000D03*
X95000000Y7661000D03*
X94000000Y7661000D03*
D37*
X92525000Y7661000D03*
X98975000Y7661000D03*
D38*
X91432000Y2906000D03*
D39*
X91432000Y7086000D03*
X100068000Y7086000D03*
D38*
X100068000Y2906000D03*
D37*
X93300000Y7661000D03*
X98200000Y7661000D03*
%TD*%
D36*
%TO.C,J2*%
X94500000Y116611000D03*
X95500000Y116611000D03*
X96000000Y116611000D03*
X97000000Y116611000D03*
X97500000Y116611000D03*
X96500000Y116611000D03*
X95000000Y116611000D03*
X94000000Y116611000D03*
D37*
X92525000Y116611000D03*
X98975000Y116611000D03*
D38*
X91432000Y111856000D03*
D39*
X91432000Y116036000D03*
X100068000Y116036000D03*
D38*
X100068000Y111856000D03*
D37*
X93300000Y116611000D03*
X98200000Y116611000D03*
%TD*%
D12*
%TO.C,R8*%
X13460000Y25400000D03*
X14480000Y25400000D03*
%TD*%
%TO.C,R8*%
X13460000Y79875000D03*
X14480000Y79875000D03*
%TD*%
%TO.C,R8*%
X77460000Y25400000D03*
X78480000Y25400000D03*
%TD*%
%TO.C,R8*%
X77460000Y79875000D03*
X78480000Y79875000D03*
%TD*%
%TO.C,R8*%
X77460000Y134350000D03*
X78480000Y134350000D03*
%TD*%
%TO.C,R8*%
X13460000Y134350000D03*
X14480000Y134350000D03*
%TD*%
D26*
%TO.C,C16*%
X29232800Y18415000D03*
X28272800Y18415000D03*
%TD*%
%TO.C,C16*%
X29232800Y72890000D03*
X28272800Y72890000D03*
%TD*%
%TO.C,C16*%
X93232800Y72890000D03*
X92272800Y72890000D03*
%TD*%
%TO.C,C16*%
X29232800Y127365000D03*
X28272800Y127365000D03*
%TD*%
%TO.C,C16*%
X93232800Y127365000D03*
X92272800Y127365000D03*
%TD*%
%TO.C,C16*%
X93232800Y18415000D03*
X92272800Y18415000D03*
%TD*%
D18*
%TO.C,C30*%
X49530000Y22380000D03*
X49530000Y23340000D03*
%TD*%
%TO.C,C30*%
X49530000Y76855000D03*
X49530000Y77815000D03*
%TD*%
%TO.C,C30*%
X49530000Y131330000D03*
X49530000Y132290000D03*
%TD*%
%TO.C,C30*%
X113530000Y76855000D03*
X113530000Y77815000D03*
%TD*%
%TO.C,C30*%
X113530000Y22380000D03*
X113530000Y23340000D03*
%TD*%
%TO.C,C30*%
X113530000Y131330000D03*
X113530000Y132290000D03*
%TD*%
D20*
%TO.C,R34*%
X46355000Y16385000D03*
X46355000Y15365000D03*
%TD*%
%TO.C,R34*%
X110355000Y16385000D03*
X110355000Y15365000D03*
%TD*%
%TO.C,R34*%
X46355000Y70860000D03*
X46355000Y69840000D03*
%TD*%
%TO.C,R34*%
X110355000Y70860000D03*
X110355000Y69840000D03*
%TD*%
%TO.C,R34*%
X110355000Y125335000D03*
X110355000Y124315000D03*
%TD*%
%TO.C,R34*%
X46355000Y125335000D03*
X46355000Y124315000D03*
%TD*%
D21*
%TO.C,C25*%
X18034000Y26096000D03*
X18034000Y24196000D03*
%TD*%
%TO.C,C25*%
X18034000Y135046000D03*
X18034000Y133146000D03*
%TD*%
%TO.C,C25*%
X18034000Y80571000D03*
X18034000Y78671000D03*
%TD*%
%TO.C,C25*%
X82034000Y26096000D03*
X82034000Y24196000D03*
%TD*%
%TO.C,C25*%
X82034000Y135046000D03*
X82034000Y133146000D03*
%TD*%
%TO.C,C25*%
X82034000Y80571000D03*
X82034000Y78671000D03*
%TD*%
D12*
%TO.C,R38*%
X8634000Y21717000D03*
X9654000Y21717000D03*
%TD*%
%TO.C,R38*%
X72634000Y130667000D03*
X73654000Y130667000D03*
%TD*%
%TO.C,R38*%
X8634000Y76192000D03*
X9654000Y76192000D03*
%TD*%
%TO.C,R38*%
X72634000Y21717000D03*
X73654000Y21717000D03*
%TD*%
%TO.C,R38*%
X8634000Y130667000D03*
X9654000Y130667000D03*
%TD*%
%TO.C,R38*%
X72634000Y76192000D03*
X73654000Y76192000D03*
%TD*%
D26*
%TO.C,C8*%
X25626000Y21209000D03*
X24666000Y21209000D03*
%TD*%
%TO.C,C8*%
X25626000Y75684000D03*
X24666000Y75684000D03*
%TD*%
%TO.C,C8*%
X25626000Y130159000D03*
X24666000Y130159000D03*
%TD*%
%TO.C,C8*%
X89626000Y21209000D03*
X88666000Y21209000D03*
%TD*%
%TO.C,C8*%
X89626000Y75684000D03*
X88666000Y75684000D03*
%TD*%
%TO.C,C8*%
X89626000Y130159000D03*
X88666000Y130159000D03*
%TD*%
D21*
%TO.C,C40*%
X58420000Y11745000D03*
X58420000Y9845000D03*
%TD*%
%TO.C,C40*%
X122420000Y120695000D03*
X122420000Y118795000D03*
%TD*%
%TO.C,C40*%
X58420000Y66220000D03*
X58420000Y64320000D03*
%TD*%
%TO.C,C40*%
X58420000Y120695000D03*
X58420000Y118795000D03*
%TD*%
%TO.C,C40*%
X122420000Y11745000D03*
X122420000Y9845000D03*
%TD*%
%TO.C,C40*%
X122420000Y66220000D03*
X122420000Y64320000D03*
%TD*%
D40*
%TO.C,L2*%
X11830000Y30480000D03*
X17380000Y30480000D03*
%TD*%
%TO.C,L2*%
X75830000Y30480000D03*
X81380000Y30480000D03*
%TD*%
%TO.C,L2*%
X75830000Y84955000D03*
X81380000Y84955000D03*
%TD*%
%TO.C,L2*%
X11830000Y139430000D03*
X17380000Y139430000D03*
%TD*%
%TO.C,L2*%
X75830000Y139430000D03*
X81380000Y139430000D03*
%TD*%
%TO.C,L2*%
X11830000Y84955000D03*
X17380000Y84955000D03*
%TD*%
D29*
%TO.C,J16*%
X3810000Y43775000D03*
X3810000Y42775000D03*
X3810000Y41775000D03*
X3810000Y40775000D03*
X3810000Y39775000D03*
X3810000Y38775000D03*
D41*
X1585000Y45075000D03*
X1585000Y37475000D03*
%TD*%
D29*
%TO.C,J16*%
X3810000Y98250000D03*
X3810000Y97250000D03*
X3810000Y96250000D03*
X3810000Y95250000D03*
X3810000Y94250000D03*
X3810000Y93250000D03*
D41*
X1585000Y99550000D03*
X1585000Y91950000D03*
%TD*%
D29*
%TO.C,J16*%
X3810000Y152725000D03*
X3810000Y151725000D03*
X3810000Y150725000D03*
X3810000Y149725000D03*
X3810000Y148725000D03*
X3810000Y147725000D03*
D41*
X1585000Y154025000D03*
X1585000Y146425000D03*
%TD*%
D29*
%TO.C,J16*%
X67810000Y43775000D03*
X67810000Y42775000D03*
X67810000Y41775000D03*
X67810000Y40775000D03*
X67810000Y39775000D03*
X67810000Y38775000D03*
D41*
X65585000Y45075000D03*
X65585000Y37475000D03*
%TD*%
D29*
%TO.C,J16*%
X67810000Y98250000D03*
X67810000Y97250000D03*
X67810000Y96250000D03*
X67810000Y95250000D03*
X67810000Y94250000D03*
X67810000Y93250000D03*
D41*
X65585000Y99550000D03*
X65585000Y91950000D03*
%TD*%
D29*
%TO.C,J16*%
X67810000Y152725000D03*
X67810000Y151725000D03*
X67810000Y150725000D03*
X67810000Y149725000D03*
X67810000Y148725000D03*
X67810000Y147725000D03*
D41*
X65585000Y154025000D03*
X65585000Y146425000D03*
%TD*%
D18*
%TO.C,C34*%
X12192000Y36985000D03*
X12192000Y37945000D03*
%TD*%
%TO.C,C34*%
X76192000Y145935000D03*
X76192000Y146895000D03*
%TD*%
%TO.C,C34*%
X76192000Y36985000D03*
X76192000Y37945000D03*
%TD*%
%TO.C,C34*%
X76192000Y91460000D03*
X76192000Y92420000D03*
%TD*%
%TO.C,C34*%
X12192000Y91460000D03*
X12192000Y92420000D03*
%TD*%
%TO.C,C34*%
X12192000Y145935000D03*
X12192000Y146895000D03*
%TD*%
D20*
%TO.C,R37*%
X50800000Y16385000D03*
X50800000Y15365000D03*
%TD*%
%TO.C,R37*%
X114800000Y16385000D03*
X114800000Y15365000D03*
%TD*%
%TO.C,R37*%
X50800000Y70860000D03*
X50800000Y69840000D03*
%TD*%
%TO.C,R37*%
X114800000Y70860000D03*
X114800000Y69840000D03*
%TD*%
%TO.C,R37*%
X50800000Y125335000D03*
X50800000Y124315000D03*
%TD*%
%TO.C,R37*%
X114800000Y125335000D03*
X114800000Y124315000D03*
%TD*%
D42*
%TO.C,F2*%
X28070000Y11430000D03*
X25270000Y11430000D03*
%TD*%
%TO.C,F2*%
X92070000Y11430000D03*
X89270000Y11430000D03*
%TD*%
%TO.C,F2*%
X92070000Y120380000D03*
X89270000Y120380000D03*
%TD*%
%TO.C,F2*%
X92070000Y65905000D03*
X89270000Y65905000D03*
%TD*%
%TO.C,F2*%
X28070000Y120380000D03*
X25270000Y120380000D03*
%TD*%
%TO.C,F2*%
X28070000Y65905000D03*
X25270000Y65905000D03*
%TD*%
D21*
%TO.C,C35*%
X47625000Y34605000D03*
X47625000Y32705000D03*
%TD*%
%TO.C,C35*%
X111625000Y34605000D03*
X111625000Y32705000D03*
%TD*%
%TO.C,C35*%
X47625000Y143555000D03*
X47625000Y141655000D03*
%TD*%
%TO.C,C35*%
X47625000Y89080000D03*
X47625000Y87180000D03*
%TD*%
%TO.C,C35*%
X111625000Y89080000D03*
X111625000Y87180000D03*
%TD*%
%TO.C,C35*%
X111625000Y143555000D03*
X111625000Y141655000D03*
%TD*%
D13*
%TO.C,Q1*%
X14320000Y19065000D03*
X14320000Y18415000D03*
X14320000Y17765000D03*
X16160000Y17765000D03*
X16160000Y18415000D03*
X16160000Y19065000D03*
%TD*%
%TO.C,Q1*%
X14320000Y128015000D03*
X14320000Y127365000D03*
X14320000Y126715000D03*
X16160000Y126715000D03*
X16160000Y127365000D03*
X16160000Y128015000D03*
%TD*%
%TO.C,Q1*%
X14320000Y73540000D03*
X14320000Y72890000D03*
X14320000Y72240000D03*
X16160000Y72240000D03*
X16160000Y72890000D03*
X16160000Y73540000D03*
%TD*%
%TO.C,Q1*%
X78320000Y19065000D03*
X78320000Y18415000D03*
X78320000Y17765000D03*
X80160000Y17765000D03*
X80160000Y18415000D03*
X80160000Y19065000D03*
%TD*%
%TO.C,Q1*%
X78320000Y73540000D03*
X78320000Y72890000D03*
X78320000Y72240000D03*
X80160000Y72240000D03*
X80160000Y72890000D03*
X80160000Y73540000D03*
%TD*%
%TO.C,Q1*%
X78320000Y128015000D03*
X78320000Y127365000D03*
X78320000Y126715000D03*
X80160000Y126715000D03*
X80160000Y127365000D03*
X80160000Y128015000D03*
%TD*%
D12*
%TO.C,R13*%
X46480000Y25400000D03*
X47500000Y25400000D03*
%TD*%
%TO.C,R13*%
X46480000Y79875000D03*
X47500000Y79875000D03*
%TD*%
%TO.C,R13*%
X110480000Y25400000D03*
X111500000Y25400000D03*
%TD*%
%TO.C,R13*%
X110480000Y134350000D03*
X111500000Y134350000D03*
%TD*%
%TO.C,R13*%
X110480000Y79875000D03*
X111500000Y79875000D03*
%TD*%
%TO.C,R13*%
X46480000Y134350000D03*
X47500000Y134350000D03*
%TD*%
D43*
%TO.C,D4*%
X7975000Y43730000D03*
X7975000Y42630000D03*
X9805000Y42630000D03*
X9805000Y43730000D03*
%TD*%
%TO.C,D4*%
X7975000Y152680000D03*
X7975000Y151580000D03*
X9805000Y151580000D03*
X9805000Y152680000D03*
%TD*%
%TO.C,D4*%
X71975000Y98205000D03*
X71975000Y97105000D03*
X73805000Y97105000D03*
X73805000Y98205000D03*
%TD*%
%TO.C,D4*%
X71975000Y43730000D03*
X71975000Y42630000D03*
X73805000Y42630000D03*
X73805000Y43730000D03*
%TD*%
%TO.C,D4*%
X7975000Y98205000D03*
X7975000Y97105000D03*
X9805000Y97105000D03*
X9805000Y98205000D03*
%TD*%
%TO.C,D4*%
X71975000Y152680000D03*
X71975000Y151580000D03*
X73805000Y151580000D03*
X73805000Y152680000D03*
%TD*%
D29*
%TO.C,J15*%
X55486000Y48665000D03*
X55486000Y49665000D03*
X55486000Y50665000D03*
X55486000Y51665000D03*
D30*
X53061000Y47365000D03*
X53061000Y52965000D03*
%TD*%
D29*
%TO.C,J15*%
X119486000Y48665000D03*
X119486000Y49665000D03*
X119486000Y50665000D03*
X119486000Y51665000D03*
D30*
X117061000Y47365000D03*
X117061000Y52965000D03*
%TD*%
D29*
%TO.C,J15*%
X119486000Y157615000D03*
X119486000Y158615000D03*
X119486000Y159615000D03*
X119486000Y160615000D03*
D30*
X117061000Y156315000D03*
X117061000Y161915000D03*
%TD*%
D29*
%TO.C,J15*%
X55486000Y103140000D03*
X55486000Y104140000D03*
X55486000Y105140000D03*
X55486000Y106140000D03*
D30*
X53061000Y101840000D03*
X53061000Y107440000D03*
%TD*%
D29*
%TO.C,J15*%
X55486000Y157615000D03*
X55486000Y158615000D03*
X55486000Y159615000D03*
X55486000Y160615000D03*
D30*
X53061000Y156315000D03*
X53061000Y161915000D03*
%TD*%
D29*
%TO.C,J15*%
X119486000Y103140000D03*
X119486000Y104140000D03*
X119486000Y105140000D03*
X119486000Y106140000D03*
D30*
X117061000Y101840000D03*
X117061000Y107440000D03*
%TD*%
D26*
%TO.C,C13*%
X25626000Y22225000D03*
X24666000Y22225000D03*
%TD*%
%TO.C,C13*%
X89626000Y76700000D03*
X88666000Y76700000D03*
%TD*%
%TO.C,C13*%
X25626000Y76700000D03*
X24666000Y76700000D03*
%TD*%
%TO.C,C13*%
X25626000Y131175000D03*
X24666000Y131175000D03*
%TD*%
%TO.C,C13*%
X89626000Y22225000D03*
X88666000Y22225000D03*
%TD*%
%TO.C,C13*%
X89626000Y131175000D03*
X88666000Y131175000D03*
%TD*%
D24*
%TO.C,C1*%
X37874000Y20320000D03*
X38834000Y20320000D03*
%TD*%
%TO.C,C1*%
X101874000Y74795000D03*
X102834000Y74795000D03*
%TD*%
%TO.C,C1*%
X37874000Y129270000D03*
X38834000Y129270000D03*
%TD*%
%TO.C,C1*%
X101874000Y20320000D03*
X102834000Y20320000D03*
%TD*%
%TO.C,C1*%
X101874000Y129270000D03*
X102834000Y129270000D03*
%TD*%
%TO.C,C1*%
X37874000Y74795000D03*
X38834000Y74795000D03*
%TD*%
D19*
%TO.C,R41*%
X29212000Y36195000D03*
X28192000Y36195000D03*
%TD*%
%TO.C,R41*%
X29212000Y90670000D03*
X28192000Y90670000D03*
%TD*%
%TO.C,R41*%
X93212000Y36195000D03*
X92192000Y36195000D03*
%TD*%
%TO.C,R41*%
X93212000Y90670000D03*
X92192000Y90670000D03*
%TD*%
%TO.C,R41*%
X29212000Y145145000D03*
X28192000Y145145000D03*
%TD*%
%TO.C,R41*%
X93212000Y145145000D03*
X92192000Y145145000D03*
%TD*%
D44*
%TO.C,L3*%
X34658000Y36068000D03*
X36208000Y36068000D03*
%TD*%
%TO.C,L3*%
X98658000Y90543000D03*
X100208000Y90543000D03*
%TD*%
%TO.C,L3*%
X34658000Y90543000D03*
X36208000Y90543000D03*
%TD*%
%TO.C,L3*%
X34658000Y145018000D03*
X36208000Y145018000D03*
%TD*%
%TO.C,L3*%
X98658000Y36068000D03*
X100208000Y36068000D03*
%TD*%
%TO.C,L3*%
X98658000Y145018000D03*
X100208000Y145018000D03*
%TD*%
D29*
%TO.C,J18*%
X59690000Y38775000D03*
X59690000Y39775000D03*
X59690000Y40775000D03*
X59690000Y41775000D03*
X59690000Y42775000D03*
X59690000Y43775000D03*
D41*
X61915000Y37475000D03*
X61915000Y45075000D03*
%TD*%
D29*
%TO.C,J18*%
X59690000Y147725000D03*
X59690000Y148725000D03*
X59690000Y149725000D03*
X59690000Y150725000D03*
X59690000Y151725000D03*
X59690000Y152725000D03*
D41*
X61915000Y146425000D03*
X61915000Y154025000D03*
%TD*%
D29*
%TO.C,J18*%
X123690000Y93250000D03*
X123690000Y94250000D03*
X123690000Y95250000D03*
X123690000Y96250000D03*
X123690000Y97250000D03*
X123690000Y98250000D03*
D41*
X125915000Y91950000D03*
X125915000Y99550000D03*
%TD*%
D29*
%TO.C,J18*%
X59690000Y93250000D03*
X59690000Y94250000D03*
X59690000Y95250000D03*
X59690000Y96250000D03*
X59690000Y97250000D03*
X59690000Y98250000D03*
D41*
X61915000Y91950000D03*
X61915000Y99550000D03*
%TD*%
D29*
%TO.C,J18*%
X123690000Y147725000D03*
X123690000Y148725000D03*
X123690000Y149725000D03*
X123690000Y150725000D03*
X123690000Y151725000D03*
X123690000Y152725000D03*
D41*
X125915000Y146425000D03*
X125915000Y154025000D03*
%TD*%
D29*
%TO.C,J18*%
X123690000Y38775000D03*
X123690000Y39775000D03*
X123690000Y40775000D03*
X123690000Y41775000D03*
X123690000Y42775000D03*
X123690000Y43775000D03*
D41*
X125915000Y37475000D03*
X125915000Y45075000D03*
%TD*%
D45*
%TO.C,F1*%
X8255000Y15392400D03*
X8255000Y20167600D03*
%TD*%
%TO.C,F1*%
X8255000Y124342400D03*
X8255000Y129117600D03*
%TD*%
%TO.C,F1*%
X72255000Y69867400D03*
X72255000Y74642600D03*
%TD*%
%TO.C,F1*%
X72255000Y124342400D03*
X72255000Y129117600D03*
%TD*%
%TO.C,F1*%
X8255000Y69867400D03*
X8255000Y74642600D03*
%TD*%
%TO.C,F1*%
X72255000Y15392400D03*
X72255000Y20167600D03*
%TD*%
D12*
%TO.C,R16*%
X45210000Y43815000D03*
X46230000Y43815000D03*
%TD*%
%TO.C,R16*%
X45210000Y152765000D03*
X46230000Y152765000D03*
%TD*%
%TO.C,R16*%
X109210000Y43815000D03*
X110230000Y43815000D03*
%TD*%
%TO.C,R16*%
X45210000Y98290000D03*
X46230000Y98290000D03*
%TD*%
%TO.C,R16*%
X109210000Y98290000D03*
X110230000Y98290000D03*
%TD*%
%TO.C,R16*%
X109210000Y152765000D03*
X110230000Y152765000D03*
%TD*%
D23*
%TO.C,Q2*%
X13065000Y17465000D03*
X13065000Y19365000D03*
X10965000Y18415000D03*
%TD*%
%TO.C,Q2*%
X13065000Y71940000D03*
X13065000Y73840000D03*
X10965000Y72890000D03*
%TD*%
%TO.C,Q2*%
X77065000Y126415000D03*
X77065000Y128315000D03*
X74965000Y127365000D03*
%TD*%
%TO.C,Q2*%
X13065000Y126415000D03*
X13065000Y128315000D03*
X10965000Y127365000D03*
%TD*%
%TO.C,Q2*%
X77065000Y17465000D03*
X77065000Y19365000D03*
X74965000Y18415000D03*
%TD*%
%TO.C,Q2*%
X77065000Y71940000D03*
X77065000Y73840000D03*
X74965000Y72890000D03*
%TD*%
D19*
%TO.C,R15*%
X15750000Y43815000D03*
X14730000Y43815000D03*
%TD*%
%TO.C,R15*%
X15750000Y152765000D03*
X14730000Y152765000D03*
%TD*%
%TO.C,R15*%
X79750000Y98290000D03*
X78730000Y98290000D03*
%TD*%
%TO.C,R15*%
X79750000Y152765000D03*
X78730000Y152765000D03*
%TD*%
%TO.C,R15*%
X15750000Y98290000D03*
X14730000Y98290000D03*
%TD*%
%TO.C,R15*%
X79750000Y43815000D03*
X78730000Y43815000D03*
%TD*%
D46*
%TO.C,Y1*%
X36283000Y34305000D03*
X34583000Y34305000D03*
X34583000Y33005000D03*
X36283000Y33005000D03*
%TD*%
%TO.C,Y1*%
X100283000Y34305000D03*
X98583000Y34305000D03*
X98583000Y33005000D03*
X100283000Y33005000D03*
%TD*%
%TO.C,Y1*%
X100283000Y88780000D03*
X98583000Y88780000D03*
X98583000Y87480000D03*
X100283000Y87480000D03*
%TD*%
%TO.C,Y1*%
X36283000Y143255000D03*
X34583000Y143255000D03*
X34583000Y141955000D03*
X36283000Y141955000D03*
%TD*%
%TO.C,Y1*%
X36283000Y88780000D03*
X34583000Y88780000D03*
X34583000Y87480000D03*
X36283000Y87480000D03*
%TD*%
%TO.C,Y1*%
X100283000Y143255000D03*
X98583000Y143255000D03*
X98583000Y141955000D03*
X100283000Y141955000D03*
%TD*%
D47*
%TO.C,R29*%
X26035000Y5840000D03*
X26035000Y6860000D03*
%TD*%
%TO.C,R29*%
X90035000Y60315000D03*
X90035000Y61335000D03*
%TD*%
%TO.C,R29*%
X90035000Y114790000D03*
X90035000Y115810000D03*
%TD*%
%TO.C,R29*%
X26035000Y60315000D03*
X26035000Y61335000D03*
%TD*%
%TO.C,R29*%
X90035000Y5840000D03*
X90035000Y6860000D03*
%TD*%
%TO.C,R29*%
X26035000Y114790000D03*
X26035000Y115810000D03*
%TD*%
%TO.C,R11*%
X26035000Y3935000D03*
X26035000Y4955000D03*
%TD*%
%TO.C,R11*%
X26035000Y58410000D03*
X26035000Y59430000D03*
%TD*%
%TO.C,R11*%
X26035000Y112885000D03*
X26035000Y113905000D03*
%TD*%
%TO.C,R11*%
X90035000Y3935000D03*
X90035000Y4955000D03*
%TD*%
%TO.C,R11*%
X90035000Y112885000D03*
X90035000Y113905000D03*
%TD*%
%TO.C,R11*%
X90035000Y58410000D03*
X90035000Y59430000D03*
%TD*%
D29*
%TO.C,J19*%
X59690000Y27345000D03*
X59690000Y28345000D03*
X59690000Y29345000D03*
X59690000Y30345000D03*
X59690000Y31345000D03*
X59690000Y32345000D03*
D41*
X61915000Y26045000D03*
X61915000Y33645000D03*
%TD*%
D29*
%TO.C,J19*%
X123690000Y81820000D03*
X123690000Y82820000D03*
X123690000Y83820000D03*
X123690000Y84820000D03*
X123690000Y85820000D03*
X123690000Y86820000D03*
D41*
X125915000Y80520000D03*
X125915000Y88120000D03*
%TD*%
D29*
%TO.C,J19*%
X59690000Y136295000D03*
X59690000Y137295000D03*
X59690000Y138295000D03*
X59690000Y139295000D03*
X59690000Y140295000D03*
X59690000Y141295000D03*
D41*
X61915000Y134995000D03*
X61915000Y142595000D03*
%TD*%
D29*
%TO.C,J19*%
X59690000Y81820000D03*
X59690000Y82820000D03*
X59690000Y83820000D03*
X59690000Y84820000D03*
X59690000Y85820000D03*
X59690000Y86820000D03*
D41*
X61915000Y80520000D03*
X61915000Y88120000D03*
%TD*%
D29*
%TO.C,J19*%
X123690000Y27345000D03*
X123690000Y28345000D03*
X123690000Y29345000D03*
X123690000Y30345000D03*
X123690000Y31345000D03*
X123690000Y32345000D03*
D41*
X125915000Y26045000D03*
X125915000Y33645000D03*
%TD*%
D29*
%TO.C,J19*%
X123690000Y136295000D03*
X123690000Y137295000D03*
X123690000Y138295000D03*
X123690000Y139295000D03*
X123690000Y140295000D03*
X123690000Y141295000D03*
D41*
X125915000Y134995000D03*
X125915000Y142595000D03*
%TD*%
D47*
%TO.C,R21*%
X52070000Y6475000D03*
X52070000Y7495000D03*
%TD*%
%TO.C,R21*%
X116070000Y6475000D03*
X116070000Y7495000D03*
%TD*%
%TO.C,R21*%
X116070000Y115425000D03*
X116070000Y116445000D03*
%TD*%
%TO.C,R21*%
X52070000Y60950000D03*
X52070000Y61970000D03*
%TD*%
%TO.C,R21*%
X52070000Y115425000D03*
X52070000Y116445000D03*
%TD*%
%TO.C,R21*%
X116070000Y60950000D03*
X116070000Y61970000D03*
%TD*%
D19*
%TO.C,R14*%
X18290000Y43815000D03*
X17270000Y43815000D03*
%TD*%
%TO.C,R14*%
X18290000Y152765000D03*
X17270000Y152765000D03*
%TD*%
%TO.C,R14*%
X82290000Y43815000D03*
X81270000Y43815000D03*
%TD*%
%TO.C,R14*%
X82290000Y98290000D03*
X81270000Y98290000D03*
%TD*%
%TO.C,R14*%
X82290000Y152765000D03*
X81270000Y152765000D03*
%TD*%
%TO.C,R14*%
X18290000Y98290000D03*
X17270000Y98290000D03*
%TD*%
D47*
%TO.C,R23*%
X17145000Y15365000D03*
X17145000Y16385000D03*
%TD*%
%TO.C,R23*%
X81145000Y69840000D03*
X81145000Y70860000D03*
%TD*%
%TO.C,R23*%
X81145000Y15365000D03*
X81145000Y16385000D03*
%TD*%
%TO.C,R23*%
X17145000Y69840000D03*
X17145000Y70860000D03*
%TD*%
%TO.C,R23*%
X17145000Y124315000D03*
X17145000Y125335000D03*
%TD*%
%TO.C,R23*%
X81145000Y124315000D03*
X81145000Y125335000D03*
%TD*%
D48*
%TO.C,D1*%
X53822500Y42545000D03*
X55397500Y42545000D03*
%TD*%
%TO.C,D1*%
X117822500Y42545000D03*
X119397500Y42545000D03*
%TD*%
%TO.C,D1*%
X53822500Y97020000D03*
X55397500Y97020000D03*
%TD*%
%TO.C,D1*%
X53822500Y151495000D03*
X55397500Y151495000D03*
%TD*%
%TO.C,D1*%
X117822500Y97020000D03*
X119397500Y97020000D03*
%TD*%
%TO.C,D1*%
X117822500Y151495000D03*
X119397500Y151495000D03*
%TD*%
D29*
%TO.C,J17*%
X3810000Y32345000D03*
X3810000Y31345000D03*
X3810000Y30345000D03*
X3810000Y29345000D03*
X3810000Y28345000D03*
X3810000Y27345000D03*
D41*
X1585000Y33645000D03*
X1585000Y26045000D03*
%TD*%
D29*
%TO.C,J17*%
X67810000Y32345000D03*
X67810000Y31345000D03*
X67810000Y30345000D03*
X67810000Y29345000D03*
X67810000Y28345000D03*
X67810000Y27345000D03*
D41*
X65585000Y33645000D03*
X65585000Y26045000D03*
%TD*%
D29*
%TO.C,J17*%
X3810000Y86820000D03*
X3810000Y85820000D03*
X3810000Y84820000D03*
X3810000Y83820000D03*
X3810000Y82820000D03*
X3810000Y81820000D03*
D41*
X1585000Y88120000D03*
X1585000Y80520000D03*
%TD*%
D29*
%TO.C,J17*%
X3810000Y141295000D03*
X3810000Y140295000D03*
X3810000Y139295000D03*
X3810000Y138295000D03*
X3810000Y137295000D03*
X3810000Y136295000D03*
D41*
X1585000Y142595000D03*
X1585000Y134995000D03*
%TD*%
D29*
%TO.C,J17*%
X67810000Y141295000D03*
X67810000Y140295000D03*
X67810000Y139295000D03*
X67810000Y138295000D03*
X67810000Y137295000D03*
X67810000Y136295000D03*
D41*
X65585000Y142595000D03*
X65585000Y134995000D03*
%TD*%
D29*
%TO.C,J17*%
X67810000Y86820000D03*
X67810000Y85820000D03*
X67810000Y84820000D03*
X67810000Y83820000D03*
X67810000Y82820000D03*
X67810000Y81820000D03*
D41*
X65585000Y88120000D03*
X65585000Y80520000D03*
%TD*%
D28*
%TO.C,SW3*%
X56045000Y10940000D03*
X56045000Y6840000D03*
X54445000Y10940000D03*
X54445000Y6840000D03*
%TD*%
%TO.C,SW3*%
X120045000Y119890000D03*
X120045000Y115790000D03*
X118445000Y119890000D03*
X118445000Y115790000D03*
%TD*%
%TO.C,SW3*%
X56045000Y119890000D03*
X56045000Y115790000D03*
X54445000Y119890000D03*
X54445000Y115790000D03*
%TD*%
%TO.C,SW3*%
X120045000Y10940000D03*
X120045000Y6840000D03*
X118445000Y10940000D03*
X118445000Y6840000D03*
%TD*%
%TO.C,SW3*%
X56045000Y65415000D03*
X56045000Y61315000D03*
X54445000Y65415000D03*
X54445000Y61315000D03*
%TD*%
%TO.C,SW3*%
X120045000Y65415000D03*
X120045000Y61315000D03*
X118445000Y65415000D03*
X118445000Y61315000D03*
%TD*%
D11*
%TO.C,C28*%
X11430000Y43660000D03*
X11430000Y42700000D03*
%TD*%
%TO.C,C28*%
X11430000Y152610000D03*
X11430000Y151650000D03*
%TD*%
%TO.C,C28*%
X75430000Y43660000D03*
X75430000Y42700000D03*
%TD*%
%TO.C,C28*%
X11430000Y98135000D03*
X11430000Y97175000D03*
%TD*%
%TO.C,C28*%
X75430000Y152610000D03*
X75430000Y151650000D03*
%TD*%
%TO.C,C28*%
X75430000Y98135000D03*
X75430000Y97175000D03*
%TD*%
D24*
%TO.C,C44*%
X51590000Y30861000D03*
X52550000Y30861000D03*
%TD*%
%TO.C,C44*%
X51590000Y85336000D03*
X52550000Y85336000D03*
%TD*%
%TO.C,C44*%
X51590000Y139811000D03*
X52550000Y139811000D03*
%TD*%
%TO.C,C44*%
X115590000Y30861000D03*
X116550000Y30861000D03*
%TD*%
%TO.C,C44*%
X115590000Y85336000D03*
X116550000Y85336000D03*
%TD*%
%TO.C,C44*%
X115590000Y139811000D03*
X116550000Y139811000D03*
%TD*%
D19*
%TO.C,R30*%
X18290000Y19050000D03*
X17270000Y19050000D03*
%TD*%
%TO.C,R30*%
X18290000Y73525000D03*
X17270000Y73525000D03*
%TD*%
%TO.C,R30*%
X18290000Y128000000D03*
X17270000Y128000000D03*
%TD*%
%TO.C,R30*%
X82290000Y19050000D03*
X81270000Y19050000D03*
%TD*%
%TO.C,R30*%
X82290000Y128000000D03*
X81270000Y128000000D03*
%TD*%
%TO.C,R30*%
X82290000Y73525000D03*
X81270000Y73525000D03*
%TD*%
D21*
%TO.C,C39*%
X5080000Y21905000D03*
X5080000Y20005000D03*
%TD*%
%TO.C,C39*%
X5080000Y130855000D03*
X5080000Y128955000D03*
%TD*%
%TO.C,C39*%
X5080000Y76380000D03*
X5080000Y74480000D03*
%TD*%
%TO.C,C39*%
X69080000Y130855000D03*
X69080000Y128955000D03*
%TD*%
%TO.C,C39*%
X69080000Y76380000D03*
X69080000Y74480000D03*
%TD*%
%TO.C,C39*%
X69080000Y21905000D03*
X69080000Y20005000D03*
%TD*%
D47*
%TO.C,R28*%
X37465000Y5840000D03*
X37465000Y6860000D03*
%TD*%
%TO.C,R28*%
X37465000Y114790000D03*
X37465000Y115810000D03*
%TD*%
%TO.C,R28*%
X37465000Y60315000D03*
X37465000Y61335000D03*
%TD*%
%TO.C,R28*%
X101465000Y5840000D03*
X101465000Y6860000D03*
%TD*%
%TO.C,R28*%
X101465000Y114790000D03*
X101465000Y115810000D03*
%TD*%
%TO.C,R28*%
X101465000Y60315000D03*
X101465000Y61335000D03*
%TD*%
D26*
%TO.C,C42*%
X11910000Y40259000D03*
X10950000Y40259000D03*
%TD*%
%TO.C,C42*%
X11910000Y94734000D03*
X10950000Y94734000D03*
%TD*%
%TO.C,C42*%
X75910000Y94734000D03*
X74950000Y94734000D03*
%TD*%
%TO.C,C42*%
X11910000Y149209000D03*
X10950000Y149209000D03*
%TD*%
%TO.C,C42*%
X75910000Y40259000D03*
X74950000Y40259000D03*
%TD*%
%TO.C,C42*%
X75910000Y149209000D03*
X74950000Y149209000D03*
%TD*%
D24*
%TO.C,C20*%
X33937000Y10160000D03*
X34897000Y10160000D03*
%TD*%
%TO.C,C20*%
X97937000Y64635000D03*
X98897000Y64635000D03*
%TD*%
%TO.C,C20*%
X33937000Y64635000D03*
X34897000Y64635000D03*
%TD*%
%TO.C,C20*%
X97937000Y119110000D03*
X98897000Y119110000D03*
%TD*%
%TO.C,C20*%
X33937000Y119110000D03*
X34897000Y119110000D03*
%TD*%
%TO.C,C20*%
X97937000Y10160000D03*
X98897000Y10160000D03*
%TD*%
D26*
%TO.C,C12*%
X31214000Y31496000D03*
X30254000Y31496000D03*
%TD*%
%TO.C,C12*%
X31214000Y140446000D03*
X30254000Y140446000D03*
%TD*%
%TO.C,C12*%
X95214000Y85971000D03*
X94254000Y85971000D03*
%TD*%
%TO.C,C12*%
X31214000Y85971000D03*
X30254000Y85971000D03*
%TD*%
%TO.C,C12*%
X95214000Y140446000D03*
X94254000Y140446000D03*
%TD*%
%TO.C,C12*%
X95214000Y31496000D03*
X94254000Y31496000D03*
%TD*%
D47*
%TO.C,R12*%
X37465000Y3935000D03*
X37465000Y4955000D03*
%TD*%
%TO.C,R12*%
X101465000Y3935000D03*
X101465000Y4955000D03*
%TD*%
%TO.C,R12*%
X101465000Y58410000D03*
X101465000Y59430000D03*
%TD*%
%TO.C,R12*%
X37465000Y58410000D03*
X37465000Y59430000D03*
%TD*%
%TO.C,R12*%
X101465000Y112885000D03*
X101465000Y113905000D03*
%TD*%
%TO.C,R12*%
X37465000Y112885000D03*
X37465000Y113905000D03*
%TD*%
D20*
%TO.C,R49*%
X53975000Y37975000D03*
X53975000Y36955000D03*
%TD*%
%TO.C,R49*%
X117975000Y37975000D03*
X117975000Y36955000D03*
%TD*%
%TO.C,R49*%
X117975000Y92450000D03*
X117975000Y91430000D03*
%TD*%
%TO.C,R49*%
X117975000Y146925000D03*
X117975000Y145905000D03*
%TD*%
%TO.C,R49*%
X53975000Y92450000D03*
X53975000Y91430000D03*
%TD*%
%TO.C,R49*%
X53975000Y146925000D03*
X53975000Y145905000D03*
%TD*%
D49*
%TO.C,U9*%
X25250000Y47889000D03*
X25250000Y46389000D03*
X25250000Y44889000D03*
X25250000Y43389000D03*
X25250000Y41889000D03*
X25250000Y40389000D03*
X25250000Y38889000D03*
D50*
X27250000Y37839000D03*
X28750000Y37839000D03*
X30250000Y37839000D03*
X31750000Y37839000D03*
X33250000Y37839000D03*
X34750000Y37839000D03*
X36250000Y37839000D03*
D49*
X38250000Y38889000D03*
X38250000Y40389000D03*
X38250000Y41889000D03*
X38250000Y43389000D03*
X38250000Y44889000D03*
X38250000Y46389000D03*
X38250000Y47889000D03*
%TD*%
%TO.C,U9*%
X89250000Y102364000D03*
X89250000Y100864000D03*
X89250000Y99364000D03*
X89250000Y97864000D03*
X89250000Y96364000D03*
X89250000Y94864000D03*
X89250000Y93364000D03*
D50*
X91250000Y92314000D03*
X92750000Y92314000D03*
X94250000Y92314000D03*
X95750000Y92314000D03*
X97250000Y92314000D03*
X98750000Y92314000D03*
X100250000Y92314000D03*
D49*
X102250000Y93364000D03*
X102250000Y94864000D03*
X102250000Y96364000D03*
X102250000Y97864000D03*
X102250000Y99364000D03*
X102250000Y100864000D03*
X102250000Y102364000D03*
%TD*%
%TO.C,U9*%
X89250000Y47889000D03*
X89250000Y46389000D03*
X89250000Y44889000D03*
X89250000Y43389000D03*
X89250000Y41889000D03*
X89250000Y40389000D03*
X89250000Y38889000D03*
D50*
X91250000Y37839000D03*
X92750000Y37839000D03*
X94250000Y37839000D03*
X95750000Y37839000D03*
X97250000Y37839000D03*
X98750000Y37839000D03*
X100250000Y37839000D03*
D49*
X102250000Y38889000D03*
X102250000Y40389000D03*
X102250000Y41889000D03*
X102250000Y43389000D03*
X102250000Y44889000D03*
X102250000Y46389000D03*
X102250000Y47889000D03*
%TD*%
%TO.C,U9*%
X25250000Y102364000D03*
X25250000Y100864000D03*
X25250000Y99364000D03*
X25250000Y97864000D03*
X25250000Y96364000D03*
X25250000Y94864000D03*
X25250000Y93364000D03*
D50*
X27250000Y92314000D03*
X28750000Y92314000D03*
X30250000Y92314000D03*
X31750000Y92314000D03*
X33250000Y92314000D03*
X34750000Y92314000D03*
X36250000Y92314000D03*
D49*
X38250000Y93364000D03*
X38250000Y94864000D03*
X38250000Y96364000D03*
X38250000Y97864000D03*
X38250000Y99364000D03*
X38250000Y100864000D03*
X38250000Y102364000D03*
%TD*%
%TO.C,U9*%
X25250000Y156839000D03*
X25250000Y155339000D03*
X25250000Y153839000D03*
X25250000Y152339000D03*
X25250000Y150839000D03*
X25250000Y149339000D03*
X25250000Y147839000D03*
D50*
X27250000Y146789000D03*
X28750000Y146789000D03*
X30250000Y146789000D03*
X31750000Y146789000D03*
X33250000Y146789000D03*
X34750000Y146789000D03*
X36250000Y146789000D03*
D49*
X38250000Y147839000D03*
X38250000Y149339000D03*
X38250000Y150839000D03*
X38250000Y152339000D03*
X38250000Y153839000D03*
X38250000Y155339000D03*
X38250000Y156839000D03*
%TD*%
%TO.C,U9*%
X89250000Y156839000D03*
X89250000Y155339000D03*
X89250000Y153839000D03*
X89250000Y152339000D03*
X89250000Y150839000D03*
X89250000Y149339000D03*
X89250000Y147839000D03*
D50*
X91250000Y146789000D03*
X92750000Y146789000D03*
X94250000Y146789000D03*
X95750000Y146789000D03*
X97250000Y146789000D03*
X98750000Y146789000D03*
X100250000Y146789000D03*
D49*
X102250000Y147839000D03*
X102250000Y149339000D03*
X102250000Y150839000D03*
X102250000Y152339000D03*
X102250000Y153839000D03*
X102250000Y155339000D03*
X102250000Y156839000D03*
%TD*%
D27*
%TO.C,C33*%
X13843000Y36515000D03*
X13843000Y38415000D03*
%TD*%
%TO.C,C33*%
X13843000Y90990000D03*
X13843000Y92890000D03*
%TD*%
%TO.C,C33*%
X13843000Y145465000D03*
X13843000Y147365000D03*
%TD*%
%TO.C,C33*%
X77843000Y36515000D03*
X77843000Y38415000D03*
%TD*%
%TO.C,C33*%
X77843000Y145465000D03*
X77843000Y147365000D03*
%TD*%
%TO.C,C33*%
X77843000Y90990000D03*
X77843000Y92890000D03*
%TD*%
D20*
%TO.C,R6*%
X38100000Y13210000D03*
X38100000Y12190000D03*
%TD*%
%TO.C,R6*%
X38100000Y67685000D03*
X38100000Y66665000D03*
%TD*%
%TO.C,R6*%
X102100000Y67685000D03*
X102100000Y66665000D03*
%TD*%
%TO.C,R6*%
X38100000Y122160000D03*
X38100000Y121140000D03*
%TD*%
%TO.C,R6*%
X102100000Y13210000D03*
X102100000Y12190000D03*
%TD*%
%TO.C,R6*%
X102100000Y122160000D03*
X102100000Y121140000D03*
%TD*%
D25*
%TO.C,Q6*%
X47940000Y11160000D03*
X46040000Y11160000D03*
X46990000Y9060000D03*
%TD*%
%TO.C,Q6*%
X47940000Y65635000D03*
X46040000Y65635000D03*
X46990000Y63535000D03*
%TD*%
%TO.C,Q6*%
X111940000Y11160000D03*
X110040000Y11160000D03*
X110990000Y9060000D03*
%TD*%
%TO.C,Q6*%
X111940000Y65635000D03*
X110040000Y65635000D03*
X110990000Y63535000D03*
%TD*%
%TO.C,Q6*%
X111940000Y120110000D03*
X110040000Y120110000D03*
X110990000Y118010000D03*
%TD*%
%TO.C,Q6*%
X47940000Y120110000D03*
X46040000Y120110000D03*
X46990000Y118010000D03*
%TD*%
D47*
%TO.C,R5*%
X29845000Y14095000D03*
X29845000Y15115000D03*
%TD*%
%TO.C,R5*%
X29845000Y68570000D03*
X29845000Y69590000D03*
%TD*%
%TO.C,R5*%
X29845000Y123045000D03*
X29845000Y124065000D03*
%TD*%
%TO.C,R5*%
X93845000Y14095000D03*
X93845000Y15115000D03*
%TD*%
%TO.C,R5*%
X93845000Y68570000D03*
X93845000Y69590000D03*
%TD*%
%TO.C,R5*%
X93845000Y123045000D03*
X93845000Y124065000D03*
%TD*%
D24*
%TO.C,C4*%
X35080000Y31496000D03*
X36040000Y31496000D03*
%TD*%
%TO.C,C4*%
X35080000Y140446000D03*
X36040000Y140446000D03*
%TD*%
%TO.C,C4*%
X35080000Y85971000D03*
X36040000Y85971000D03*
%TD*%
%TO.C,C4*%
X99080000Y31496000D03*
X100040000Y31496000D03*
%TD*%
%TO.C,C4*%
X99080000Y85971000D03*
X100040000Y85971000D03*
%TD*%
%TO.C,C4*%
X99080000Y140446000D03*
X100040000Y140446000D03*
%TD*%
D51*
%TO.C,D6*%
X9677500Y29845000D03*
X8102500Y29845000D03*
%TD*%
%TO.C,D6*%
X9677500Y84320000D03*
X8102500Y84320000D03*
%TD*%
%TO.C,D6*%
X9677500Y138795000D03*
X8102500Y138795000D03*
%TD*%
%TO.C,D6*%
X73677500Y29845000D03*
X72102500Y29845000D03*
%TD*%
%TO.C,D6*%
X73677500Y84320000D03*
X72102500Y84320000D03*
%TD*%
%TO.C,D6*%
X73677500Y138795000D03*
X72102500Y138795000D03*
%TD*%
D47*
%TO.C,R20*%
X38100000Y9650000D03*
X38100000Y10670000D03*
%TD*%
%TO.C,R20*%
X102100000Y9650000D03*
X102100000Y10670000D03*
%TD*%
%TO.C,R20*%
X102100000Y118600000D03*
X102100000Y119620000D03*
%TD*%
%TO.C,R20*%
X102100000Y64125000D03*
X102100000Y65145000D03*
%TD*%
%TO.C,R20*%
X38100000Y64125000D03*
X38100000Y65145000D03*
%TD*%
%TO.C,R20*%
X38100000Y118600000D03*
X38100000Y119620000D03*
%TD*%
D24*
%TO.C,C29*%
X46510000Y20320000D03*
X47470000Y20320000D03*
%TD*%
%TO.C,C29*%
X46510000Y74795000D03*
X47470000Y74795000D03*
%TD*%
%TO.C,C29*%
X110510000Y74795000D03*
X111470000Y74795000D03*
%TD*%
%TO.C,C29*%
X46510000Y129270000D03*
X47470000Y129270000D03*
%TD*%
%TO.C,C29*%
X110510000Y20320000D03*
X111470000Y20320000D03*
%TD*%
%TO.C,C29*%
X110510000Y129270000D03*
X111470000Y129270000D03*
%TD*%
D12*
%TO.C,R42*%
X12825000Y41275000D03*
X13845000Y41275000D03*
%TD*%
%TO.C,R42*%
X12825000Y150225000D03*
X13845000Y150225000D03*
%TD*%
%TO.C,R42*%
X76825000Y95750000D03*
X77845000Y95750000D03*
%TD*%
%TO.C,R42*%
X12825000Y95750000D03*
X13845000Y95750000D03*
%TD*%
%TO.C,R42*%
X76825000Y41275000D03*
X77845000Y41275000D03*
%TD*%
%TO.C,R42*%
X76825000Y150225000D03*
X77845000Y150225000D03*
%TD*%
D25*
%TO.C,Q8*%
X51115000Y11160000D03*
X49215000Y11160000D03*
X50165000Y9060000D03*
%TD*%
%TO.C,Q8*%
X115115000Y120110000D03*
X113215000Y120110000D03*
X114165000Y118010000D03*
%TD*%
%TO.C,Q8*%
X51115000Y120110000D03*
X49215000Y120110000D03*
X50165000Y118010000D03*
%TD*%
%TO.C,Q8*%
X51115000Y65635000D03*
X49215000Y65635000D03*
X50165000Y63535000D03*
%TD*%
%TO.C,Q8*%
X115115000Y65635000D03*
X113215000Y65635000D03*
X114165000Y63535000D03*
%TD*%
%TO.C,Q8*%
X115115000Y11160000D03*
X113215000Y11160000D03*
X114165000Y9060000D03*
%TD*%
D26*
%TO.C,C15*%
X29232800Y19431000D03*
X28272800Y19431000D03*
%TD*%
%TO.C,C15*%
X93232800Y128381000D03*
X92272800Y128381000D03*
%TD*%
%TO.C,C15*%
X93232800Y19431000D03*
X92272800Y19431000D03*
%TD*%
%TO.C,C15*%
X29232800Y73906000D03*
X28272800Y73906000D03*
%TD*%
%TO.C,C15*%
X29232800Y128381000D03*
X28272800Y128381000D03*
%TD*%
%TO.C,C15*%
X93232800Y73906000D03*
X92272800Y73906000D03*
%TD*%
D47*
%TO.C,R48*%
X9525000Y33145000D03*
X9525000Y34165000D03*
%TD*%
%TO.C,R48*%
X73525000Y87620000D03*
X73525000Y88640000D03*
%TD*%
%TO.C,R48*%
X9525000Y142095000D03*
X9525000Y143115000D03*
%TD*%
%TO.C,R48*%
X9525000Y87620000D03*
X9525000Y88640000D03*
%TD*%
%TO.C,R48*%
X73525000Y33145000D03*
X73525000Y34165000D03*
%TD*%
%TO.C,R48*%
X73525000Y142095000D03*
X73525000Y143115000D03*
%TD*%
M02*
