M48
; DRILL file {KiCad 8.0.5} date 2024-12-18T16:51:19-0700
; FORMAT={-:-/ absolute / metric / decimal}
; #@! TF.CreationDate,2024-12-18T16:51:19-07:00
; #@! TF.GenerationSoftware,Kicad,Pcbnew,8.0.5
; #@! TF.FileFunction,MixedPlating,1,6
FMAT,2
METRIC
; #@! TA.AperFunction,Plated,PTH,ViaDrill
T1C0.300
; #@! TA.AperFunction,Plated,PTH,ComponentDrill
T2C0.600
; #@! TA.AperFunction,Plated,PTH,ComponentDrill
T3C1.000
; #@! TA.AperFunction,Plated,PTH,ComponentDrill
T4C1.016
; #@! TA.AperFunction,NonPlated,NPTH,ComponentDrill
T5C0.650
; #@! TA.AperFunction,NonPlated,NPTH,ComponentDrill
T6C0.900
; #@! TA.AperFunction,NonPlated,NPTH,ComponentDrill
T7C3.100
%
G90
G05
T1
X0.508Y162.417
X0.508Y109.458
X0.508Y107.942
X0.508Y54.983
X0.508Y53.467
X0.508Y0.508
X1.905Y150.733
X1.905Y149.717
X1.905Y148.701
X1.905Y96.258
X1.905Y95.242
X1.905Y94.226
X1.905Y41.783
X1.905Y40.767
X1.905Y39.751
X2.032Y139.303
X2.032Y138.287
X2.032Y137.271
X2.032Y84.828
X2.032Y83.812
X2.032Y82.796
X2.032Y30.353
X2.032Y29.337
X2.032Y28.321
X2.54Y150.733
X2.54Y149.717
X2.54Y148.701
X2.54Y147.685
X2.54Y96.258
X2.54Y95.242
X2.54Y94.226
X2.54Y93.21
X2.54Y41.783
X2.54Y40.767
X2.54Y39.751
X2.54Y38.735
X2.667Y139.303
X2.667Y138.287
X2.667Y137.271
X2.667Y136.255
X2.667Y84.828
X2.667Y83.812
X2.667Y82.796
X2.667Y81.78
X2.667Y30.353
X2.667Y29.337
X2.667Y28.321
X2.667Y27.305
X2.972Y156.626
X2.972Y102.151
X2.972Y47.676
X3.429Y157.083
X3.429Y102.608
X3.429Y48.133
X4.826Y129.905
X4.826Y119.745
X4.826Y75.43
X4.826Y65.27
X4.826Y20.955
X4.826Y10.795
X5.334Y129.905
X5.334Y119.745
X5.334Y75.43
X5.334Y65.27
X5.334Y20.955
X5.334Y10.795
X6.35Y129.905
X6.35Y75.43
X6.35Y20.955
X6.731Y127.111
X6.731Y126.349
X6.731Y72.636
X6.731Y71.874
X6.731Y18.161
X6.731Y17.399
X7.112Y150.225
X7.112Y147.685
X7.112Y145.145
X7.112Y142.605
X7.112Y128.0
X7.112Y125.46
X7.112Y95.75
X7.112Y93.21
X7.112Y90.67
X7.112Y88.13
X7.112Y73.525
X7.112Y70.985
X7.112Y41.275
X7.112Y38.735
X7.112Y36.195
X7.112Y33.655
X7.112Y19.05
X7.112Y16.51
X7.341Y132.994
X7.341Y78.519
X7.341Y24.044
X7.722Y132.623
X7.722Y78.148
X7.722Y23.673
X7.747Y148.828
X7.747Y148.32
X7.747Y144.51
X7.747Y144.002
X7.747Y94.353
X7.747Y93.845
X7.747Y90.035
X7.747Y89.527
X7.747Y39.878
X7.747Y39.37
X7.747Y35.56
X7.747Y35.052
X7.874Y128.0
X7.874Y125.46
X7.874Y73.525
X7.874Y70.985
X7.874Y19.05
X7.874Y16.51
X8.255Y148.32
X8.255Y147.812
X8.255Y145.018
X8.255Y144.51
X8.255Y93.845
X8.255Y93.337
X8.255Y90.543
X8.255Y90.035
X8.255Y39.37
X8.255Y38.862
X8.255Y36.068
X8.255Y35.56
X8.636Y133.588
X8.636Y133.08
X8.636Y128.0
X8.636Y125.46
X8.636Y79.113
X8.636Y78.605
X8.636Y73.525
X8.636Y70.985
X8.636Y24.638
X8.636Y24.13
X8.636Y19.05
X8.636Y16.51
X8.763Y141.462
X8.763Y86.987
X8.763Y32.512
X8.89Y147.05
X8.89Y145.78
X8.89Y92.575
X8.89Y91.305
X8.89Y38.1
X8.89Y36.83
X9.017Y151.58
X9.017Y97.105
X9.017Y42.63
X9.144Y160.639
X9.144Y159.623
X9.144Y158.607
X9.144Y157.591
X9.144Y133.588
X9.144Y133.08
X9.144Y106.164
X9.144Y105.148
X9.144Y104.132
X9.144Y103.116
X9.144Y79.113
X9.144Y78.605
X9.144Y51.689
X9.144Y50.673
X9.144Y49.657
X9.144Y48.641
X9.144Y24.638
X9.144Y24.13
X9.398Y128.0
X9.398Y125.46
X9.398Y73.525
X9.398Y70.985
X9.398Y19.05
X9.398Y16.51
X9.525Y150.606
X9.525Y146.415
X9.525Y141.462
X9.525Y96.131
X9.525Y91.94
X9.525Y86.987
X9.525Y41.656
X9.525Y37.465
X9.525Y32.512
X9.652Y137.779
X9.652Y137.144
X9.652Y83.304
X9.652Y82.669
X9.652Y28.829
X9.652Y28.194
X9.703Y148.879
X9.703Y94.404
X9.703Y39.929
X9.745Y144.129
X9.745Y89.654
X9.745Y35.179
X9.779Y135.62
X9.779Y135.112
X9.779Y81.145
X9.779Y80.637
X9.779Y26.67
X9.779Y26.162
X9.906Y159.623
X9.906Y158.607
X9.906Y105.148
X9.906Y104.132
X9.906Y50.673
X9.906Y49.657
X10.033Y150.225
X10.033Y143.621
X10.033Y95.75
X10.033Y89.146
X10.033Y41.275
X10.033Y34.671
X10.058Y149.387
X10.058Y94.912
X10.058Y40.437
X10.16Y157.464
X10.16Y147.05
X10.16Y145.78
X10.16Y102.989
X10.16Y92.575
X10.16Y91.305
X10.16Y48.514
X10.16Y38.1
X10.16Y36.83
X10.287Y135.62
X10.287Y135.112
X10.287Y81.145
X10.287Y80.637
X10.287Y26.67
X10.287Y26.162
X10.333Y148.864
X10.333Y94.389
X10.333Y39.914
X10.363Y144.129
X10.363Y89.654
X10.363Y35.179
X11.303Y148.447
X11.303Y93.972
X11.303Y39.497
X11.43Y153.629
X11.43Y99.154
X11.43Y44.679
X11.684Y129.905
X11.684Y129.397
X11.684Y75.43
X11.684Y74.922
X11.684Y20.955
X11.684Y20.447
X11.938Y144.637
X11.938Y90.162
X11.938Y35.687
X11.97Y148.11
X11.97Y93.635
X11.97Y39.16
X12.192Y129.905
X12.192Y129.397
X12.192Y75.43
X12.192Y74.922
X12.192Y20.955
X12.192Y20.447
X12.7Y135.874
X12.7Y81.399
X12.7Y26.924
X12.825Y151.114
X12.825Y96.639
X12.825Y42.164
X12.827Y146.923
X12.827Y135.239
X12.827Y92.448
X12.827Y80.764
X12.827Y37.973
X12.827Y26.289
X13.208Y132.623
X13.208Y78.148
X13.208Y23.673
X13.335Y140.7
X13.335Y139.43
X13.335Y138.16
X13.335Y86.225
X13.335Y84.955
X13.335Y83.685
X13.335Y31.75
X13.335Y30.48
X13.335Y29.21
X13.97Y153.781
X13.97Y99.306
X13.97Y44.831
X14.478Y156.829
X14.478Y132.623
X14.478Y102.354
X14.478Y78.148
X14.478Y47.879
X14.478Y23.673
X14.605Y150.225
X14.605Y140.7
X14.605Y139.43
X14.605Y138.16
X14.605Y95.75
X14.605Y86.225
X14.605Y84.955
X14.605Y83.685
X14.605Y41.275
X14.605Y31.75
X14.605Y30.48
X14.605Y29.21
X14.732Y153.781
X14.732Y128.762
X14.732Y99.306
X14.732Y74.287
X14.732Y44.831
X14.732Y19.812
X15.24Y129.905
X15.24Y128.762
X15.24Y128.254
X15.24Y126.73
X15.24Y75.43
X15.24Y74.287
X15.24Y73.779
X15.24Y72.255
X15.24Y20.955
X15.24Y19.812
X15.24Y19.304
X15.24Y17.78
X15.621Y148.955
X15.621Y148.447
X15.621Y144.129
X15.621Y143.621
X15.621Y143.037
X15.621Y94.48
X15.621Y93.972
X15.621Y89.654
X15.621Y89.146
X15.621Y88.562
X15.621Y40.005
X15.621Y39.497
X15.621Y35.179
X15.621Y34.671
X15.621Y34.087
X15.748Y153.781
X15.748Y135.874
X15.748Y133.969
X15.748Y128.762
X15.748Y99.306
X15.748Y81.399
X15.748Y79.494
X15.748Y74.287
X15.748Y44.831
X15.748Y26.924
X15.748Y25.019
X15.748Y19.812
X15.875Y140.7
X15.875Y139.43
X15.875Y138.16
X15.875Y86.225
X15.875Y84.955
X15.875Y83.685
X15.875Y31.75
X15.875Y30.48
X15.875Y29.21
X16.129Y160.639
X16.129Y159.623
X16.129Y158.615
X16.129Y157.615
X16.129Y148.955
X16.129Y148.447
X16.129Y144.129
X16.129Y143.621
X16.129Y143.037
X16.129Y106.164
X16.129Y105.148
X16.129Y104.14
X16.129Y103.14
X16.129Y94.48
X16.129Y93.972
X16.129Y89.654
X16.129Y89.146
X16.129Y88.562
X16.129Y51.689
X16.129Y50.673
X16.129Y49.665
X16.129Y48.665
X16.129Y40.005
X16.129Y39.497
X16.129Y35.179
X16.129Y34.671
X16.129Y34.087
X16.256Y135.874
X16.256Y133.969
X16.256Y81.399
X16.256Y79.494
X16.256Y26.924
X16.256Y25.019
X16.383Y125.333
X16.383Y124.317
X16.383Y70.858
X16.383Y69.842
X16.383Y16.383
X16.383Y15.367
X16.51Y153.781
X16.51Y99.306
X16.51Y44.831
X16.637Y157.337
X16.637Y102.862
X16.637Y48.387
X16.764Y159.623
X16.764Y158.734
X16.764Y105.148
X16.764Y104.259
X16.764Y50.673
X16.764Y49.784
X17.094Y128.838
X17.094Y74.363
X17.094Y19.888
X17.272Y153.781
X17.272Y99.306
X17.272Y44.831
X17.78Y135.874
X17.78Y133.969
X17.78Y125.968
X17.78Y81.399
X17.78Y79.494
X17.78Y71.493
X17.78Y26.924
X17.78Y25.019
X17.78Y17.018
X17.882Y148.142
X17.882Y93.667
X17.882Y39.192
X18.285Y153.78
X18.285Y99.305
X18.285Y44.83
X18.288Y143.24
X18.288Y135.874
X18.288Y133.969
X18.288Y131.937
X18.288Y88.765
X18.288Y81.399
X18.288Y79.494
X18.288Y77.462
X18.288Y34.29
X18.288Y26.924
X18.288Y25.019
X18.288Y22.987
X18.542Y125.968
X18.542Y71.493
X18.542Y17.018
X18.796Y162.417
X18.796Y107.942
X18.796Y53.467
X19.05Y153.781
X19.05Y150.86
X19.05Y99.306
X19.05Y96.385
X19.05Y44.831
X19.05Y41.91
X23.978Y131.15
X23.978Y76.675
X23.978Y22.2
X24.003Y134.223
X24.003Y79.748
X24.003Y25.273
X24.13Y156.829
X24.13Y152.13
X24.13Y102.354
X24.13Y97.655
X24.13Y47.879
X24.13Y43.18
X24.137Y131.712
X24.137Y77.237
X24.137Y22.762
X24.144Y147.828
X24.144Y93.353
X24.144Y38.878
X24.511Y112.252
X24.511Y57.777
X24.511Y3.302
X24.638Y135.608
X24.638Y129.397
X24.638Y81.133
X24.638Y74.922
X24.638Y26.658
X24.638Y20.447
X24.765Y119.11
X24.765Y64.635
X24.765Y10.16
X24.892Y112.633
X24.892Y58.158
X24.892Y3.683
X25.019Y139.43
X25.019Y138.668
X25.019Y84.955
X25.019Y84.193
X25.019Y30.48
X25.019Y29.718
X25.273Y119.11
X25.273Y113.014
X25.273Y64.635
X25.273Y58.539
X25.273Y10.16
X25.273Y4.064
X25.453Y140.034
X25.453Y85.559
X25.453Y31.084
X25.654Y135.62
X25.654Y129.397
X25.654Y81.145
X25.654Y74.922
X25.654Y26.67
X25.654Y20.447
X25.781Y126.603
X25.781Y119.11
X25.781Y72.128
X25.781Y64.635
X25.781Y17.653
X25.781Y10.16
X25.832Y144.256
X25.832Y89.781
X25.832Y35.306
X25.905Y140.395
X25.905Y85.92
X25.905Y31.445
X26.035Y117.205
X26.035Y116.57
X26.035Y62.73
X26.035Y62.095
X26.035Y8.255
X26.035Y7.62
X26.445Y139.98
X26.445Y85.505
X26.445Y31.03
X26.543Y144.256
X26.543Y89.781
X26.543Y35.306
X26.67Y157.591
X26.67Y103.116
X26.67Y48.641
X26.797Y126.603
X26.797Y114.792
X26.797Y72.128
X26.797Y60.317
X26.797Y17.653
X26.797Y5.842
X27.051Y109.458
X27.051Y54.983
X27.051Y0.508
X27.052Y110.096
X27.052Y55.621
X27.052Y1.146
X27.178Y147.939
X27.178Y93.464
X27.178Y38.989
X27.559Y128.381
X27.559Y127.365
X27.559Y117.459
X27.559Y73.906
X27.559Y72.89
X27.559Y62.984
X27.559Y19.431
X27.559Y18.415
X27.559Y8.509
X27.635Y134.985
X27.635Y80.51
X27.635Y26.035
X27.651Y133.734
X27.651Y79.26
X27.651Y24.784
X27.654Y132.528
X27.654Y78.053
X27.654Y23.578
X27.739Y148.072
X27.739Y93.597
X27.739Y39.122
X27.813Y151.495
X27.813Y97.02
X27.813Y42.545
X27.877Y131.365
X27.877Y76.891
X27.877Y22.415
X27.94Y157.591
X27.94Y103.116
X27.94Y48.641
X27.987Y132.056
X27.987Y77.581
X27.987Y23.106
X28.031Y134.565
X28.031Y80.09
X28.031Y25.615
X28.067Y117.459
X28.067Y62.984
X28.067Y8.509
X28.17Y122.285
X28.17Y67.81
X28.17Y13.335
X28.204Y135.591
X28.204Y81.116
X28.204Y26.641
X28.245Y114.805
X28.245Y60.33
X28.245Y5.855
X28.27Y133.715
X28.27Y79.24
X28.27Y24.765
X28.339Y130.206
X28.339Y75.731
X28.339Y21.256
X28.364Y131.057
X28.364Y76.582
X28.364Y22.107
X28.372Y140.827
X28.372Y86.352
X28.372Y31.877
X28.379Y135.026
X28.379Y80.551
X28.379Y26.076
X28.448Y131.658
X28.448Y77.183
X28.448Y22.708
X28.55Y136.053
X28.55Y81.578
X28.55Y27.103
X28.649Y140.299
X28.649Y85.824
X28.649Y31.349
X28.702Y145.653
X28.702Y91.178
X28.702Y36.703
X28.829Y149.302
X28.829Y148.32
X28.829Y94.826
X28.829Y93.845
X28.829Y40.352
X28.829Y39.37
X28.909Y131.311
X28.909Y76.836
X28.909Y22.361
X29.15Y130.219
X29.15Y75.744
X29.15Y21.269
X29.21Y157.591
X29.21Y135.112
X29.21Y134.35
X29.21Y124.571
X29.21Y103.116
X29.21Y80.637
X29.21Y79.875
X29.21Y70.096
X29.21Y48.641
X29.21Y26.162
X29.21Y25.4
X29.21Y15.621
X29.226Y140.294
X29.226Y85.819
X29.226Y31.344
X29.362Y138.49
X29.362Y84.015
X29.362Y29.54
X29.489Y145.805
X29.489Y91.33
X29.489Y36.855
X29.53Y120.761
X29.53Y66.286
X29.53Y11.811
X29.591Y148.828
X29.591Y94.353
X29.591Y39.878
X29.845Y127.746
X29.845Y127.111
X29.845Y73.271
X29.845Y72.636
X29.845Y18.796
X29.845Y18.161
X29.921Y117.51
X29.921Y63.035
X29.921Y8.56
X29.947Y144.256
X29.947Y89.781
X29.947Y35.306
X29.95Y136.585
X29.95Y82.11
X29.95Y27.635
X30.075Y141.115
X30.075Y86.641
X30.075Y32.166
X30.201Y144.789
X30.201Y90.314
X30.201Y35.839
X30.353Y112.125
X30.353Y57.65
X30.353Y3.175
X30.429Y136.982
X30.429Y82.507
X30.429Y28.032
X30.48Y157.591
X30.48Y135.62
X30.48Y134.35
X30.48Y133.08
X30.48Y120.761
X30.48Y119.999
X30.48Y103.116
X30.48Y81.145
X30.48Y79.875
X30.48Y78.605
X30.48Y66.286
X30.48Y65.524
X30.48Y48.641
X30.48Y26.67
X30.48Y25.4
X30.48Y24.13
X30.48Y11.811
X30.48Y11.049
X30.5Y117.518
X30.5Y63.043
X30.5Y8.568
X30.963Y130.226
X30.963Y75.751
X30.963Y21.276
X31.115Y148.32
X31.115Y145.78
X31.115Y126.603
X31.115Y93.845
X31.115Y91.305
X31.115Y72.128
X31.115Y39.37
X31.115Y36.83
X31.115Y17.653
X31.43Y120.761
X31.43Y66.286
X31.43Y11.811
X31.572Y138.084
X31.572Y83.609
X31.572Y29.134
X31.623Y148.701
X31.623Y94.226
X31.623Y39.751
X31.645Y130.211
X31.645Y75.736
X31.645Y21.261
X31.75Y157.591
X31.75Y136.89
X31.75Y135.62
X31.75Y134.35
X31.75Y133.08
X31.75Y103.116
X31.75Y82.415
X31.75Y81.145
X31.75Y79.875
X31.75Y78.605
X31.75Y48.641
X31.75Y27.94
X31.75Y26.67
X31.75Y25.4
X31.75Y24.13
X32.057Y138.397
X32.057Y83.922
X32.057Y29.447
X32.131Y148.32
X32.131Y93.845
X32.131Y39.37
X32.385Y145.78
X32.385Y136.89
X32.385Y91.305
X32.385Y82.415
X32.385Y36.83
X32.385Y27.94
X32.585Y138.165
X32.585Y83.69
X32.585Y29.215
X32.639Y117.967
X32.639Y63.492
X32.639Y9.017
X32.766Y130.286
X32.766Y122.793
X32.766Y75.811
X32.766Y68.318
X32.766Y21.336
X32.766Y13.843
X33.02Y157.591
X33.02Y135.62
X33.02Y134.35
X33.02Y133.08
X33.02Y103.116
X33.02Y81.145
X33.02Y79.875
X33.02Y78.605
X33.02Y48.641
X33.02Y26.67
X33.02Y25.4
X33.02Y24.13
X33.161Y138.147
X33.161Y83.672
X33.161Y29.197
X33.274Y145.018
X33.274Y143.748
X33.274Y90.543
X33.274Y89.273
X33.274Y36.068
X33.274Y34.798
X33.401Y130.21
X33.401Y120.634
X33.401Y119.999
X33.401Y75.735
X33.401Y66.159
X33.401Y65.524
X33.401Y21.26
X33.401Y11.684
X33.401Y11.049
X33.477Y137.652
X33.477Y83.177
X33.477Y28.702
X33.528Y117.586
X33.528Y63.111
X33.528Y8.636
X33.655Y127.492
X33.655Y73.017
X33.655Y18.542
X33.738Y138.168
X33.738Y83.693
X33.738Y29.218
X33.782Y145.018
X33.782Y90.543
X33.782Y36.068
X33.858Y132.648
X33.858Y78.173
X33.858Y23.698
X33.909Y145.78
X33.909Y91.305
X33.909Y36.83
X34.188Y133.715
X34.188Y79.24
X34.188Y24.765
X34.265Y111.693
X34.265Y57.218
X34.265Y2.743
X34.274Y130.152
X34.274Y75.677
X34.274Y21.202
X34.29Y157.591
X34.29Y140.446
X34.29Y135.798
X34.29Y134.35
X34.29Y103.116
X34.29Y85.971
X34.29Y81.323
X34.29Y79.875
X34.29Y48.641
X34.29Y31.496
X34.29Y26.848
X34.29Y25.4
X34.33Y138.163
X34.33Y83.688
X34.33Y29.213
X34.351Y132.949
X34.351Y78.474
X34.351Y23.999
X34.636Y136.306
X34.636Y81.831
X34.636Y27.356
X34.671Y131.362
X34.671Y117.459
X34.671Y76.887
X34.671Y62.984
X34.671Y22.412
X34.671Y8.509
X34.816Y133.321
X34.816Y78.846
X34.816Y24.371
X34.829Y134.766
X34.829Y80.29
X34.829Y25.816
X34.837Y130.276
X34.837Y75.801
X34.837Y21.326
X34.874Y132.687
X34.874Y78.212
X34.874Y23.737
X34.89Y135.746
X34.89Y81.271
X34.89Y26.796
X34.925Y119.872
X34.925Y65.397
X34.925Y10.922
X35.128Y138.566
X35.128Y84.091
X35.128Y29.616
X35.179Y117.459
X35.179Y62.984
X35.179Y8.509
X35.202Y137.986
X35.202Y83.511
X35.202Y29.036
X35.204Y131.785
X35.204Y77.31
X35.204Y22.835
X35.208Y135.201
X35.208Y80.726
X35.208Y26.251
X35.274Y114.818
X35.274Y60.343
X35.274Y5.868
X35.355Y133.114
X35.355Y78.639
X35.355Y24.165
X35.357Y133.691
X35.357Y79.216
X35.357Y24.741
X35.454Y130.265
X35.454Y75.79
X35.454Y21.315
X35.56Y157.591
X35.56Y103.116
X35.56Y48.641
X35.623Y134.667
X35.623Y80.192
X35.623Y25.717
X35.678Y149.327
X35.678Y94.852
X35.678Y40.377
X35.763Y138.338
X35.763Y83.863
X35.763Y29.388
X35.865Y133.385
X35.865Y130.718
X35.865Y78.91
X35.865Y76.243
X35.865Y24.435
X35.865Y21.768
X35.941Y120.253
X35.941Y65.778
X35.941Y11.303
X36.025Y130.151
X36.025Y75.676
X36.025Y21.201
X36.068Y121.777
X36.068Y67.302
X36.068Y12.827
X36.144Y152.689
X36.144Y98.214
X36.144Y43.739
X36.195Y154.162
X36.195Y99.687
X36.195Y45.212
X36.322Y144.129
X36.322Y141.081
X36.322Y89.654
X36.322Y86.606
X36.322Y35.179
X36.322Y32.131
X36.449Y110.096
X36.449Y109.458
X36.449Y55.621
X36.449Y54.983
X36.449Y1.146
X36.449Y0.508
X36.576Y153.136
X36.576Y152.257
X36.576Y150.987
X36.576Y150.352
X36.576Y98.661
X36.576Y97.782
X36.576Y96.512
X36.576Y95.877
X36.576Y44.186
X36.576Y43.307
X36.576Y42.037
X36.576Y41.402
X36.703Y140.446
X36.703Y114.792
X36.703Y85.971
X36.703Y60.317
X36.703Y31.496
X36.703Y5.842
X36.83Y157.591
X36.83Y103.116
X36.83Y48.641
X37.084Y127.365
X37.084Y72.89
X37.084Y18.415
X37.186Y147.812
X37.186Y93.337
X37.186Y38.862
X37.211Y150.098
X37.211Y95.623
X37.211Y41.148
X37.338Y147.05
X37.338Y146.39
X37.338Y145.729
X37.338Y145.069
X37.338Y144.408
X37.338Y143.748
X37.338Y130.159
X37.338Y92.575
X37.338Y91.915
X37.338Y91.254
X37.338Y90.594
X37.338Y89.933
X37.338Y89.273
X37.338Y75.684
X37.338Y38.1
X37.338Y37.44
X37.338Y36.779
X37.338Y36.119
X37.338Y35.458
X37.338Y34.798
X37.338Y21.209
X37.465Y117.205
X37.465Y116.57
X37.465Y62.73
X37.465Y62.095
X37.465Y8.255
X37.465Y7.62
X37.592Y141.335
X37.592Y120.38
X37.592Y86.86
X37.592Y65.905
X37.592Y32.385
X37.592Y11.43
X37.668Y139.989
X37.668Y85.514
X37.668Y31.039
X37.846Y135.366
X37.846Y80.891
X37.846Y26.416
X37.973Y130.413
X37.973Y75.938
X37.973Y21.463
X38.252Y132.877
X38.252Y78.402
X38.252Y23.927
X38.735Y134.858
X38.735Y80.383
X38.735Y25.908
X38.811Y129.981
X38.811Y75.506
X38.811Y21.031
X38.837Y132.902
X38.837Y78.427
X38.837Y23.952
X38.862Y136.89
X38.862Y82.415
X38.862Y27.94
X39.355Y147.814
X39.355Y93.339
X39.355Y38.864
X39.37Y156.829
X39.37Y102.354
X39.37Y47.879
X44.45Y153.781
X44.45Y99.306
X44.45Y44.831
X44.704Y162.417
X44.704Y107.942
X44.704Y53.467
X44.831Y135.366
X44.831Y80.891
X44.831Y26.416
X45.136Y131.785
X45.136Y77.31
X45.136Y22.835
X45.187Y132.547
X45.187Y78.072
X45.187Y23.597
X45.212Y153.781
X45.212Y99.306
X45.212Y44.831
X45.339Y142.224
X45.339Y87.749
X45.339Y33.274
X45.436Y115.838
X45.436Y61.363
X45.436Y6.888
X45.466Y151.495
X45.466Y129.905
X45.466Y121.015
X45.466Y97.02
X45.466Y75.43
X45.466Y66.54
X45.466Y42.545
X45.466Y20.955
X45.466Y12.065
X45.649Y127.538
X45.649Y73.063
X45.649Y18.588
X45.669Y128.178
X45.669Y73.703
X45.669Y19.228
X45.72Y150.86
X45.72Y129.27
X45.72Y96.385
X45.72Y74.795
X45.72Y41.91
X45.72Y20.32
X45.847Y145.145
X45.847Y134.223
X45.847Y90.67
X45.847Y79.748
X45.847Y36.195
X45.847Y25.273
X45.939Y144.459
X45.939Y141.843
X45.939Y89.984
X45.939Y87.368
X45.939Y35.509
X45.939Y32.893
X46.228Y153.781
X46.228Y99.306
X46.228Y44.831
X46.233Y127.535
X46.233Y73.06
X46.233Y18.585
X46.355Y160.639
X46.355Y125.917
X46.355Y106.164
X46.355Y71.442
X46.355Y51.689
X46.355Y16.967
X46.609Y159.623
X46.609Y105.148
X46.609Y50.673
X46.863Y158.226
X46.863Y103.751
X46.863Y49.276
X46.99Y153.781
X46.99Y130.032
X46.99Y119.237
X46.99Y118.729
X46.99Y99.306
X46.99Y75.557
X46.99Y64.762
X46.99Y64.254
X46.99Y44.831
X46.99Y21.082
X46.99Y10.287
X46.99Y9.779
X47.371Y160.639
X47.371Y159.623
X47.371Y158.607
X47.371Y157.591
X47.371Y145.983
X47.371Y145.399
X47.371Y144.891
X47.371Y140.573
X47.371Y140.065
X47.371Y106.164
X47.371Y105.148
X47.371Y104.132
X47.371Y103.116
X47.371Y91.508
X47.371Y90.924
X47.371Y90.416
X47.371Y86.098
X47.371Y85.59
X47.371Y51.689
X47.371Y50.673
X47.371Y49.657
X47.371Y48.641
X47.371Y37.033
X47.371Y36.449
X47.371Y35.941
X47.371Y31.623
X47.371Y31.115
X47.498Y130.032
X47.498Y75.557
X47.498Y21.082
X47.625Y125.917
X47.625Y122.285
X47.625Y71.442
X47.625Y67.81
X47.625Y16.967
X47.625Y13.335
X47.752Y153.781
X47.752Y99.306
X47.752Y44.831
X47.879Y145.983
X47.879Y145.399
X47.879Y144.891
X47.879Y140.573
X47.879Y140.065
X47.879Y91.508
X47.879Y90.924
X47.879Y90.416
X47.879Y86.098
X47.879Y85.59
X47.879Y37.033
X47.879Y36.449
X47.879Y35.941
X47.879Y31.623
X47.879Y31.115
X48.26Y118.983
X48.26Y118.348
X48.26Y112.76
X48.26Y64.508
X48.26Y63.873
X48.26Y58.285
X48.26Y10.033
X48.26Y9.398
X48.26Y3.81
X48.387Y134.35
X48.387Y79.875
X48.387Y25.4
X48.768Y153.781
X48.768Y99.306
X48.768Y44.831
X48.895Y139.811
X48.895Y138.795
X48.895Y131.81
X48.895Y122.285
X48.895Y118.983
X48.895Y118.348
X48.895Y85.336
X48.895Y84.32
X48.895Y77.335
X48.895Y67.81
X48.895Y64.508
X48.895Y63.873
X48.895Y30.861
X48.895Y29.845
X48.895Y22.86
X48.895Y13.335
X48.895Y10.033
X48.895Y9.398
X49.403Y128.127
X49.403Y117.205
X49.403Y73.652
X49.403Y62.73
X49.403Y19.177
X49.403Y8.255
X49.479Y129.6
X49.479Y75.125
X49.479Y20.65
X49.53Y153.781
X49.53Y125.917
X49.53Y99.306
X49.53Y71.442
X49.53Y44.831
X49.53Y16.967
X50.038Y128.254
X50.038Y73.779
X50.038Y19.304
X50.165Y119.237
X50.165Y118.729
X50.165Y64.762
X50.165Y64.254
X50.165Y10.287
X50.165Y9.779
X50.292Y132.191
X50.292Y131.556
X50.292Y129.905
X50.292Y77.716
X50.292Y77.081
X50.292Y75.43
X50.292Y23.241
X50.292Y22.606
X50.292Y20.955
X50.673Y142.097
X50.673Y87.622
X50.673Y33.147
X50.675Y137.779
X50.675Y83.304
X50.675Y28.829
X50.8Y125.917
X50.8Y122.285
X50.8Y117.205
X50.8Y71.442
X50.8Y67.81
X50.8Y62.73
X50.8Y16.967
X50.8Y13.335
X50.8Y8.255
X50.927Y129.575
X50.927Y129.067
X50.927Y128.559
X50.927Y128.051
X50.927Y75.1
X50.927Y74.592
X50.927Y74.084
X50.927Y73.576
X50.927Y20.625
X50.927Y20.117
X50.927Y19.609
X50.927Y19.101
X51.054Y134.604
X51.054Y134.096
X51.054Y80.129
X51.054Y79.621
X51.054Y25.654
X51.054Y25.146
X51.562Y144.637
X51.562Y134.096
X51.562Y90.162
X51.562Y79.621
X51.562Y35.687
X51.562Y25.146
X51.563Y141.081
X51.563Y86.606
X51.563Y32.131
X51.816Y132.064
X51.816Y131.556
X51.816Y77.589
X51.816Y77.081
X51.816Y23.114
X51.816Y22.606
X52.324Y132.064
X52.324Y131.556
X52.324Y77.589
X52.324Y77.081
X52.324Y23.114
X52.324Y22.606
X52.451Y123.301
X52.451Y68.826
X52.451Y14.351
X52.832Y151.495
X52.832Y97.02
X52.832Y42.545
X53.086Y140.319
X53.086Y85.844
X53.086Y31.369
X53.162Y144.891
X53.162Y90.416
X53.162Y35.941
X53.213Y134.604
X53.213Y134.096
X53.213Y80.129
X53.213Y79.621
X53.213Y25.654
X53.213Y25.146
X53.34Y152.765
X53.34Y143.24
X53.34Y141.97
X53.34Y98.29
X53.34Y88.765
X53.34Y87.495
X53.34Y43.815
X53.34Y34.29
X53.34Y33.02
X53.432Y160.766
X53.432Y106.291
X53.432Y51.816
X53.467Y139.684
X53.467Y138.795
X53.467Y137.525
X53.467Y125.841
X53.467Y85.209
X53.467Y84.32
X53.467Y83.05
X53.467Y71.366
X53.467Y30.734
X53.467Y29.845
X53.467Y28.575
X53.467Y16.891
X53.492Y145.374
X53.492Y90.899
X53.492Y36.424
X53.594Y116.824
X53.594Y62.349
X53.594Y7.874
X53.721Y159.623
X53.721Y158.607
X53.721Y140.319
X53.721Y134.096
X53.721Y130.413
X53.721Y105.148
X53.721Y104.132
X53.721Y85.844
X53.721Y79.621
X53.721Y75.938
X53.721Y50.673
X53.721Y49.657
X53.721Y31.369
X53.721Y25.146
X53.721Y21.463
X53.809Y144.891
X53.809Y90.416
X53.809Y35.941
X53.848Y126.857
X53.848Y72.382
X53.848Y17.907
X53.975Y147.558
X53.975Y142.605
X53.975Y93.083
X53.975Y88.13
X53.975Y38.608
X53.975Y33.655
X54.356Y160.639
X54.356Y159.623
X54.356Y158.607
X54.356Y157.591
X54.356Y106.164
X54.356Y105.148
X54.356Y104.132
X54.356Y103.116
X54.356Y51.689
X54.356Y50.673
X54.356Y49.657
X54.356Y48.641
X54.61Y143.24
X54.61Y141.97
X54.61Y88.765
X54.61Y87.495
X54.61Y34.29
X54.61Y33.02
X54.737Y147.431
X54.737Y92.956
X54.737Y38.481
X55.245Y144.51
X55.245Y144.002
X55.245Y141.208
X55.245Y140.7
X55.245Y138.795
X55.245Y124.825
X55.245Y122.285
X55.245Y119.11
X55.245Y116.57
X55.245Y113.395
X55.245Y110.855
X55.245Y90.035
X55.245Y89.527
X55.245Y86.733
X55.245Y86.225
X55.245Y84.32
X55.245Y70.35
X55.245Y67.81
X55.245Y64.635
X55.245Y62.095
X55.245Y58.92
X55.245Y56.38
X55.245Y35.56
X55.245Y35.052
X55.245Y32.258
X55.245Y31.75
X55.245Y29.845
X55.245Y15.875
X55.245Y13.335
X55.245Y10.16
X55.245Y7.62
X55.245Y4.445
X55.245Y1.905
X55.753Y145.018
X55.753Y144.51
X55.753Y140.7
X55.753Y140.192
X55.753Y90.543
X55.753Y90.035
X55.753Y86.225
X55.753Y85.717
X55.753Y36.068
X55.753Y35.56
X55.753Y31.75
X55.753Y31.242
X56.388Y146.415
X56.388Y143.875
X56.388Y141.335
X56.388Y138.795
X56.388Y91.94
X56.388Y89.4
X56.388Y86.86
X56.388Y84.32
X56.388Y37.465
X56.388Y34.925
X56.388Y32.385
X56.388Y29.845
X56.759Y129.27
X56.759Y74.795
X56.759Y20.32
X58.166Y129.905
X58.166Y119.745
X58.166Y75.43
X58.166Y65.27
X58.166Y20.955
X58.166Y10.795
X58.674Y129.905
X58.674Y119.745
X58.674Y75.43
X58.674Y65.27
X58.674Y20.955
X58.674Y10.795
X60.833Y152.725
X60.833Y151.725
X60.833Y150.725
X60.833Y149.725
X60.833Y141.295
X60.833Y140.295
X60.833Y139.295
X60.833Y138.295
X60.833Y98.25
X60.833Y97.25
X60.833Y96.25
X60.833Y95.25
X60.833Y86.82
X60.833Y85.82
X60.833Y84.82
X60.833Y83.82
X60.833Y43.775
X60.833Y42.775
X60.833Y41.775
X60.833Y40.775
X60.833Y32.345
X60.833Y31.345
X60.833Y30.345
X60.833Y29.345
X61.468Y151.749
X61.468Y150.733
X61.468Y149.717
X61.468Y140.319
X61.468Y139.303
X61.468Y138.287
X61.468Y97.274
X61.468Y96.258
X61.468Y95.242
X61.468Y85.844
X61.468Y84.828
X61.468Y83.812
X61.468Y42.799
X61.468Y41.783
X61.468Y40.767
X61.468Y31.369
X61.468Y30.353
X61.468Y29.337
X62.23Y133.969
X62.23Y79.494
X62.23Y25.019
X62.992Y162.417
X62.992Y109.458
X62.992Y107.942
X62.992Y54.983
X62.992Y53.467
X62.992Y0.508
X64.508Y162.417
X64.508Y109.458
X64.508Y107.942
X64.508Y54.983
X64.508Y53.467
X64.508Y0.508
X65.905Y150.733
X65.905Y149.717
X65.905Y148.701
X65.905Y96.258
X65.905Y95.242
X65.905Y94.226
X65.905Y41.783
X65.905Y40.767
X65.905Y39.751
X66.032Y139.303
X66.032Y138.287
X66.032Y137.271
X66.032Y84.828
X66.032Y83.812
X66.032Y82.796
X66.032Y30.353
X66.032Y29.337
X66.032Y28.321
X66.54Y150.733
X66.54Y149.717
X66.54Y148.701
X66.54Y147.685
X66.54Y96.258
X66.54Y95.242
X66.54Y94.226
X66.54Y93.21
X66.54Y41.783
X66.54Y40.767
X66.54Y39.751
X66.54Y38.735
X66.667Y139.303
X66.667Y138.287
X66.667Y137.271
X66.667Y136.255
X66.667Y84.828
X66.667Y83.812
X66.667Y82.796
X66.667Y81.78
X66.667Y30.353
X66.667Y29.337
X66.667Y28.321
X66.667Y27.305
X66.972Y156.626
X66.972Y102.151
X66.972Y47.676
X67.429Y157.083
X67.429Y102.608
X67.429Y48.133
X68.826Y129.905
X68.826Y119.745
X68.826Y75.43
X68.826Y65.27
X68.826Y20.955
X68.826Y10.795
X69.334Y129.905
X69.334Y119.745
X69.334Y75.43
X69.334Y65.27
X69.334Y20.955
X69.334Y10.795
X70.35Y129.905
X70.35Y75.43
X70.35Y20.955
X70.731Y127.111
X70.731Y126.349
X70.731Y72.636
X70.731Y71.874
X70.731Y18.161
X70.731Y17.399
X71.112Y150.225
X71.112Y147.685
X71.112Y145.145
X71.112Y142.605
X71.112Y128.0
X71.112Y125.46
X71.112Y95.75
X71.112Y93.21
X71.112Y90.67
X71.112Y88.13
X71.112Y73.525
X71.112Y70.985
X71.112Y41.275
X71.112Y38.735
X71.112Y36.195
X71.112Y33.655
X71.112Y19.05
X71.112Y16.51
X71.341Y132.994
X71.341Y78.519
X71.341Y24.044
X71.722Y132.623
X71.722Y78.148
X71.722Y23.673
X71.747Y148.828
X71.747Y148.32
X71.747Y144.51
X71.747Y144.002
X71.747Y94.353
X71.747Y93.845
X71.747Y90.035
X71.747Y89.527
X71.747Y39.878
X71.747Y39.37
X71.747Y35.56
X71.747Y35.052
X71.874Y128.0
X71.874Y125.46
X71.874Y73.525
X71.874Y70.985
X71.874Y19.05
X71.874Y16.51
X72.255Y148.32
X72.255Y147.812
X72.255Y145.018
X72.255Y144.51
X72.255Y93.845
X72.255Y93.337
X72.255Y90.543
X72.255Y90.035
X72.255Y39.37
X72.255Y38.862
X72.255Y36.068
X72.255Y35.56
X72.636Y133.588
X72.636Y133.08
X72.636Y128.0
X72.636Y125.46
X72.636Y79.113
X72.636Y78.605
X72.636Y73.525
X72.636Y70.985
X72.636Y24.638
X72.636Y24.13
X72.636Y19.05
X72.636Y16.51
X72.763Y141.462
X72.763Y86.987
X72.763Y32.512
X72.89Y147.05
X72.89Y145.78
X72.89Y92.575
X72.89Y91.305
X72.89Y38.1
X72.89Y36.83
X73.017Y151.58
X73.017Y97.105
X73.017Y42.63
X73.144Y160.639
X73.144Y159.623
X73.144Y158.607
X73.144Y157.591
X73.144Y133.588
X73.144Y133.08
X73.144Y106.164
X73.144Y105.148
X73.144Y104.132
X73.144Y103.116
X73.144Y79.113
X73.144Y78.605
X73.144Y51.689
X73.144Y50.673
X73.144Y49.657
X73.144Y48.641
X73.144Y24.638
X73.144Y24.13
X73.398Y128.0
X73.398Y125.46
X73.398Y73.525
X73.398Y70.985
X73.398Y19.05
X73.398Y16.51
X73.525Y150.606
X73.525Y146.415
X73.525Y141.462
X73.525Y96.131
X73.525Y91.94
X73.525Y86.987
X73.525Y41.656
X73.525Y37.465
X73.525Y32.512
X73.652Y137.779
X73.652Y137.144
X73.652Y83.304
X73.652Y82.669
X73.652Y28.829
X73.652Y28.194
X73.703Y148.879
X73.703Y94.404
X73.703Y39.929
X73.745Y144.129
X73.745Y89.654
X73.745Y35.179
X73.779Y135.62
X73.779Y135.112
X73.779Y81.145
X73.779Y80.637
X73.779Y26.67
X73.779Y26.162
X73.906Y159.623
X73.906Y158.607
X73.906Y105.148
X73.906Y104.132
X73.906Y50.673
X73.906Y49.657
X74.033Y150.225
X74.033Y143.621
X74.033Y95.75
X74.033Y89.146
X74.033Y41.275
X74.033Y34.671
X74.058Y149.387
X74.058Y94.912
X74.058Y40.437
X74.16Y157.464
X74.16Y147.05
X74.16Y145.78
X74.16Y102.989
X74.16Y92.575
X74.16Y91.305
X74.16Y48.514
X74.16Y38.1
X74.16Y36.83
X74.287Y135.62
X74.287Y135.112
X74.287Y81.145
X74.287Y80.637
X74.287Y26.67
X74.287Y26.162
X74.333Y148.864
X74.333Y94.389
X74.333Y39.914
X74.363Y144.129
X74.363Y89.654
X74.363Y35.179
X75.303Y148.447
X75.303Y93.972
X75.303Y39.497
X75.43Y153.629
X75.43Y99.154
X75.43Y44.679
X75.684Y129.905
X75.684Y129.397
X75.684Y75.43
X75.684Y74.922
X75.684Y20.955
X75.684Y20.447
X75.938Y144.637
X75.938Y90.162
X75.938Y35.687
X75.97Y148.11
X75.97Y93.635
X75.97Y39.16
X76.192Y129.905
X76.192Y129.397
X76.192Y75.43
X76.192Y74.922
X76.192Y20.955
X76.192Y20.447
X76.7Y135.874
X76.7Y81.399
X76.7Y26.924
X76.825Y151.114
X76.825Y96.639
X76.825Y42.164
X76.827Y146.923
X76.827Y135.239
X76.827Y92.448
X76.827Y80.764
X76.827Y37.973
X76.827Y26.289
X77.208Y132.623
X77.208Y78.148
X77.208Y23.673
X77.335Y140.7
X77.335Y139.43
X77.335Y138.16
X77.335Y86.225
X77.335Y84.955
X77.335Y83.685
X77.335Y31.75
X77.335Y30.48
X77.335Y29.21
X77.97Y153.781
X77.97Y99.306
X77.97Y44.831
X78.478Y156.829
X78.478Y132.623
X78.478Y102.354
X78.478Y78.148
X78.478Y47.879
X78.478Y23.673
X78.605Y150.225
X78.605Y140.7
X78.605Y139.43
X78.605Y138.16
X78.605Y95.75
X78.605Y86.225
X78.605Y84.955
X78.605Y83.685
X78.605Y41.275
X78.605Y31.75
X78.605Y30.48
X78.605Y29.21
X78.732Y153.781
X78.732Y128.762
X78.732Y99.306
X78.732Y74.287
X78.732Y44.831
X78.732Y19.812
X79.24Y129.905
X79.24Y128.762
X79.24Y128.254
X79.24Y126.73
X79.24Y75.43
X79.24Y74.287
X79.24Y73.779
X79.24Y72.255
X79.24Y20.955
X79.24Y19.812
X79.24Y19.304
X79.24Y17.78
X79.621Y148.955
X79.621Y148.447
X79.621Y144.129
X79.621Y143.621
X79.621Y143.037
X79.621Y94.48
X79.621Y93.972
X79.621Y89.654
X79.621Y89.146
X79.621Y88.562
X79.621Y40.005
X79.621Y39.497
X79.621Y35.179
X79.621Y34.671
X79.621Y34.087
X79.748Y153.781
X79.748Y135.874
X79.748Y133.969
X79.748Y128.762
X79.748Y99.306
X79.748Y81.399
X79.748Y79.494
X79.748Y74.287
X79.748Y44.831
X79.748Y26.924
X79.748Y25.019
X79.748Y19.812
X79.875Y140.7
X79.875Y139.43
X79.875Y138.16
X79.875Y86.225
X79.875Y84.955
X79.875Y83.685
X79.875Y31.75
X79.875Y30.48
X79.875Y29.21
X80.129Y160.639
X80.129Y159.623
X80.129Y158.615
X80.129Y157.615
X80.129Y148.955
X80.129Y148.447
X80.129Y144.129
X80.129Y143.621
X80.129Y143.037
X80.129Y106.164
X80.129Y105.148
X80.129Y104.14
X80.129Y103.14
X80.129Y94.48
X80.129Y93.972
X80.129Y89.654
X80.129Y89.146
X80.129Y88.562
X80.129Y51.689
X80.129Y50.673
X80.129Y49.665
X80.129Y48.665
X80.129Y40.005
X80.129Y39.497
X80.129Y35.179
X80.129Y34.671
X80.129Y34.087
X80.256Y135.874
X80.256Y133.969
X80.256Y81.399
X80.256Y79.494
X80.256Y26.924
X80.256Y25.019
X80.383Y125.333
X80.383Y124.317
X80.383Y70.858
X80.383Y69.842
X80.383Y16.383
X80.383Y15.367
X80.51Y153.781
X80.51Y99.306
X80.51Y44.831
X80.637Y157.337
X80.637Y102.862
X80.637Y48.387
X80.764Y159.623
X80.764Y158.734
X80.764Y105.148
X80.764Y104.259
X80.764Y50.673
X80.764Y49.784
X81.094Y128.838
X81.094Y74.363
X81.094Y19.888
X81.272Y153.781
X81.272Y99.306
X81.272Y44.831
X81.78Y135.874
X81.78Y133.969
X81.78Y125.968
X81.78Y81.399
X81.78Y79.494
X81.78Y71.493
X81.78Y26.924
X81.78Y25.019
X81.78Y17.018
X81.882Y148.142
X81.882Y93.667
X81.882Y39.192
X82.285Y153.78
X82.285Y99.305
X82.285Y44.83
X82.288Y143.24
X82.288Y135.874
X82.288Y133.969
X82.288Y131.937
X82.288Y88.765
X82.288Y81.399
X82.288Y79.494
X82.288Y77.462
X82.288Y34.29
X82.288Y26.924
X82.288Y25.019
X82.288Y22.987
X82.542Y125.968
X82.542Y71.493
X82.542Y17.018
X82.796Y162.417
X82.796Y107.942
X82.796Y53.467
X83.05Y153.781
X83.05Y150.86
X83.05Y99.306
X83.05Y96.385
X83.05Y44.831
X83.05Y41.91
X87.978Y131.15
X87.978Y76.675
X87.978Y22.2
X88.003Y134.223
X88.003Y79.748
X88.003Y25.273
X88.13Y156.829
X88.13Y152.13
X88.13Y102.354
X88.13Y97.655
X88.13Y47.879
X88.13Y43.18
X88.137Y131.712
X88.137Y77.237
X88.137Y22.762
X88.144Y147.828
X88.144Y93.353
X88.144Y38.878
X88.511Y112.252
X88.511Y57.777
X88.511Y3.302
X88.638Y135.608
X88.638Y129.397
X88.638Y81.133
X88.638Y74.922
X88.638Y26.658
X88.638Y20.447
X88.765Y119.11
X88.765Y64.635
X88.765Y10.16
X88.892Y112.633
X88.892Y58.158
X88.892Y3.683
X89.019Y139.43
X89.019Y138.668
X89.019Y84.955
X89.019Y84.193
X89.019Y30.48
X89.019Y29.718
X89.273Y119.11
X89.273Y113.014
X89.273Y64.635
X89.273Y58.539
X89.273Y10.16
X89.273Y4.064
X89.453Y140.034
X89.453Y85.559
X89.453Y31.084
X89.654Y135.62
X89.654Y129.397
X89.654Y81.145
X89.654Y74.922
X89.654Y26.67
X89.654Y20.447
X89.781Y126.603
X89.781Y119.11
X89.781Y72.128
X89.781Y64.635
X89.781Y17.653
X89.781Y10.16
X89.832Y144.256
X89.832Y89.781
X89.832Y35.306
X89.905Y140.395
X89.905Y85.92
X89.905Y31.445
X90.035Y117.205
X90.035Y116.57
X90.035Y62.73
X90.035Y62.095
X90.035Y8.255
X90.035Y7.62
X90.445Y139.98
X90.445Y85.505
X90.445Y31.03
X90.543Y144.256
X90.543Y89.781
X90.543Y35.306
X90.67Y157.591
X90.67Y103.116
X90.67Y48.641
X90.797Y126.603
X90.797Y114.792
X90.797Y72.128
X90.797Y60.317
X90.797Y17.653
X90.797Y5.842
X91.051Y109.458
X91.051Y54.983
X91.051Y0.508
X91.052Y110.096
X91.052Y55.621
X91.052Y1.146
X91.178Y147.939
X91.178Y93.464
X91.178Y38.989
X91.559Y128.381
X91.559Y127.365
X91.559Y117.459
X91.559Y73.906
X91.559Y72.89
X91.559Y62.984
X91.559Y19.431
X91.559Y18.415
X91.559Y8.509
X91.635Y134.985
X91.635Y80.51
X91.635Y26.035
X91.651Y133.734
X91.651Y79.26
X91.651Y24.784
X91.654Y132.528
X91.654Y78.053
X91.654Y23.578
X91.739Y148.072
X91.739Y93.597
X91.739Y39.122
X91.813Y151.495
X91.813Y97.02
X91.813Y42.545
X91.876Y131.365
X91.876Y76.891
X91.876Y22.415
X91.94Y157.591
X91.94Y103.116
X91.94Y48.641
X91.987Y132.056
X91.987Y77.581
X91.987Y23.106
X92.031Y134.565
X92.031Y80.09
X92.031Y25.615
X92.067Y117.459
X92.067Y62.984
X92.067Y8.509
X92.17Y122.285
X92.17Y67.81
X92.17Y13.335
X92.204Y135.591
X92.204Y81.116
X92.204Y26.641
X92.245Y114.805
X92.245Y60.33
X92.245Y5.855
X92.27Y133.715
X92.27Y79.24
X92.27Y24.765
X92.339Y130.206
X92.339Y75.731
X92.339Y21.256
X92.364Y131.057
X92.364Y76.582
X92.364Y22.107
X92.372Y140.827
X92.372Y86.352
X92.372Y31.877
X92.379Y135.026
X92.379Y80.551
X92.379Y26.076
X92.448Y131.658
X92.448Y77.183
X92.448Y22.708
X92.55Y136.053
X92.55Y81.578
X92.55Y27.103
X92.649Y140.299
X92.649Y85.824
X92.649Y31.349
X92.702Y145.653
X92.702Y91.178
X92.702Y36.703
X92.829Y149.302
X92.829Y148.32
X92.829Y94.826
X92.829Y93.845
X92.829Y40.352
X92.829Y39.37
X92.909Y131.311
X92.909Y76.836
X92.909Y22.361
X93.15Y130.219
X93.15Y75.744
X93.15Y21.269
X93.21Y157.591
X93.21Y135.112
X93.21Y134.35
X93.21Y124.571
X93.21Y103.116
X93.21Y80.637
X93.21Y79.875
X93.21Y70.096
X93.21Y48.641
X93.21Y26.162
X93.21Y25.4
X93.21Y15.621
X93.226Y140.294
X93.226Y85.819
X93.226Y31.344
X93.362Y138.49
X93.362Y84.015
X93.362Y29.54
X93.489Y145.805
X93.489Y91.33
X93.489Y36.855
X93.53Y120.761
X93.53Y66.286
X93.53Y11.811
X93.591Y148.828
X93.591Y94.353
X93.591Y39.878
X93.845Y127.746
X93.845Y127.111
X93.845Y73.271
X93.845Y72.636
X93.845Y18.796
X93.845Y18.161
X93.921Y117.51
X93.921Y63.035
X93.921Y8.56
X93.947Y144.256
X93.947Y89.781
X93.947Y35.306
X93.95Y136.585
X93.95Y82.11
X93.95Y27.635
X94.075Y141.115
X94.075Y86.641
X94.075Y32.166
X94.201Y144.789
X94.201Y90.314
X94.201Y35.839
X94.353Y112.125
X94.353Y57.65
X94.353Y3.175
X94.429Y136.982
X94.429Y82.507
X94.429Y28.032
X94.48Y157.591
X94.48Y135.62
X94.48Y134.35
X94.48Y133.08
X94.48Y120.761
X94.48Y119.999
X94.48Y103.116
X94.48Y81.145
X94.48Y79.875
X94.48Y78.605
X94.48Y66.286
X94.48Y65.524
X94.48Y48.641
X94.48Y26.67
X94.48Y25.4
X94.48Y24.13
X94.48Y11.811
X94.48Y11.049
X94.5Y117.518
X94.5Y63.043
X94.5Y8.568
X94.963Y130.226
X94.963Y75.751
X94.963Y21.276
X95.115Y148.32
X95.115Y145.78
X95.115Y126.603
X95.115Y93.845
X95.115Y91.305
X95.115Y72.128
X95.115Y39.37
X95.115Y36.83
X95.115Y17.653
X95.43Y120.761
X95.43Y66.286
X95.43Y11.811
X95.572Y138.084
X95.572Y83.609
X95.572Y29.134
X95.623Y148.701
X95.623Y94.226
X95.623Y39.751
X95.645Y130.211
X95.645Y75.736
X95.645Y21.261
X95.75Y157.591
X95.75Y136.89
X95.75Y135.62
X95.75Y134.35
X95.75Y133.08
X95.75Y103.116
X95.75Y82.415
X95.75Y81.145
X95.75Y79.875
X95.75Y78.605
X95.75Y48.641
X95.75Y27.94
X95.75Y26.67
X95.75Y25.4
X95.75Y24.13
X96.057Y138.397
X96.057Y83.922
X96.057Y29.447
X96.131Y148.32
X96.131Y93.845
X96.131Y39.37
X96.385Y145.78
X96.385Y136.89
X96.385Y91.305
X96.385Y82.415
X96.385Y36.83
X96.385Y27.94
X96.585Y138.165
X96.585Y83.69
X96.585Y29.215
X96.639Y117.967
X96.639Y63.492
X96.639Y9.017
X96.766Y130.286
X96.766Y122.793
X96.766Y75.811
X96.766Y68.318
X96.766Y21.336
X96.766Y13.843
X97.02Y157.591
X97.02Y135.62
X97.02Y134.35
X97.02Y133.08
X97.02Y103.116
X97.02Y81.145
X97.02Y79.875
X97.02Y78.605
X97.02Y48.641
X97.02Y26.67
X97.02Y25.4
X97.02Y24.13
X97.161Y138.147
X97.161Y83.672
X97.161Y29.197
X97.274Y145.018
X97.274Y143.748
X97.274Y90.543
X97.274Y89.273
X97.274Y36.068
X97.274Y34.798
X97.401Y130.21
X97.401Y120.634
X97.401Y119.999
X97.401Y75.735
X97.401Y66.159
X97.401Y65.524
X97.401Y21.26
X97.401Y11.684
X97.401Y11.049
X97.477Y137.652
X97.477Y83.177
X97.477Y28.702
X97.528Y117.586
X97.528Y63.111
X97.528Y8.636
X97.655Y127.492
X97.655Y73.017
X97.655Y18.542
X97.738Y138.168
X97.738Y83.693
X97.738Y29.218
X97.782Y145.018
X97.782Y90.543
X97.782Y36.068
X97.858Y132.648
X97.858Y78.173
X97.858Y23.698
X97.909Y145.78
X97.909Y91.305
X97.909Y36.83
X98.188Y133.715
X98.188Y79.24
X98.188Y24.765
X98.265Y111.693
X98.265Y57.218
X98.265Y2.743
X98.274Y130.152
X98.274Y75.677
X98.274Y21.202
X98.29Y157.591
X98.29Y140.446
X98.29Y135.798
X98.29Y134.35
X98.29Y103.116
X98.29Y85.971
X98.29Y81.323
X98.29Y79.875
X98.29Y48.641
X98.29Y31.496
X98.29Y26.848
X98.29Y25.4
X98.33Y138.163
X98.33Y83.688
X98.33Y29.213
X98.351Y132.949
X98.351Y78.474
X98.351Y23.999
X98.636Y136.306
X98.636Y81.831
X98.636Y27.356
X98.671Y131.362
X98.671Y117.459
X98.671Y76.887
X98.671Y62.984
X98.671Y22.412
X98.671Y8.509
X98.816Y133.321
X98.816Y78.846
X98.816Y24.371
X98.829Y134.766
X98.829Y80.29
X98.829Y25.816
X98.837Y130.276
X98.837Y75.801
X98.837Y21.326
X98.874Y132.687
X98.874Y78.212
X98.874Y23.737
X98.89Y135.746
X98.89Y81.271
X98.89Y26.796
X98.925Y119.872
X98.925Y65.397
X98.925Y10.922
X99.128Y138.566
X99.128Y84.091
X99.128Y29.616
X99.179Y117.459
X99.179Y62.984
X99.179Y8.509
X99.202Y137.986
X99.202Y83.511
X99.202Y29.036
X99.204Y131.785
X99.204Y77.31
X99.204Y22.835
X99.208Y135.201
X99.208Y80.726
X99.208Y26.251
X99.274Y114.818
X99.274Y60.343
X99.274Y5.868
X99.355Y133.114
X99.355Y78.639
X99.355Y24.165
X99.357Y133.691
X99.357Y79.216
X99.357Y24.741
X99.454Y130.265
X99.454Y75.79
X99.454Y21.315
X99.56Y157.591
X99.56Y103.116
X99.56Y48.641
X99.623Y134.667
X99.623Y80.192
X99.623Y25.717
X99.678Y149.327
X99.678Y94.852
X99.678Y40.377
X99.763Y138.338
X99.763Y83.863
X99.763Y29.388
X99.865Y133.385
X99.865Y130.718
X99.865Y78.91
X99.865Y76.243
X99.865Y24.435
X99.865Y21.768
X99.941Y120.253
X99.941Y65.778
X99.941Y11.303
X100.025Y130.151
X100.025Y75.676
X100.025Y21.201
X100.068Y121.777
X100.068Y67.302
X100.068Y12.827
X100.144Y152.689
X100.144Y98.214
X100.144Y43.739
X100.195Y154.162
X100.195Y99.687
X100.195Y45.212
X100.322Y144.129
X100.322Y141.081
X100.322Y89.654
X100.322Y86.606
X100.322Y35.179
X100.322Y32.131
X100.449Y110.096
X100.449Y109.458
X100.449Y55.621
X100.449Y54.983
X100.449Y1.146
X100.449Y0.508
X100.576Y153.136
X100.576Y152.257
X100.576Y150.987
X100.576Y150.352
X100.576Y98.661
X100.576Y97.782
X100.576Y96.512
X100.576Y95.877
X100.576Y44.186
X100.576Y43.307
X100.576Y42.037
X100.576Y41.402
X100.703Y140.446
X100.703Y114.792
X100.703Y85.971
X100.703Y60.317
X100.703Y31.496
X100.703Y5.842
X100.83Y157.591
X100.83Y103.116
X100.83Y48.641
X101.084Y127.365
X101.084Y72.89
X101.084Y18.415
X101.186Y147.812
X101.186Y93.337
X101.186Y38.862
X101.211Y150.098
X101.211Y95.623
X101.211Y41.148
X101.338Y147.05
X101.338Y146.39
X101.338Y145.729
X101.338Y145.069
X101.338Y144.408
X101.338Y143.748
X101.338Y130.159
X101.338Y92.575
X101.338Y91.915
X101.338Y91.254
X101.338Y90.594
X101.338Y89.933
X101.338Y89.273
X101.338Y75.684
X101.338Y38.1
X101.338Y37.44
X101.338Y36.779
X101.338Y36.119
X101.338Y35.458
X101.338Y34.798
X101.338Y21.209
X101.465Y117.205
X101.465Y116.57
X101.465Y62.73
X101.465Y62.095
X101.465Y8.255
X101.465Y7.62
X101.592Y141.335
X101.592Y120.38
X101.592Y86.86
X101.592Y65.905
X101.592Y32.385
X101.592Y11.43
X101.668Y139.989
X101.668Y85.514
X101.668Y31.039
X101.846Y135.366
X101.846Y80.891
X101.846Y26.416
X101.973Y130.413
X101.973Y75.938
X101.973Y21.463
X102.252Y132.877
X102.252Y78.402
X102.252Y23.927
X102.735Y134.858
X102.735Y80.383
X102.735Y25.908
X102.811Y129.981
X102.811Y75.506
X102.811Y21.031
X102.837Y132.902
X102.837Y78.427
X102.837Y23.952
X102.862Y136.89
X102.862Y82.415
X102.862Y27.94
X103.355Y147.814
X103.355Y93.339
X103.355Y38.864
X103.37Y156.829
X103.37Y102.354
X103.37Y47.879
X108.45Y153.781
X108.45Y99.306
X108.45Y44.831
X108.704Y162.417
X108.704Y107.942
X108.704Y53.467
X108.831Y135.366
X108.831Y80.891
X108.831Y26.416
X109.136Y131.785
X109.136Y77.31
X109.136Y22.835
X109.187Y132.547
X109.187Y78.072
X109.187Y23.597
X109.212Y153.781
X109.212Y99.306
X109.212Y44.831
X109.339Y142.224
X109.339Y87.749
X109.339Y33.274
X109.436Y115.838
X109.436Y61.363
X109.436Y6.888
X109.466Y151.495
X109.466Y129.905
X109.466Y121.015
X109.466Y97.02
X109.466Y75.43
X109.466Y66.54
X109.466Y42.545
X109.466Y20.955
X109.466Y12.065
X109.649Y127.538
X109.649Y73.063
X109.649Y18.588
X109.669Y128.178
X109.669Y73.703
X109.669Y19.228
X109.72Y150.86
X109.72Y129.27
X109.72Y96.385
X109.72Y74.795
X109.72Y41.91
X109.72Y20.32
X109.847Y145.145
X109.847Y134.223
X109.847Y90.67
X109.847Y79.748
X109.847Y36.195
X109.847Y25.273
X109.939Y144.459
X109.939Y141.843
X109.939Y89.984
X109.939Y87.368
X109.939Y35.509
X109.939Y32.893
X110.228Y153.781
X110.228Y99.306
X110.228Y44.831
X110.233Y127.535
X110.233Y73.06
X110.233Y18.585
X110.355Y160.639
X110.355Y125.917
X110.355Y106.164
X110.355Y71.442
X110.355Y51.689
X110.355Y16.967
X110.609Y159.623
X110.609Y105.148
X110.609Y50.673
X110.863Y158.226
X110.863Y103.751
X110.863Y49.276
X110.99Y153.781
X110.99Y130.032
X110.99Y119.237
X110.99Y118.729
X110.99Y99.306
X110.99Y75.557
X110.99Y64.762
X110.99Y64.254
X110.99Y44.831
X110.99Y21.082
X110.99Y10.287
X110.99Y9.779
X111.371Y160.639
X111.371Y159.623
X111.371Y158.607
X111.371Y157.591
X111.371Y145.983
X111.371Y145.399
X111.371Y144.891
X111.371Y140.573
X111.371Y140.065
X111.371Y106.164
X111.371Y105.148
X111.371Y104.132
X111.371Y103.116
X111.371Y91.508
X111.371Y90.924
X111.371Y90.416
X111.371Y86.098
X111.371Y85.59
X111.371Y51.689
X111.371Y50.673
X111.371Y49.657
X111.371Y48.641
X111.371Y37.033
X111.371Y36.449
X111.371Y35.941
X111.371Y31.623
X111.371Y31.115
X111.498Y130.032
X111.498Y75.557
X111.498Y21.082
X111.625Y125.917
X111.625Y122.285
X111.625Y71.442
X111.625Y67.81
X111.625Y16.967
X111.625Y13.335
X111.752Y153.781
X111.752Y99.306
X111.752Y44.831
X111.879Y145.983
X111.879Y145.399
X111.879Y144.891
X111.879Y140.573
X111.879Y140.065
X111.879Y91.508
X111.879Y90.924
X111.879Y90.416
X111.879Y86.098
X111.879Y85.59
X111.879Y37.033
X111.879Y36.449
X111.879Y35.941
X111.879Y31.623
X111.879Y31.115
X112.26Y118.983
X112.26Y118.348
X112.26Y112.76
X112.26Y64.508
X112.26Y63.873
X112.26Y58.285
X112.26Y10.033
X112.26Y9.398
X112.26Y3.81
X112.387Y134.35
X112.387Y79.875
X112.387Y25.4
X112.768Y153.781
X112.768Y99.306
X112.768Y44.831
X112.895Y139.811
X112.895Y138.795
X112.895Y131.81
X112.895Y122.285
X112.895Y118.983
X112.895Y118.348
X112.895Y85.336
X112.895Y84.32
X112.895Y77.335
X112.895Y67.81
X112.895Y64.508
X112.895Y63.873
X112.895Y30.861
X112.895Y29.845
X112.895Y22.86
X112.895Y13.335
X112.895Y10.033
X112.895Y9.398
X113.403Y128.127
X113.403Y117.205
X113.403Y73.652
X113.403Y62.73
X113.403Y19.177
X113.403Y8.255
X113.479Y129.6
X113.479Y75.125
X113.479Y20.65
X113.53Y153.781
X113.53Y125.917
X113.53Y99.306
X113.53Y71.442
X113.53Y44.831
X113.53Y16.967
X114.038Y128.254
X114.038Y73.779
X114.038Y19.304
X114.165Y119.237
X114.165Y118.729
X114.165Y64.762
X114.165Y64.254
X114.165Y10.287
X114.165Y9.779
X114.292Y132.191
X114.292Y131.556
X114.292Y129.905
X114.292Y77.716
X114.292Y77.081
X114.292Y75.43
X114.292Y23.241
X114.292Y22.606
X114.292Y20.955
X114.673Y142.097
X114.673Y87.622
X114.673Y33.147
X114.675Y137.779
X114.675Y83.304
X114.675Y28.829
X114.8Y125.917
X114.8Y122.285
X114.8Y117.205
X114.8Y71.442
X114.8Y67.81
X114.8Y62.73
X114.8Y16.967
X114.8Y13.335
X114.8Y8.255
X114.927Y129.575
X114.927Y129.067
X114.927Y128.559
X114.927Y128.051
X114.927Y75.1
X114.927Y74.592
X114.927Y74.084
X114.927Y73.576
X114.927Y20.625
X114.927Y20.117
X114.927Y19.609
X114.927Y19.101
X115.054Y134.604
X115.054Y134.096
X115.054Y80.129
X115.054Y79.621
X115.054Y25.654
X115.054Y25.146
X115.562Y144.637
X115.562Y134.096
X115.562Y90.162
X115.562Y79.621
X115.562Y35.687
X115.562Y25.146
X115.563Y141.081
X115.563Y86.606
X115.563Y32.131
X115.816Y132.064
X115.816Y131.556
X115.816Y77.589
X115.816Y77.081
X115.816Y23.114
X115.816Y22.606
X116.324Y132.064
X116.324Y131.556
X116.324Y77.589
X116.324Y77.081
X116.324Y23.114
X116.324Y22.606
X116.451Y123.301
X116.451Y68.826
X116.451Y14.351
X116.832Y151.495
X116.832Y97.02
X116.832Y42.545
X117.086Y140.319
X117.086Y85.844
X117.086Y31.369
X117.162Y144.891
X117.162Y90.416
X117.162Y35.941
X117.213Y134.604
X117.213Y134.096
X117.213Y80.129
X117.213Y79.621
X117.213Y25.654
X117.213Y25.146
X117.34Y152.765
X117.34Y143.24
X117.34Y141.97
X117.34Y98.29
X117.34Y88.765
X117.34Y87.495
X117.34Y43.815
X117.34Y34.29
X117.34Y33.02
X117.432Y160.766
X117.432Y106.291
X117.432Y51.816
X117.467Y139.684
X117.467Y138.795
X117.467Y137.525
X117.467Y125.841
X117.467Y85.209
X117.467Y84.32
X117.467Y83.05
X117.467Y71.366
X117.467Y30.734
X117.467Y29.845
X117.467Y28.575
X117.467Y16.891
X117.492Y145.374
X117.492Y90.899
X117.492Y36.424
X117.594Y116.824
X117.594Y62.349
X117.594Y7.874
X117.721Y159.623
X117.721Y158.607
X117.721Y140.319
X117.721Y134.096
X117.721Y130.413
X117.721Y105.148
X117.721Y104.132
X117.721Y85.844
X117.721Y79.621
X117.721Y75.938
X117.721Y50.673
X117.721Y49.657
X117.721Y31.369
X117.721Y25.146
X117.721Y21.463
X117.809Y144.891
X117.809Y90.416
X117.809Y35.941
X117.848Y126.857
X117.848Y72.382
X117.848Y17.907
X117.975Y147.558
X117.975Y142.605
X117.975Y93.083
X117.975Y88.13
X117.975Y38.608
X117.975Y33.655
X118.356Y160.639
X118.356Y159.623
X118.356Y158.607
X118.356Y157.591
X118.356Y106.164
X118.356Y105.148
X118.356Y104.132
X118.356Y103.116
X118.356Y51.689
X118.356Y50.673
X118.356Y49.657
X118.356Y48.641
X118.61Y143.24
X118.61Y141.97
X118.61Y88.765
X118.61Y87.495
X118.61Y34.29
X118.61Y33.02
X118.737Y147.431
X118.737Y92.956
X118.737Y38.481
X119.245Y144.51
X119.245Y144.002
X119.245Y141.208
X119.245Y140.7
X119.245Y138.795
X119.245Y124.825
X119.245Y122.285
X119.245Y119.11
X119.245Y116.57
X119.245Y113.395
X119.245Y110.855
X119.245Y90.035
X119.245Y89.527
X119.245Y86.733
X119.245Y86.225
X119.245Y84.32
X119.245Y70.35
X119.245Y67.81
X119.245Y64.635
X119.245Y62.095
X119.245Y58.92
X119.245Y56.38
X119.245Y35.56
X119.245Y35.052
X119.245Y32.258
X119.245Y31.75
X119.245Y29.845
X119.245Y15.875
X119.245Y13.335
X119.245Y10.16
X119.245Y7.62
X119.245Y4.445
X119.245Y1.905
X119.753Y145.018
X119.753Y144.51
X119.753Y140.7
X119.753Y140.192
X119.753Y90.543
X119.753Y90.035
X119.753Y86.225
X119.753Y85.717
X119.753Y36.068
X119.753Y35.56
X119.753Y31.75
X119.753Y31.242
X120.388Y146.415
X120.388Y143.875
X120.388Y141.335
X120.388Y138.795
X120.388Y91.94
X120.388Y89.4
X120.388Y86.86
X120.388Y84.32
X120.388Y37.465
X120.388Y34.925
X120.388Y32.385
X120.388Y29.845
X120.759Y129.27
X120.759Y74.795
X120.759Y20.32
X122.166Y129.905
X122.166Y119.745
X122.166Y75.43
X122.166Y65.27
X122.166Y20.955
X122.166Y10.795
X122.674Y129.905
X122.674Y119.745
X122.674Y75.43
X122.674Y65.27
X122.674Y20.955
X122.674Y10.795
X124.833Y152.725
X124.833Y151.725
X124.833Y150.725
X124.833Y149.725
X124.833Y141.295
X124.833Y140.295
X124.833Y139.295
X124.833Y138.295
X124.833Y98.25
X124.833Y97.25
X124.833Y96.25
X124.833Y95.25
X124.833Y86.82
X124.833Y85.82
X124.833Y84.82
X124.833Y83.82
X124.833Y43.775
X124.833Y42.775
X124.833Y41.775
X124.833Y40.775
X124.833Y32.345
X124.833Y31.345
X124.833Y30.345
X124.833Y29.345
X125.468Y151.749
X125.468Y150.733
X125.468Y149.717
X125.468Y140.319
X125.468Y139.303
X125.468Y138.287
X125.468Y97.274
X125.468Y96.258
X125.468Y95.242
X125.468Y85.844
X125.468Y84.828
X125.468Y83.812
X125.468Y42.799
X125.468Y41.783
X125.468Y40.767
X125.468Y31.369
X125.468Y30.353
X125.468Y29.337
X126.23Y133.969
X126.23Y79.494
X126.23Y25.019
X126.992Y162.417
X126.992Y109.458
X126.992Y107.942
X126.992Y54.983
X126.992Y53.467
X126.992Y0.508
T4
X1.27Y132.445
X1.27Y129.905
X1.27Y127.365
X1.27Y122.285
X1.27Y119.745
X1.27Y117.205
X1.27Y77.97
X1.27Y75.43
X1.27Y72.89
X1.27Y67.81
X1.27Y65.27
X1.27Y62.73
X1.27Y23.495
X1.27Y20.955
X1.27Y18.415
X1.27Y13.335
X1.27Y10.795
X1.27Y8.255
X20.32Y160.385
X20.32Y157.845
X20.32Y155.305
X20.32Y152.765
X20.32Y150.225
X20.32Y147.685
X20.32Y145.145
X20.32Y142.605
X20.32Y140.065
X20.32Y137.525
X20.32Y134.985
X20.32Y132.445
X20.32Y129.905
X20.32Y127.365
X20.32Y124.825
X20.32Y122.285
X20.32Y119.745
X20.32Y117.205
X20.32Y114.665
X20.32Y112.125
X20.32Y105.91
X20.32Y103.37
X20.32Y100.83
X20.32Y98.29
X20.32Y95.75
X20.32Y93.21
X20.32Y90.67
X20.32Y88.13
X20.32Y85.59
X20.32Y83.05
X20.32Y80.51
X20.32Y77.97
X20.32Y75.43
X20.32Y72.89
X20.32Y70.35
X20.32Y67.81
X20.32Y65.27
X20.32Y62.73
X20.32Y60.19
X20.32Y57.65
X20.32Y51.435
X20.32Y48.895
X20.32Y46.355
X20.32Y43.815
X20.32Y41.275
X20.32Y38.735
X20.32Y36.195
X20.32Y33.655
X20.32Y31.115
X20.32Y28.575
X20.32Y26.035
X20.32Y23.495
X20.32Y20.955
X20.32Y18.415
X20.32Y15.875
X20.32Y13.335
X20.32Y10.795
X20.32Y8.255
X20.32Y5.715
X20.32Y3.175
X22.86Y160.385
X22.86Y157.845
X22.86Y155.305
X22.86Y152.765
X22.86Y150.225
X22.86Y147.685
X22.86Y145.145
X22.86Y142.605
X22.86Y140.065
X22.86Y137.525
X22.86Y134.985
X22.86Y132.445
X22.86Y129.905
X22.86Y127.365
X22.86Y124.825
X22.86Y122.285
X22.86Y119.745
X22.86Y117.205
X22.86Y114.665
X22.86Y112.125
X22.86Y105.91
X22.86Y103.37
X22.86Y100.83
X22.86Y98.29
X22.86Y95.75
X22.86Y93.21
X22.86Y90.67
X22.86Y88.13
X22.86Y85.59
X22.86Y83.05
X22.86Y80.51
X22.86Y77.97
X22.86Y75.43
X22.86Y72.89
X22.86Y70.35
X22.86Y67.81
X22.86Y65.27
X22.86Y62.73
X22.86Y60.19
X22.86Y57.65
X22.86Y51.435
X22.86Y48.895
X22.86Y46.355
X22.86Y43.815
X22.86Y41.275
X22.86Y38.735
X22.86Y36.195
X22.86Y33.655
X22.86Y31.115
X22.86Y28.575
X22.86Y26.035
X22.86Y23.495
X22.86Y20.955
X22.86Y18.415
X22.86Y15.875
X22.86Y13.335
X22.86Y10.795
X22.86Y8.255
X22.86Y5.715
X22.86Y3.175
X25.4Y142.605
X25.4Y88.13
X25.4Y33.655
X27.94Y142.605
X27.94Y88.13
X27.94Y33.655
X30.48Y142.605
X30.48Y88.13
X30.48Y33.655
X40.64Y160.385
X40.64Y157.845
X40.64Y155.305
X40.64Y152.765
X40.64Y150.225
X40.64Y147.685
X40.64Y145.145
X40.64Y142.605
X40.64Y140.065
X40.64Y137.525
X40.64Y134.985
X40.64Y132.445
X40.64Y129.905
X40.64Y127.365
X40.64Y124.825
X40.64Y122.285
X40.64Y119.745
X40.64Y117.205
X40.64Y114.665
X40.64Y112.125
X40.64Y105.91
X40.64Y103.37
X40.64Y100.83
X40.64Y98.29
X40.64Y95.75
X40.64Y93.21
X40.64Y90.67
X40.64Y88.13
X40.64Y85.59
X40.64Y83.05
X40.64Y80.51
X40.64Y77.97
X40.64Y75.43
X40.64Y72.89
X40.64Y70.35
X40.64Y67.81
X40.64Y65.27
X40.64Y62.73
X40.64Y60.19
X40.64Y57.65
X40.64Y51.435
X40.64Y48.895
X40.64Y46.355
X40.64Y43.815
X40.64Y41.275
X40.64Y38.735
X40.64Y36.195
X40.64Y33.655
X40.64Y31.115
X40.64Y28.575
X40.64Y26.035
X40.64Y23.495
X40.64Y20.955
X40.64Y18.415
X40.64Y15.875
X40.64Y13.335
X40.64Y10.795
X40.64Y8.255
X40.64Y5.715
X40.64Y3.175
X43.18Y160.385
X43.18Y157.845
X43.18Y155.305
X43.18Y152.765
X43.18Y150.225
X43.18Y147.685
X43.18Y145.145
X43.18Y142.605
X43.18Y140.065
X43.18Y137.525
X43.18Y134.985
X43.18Y132.445
X43.18Y129.905
X43.18Y127.365
X43.18Y124.825
X43.18Y122.285
X43.18Y119.745
X43.18Y117.205
X43.18Y114.665
X43.18Y112.125
X43.18Y105.91
X43.18Y103.37
X43.18Y100.83
X43.18Y98.29
X43.18Y95.75
X43.18Y93.21
X43.18Y90.67
X43.18Y88.13
X43.18Y85.59
X43.18Y83.05
X43.18Y80.51
X43.18Y77.97
X43.18Y75.43
X43.18Y72.89
X43.18Y70.35
X43.18Y67.81
X43.18Y65.27
X43.18Y62.73
X43.18Y60.19
X43.18Y57.65
X43.18Y51.435
X43.18Y48.895
X43.18Y46.355
X43.18Y43.815
X43.18Y41.275
X43.18Y38.735
X43.18Y36.195
X43.18Y33.655
X43.18Y31.115
X43.18Y28.575
X43.18Y26.035
X43.18Y23.495
X43.18Y20.955
X43.18Y18.415
X43.18Y15.875
X43.18Y13.335
X43.18Y10.795
X43.18Y8.255
X43.18Y5.715
X43.18Y3.175
X62.23Y132.445
X62.23Y129.905
X62.23Y127.365
X62.23Y122.285
X62.23Y119.745
X62.23Y117.205
X62.23Y77.97
X62.23Y75.43
X62.23Y72.89
X62.23Y67.81
X62.23Y65.27
X62.23Y62.73
X62.23Y23.495
X62.23Y20.955
X62.23Y18.415
X62.23Y13.335
X62.23Y10.795
X62.23Y8.255
X65.27Y132.445
X65.27Y129.905
X65.27Y127.365
X65.27Y122.285
X65.27Y119.745
X65.27Y117.205
X65.27Y77.97
X65.27Y75.43
X65.27Y72.89
X65.27Y67.81
X65.27Y65.27
X65.27Y62.73
X65.27Y23.495
X65.27Y20.955
X65.27Y18.415
X65.27Y13.335
X65.27Y10.795
X65.27Y8.255
X84.32Y160.385
X84.32Y157.845
X84.32Y155.305
X84.32Y152.765
X84.32Y150.225
X84.32Y147.685
X84.32Y145.145
X84.32Y142.605
X84.32Y140.065
X84.32Y137.525
X84.32Y134.985
X84.32Y132.445
X84.32Y129.905
X84.32Y127.365
X84.32Y124.825
X84.32Y122.285
X84.32Y119.745
X84.32Y117.205
X84.32Y114.665
X84.32Y112.125
X84.32Y105.91
X84.32Y103.37
X84.32Y100.83
X84.32Y98.29
X84.32Y95.75
X84.32Y93.21
X84.32Y90.67
X84.32Y88.13
X84.32Y85.59
X84.32Y83.05
X84.32Y80.51
X84.32Y77.97
X84.32Y75.43
X84.32Y72.89
X84.32Y70.35
X84.32Y67.81
X84.32Y65.27
X84.32Y62.73
X84.32Y60.19
X84.32Y57.65
X84.32Y51.435
X84.32Y48.895
X84.32Y46.355
X84.32Y43.815
X84.32Y41.275
X84.32Y38.735
X84.32Y36.195
X84.32Y33.655
X84.32Y31.115
X84.32Y28.575
X84.32Y26.035
X84.32Y23.495
X84.32Y20.955
X84.32Y18.415
X84.32Y15.875
X84.32Y13.335
X84.32Y10.795
X84.32Y8.255
X84.32Y5.715
X84.32Y3.175
X86.86Y160.385
X86.86Y157.845
X86.86Y155.305
X86.86Y152.765
X86.86Y150.225
X86.86Y147.685
X86.86Y145.145
X86.86Y142.605
X86.86Y140.065
X86.86Y137.525
X86.86Y134.985
X86.86Y132.445
X86.86Y129.905
X86.86Y127.365
X86.86Y124.825
X86.86Y122.285
X86.86Y119.745
X86.86Y117.205
X86.86Y114.665
X86.86Y112.125
X86.86Y105.91
X86.86Y103.37
X86.86Y100.83
X86.86Y98.29
X86.86Y95.75
X86.86Y93.21
X86.86Y90.67
X86.86Y88.13
X86.86Y85.59
X86.86Y83.05
X86.86Y80.51
X86.86Y77.97
X86.86Y75.43
X86.86Y72.89
X86.86Y70.35
X86.86Y67.81
X86.86Y65.27
X86.86Y62.73
X86.86Y60.19
X86.86Y57.65
X86.86Y51.435
X86.86Y48.895
X86.86Y46.355
X86.86Y43.815
X86.86Y41.275
X86.86Y38.735
X86.86Y36.195
X86.86Y33.655
X86.86Y31.115
X86.86Y28.575
X86.86Y26.035
X86.86Y23.495
X86.86Y20.955
X86.86Y18.415
X86.86Y15.875
X86.86Y13.335
X86.86Y10.795
X86.86Y8.255
X86.86Y5.715
X86.86Y3.175
X89.4Y142.605
X89.4Y88.13
X89.4Y33.655
X91.94Y142.605
X91.94Y88.13
X91.94Y33.655
X94.48Y142.605
X94.48Y88.13
X94.48Y33.655
X104.64Y160.385
X104.64Y157.845
X104.64Y155.305
X104.64Y152.765
X104.64Y150.225
X104.64Y147.685
X104.64Y145.145
X104.64Y142.605
X104.64Y140.065
X104.64Y137.525
X104.64Y134.985
X104.64Y132.445
X104.64Y129.905
X104.64Y127.365
X104.64Y124.825
X104.64Y122.285
X104.64Y119.745
X104.64Y117.205
X104.64Y114.665
X104.64Y112.125
X104.64Y105.91
X104.64Y103.37
X104.64Y100.83
X104.64Y98.29
X104.64Y95.75
X104.64Y93.21
X104.64Y90.67
X104.64Y88.13
X104.64Y85.59
X104.64Y83.05
X104.64Y80.51
X104.64Y77.97
X104.64Y75.43
X104.64Y72.89
X104.64Y70.35
X104.64Y67.81
X104.64Y65.27
X104.64Y62.73
X104.64Y60.19
X104.64Y57.65
X104.64Y51.435
X104.64Y48.895
X104.64Y46.355
X104.64Y43.815
X104.64Y41.275
X104.64Y38.735
X104.64Y36.195
X104.64Y33.655
X104.64Y31.115
X104.64Y28.575
X104.64Y26.035
X104.64Y23.495
X104.64Y20.955
X104.64Y18.415
X104.64Y15.875
X104.64Y13.335
X104.64Y10.795
X104.64Y8.255
X104.64Y5.715
X104.64Y3.175
X107.18Y160.385
X107.18Y157.845
X107.18Y155.305
X107.18Y152.765
X107.18Y150.225
X107.18Y147.685
X107.18Y145.145
X107.18Y142.605
X107.18Y140.065
X107.18Y137.525
X107.18Y134.985
X107.18Y132.445
X107.18Y129.905
X107.18Y127.365
X107.18Y124.825
X107.18Y122.285
X107.18Y119.745
X107.18Y117.205
X107.18Y114.665
X107.18Y112.125
X107.18Y105.91
X107.18Y103.37
X107.18Y100.83
X107.18Y98.29
X107.18Y95.75
X107.18Y93.21
X107.18Y90.67
X107.18Y88.13
X107.18Y85.59
X107.18Y83.05
X107.18Y80.51
X107.18Y77.97
X107.18Y75.43
X107.18Y72.89
X107.18Y70.35
X107.18Y67.81
X107.18Y65.27
X107.18Y62.73
X107.18Y60.19
X107.18Y57.65
X107.18Y51.435
X107.18Y48.895
X107.18Y46.355
X107.18Y43.815
X107.18Y41.275
X107.18Y38.735
X107.18Y36.195
X107.18Y33.655
X107.18Y31.115
X107.18Y28.575
X107.18Y26.035
X107.18Y23.495
X107.18Y20.955
X107.18Y18.415
X107.18Y15.875
X107.18Y13.335
X107.18Y10.795
X107.18Y8.255
X107.18Y5.715
X107.18Y3.175
X126.23Y132.445
X126.23Y129.905
X126.23Y127.365
X126.23Y122.285
X126.23Y119.745
X126.23Y117.205
X126.23Y77.97
X126.23Y75.43
X126.23Y72.89
X126.23Y67.81
X126.23Y65.27
X126.23Y62.73
X126.23Y23.495
X126.23Y20.955
X126.23Y18.415
X126.23Y13.335
X126.23Y10.795
X126.23Y8.255
T5
X28.86Y115.506
X28.86Y61.031
X28.86Y6.556
X34.64Y115.506
X34.64Y61.031
X34.64Y6.556
X92.86Y115.506
X92.86Y61.031
X92.86Y6.556
X98.64Y115.506
X98.64Y61.031
X98.64Y6.556
T6
X47.395Y112.125
X47.395Y57.65
X47.395Y3.175
X50.395Y112.125
X50.395Y57.65
X50.395Y3.175
X111.395Y112.125
X111.395Y57.65
X111.395Y3.175
X114.395Y112.125
X114.395Y57.65
X114.395Y3.175
T7
X2.54Y160.385
X2.54Y111.49
X2.54Y105.91
X2.54Y57.015
X2.54Y51.435
X2.54Y2.54
X60.96Y160.385
X60.96Y111.49
X60.96Y105.91
X60.96Y57.015
X60.96Y51.435
X60.96Y2.54
X66.54Y160.385
X66.54Y111.49
X66.54Y105.91
X66.54Y57.015
X66.54Y51.435
X66.54Y2.54
X124.96Y160.385
X124.96Y111.49
X124.96Y105.91
X124.96Y57.015
X124.96Y51.435
X124.96Y2.54
T2
G00X27.432Y116.586
M15
G01X27.432Y115.486
M16
G05
G00X27.432Y112.156
M15
G01X27.432Y111.556
M16
G05
G00X27.432Y62.111
M15
G01X27.432Y61.011
M16
G05
G00X27.432Y57.681
M15
G01X27.432Y57.081
M16
G05
G00X27.432Y7.636
M15
G01X27.432Y6.536
M16
G05
G00X27.432Y3.206
M15
G01X27.432Y2.606
M16
G05
G00X36.068Y116.586
M15
G01X36.068Y115.486
M16
G05
G00X36.068Y112.156
M15
G01X36.068Y111.556
M16
G05
G00X36.068Y62.111
M15
G01X36.068Y61.011
M16
G05
G00X36.068Y57.681
M15
G01X36.068Y57.081
M16
G05
G00X36.068Y7.636
M15
G01X36.068Y6.536
M16
G05
G00X36.068Y3.206
M15
G01X36.068Y2.606
M16
G05
G00X91.432Y116.586
M15
G01X91.432Y115.486
M16
G05
G00X91.432Y112.156
M15
G01X91.432Y111.556
M16
G05
G00X91.432Y62.111
M15
G01X91.432Y61.011
M16
G05
G00X91.432Y57.681
M15
G01X91.432Y57.081
M16
G05
G00X91.432Y7.636
M15
G01X91.432Y6.536
M16
G05
G00X91.432Y3.206
M15
G01X91.432Y2.606
M16
G05
G00X100.068Y116.586
M15
G01X100.068Y115.486
M16
G05
G00X100.068Y112.156
M15
G01X100.068Y111.556
M16
G05
G00X100.068Y62.111
M15
G01X100.068Y61.011
M16
G05
G00X100.068Y57.681
M15
G01X100.068Y57.081
M16
G05
G00X100.068Y7.636
M15
G01X100.068Y6.536
M16
G05
G00X100.068Y3.206
M15
G01X100.068Y2.606
M16
G05
T3
G00X11.4Y122.92
M15
G01X14.0Y122.92
M16
G05
G00X11.7Y116.951
M15
G01X13.7Y116.951
M16
G05
G00X11.4Y68.445
M15
G01X14.0Y68.445
M16
G05
G00X11.7Y62.476
M15
G01X13.7Y62.476
M16
G05
G00X11.4Y13.97
M15
G01X14.0Y13.97
M16
G05
G00X11.7Y8.001
M15
G01X13.7Y8.001
M16
G05
G00X17.399Y120.999
M15
G01X17.399Y118.999
M16
G05
G00X17.399Y66.524
M15
G01X17.399Y64.524
M16
G05
G00X17.399Y12.049
M15
G01X17.399Y10.049
M16
G05
G00X75.4Y122.92
M15
G01X78.0Y122.92
M16
G05
G00X75.7Y116.951
M15
G01X77.7Y116.951
M16
G05
G00X75.4Y68.445
M15
G01X78.0Y68.445
M16
G05
G00X75.7Y62.476
M15
G01X77.7Y62.476
M16
G05
G00X75.4Y13.97
M15
G01X78.0Y13.97
M16
G05
G00X75.7Y8.001
M15
G01X77.7Y8.001
M16
G05
G00X81.399Y120.999
M15
G01X81.399Y118.999
M16
G05
G00X81.399Y66.524
M15
G01X81.399Y64.524
M16
G05
G00X81.399Y12.049
M15
G01X81.399Y10.049
M16
G05
M30
