%TF.GenerationSoftware,KiCad,Pcbnew,8.0.5*%
%TF.CreationDate,2024-12-18T16:51:18-07:00*%
%TF.ProjectId,SparkFun_XRP_Controller_panelized,53706172-6b46-4756-9e5f-5852505f436f,v20*%
%TF.SameCoordinates,Original*%
%TF.FileFunction,Soldermask,Top*%
%TF.FilePolarity,Negative*%
%FSLAX46Y46*%
G04 Gerber Fmt 4.6, Leading zero omitted, Abs format (unit mm)*
G04 Created by KiCad (PCBNEW 8.0.5) date 2024-12-18 16:51:18*
%MOMM*%
%LPD*%
G01*
G04 APERTURE LIST*
G04 Aperture macros list*
%AMRoundRect*
0 Rectangle with rounded corners*
0 $1 Rounding radius*
0 $2 $3 $4 $5 $6 $7 $8 $9 X,Y pos of 4 corners*
0 Add a 4 corners polygon primitive as box body*
4,1,4,$2,$3,$4,$5,$6,$7,$8,$9,$2,$3,0*
0 Add four circle primitives for the rounded corners*
1,1,$1+$1,$2,$3*
1,1,$1+$1,$4,$5*
1,1,$1+$1,$6,$7*
1,1,$1+$1,$8,$9*
0 Add four rect primitives between the rounded corners*
20,1,$1+$1,$2,$3,$4,$5,0*
20,1,$1+$1,$4,$5,$6,$7,0*
20,1,$1+$1,$6,$7,$8,$9,0*
20,1,$1+$1,$8,$9,$2,$3,0*%
%AMFreePoly0*
4,1,14,0.490355,2.060355,0.505000,2.025000,0.505000,-2.025000,0.490355,-2.060355,0.455000,-2.075000,-0.455000,-2.075000,-0.490355,-2.060355,-0.505000,-2.025000,-0.505000,1.570000,-0.490355,1.605355,-0.035355,2.060355,0.000000,2.075000,0.455000,2.075000,0.490355,2.060355,0.490355,2.060355,$1*%
G04 Aperture macros list end*
%ADD10RoundRect,0.165000X-0.195000X0.165000X-0.195000X-0.165000X0.195000X-0.165000X0.195000X0.165000X0*%
%ADD11RoundRect,0.160000X-0.160000X-0.210000X0.160000X-0.210000X0.160000X0.210000X-0.160000X0.210000X0*%
%ADD12RoundRect,0.050000X0.330000X-0.150000X0.330000X0.150000X-0.330000X0.150000X-0.330000X-0.150000X0*%
%ADD13RoundRect,0.050000X-0.275000X-0.600000X0.275000X-0.600000X0.275000X0.600000X-0.275000X0.600000X0*%
%ADD14RoundRect,0.050000X-0.225000X-0.125000X0.225000X-0.125000X0.225000X0.125000X-0.225000X0.125000X0*%
%ADD15RoundRect,0.050000X0.125000X-0.225000X0.125000X0.225000X-0.125000X0.225000X-0.125000X-0.225000X0*%
%ADD16RoundRect,0.050000X-0.275000X0.800000X-0.275000X-0.800000X0.275000X-0.800000X0.275000X0.800000X0*%
%ADD17RoundRect,0.165000X0.195000X-0.165000X0.195000X0.165000X-0.195000X0.165000X-0.195000X-0.165000X0*%
%ADD18RoundRect,0.160000X0.160000X0.210000X-0.160000X0.210000X-0.160000X-0.210000X0.160000X-0.210000X0*%
%ADD19O,4.100000X2.100000*%
%ADD20O,2.100000X4.100000*%
%ADD21O,4.700000X2.400000*%
%ADD22RoundRect,0.160000X-0.210000X0.160000X-0.210000X-0.160000X0.210000X-0.160000X0.210000X0.160000X0*%
%ADD23RoundRect,0.275000X-0.500000X0.275000X-0.500000X-0.275000X0.500000X-0.275000X0.500000X0.275000X0*%
%ADD24RoundRect,0.050000X0.150000X0.330000X-0.150000X0.330000X-0.150000X-0.330000X0.150000X-0.330000X0*%
%ADD25C,3.000000*%
%ADD26RoundRect,0.050000X0.450000X-0.400000X0.450000X0.400000X-0.450000X0.400000X-0.450000X-0.400000X0*%
%ADD27C,3.200000*%
%ADD28RoundRect,0.165000X-0.165000X-0.195000X0.165000X-0.195000X0.165000X0.195000X-0.165000X0.195000X0*%
%ADD29RoundRect,0.050000X-0.400000X-0.450000X0.400000X-0.450000X0.400000X0.450000X-0.400000X0.450000X0*%
%ADD30RoundRect,0.165000X0.165000X0.195000X-0.165000X0.195000X-0.165000X-0.195000X0.165000X-0.195000X0*%
%ADD31RoundRect,0.275000X0.500000X-0.275000X0.500000X0.275000X-0.500000X0.275000X-0.500000X-0.275000X0*%
%ADD32RoundRect,0.050000X-0.500000X0.450000X-0.500000X-0.450000X0.500000X-0.450000X0.500000X0.450000X0*%
%ADD33C,0.600000*%
%ADD34RoundRect,0.050000X0.200000X0.125000X-0.200000X0.125000X-0.200000X-0.125000X0.200000X-0.125000X0*%
%ADD35RoundRect,0.050000X0.100000X0.800000X-0.100000X0.800000X-0.100000X-0.800000X0.100000X-0.800000X0*%
%ADD36RoundRect,0.050000X-0.775000X0.300000X-0.775000X-0.300000X0.775000X-0.300000X0.775000X0.300000X0*%
%ADD37RoundRect,0.050000X-1.000000X0.600000X-1.000000X-0.600000X1.000000X-0.600000X1.000000X0.600000X0*%
%ADD38C,1.000000*%
%ADD39RoundRect,0.050000X-0.350000X-0.750000X0.350000X-0.750000X0.350000X0.750000X-0.350000X0.750000X0*%
%ADD40RoundRect,0.050000X0.500000X0.300000X-0.500000X0.300000X-0.500000X-0.300000X0.500000X-0.300000X0*%
%ADD41RoundRect,0.050000X0.500000X0.400000X-0.500000X0.400000X-0.500000X-0.400000X0.500000X-0.400000X0*%
%ADD42RoundRect,0.050000X-0.425000X0.250000X-0.425000X-0.250000X0.425000X-0.250000X0.425000X0.250000X0*%
%ADD43FreePoly0,180.000000*%
%ADD44RoundRect,0.243750X0.281250X-0.243750X0.281250X0.243750X-0.281250X0.243750X-0.281250X-0.243750X0*%
%ADD45RoundRect,0.050000X0.775000X-0.300000X0.775000X0.300000X-0.775000X0.300000X-0.775000X-0.300000X0*%
%ADD46RoundRect,0.050000X1.000000X-0.600000X1.000000X0.600000X-1.000000X0.600000X-1.000000X-0.600000X0*%
%ADD47C,1.979600*%
%ADD48C,0.750000*%
%ADD49RoundRect,0.050000X0.150000X0.500000X-0.150000X0.500000X-0.150000X-0.500000X0.150000X-0.500000X0*%
%ADD50RoundRect,0.050000X-0.150000X-0.500000X0.150000X-0.500000X0.150000X0.500000X-0.150000X0.500000X0*%
%ADD51RoundRect,0.050000X0.300000X0.500000X-0.300000X0.500000X-0.300000X-0.500000X0.300000X-0.500000X0*%
%ADD52RoundRect,0.050000X-0.300000X-0.500000X0.300000X-0.500000X0.300000X0.500000X-0.300000X0.500000X0*%
%ADD53O,1.100000X1.700000*%
%ADD54O,1.100000X2.200000*%
%ADD55RoundRect,0.050000X-0.925000X-1.750000X0.925000X-1.750000X0.925000X1.750000X-0.925000X1.750000X0*%
%ADD56RoundRect,0.050000X-0.900000X0.600000X-0.900000X-0.600000X0.900000X-0.600000X0.900000X0.600000X0*%
%ADD57RoundRect,0.050000X-0.450000X-0.145000X0.450000X-0.145000X0.450000X0.145000X-0.450000X0.145000X0*%
%ADD58RoundRect,0.050000X-0.145000X0.450000X-0.145000X-0.450000X0.145000X-0.450000X0.145000X0.450000X0*%
%ADD59RoundRect,0.050000X0.450000X0.145000X-0.450000X0.145000X-0.450000X-0.145000X0.450000X-0.145000X0*%
%ADD60RoundRect,0.050000X0.145000X-0.450000X0.145000X0.450000X-0.145000X0.450000X-0.145000X-0.450000X0*%
%ADD61RoundRect,0.050000X-0.800000X0.800000X-0.800000X-0.800000X0.800000X-0.800000X0.800000X0.800000X0*%
%ADD62RoundRect,0.050000X0.800000X0.900000X-0.800000X0.900000X-0.800000X-0.900000X0.800000X-0.900000X0*%
%ADD63RoundRect,0.050000X0.350000X0.350000X-0.350000X0.350000X-0.350000X-0.350000X0.350000X-0.350000X0*%
%ADD64RoundRect,0.250000X-0.250000X-0.275000X0.250000X-0.275000X0.250000X0.275000X-0.250000X0.275000X0*%
%ADD65RoundRect,0.050000X0.900000X-0.600000X0.900000X0.600000X-0.900000X0.600000X-0.900000X-0.600000X0*%
%ADD66RoundRect,0.050000X1.447800X-0.838200X1.447800X0.838200X-1.447800X0.838200X-1.447800X-0.838200X0*%
%ADD67RoundRect,0.050000X0.600000X0.500000X-0.600000X0.500000X-0.600000X-0.500000X0.600000X-0.500000X0*%
%ADD68RoundRect,0.160000X0.210000X-0.160000X0.210000X0.160000X-0.210000X0.160000X-0.210000X-0.160000X0*%
%ADD69RoundRect,0.243750X-0.243750X-0.281250X0.243750X-0.281250X0.243750X0.281250X-0.243750X0.281250X0*%
%ADD70RoundRect,0.064000X-0.376000X-0.096000X0.376000X-0.096000X0.376000X0.096000X-0.376000X0.096000X0*%
%ADD71RoundRect,0.064000X0.096000X-0.376000X0.096000X0.376000X-0.096000X0.376000X-0.096000X-0.376000X0*%
%ADD72RoundRect,0.064000X0.376000X0.096000X-0.376000X0.096000X-0.376000X-0.096000X0.376000X-0.096000X0*%
%ADD73RoundRect,0.064000X-0.096000X0.376000X-0.096000X-0.376000X0.096000X-0.376000X0.096000X0.376000X0*%
%ADD74RoundRect,0.050000X1.700000X1.700000X-1.700000X1.700000X-1.700000X-1.700000X1.700000X-1.700000X0*%
%ADD75RoundRect,0.220000X0.580000X-0.330000X0.580000X0.330000X-0.580000X0.330000X-0.580000X-0.330000X0*%
%ADD76RoundRect,0.220000X-0.330000X-0.580000X0.330000X-0.580000X0.330000X0.580000X-0.330000X0.580000X0*%
%ADD77RoundRect,0.050000X0.400000X0.450000X-0.400000X0.450000X-0.400000X-0.450000X0.400000X-0.450000X0*%
%ADD78RoundRect,0.243750X0.243750X0.281250X-0.243750X0.281250X-0.243750X-0.281250X0.243750X-0.281250X0*%
%ADD79RoundRect,0.050000X0.800000X-0.800000X0.800000X0.800000X-0.800000X0.800000X-0.800000X-0.800000X0*%
%ADD80RoundRect,0.050000X0.750000X-0.400000X0.750000X0.400000X-0.750000X0.400000X-0.750000X-0.400000X0*%
%ADD81RoundRect,0.050000X0.150000X-0.300000X0.150000X0.300000X-0.150000X0.300000X-0.150000X-0.300000X0*%
%ADD82RoundRect,0.050000X0.865000X-0.200000X0.865000X0.200000X-0.865000X0.200000X-0.865000X-0.200000X0*%
G04 APERTURE END LIST*
D10*
%TO.C,C14*%
X26797000Y19276000D03*
X26797000Y18316000D03*
%TD*%
%TO.C,C14*%
X90797000Y128226000D03*
X90797000Y127266000D03*
%TD*%
%TO.C,C14*%
X26797000Y128226000D03*
X26797000Y127266000D03*
%TD*%
%TO.C,C14*%
X90797000Y19276000D03*
X90797000Y18316000D03*
%TD*%
%TO.C,C14*%
X26797000Y73751000D03*
X26797000Y72791000D03*
%TD*%
%TO.C,C14*%
X90797000Y73751000D03*
X90797000Y72791000D03*
%TD*%
D11*
%TO.C,R39*%
X6729000Y21717000D03*
X7749000Y21717000D03*
%TD*%
%TO.C,R39*%
X70729000Y130667000D03*
X71749000Y130667000D03*
%TD*%
%TO.C,R39*%
X70729000Y21717000D03*
X71749000Y21717000D03*
%TD*%
%TO.C,R39*%
X6729000Y130667000D03*
X7749000Y130667000D03*
%TD*%
%TO.C,R39*%
X70729000Y76192000D03*
X71749000Y76192000D03*
%TD*%
%TO.C,R39*%
X6729000Y76192000D03*
X7749000Y76192000D03*
%TD*%
D12*
%TO.C,Q3*%
X14320000Y22240000D03*
X14320000Y21590000D03*
X14320000Y20940000D03*
X16160000Y20940000D03*
X16160000Y21590000D03*
X16160000Y22240000D03*
%TD*%
%TO.C,Q3*%
X78320000Y22240000D03*
X78320000Y21590000D03*
X78320000Y20940000D03*
X80160000Y20940000D03*
X80160000Y21590000D03*
X80160000Y22240000D03*
%TD*%
%TO.C,Q3*%
X14320000Y76715000D03*
X14320000Y76065000D03*
X14320000Y75415000D03*
X16160000Y75415000D03*
X16160000Y76065000D03*
X16160000Y76715000D03*
%TD*%
%TO.C,Q3*%
X14320000Y131190000D03*
X14320000Y130540000D03*
X14320000Y129890000D03*
X16160000Y129890000D03*
X16160000Y130540000D03*
X16160000Y131190000D03*
%TD*%
%TO.C,Q3*%
X78320000Y131190000D03*
X78320000Y130540000D03*
X78320000Y129890000D03*
X80160000Y129890000D03*
X80160000Y130540000D03*
X80160000Y131190000D03*
%TD*%
%TO.C,Q3*%
X78320000Y76715000D03*
X78320000Y76065000D03*
X78320000Y75415000D03*
X80160000Y75415000D03*
X80160000Y76065000D03*
X80160000Y76715000D03*
%TD*%
D13*
%TO.C,D5*%
X29530000Y10129900D03*
X30480000Y10129900D03*
X31430000Y10129900D03*
X31430000Y12730100D03*
X30480000Y12730000D03*
X29530000Y12730100D03*
%TD*%
%TO.C,D5*%
X93530000Y119079900D03*
X94480000Y119079900D03*
X95430000Y119079900D03*
X95430000Y121680100D03*
X94480000Y121680000D03*
X93530000Y121680100D03*
%TD*%
%TO.C,D5*%
X29530000Y64604900D03*
X30480000Y64604900D03*
X31430000Y64604900D03*
X31430000Y67205100D03*
X30480000Y67205000D03*
X29530000Y67205100D03*
%TD*%
%TO.C,D5*%
X93530000Y10129900D03*
X94480000Y10129900D03*
X95430000Y10129900D03*
X95430000Y12730100D03*
X94480000Y12730000D03*
X93530000Y12730100D03*
%TD*%
%TO.C,D5*%
X29530000Y119079900D03*
X30480000Y119079900D03*
X31430000Y119079900D03*
X31430000Y121680100D03*
X30480000Y121680000D03*
X29530000Y121680100D03*
%TD*%
%TO.C,D5*%
X93530000Y64604900D03*
X94480000Y64604900D03*
X95430000Y64604900D03*
X95430000Y67205100D03*
X94480000Y67205000D03*
X93530000Y67205100D03*
%TD*%
D14*
%TO.C,U6*%
X45815000Y23610000D03*
X45815000Y23110000D03*
X45815000Y22610000D03*
X45815000Y22110000D03*
D15*
X46490000Y21935000D03*
X46990000Y21935000D03*
X47490000Y21935000D03*
D14*
X48165000Y22110000D03*
X48165000Y22610000D03*
X48165000Y23110000D03*
X48165000Y23610000D03*
D15*
X47490000Y23785000D03*
X46990000Y23785000D03*
X46490000Y23785000D03*
%TD*%
D14*
%TO.C,U6*%
X109815000Y78085000D03*
X109815000Y77585000D03*
X109815000Y77085000D03*
X109815000Y76585000D03*
D15*
X110490000Y76410000D03*
X110990000Y76410000D03*
X111490000Y76410000D03*
D14*
X112165000Y76585000D03*
X112165000Y77085000D03*
X112165000Y77585000D03*
X112165000Y78085000D03*
D15*
X111490000Y78260000D03*
X110990000Y78260000D03*
X110490000Y78260000D03*
%TD*%
D14*
%TO.C,U6*%
X45815000Y132560000D03*
X45815000Y132060000D03*
X45815000Y131560000D03*
X45815000Y131060000D03*
D15*
X46490000Y130885000D03*
X46990000Y130885000D03*
X47490000Y130885000D03*
D14*
X48165000Y131060000D03*
X48165000Y131560000D03*
X48165000Y132060000D03*
X48165000Y132560000D03*
D15*
X47490000Y132735000D03*
X46990000Y132735000D03*
X46490000Y132735000D03*
%TD*%
D14*
%TO.C,U6*%
X109815000Y23610000D03*
X109815000Y23110000D03*
X109815000Y22610000D03*
X109815000Y22110000D03*
D15*
X110490000Y21935000D03*
X110990000Y21935000D03*
X111490000Y21935000D03*
D14*
X112165000Y22110000D03*
X112165000Y22610000D03*
X112165000Y23110000D03*
X112165000Y23610000D03*
D15*
X111490000Y23785000D03*
X110990000Y23785000D03*
X110490000Y23785000D03*
%TD*%
D14*
%TO.C,U6*%
X45815000Y78085000D03*
X45815000Y77585000D03*
X45815000Y77085000D03*
X45815000Y76585000D03*
D15*
X46490000Y76410000D03*
X46990000Y76410000D03*
X47490000Y76410000D03*
D14*
X48165000Y76585000D03*
X48165000Y77085000D03*
X48165000Y77585000D03*
X48165000Y78085000D03*
D15*
X47490000Y78260000D03*
X46990000Y78260000D03*
X46490000Y78260000D03*
%TD*%
D14*
%TO.C,U6*%
X109815000Y132560000D03*
X109815000Y132060000D03*
X109815000Y131560000D03*
X109815000Y131060000D03*
D15*
X110490000Y130885000D03*
X110990000Y130885000D03*
X111490000Y130885000D03*
D14*
X112165000Y131060000D03*
X112165000Y131560000D03*
X112165000Y132060000D03*
X112165000Y132560000D03*
D15*
X111490000Y132735000D03*
X110990000Y132735000D03*
X110490000Y132735000D03*
%TD*%
D16*
%TO.C,L1*%
X29477800Y16891000D03*
X28027800Y16891000D03*
%TD*%
%TO.C,L1*%
X29477800Y71366000D03*
X28027800Y71366000D03*
%TD*%
%TO.C,L1*%
X93477800Y16891000D03*
X92027800Y16891000D03*
%TD*%
%TO.C,L1*%
X93477800Y71366000D03*
X92027800Y71366000D03*
%TD*%
%TO.C,L1*%
X93477800Y125841000D03*
X92027800Y125841000D03*
%TD*%
%TO.C,L1*%
X29477800Y125841000D03*
X28027800Y125841000D03*
%TD*%
D11*
%TO.C,R47*%
X4824000Y25019000D03*
X5844000Y25019000D03*
%TD*%
%TO.C,R47*%
X4824000Y79494000D03*
X5844000Y79494000D03*
%TD*%
%TO.C,R47*%
X68824000Y25019000D03*
X69844000Y25019000D03*
%TD*%
%TO.C,R47*%
X4824000Y133969000D03*
X5844000Y133969000D03*
%TD*%
%TO.C,R47*%
X68824000Y79494000D03*
X69844000Y79494000D03*
%TD*%
%TO.C,R47*%
X68824000Y133969000D03*
X69844000Y133969000D03*
%TD*%
D17*
%TO.C,C31*%
X50800000Y6505000D03*
X50800000Y7465000D03*
%TD*%
%TO.C,C31*%
X50800000Y115455000D03*
X50800000Y116415000D03*
%TD*%
%TO.C,C31*%
X50800000Y60980000D03*
X50800000Y61940000D03*
%TD*%
%TO.C,C31*%
X114800000Y115455000D03*
X114800000Y116415000D03*
%TD*%
%TO.C,C31*%
X114800000Y60980000D03*
X114800000Y61940000D03*
%TD*%
%TO.C,C31*%
X114800000Y6505000D03*
X114800000Y7465000D03*
%TD*%
D18*
%TO.C,R10*%
X55120000Y43815000D03*
X54100000Y43815000D03*
%TD*%
%TO.C,R10*%
X55120000Y98290000D03*
X54100000Y98290000D03*
%TD*%
%TO.C,R10*%
X119120000Y152765000D03*
X118100000Y152765000D03*
%TD*%
%TO.C,R10*%
X55120000Y152765000D03*
X54100000Y152765000D03*
%TD*%
%TO.C,R10*%
X119120000Y43815000D03*
X118100000Y43815000D03*
%TD*%
%TO.C,R10*%
X119120000Y98290000D03*
X118100000Y98290000D03*
%TD*%
D19*
%TO.C,J1*%
X12700000Y8001000D03*
D20*
X17399000Y11049000D03*
D21*
X12700000Y13970000D03*
%TD*%
D19*
%TO.C,J1*%
X76700000Y62476000D03*
D20*
X81399000Y65524000D03*
D21*
X76700000Y68445000D03*
%TD*%
D19*
%TO.C,J1*%
X76700000Y116951000D03*
D20*
X81399000Y119999000D03*
D21*
X76700000Y122920000D03*
%TD*%
D19*
%TO.C,J1*%
X12700000Y62476000D03*
D20*
X17399000Y65524000D03*
D21*
X12700000Y68445000D03*
%TD*%
D19*
%TO.C,J1*%
X12700000Y116951000D03*
D20*
X17399000Y119999000D03*
D21*
X12700000Y122920000D03*
%TD*%
D19*
%TO.C,J1*%
X76700000Y8001000D03*
D20*
X81399000Y11049000D03*
D21*
X76700000Y13970000D03*
%TD*%
D22*
%TO.C,R36*%
X49530000Y16385000D03*
X49530000Y15365000D03*
%TD*%
%TO.C,R36*%
X113530000Y16385000D03*
X113530000Y15365000D03*
%TD*%
%TO.C,R36*%
X49530000Y70860000D03*
X49530000Y69840000D03*
%TD*%
%TO.C,R36*%
X113530000Y125335000D03*
X113530000Y124315000D03*
%TD*%
%TO.C,R36*%
X49530000Y125335000D03*
X49530000Y124315000D03*
%TD*%
%TO.C,R36*%
X113530000Y70860000D03*
X113530000Y69840000D03*
%TD*%
D23*
%TO.C,C24*%
X16002000Y26096000D03*
X16002000Y24196000D03*
%TD*%
%TO.C,C24*%
X16002000Y135046000D03*
X16002000Y133146000D03*
%TD*%
%TO.C,C24*%
X80002000Y80571000D03*
X80002000Y78671000D03*
%TD*%
%TO.C,C24*%
X80002000Y26096000D03*
X80002000Y24196000D03*
%TD*%
%TO.C,C24*%
X16002000Y80571000D03*
X16002000Y78671000D03*
%TD*%
%TO.C,C24*%
X80002000Y135046000D03*
X80002000Y133146000D03*
%TD*%
D11*
%TO.C,R26*%
X49655000Y30861000D03*
X50675000Y30861000D03*
%TD*%
%TO.C,R26*%
X49655000Y139811000D03*
X50675000Y139811000D03*
%TD*%
%TO.C,R26*%
X49655000Y85336000D03*
X50675000Y85336000D03*
%TD*%
%TO.C,R26*%
X113655000Y30861000D03*
X114675000Y30861000D03*
%TD*%
%TO.C,R26*%
X113655000Y85336000D03*
X114675000Y85336000D03*
%TD*%
%TO.C,R26*%
X113655000Y139811000D03*
X114675000Y139811000D03*
%TD*%
D24*
%TO.C,Q5*%
X46340000Y12415000D03*
X46990000Y12415000D03*
X47640000Y12415000D03*
X47640000Y14255000D03*
X46990000Y14255000D03*
X46340000Y14255000D03*
%TD*%
%TO.C,Q5*%
X110340000Y66890000D03*
X110990000Y66890000D03*
X111640000Y66890000D03*
X111640000Y68730000D03*
X110990000Y68730000D03*
X110340000Y68730000D03*
%TD*%
%TO.C,Q5*%
X110340000Y12415000D03*
X110990000Y12415000D03*
X111640000Y12415000D03*
X111640000Y14255000D03*
X110990000Y14255000D03*
X110340000Y14255000D03*
%TD*%
%TO.C,Q5*%
X46340000Y66890000D03*
X46990000Y66890000D03*
X47640000Y66890000D03*
X47640000Y68730000D03*
X46990000Y68730000D03*
X46340000Y68730000D03*
%TD*%
%TO.C,Q5*%
X46340000Y121365000D03*
X46990000Y121365000D03*
X47640000Y121365000D03*
X47640000Y123205000D03*
X46990000Y123205000D03*
X46340000Y123205000D03*
%TD*%
%TO.C,Q5*%
X110340000Y121365000D03*
X110990000Y121365000D03*
X111640000Y121365000D03*
X111640000Y123205000D03*
X110990000Y123205000D03*
X110340000Y123205000D03*
%TD*%
D18*
%TO.C,R44*%
X50675000Y29845000D03*
X49655000Y29845000D03*
%TD*%
%TO.C,R44*%
X114675000Y29845000D03*
X113655000Y29845000D03*
%TD*%
%TO.C,R44*%
X50675000Y84320000D03*
X49655000Y84320000D03*
%TD*%
%TO.C,R44*%
X114675000Y138795000D03*
X113655000Y138795000D03*
%TD*%
%TO.C,R44*%
X50675000Y138795000D03*
X49655000Y138795000D03*
%TD*%
%TO.C,R44*%
X114675000Y84320000D03*
X113655000Y84320000D03*
%TD*%
D22*
%TO.C,R3*%
X32258000Y34165000D03*
X32258000Y33145000D03*
%TD*%
%TO.C,R3*%
X32258000Y88640000D03*
X32258000Y87620000D03*
%TD*%
%TO.C,R3*%
X96258000Y34165000D03*
X96258000Y33145000D03*
%TD*%
%TO.C,R3*%
X96258000Y88640000D03*
X96258000Y87620000D03*
%TD*%
%TO.C,R3*%
X32258000Y143115000D03*
X32258000Y142095000D03*
%TD*%
%TO.C,R3*%
X96258000Y143115000D03*
X96258000Y142095000D03*
%TD*%
D25*
%TO.C,*%
X2000000Y-2087500D03*
%TD*%
D23*
%TO.C,C41*%
X58420000Y21905000D03*
X58420000Y20005000D03*
%TD*%
%TO.C,C41*%
X122420000Y21905000D03*
X122420000Y20005000D03*
%TD*%
%TO.C,C41*%
X122420000Y76380000D03*
X122420000Y74480000D03*
%TD*%
%TO.C,C41*%
X58420000Y130855000D03*
X58420000Y128955000D03*
%TD*%
%TO.C,C41*%
X122420000Y130855000D03*
X122420000Y128955000D03*
%TD*%
%TO.C,C41*%
X58420000Y76380000D03*
X58420000Y74480000D03*
%TD*%
D26*
%TO.C,Q4*%
X13065000Y20640000D03*
X13065000Y22540000D03*
X10965000Y21590000D03*
%TD*%
%TO.C,Q4*%
X13065000Y129590000D03*
X13065000Y131490000D03*
X10965000Y130540000D03*
%TD*%
%TO.C,Q4*%
X77065000Y20640000D03*
X77065000Y22540000D03*
X74965000Y21590000D03*
%TD*%
%TO.C,Q4*%
X77065000Y129590000D03*
X77065000Y131490000D03*
X74965000Y130540000D03*
%TD*%
%TO.C,Q4*%
X13065000Y75115000D03*
X13065000Y77015000D03*
X10965000Y76065000D03*
%TD*%
%TO.C,Q4*%
X77065000Y75115000D03*
X77065000Y77015000D03*
X74965000Y76065000D03*
%TD*%
D10*
%TO.C,C17*%
X37592000Y34008000D03*
X37592000Y33048000D03*
%TD*%
%TO.C,C17*%
X101592000Y34008000D03*
X101592000Y33048000D03*
%TD*%
%TO.C,C17*%
X101592000Y88483000D03*
X101592000Y87523000D03*
%TD*%
%TO.C,C17*%
X101592000Y142958000D03*
X101592000Y141998000D03*
%TD*%
%TO.C,C17*%
X37592000Y142958000D03*
X37592000Y141998000D03*
%TD*%
%TO.C,C17*%
X37592000Y88483000D03*
X37592000Y87523000D03*
%TD*%
D27*
%TO.C,ST4*%
X60960000Y2540000D03*
%TD*%
%TO.C,ST4*%
X60960000Y57015000D03*
%TD*%
%TO.C,ST4*%
X124960000Y2540000D03*
%TD*%
%TO.C,ST4*%
X124960000Y111490000D03*
%TD*%
%TO.C,ST4*%
X60960000Y111490000D03*
%TD*%
%TO.C,ST4*%
X124960000Y57015000D03*
%TD*%
D22*
%TO.C,R35*%
X47625000Y16385000D03*
X47625000Y15365000D03*
%TD*%
%TO.C,R35*%
X47625000Y70860000D03*
X47625000Y69840000D03*
%TD*%
%TO.C,R35*%
X111625000Y16385000D03*
X111625000Y15365000D03*
%TD*%
%TO.C,R35*%
X111625000Y70860000D03*
X111625000Y69840000D03*
%TD*%
%TO.C,R35*%
X111625000Y125335000D03*
X111625000Y124315000D03*
%TD*%
%TO.C,R35*%
X47625000Y125335000D03*
X47625000Y124315000D03*
%TD*%
D18*
%TO.C,R1*%
X25656000Y23241000D03*
X24636000Y23241000D03*
%TD*%
%TO.C,R1*%
X89656000Y132191000D03*
X88636000Y132191000D03*
%TD*%
%TO.C,R1*%
X25656000Y132191000D03*
X24636000Y132191000D03*
%TD*%
%TO.C,R1*%
X25656000Y77716000D03*
X24636000Y77716000D03*
%TD*%
%TO.C,R1*%
X89656000Y23241000D03*
X88636000Y23241000D03*
%TD*%
%TO.C,R1*%
X89656000Y77716000D03*
X88636000Y77716000D03*
%TD*%
D13*
%TO.C,U5*%
X51120000Y21559900D03*
X52070000Y21559900D03*
X53020000Y21559900D03*
X53020000Y24160100D03*
X51120000Y24160100D03*
%TD*%
%TO.C,U5*%
X115120000Y21559900D03*
X116070000Y21559900D03*
X117020000Y21559900D03*
X117020000Y24160100D03*
X115120000Y24160100D03*
%TD*%
%TO.C,U5*%
X115120000Y130509900D03*
X116070000Y130509900D03*
X117020000Y130509900D03*
X117020000Y133110100D03*
X115120000Y133110100D03*
%TD*%
%TO.C,U5*%
X51120000Y76034900D03*
X52070000Y76034900D03*
X53020000Y76034900D03*
X53020000Y78635100D03*
X51120000Y78635100D03*
%TD*%
%TO.C,U5*%
X51120000Y130509900D03*
X52070000Y130509900D03*
X53020000Y130509900D03*
X53020000Y133110100D03*
X51120000Y133110100D03*
%TD*%
%TO.C,U5*%
X115120000Y76034900D03*
X116070000Y76034900D03*
X117020000Y76034900D03*
X117020000Y78635100D03*
X115120000Y78635100D03*
%TD*%
D28*
%TO.C,C10*%
X37874000Y25146000D03*
X38834000Y25146000D03*
%TD*%
%TO.C,C10*%
X37874000Y79621000D03*
X38834000Y79621000D03*
%TD*%
%TO.C,C10*%
X101874000Y25146000D03*
X102834000Y25146000D03*
%TD*%
%TO.C,C10*%
X101874000Y134096000D03*
X102834000Y134096000D03*
%TD*%
%TO.C,C10*%
X101874000Y79621000D03*
X102834000Y79621000D03*
%TD*%
%TO.C,C10*%
X37874000Y134096000D03*
X38834000Y134096000D03*
%TD*%
D29*
%TO.C,Q9*%
X6924000Y22876000D03*
X8824000Y22876000D03*
X7874000Y24976000D03*
%TD*%
%TO.C,Q9*%
X70924000Y22876000D03*
X72824000Y22876000D03*
X71874000Y24976000D03*
%TD*%
%TO.C,Q9*%
X6924000Y131826000D03*
X8824000Y131826000D03*
X7874000Y133926000D03*
%TD*%
%TO.C,Q9*%
X6924000Y77351000D03*
X8824000Y77351000D03*
X7874000Y79451000D03*
%TD*%
%TO.C,Q9*%
X70924000Y77351000D03*
X72824000Y77351000D03*
X71874000Y79451000D03*
%TD*%
%TO.C,Q9*%
X70924000Y131826000D03*
X72824000Y131826000D03*
X71874000Y133926000D03*
%TD*%
D28*
%TO.C,C5*%
X32667000Y31496000D03*
X33627000Y31496000D03*
%TD*%
%TO.C,C5*%
X32667000Y140446000D03*
X33627000Y140446000D03*
%TD*%
%TO.C,C5*%
X96667000Y31496000D03*
X97627000Y31496000D03*
%TD*%
%TO.C,C5*%
X96667000Y85971000D03*
X97627000Y85971000D03*
%TD*%
%TO.C,C5*%
X32667000Y85971000D03*
X33627000Y85971000D03*
%TD*%
%TO.C,C5*%
X96667000Y140446000D03*
X97627000Y140446000D03*
%TD*%
D30*
%TO.C,C43*%
X11910000Y34671000D03*
X10950000Y34671000D03*
%TD*%
%TO.C,C43*%
X75910000Y89146000D03*
X74950000Y89146000D03*
%TD*%
%TO.C,C43*%
X11910000Y89146000D03*
X10950000Y89146000D03*
%TD*%
%TO.C,C43*%
X75910000Y34671000D03*
X74950000Y34671000D03*
%TD*%
%TO.C,C43*%
X75910000Y143621000D03*
X74950000Y143621000D03*
%TD*%
%TO.C,C43*%
X11910000Y143621000D03*
X10950000Y143621000D03*
%TD*%
D31*
%TO.C,C21*%
X8382000Y26355000D03*
X8382000Y28255000D03*
%TD*%
%TO.C,C21*%
X8382000Y80830000D03*
X8382000Y82730000D03*
%TD*%
%TO.C,C21*%
X8382000Y135305000D03*
X8382000Y137205000D03*
%TD*%
%TO.C,C21*%
X72382000Y26355000D03*
X72382000Y28255000D03*
%TD*%
%TO.C,C21*%
X72382000Y80830000D03*
X72382000Y82730000D03*
%TD*%
%TO.C,C21*%
X72382000Y135305000D03*
X72382000Y137205000D03*
%TD*%
D32*
%TO.C,SW4*%
X56045000Y5225000D03*
X56045000Y1125000D03*
X54445000Y5225000D03*
X54445000Y1125000D03*
%TD*%
%TO.C,SW4*%
X120045000Y5225000D03*
X120045000Y1125000D03*
X118445000Y5225000D03*
X118445000Y1125000D03*
%TD*%
%TO.C,SW4*%
X56045000Y114175000D03*
X56045000Y110075000D03*
X54445000Y114175000D03*
X54445000Y110075000D03*
%TD*%
%TO.C,SW4*%
X120045000Y59700000D03*
X120045000Y55600000D03*
X118445000Y59700000D03*
X118445000Y55600000D03*
%TD*%
%TO.C,SW4*%
X56045000Y59700000D03*
X56045000Y55600000D03*
X54445000Y59700000D03*
X54445000Y55600000D03*
%TD*%
%TO.C,SW4*%
X120045000Y114175000D03*
X120045000Y110075000D03*
X118445000Y114175000D03*
X118445000Y110075000D03*
%TD*%
D33*
%TO.C,FID4*%
X62865000Y48260000D03*
%TD*%
%TO.C,FID4*%
X126865000Y102735000D03*
%TD*%
%TO.C,FID4*%
X62865000Y157210000D03*
%TD*%
%TO.C,FID4*%
X126865000Y157210000D03*
%TD*%
%TO.C,FID4*%
X126865000Y48260000D03*
%TD*%
%TO.C,FID4*%
X62865000Y102735000D03*
%TD*%
D28*
%TO.C,C45*%
X51590000Y36449000D03*
X52550000Y36449000D03*
%TD*%
%TO.C,C45*%
X115590000Y145399000D03*
X116550000Y145399000D03*
%TD*%
%TO.C,C45*%
X51590000Y145399000D03*
X52550000Y145399000D03*
%TD*%
%TO.C,C45*%
X51590000Y90924000D03*
X52550000Y90924000D03*
%TD*%
%TO.C,C45*%
X115590000Y36449000D03*
X116550000Y36449000D03*
%TD*%
%TO.C,C45*%
X115590000Y90924000D03*
X116550000Y90924000D03*
%TD*%
D34*
%TO.C,U3*%
X36683000Y11315000D03*
X36683000Y11815000D03*
X36683000Y12315000D03*
X36683000Y12815000D03*
X34183000Y12815000D03*
X34183000Y12315000D03*
X34183000Y11815000D03*
X34183000Y11315000D03*
D35*
X35433000Y12065000D03*
%TD*%
D34*
%TO.C,U3*%
X36683000Y65790000D03*
X36683000Y66290000D03*
X36683000Y66790000D03*
X36683000Y67290000D03*
X34183000Y67290000D03*
X34183000Y66790000D03*
X34183000Y66290000D03*
X34183000Y65790000D03*
D35*
X35433000Y66540000D03*
%TD*%
D34*
%TO.C,U3*%
X100683000Y65790000D03*
X100683000Y66290000D03*
X100683000Y66790000D03*
X100683000Y67290000D03*
X98183000Y67290000D03*
X98183000Y66790000D03*
X98183000Y66290000D03*
X98183000Y65790000D03*
D35*
X99433000Y66540000D03*
%TD*%
D34*
%TO.C,U3*%
X100683000Y120265000D03*
X100683000Y120765000D03*
X100683000Y121265000D03*
X100683000Y121765000D03*
X98183000Y121765000D03*
X98183000Y121265000D03*
X98183000Y120765000D03*
X98183000Y120265000D03*
D35*
X99433000Y121015000D03*
%TD*%
D34*
%TO.C,U3*%
X36683000Y120265000D03*
X36683000Y120765000D03*
X36683000Y121265000D03*
X36683000Y121765000D03*
X34183000Y121765000D03*
X34183000Y121265000D03*
X34183000Y120765000D03*
X34183000Y120265000D03*
D35*
X35433000Y121015000D03*
%TD*%
D34*
%TO.C,U3*%
X100683000Y11315000D03*
X100683000Y11815000D03*
X100683000Y12315000D03*
X100683000Y12815000D03*
X98183000Y12815000D03*
X98183000Y12315000D03*
X98183000Y11815000D03*
X98183000Y11315000D03*
D35*
X99433000Y12065000D03*
%TD*%
D18*
%TO.C,R24*%
X13845000Y40259000D03*
X12825000Y40259000D03*
%TD*%
%TO.C,R24*%
X13845000Y94734000D03*
X12825000Y94734000D03*
%TD*%
%TO.C,R24*%
X13845000Y149209000D03*
X12825000Y149209000D03*
%TD*%
%TO.C,R24*%
X77845000Y40259000D03*
X76825000Y40259000D03*
%TD*%
%TO.C,R24*%
X77845000Y94734000D03*
X76825000Y94734000D03*
%TD*%
%TO.C,R24*%
X77845000Y149209000D03*
X76825000Y149209000D03*
%TD*%
D25*
%TO.C,*%
X2000000Y165012500D03*
%TD*%
D36*
%TO.C,J12*%
X8014000Y51665000D03*
X8014000Y50665000D03*
X8014000Y49665000D03*
X8014000Y48665000D03*
D37*
X10439000Y52965000D03*
X10439000Y47365000D03*
%TD*%
D36*
%TO.C,J12*%
X72014000Y51665000D03*
X72014000Y50665000D03*
X72014000Y49665000D03*
X72014000Y48665000D03*
D37*
X74439000Y52965000D03*
X74439000Y47365000D03*
%TD*%
D36*
%TO.C,J12*%
X8014000Y160615000D03*
X8014000Y159615000D03*
X8014000Y158615000D03*
X8014000Y157615000D03*
D37*
X10439000Y161915000D03*
X10439000Y156315000D03*
%TD*%
D36*
%TO.C,J12*%
X72014000Y160615000D03*
X72014000Y159615000D03*
X72014000Y158615000D03*
X72014000Y157615000D03*
D37*
X74439000Y161915000D03*
X74439000Y156315000D03*
%TD*%
D36*
%TO.C,J12*%
X8014000Y106140000D03*
X8014000Y105140000D03*
X8014000Y104140000D03*
X8014000Y103140000D03*
D37*
X10439000Y107440000D03*
X10439000Y101840000D03*
%TD*%
D36*
%TO.C,J12*%
X72014000Y106140000D03*
X72014000Y105140000D03*
X72014000Y104140000D03*
X72014000Y103140000D03*
D37*
X74439000Y107440000D03*
X74439000Y101840000D03*
%TD*%
D10*
%TO.C,C37*%
X51308000Y34135000D03*
X51308000Y33175000D03*
%TD*%
%TO.C,C37*%
X51308000Y143085000D03*
X51308000Y142125000D03*
%TD*%
%TO.C,C37*%
X115308000Y143085000D03*
X115308000Y142125000D03*
%TD*%
%TO.C,C37*%
X51308000Y88610000D03*
X51308000Y87650000D03*
%TD*%
%TO.C,C37*%
X115308000Y34135000D03*
X115308000Y33175000D03*
%TD*%
%TO.C,C37*%
X115308000Y88610000D03*
X115308000Y87650000D03*
%TD*%
D33*
%TO.C,FID1*%
X5715000Y635000D03*
%TD*%
%TO.C,FID1*%
X69715000Y55110000D03*
%TD*%
%TO.C,FID1*%
X69715000Y109585000D03*
%TD*%
%TO.C,FID1*%
X5715000Y109585000D03*
%TD*%
%TO.C,FID1*%
X5715000Y55110000D03*
%TD*%
%TO.C,FID1*%
X69715000Y635000D03*
%TD*%
D38*
%TO.C,SW1*%
X50395000Y3175000D03*
X47395000Y3175000D03*
D39*
X51145000Y4925000D03*
X49645000Y4925000D03*
X46645000Y4925000D03*
D40*
X52545000Y2175000D03*
D41*
X52545000Y4275000D03*
X45245000Y4275000D03*
D40*
X45245000Y2175000D03*
%TD*%
D38*
%TO.C,SW1*%
X50395000Y112125000D03*
X47395000Y112125000D03*
D39*
X51145000Y113875000D03*
X49645000Y113875000D03*
X46645000Y113875000D03*
D40*
X52545000Y111125000D03*
D41*
X52545000Y113225000D03*
X45245000Y113225000D03*
D40*
X45245000Y111125000D03*
%TD*%
D38*
%TO.C,SW1*%
X114395000Y3175000D03*
X111395000Y3175000D03*
D39*
X115145000Y4925000D03*
X113645000Y4925000D03*
X110645000Y4925000D03*
D40*
X116545000Y2175000D03*
D41*
X116545000Y4275000D03*
X109245000Y4275000D03*
D40*
X109245000Y2175000D03*
%TD*%
D38*
%TO.C,SW1*%
X114395000Y57650000D03*
X111395000Y57650000D03*
D39*
X115145000Y59400000D03*
X113645000Y59400000D03*
X110645000Y59400000D03*
D40*
X116545000Y56650000D03*
D41*
X116545000Y58750000D03*
X109245000Y58750000D03*
D40*
X109245000Y56650000D03*
%TD*%
D38*
%TO.C,SW1*%
X114395000Y112125000D03*
X111395000Y112125000D03*
D39*
X115145000Y113875000D03*
X113645000Y113875000D03*
X110645000Y113875000D03*
D40*
X116545000Y111125000D03*
D41*
X116545000Y113225000D03*
X109245000Y113225000D03*
D40*
X109245000Y111125000D03*
%TD*%
D38*
%TO.C,SW1*%
X50395000Y57650000D03*
X47395000Y57650000D03*
D39*
X51145000Y59400000D03*
X49645000Y59400000D03*
X46645000Y59400000D03*
D40*
X52545000Y56650000D03*
D41*
X52545000Y58750000D03*
X45245000Y58750000D03*
D40*
X45245000Y56650000D03*
%TD*%
D22*
%TO.C,R22*%
X18415000Y16385000D03*
X18415000Y15365000D03*
%TD*%
%TO.C,R22*%
X18415000Y70860000D03*
X18415000Y69840000D03*
%TD*%
%TO.C,R22*%
X18415000Y125335000D03*
X18415000Y124315000D03*
%TD*%
%TO.C,R22*%
X82415000Y70860000D03*
X82415000Y69840000D03*
%TD*%
%TO.C,R22*%
X82415000Y16385000D03*
X82415000Y15365000D03*
%TD*%
%TO.C,R22*%
X82415000Y125335000D03*
X82415000Y124315000D03*
%TD*%
D30*
%TO.C,C23*%
X14450000Y26416000D03*
X13490000Y26416000D03*
%TD*%
%TO.C,C23*%
X78450000Y135366000D03*
X77490000Y135366000D03*
%TD*%
%TO.C,C23*%
X14450000Y80891000D03*
X13490000Y80891000D03*
%TD*%
%TO.C,C23*%
X14450000Y135366000D03*
X13490000Y135366000D03*
%TD*%
%TO.C,C23*%
X78450000Y26416000D03*
X77490000Y26416000D03*
%TD*%
%TO.C,C23*%
X78450000Y80891000D03*
X77490000Y80891000D03*
%TD*%
D18*
%TO.C,R32*%
X18290000Y22225000D03*
X17270000Y22225000D03*
%TD*%
%TO.C,R32*%
X18290000Y76700000D03*
X17270000Y76700000D03*
%TD*%
%TO.C,R32*%
X82290000Y76700000D03*
X81270000Y76700000D03*
%TD*%
%TO.C,R32*%
X18290000Y131175000D03*
X17270000Y131175000D03*
%TD*%
%TO.C,R32*%
X82290000Y22225000D03*
X81270000Y22225000D03*
%TD*%
%TO.C,R32*%
X82290000Y131175000D03*
X81270000Y131175000D03*
%TD*%
D17*
%TO.C,C18*%
X33274000Y33175000D03*
X33274000Y34135000D03*
%TD*%
%TO.C,C18*%
X97274000Y142125000D03*
X97274000Y143085000D03*
%TD*%
%TO.C,C18*%
X33274000Y87650000D03*
X33274000Y88610000D03*
%TD*%
%TO.C,C18*%
X97274000Y33175000D03*
X97274000Y34135000D03*
%TD*%
%TO.C,C18*%
X97274000Y87650000D03*
X97274000Y88610000D03*
%TD*%
%TO.C,C18*%
X33274000Y142125000D03*
X33274000Y143085000D03*
%TD*%
D30*
%TO.C,C22*%
X12164000Y26289000D03*
X11204000Y26289000D03*
%TD*%
%TO.C,C22*%
X12164000Y135239000D03*
X11204000Y135239000D03*
%TD*%
%TO.C,C22*%
X76164000Y80764000D03*
X75204000Y80764000D03*
%TD*%
%TO.C,C22*%
X76164000Y135239000D03*
X75204000Y135239000D03*
%TD*%
%TO.C,C22*%
X12164000Y80764000D03*
X11204000Y80764000D03*
%TD*%
%TO.C,C22*%
X76164000Y26289000D03*
X75204000Y26289000D03*
%TD*%
D23*
%TO.C,C36*%
X49657000Y34605000D03*
X49657000Y32705000D03*
%TD*%
%TO.C,C36*%
X49657000Y143555000D03*
X49657000Y141655000D03*
%TD*%
%TO.C,C36*%
X113657000Y143555000D03*
X113657000Y141655000D03*
%TD*%
%TO.C,C36*%
X113657000Y89080000D03*
X113657000Y87180000D03*
%TD*%
%TO.C,C36*%
X49657000Y89080000D03*
X49657000Y87180000D03*
%TD*%
%TO.C,C36*%
X113657000Y34605000D03*
X113657000Y32705000D03*
%TD*%
D22*
%TO.C,R2*%
X25781000Y19306000D03*
X25781000Y18286000D03*
%TD*%
%TO.C,R2*%
X89781000Y73781000D03*
X89781000Y72761000D03*
%TD*%
%TO.C,R2*%
X89781000Y19306000D03*
X89781000Y18286000D03*
%TD*%
%TO.C,R2*%
X25781000Y73781000D03*
X25781000Y72761000D03*
%TD*%
%TO.C,R2*%
X25781000Y128256000D03*
X25781000Y127236000D03*
%TD*%
%TO.C,R2*%
X89781000Y128256000D03*
X89781000Y127236000D03*
%TD*%
D10*
%TO.C,C19*%
X32766000Y13180000D03*
X32766000Y12220000D03*
%TD*%
%TO.C,C19*%
X96766000Y67655000D03*
X96766000Y66695000D03*
%TD*%
%TO.C,C19*%
X96766000Y122130000D03*
X96766000Y121170000D03*
%TD*%
%TO.C,C19*%
X32766000Y122130000D03*
X32766000Y121170000D03*
%TD*%
%TO.C,C19*%
X32766000Y67655000D03*
X32766000Y66695000D03*
%TD*%
%TO.C,C19*%
X96766000Y13180000D03*
X96766000Y12220000D03*
%TD*%
D18*
%TO.C,R18*%
X55590000Y19215000D03*
X54570000Y19215000D03*
%TD*%
%TO.C,R18*%
X119590000Y73690000D03*
X118570000Y73690000D03*
%TD*%
%TO.C,R18*%
X55590000Y73690000D03*
X54570000Y73690000D03*
%TD*%
%TO.C,R18*%
X119590000Y128165000D03*
X118570000Y128165000D03*
%TD*%
%TO.C,R18*%
X55590000Y128165000D03*
X54570000Y128165000D03*
%TD*%
%TO.C,R18*%
X119590000Y19215000D03*
X118570000Y19215000D03*
%TD*%
D23*
%TO.C,C38*%
X5080000Y11745000D03*
X5080000Y9845000D03*
%TD*%
%TO.C,C38*%
X5080000Y66220000D03*
X5080000Y64320000D03*
%TD*%
%TO.C,C38*%
X69080000Y66220000D03*
X69080000Y64320000D03*
%TD*%
%TO.C,C38*%
X69080000Y120695000D03*
X69080000Y118795000D03*
%TD*%
%TO.C,C38*%
X5080000Y120695000D03*
X5080000Y118795000D03*
%TD*%
%TO.C,C38*%
X69080000Y11745000D03*
X69080000Y9845000D03*
%TD*%
D11*
%TO.C,R7*%
X35939000Y10160000D03*
X36959000Y10160000D03*
%TD*%
%TO.C,R7*%
X99939000Y119110000D03*
X100959000Y119110000D03*
%TD*%
%TO.C,R7*%
X99939000Y64635000D03*
X100959000Y64635000D03*
%TD*%
%TO.C,R7*%
X35939000Y64635000D03*
X36959000Y64635000D03*
%TD*%
%TO.C,R7*%
X35939000Y119110000D03*
X36959000Y119110000D03*
%TD*%
%TO.C,R7*%
X99939000Y10160000D03*
X100959000Y10160000D03*
%TD*%
D28*
%TO.C,C26*%
X51590000Y20066000D03*
X52550000Y20066000D03*
%TD*%
%TO.C,C26*%
X51590000Y129016000D03*
X52550000Y129016000D03*
%TD*%
%TO.C,C26*%
X51590000Y74541000D03*
X52550000Y74541000D03*
%TD*%
%TO.C,C26*%
X115590000Y20066000D03*
X116550000Y20066000D03*
%TD*%
%TO.C,C26*%
X115590000Y74541000D03*
X116550000Y74541000D03*
%TD*%
%TO.C,C26*%
X115590000Y129016000D03*
X116550000Y129016000D03*
%TD*%
D24*
%TO.C,Q7*%
X49515000Y12415000D03*
X50165000Y12415000D03*
X50815000Y12415000D03*
X50815000Y14255000D03*
X50165000Y14255000D03*
X49515000Y14255000D03*
%TD*%
%TO.C,Q7*%
X113515000Y66890000D03*
X114165000Y66890000D03*
X114815000Y66890000D03*
X114815000Y68730000D03*
X114165000Y68730000D03*
X113515000Y68730000D03*
%TD*%
%TO.C,Q7*%
X49515000Y121365000D03*
X50165000Y121365000D03*
X50815000Y121365000D03*
X50815000Y123205000D03*
X50165000Y123205000D03*
X49515000Y123205000D03*
%TD*%
%TO.C,Q7*%
X49515000Y66890000D03*
X50165000Y66890000D03*
X50815000Y66890000D03*
X50815000Y68730000D03*
X50165000Y68730000D03*
X49515000Y68730000D03*
%TD*%
%TO.C,Q7*%
X113515000Y121365000D03*
X114165000Y121365000D03*
X114815000Y121365000D03*
X114815000Y123205000D03*
X114165000Y123205000D03*
X113515000Y123205000D03*
%TD*%
%TO.C,Q7*%
X113515000Y12415000D03*
X114165000Y12415000D03*
X114815000Y12415000D03*
X114815000Y14255000D03*
X114165000Y14255000D03*
X113515000Y14255000D03*
%TD*%
D18*
%TO.C,R31*%
X18290000Y17780000D03*
X17270000Y17780000D03*
%TD*%
%TO.C,R31*%
X82290000Y72255000D03*
X81270000Y72255000D03*
%TD*%
%TO.C,R31*%
X82290000Y17780000D03*
X81270000Y17780000D03*
%TD*%
%TO.C,R31*%
X18290000Y126730000D03*
X17270000Y126730000D03*
%TD*%
%TO.C,R31*%
X18290000Y72255000D03*
X17270000Y72255000D03*
%TD*%
%TO.C,R31*%
X82290000Y126730000D03*
X81270000Y126730000D03*
%TD*%
%TO.C,R25*%
X13845000Y34671000D03*
X12825000Y34671000D03*
%TD*%
%TO.C,R25*%
X13845000Y143621000D03*
X12825000Y143621000D03*
%TD*%
%TO.C,R25*%
X13845000Y89146000D03*
X12825000Y89146000D03*
%TD*%
%TO.C,R25*%
X77845000Y89146000D03*
X76825000Y89146000D03*
%TD*%
%TO.C,R25*%
X77845000Y34671000D03*
X76825000Y34671000D03*
%TD*%
%TO.C,R25*%
X77845000Y143621000D03*
X76825000Y143621000D03*
%TD*%
D17*
%TO.C,C6*%
X25654000Y29492000D03*
X25654000Y30452000D03*
%TD*%
%TO.C,C6*%
X25654000Y138442000D03*
X25654000Y139402000D03*
%TD*%
%TO.C,C6*%
X89654000Y29492000D03*
X89654000Y30452000D03*
%TD*%
%TO.C,C6*%
X89654000Y138442000D03*
X89654000Y139402000D03*
%TD*%
%TO.C,C6*%
X89654000Y83967000D03*
X89654000Y84927000D03*
%TD*%
%TO.C,C6*%
X25654000Y83967000D03*
X25654000Y84927000D03*
%TD*%
D10*
%TO.C,C9*%
X31115000Y19276000D03*
X31115000Y18316000D03*
%TD*%
%TO.C,C9*%
X31115000Y73751000D03*
X31115000Y72791000D03*
%TD*%
%TO.C,C9*%
X95115000Y128226000D03*
X95115000Y127266000D03*
%TD*%
%TO.C,C9*%
X31115000Y128226000D03*
X31115000Y127266000D03*
%TD*%
%TO.C,C9*%
X95115000Y19276000D03*
X95115000Y18316000D03*
%TD*%
%TO.C,C9*%
X95115000Y73751000D03*
X95115000Y72791000D03*
%TD*%
D18*
%TO.C,R45*%
X52580000Y29845000D03*
X51560000Y29845000D03*
%TD*%
%TO.C,R45*%
X52580000Y84320000D03*
X51560000Y84320000D03*
%TD*%
%TO.C,R45*%
X116580000Y138795000D03*
X115560000Y138795000D03*
%TD*%
%TO.C,R45*%
X116580000Y29845000D03*
X115560000Y29845000D03*
%TD*%
%TO.C,R45*%
X116580000Y84320000D03*
X115560000Y84320000D03*
%TD*%
%TO.C,R45*%
X52580000Y138795000D03*
X51560000Y138795000D03*
%TD*%
D36*
%TO.C,J13*%
X14999000Y51665000D03*
X14999000Y50665000D03*
X14999000Y49665000D03*
X14999000Y48665000D03*
D37*
X17424000Y52965000D03*
X17424000Y47365000D03*
%TD*%
D36*
%TO.C,J13*%
X78999000Y160615000D03*
X78999000Y159615000D03*
X78999000Y158615000D03*
X78999000Y157615000D03*
D37*
X81424000Y161915000D03*
X81424000Y156315000D03*
%TD*%
D36*
%TO.C,J13*%
X78999000Y51665000D03*
X78999000Y50665000D03*
X78999000Y49665000D03*
X78999000Y48665000D03*
D37*
X81424000Y52965000D03*
X81424000Y47365000D03*
%TD*%
D36*
%TO.C,J13*%
X78999000Y106140000D03*
X78999000Y105140000D03*
X78999000Y104140000D03*
X78999000Y103140000D03*
D37*
X81424000Y107440000D03*
X81424000Y101840000D03*
%TD*%
D36*
%TO.C,J13*%
X14999000Y160615000D03*
X14999000Y159615000D03*
X14999000Y158615000D03*
X14999000Y157615000D03*
D37*
X17424000Y161915000D03*
X17424000Y156315000D03*
%TD*%
D36*
%TO.C,J13*%
X14999000Y106140000D03*
X14999000Y105140000D03*
X14999000Y104140000D03*
X14999000Y103140000D03*
D37*
X17424000Y107440000D03*
X17424000Y101840000D03*
%TD*%
D18*
%TO.C,R33*%
X18290000Y20955000D03*
X17270000Y20955000D03*
%TD*%
%TO.C,R33*%
X82290000Y20955000D03*
X81270000Y20955000D03*
%TD*%
%TO.C,R33*%
X18290000Y75430000D03*
X17270000Y75430000D03*
%TD*%
%TO.C,R33*%
X18290000Y129905000D03*
X17270000Y129905000D03*
%TD*%
%TO.C,R33*%
X82290000Y75430000D03*
X81270000Y75430000D03*
%TD*%
%TO.C,R33*%
X82290000Y129905000D03*
X81270000Y129905000D03*
%TD*%
D30*
%TO.C,C11*%
X25626000Y24892000D03*
X24666000Y24892000D03*
%TD*%
%TO.C,C11*%
X25626000Y79367000D03*
X24666000Y79367000D03*
%TD*%
%TO.C,C11*%
X89626000Y133842000D03*
X88666000Y133842000D03*
%TD*%
%TO.C,C11*%
X89626000Y24892000D03*
X88666000Y24892000D03*
%TD*%
%TO.C,C11*%
X25626000Y133842000D03*
X24666000Y133842000D03*
%TD*%
%TO.C,C11*%
X89626000Y79367000D03*
X88666000Y79367000D03*
%TD*%
%TO.C,C7*%
X25626000Y25908000D03*
X24666000Y25908000D03*
%TD*%
%TO.C,C7*%
X25626000Y80383000D03*
X24666000Y80383000D03*
%TD*%
%TO.C,C7*%
X89626000Y25908000D03*
X88666000Y25908000D03*
%TD*%
%TO.C,C7*%
X25626000Y134858000D03*
X24666000Y134858000D03*
%TD*%
%TO.C,C7*%
X89626000Y134858000D03*
X88666000Y134858000D03*
%TD*%
%TO.C,C7*%
X89626000Y80383000D03*
X88666000Y80383000D03*
%TD*%
D42*
%TO.C,U2*%
X38208000Y14605000D03*
X38208000Y15875000D03*
X38208000Y17145000D03*
X38208000Y18415000D03*
X32658000Y18415000D03*
X32658000Y17145000D03*
X32658000Y15875000D03*
X32658000Y14605000D03*
D43*
X35433000Y16510000D03*
%TD*%
D42*
%TO.C,U2*%
X38208000Y123555000D03*
X38208000Y124825000D03*
X38208000Y126095000D03*
X38208000Y127365000D03*
X32658000Y127365000D03*
X32658000Y126095000D03*
X32658000Y124825000D03*
X32658000Y123555000D03*
D43*
X35433000Y125460000D03*
%TD*%
D42*
%TO.C,U2*%
X102208000Y69080000D03*
X102208000Y70350000D03*
X102208000Y71620000D03*
X102208000Y72890000D03*
X96658000Y72890000D03*
X96658000Y71620000D03*
X96658000Y70350000D03*
X96658000Y69080000D03*
D43*
X99433000Y70985000D03*
%TD*%
D42*
%TO.C,U2*%
X102208000Y14605000D03*
X102208000Y15875000D03*
X102208000Y17145000D03*
X102208000Y18415000D03*
X96658000Y18415000D03*
X96658000Y17145000D03*
X96658000Y15875000D03*
X96658000Y14605000D03*
D43*
X99433000Y16510000D03*
%TD*%
D42*
%TO.C,U2*%
X38208000Y69080000D03*
X38208000Y70350000D03*
X38208000Y71620000D03*
X38208000Y72890000D03*
X32658000Y72890000D03*
X32658000Y71620000D03*
X32658000Y70350000D03*
X32658000Y69080000D03*
D43*
X35433000Y70985000D03*
%TD*%
D42*
%TO.C,U2*%
X102208000Y123555000D03*
X102208000Y124825000D03*
X102208000Y126095000D03*
X102208000Y127365000D03*
X96658000Y127365000D03*
X96658000Y126095000D03*
X96658000Y124825000D03*
X96658000Y123555000D03*
D43*
X99433000Y125460000D03*
%TD*%
D28*
%TO.C,C3*%
X37874000Y27178000D03*
X38834000Y27178000D03*
%TD*%
%TO.C,C3*%
X101874000Y27178000D03*
X102834000Y27178000D03*
%TD*%
%TO.C,C3*%
X101874000Y81653000D03*
X102834000Y81653000D03*
%TD*%
%TO.C,C3*%
X37874000Y136128000D03*
X38834000Y136128000D03*
%TD*%
%TO.C,C3*%
X101874000Y136128000D03*
X102834000Y136128000D03*
%TD*%
%TO.C,C3*%
X37874000Y81653000D03*
X38834000Y81653000D03*
%TD*%
D44*
%TO.C,D2*%
X26035000Y1117500D03*
X26035000Y2692500D03*
%TD*%
%TO.C,D2*%
X90035000Y110067500D03*
X90035000Y111642500D03*
%TD*%
%TO.C,D2*%
X90035000Y55592500D03*
X90035000Y57167500D03*
%TD*%
%TO.C,D2*%
X26035000Y110067500D03*
X26035000Y111642500D03*
%TD*%
%TO.C,D2*%
X90035000Y1117500D03*
X90035000Y2692500D03*
%TD*%
%TO.C,D2*%
X26035000Y55592500D03*
X26035000Y57167500D03*
%TD*%
D45*
%TO.C,J14*%
X48501000Y48665000D03*
X48501000Y49665000D03*
X48501000Y50665000D03*
X48501000Y51665000D03*
D46*
X46076000Y47365000D03*
X46076000Y52965000D03*
%TD*%
D45*
%TO.C,J14*%
X48501000Y103140000D03*
X48501000Y104140000D03*
X48501000Y105140000D03*
X48501000Y106140000D03*
D46*
X46076000Y101840000D03*
X46076000Y107440000D03*
%TD*%
D45*
%TO.C,J14*%
X112501000Y48665000D03*
X112501000Y49665000D03*
X112501000Y50665000D03*
X112501000Y51665000D03*
D46*
X110076000Y47365000D03*
X110076000Y52965000D03*
%TD*%
D45*
%TO.C,J14*%
X48501000Y157615000D03*
X48501000Y158615000D03*
X48501000Y159615000D03*
X48501000Y160615000D03*
D46*
X46076000Y156315000D03*
X46076000Y161915000D03*
%TD*%
D45*
%TO.C,J14*%
X112501000Y157615000D03*
X112501000Y158615000D03*
X112501000Y159615000D03*
X112501000Y160615000D03*
D46*
X110076000Y156315000D03*
X110076000Y161915000D03*
%TD*%
D45*
%TO.C,J14*%
X112501000Y103140000D03*
X112501000Y104140000D03*
X112501000Y105140000D03*
X112501000Y106140000D03*
D46*
X110076000Y101840000D03*
X110076000Y107440000D03*
%TD*%
D18*
%TO.C,R19*%
X55590000Y17945000D03*
X54570000Y17945000D03*
%TD*%
%TO.C,R19*%
X119590000Y72420000D03*
X118570000Y72420000D03*
%TD*%
%TO.C,R19*%
X119590000Y17945000D03*
X118570000Y17945000D03*
%TD*%
%TO.C,R19*%
X55590000Y72420000D03*
X54570000Y72420000D03*
%TD*%
%TO.C,R19*%
X55590000Y126895000D03*
X54570000Y126895000D03*
%TD*%
%TO.C,R19*%
X119590000Y126895000D03*
X118570000Y126895000D03*
%TD*%
D47*
%TO.C,J6*%
X22860000Y3175000D03*
X22860000Y5715000D03*
X22860000Y8255000D03*
X22860000Y10795000D03*
X22860000Y13335000D03*
X22860000Y15875000D03*
X22860000Y18415000D03*
X22860000Y20955000D03*
X22860000Y23495000D03*
X22860000Y26035000D03*
X22860000Y28575000D03*
X22860000Y31115000D03*
X22860000Y33655000D03*
X22860000Y36195000D03*
X22860000Y38735000D03*
X22860000Y41275000D03*
X22860000Y43815000D03*
X22860000Y46355000D03*
X22860000Y48895000D03*
X22860000Y51435000D03*
%TD*%
%TO.C,J6*%
X22860000Y112125000D03*
X22860000Y114665000D03*
X22860000Y117205000D03*
X22860000Y119745000D03*
X22860000Y122285000D03*
X22860000Y124825000D03*
X22860000Y127365000D03*
X22860000Y129905000D03*
X22860000Y132445000D03*
X22860000Y134985000D03*
X22860000Y137525000D03*
X22860000Y140065000D03*
X22860000Y142605000D03*
X22860000Y145145000D03*
X22860000Y147685000D03*
X22860000Y150225000D03*
X22860000Y152765000D03*
X22860000Y155305000D03*
X22860000Y157845000D03*
X22860000Y160385000D03*
%TD*%
%TO.C,J6*%
X86860000Y112125000D03*
X86860000Y114665000D03*
X86860000Y117205000D03*
X86860000Y119745000D03*
X86860000Y122285000D03*
X86860000Y124825000D03*
X86860000Y127365000D03*
X86860000Y129905000D03*
X86860000Y132445000D03*
X86860000Y134985000D03*
X86860000Y137525000D03*
X86860000Y140065000D03*
X86860000Y142605000D03*
X86860000Y145145000D03*
X86860000Y147685000D03*
X86860000Y150225000D03*
X86860000Y152765000D03*
X86860000Y155305000D03*
X86860000Y157845000D03*
X86860000Y160385000D03*
%TD*%
%TO.C,J6*%
X86860000Y3175000D03*
X86860000Y5715000D03*
X86860000Y8255000D03*
X86860000Y10795000D03*
X86860000Y13335000D03*
X86860000Y15875000D03*
X86860000Y18415000D03*
X86860000Y20955000D03*
X86860000Y23495000D03*
X86860000Y26035000D03*
X86860000Y28575000D03*
X86860000Y31115000D03*
X86860000Y33655000D03*
X86860000Y36195000D03*
X86860000Y38735000D03*
X86860000Y41275000D03*
X86860000Y43815000D03*
X86860000Y46355000D03*
X86860000Y48895000D03*
X86860000Y51435000D03*
%TD*%
%TO.C,J6*%
X22860000Y57650000D03*
X22860000Y60190000D03*
X22860000Y62730000D03*
X22860000Y65270000D03*
X22860000Y67810000D03*
X22860000Y70350000D03*
X22860000Y72890000D03*
X22860000Y75430000D03*
X22860000Y77970000D03*
X22860000Y80510000D03*
X22860000Y83050000D03*
X22860000Y85590000D03*
X22860000Y88130000D03*
X22860000Y90670000D03*
X22860000Y93210000D03*
X22860000Y95750000D03*
X22860000Y98290000D03*
X22860000Y100830000D03*
X22860000Y103370000D03*
X22860000Y105910000D03*
%TD*%
%TO.C,J6*%
X86860000Y57650000D03*
X86860000Y60190000D03*
X86860000Y62730000D03*
X86860000Y65270000D03*
X86860000Y67810000D03*
X86860000Y70350000D03*
X86860000Y72890000D03*
X86860000Y75430000D03*
X86860000Y77970000D03*
X86860000Y80510000D03*
X86860000Y83050000D03*
X86860000Y85590000D03*
X86860000Y88130000D03*
X86860000Y90670000D03*
X86860000Y93210000D03*
X86860000Y95750000D03*
X86860000Y98290000D03*
X86860000Y100830000D03*
X86860000Y103370000D03*
X86860000Y105910000D03*
%TD*%
%TO.C,J9*%
X62230000Y18415000D03*
X62230000Y20955000D03*
X62230000Y23495000D03*
%TD*%
%TO.C,J9*%
X62230000Y127365000D03*
X62230000Y129905000D03*
X62230000Y132445000D03*
%TD*%
%TO.C,J9*%
X62230000Y72890000D03*
X62230000Y75430000D03*
X62230000Y77970000D03*
%TD*%
%TO.C,J9*%
X126230000Y127365000D03*
X126230000Y129905000D03*
X126230000Y132445000D03*
%TD*%
%TO.C,J9*%
X126230000Y18415000D03*
X126230000Y20955000D03*
X126230000Y23495000D03*
%TD*%
%TO.C,J9*%
X126230000Y72890000D03*
X126230000Y75430000D03*
X126230000Y77970000D03*
%TD*%
D31*
%TO.C,C32*%
X15875000Y36515000D03*
X15875000Y38415000D03*
%TD*%
%TO.C,C32*%
X79875000Y36515000D03*
X79875000Y38415000D03*
%TD*%
%TO.C,C32*%
X15875000Y145465000D03*
X15875000Y147365000D03*
%TD*%
%TO.C,C32*%
X15875000Y90990000D03*
X15875000Y92890000D03*
%TD*%
%TO.C,C32*%
X79875000Y90990000D03*
X79875000Y92890000D03*
%TD*%
%TO.C,C32*%
X79875000Y145465000D03*
X79875000Y147365000D03*
%TD*%
D28*
%TO.C,C27*%
X51590000Y25654000D03*
X52550000Y25654000D03*
%TD*%
%TO.C,C27*%
X115590000Y134604000D03*
X116550000Y134604000D03*
%TD*%
%TO.C,C27*%
X51590000Y80129000D03*
X52550000Y80129000D03*
%TD*%
%TO.C,C27*%
X51590000Y134604000D03*
X52550000Y134604000D03*
%TD*%
%TO.C,C27*%
X115590000Y80129000D03*
X116550000Y80129000D03*
%TD*%
%TO.C,C27*%
X115590000Y25654000D03*
X116550000Y25654000D03*
%TD*%
D11*
%TO.C,R46*%
X51560000Y19050000D03*
X52580000Y19050000D03*
%TD*%
%TO.C,R46*%
X115560000Y19050000D03*
X116580000Y19050000D03*
%TD*%
%TO.C,R46*%
X51560000Y73525000D03*
X52580000Y73525000D03*
%TD*%
%TO.C,R46*%
X51560000Y128000000D03*
X52580000Y128000000D03*
%TD*%
%TO.C,R46*%
X115560000Y73525000D03*
X116580000Y73525000D03*
%TD*%
%TO.C,R46*%
X115560000Y128000000D03*
X116580000Y128000000D03*
%TD*%
D44*
%TO.C,D3*%
X37465000Y1117500D03*
X37465000Y2692500D03*
%TD*%
%TO.C,D3*%
X37465000Y55592500D03*
X37465000Y57167500D03*
%TD*%
%TO.C,D3*%
X37465000Y110067500D03*
X37465000Y111642500D03*
%TD*%
%TO.C,D3*%
X101465000Y110067500D03*
X101465000Y111642500D03*
%TD*%
%TO.C,D3*%
X101465000Y1117500D03*
X101465000Y2692500D03*
%TD*%
%TO.C,D3*%
X101465000Y55592500D03*
X101465000Y57167500D03*
%TD*%
D11*
%TO.C,R40*%
X25906000Y36195000D03*
X26926000Y36195000D03*
%TD*%
%TO.C,R40*%
X25906000Y145145000D03*
X26926000Y145145000D03*
%TD*%
%TO.C,R40*%
X25906000Y90670000D03*
X26926000Y90670000D03*
%TD*%
%TO.C,R40*%
X89906000Y36195000D03*
X90926000Y36195000D03*
%TD*%
%TO.C,R40*%
X89906000Y145145000D03*
X90926000Y145145000D03*
%TD*%
%TO.C,R40*%
X89906000Y90670000D03*
X90926000Y90670000D03*
%TD*%
D32*
%TO.C,SW2*%
X56045000Y16655000D03*
X56045000Y12555000D03*
X54445000Y16655000D03*
X54445000Y12555000D03*
%TD*%
%TO.C,SW2*%
X120045000Y16655000D03*
X120045000Y12555000D03*
X118445000Y16655000D03*
X118445000Y12555000D03*
%TD*%
%TO.C,SW2*%
X56045000Y71130000D03*
X56045000Y67030000D03*
X54445000Y71130000D03*
X54445000Y67030000D03*
%TD*%
%TO.C,SW2*%
X120045000Y125605000D03*
X120045000Y121505000D03*
X118445000Y125605000D03*
X118445000Y121505000D03*
%TD*%
%TO.C,SW2*%
X120045000Y71130000D03*
X120045000Y67030000D03*
X118445000Y71130000D03*
X118445000Y67030000D03*
%TD*%
%TO.C,SW2*%
X56045000Y125605000D03*
X56045000Y121505000D03*
X54445000Y125605000D03*
X54445000Y121505000D03*
%TD*%
D11*
%TO.C,R17*%
X47750000Y43815000D03*
X48770000Y43815000D03*
%TD*%
%TO.C,R17*%
X111750000Y43815000D03*
X112770000Y43815000D03*
%TD*%
%TO.C,R17*%
X47750000Y98290000D03*
X48770000Y98290000D03*
%TD*%
%TO.C,R17*%
X47750000Y152765000D03*
X48770000Y152765000D03*
%TD*%
%TO.C,R17*%
X111750000Y152765000D03*
X112770000Y152765000D03*
%TD*%
%TO.C,R17*%
X111750000Y98290000D03*
X112770000Y98290000D03*
%TD*%
D27*
%TO.C,ST3*%
X60960000Y51435000D03*
%TD*%
%TO.C,ST3*%
X60960000Y105910000D03*
%TD*%
%TO.C,ST3*%
X60960000Y160385000D03*
%TD*%
%TO.C,ST3*%
X124960000Y105910000D03*
%TD*%
%TO.C,ST3*%
X124960000Y51435000D03*
%TD*%
%TO.C,ST3*%
X124960000Y160385000D03*
%TD*%
D28*
%TO.C,C2*%
X37874000Y23368000D03*
X38834000Y23368000D03*
%TD*%
%TO.C,C2*%
X37874000Y77843000D03*
X38834000Y77843000D03*
%TD*%
%TO.C,C2*%
X101874000Y23368000D03*
X102834000Y23368000D03*
%TD*%
%TO.C,C2*%
X101874000Y132318000D03*
X102834000Y132318000D03*
%TD*%
%TO.C,C2*%
X101874000Y77843000D03*
X102834000Y77843000D03*
%TD*%
%TO.C,C2*%
X37874000Y132318000D03*
X38834000Y132318000D03*
%TD*%
D22*
%TO.C,R4*%
X31115000Y15115000D03*
X31115000Y14095000D03*
%TD*%
%TO.C,R4*%
X31115000Y124065000D03*
X31115000Y123045000D03*
%TD*%
%TO.C,R4*%
X95115000Y15115000D03*
X95115000Y14095000D03*
%TD*%
%TO.C,R4*%
X31115000Y69590000D03*
X31115000Y68570000D03*
%TD*%
%TO.C,R4*%
X95115000Y69590000D03*
X95115000Y68570000D03*
%TD*%
%TO.C,R4*%
X95115000Y124065000D03*
X95115000Y123045000D03*
%TD*%
D47*
%TO.C,J3*%
X30480000Y33655000D03*
X27940000Y33655000D03*
X25400000Y33655000D03*
%TD*%
%TO.C,J3*%
X30480000Y88130000D03*
X27940000Y88130000D03*
X25400000Y88130000D03*
%TD*%
%TO.C,J3*%
X94480000Y33655000D03*
X91940000Y33655000D03*
X89400000Y33655000D03*
%TD*%
%TO.C,J3*%
X30480000Y142605000D03*
X27940000Y142605000D03*
X25400000Y142605000D03*
%TD*%
%TO.C,J3*%
X94480000Y88130000D03*
X91940000Y88130000D03*
X89400000Y88130000D03*
%TD*%
%TO.C,J3*%
X94480000Y142605000D03*
X91940000Y142605000D03*
X89400000Y142605000D03*
%TD*%
D11*
%TO.C,R43*%
X10920000Y41275000D03*
X11940000Y41275000D03*
%TD*%
%TO.C,R43*%
X10920000Y150225000D03*
X11940000Y150225000D03*
%TD*%
%TO.C,R43*%
X74920000Y41275000D03*
X75940000Y41275000D03*
%TD*%
%TO.C,R43*%
X74920000Y95750000D03*
X75940000Y95750000D03*
%TD*%
%TO.C,R43*%
X10920000Y95750000D03*
X11940000Y95750000D03*
%TD*%
%TO.C,R43*%
X74920000Y150225000D03*
X75940000Y150225000D03*
%TD*%
%TO.C,R27*%
X49655000Y36449000D03*
X50675000Y36449000D03*
%TD*%
%TO.C,R27*%
X49655000Y90924000D03*
X50675000Y90924000D03*
%TD*%
%TO.C,R27*%
X113655000Y145399000D03*
X114675000Y145399000D03*
%TD*%
%TO.C,R27*%
X113655000Y36449000D03*
X114675000Y36449000D03*
%TD*%
%TO.C,R27*%
X49655000Y145399000D03*
X50675000Y145399000D03*
%TD*%
%TO.C,R27*%
X113655000Y90924000D03*
X114675000Y90924000D03*
%TD*%
D18*
%TO.C,R9*%
X14480000Y24384000D03*
X13460000Y24384000D03*
%TD*%
%TO.C,R9*%
X14480000Y78859000D03*
X13460000Y78859000D03*
%TD*%
%TO.C,R9*%
X14480000Y133334000D03*
X13460000Y133334000D03*
%TD*%
%TO.C,R9*%
X78480000Y24384000D03*
X77460000Y24384000D03*
%TD*%
%TO.C,R9*%
X78480000Y78859000D03*
X77460000Y78859000D03*
%TD*%
%TO.C,R9*%
X78480000Y133334000D03*
X77460000Y133334000D03*
%TD*%
D48*
%TO.C,J2*%
X28860000Y6556000D03*
X34640000Y6556000D03*
D49*
X30500000Y7661000D03*
X31500000Y7661000D03*
D50*
X32000000Y7661000D03*
X33000000Y7661000D03*
X33500000Y7661000D03*
X32500000Y7661000D03*
D49*
X31000000Y7661000D03*
X30000000Y7661000D03*
D51*
X28525000Y7661000D03*
D52*
X34975000Y7661000D03*
D53*
X27432000Y2906000D03*
D54*
X27432000Y7086000D03*
X36068000Y7086000D03*
D53*
X36068000Y2906000D03*
D51*
X29300000Y7661000D03*
D52*
X34200000Y7661000D03*
%TD*%
D48*
%TO.C,J2*%
X92860000Y61031000D03*
X98640000Y61031000D03*
D49*
X94500000Y62136000D03*
X95500000Y62136000D03*
D50*
X96000000Y62136000D03*
X97000000Y62136000D03*
X97500000Y62136000D03*
X96500000Y62136000D03*
D49*
X95000000Y62136000D03*
X94000000Y62136000D03*
D51*
X92525000Y62136000D03*
D52*
X98975000Y62136000D03*
D53*
X91432000Y57381000D03*
D54*
X91432000Y61561000D03*
X100068000Y61561000D03*
D53*
X100068000Y57381000D03*
D51*
X93300000Y62136000D03*
D52*
X98200000Y62136000D03*
%TD*%
D48*
%TO.C,J2*%
X28860000Y61031000D03*
X34640000Y61031000D03*
D49*
X30500000Y62136000D03*
X31500000Y62136000D03*
D50*
X32000000Y62136000D03*
X33000000Y62136000D03*
X33500000Y62136000D03*
X32500000Y62136000D03*
D49*
X31000000Y62136000D03*
X30000000Y62136000D03*
D51*
X28525000Y62136000D03*
D52*
X34975000Y62136000D03*
D53*
X27432000Y57381000D03*
D54*
X27432000Y61561000D03*
X36068000Y61561000D03*
D53*
X36068000Y57381000D03*
D51*
X29300000Y62136000D03*
D52*
X34200000Y62136000D03*
%TD*%
D48*
%TO.C,J2*%
X28860000Y115506000D03*
X34640000Y115506000D03*
D49*
X30500000Y116611000D03*
X31500000Y116611000D03*
D50*
X32000000Y116611000D03*
X33000000Y116611000D03*
X33500000Y116611000D03*
X32500000Y116611000D03*
D49*
X31000000Y116611000D03*
X30000000Y116611000D03*
D51*
X28525000Y116611000D03*
D52*
X34975000Y116611000D03*
D53*
X27432000Y111856000D03*
D54*
X27432000Y116036000D03*
X36068000Y116036000D03*
D53*
X36068000Y111856000D03*
D51*
X29300000Y116611000D03*
D52*
X34200000Y116611000D03*
%TD*%
D48*
%TO.C,J2*%
X92860000Y6556000D03*
X98640000Y6556000D03*
D49*
X94500000Y7661000D03*
X95500000Y7661000D03*
D50*
X96000000Y7661000D03*
X97000000Y7661000D03*
X97500000Y7661000D03*
X96500000Y7661000D03*
D49*
X95000000Y7661000D03*
X94000000Y7661000D03*
D51*
X92525000Y7661000D03*
D52*
X98975000Y7661000D03*
D53*
X91432000Y2906000D03*
D54*
X91432000Y7086000D03*
X100068000Y7086000D03*
D53*
X100068000Y2906000D03*
D51*
X93300000Y7661000D03*
D52*
X98200000Y7661000D03*
%TD*%
D48*
%TO.C,J2*%
X92860000Y115506000D03*
X98640000Y115506000D03*
D49*
X94500000Y116611000D03*
X95500000Y116611000D03*
D50*
X96000000Y116611000D03*
X97000000Y116611000D03*
X97500000Y116611000D03*
X96500000Y116611000D03*
D49*
X95000000Y116611000D03*
X94000000Y116611000D03*
D51*
X92525000Y116611000D03*
D52*
X98975000Y116611000D03*
D53*
X91432000Y111856000D03*
D54*
X91432000Y116036000D03*
X100068000Y116036000D03*
D53*
X100068000Y111856000D03*
D51*
X93300000Y116611000D03*
D52*
X98200000Y116611000D03*
%TD*%
D11*
%TO.C,R8*%
X13460000Y25400000D03*
X14480000Y25400000D03*
%TD*%
%TO.C,R8*%
X13460000Y79875000D03*
X14480000Y79875000D03*
%TD*%
%TO.C,R8*%
X77460000Y25400000D03*
X78480000Y25400000D03*
%TD*%
%TO.C,R8*%
X77460000Y79875000D03*
X78480000Y79875000D03*
%TD*%
%TO.C,R8*%
X77460000Y134350000D03*
X78480000Y134350000D03*
%TD*%
%TO.C,R8*%
X13460000Y134350000D03*
X14480000Y134350000D03*
%TD*%
D30*
%TO.C,C16*%
X29232800Y18415000D03*
X28272800Y18415000D03*
%TD*%
%TO.C,C16*%
X29232800Y72890000D03*
X28272800Y72890000D03*
%TD*%
%TO.C,C16*%
X93232800Y72890000D03*
X92272800Y72890000D03*
%TD*%
%TO.C,C16*%
X29232800Y127365000D03*
X28272800Y127365000D03*
%TD*%
%TO.C,C16*%
X93232800Y127365000D03*
X92272800Y127365000D03*
%TD*%
%TO.C,C16*%
X93232800Y18415000D03*
X92272800Y18415000D03*
%TD*%
D17*
%TO.C,C30*%
X49530000Y22380000D03*
X49530000Y23340000D03*
%TD*%
%TO.C,C30*%
X49530000Y76855000D03*
X49530000Y77815000D03*
%TD*%
%TO.C,C30*%
X49530000Y131330000D03*
X49530000Y132290000D03*
%TD*%
%TO.C,C30*%
X113530000Y76855000D03*
X113530000Y77815000D03*
%TD*%
%TO.C,C30*%
X113530000Y22380000D03*
X113530000Y23340000D03*
%TD*%
%TO.C,C30*%
X113530000Y131330000D03*
X113530000Y132290000D03*
%TD*%
D22*
%TO.C,R34*%
X46355000Y16385000D03*
X46355000Y15365000D03*
%TD*%
%TO.C,R34*%
X110355000Y16385000D03*
X110355000Y15365000D03*
%TD*%
%TO.C,R34*%
X46355000Y70860000D03*
X46355000Y69840000D03*
%TD*%
%TO.C,R34*%
X110355000Y70860000D03*
X110355000Y69840000D03*
%TD*%
%TO.C,R34*%
X110355000Y125335000D03*
X110355000Y124315000D03*
%TD*%
%TO.C,R34*%
X46355000Y125335000D03*
X46355000Y124315000D03*
%TD*%
D23*
%TO.C,C25*%
X18034000Y26096000D03*
X18034000Y24196000D03*
%TD*%
%TO.C,C25*%
X18034000Y135046000D03*
X18034000Y133146000D03*
%TD*%
%TO.C,C25*%
X18034000Y80571000D03*
X18034000Y78671000D03*
%TD*%
%TO.C,C25*%
X82034000Y26096000D03*
X82034000Y24196000D03*
%TD*%
%TO.C,C25*%
X82034000Y135046000D03*
X82034000Y133146000D03*
%TD*%
%TO.C,C25*%
X82034000Y80571000D03*
X82034000Y78671000D03*
%TD*%
D11*
%TO.C,R38*%
X8634000Y21717000D03*
X9654000Y21717000D03*
%TD*%
%TO.C,R38*%
X72634000Y130667000D03*
X73654000Y130667000D03*
%TD*%
%TO.C,R38*%
X8634000Y76192000D03*
X9654000Y76192000D03*
%TD*%
%TO.C,R38*%
X72634000Y21717000D03*
X73654000Y21717000D03*
%TD*%
%TO.C,R38*%
X8634000Y130667000D03*
X9654000Y130667000D03*
%TD*%
%TO.C,R38*%
X72634000Y76192000D03*
X73654000Y76192000D03*
%TD*%
D30*
%TO.C,C8*%
X25626000Y21209000D03*
X24666000Y21209000D03*
%TD*%
%TO.C,C8*%
X25626000Y75684000D03*
X24666000Y75684000D03*
%TD*%
%TO.C,C8*%
X25626000Y130159000D03*
X24666000Y130159000D03*
%TD*%
%TO.C,C8*%
X89626000Y21209000D03*
X88666000Y21209000D03*
%TD*%
%TO.C,C8*%
X89626000Y75684000D03*
X88666000Y75684000D03*
%TD*%
%TO.C,C8*%
X89626000Y130159000D03*
X88666000Y130159000D03*
%TD*%
D23*
%TO.C,C40*%
X58420000Y11745000D03*
X58420000Y9845000D03*
%TD*%
%TO.C,C40*%
X122420000Y120695000D03*
X122420000Y118795000D03*
%TD*%
%TO.C,C40*%
X58420000Y66220000D03*
X58420000Y64320000D03*
%TD*%
%TO.C,C40*%
X58420000Y120695000D03*
X58420000Y118795000D03*
%TD*%
%TO.C,C40*%
X122420000Y11745000D03*
X122420000Y9845000D03*
%TD*%
%TO.C,C40*%
X122420000Y66220000D03*
X122420000Y64320000D03*
%TD*%
D55*
%TO.C,L2*%
X11830000Y30480000D03*
X17380000Y30480000D03*
%TD*%
%TO.C,L2*%
X75830000Y30480000D03*
X81380000Y30480000D03*
%TD*%
%TO.C,L2*%
X75830000Y84955000D03*
X81380000Y84955000D03*
%TD*%
%TO.C,L2*%
X11830000Y139430000D03*
X17380000Y139430000D03*
%TD*%
%TO.C,L2*%
X75830000Y139430000D03*
X81380000Y139430000D03*
%TD*%
%TO.C,L2*%
X11830000Y84955000D03*
X17380000Y84955000D03*
%TD*%
D36*
%TO.C,J16*%
X3810000Y43775000D03*
X3810000Y42775000D03*
X3810000Y41775000D03*
X3810000Y40775000D03*
X3810000Y39775000D03*
X3810000Y38775000D03*
D56*
X1585000Y45075000D03*
X1585000Y37475000D03*
%TD*%
D36*
%TO.C,J16*%
X3810000Y98250000D03*
X3810000Y97250000D03*
X3810000Y96250000D03*
X3810000Y95250000D03*
X3810000Y94250000D03*
X3810000Y93250000D03*
D56*
X1585000Y99550000D03*
X1585000Y91950000D03*
%TD*%
D36*
%TO.C,J16*%
X3810000Y152725000D03*
X3810000Y151725000D03*
X3810000Y150725000D03*
X3810000Y149725000D03*
X3810000Y148725000D03*
X3810000Y147725000D03*
D56*
X1585000Y154025000D03*
X1585000Y146425000D03*
%TD*%
D36*
%TO.C,J16*%
X67810000Y43775000D03*
X67810000Y42775000D03*
X67810000Y41775000D03*
X67810000Y40775000D03*
X67810000Y39775000D03*
X67810000Y38775000D03*
D56*
X65585000Y45075000D03*
X65585000Y37475000D03*
%TD*%
D36*
%TO.C,J16*%
X67810000Y98250000D03*
X67810000Y97250000D03*
X67810000Y96250000D03*
X67810000Y95250000D03*
X67810000Y94250000D03*
X67810000Y93250000D03*
D56*
X65585000Y99550000D03*
X65585000Y91950000D03*
%TD*%
D36*
%TO.C,J16*%
X67810000Y152725000D03*
X67810000Y151725000D03*
X67810000Y150725000D03*
X67810000Y149725000D03*
X67810000Y148725000D03*
X67810000Y147725000D03*
D56*
X65585000Y154025000D03*
X65585000Y146425000D03*
%TD*%
D17*
%TO.C,C34*%
X12192000Y36985000D03*
X12192000Y37945000D03*
%TD*%
%TO.C,C34*%
X76192000Y145935000D03*
X76192000Y146895000D03*
%TD*%
%TO.C,C34*%
X76192000Y36985000D03*
X76192000Y37945000D03*
%TD*%
%TO.C,C34*%
X76192000Y91460000D03*
X76192000Y92420000D03*
%TD*%
%TO.C,C34*%
X12192000Y91460000D03*
X12192000Y92420000D03*
%TD*%
%TO.C,C34*%
X12192000Y145935000D03*
X12192000Y146895000D03*
%TD*%
D22*
%TO.C,R37*%
X50800000Y16385000D03*
X50800000Y15365000D03*
%TD*%
%TO.C,R37*%
X114800000Y16385000D03*
X114800000Y15365000D03*
%TD*%
%TO.C,R37*%
X50800000Y70860000D03*
X50800000Y69840000D03*
%TD*%
%TO.C,R37*%
X114800000Y70860000D03*
X114800000Y69840000D03*
%TD*%
%TO.C,R37*%
X50800000Y125335000D03*
X50800000Y124315000D03*
%TD*%
%TO.C,R37*%
X114800000Y125335000D03*
X114800000Y124315000D03*
%TD*%
D57*
%TO.C,U8*%
X55475000Y32905000D03*
X55475000Y33405000D03*
X55475000Y33905000D03*
X55475000Y34405000D03*
D58*
X54725000Y35155000D03*
X54225000Y35155000D03*
X53725000Y35155000D03*
X53225000Y35155000D03*
D59*
X52475000Y34405000D03*
X52475000Y33905000D03*
X52475000Y33405000D03*
X52475000Y32905000D03*
D60*
X53210000Y32155000D03*
X53725000Y32155000D03*
X54225000Y32155000D03*
X54725000Y32155000D03*
D61*
X53975000Y33655000D03*
%TD*%
D57*
%TO.C,U8*%
X119475000Y32905000D03*
X119475000Y33405000D03*
X119475000Y33905000D03*
X119475000Y34405000D03*
D58*
X118725000Y35155000D03*
X118225000Y35155000D03*
X117725000Y35155000D03*
X117225000Y35155000D03*
D59*
X116475000Y34405000D03*
X116475000Y33905000D03*
X116475000Y33405000D03*
X116475000Y32905000D03*
D60*
X117210000Y32155000D03*
X117725000Y32155000D03*
X118225000Y32155000D03*
X118725000Y32155000D03*
D61*
X117975000Y33655000D03*
%TD*%
D57*
%TO.C,U8*%
X55475000Y87380000D03*
X55475000Y87880000D03*
X55475000Y88380000D03*
X55475000Y88880000D03*
D58*
X54725000Y89630000D03*
X54225000Y89630000D03*
X53725000Y89630000D03*
X53225000Y89630000D03*
D59*
X52475000Y88880000D03*
X52475000Y88380000D03*
X52475000Y87880000D03*
X52475000Y87380000D03*
D60*
X53210000Y86630000D03*
X53725000Y86630000D03*
X54225000Y86630000D03*
X54725000Y86630000D03*
D61*
X53975000Y88130000D03*
%TD*%
D57*
%TO.C,U8*%
X55475000Y141855000D03*
X55475000Y142355000D03*
X55475000Y142855000D03*
X55475000Y143355000D03*
D58*
X54725000Y144105000D03*
X54225000Y144105000D03*
X53725000Y144105000D03*
X53225000Y144105000D03*
D59*
X52475000Y143355000D03*
X52475000Y142855000D03*
X52475000Y142355000D03*
X52475000Y141855000D03*
D60*
X53210000Y141105000D03*
X53725000Y141105000D03*
X54225000Y141105000D03*
X54725000Y141105000D03*
D61*
X53975000Y142605000D03*
%TD*%
D57*
%TO.C,U8*%
X119475000Y87380000D03*
X119475000Y87880000D03*
X119475000Y88380000D03*
X119475000Y88880000D03*
D58*
X118725000Y89630000D03*
X118225000Y89630000D03*
X117725000Y89630000D03*
X117225000Y89630000D03*
D59*
X116475000Y88880000D03*
X116475000Y88380000D03*
X116475000Y87880000D03*
X116475000Y87380000D03*
D60*
X117210000Y86630000D03*
X117725000Y86630000D03*
X118225000Y86630000D03*
X118725000Y86630000D03*
D61*
X117975000Y88130000D03*
%TD*%
D57*
%TO.C,U8*%
X119475000Y141855000D03*
X119475000Y142355000D03*
X119475000Y142855000D03*
X119475000Y143355000D03*
D58*
X118725000Y144105000D03*
X118225000Y144105000D03*
X117725000Y144105000D03*
X117225000Y144105000D03*
D59*
X116475000Y143355000D03*
X116475000Y142855000D03*
X116475000Y142355000D03*
X116475000Y141855000D03*
D60*
X117210000Y141105000D03*
X117725000Y141105000D03*
X118225000Y141105000D03*
X118725000Y141105000D03*
D61*
X117975000Y142605000D03*
%TD*%
D47*
%TO.C,J11*%
X62230000Y8255000D03*
X62230000Y10795000D03*
X62230000Y13335000D03*
%TD*%
%TO.C,J11*%
X126230000Y117205000D03*
X126230000Y119745000D03*
X126230000Y122285000D03*
%TD*%
%TO.C,J11*%
X62230000Y62730000D03*
X62230000Y65270000D03*
X62230000Y67810000D03*
%TD*%
%TO.C,J11*%
X126230000Y8255000D03*
X126230000Y10795000D03*
X126230000Y13335000D03*
%TD*%
%TO.C,J11*%
X126230000Y62730000D03*
X126230000Y65270000D03*
X126230000Y67810000D03*
%TD*%
%TO.C,J11*%
X62230000Y117205000D03*
X62230000Y119745000D03*
X62230000Y122285000D03*
%TD*%
D62*
%TO.C,F2*%
X28070000Y11430000D03*
X25270000Y11430000D03*
%TD*%
%TO.C,F2*%
X92070000Y11430000D03*
X89270000Y11430000D03*
%TD*%
%TO.C,F2*%
X92070000Y120380000D03*
X89270000Y120380000D03*
%TD*%
%TO.C,F2*%
X92070000Y65905000D03*
X89270000Y65905000D03*
%TD*%
%TO.C,F2*%
X28070000Y120380000D03*
X25270000Y120380000D03*
%TD*%
%TO.C,F2*%
X28070000Y65905000D03*
X25270000Y65905000D03*
%TD*%
D23*
%TO.C,C35*%
X47625000Y34605000D03*
X47625000Y32705000D03*
%TD*%
%TO.C,C35*%
X111625000Y34605000D03*
X111625000Y32705000D03*
%TD*%
%TO.C,C35*%
X47625000Y143555000D03*
X47625000Y141655000D03*
%TD*%
%TO.C,C35*%
X47625000Y89080000D03*
X47625000Y87180000D03*
%TD*%
%TO.C,C35*%
X111625000Y89080000D03*
X111625000Y87180000D03*
%TD*%
%TO.C,C35*%
X111625000Y143555000D03*
X111625000Y141655000D03*
%TD*%
D12*
%TO.C,Q1*%
X14320000Y19065000D03*
X14320000Y18415000D03*
X14320000Y17765000D03*
X16160000Y17765000D03*
X16160000Y18415000D03*
X16160000Y19065000D03*
%TD*%
%TO.C,Q1*%
X14320000Y128015000D03*
X14320000Y127365000D03*
X14320000Y126715000D03*
X16160000Y126715000D03*
X16160000Y127365000D03*
X16160000Y128015000D03*
%TD*%
%TO.C,Q1*%
X14320000Y73540000D03*
X14320000Y72890000D03*
X14320000Y72240000D03*
X16160000Y72240000D03*
X16160000Y72890000D03*
X16160000Y73540000D03*
%TD*%
%TO.C,Q1*%
X78320000Y19065000D03*
X78320000Y18415000D03*
X78320000Y17765000D03*
X80160000Y17765000D03*
X80160000Y18415000D03*
X80160000Y19065000D03*
%TD*%
%TO.C,Q1*%
X78320000Y73540000D03*
X78320000Y72890000D03*
X78320000Y72240000D03*
X80160000Y72240000D03*
X80160000Y72890000D03*
X80160000Y73540000D03*
%TD*%
%TO.C,Q1*%
X78320000Y128015000D03*
X78320000Y127365000D03*
X78320000Y126715000D03*
X80160000Y126715000D03*
X80160000Y127365000D03*
X80160000Y128015000D03*
%TD*%
D11*
%TO.C,R13*%
X46480000Y25400000D03*
X47500000Y25400000D03*
%TD*%
%TO.C,R13*%
X46480000Y79875000D03*
X47500000Y79875000D03*
%TD*%
%TO.C,R13*%
X110480000Y25400000D03*
X111500000Y25400000D03*
%TD*%
%TO.C,R13*%
X110480000Y134350000D03*
X111500000Y134350000D03*
%TD*%
%TO.C,R13*%
X110480000Y79875000D03*
X111500000Y79875000D03*
%TD*%
%TO.C,R13*%
X46480000Y134350000D03*
X47500000Y134350000D03*
%TD*%
D63*
%TO.C,D4*%
X7975000Y43730000D03*
X7975000Y42630000D03*
X9805000Y42630000D03*
X9805000Y43730000D03*
%TD*%
%TO.C,D4*%
X7975000Y152680000D03*
X7975000Y151580000D03*
X9805000Y151580000D03*
X9805000Y152680000D03*
%TD*%
%TO.C,D4*%
X71975000Y98205000D03*
X71975000Y97105000D03*
X73805000Y97105000D03*
X73805000Y98205000D03*
%TD*%
%TO.C,D4*%
X71975000Y43730000D03*
X71975000Y42630000D03*
X73805000Y42630000D03*
X73805000Y43730000D03*
%TD*%
%TO.C,D4*%
X7975000Y98205000D03*
X7975000Y97105000D03*
X9805000Y97105000D03*
X9805000Y98205000D03*
%TD*%
%TO.C,D4*%
X71975000Y152680000D03*
X71975000Y151580000D03*
X73805000Y151580000D03*
X73805000Y152680000D03*
%TD*%
D45*
%TO.C,J15*%
X55486000Y48665000D03*
X55486000Y49665000D03*
X55486000Y50665000D03*
X55486000Y51665000D03*
D46*
X53061000Y47365000D03*
X53061000Y52965000D03*
%TD*%
D45*
%TO.C,J15*%
X119486000Y48665000D03*
X119486000Y49665000D03*
X119486000Y50665000D03*
X119486000Y51665000D03*
D46*
X117061000Y47365000D03*
X117061000Y52965000D03*
%TD*%
D45*
%TO.C,J15*%
X119486000Y157615000D03*
X119486000Y158615000D03*
X119486000Y159615000D03*
X119486000Y160615000D03*
D46*
X117061000Y156315000D03*
X117061000Y161915000D03*
%TD*%
D45*
%TO.C,J15*%
X55486000Y103140000D03*
X55486000Y104140000D03*
X55486000Y105140000D03*
X55486000Y106140000D03*
D46*
X53061000Y101840000D03*
X53061000Y107440000D03*
%TD*%
D45*
%TO.C,J15*%
X55486000Y157615000D03*
X55486000Y158615000D03*
X55486000Y159615000D03*
X55486000Y160615000D03*
D46*
X53061000Y156315000D03*
X53061000Y161915000D03*
%TD*%
D45*
%TO.C,J15*%
X119486000Y103140000D03*
X119486000Y104140000D03*
X119486000Y105140000D03*
X119486000Y106140000D03*
D46*
X117061000Y101840000D03*
X117061000Y107440000D03*
%TD*%
D47*
%TO.C,J4*%
X43180000Y3175000D03*
X43180000Y5715000D03*
X43180000Y8255000D03*
X43180000Y10795000D03*
X43180000Y13335000D03*
X43180000Y15875000D03*
X43180000Y18415000D03*
X43180000Y20955000D03*
X43180000Y23495000D03*
X43180000Y26035000D03*
X43180000Y28575000D03*
X43180000Y31115000D03*
X43180000Y33655000D03*
X43180000Y36195000D03*
X43180000Y38735000D03*
X43180000Y41275000D03*
X43180000Y43815000D03*
X43180000Y46355000D03*
X43180000Y48895000D03*
X43180000Y51435000D03*
%TD*%
%TO.C,J4*%
X107180000Y112125000D03*
X107180000Y114665000D03*
X107180000Y117205000D03*
X107180000Y119745000D03*
X107180000Y122285000D03*
X107180000Y124825000D03*
X107180000Y127365000D03*
X107180000Y129905000D03*
X107180000Y132445000D03*
X107180000Y134985000D03*
X107180000Y137525000D03*
X107180000Y140065000D03*
X107180000Y142605000D03*
X107180000Y145145000D03*
X107180000Y147685000D03*
X107180000Y150225000D03*
X107180000Y152765000D03*
X107180000Y155305000D03*
X107180000Y157845000D03*
X107180000Y160385000D03*
%TD*%
%TO.C,J4*%
X43180000Y57650000D03*
X43180000Y60190000D03*
X43180000Y62730000D03*
X43180000Y65270000D03*
X43180000Y67810000D03*
X43180000Y70350000D03*
X43180000Y72890000D03*
X43180000Y75430000D03*
X43180000Y77970000D03*
X43180000Y80510000D03*
X43180000Y83050000D03*
X43180000Y85590000D03*
X43180000Y88130000D03*
X43180000Y90670000D03*
X43180000Y93210000D03*
X43180000Y95750000D03*
X43180000Y98290000D03*
X43180000Y100830000D03*
X43180000Y103370000D03*
X43180000Y105910000D03*
%TD*%
%TO.C,J4*%
X43180000Y112125000D03*
X43180000Y114665000D03*
X43180000Y117205000D03*
X43180000Y119745000D03*
X43180000Y122285000D03*
X43180000Y124825000D03*
X43180000Y127365000D03*
X43180000Y129905000D03*
X43180000Y132445000D03*
X43180000Y134985000D03*
X43180000Y137525000D03*
X43180000Y140065000D03*
X43180000Y142605000D03*
X43180000Y145145000D03*
X43180000Y147685000D03*
X43180000Y150225000D03*
X43180000Y152765000D03*
X43180000Y155305000D03*
X43180000Y157845000D03*
X43180000Y160385000D03*
%TD*%
%TO.C,J4*%
X107180000Y57650000D03*
X107180000Y60190000D03*
X107180000Y62730000D03*
X107180000Y65270000D03*
X107180000Y67810000D03*
X107180000Y70350000D03*
X107180000Y72890000D03*
X107180000Y75430000D03*
X107180000Y77970000D03*
X107180000Y80510000D03*
X107180000Y83050000D03*
X107180000Y85590000D03*
X107180000Y88130000D03*
X107180000Y90670000D03*
X107180000Y93210000D03*
X107180000Y95750000D03*
X107180000Y98290000D03*
X107180000Y100830000D03*
X107180000Y103370000D03*
X107180000Y105910000D03*
%TD*%
%TO.C,J4*%
X107180000Y3175000D03*
X107180000Y5715000D03*
X107180000Y8255000D03*
X107180000Y10795000D03*
X107180000Y13335000D03*
X107180000Y15875000D03*
X107180000Y18415000D03*
X107180000Y20955000D03*
X107180000Y23495000D03*
X107180000Y26035000D03*
X107180000Y28575000D03*
X107180000Y31115000D03*
X107180000Y33655000D03*
X107180000Y36195000D03*
X107180000Y38735000D03*
X107180000Y41275000D03*
X107180000Y43815000D03*
X107180000Y46355000D03*
X107180000Y48895000D03*
X107180000Y51435000D03*
%TD*%
D30*
%TO.C,C13*%
X25626000Y22225000D03*
X24666000Y22225000D03*
%TD*%
%TO.C,C13*%
X89626000Y76700000D03*
X88666000Y76700000D03*
%TD*%
%TO.C,C13*%
X25626000Y76700000D03*
X24666000Y76700000D03*
%TD*%
%TO.C,C13*%
X25626000Y131175000D03*
X24666000Y131175000D03*
%TD*%
%TO.C,C13*%
X89626000Y22225000D03*
X88666000Y22225000D03*
%TD*%
%TO.C,C13*%
X89626000Y131175000D03*
X88666000Y131175000D03*
%TD*%
D28*
%TO.C,C1*%
X37874000Y20320000D03*
X38834000Y20320000D03*
%TD*%
%TO.C,C1*%
X101874000Y74795000D03*
X102834000Y74795000D03*
%TD*%
%TO.C,C1*%
X37874000Y129270000D03*
X38834000Y129270000D03*
%TD*%
%TO.C,C1*%
X101874000Y20320000D03*
X102834000Y20320000D03*
%TD*%
%TO.C,C1*%
X101874000Y129270000D03*
X102834000Y129270000D03*
%TD*%
%TO.C,C1*%
X37874000Y74795000D03*
X38834000Y74795000D03*
%TD*%
D18*
%TO.C,R41*%
X29212000Y36195000D03*
X28192000Y36195000D03*
%TD*%
%TO.C,R41*%
X29212000Y90670000D03*
X28192000Y90670000D03*
%TD*%
%TO.C,R41*%
X93212000Y36195000D03*
X92192000Y36195000D03*
%TD*%
%TO.C,R41*%
X93212000Y90670000D03*
X92192000Y90670000D03*
%TD*%
%TO.C,R41*%
X29212000Y145145000D03*
X28192000Y145145000D03*
%TD*%
%TO.C,R41*%
X93212000Y145145000D03*
X92192000Y145145000D03*
%TD*%
D64*
%TO.C,L3*%
X34658000Y36068000D03*
X36208000Y36068000D03*
%TD*%
%TO.C,L3*%
X98658000Y90543000D03*
X100208000Y90543000D03*
%TD*%
%TO.C,L3*%
X34658000Y90543000D03*
X36208000Y90543000D03*
%TD*%
%TO.C,L3*%
X34658000Y145018000D03*
X36208000Y145018000D03*
%TD*%
%TO.C,L3*%
X98658000Y36068000D03*
X100208000Y36068000D03*
%TD*%
%TO.C,L3*%
X98658000Y145018000D03*
X100208000Y145018000D03*
%TD*%
D25*
%TO.C,*%
X125500000Y165012500D03*
%TD*%
D45*
%TO.C,J18*%
X59690000Y38775000D03*
X59690000Y39775000D03*
X59690000Y40775000D03*
X59690000Y41775000D03*
X59690000Y42775000D03*
X59690000Y43775000D03*
D65*
X61915000Y37475000D03*
X61915000Y45075000D03*
%TD*%
D45*
%TO.C,J18*%
X59690000Y147725000D03*
X59690000Y148725000D03*
X59690000Y149725000D03*
X59690000Y150725000D03*
X59690000Y151725000D03*
X59690000Y152725000D03*
D65*
X61915000Y146425000D03*
X61915000Y154025000D03*
%TD*%
D45*
%TO.C,J18*%
X123690000Y93250000D03*
X123690000Y94250000D03*
X123690000Y95250000D03*
X123690000Y96250000D03*
X123690000Y97250000D03*
X123690000Y98250000D03*
D65*
X125915000Y91950000D03*
X125915000Y99550000D03*
%TD*%
D45*
%TO.C,J18*%
X59690000Y93250000D03*
X59690000Y94250000D03*
X59690000Y95250000D03*
X59690000Y96250000D03*
X59690000Y97250000D03*
X59690000Y98250000D03*
D65*
X61915000Y91950000D03*
X61915000Y99550000D03*
%TD*%
D45*
%TO.C,J18*%
X123690000Y147725000D03*
X123690000Y148725000D03*
X123690000Y149725000D03*
X123690000Y150725000D03*
X123690000Y151725000D03*
X123690000Y152725000D03*
D65*
X125915000Y146425000D03*
X125915000Y154025000D03*
%TD*%
D45*
%TO.C,J18*%
X123690000Y38775000D03*
X123690000Y39775000D03*
X123690000Y40775000D03*
X123690000Y41775000D03*
X123690000Y42775000D03*
X123690000Y43775000D03*
D65*
X125915000Y37475000D03*
X125915000Y45075000D03*
%TD*%
D66*
%TO.C,F1*%
X8255000Y15392400D03*
X8255000Y20167600D03*
%TD*%
%TO.C,F1*%
X8255000Y124342400D03*
X8255000Y129117600D03*
%TD*%
%TO.C,F1*%
X72255000Y69867400D03*
X72255000Y74642600D03*
%TD*%
%TO.C,F1*%
X72255000Y124342400D03*
X72255000Y129117600D03*
%TD*%
%TO.C,F1*%
X8255000Y69867400D03*
X8255000Y74642600D03*
%TD*%
%TO.C,F1*%
X72255000Y15392400D03*
X72255000Y20167600D03*
%TD*%
D11*
%TO.C,R16*%
X45210000Y43815000D03*
X46230000Y43815000D03*
%TD*%
%TO.C,R16*%
X45210000Y152765000D03*
X46230000Y152765000D03*
%TD*%
%TO.C,R16*%
X109210000Y43815000D03*
X110230000Y43815000D03*
%TD*%
%TO.C,R16*%
X45210000Y98290000D03*
X46230000Y98290000D03*
%TD*%
%TO.C,R16*%
X109210000Y98290000D03*
X110230000Y98290000D03*
%TD*%
%TO.C,R16*%
X109210000Y152765000D03*
X110230000Y152765000D03*
%TD*%
D26*
%TO.C,Q2*%
X13065000Y17465000D03*
X13065000Y19365000D03*
X10965000Y18415000D03*
%TD*%
%TO.C,Q2*%
X13065000Y71940000D03*
X13065000Y73840000D03*
X10965000Y72890000D03*
%TD*%
%TO.C,Q2*%
X77065000Y126415000D03*
X77065000Y128315000D03*
X74965000Y127365000D03*
%TD*%
%TO.C,Q2*%
X13065000Y126415000D03*
X13065000Y128315000D03*
X10965000Y127365000D03*
%TD*%
%TO.C,Q2*%
X77065000Y17465000D03*
X77065000Y19365000D03*
X74965000Y18415000D03*
%TD*%
%TO.C,Q2*%
X77065000Y71940000D03*
X77065000Y73840000D03*
X74965000Y72890000D03*
%TD*%
D47*
%TO.C,J8*%
X1270000Y18415000D03*
X1270000Y20955000D03*
X1270000Y23495000D03*
%TD*%
%TO.C,J8*%
X65270000Y72890000D03*
X65270000Y75430000D03*
X65270000Y77970000D03*
%TD*%
%TO.C,J8*%
X1270000Y72890000D03*
X1270000Y75430000D03*
X1270000Y77970000D03*
%TD*%
%TO.C,J8*%
X65270000Y127365000D03*
X65270000Y129905000D03*
X65270000Y132445000D03*
%TD*%
%TO.C,J8*%
X65270000Y18415000D03*
X65270000Y20955000D03*
X65270000Y23495000D03*
%TD*%
%TO.C,J8*%
X1270000Y127365000D03*
X1270000Y129905000D03*
X1270000Y132445000D03*
%TD*%
D18*
%TO.C,R15*%
X15750000Y43815000D03*
X14730000Y43815000D03*
%TD*%
%TO.C,R15*%
X15750000Y152765000D03*
X14730000Y152765000D03*
%TD*%
%TO.C,R15*%
X79750000Y98290000D03*
X78730000Y98290000D03*
%TD*%
%TO.C,R15*%
X79750000Y152765000D03*
X78730000Y152765000D03*
%TD*%
%TO.C,R15*%
X15750000Y98290000D03*
X14730000Y98290000D03*
%TD*%
%TO.C,R15*%
X79750000Y43815000D03*
X78730000Y43815000D03*
%TD*%
D67*
%TO.C,Y1*%
X36283000Y34305000D03*
X34583000Y34305000D03*
X34583000Y33005000D03*
X36283000Y33005000D03*
%TD*%
%TO.C,Y1*%
X100283000Y34305000D03*
X98583000Y34305000D03*
X98583000Y33005000D03*
X100283000Y33005000D03*
%TD*%
%TO.C,Y1*%
X100283000Y88780000D03*
X98583000Y88780000D03*
X98583000Y87480000D03*
X100283000Y87480000D03*
%TD*%
%TO.C,Y1*%
X36283000Y143255000D03*
X34583000Y143255000D03*
X34583000Y141955000D03*
X36283000Y141955000D03*
%TD*%
%TO.C,Y1*%
X36283000Y88780000D03*
X34583000Y88780000D03*
X34583000Y87480000D03*
X36283000Y87480000D03*
%TD*%
%TO.C,Y1*%
X100283000Y143255000D03*
X98583000Y143255000D03*
X98583000Y141955000D03*
X100283000Y141955000D03*
%TD*%
D68*
%TO.C,R29*%
X26035000Y5840000D03*
X26035000Y6860000D03*
%TD*%
%TO.C,R29*%
X90035000Y60315000D03*
X90035000Y61335000D03*
%TD*%
%TO.C,R29*%
X90035000Y114790000D03*
X90035000Y115810000D03*
%TD*%
%TO.C,R29*%
X26035000Y60315000D03*
X26035000Y61335000D03*
%TD*%
%TO.C,R29*%
X90035000Y5840000D03*
X90035000Y6860000D03*
%TD*%
%TO.C,R29*%
X26035000Y114790000D03*
X26035000Y115810000D03*
%TD*%
%TO.C,R11*%
X26035000Y3935000D03*
X26035000Y4955000D03*
%TD*%
%TO.C,R11*%
X26035000Y58410000D03*
X26035000Y59430000D03*
%TD*%
%TO.C,R11*%
X26035000Y112885000D03*
X26035000Y113905000D03*
%TD*%
%TO.C,R11*%
X90035000Y3935000D03*
X90035000Y4955000D03*
%TD*%
%TO.C,R11*%
X90035000Y112885000D03*
X90035000Y113905000D03*
%TD*%
%TO.C,R11*%
X90035000Y58410000D03*
X90035000Y59430000D03*
%TD*%
D45*
%TO.C,J19*%
X59690000Y27345000D03*
X59690000Y28345000D03*
X59690000Y29345000D03*
X59690000Y30345000D03*
X59690000Y31345000D03*
X59690000Y32345000D03*
D65*
X61915000Y26045000D03*
X61915000Y33645000D03*
%TD*%
D45*
%TO.C,J19*%
X123690000Y81820000D03*
X123690000Y82820000D03*
X123690000Y83820000D03*
X123690000Y84820000D03*
X123690000Y85820000D03*
X123690000Y86820000D03*
D65*
X125915000Y80520000D03*
X125915000Y88120000D03*
%TD*%
D45*
%TO.C,J19*%
X59690000Y136295000D03*
X59690000Y137295000D03*
X59690000Y138295000D03*
X59690000Y139295000D03*
X59690000Y140295000D03*
X59690000Y141295000D03*
D65*
X61915000Y134995000D03*
X61915000Y142595000D03*
%TD*%
D45*
%TO.C,J19*%
X59690000Y81820000D03*
X59690000Y82820000D03*
X59690000Y83820000D03*
X59690000Y84820000D03*
X59690000Y85820000D03*
X59690000Y86820000D03*
D65*
X61915000Y80520000D03*
X61915000Y88120000D03*
%TD*%
D45*
%TO.C,J19*%
X123690000Y27345000D03*
X123690000Y28345000D03*
X123690000Y29345000D03*
X123690000Y30345000D03*
X123690000Y31345000D03*
X123690000Y32345000D03*
D65*
X125915000Y26045000D03*
X125915000Y33645000D03*
%TD*%
D45*
%TO.C,J19*%
X123690000Y136295000D03*
X123690000Y137295000D03*
X123690000Y138295000D03*
X123690000Y139295000D03*
X123690000Y140295000D03*
X123690000Y141295000D03*
D65*
X125915000Y134995000D03*
X125915000Y142595000D03*
%TD*%
D68*
%TO.C,R21*%
X52070000Y6475000D03*
X52070000Y7495000D03*
%TD*%
%TO.C,R21*%
X116070000Y6475000D03*
X116070000Y7495000D03*
%TD*%
%TO.C,R21*%
X116070000Y115425000D03*
X116070000Y116445000D03*
%TD*%
%TO.C,R21*%
X52070000Y60950000D03*
X52070000Y61970000D03*
%TD*%
%TO.C,R21*%
X52070000Y115425000D03*
X52070000Y116445000D03*
%TD*%
%TO.C,R21*%
X116070000Y60950000D03*
X116070000Y61970000D03*
%TD*%
D18*
%TO.C,R14*%
X18290000Y43815000D03*
X17270000Y43815000D03*
%TD*%
%TO.C,R14*%
X18290000Y152765000D03*
X17270000Y152765000D03*
%TD*%
%TO.C,R14*%
X82290000Y43815000D03*
X81270000Y43815000D03*
%TD*%
%TO.C,R14*%
X82290000Y98290000D03*
X81270000Y98290000D03*
%TD*%
%TO.C,R14*%
X82290000Y152765000D03*
X81270000Y152765000D03*
%TD*%
%TO.C,R14*%
X18290000Y98290000D03*
X17270000Y98290000D03*
%TD*%
D68*
%TO.C,R23*%
X17145000Y15365000D03*
X17145000Y16385000D03*
%TD*%
%TO.C,R23*%
X81145000Y69840000D03*
X81145000Y70860000D03*
%TD*%
%TO.C,R23*%
X81145000Y15365000D03*
X81145000Y16385000D03*
%TD*%
%TO.C,R23*%
X17145000Y69840000D03*
X17145000Y70860000D03*
%TD*%
%TO.C,R23*%
X17145000Y124315000D03*
X17145000Y125335000D03*
%TD*%
%TO.C,R23*%
X81145000Y124315000D03*
X81145000Y125335000D03*
%TD*%
D69*
%TO.C,D1*%
X53822500Y42545000D03*
X55397500Y42545000D03*
%TD*%
%TO.C,D1*%
X117822500Y42545000D03*
X119397500Y42545000D03*
%TD*%
%TO.C,D1*%
X53822500Y97020000D03*
X55397500Y97020000D03*
%TD*%
%TO.C,D1*%
X53822500Y151495000D03*
X55397500Y151495000D03*
%TD*%
%TO.C,D1*%
X117822500Y97020000D03*
X119397500Y97020000D03*
%TD*%
%TO.C,D1*%
X117822500Y151495000D03*
X119397500Y151495000D03*
%TD*%
D36*
%TO.C,J17*%
X3810000Y32345000D03*
X3810000Y31345000D03*
X3810000Y30345000D03*
X3810000Y29345000D03*
X3810000Y28345000D03*
X3810000Y27345000D03*
D56*
X1585000Y33645000D03*
X1585000Y26045000D03*
%TD*%
D36*
%TO.C,J17*%
X67810000Y32345000D03*
X67810000Y31345000D03*
X67810000Y30345000D03*
X67810000Y29345000D03*
X67810000Y28345000D03*
X67810000Y27345000D03*
D56*
X65585000Y33645000D03*
X65585000Y26045000D03*
%TD*%
D36*
%TO.C,J17*%
X3810000Y86820000D03*
X3810000Y85820000D03*
X3810000Y84820000D03*
X3810000Y83820000D03*
X3810000Y82820000D03*
X3810000Y81820000D03*
D56*
X1585000Y88120000D03*
X1585000Y80520000D03*
%TD*%
D36*
%TO.C,J17*%
X3810000Y141295000D03*
X3810000Y140295000D03*
X3810000Y139295000D03*
X3810000Y138295000D03*
X3810000Y137295000D03*
X3810000Y136295000D03*
D56*
X1585000Y142595000D03*
X1585000Y134995000D03*
%TD*%
D36*
%TO.C,J17*%
X67810000Y141295000D03*
X67810000Y140295000D03*
X67810000Y139295000D03*
X67810000Y138295000D03*
X67810000Y137295000D03*
X67810000Y136295000D03*
D56*
X65585000Y142595000D03*
X65585000Y134995000D03*
%TD*%
D36*
%TO.C,J17*%
X67810000Y86820000D03*
X67810000Y85820000D03*
X67810000Y84820000D03*
X67810000Y83820000D03*
X67810000Y82820000D03*
X67810000Y81820000D03*
D56*
X65585000Y88120000D03*
X65585000Y80520000D03*
%TD*%
D32*
%TO.C,SW3*%
X56045000Y10940000D03*
X56045000Y6840000D03*
X54445000Y10940000D03*
X54445000Y6840000D03*
%TD*%
%TO.C,SW3*%
X120045000Y119890000D03*
X120045000Y115790000D03*
X118445000Y119890000D03*
X118445000Y115790000D03*
%TD*%
%TO.C,SW3*%
X56045000Y119890000D03*
X56045000Y115790000D03*
X54445000Y119890000D03*
X54445000Y115790000D03*
%TD*%
%TO.C,SW3*%
X120045000Y10940000D03*
X120045000Y6840000D03*
X118445000Y10940000D03*
X118445000Y6840000D03*
%TD*%
%TO.C,SW3*%
X56045000Y65415000D03*
X56045000Y61315000D03*
X54445000Y65415000D03*
X54445000Y61315000D03*
%TD*%
%TO.C,SW3*%
X120045000Y65415000D03*
X120045000Y61315000D03*
X118445000Y65415000D03*
X118445000Y61315000D03*
%TD*%
D10*
%TO.C,C28*%
X11430000Y43660000D03*
X11430000Y42700000D03*
%TD*%
%TO.C,C28*%
X11430000Y152610000D03*
X11430000Y151650000D03*
%TD*%
%TO.C,C28*%
X75430000Y43660000D03*
X75430000Y42700000D03*
%TD*%
%TO.C,C28*%
X11430000Y98135000D03*
X11430000Y97175000D03*
%TD*%
%TO.C,C28*%
X75430000Y152610000D03*
X75430000Y151650000D03*
%TD*%
%TO.C,C28*%
X75430000Y98135000D03*
X75430000Y97175000D03*
%TD*%
D28*
%TO.C,C44*%
X51590000Y30861000D03*
X52550000Y30861000D03*
%TD*%
%TO.C,C44*%
X51590000Y85336000D03*
X52550000Y85336000D03*
%TD*%
%TO.C,C44*%
X51590000Y139811000D03*
X52550000Y139811000D03*
%TD*%
%TO.C,C44*%
X115590000Y30861000D03*
X116550000Y30861000D03*
%TD*%
%TO.C,C44*%
X115590000Y85336000D03*
X116550000Y85336000D03*
%TD*%
%TO.C,C44*%
X115590000Y139811000D03*
X116550000Y139811000D03*
%TD*%
D18*
%TO.C,R30*%
X18290000Y19050000D03*
X17270000Y19050000D03*
%TD*%
%TO.C,R30*%
X18290000Y73525000D03*
X17270000Y73525000D03*
%TD*%
%TO.C,R30*%
X18290000Y128000000D03*
X17270000Y128000000D03*
%TD*%
%TO.C,R30*%
X82290000Y19050000D03*
X81270000Y19050000D03*
%TD*%
%TO.C,R30*%
X82290000Y128000000D03*
X81270000Y128000000D03*
%TD*%
%TO.C,R30*%
X82290000Y73525000D03*
X81270000Y73525000D03*
%TD*%
D23*
%TO.C,C39*%
X5080000Y21905000D03*
X5080000Y20005000D03*
%TD*%
%TO.C,C39*%
X5080000Y130855000D03*
X5080000Y128955000D03*
%TD*%
%TO.C,C39*%
X5080000Y76380000D03*
X5080000Y74480000D03*
%TD*%
%TO.C,C39*%
X69080000Y130855000D03*
X69080000Y128955000D03*
%TD*%
%TO.C,C39*%
X69080000Y76380000D03*
X69080000Y74480000D03*
%TD*%
%TO.C,C39*%
X69080000Y21905000D03*
X69080000Y20005000D03*
%TD*%
D47*
%TO.C,J10*%
X1270000Y8255000D03*
X1270000Y10795000D03*
X1270000Y13335000D03*
%TD*%
%TO.C,J10*%
X65270000Y117205000D03*
X65270000Y119745000D03*
X65270000Y122285000D03*
%TD*%
%TO.C,J10*%
X65270000Y8255000D03*
X65270000Y10795000D03*
X65270000Y13335000D03*
%TD*%
%TO.C,J10*%
X1270000Y117205000D03*
X1270000Y119745000D03*
X1270000Y122285000D03*
%TD*%
%TO.C,J10*%
X65270000Y62730000D03*
X65270000Y65270000D03*
X65270000Y67810000D03*
%TD*%
%TO.C,J10*%
X1270000Y62730000D03*
X1270000Y65270000D03*
X1270000Y67810000D03*
%TD*%
D68*
%TO.C,R28*%
X37465000Y5840000D03*
X37465000Y6860000D03*
%TD*%
%TO.C,R28*%
X37465000Y114790000D03*
X37465000Y115810000D03*
%TD*%
%TO.C,R28*%
X37465000Y60315000D03*
X37465000Y61335000D03*
%TD*%
%TO.C,R28*%
X101465000Y5840000D03*
X101465000Y6860000D03*
%TD*%
%TO.C,R28*%
X101465000Y114790000D03*
X101465000Y115810000D03*
%TD*%
%TO.C,R28*%
X101465000Y60315000D03*
X101465000Y61335000D03*
%TD*%
D30*
%TO.C,C42*%
X11910000Y40259000D03*
X10950000Y40259000D03*
%TD*%
%TO.C,C42*%
X11910000Y94734000D03*
X10950000Y94734000D03*
%TD*%
%TO.C,C42*%
X75910000Y94734000D03*
X74950000Y94734000D03*
%TD*%
%TO.C,C42*%
X11910000Y149209000D03*
X10950000Y149209000D03*
%TD*%
%TO.C,C42*%
X75910000Y40259000D03*
X74950000Y40259000D03*
%TD*%
%TO.C,C42*%
X75910000Y149209000D03*
X74950000Y149209000D03*
%TD*%
D28*
%TO.C,C20*%
X33937000Y10160000D03*
X34897000Y10160000D03*
%TD*%
%TO.C,C20*%
X97937000Y64635000D03*
X98897000Y64635000D03*
%TD*%
%TO.C,C20*%
X33937000Y64635000D03*
X34897000Y64635000D03*
%TD*%
%TO.C,C20*%
X97937000Y119110000D03*
X98897000Y119110000D03*
%TD*%
%TO.C,C20*%
X33937000Y119110000D03*
X34897000Y119110000D03*
%TD*%
%TO.C,C20*%
X97937000Y10160000D03*
X98897000Y10160000D03*
%TD*%
D47*
%TO.C,J5*%
X40640000Y3175000D03*
X40640000Y5715000D03*
X40640000Y8255000D03*
X40640000Y10795000D03*
X40640000Y13335000D03*
X40640000Y15875000D03*
X40640000Y18415000D03*
X40640000Y20955000D03*
X40640000Y23495000D03*
X40640000Y26035000D03*
X40640000Y28575000D03*
X40640000Y31115000D03*
X40640000Y33655000D03*
X40640000Y36195000D03*
X40640000Y38735000D03*
X40640000Y41275000D03*
X40640000Y43815000D03*
X40640000Y46355000D03*
X40640000Y48895000D03*
X40640000Y51435000D03*
%TD*%
%TO.C,J5*%
X40640000Y57650000D03*
X40640000Y60190000D03*
X40640000Y62730000D03*
X40640000Y65270000D03*
X40640000Y67810000D03*
X40640000Y70350000D03*
X40640000Y72890000D03*
X40640000Y75430000D03*
X40640000Y77970000D03*
X40640000Y80510000D03*
X40640000Y83050000D03*
X40640000Y85590000D03*
X40640000Y88130000D03*
X40640000Y90670000D03*
X40640000Y93210000D03*
X40640000Y95750000D03*
X40640000Y98290000D03*
X40640000Y100830000D03*
X40640000Y103370000D03*
X40640000Y105910000D03*
%TD*%
%TO.C,J5*%
X104640000Y57650000D03*
X104640000Y60190000D03*
X104640000Y62730000D03*
X104640000Y65270000D03*
X104640000Y67810000D03*
X104640000Y70350000D03*
X104640000Y72890000D03*
X104640000Y75430000D03*
X104640000Y77970000D03*
X104640000Y80510000D03*
X104640000Y83050000D03*
X104640000Y85590000D03*
X104640000Y88130000D03*
X104640000Y90670000D03*
X104640000Y93210000D03*
X104640000Y95750000D03*
X104640000Y98290000D03*
X104640000Y100830000D03*
X104640000Y103370000D03*
X104640000Y105910000D03*
%TD*%
%TO.C,J5*%
X104640000Y3175000D03*
X104640000Y5715000D03*
X104640000Y8255000D03*
X104640000Y10795000D03*
X104640000Y13335000D03*
X104640000Y15875000D03*
X104640000Y18415000D03*
X104640000Y20955000D03*
X104640000Y23495000D03*
X104640000Y26035000D03*
X104640000Y28575000D03*
X104640000Y31115000D03*
X104640000Y33655000D03*
X104640000Y36195000D03*
X104640000Y38735000D03*
X104640000Y41275000D03*
X104640000Y43815000D03*
X104640000Y46355000D03*
X104640000Y48895000D03*
X104640000Y51435000D03*
%TD*%
%TO.C,J5*%
X40640000Y112125000D03*
X40640000Y114665000D03*
X40640000Y117205000D03*
X40640000Y119745000D03*
X40640000Y122285000D03*
X40640000Y124825000D03*
X40640000Y127365000D03*
X40640000Y129905000D03*
X40640000Y132445000D03*
X40640000Y134985000D03*
X40640000Y137525000D03*
X40640000Y140065000D03*
X40640000Y142605000D03*
X40640000Y145145000D03*
X40640000Y147685000D03*
X40640000Y150225000D03*
X40640000Y152765000D03*
X40640000Y155305000D03*
X40640000Y157845000D03*
X40640000Y160385000D03*
%TD*%
%TO.C,J5*%
X104640000Y112125000D03*
X104640000Y114665000D03*
X104640000Y117205000D03*
X104640000Y119745000D03*
X104640000Y122285000D03*
X104640000Y124825000D03*
X104640000Y127365000D03*
X104640000Y129905000D03*
X104640000Y132445000D03*
X104640000Y134985000D03*
X104640000Y137525000D03*
X104640000Y140065000D03*
X104640000Y142605000D03*
X104640000Y145145000D03*
X104640000Y147685000D03*
X104640000Y150225000D03*
X104640000Y152765000D03*
X104640000Y155305000D03*
X104640000Y157845000D03*
X104640000Y160385000D03*
%TD*%
D30*
%TO.C,C12*%
X31214000Y31496000D03*
X30254000Y31496000D03*
%TD*%
%TO.C,C12*%
X31214000Y140446000D03*
X30254000Y140446000D03*
%TD*%
%TO.C,C12*%
X95214000Y85971000D03*
X94254000Y85971000D03*
%TD*%
%TO.C,C12*%
X31214000Y85971000D03*
X30254000Y85971000D03*
%TD*%
%TO.C,C12*%
X95214000Y140446000D03*
X94254000Y140446000D03*
%TD*%
%TO.C,C12*%
X95214000Y31496000D03*
X94254000Y31496000D03*
%TD*%
D70*
%TO.C,U1*%
X36646500Y21600000D03*
X36646500Y22000000D03*
X36646500Y22400000D03*
X36646500Y22800000D03*
X36646500Y23200000D03*
X36646500Y23600000D03*
X36646500Y24000000D03*
X36646500Y24400000D03*
X36646500Y24800000D03*
X36646500Y25200000D03*
X36646500Y25600000D03*
X36646500Y26000000D03*
X36646500Y26400000D03*
X36646500Y26800000D03*
X36646500Y27200000D03*
X36646500Y27600000D03*
X36646500Y28000000D03*
X36646500Y28400000D03*
X36646500Y28800000D03*
X36646500Y29200000D03*
D71*
X35550000Y30296500D03*
X35150000Y30296500D03*
X34750000Y30296500D03*
X34350000Y30296500D03*
X33950000Y30296500D03*
X33550000Y30296500D03*
X33150000Y30296500D03*
X32750000Y30296500D03*
X32350000Y30296500D03*
X31950000Y30296500D03*
X31550000Y30296500D03*
X31150000Y30296500D03*
X30750000Y30296500D03*
X30350000Y30296500D03*
X29950000Y30296500D03*
X29550000Y30296500D03*
X29150000Y30296500D03*
X28750000Y30296500D03*
X28350000Y30296500D03*
X27950000Y30296500D03*
D72*
X26853500Y29200000D03*
X26853500Y28800000D03*
X26853500Y28400000D03*
X26853500Y28000000D03*
X26853500Y27600000D03*
X26853500Y27200000D03*
X26853500Y26800000D03*
X26853500Y26400000D03*
X26853500Y26000000D03*
X26853500Y25600000D03*
X26853500Y25200000D03*
X26853500Y24800000D03*
X26853500Y24400000D03*
X26853500Y24000000D03*
X26853500Y23600000D03*
X26853500Y23200000D03*
X26853500Y22800000D03*
X26853500Y22400000D03*
X26853500Y22000000D03*
X26853500Y21600000D03*
D73*
X27950000Y20503500D03*
X28350000Y20503500D03*
X28750000Y20503500D03*
X29150000Y20503500D03*
X29550000Y20503500D03*
X29950000Y20503500D03*
X30350000Y20503500D03*
X30750000Y20503500D03*
X31150000Y20503500D03*
X31550000Y20503500D03*
X31950000Y20503500D03*
X32350000Y20503500D03*
X32750000Y20503500D03*
X33150000Y20503500D03*
X33550000Y20503500D03*
X33950000Y20503500D03*
X34350000Y20503500D03*
X34750000Y20503500D03*
X35150000Y20503500D03*
X35550000Y20503500D03*
D74*
X31750000Y25400000D03*
%TD*%
D70*
%TO.C,U1*%
X36646500Y130550000D03*
X36646500Y130950000D03*
X36646500Y131350000D03*
X36646500Y131750000D03*
X36646500Y132150000D03*
X36646500Y132550000D03*
X36646500Y132950000D03*
X36646500Y133350000D03*
X36646500Y133750000D03*
X36646500Y134150000D03*
X36646500Y134550000D03*
X36646500Y134950000D03*
X36646500Y135350000D03*
X36646500Y135750000D03*
X36646500Y136150000D03*
X36646500Y136550000D03*
X36646500Y136950000D03*
X36646500Y137350000D03*
X36646500Y137750000D03*
X36646500Y138150000D03*
D71*
X35550000Y139246500D03*
X35150000Y139246500D03*
X34750000Y139246500D03*
X34350000Y139246500D03*
X33950000Y139246500D03*
X33550000Y139246500D03*
X33150000Y139246500D03*
X32750000Y139246500D03*
X32350000Y139246500D03*
X31950000Y139246500D03*
X31550000Y139246500D03*
X31150000Y139246500D03*
X30750000Y139246500D03*
X30350000Y139246500D03*
X29950000Y139246500D03*
X29550000Y139246500D03*
X29150000Y139246500D03*
X28750000Y139246500D03*
X28350000Y139246500D03*
X27950000Y139246500D03*
D72*
X26853500Y138150000D03*
X26853500Y137750000D03*
X26853500Y137350000D03*
X26853500Y136950000D03*
X26853500Y136550000D03*
X26853500Y136150000D03*
X26853500Y135750000D03*
X26853500Y135350000D03*
X26853500Y134950000D03*
X26853500Y134550000D03*
X26853500Y134150000D03*
X26853500Y133750000D03*
X26853500Y133350000D03*
X26853500Y132950000D03*
X26853500Y132550000D03*
X26853500Y132150000D03*
X26853500Y131750000D03*
X26853500Y131350000D03*
X26853500Y130950000D03*
X26853500Y130550000D03*
D73*
X27950000Y129453500D03*
X28350000Y129453500D03*
X28750000Y129453500D03*
X29150000Y129453500D03*
X29550000Y129453500D03*
X29950000Y129453500D03*
X30350000Y129453500D03*
X30750000Y129453500D03*
X31150000Y129453500D03*
X31550000Y129453500D03*
X31950000Y129453500D03*
X32350000Y129453500D03*
X32750000Y129453500D03*
X33150000Y129453500D03*
X33550000Y129453500D03*
X33950000Y129453500D03*
X34350000Y129453500D03*
X34750000Y129453500D03*
X35150000Y129453500D03*
X35550000Y129453500D03*
D74*
X31750000Y134350000D03*
%TD*%
D70*
%TO.C,U1*%
X36646500Y76075000D03*
X36646500Y76475000D03*
X36646500Y76875000D03*
X36646500Y77275000D03*
X36646500Y77675000D03*
X36646500Y78075000D03*
X36646500Y78475000D03*
X36646500Y78875000D03*
X36646500Y79275000D03*
X36646500Y79675000D03*
X36646500Y80075000D03*
X36646500Y80475000D03*
X36646500Y80875000D03*
X36646500Y81275000D03*
X36646500Y81675000D03*
X36646500Y82075000D03*
X36646500Y82475000D03*
X36646500Y82875000D03*
X36646500Y83275000D03*
X36646500Y83675000D03*
D71*
X35550000Y84771500D03*
X35150000Y84771500D03*
X34750000Y84771500D03*
X34350000Y84771500D03*
X33950000Y84771500D03*
X33550000Y84771500D03*
X33150000Y84771500D03*
X32750000Y84771500D03*
X32350000Y84771500D03*
X31950000Y84771500D03*
X31550000Y84771500D03*
X31150000Y84771500D03*
X30750000Y84771500D03*
X30350000Y84771500D03*
X29950000Y84771500D03*
X29550000Y84771500D03*
X29150000Y84771500D03*
X28750000Y84771500D03*
X28350000Y84771500D03*
X27950000Y84771500D03*
D72*
X26853500Y83675000D03*
X26853500Y83275000D03*
X26853500Y82875000D03*
X26853500Y82475000D03*
X26853500Y82075000D03*
X26853500Y81675000D03*
X26853500Y81275000D03*
X26853500Y80875000D03*
X26853500Y80475000D03*
X26853500Y80075000D03*
X26853500Y79675000D03*
X26853500Y79275000D03*
X26853500Y78875000D03*
X26853500Y78475000D03*
X26853500Y78075000D03*
X26853500Y77675000D03*
X26853500Y77275000D03*
X26853500Y76875000D03*
X26853500Y76475000D03*
X26853500Y76075000D03*
D73*
X27950000Y74978500D03*
X28350000Y74978500D03*
X28750000Y74978500D03*
X29150000Y74978500D03*
X29550000Y74978500D03*
X29950000Y74978500D03*
X30350000Y74978500D03*
X30750000Y74978500D03*
X31150000Y74978500D03*
X31550000Y74978500D03*
X31950000Y74978500D03*
X32350000Y74978500D03*
X32750000Y74978500D03*
X33150000Y74978500D03*
X33550000Y74978500D03*
X33950000Y74978500D03*
X34350000Y74978500D03*
X34750000Y74978500D03*
X35150000Y74978500D03*
X35550000Y74978500D03*
D74*
X31750000Y79875000D03*
%TD*%
D70*
%TO.C,U1*%
X100646500Y21600000D03*
X100646500Y22000000D03*
X100646500Y22400000D03*
X100646500Y22800000D03*
X100646500Y23200000D03*
X100646500Y23600000D03*
X100646500Y24000000D03*
X100646500Y24400000D03*
X100646500Y24800000D03*
X100646500Y25200000D03*
X100646500Y25600000D03*
X100646500Y26000000D03*
X100646500Y26400000D03*
X100646500Y26800000D03*
X100646500Y27200000D03*
X100646500Y27600000D03*
X100646500Y28000000D03*
X100646500Y28400000D03*
X100646500Y28800000D03*
X100646500Y29200000D03*
D71*
X99550000Y30296500D03*
X99150000Y30296500D03*
X98750000Y30296500D03*
X98350000Y30296500D03*
X97950000Y30296500D03*
X97550000Y30296500D03*
X97150000Y30296500D03*
X96750000Y30296500D03*
X96350000Y30296500D03*
X95950000Y30296500D03*
X95550000Y30296500D03*
X95150000Y30296500D03*
X94750000Y30296500D03*
X94350000Y30296500D03*
X93950000Y30296500D03*
X93550000Y30296500D03*
X93150000Y30296500D03*
X92750000Y30296500D03*
X92350000Y30296500D03*
X91950000Y30296500D03*
D72*
X90853500Y29200000D03*
X90853500Y28800000D03*
X90853500Y28400000D03*
X90853500Y28000000D03*
X90853500Y27600000D03*
X90853500Y27200000D03*
X90853500Y26800000D03*
X90853500Y26400000D03*
X90853500Y26000000D03*
X90853500Y25600000D03*
X90853500Y25200000D03*
X90853500Y24800000D03*
X90853500Y24400000D03*
X90853500Y24000000D03*
X90853500Y23600000D03*
X90853500Y23200000D03*
X90853500Y22800000D03*
X90853500Y22400000D03*
X90853500Y22000000D03*
X90853500Y21600000D03*
D73*
X91950000Y20503500D03*
X92350000Y20503500D03*
X92750000Y20503500D03*
X93150000Y20503500D03*
X93550000Y20503500D03*
X93950000Y20503500D03*
X94350000Y20503500D03*
X94750000Y20503500D03*
X95150000Y20503500D03*
X95550000Y20503500D03*
X95950000Y20503500D03*
X96350000Y20503500D03*
X96750000Y20503500D03*
X97150000Y20503500D03*
X97550000Y20503500D03*
X97950000Y20503500D03*
X98350000Y20503500D03*
X98750000Y20503500D03*
X99150000Y20503500D03*
X99550000Y20503500D03*
D74*
X95750000Y25400000D03*
%TD*%
D70*
%TO.C,U1*%
X100646500Y76075000D03*
X100646500Y76475000D03*
X100646500Y76875000D03*
X100646500Y77275000D03*
X100646500Y77675000D03*
X100646500Y78075000D03*
X100646500Y78475000D03*
X100646500Y78875000D03*
X100646500Y79275000D03*
X100646500Y79675000D03*
X100646500Y80075000D03*
X100646500Y80475000D03*
X100646500Y80875000D03*
X100646500Y81275000D03*
X100646500Y81675000D03*
X100646500Y82075000D03*
X100646500Y82475000D03*
X100646500Y82875000D03*
X100646500Y83275000D03*
X100646500Y83675000D03*
D71*
X99550000Y84771500D03*
X99150000Y84771500D03*
X98750000Y84771500D03*
X98350000Y84771500D03*
X97950000Y84771500D03*
X97550000Y84771500D03*
X97150000Y84771500D03*
X96750000Y84771500D03*
X96350000Y84771500D03*
X95950000Y84771500D03*
X95550000Y84771500D03*
X95150000Y84771500D03*
X94750000Y84771500D03*
X94350000Y84771500D03*
X93950000Y84771500D03*
X93550000Y84771500D03*
X93150000Y84771500D03*
X92750000Y84771500D03*
X92350000Y84771500D03*
X91950000Y84771500D03*
D72*
X90853500Y83675000D03*
X90853500Y83275000D03*
X90853500Y82875000D03*
X90853500Y82475000D03*
X90853500Y82075000D03*
X90853500Y81675000D03*
X90853500Y81275000D03*
X90853500Y80875000D03*
X90853500Y80475000D03*
X90853500Y80075000D03*
X90853500Y79675000D03*
X90853500Y79275000D03*
X90853500Y78875000D03*
X90853500Y78475000D03*
X90853500Y78075000D03*
X90853500Y77675000D03*
X90853500Y77275000D03*
X90853500Y76875000D03*
X90853500Y76475000D03*
X90853500Y76075000D03*
D73*
X91950000Y74978500D03*
X92350000Y74978500D03*
X92750000Y74978500D03*
X93150000Y74978500D03*
X93550000Y74978500D03*
X93950000Y74978500D03*
X94350000Y74978500D03*
X94750000Y74978500D03*
X95150000Y74978500D03*
X95550000Y74978500D03*
X95950000Y74978500D03*
X96350000Y74978500D03*
X96750000Y74978500D03*
X97150000Y74978500D03*
X97550000Y74978500D03*
X97950000Y74978500D03*
X98350000Y74978500D03*
X98750000Y74978500D03*
X99150000Y74978500D03*
X99550000Y74978500D03*
D74*
X95750000Y79875000D03*
%TD*%
D70*
%TO.C,U1*%
X100646500Y130550000D03*
X100646500Y130950000D03*
X100646500Y131350000D03*
X100646500Y131750000D03*
X100646500Y132150000D03*
X100646500Y132550000D03*
X100646500Y132950000D03*
X100646500Y133350000D03*
X100646500Y133750000D03*
X100646500Y134150000D03*
X100646500Y134550000D03*
X100646500Y134950000D03*
X100646500Y135350000D03*
X100646500Y135750000D03*
X100646500Y136150000D03*
X100646500Y136550000D03*
X100646500Y136950000D03*
X100646500Y137350000D03*
X100646500Y137750000D03*
X100646500Y138150000D03*
D71*
X99550000Y139246500D03*
X99150000Y139246500D03*
X98750000Y139246500D03*
X98350000Y139246500D03*
X97950000Y139246500D03*
X97550000Y139246500D03*
X97150000Y139246500D03*
X96750000Y139246500D03*
X96350000Y139246500D03*
X95950000Y139246500D03*
X95550000Y139246500D03*
X95150000Y139246500D03*
X94750000Y139246500D03*
X94350000Y139246500D03*
X93950000Y139246500D03*
X93550000Y139246500D03*
X93150000Y139246500D03*
X92750000Y139246500D03*
X92350000Y139246500D03*
X91950000Y139246500D03*
D72*
X90853500Y138150000D03*
X90853500Y137750000D03*
X90853500Y137350000D03*
X90853500Y136950000D03*
X90853500Y136550000D03*
X90853500Y136150000D03*
X90853500Y135750000D03*
X90853500Y135350000D03*
X90853500Y134950000D03*
X90853500Y134550000D03*
X90853500Y134150000D03*
X90853500Y133750000D03*
X90853500Y133350000D03*
X90853500Y132950000D03*
X90853500Y132550000D03*
X90853500Y132150000D03*
X90853500Y131750000D03*
X90853500Y131350000D03*
X90853500Y130950000D03*
X90853500Y130550000D03*
D73*
X91950000Y129453500D03*
X92350000Y129453500D03*
X92750000Y129453500D03*
X93150000Y129453500D03*
X93550000Y129453500D03*
X93950000Y129453500D03*
X94350000Y129453500D03*
X94750000Y129453500D03*
X95150000Y129453500D03*
X95550000Y129453500D03*
X95950000Y129453500D03*
X96350000Y129453500D03*
X96750000Y129453500D03*
X97150000Y129453500D03*
X97550000Y129453500D03*
X97950000Y129453500D03*
X98350000Y129453500D03*
X98750000Y129453500D03*
X99150000Y129453500D03*
X99550000Y129453500D03*
D74*
X95750000Y134350000D03*
%TD*%
D27*
%TO.C,ST1*%
X2540000Y51435000D03*
%TD*%
%TO.C,ST1*%
X2540000Y105910000D03*
%TD*%
%TO.C,ST1*%
X2540000Y160385000D03*
%TD*%
%TO.C,ST1*%
X66540000Y160385000D03*
%TD*%
%TO.C,ST1*%
X66540000Y105910000D03*
%TD*%
%TO.C,ST1*%
X66540000Y51435000D03*
%TD*%
D68*
%TO.C,R12*%
X37465000Y3935000D03*
X37465000Y4955000D03*
%TD*%
%TO.C,R12*%
X101465000Y3935000D03*
X101465000Y4955000D03*
%TD*%
%TO.C,R12*%
X101465000Y58410000D03*
X101465000Y59430000D03*
%TD*%
%TO.C,R12*%
X37465000Y58410000D03*
X37465000Y59430000D03*
%TD*%
%TO.C,R12*%
X101465000Y112885000D03*
X101465000Y113905000D03*
%TD*%
%TO.C,R12*%
X37465000Y112885000D03*
X37465000Y113905000D03*
%TD*%
D22*
%TO.C,R49*%
X53975000Y37975000D03*
X53975000Y36955000D03*
%TD*%
%TO.C,R49*%
X117975000Y37975000D03*
X117975000Y36955000D03*
%TD*%
%TO.C,R49*%
X117975000Y92450000D03*
X117975000Y91430000D03*
%TD*%
%TO.C,R49*%
X117975000Y146925000D03*
X117975000Y145905000D03*
%TD*%
%TO.C,R49*%
X53975000Y92450000D03*
X53975000Y91430000D03*
%TD*%
%TO.C,R49*%
X53975000Y146925000D03*
X53975000Y145905000D03*
%TD*%
D75*
%TO.C,U9*%
X25250000Y47889000D03*
X25250000Y46389000D03*
X25250000Y44889000D03*
X25250000Y43389000D03*
X25250000Y41889000D03*
X25250000Y40389000D03*
X25250000Y38889000D03*
D76*
X27250000Y37839000D03*
X28750000Y37839000D03*
X30250000Y37839000D03*
X31750000Y37839000D03*
X33250000Y37839000D03*
X34750000Y37839000D03*
X36250000Y37839000D03*
D75*
X38250000Y38889000D03*
X38250000Y40389000D03*
X38250000Y41889000D03*
X38250000Y43389000D03*
X38250000Y44889000D03*
X38250000Y46389000D03*
X38250000Y47889000D03*
%TD*%
%TO.C,U9*%
X89250000Y102364000D03*
X89250000Y100864000D03*
X89250000Y99364000D03*
X89250000Y97864000D03*
X89250000Y96364000D03*
X89250000Y94864000D03*
X89250000Y93364000D03*
D76*
X91250000Y92314000D03*
X92750000Y92314000D03*
X94250000Y92314000D03*
X95750000Y92314000D03*
X97250000Y92314000D03*
X98750000Y92314000D03*
X100250000Y92314000D03*
D75*
X102250000Y93364000D03*
X102250000Y94864000D03*
X102250000Y96364000D03*
X102250000Y97864000D03*
X102250000Y99364000D03*
X102250000Y100864000D03*
X102250000Y102364000D03*
%TD*%
%TO.C,U9*%
X89250000Y47889000D03*
X89250000Y46389000D03*
X89250000Y44889000D03*
X89250000Y43389000D03*
X89250000Y41889000D03*
X89250000Y40389000D03*
X89250000Y38889000D03*
D76*
X91250000Y37839000D03*
X92750000Y37839000D03*
X94250000Y37839000D03*
X95750000Y37839000D03*
X97250000Y37839000D03*
X98750000Y37839000D03*
X100250000Y37839000D03*
D75*
X102250000Y38889000D03*
X102250000Y40389000D03*
X102250000Y41889000D03*
X102250000Y43389000D03*
X102250000Y44889000D03*
X102250000Y46389000D03*
X102250000Y47889000D03*
%TD*%
%TO.C,U9*%
X25250000Y102364000D03*
X25250000Y100864000D03*
X25250000Y99364000D03*
X25250000Y97864000D03*
X25250000Y96364000D03*
X25250000Y94864000D03*
X25250000Y93364000D03*
D76*
X27250000Y92314000D03*
X28750000Y92314000D03*
X30250000Y92314000D03*
X31750000Y92314000D03*
X33250000Y92314000D03*
X34750000Y92314000D03*
X36250000Y92314000D03*
D75*
X38250000Y93364000D03*
X38250000Y94864000D03*
X38250000Y96364000D03*
X38250000Y97864000D03*
X38250000Y99364000D03*
X38250000Y100864000D03*
X38250000Y102364000D03*
%TD*%
%TO.C,U9*%
X25250000Y156839000D03*
X25250000Y155339000D03*
X25250000Y153839000D03*
X25250000Y152339000D03*
X25250000Y150839000D03*
X25250000Y149339000D03*
X25250000Y147839000D03*
D76*
X27250000Y146789000D03*
X28750000Y146789000D03*
X30250000Y146789000D03*
X31750000Y146789000D03*
X33250000Y146789000D03*
X34750000Y146789000D03*
X36250000Y146789000D03*
D75*
X38250000Y147839000D03*
X38250000Y149339000D03*
X38250000Y150839000D03*
X38250000Y152339000D03*
X38250000Y153839000D03*
X38250000Y155339000D03*
X38250000Y156839000D03*
%TD*%
%TO.C,U9*%
X89250000Y156839000D03*
X89250000Y155339000D03*
X89250000Y153839000D03*
X89250000Y152339000D03*
X89250000Y150839000D03*
X89250000Y149339000D03*
X89250000Y147839000D03*
D76*
X91250000Y146789000D03*
X92750000Y146789000D03*
X94250000Y146789000D03*
X95750000Y146789000D03*
X97250000Y146789000D03*
X98750000Y146789000D03*
X100250000Y146789000D03*
D75*
X102250000Y147839000D03*
X102250000Y149339000D03*
X102250000Y150839000D03*
X102250000Y152339000D03*
X102250000Y153839000D03*
X102250000Y155339000D03*
X102250000Y156839000D03*
%TD*%
D31*
%TO.C,C33*%
X13843000Y36515000D03*
X13843000Y38415000D03*
%TD*%
%TO.C,C33*%
X13843000Y90990000D03*
X13843000Y92890000D03*
%TD*%
%TO.C,C33*%
X13843000Y145465000D03*
X13843000Y147365000D03*
%TD*%
%TO.C,C33*%
X77843000Y36515000D03*
X77843000Y38415000D03*
%TD*%
%TO.C,C33*%
X77843000Y145465000D03*
X77843000Y147365000D03*
%TD*%
%TO.C,C33*%
X77843000Y90990000D03*
X77843000Y92890000D03*
%TD*%
D47*
%TO.C,J7*%
X20320000Y3175000D03*
X20320000Y5715000D03*
X20320000Y8255000D03*
X20320000Y10795000D03*
X20320000Y13335000D03*
X20320000Y15875000D03*
X20320000Y18415000D03*
X20320000Y20955000D03*
X20320000Y23495000D03*
X20320000Y26035000D03*
X20320000Y28575000D03*
X20320000Y31115000D03*
X20320000Y33655000D03*
X20320000Y36195000D03*
X20320000Y38735000D03*
X20320000Y41275000D03*
X20320000Y43815000D03*
X20320000Y46355000D03*
X20320000Y48895000D03*
X20320000Y51435000D03*
%TD*%
%TO.C,J7*%
X20320000Y112125000D03*
X20320000Y114665000D03*
X20320000Y117205000D03*
X20320000Y119745000D03*
X20320000Y122285000D03*
X20320000Y124825000D03*
X20320000Y127365000D03*
X20320000Y129905000D03*
X20320000Y132445000D03*
X20320000Y134985000D03*
X20320000Y137525000D03*
X20320000Y140065000D03*
X20320000Y142605000D03*
X20320000Y145145000D03*
X20320000Y147685000D03*
X20320000Y150225000D03*
X20320000Y152765000D03*
X20320000Y155305000D03*
X20320000Y157845000D03*
X20320000Y160385000D03*
%TD*%
%TO.C,J7*%
X20320000Y57650000D03*
X20320000Y60190000D03*
X20320000Y62730000D03*
X20320000Y65270000D03*
X20320000Y67810000D03*
X20320000Y70350000D03*
X20320000Y72890000D03*
X20320000Y75430000D03*
X20320000Y77970000D03*
X20320000Y80510000D03*
X20320000Y83050000D03*
X20320000Y85590000D03*
X20320000Y88130000D03*
X20320000Y90670000D03*
X20320000Y93210000D03*
X20320000Y95750000D03*
X20320000Y98290000D03*
X20320000Y100830000D03*
X20320000Y103370000D03*
X20320000Y105910000D03*
%TD*%
%TO.C,J7*%
X84320000Y3175000D03*
X84320000Y5715000D03*
X84320000Y8255000D03*
X84320000Y10795000D03*
X84320000Y13335000D03*
X84320000Y15875000D03*
X84320000Y18415000D03*
X84320000Y20955000D03*
X84320000Y23495000D03*
X84320000Y26035000D03*
X84320000Y28575000D03*
X84320000Y31115000D03*
X84320000Y33655000D03*
X84320000Y36195000D03*
X84320000Y38735000D03*
X84320000Y41275000D03*
X84320000Y43815000D03*
X84320000Y46355000D03*
X84320000Y48895000D03*
X84320000Y51435000D03*
%TD*%
%TO.C,J7*%
X84320000Y57650000D03*
X84320000Y60190000D03*
X84320000Y62730000D03*
X84320000Y65270000D03*
X84320000Y67810000D03*
X84320000Y70350000D03*
X84320000Y72890000D03*
X84320000Y75430000D03*
X84320000Y77970000D03*
X84320000Y80510000D03*
X84320000Y83050000D03*
X84320000Y85590000D03*
X84320000Y88130000D03*
X84320000Y90670000D03*
X84320000Y93210000D03*
X84320000Y95750000D03*
X84320000Y98290000D03*
X84320000Y100830000D03*
X84320000Y103370000D03*
X84320000Y105910000D03*
%TD*%
%TO.C,J7*%
X84320000Y112125000D03*
X84320000Y114665000D03*
X84320000Y117205000D03*
X84320000Y119745000D03*
X84320000Y122285000D03*
X84320000Y124825000D03*
X84320000Y127365000D03*
X84320000Y129905000D03*
X84320000Y132445000D03*
X84320000Y134985000D03*
X84320000Y137525000D03*
X84320000Y140065000D03*
X84320000Y142605000D03*
X84320000Y145145000D03*
X84320000Y147685000D03*
X84320000Y150225000D03*
X84320000Y152765000D03*
X84320000Y155305000D03*
X84320000Y157845000D03*
X84320000Y160385000D03*
%TD*%
D22*
%TO.C,R6*%
X38100000Y13210000D03*
X38100000Y12190000D03*
%TD*%
%TO.C,R6*%
X38100000Y67685000D03*
X38100000Y66665000D03*
%TD*%
%TO.C,R6*%
X102100000Y67685000D03*
X102100000Y66665000D03*
%TD*%
%TO.C,R6*%
X38100000Y122160000D03*
X38100000Y121140000D03*
%TD*%
%TO.C,R6*%
X102100000Y13210000D03*
X102100000Y12190000D03*
%TD*%
%TO.C,R6*%
X102100000Y122160000D03*
X102100000Y121140000D03*
%TD*%
D77*
%TO.C,Q6*%
X47940000Y11160000D03*
X46040000Y11160000D03*
X46990000Y9060000D03*
%TD*%
%TO.C,Q6*%
X47940000Y65635000D03*
X46040000Y65635000D03*
X46990000Y63535000D03*
%TD*%
%TO.C,Q6*%
X111940000Y11160000D03*
X110040000Y11160000D03*
X110990000Y9060000D03*
%TD*%
%TO.C,Q6*%
X111940000Y65635000D03*
X110040000Y65635000D03*
X110990000Y63535000D03*
%TD*%
%TO.C,Q6*%
X111940000Y120110000D03*
X110040000Y120110000D03*
X110990000Y118010000D03*
%TD*%
%TO.C,Q6*%
X47940000Y120110000D03*
X46040000Y120110000D03*
X46990000Y118010000D03*
%TD*%
D68*
%TO.C,R5*%
X29845000Y14095000D03*
X29845000Y15115000D03*
%TD*%
%TO.C,R5*%
X29845000Y68570000D03*
X29845000Y69590000D03*
%TD*%
%TO.C,R5*%
X29845000Y123045000D03*
X29845000Y124065000D03*
%TD*%
%TO.C,R5*%
X93845000Y14095000D03*
X93845000Y15115000D03*
%TD*%
%TO.C,R5*%
X93845000Y68570000D03*
X93845000Y69590000D03*
%TD*%
%TO.C,R5*%
X93845000Y123045000D03*
X93845000Y124065000D03*
%TD*%
D28*
%TO.C,C4*%
X35080000Y31496000D03*
X36040000Y31496000D03*
%TD*%
%TO.C,C4*%
X35080000Y140446000D03*
X36040000Y140446000D03*
%TD*%
%TO.C,C4*%
X35080000Y85971000D03*
X36040000Y85971000D03*
%TD*%
%TO.C,C4*%
X99080000Y31496000D03*
X100040000Y31496000D03*
%TD*%
%TO.C,C4*%
X99080000Y85971000D03*
X100040000Y85971000D03*
%TD*%
%TO.C,C4*%
X99080000Y140446000D03*
X100040000Y140446000D03*
%TD*%
D78*
%TO.C,D6*%
X9677500Y29845000D03*
X8102500Y29845000D03*
%TD*%
%TO.C,D6*%
X9677500Y84320000D03*
X8102500Y84320000D03*
%TD*%
%TO.C,D6*%
X9677500Y138795000D03*
X8102500Y138795000D03*
%TD*%
%TO.C,D6*%
X73677500Y29845000D03*
X72102500Y29845000D03*
%TD*%
%TO.C,D6*%
X73677500Y84320000D03*
X72102500Y84320000D03*
%TD*%
%TO.C,D6*%
X73677500Y138795000D03*
X72102500Y138795000D03*
%TD*%
D68*
%TO.C,R20*%
X38100000Y9650000D03*
X38100000Y10670000D03*
%TD*%
%TO.C,R20*%
X102100000Y9650000D03*
X102100000Y10670000D03*
%TD*%
%TO.C,R20*%
X102100000Y118600000D03*
X102100000Y119620000D03*
%TD*%
%TO.C,R20*%
X102100000Y64125000D03*
X102100000Y65145000D03*
%TD*%
%TO.C,R20*%
X38100000Y64125000D03*
X38100000Y65145000D03*
%TD*%
%TO.C,R20*%
X38100000Y118600000D03*
X38100000Y119620000D03*
%TD*%
D59*
%TO.C,U7*%
X8025000Y38215000D03*
X8025000Y37715000D03*
X8025000Y37215000D03*
X8025000Y36715000D03*
D60*
X8775000Y35965000D03*
X9275000Y35965000D03*
X9775000Y35965000D03*
X10275000Y35965000D03*
D57*
X11025000Y36715000D03*
X11025000Y37215000D03*
X11025000Y37715000D03*
X11025000Y38215000D03*
D58*
X10290000Y38965000D03*
X9775000Y38965000D03*
X9275000Y38965000D03*
X8775000Y38965000D03*
D79*
X9525000Y37465000D03*
%TD*%
D59*
%TO.C,U7*%
X72025000Y92690000D03*
X72025000Y92190000D03*
X72025000Y91690000D03*
X72025000Y91190000D03*
D60*
X72775000Y90440000D03*
X73275000Y90440000D03*
X73775000Y90440000D03*
X74275000Y90440000D03*
D57*
X75025000Y91190000D03*
X75025000Y91690000D03*
X75025000Y92190000D03*
X75025000Y92690000D03*
D58*
X74290000Y93440000D03*
X73775000Y93440000D03*
X73275000Y93440000D03*
X72775000Y93440000D03*
D79*
X73525000Y91940000D03*
%TD*%
D59*
%TO.C,U7*%
X8025000Y147165000D03*
X8025000Y146665000D03*
X8025000Y146165000D03*
X8025000Y145665000D03*
D60*
X8775000Y144915000D03*
X9275000Y144915000D03*
X9775000Y144915000D03*
X10275000Y144915000D03*
D57*
X11025000Y145665000D03*
X11025000Y146165000D03*
X11025000Y146665000D03*
X11025000Y147165000D03*
D58*
X10290000Y147915000D03*
X9775000Y147915000D03*
X9275000Y147915000D03*
X8775000Y147915000D03*
D79*
X9525000Y146415000D03*
%TD*%
D59*
%TO.C,U7*%
X72025000Y38215000D03*
X72025000Y37715000D03*
X72025000Y37215000D03*
X72025000Y36715000D03*
D60*
X72775000Y35965000D03*
X73275000Y35965000D03*
X73775000Y35965000D03*
X74275000Y35965000D03*
D57*
X75025000Y36715000D03*
X75025000Y37215000D03*
X75025000Y37715000D03*
X75025000Y38215000D03*
D58*
X74290000Y38965000D03*
X73775000Y38965000D03*
X73275000Y38965000D03*
X72775000Y38965000D03*
D79*
X73525000Y37465000D03*
%TD*%
D59*
%TO.C,U7*%
X72025000Y147165000D03*
X72025000Y146665000D03*
X72025000Y146165000D03*
X72025000Y145665000D03*
D60*
X72775000Y144915000D03*
X73275000Y144915000D03*
X73775000Y144915000D03*
X74275000Y144915000D03*
D57*
X75025000Y145665000D03*
X75025000Y146165000D03*
X75025000Y146665000D03*
X75025000Y147165000D03*
D58*
X74290000Y147915000D03*
X73775000Y147915000D03*
X73275000Y147915000D03*
X72775000Y147915000D03*
D79*
X73525000Y146415000D03*
%TD*%
D59*
%TO.C,U7*%
X8025000Y92690000D03*
X8025000Y92190000D03*
X8025000Y91690000D03*
X8025000Y91190000D03*
D60*
X8775000Y90440000D03*
X9275000Y90440000D03*
X9775000Y90440000D03*
X10275000Y90440000D03*
D57*
X11025000Y91190000D03*
X11025000Y91690000D03*
X11025000Y92190000D03*
X11025000Y92690000D03*
D58*
X10290000Y93440000D03*
X9775000Y93440000D03*
X9275000Y93440000D03*
X8775000Y93440000D03*
D79*
X9525000Y91940000D03*
%TD*%
D28*
%TO.C,C29*%
X46510000Y20320000D03*
X47470000Y20320000D03*
%TD*%
%TO.C,C29*%
X46510000Y74795000D03*
X47470000Y74795000D03*
%TD*%
%TO.C,C29*%
X110510000Y74795000D03*
X111470000Y74795000D03*
%TD*%
%TO.C,C29*%
X46510000Y129270000D03*
X47470000Y129270000D03*
%TD*%
%TO.C,C29*%
X110510000Y20320000D03*
X111470000Y20320000D03*
%TD*%
%TO.C,C29*%
X110510000Y129270000D03*
X111470000Y129270000D03*
%TD*%
D11*
%TO.C,R42*%
X12825000Y41275000D03*
X13845000Y41275000D03*
%TD*%
%TO.C,R42*%
X12825000Y150225000D03*
X13845000Y150225000D03*
%TD*%
%TO.C,R42*%
X76825000Y95750000D03*
X77845000Y95750000D03*
%TD*%
%TO.C,R42*%
X12825000Y95750000D03*
X13845000Y95750000D03*
%TD*%
%TO.C,R42*%
X76825000Y41275000D03*
X77845000Y41275000D03*
%TD*%
%TO.C,R42*%
X76825000Y150225000D03*
X77845000Y150225000D03*
%TD*%
D77*
%TO.C,Q8*%
X51115000Y11160000D03*
X49215000Y11160000D03*
X50165000Y9060000D03*
%TD*%
%TO.C,Q8*%
X115115000Y120110000D03*
X113215000Y120110000D03*
X114165000Y118010000D03*
%TD*%
%TO.C,Q8*%
X51115000Y120110000D03*
X49215000Y120110000D03*
X50165000Y118010000D03*
%TD*%
%TO.C,Q8*%
X51115000Y65635000D03*
X49215000Y65635000D03*
X50165000Y63535000D03*
%TD*%
%TO.C,Q8*%
X115115000Y65635000D03*
X113215000Y65635000D03*
X114165000Y63535000D03*
%TD*%
%TO.C,Q8*%
X115115000Y11160000D03*
X113215000Y11160000D03*
X114165000Y9060000D03*
%TD*%
D30*
%TO.C,C15*%
X29232800Y19431000D03*
X28272800Y19431000D03*
%TD*%
%TO.C,C15*%
X93232800Y128381000D03*
X92272800Y128381000D03*
%TD*%
%TO.C,C15*%
X93232800Y19431000D03*
X92272800Y19431000D03*
%TD*%
%TO.C,C15*%
X29232800Y73906000D03*
X28272800Y73906000D03*
%TD*%
%TO.C,C15*%
X29232800Y128381000D03*
X28272800Y128381000D03*
%TD*%
%TO.C,C15*%
X93232800Y73906000D03*
X92272800Y73906000D03*
%TD*%
D80*
%TO.C,U4*%
X10501000Y23761000D03*
D81*
X11551000Y23661000D03*
X12001000Y23661000D03*
X12451000Y23661000D03*
X12451000Y25361000D03*
X12001000Y25361000D03*
X11551000Y25361000D03*
D80*
X10501000Y25261000D03*
D82*
X10386000Y24511000D03*
%TD*%
D80*
%TO.C,U4*%
X10501000Y78236000D03*
D81*
X11551000Y78136000D03*
X12001000Y78136000D03*
X12451000Y78136000D03*
X12451000Y79836000D03*
X12001000Y79836000D03*
X11551000Y79836000D03*
D80*
X10501000Y79736000D03*
D82*
X10386000Y78986000D03*
%TD*%
D80*
%TO.C,U4*%
X74501000Y23761000D03*
D81*
X75551000Y23661000D03*
X76001000Y23661000D03*
X76451000Y23661000D03*
X76451000Y25361000D03*
X76001000Y25361000D03*
X75551000Y25361000D03*
D80*
X74501000Y25261000D03*
D82*
X74386000Y24511000D03*
%TD*%
D80*
%TO.C,U4*%
X74501000Y132711000D03*
D81*
X75551000Y132611000D03*
X76001000Y132611000D03*
X76451000Y132611000D03*
X76451000Y134311000D03*
X76001000Y134311000D03*
X75551000Y134311000D03*
D80*
X74501000Y134211000D03*
D82*
X74386000Y133461000D03*
%TD*%
D80*
%TO.C,U4*%
X10501000Y132711000D03*
D81*
X11551000Y132611000D03*
X12001000Y132611000D03*
X12451000Y132611000D03*
X12451000Y134311000D03*
X12001000Y134311000D03*
X11551000Y134311000D03*
D80*
X10501000Y134211000D03*
D82*
X10386000Y133461000D03*
%TD*%
D80*
%TO.C,U4*%
X74501000Y78236000D03*
D81*
X75551000Y78136000D03*
X76001000Y78136000D03*
X76451000Y78136000D03*
X76451000Y79836000D03*
X76001000Y79836000D03*
X75551000Y79836000D03*
D80*
X74501000Y79736000D03*
D82*
X74386000Y78986000D03*
%TD*%
D68*
%TO.C,R48*%
X9525000Y33145000D03*
X9525000Y34165000D03*
%TD*%
%TO.C,R48*%
X73525000Y87620000D03*
X73525000Y88640000D03*
%TD*%
%TO.C,R48*%
X9525000Y142095000D03*
X9525000Y143115000D03*
%TD*%
%TO.C,R48*%
X9525000Y87620000D03*
X9525000Y88640000D03*
%TD*%
%TO.C,R48*%
X73525000Y33145000D03*
X73525000Y34165000D03*
%TD*%
%TO.C,R48*%
X73525000Y142095000D03*
X73525000Y143115000D03*
%TD*%
D27*
%TO.C,ST2*%
X2540000Y2540000D03*
%TD*%
%TO.C,ST2*%
X2540000Y57015000D03*
%TD*%
%TO.C,ST2*%
X2540000Y111490000D03*
%TD*%
%TO.C,ST2*%
X66540000Y111490000D03*
%TD*%
%TO.C,ST2*%
X66540000Y57015000D03*
%TD*%
%TO.C,ST2*%
X66540000Y2540000D03*
%TD*%
M02*
