%TF.GenerationSoftware,KiCad,Pcbnew,8.0.5*%
%TF.CreationDate,2024-12-18T16:51:18-07:00*%
%TF.ProjectId,SparkFun_XRP_Controller_panelized,53706172-6b46-4756-9e5f-5852505f436f,v20*%
%TF.SameCoordinates,Original*%
%TF.FileFunction,Soldermask,Bot*%
%TF.FilePolarity,Negative*%
%FSLAX46Y46*%
G04 Gerber Fmt 4.6, Leading zero omitted, Abs format (unit mm)*
G04 Created by KiCad (PCBNEW 8.0.5) date 2024-12-18 16:51:18*
%MOMM*%
%LPD*%
G01*
G04 APERTURE LIST*
G04 Aperture macros list*
%AMRoundRect*
0 Rectangle with rounded corners*
0 $1 Rounding radius*
0 $2 $3 $4 $5 $6 $7 $8 $9 X,Y pos of 4 corners*
0 Add a 4 corners polygon primitive as box body*
4,1,4,$2,$3,$4,$5,$6,$7,$8,$9,$2,$3,0*
0 Add four circle primitives for the rounded corners*
1,1,$1+$1,$2,$3*
1,1,$1+$1,$4,$5*
1,1,$1+$1,$6,$7*
1,1,$1+$1,$8,$9*
0 Add four rect primitives between the rounded corners*
20,1,$1+$1,$2,$3,$4,$5,0*
20,1,$1+$1,$4,$5,$6,$7,0*
20,1,$1+$1,$6,$7,$8,$9,0*
20,1,$1+$1,$8,$9,$2,$3,0*%
G04 Aperture macros list end*
%ADD10C,0.000000*%
%ADD11O,4.100000X2.100000*%
%ADD12O,2.100000X4.100000*%
%ADD13O,4.700000X2.400000*%
%ADD14C,3.200000*%
%ADD15C,1.000000*%
%ADD16C,1.979600*%
%ADD17C,0.750000*%
%ADD18O,1.100000X1.700000*%
%ADD19O,1.100000X2.200000*%
%ADD20C,0.600000*%
%ADD21RoundRect,0.558000X0.000010X0.000010X-0.000010X0.000010X-0.000010X-0.000010X0.000010X-0.000010X0*%
%ADD22RoundRect,0.050000X0.330200X0.635000X-0.330200X0.635000X-0.330200X-0.635000X0.330200X-0.635000X0*%
%ADD23RoundRect,0.050000X-0.330200X-0.635000X0.330200X-0.635000X0.330200X0.635000X-0.330200X0.635000X0*%
%ADD24C,3.000000*%
%ADD25RoundRect,0.050000X0.635000X-0.317500X0.635000X0.317500X-0.635000X0.317500X-0.635000X-0.317500X0*%
%ADD26RoundRect,0.050000X0.635000X-0.330200X0.635000X0.330200X-0.635000X0.330200X-0.635000X-0.330200X0*%
G04 APERTURE END LIST*
D10*
%TO.C,JP12*%
G36*
X50419000Y30874500D02*
G01*
X49911000Y30874500D01*
X49911000Y31355500D01*
X50419000Y31355500D01*
X50419000Y30874500D01*
G37*
G36*
X114419000Y30874500D02*
G01*
X113911000Y30874500D01*
X113911000Y31355500D01*
X114419000Y31355500D01*
X114419000Y30874500D01*
G37*
G36*
X114419000Y85349500D02*
G01*
X113911000Y85349500D01*
X113911000Y85830500D01*
X114419000Y85830500D01*
X114419000Y85349500D01*
G37*
G36*
X114419000Y139824500D02*
G01*
X113911000Y139824500D01*
X113911000Y140305500D01*
X114419000Y140305500D01*
X114419000Y139824500D01*
G37*
G36*
X50419000Y139824500D02*
G01*
X49911000Y139824500D01*
X49911000Y140305500D01*
X50419000Y140305500D01*
X50419000Y139824500D01*
G37*
G36*
X50419000Y85349500D02*
G01*
X49911000Y85349500D01*
X49911000Y85830500D01*
X50419000Y85830500D01*
X50419000Y85349500D01*
G37*
%TO.C,JP10*%
G36*
X13589000Y39764500D02*
G01*
X13081000Y39764500D01*
X13081000Y40245500D01*
X13589000Y40245500D01*
X13589000Y39764500D01*
G37*
G36*
X77589000Y39764500D02*
G01*
X77081000Y39764500D01*
X77081000Y40245500D01*
X77589000Y40245500D01*
X77589000Y39764500D01*
G37*
G36*
X13589000Y94239500D02*
G01*
X13081000Y94239500D01*
X13081000Y94720500D01*
X13589000Y94720500D01*
X13589000Y94239500D01*
G37*
G36*
X13589000Y148714500D02*
G01*
X13081000Y148714500D01*
X13081000Y149195500D01*
X13589000Y149195500D01*
X13589000Y148714500D01*
G37*
G36*
X77589000Y94239500D02*
G01*
X77081000Y94239500D01*
X77081000Y94720500D01*
X77589000Y94720500D01*
X77589000Y94239500D01*
G37*
G36*
X77589000Y148714500D02*
G01*
X77081000Y148714500D01*
X77081000Y149195500D01*
X77589000Y149195500D01*
X77589000Y148714500D01*
G37*
%TO.C,JP6*%
G36*
X46732000Y46137500D02*
G01*
X46224000Y46137500D01*
X46224000Y46618500D01*
X46732000Y46618500D01*
X46732000Y46137500D01*
G37*
G36*
X47764700Y46114500D02*
G01*
X47256700Y46114500D01*
X47256700Y46595500D01*
X47764700Y46595500D01*
X47764700Y46114500D01*
G37*
G36*
X110732000Y100612500D02*
G01*
X110224000Y100612500D01*
X110224000Y101093500D01*
X110732000Y101093500D01*
X110732000Y100612500D01*
G37*
G36*
X111764700Y100589500D02*
G01*
X111256700Y100589500D01*
X111256700Y101070500D01*
X111764700Y101070500D01*
X111764700Y100589500D01*
G37*
G36*
X46732000Y155087500D02*
G01*
X46224000Y155087500D01*
X46224000Y155568500D01*
X46732000Y155568500D01*
X46732000Y155087500D01*
G37*
G36*
X47764700Y155064500D02*
G01*
X47256700Y155064500D01*
X47256700Y155545500D01*
X47764700Y155545500D01*
X47764700Y155064500D01*
G37*
G36*
X46732000Y100612500D02*
G01*
X46224000Y100612500D01*
X46224000Y101093500D01*
X46732000Y101093500D01*
X46732000Y100612500D01*
G37*
G36*
X47764700Y100589500D02*
G01*
X47256700Y100589500D01*
X47256700Y101070500D01*
X47764700Y101070500D01*
X47764700Y100589500D01*
G37*
G36*
X110732000Y46137500D02*
G01*
X110224000Y46137500D01*
X110224000Y46618500D01*
X110732000Y46618500D01*
X110732000Y46137500D01*
G37*
G36*
X111764700Y46114500D02*
G01*
X111256700Y46114500D01*
X111256700Y46595500D01*
X111764700Y46595500D01*
X111764700Y46114500D01*
G37*
G36*
X110732000Y155087500D02*
G01*
X110224000Y155087500D01*
X110224000Y155568500D01*
X110732000Y155568500D01*
X110732000Y155087500D01*
G37*
G36*
X111764700Y155064500D02*
G01*
X111256700Y155064500D01*
X111256700Y155545500D01*
X111764700Y155545500D01*
X111764700Y155064500D01*
G37*
%TO.C,JP2*%
G36*
X35052000Y1029500D02*
G01*
X34544000Y1029500D01*
X34544000Y1510500D01*
X35052000Y1510500D01*
X35052000Y1029500D01*
G37*
G36*
X99052000Y1029500D02*
G01*
X98544000Y1029500D01*
X98544000Y1510500D01*
X99052000Y1510500D01*
X99052000Y1029500D01*
G37*
G36*
X35052000Y109979500D02*
G01*
X34544000Y109979500D01*
X34544000Y110460500D01*
X35052000Y110460500D01*
X35052000Y109979500D01*
G37*
G36*
X99052000Y55504500D02*
G01*
X98544000Y55504500D01*
X98544000Y55985500D01*
X99052000Y55985500D01*
X99052000Y55504500D01*
G37*
G36*
X99052000Y109979500D02*
G01*
X98544000Y109979500D01*
X98544000Y110460500D01*
X99052000Y110460500D01*
X99052000Y109979500D01*
G37*
G36*
X35052000Y55504500D02*
G01*
X34544000Y55504500D01*
X34544000Y55985500D01*
X35052000Y55985500D01*
X35052000Y55504500D01*
G37*
%TO.C,JP8*%
G36*
X11684000Y42304500D02*
G01*
X11176000Y42304500D01*
X11176000Y42785500D01*
X11684000Y42785500D01*
X11684000Y42304500D01*
G37*
G36*
X75684000Y151254500D02*
G01*
X75176000Y151254500D01*
X75176000Y151735500D01*
X75684000Y151735500D01*
X75684000Y151254500D01*
G37*
G36*
X11684000Y96779500D02*
G01*
X11176000Y96779500D01*
X11176000Y97260500D01*
X11684000Y97260500D01*
X11684000Y96779500D01*
G37*
G36*
X75684000Y96779500D02*
G01*
X75176000Y96779500D01*
X75176000Y97260500D01*
X75684000Y97260500D01*
X75684000Y96779500D01*
G37*
G36*
X11684000Y151254500D02*
G01*
X11176000Y151254500D01*
X11176000Y151735500D01*
X11684000Y151735500D01*
X11684000Y151254500D01*
G37*
G36*
X75684000Y42304500D02*
G01*
X75176000Y42304500D01*
X75176000Y42785500D01*
X75684000Y42785500D01*
X75684000Y42304500D01*
G37*
%TO.C,JP4*%
G36*
X49149000Y23889500D02*
G01*
X48641000Y23889500D01*
X48641000Y24370500D01*
X49149000Y24370500D01*
X49149000Y23889500D01*
G37*
G36*
X49149000Y78364500D02*
G01*
X48641000Y78364500D01*
X48641000Y78845500D01*
X49149000Y78845500D01*
X49149000Y78364500D01*
G37*
G36*
X49149000Y132839500D02*
G01*
X48641000Y132839500D01*
X48641000Y133320500D01*
X49149000Y133320500D01*
X49149000Y132839500D01*
G37*
G36*
X113149000Y23889500D02*
G01*
X112641000Y23889500D01*
X112641000Y24370500D01*
X113149000Y24370500D01*
X113149000Y23889500D01*
G37*
G36*
X113149000Y78364500D02*
G01*
X112641000Y78364500D01*
X112641000Y78845500D01*
X113149000Y78845500D01*
X113149000Y78364500D01*
G37*
G36*
X113149000Y132839500D02*
G01*
X112641000Y132839500D01*
X112641000Y133320500D01*
X113149000Y133320500D01*
X113149000Y132839500D01*
G37*
%TO.C,JP1*%
G36*
X28956000Y1029500D02*
G01*
X28448000Y1029500D01*
X28448000Y1510500D01*
X28956000Y1510500D01*
X28956000Y1029500D01*
G37*
G36*
X92956000Y1029500D02*
G01*
X92448000Y1029500D01*
X92448000Y1510500D01*
X92956000Y1510500D01*
X92956000Y1029500D01*
G37*
G36*
X28956000Y55504500D02*
G01*
X28448000Y55504500D01*
X28448000Y55985500D01*
X28956000Y55985500D01*
X28956000Y55504500D01*
G37*
G36*
X92956000Y55504500D02*
G01*
X92448000Y55504500D01*
X92448000Y55985500D01*
X92956000Y55985500D01*
X92956000Y55504500D01*
G37*
G36*
X28956000Y109979500D02*
G01*
X28448000Y109979500D01*
X28448000Y110460500D01*
X28956000Y110460500D01*
X28956000Y109979500D01*
G37*
G36*
X92956000Y109979500D02*
G01*
X92448000Y109979500D01*
X92448000Y110460500D01*
X92956000Y110460500D01*
X92956000Y109979500D01*
G37*
%TO.C,JP13*%
G36*
X50419000Y35954500D02*
G01*
X49911000Y35954500D01*
X49911000Y36435500D01*
X50419000Y36435500D01*
X50419000Y35954500D01*
G37*
G36*
X50419000Y144904500D02*
G01*
X49911000Y144904500D01*
X49911000Y145385500D01*
X50419000Y145385500D01*
X50419000Y144904500D01*
G37*
G36*
X114419000Y35954500D02*
G01*
X113911000Y35954500D01*
X113911000Y36435500D01*
X114419000Y36435500D01*
X114419000Y35954500D01*
G37*
G36*
X114419000Y90429500D02*
G01*
X113911000Y90429500D01*
X113911000Y90910500D01*
X114419000Y90910500D01*
X114419000Y90429500D01*
G37*
G36*
X50419000Y90429500D02*
G01*
X49911000Y90429500D01*
X49911000Y90910500D01*
X50419000Y90910500D01*
X50419000Y90429500D01*
G37*
G36*
X114419000Y144904500D02*
G01*
X113911000Y144904500D01*
X113911000Y145385500D01*
X114419000Y145385500D01*
X114419000Y144904500D01*
G37*
%TO.C,JP7*%
G36*
X32004000Y2934500D02*
G01*
X31496000Y2934500D01*
X31496000Y3415500D01*
X32004000Y3415500D01*
X32004000Y2934500D01*
G37*
G36*
X32004000Y57409500D02*
G01*
X31496000Y57409500D01*
X31496000Y57890500D01*
X32004000Y57890500D01*
X32004000Y57409500D01*
G37*
G36*
X32004000Y111884500D02*
G01*
X31496000Y111884500D01*
X31496000Y112365500D01*
X32004000Y112365500D01*
X32004000Y111884500D01*
G37*
G36*
X96004000Y2934500D02*
G01*
X95496000Y2934500D01*
X95496000Y3415500D01*
X96004000Y3415500D01*
X96004000Y2934500D01*
G37*
G36*
X96004000Y57409500D02*
G01*
X95496000Y57409500D01*
X95496000Y57890500D01*
X96004000Y57890500D01*
X96004000Y57409500D01*
G37*
G36*
X96004000Y111884500D02*
G01*
X95496000Y111884500D01*
X95496000Y112365500D01*
X96004000Y112365500D01*
X96004000Y111884500D01*
G37*
%TO.C,JP5*%
G36*
X16243300Y46114500D02*
G01*
X15735300Y46114500D01*
X15735300Y46595500D01*
X16243300Y46595500D01*
X16243300Y46114500D01*
G37*
G36*
X17276000Y46091500D02*
G01*
X16768000Y46091500D01*
X16768000Y46572500D01*
X17276000Y46572500D01*
X17276000Y46091500D01*
G37*
G36*
X16243300Y100589500D02*
G01*
X15735300Y100589500D01*
X15735300Y101070500D01*
X16243300Y101070500D01*
X16243300Y100589500D01*
G37*
G36*
X17276000Y100566500D02*
G01*
X16768000Y100566500D01*
X16768000Y101047500D01*
X17276000Y101047500D01*
X17276000Y100566500D01*
G37*
G36*
X80243300Y100589500D02*
G01*
X79735300Y100589500D01*
X79735300Y101070500D01*
X80243300Y101070500D01*
X80243300Y100589500D01*
G37*
G36*
X81276000Y100566500D02*
G01*
X80768000Y100566500D01*
X80768000Y101047500D01*
X81276000Y101047500D01*
X81276000Y100566500D01*
G37*
G36*
X16243300Y155064500D02*
G01*
X15735300Y155064500D01*
X15735300Y155545500D01*
X16243300Y155545500D01*
X16243300Y155064500D01*
G37*
G36*
X17276000Y155041500D02*
G01*
X16768000Y155041500D01*
X16768000Y155522500D01*
X17276000Y155522500D01*
X17276000Y155041500D01*
G37*
G36*
X80243300Y46114500D02*
G01*
X79735300Y46114500D01*
X79735300Y46595500D01*
X80243300Y46595500D01*
X80243300Y46114500D01*
G37*
G36*
X81276000Y46091500D02*
G01*
X80768000Y46091500D01*
X80768000Y46572500D01*
X81276000Y46572500D01*
X81276000Y46091500D01*
G37*
G36*
X80243300Y155064500D02*
G01*
X79735300Y155064500D01*
X79735300Y155545500D01*
X80243300Y155545500D01*
X80243300Y155064500D01*
G37*
G36*
X81276000Y155041500D02*
G01*
X80768000Y155041500D01*
X80768000Y155522500D01*
X81276000Y155522500D01*
X81276000Y155041500D01*
G37*
%TO.C,JP9*%
G36*
X52324000Y28334500D02*
G01*
X51816000Y28334500D01*
X51816000Y28815500D01*
X52324000Y28815500D01*
X52324000Y28334500D01*
G37*
G36*
X52324000Y137284500D02*
G01*
X51816000Y137284500D01*
X51816000Y137765500D01*
X52324000Y137765500D01*
X52324000Y137284500D01*
G37*
G36*
X116324000Y28334500D02*
G01*
X115816000Y28334500D01*
X115816000Y28815500D01*
X116324000Y28815500D01*
X116324000Y28334500D01*
G37*
G36*
X116324000Y82809500D02*
G01*
X115816000Y82809500D01*
X115816000Y83290500D01*
X116324000Y83290500D01*
X116324000Y82809500D01*
G37*
G36*
X52324000Y82809500D02*
G01*
X51816000Y82809500D01*
X51816000Y83290500D01*
X52324000Y83290500D01*
X52324000Y82809500D01*
G37*
G36*
X116324000Y137284500D02*
G01*
X115816000Y137284500D01*
X115816000Y137765500D01*
X116324000Y137765500D01*
X116324000Y137284500D01*
G37*
%TO.C,JP14*%
G36*
X12940500Y17526000D02*
G01*
X12459500Y17526000D01*
X12459500Y18034000D01*
X12940500Y18034000D01*
X12940500Y17526000D01*
G37*
G36*
X76940500Y17526000D02*
G01*
X76459500Y17526000D01*
X76459500Y18034000D01*
X76940500Y18034000D01*
X76940500Y17526000D01*
G37*
G36*
X76940500Y126476000D02*
G01*
X76459500Y126476000D01*
X76459500Y126984000D01*
X76940500Y126984000D01*
X76940500Y126476000D01*
G37*
G36*
X12940500Y72001000D02*
G01*
X12459500Y72001000D01*
X12459500Y72509000D01*
X12940500Y72509000D01*
X12940500Y72001000D01*
G37*
G36*
X12940500Y126476000D02*
G01*
X12459500Y126476000D01*
X12459500Y126984000D01*
X12940500Y126984000D01*
X12940500Y126476000D01*
G37*
G36*
X76940500Y72001000D02*
G01*
X76459500Y72001000D01*
X76459500Y72509000D01*
X76940500Y72509000D01*
X76940500Y72001000D01*
G37*
%TO.C,JP11*%
G36*
X13589000Y34684500D02*
G01*
X13081000Y34684500D01*
X13081000Y35165500D01*
X13589000Y35165500D01*
X13589000Y34684500D01*
G37*
G36*
X77589000Y89159500D02*
G01*
X77081000Y89159500D01*
X77081000Y89640500D01*
X77589000Y89640500D01*
X77589000Y89159500D01*
G37*
G36*
X13589000Y89159500D02*
G01*
X13081000Y89159500D01*
X13081000Y89640500D01*
X13589000Y89640500D01*
X13589000Y89159500D01*
G37*
G36*
X13589000Y143634500D02*
G01*
X13081000Y143634500D01*
X13081000Y144115500D01*
X13589000Y144115500D01*
X13589000Y143634500D01*
G37*
G36*
X77589000Y34684500D02*
G01*
X77081000Y34684500D01*
X77081000Y35165500D01*
X77589000Y35165500D01*
X77589000Y34684500D01*
G37*
G36*
X77589000Y143634500D02*
G01*
X77081000Y143634500D01*
X77081000Y144115500D01*
X77589000Y144115500D01*
X77589000Y143634500D01*
G37*
%TD*%
D11*
%TO.C,J1*%
X12700000Y8001000D03*
D12*
X17399000Y11049000D03*
D13*
X12700000Y13970000D03*
%TD*%
D11*
%TO.C,J1*%
X76700000Y62476000D03*
D12*
X81399000Y65524000D03*
D13*
X76700000Y68445000D03*
%TD*%
D11*
%TO.C,J1*%
X76700000Y116951000D03*
D12*
X81399000Y119999000D03*
D13*
X76700000Y122920000D03*
%TD*%
D11*
%TO.C,J1*%
X12700000Y62476000D03*
D12*
X17399000Y65524000D03*
D13*
X12700000Y68445000D03*
%TD*%
D11*
%TO.C,J1*%
X12700000Y116951000D03*
D12*
X17399000Y119999000D03*
D13*
X12700000Y122920000D03*
%TD*%
D11*
%TO.C,J1*%
X76700000Y8001000D03*
D12*
X81399000Y11049000D03*
D13*
X76700000Y13970000D03*
%TD*%
D14*
%TO.C,ST4*%
X60960000Y2540000D03*
%TD*%
%TO.C,ST4*%
X60960000Y57015000D03*
%TD*%
%TO.C,ST4*%
X124960000Y2540000D03*
%TD*%
%TO.C,ST4*%
X124960000Y111490000D03*
%TD*%
%TO.C,ST4*%
X60960000Y111490000D03*
%TD*%
%TO.C,ST4*%
X124960000Y57015000D03*
%TD*%
D15*
%TO.C,SW1*%
X50395000Y3175000D03*
X47395000Y3175000D03*
%TD*%
%TO.C,SW1*%
X50395000Y112125000D03*
X47395000Y112125000D03*
%TD*%
%TO.C,SW1*%
X114395000Y3175000D03*
X111395000Y3175000D03*
%TD*%
%TO.C,SW1*%
X114395000Y57650000D03*
X111395000Y57650000D03*
%TD*%
%TO.C,SW1*%
X114395000Y112125000D03*
X111395000Y112125000D03*
%TD*%
%TO.C,SW1*%
X50395000Y57650000D03*
X47395000Y57650000D03*
%TD*%
D16*
%TO.C,J6*%
X22860000Y3175000D03*
X22860000Y5715000D03*
X22860000Y8255000D03*
X22860000Y10795000D03*
X22860000Y13335000D03*
X22860000Y15875000D03*
X22860000Y18415000D03*
X22860000Y20955000D03*
X22860000Y23495000D03*
X22860000Y26035000D03*
X22860000Y28575000D03*
X22860000Y31115000D03*
X22860000Y33655000D03*
X22860000Y36195000D03*
X22860000Y38735000D03*
X22860000Y41275000D03*
X22860000Y43815000D03*
X22860000Y46355000D03*
X22860000Y48895000D03*
X22860000Y51435000D03*
%TD*%
%TO.C,J6*%
X22860000Y112125000D03*
X22860000Y114665000D03*
X22860000Y117205000D03*
X22860000Y119745000D03*
X22860000Y122285000D03*
X22860000Y124825000D03*
X22860000Y127365000D03*
X22860000Y129905000D03*
X22860000Y132445000D03*
X22860000Y134985000D03*
X22860000Y137525000D03*
X22860000Y140065000D03*
X22860000Y142605000D03*
X22860000Y145145000D03*
X22860000Y147685000D03*
X22860000Y150225000D03*
X22860000Y152765000D03*
X22860000Y155305000D03*
X22860000Y157845000D03*
X22860000Y160385000D03*
%TD*%
%TO.C,J6*%
X86860000Y112125000D03*
X86860000Y114665000D03*
X86860000Y117205000D03*
X86860000Y119745000D03*
X86860000Y122285000D03*
X86860000Y124825000D03*
X86860000Y127365000D03*
X86860000Y129905000D03*
X86860000Y132445000D03*
X86860000Y134985000D03*
X86860000Y137525000D03*
X86860000Y140065000D03*
X86860000Y142605000D03*
X86860000Y145145000D03*
X86860000Y147685000D03*
X86860000Y150225000D03*
X86860000Y152765000D03*
X86860000Y155305000D03*
X86860000Y157845000D03*
X86860000Y160385000D03*
%TD*%
%TO.C,J6*%
X86860000Y3175000D03*
X86860000Y5715000D03*
X86860000Y8255000D03*
X86860000Y10795000D03*
X86860000Y13335000D03*
X86860000Y15875000D03*
X86860000Y18415000D03*
X86860000Y20955000D03*
X86860000Y23495000D03*
X86860000Y26035000D03*
X86860000Y28575000D03*
X86860000Y31115000D03*
X86860000Y33655000D03*
X86860000Y36195000D03*
X86860000Y38735000D03*
X86860000Y41275000D03*
X86860000Y43815000D03*
X86860000Y46355000D03*
X86860000Y48895000D03*
X86860000Y51435000D03*
%TD*%
%TO.C,J6*%
X22860000Y57650000D03*
X22860000Y60190000D03*
X22860000Y62730000D03*
X22860000Y65270000D03*
X22860000Y67810000D03*
X22860000Y70350000D03*
X22860000Y72890000D03*
X22860000Y75430000D03*
X22860000Y77970000D03*
X22860000Y80510000D03*
X22860000Y83050000D03*
X22860000Y85590000D03*
X22860000Y88130000D03*
X22860000Y90670000D03*
X22860000Y93210000D03*
X22860000Y95750000D03*
X22860000Y98290000D03*
X22860000Y100830000D03*
X22860000Y103370000D03*
X22860000Y105910000D03*
%TD*%
%TO.C,J6*%
X86860000Y57650000D03*
X86860000Y60190000D03*
X86860000Y62730000D03*
X86860000Y65270000D03*
X86860000Y67810000D03*
X86860000Y70350000D03*
X86860000Y72890000D03*
X86860000Y75430000D03*
X86860000Y77970000D03*
X86860000Y80510000D03*
X86860000Y83050000D03*
X86860000Y85590000D03*
X86860000Y88130000D03*
X86860000Y90670000D03*
X86860000Y93210000D03*
X86860000Y95750000D03*
X86860000Y98290000D03*
X86860000Y100830000D03*
X86860000Y103370000D03*
X86860000Y105910000D03*
%TD*%
%TO.C,J9*%
X62230000Y18415000D03*
X62230000Y20955000D03*
X62230000Y23495000D03*
%TD*%
%TO.C,J9*%
X62230000Y127365000D03*
X62230000Y129905000D03*
X62230000Y132445000D03*
%TD*%
%TO.C,J9*%
X62230000Y72890000D03*
X62230000Y75430000D03*
X62230000Y77970000D03*
%TD*%
%TO.C,J9*%
X126230000Y127365000D03*
X126230000Y129905000D03*
X126230000Y132445000D03*
%TD*%
%TO.C,J9*%
X126230000Y18415000D03*
X126230000Y20955000D03*
X126230000Y23495000D03*
%TD*%
%TO.C,J9*%
X126230000Y72890000D03*
X126230000Y75430000D03*
X126230000Y77970000D03*
%TD*%
D14*
%TO.C,ST3*%
X60960000Y51435000D03*
%TD*%
%TO.C,ST3*%
X60960000Y105910000D03*
%TD*%
%TO.C,ST3*%
X60960000Y160385000D03*
%TD*%
%TO.C,ST3*%
X124960000Y105910000D03*
%TD*%
%TO.C,ST3*%
X124960000Y51435000D03*
%TD*%
%TO.C,ST3*%
X124960000Y160385000D03*
%TD*%
D16*
%TO.C,J3*%
X30480000Y33655000D03*
X27940000Y33655000D03*
X25400000Y33655000D03*
%TD*%
%TO.C,J3*%
X30480000Y88130000D03*
X27940000Y88130000D03*
X25400000Y88130000D03*
%TD*%
%TO.C,J3*%
X94480000Y33655000D03*
X91940000Y33655000D03*
X89400000Y33655000D03*
%TD*%
%TO.C,J3*%
X30480000Y142605000D03*
X27940000Y142605000D03*
X25400000Y142605000D03*
%TD*%
%TO.C,J3*%
X94480000Y88130000D03*
X91940000Y88130000D03*
X89400000Y88130000D03*
%TD*%
%TO.C,J3*%
X94480000Y142605000D03*
X91940000Y142605000D03*
X89400000Y142605000D03*
%TD*%
D17*
%TO.C,J2*%
X28860000Y6556000D03*
X34640000Y6556000D03*
D18*
X27432000Y2906000D03*
D19*
X27432000Y7086000D03*
X36068000Y7086000D03*
D18*
X36068000Y2906000D03*
%TD*%
D17*
%TO.C,J2*%
X92860000Y61031000D03*
X98640000Y61031000D03*
D18*
X91432000Y57381000D03*
D19*
X91432000Y61561000D03*
X100068000Y61561000D03*
D18*
X100068000Y57381000D03*
%TD*%
D17*
%TO.C,J2*%
X28860000Y61031000D03*
X34640000Y61031000D03*
D18*
X27432000Y57381000D03*
D19*
X27432000Y61561000D03*
X36068000Y61561000D03*
D18*
X36068000Y57381000D03*
%TD*%
D17*
%TO.C,J2*%
X28860000Y115506000D03*
X34640000Y115506000D03*
D18*
X27432000Y111856000D03*
D19*
X27432000Y116036000D03*
X36068000Y116036000D03*
D18*
X36068000Y111856000D03*
%TD*%
D17*
%TO.C,J2*%
X92860000Y6556000D03*
X98640000Y6556000D03*
D18*
X91432000Y2906000D03*
D19*
X91432000Y7086000D03*
X100068000Y7086000D03*
D18*
X100068000Y2906000D03*
%TD*%
D17*
%TO.C,J2*%
X92860000Y115506000D03*
X98640000Y115506000D03*
D18*
X91432000Y111856000D03*
D19*
X91432000Y116036000D03*
X100068000Y116036000D03*
D18*
X100068000Y111856000D03*
%TD*%
D16*
%TO.C,J11*%
X62230000Y8255000D03*
X62230000Y10795000D03*
X62230000Y13335000D03*
%TD*%
%TO.C,J11*%
X126230000Y117205000D03*
X126230000Y119745000D03*
X126230000Y122285000D03*
%TD*%
%TO.C,J11*%
X62230000Y62730000D03*
X62230000Y65270000D03*
X62230000Y67810000D03*
%TD*%
%TO.C,J11*%
X126230000Y8255000D03*
X126230000Y10795000D03*
X126230000Y13335000D03*
%TD*%
%TO.C,J11*%
X126230000Y62730000D03*
X126230000Y65270000D03*
X126230000Y67810000D03*
%TD*%
%TO.C,J11*%
X62230000Y117205000D03*
X62230000Y119745000D03*
X62230000Y122285000D03*
%TD*%
%TO.C,J4*%
X43180000Y3175000D03*
X43180000Y5715000D03*
X43180000Y8255000D03*
X43180000Y10795000D03*
X43180000Y13335000D03*
X43180000Y15875000D03*
X43180000Y18415000D03*
X43180000Y20955000D03*
X43180000Y23495000D03*
X43180000Y26035000D03*
X43180000Y28575000D03*
X43180000Y31115000D03*
X43180000Y33655000D03*
X43180000Y36195000D03*
X43180000Y38735000D03*
X43180000Y41275000D03*
X43180000Y43815000D03*
X43180000Y46355000D03*
X43180000Y48895000D03*
X43180000Y51435000D03*
%TD*%
%TO.C,J4*%
X107180000Y112125000D03*
X107180000Y114665000D03*
X107180000Y117205000D03*
X107180000Y119745000D03*
X107180000Y122285000D03*
X107180000Y124825000D03*
X107180000Y127365000D03*
X107180000Y129905000D03*
X107180000Y132445000D03*
X107180000Y134985000D03*
X107180000Y137525000D03*
X107180000Y140065000D03*
X107180000Y142605000D03*
X107180000Y145145000D03*
X107180000Y147685000D03*
X107180000Y150225000D03*
X107180000Y152765000D03*
X107180000Y155305000D03*
X107180000Y157845000D03*
X107180000Y160385000D03*
%TD*%
%TO.C,J4*%
X43180000Y57650000D03*
X43180000Y60190000D03*
X43180000Y62730000D03*
X43180000Y65270000D03*
X43180000Y67810000D03*
X43180000Y70350000D03*
X43180000Y72890000D03*
X43180000Y75430000D03*
X43180000Y77970000D03*
X43180000Y80510000D03*
X43180000Y83050000D03*
X43180000Y85590000D03*
X43180000Y88130000D03*
X43180000Y90670000D03*
X43180000Y93210000D03*
X43180000Y95750000D03*
X43180000Y98290000D03*
X43180000Y100830000D03*
X43180000Y103370000D03*
X43180000Y105910000D03*
%TD*%
%TO.C,J4*%
X43180000Y112125000D03*
X43180000Y114665000D03*
X43180000Y117205000D03*
X43180000Y119745000D03*
X43180000Y122285000D03*
X43180000Y124825000D03*
X43180000Y127365000D03*
X43180000Y129905000D03*
X43180000Y132445000D03*
X43180000Y134985000D03*
X43180000Y137525000D03*
X43180000Y140065000D03*
X43180000Y142605000D03*
X43180000Y145145000D03*
X43180000Y147685000D03*
X43180000Y150225000D03*
X43180000Y152765000D03*
X43180000Y155305000D03*
X43180000Y157845000D03*
X43180000Y160385000D03*
%TD*%
%TO.C,J4*%
X107180000Y57650000D03*
X107180000Y60190000D03*
X107180000Y62730000D03*
X107180000Y65270000D03*
X107180000Y67810000D03*
X107180000Y70350000D03*
X107180000Y72890000D03*
X107180000Y75430000D03*
X107180000Y77970000D03*
X107180000Y80510000D03*
X107180000Y83050000D03*
X107180000Y85590000D03*
X107180000Y88130000D03*
X107180000Y90670000D03*
X107180000Y93210000D03*
X107180000Y95750000D03*
X107180000Y98290000D03*
X107180000Y100830000D03*
X107180000Y103370000D03*
X107180000Y105910000D03*
%TD*%
%TO.C,J4*%
X107180000Y3175000D03*
X107180000Y5715000D03*
X107180000Y8255000D03*
X107180000Y10795000D03*
X107180000Y13335000D03*
X107180000Y15875000D03*
X107180000Y18415000D03*
X107180000Y20955000D03*
X107180000Y23495000D03*
X107180000Y26035000D03*
X107180000Y28575000D03*
X107180000Y31115000D03*
X107180000Y33655000D03*
X107180000Y36195000D03*
X107180000Y38735000D03*
X107180000Y41275000D03*
X107180000Y43815000D03*
X107180000Y46355000D03*
X107180000Y48895000D03*
X107180000Y51435000D03*
%TD*%
%TO.C,J8*%
X1270000Y18415000D03*
X1270000Y20955000D03*
X1270000Y23495000D03*
%TD*%
%TO.C,J8*%
X65270000Y72890000D03*
X65270000Y75430000D03*
X65270000Y77970000D03*
%TD*%
%TO.C,J8*%
X1270000Y72890000D03*
X1270000Y75430000D03*
X1270000Y77970000D03*
%TD*%
%TO.C,J8*%
X65270000Y127365000D03*
X65270000Y129905000D03*
X65270000Y132445000D03*
%TD*%
%TO.C,J8*%
X65270000Y18415000D03*
X65270000Y20955000D03*
X65270000Y23495000D03*
%TD*%
%TO.C,J8*%
X1270000Y127365000D03*
X1270000Y129905000D03*
X1270000Y132445000D03*
%TD*%
%TO.C,J10*%
X1270000Y8255000D03*
X1270000Y10795000D03*
X1270000Y13335000D03*
%TD*%
%TO.C,J10*%
X65270000Y117205000D03*
X65270000Y119745000D03*
X65270000Y122285000D03*
%TD*%
%TO.C,J10*%
X65270000Y8255000D03*
X65270000Y10795000D03*
X65270000Y13335000D03*
%TD*%
%TO.C,J10*%
X1270000Y117205000D03*
X1270000Y119745000D03*
X1270000Y122285000D03*
%TD*%
%TO.C,J10*%
X65270000Y62730000D03*
X65270000Y65270000D03*
X65270000Y67810000D03*
%TD*%
%TO.C,J10*%
X1270000Y62730000D03*
X1270000Y65270000D03*
X1270000Y67810000D03*
%TD*%
%TO.C,J5*%
X40640000Y3175000D03*
X40640000Y5715000D03*
X40640000Y8255000D03*
X40640000Y10795000D03*
X40640000Y13335000D03*
X40640000Y15875000D03*
X40640000Y18415000D03*
X40640000Y20955000D03*
X40640000Y23495000D03*
X40640000Y26035000D03*
X40640000Y28575000D03*
X40640000Y31115000D03*
X40640000Y33655000D03*
X40640000Y36195000D03*
X40640000Y38735000D03*
X40640000Y41275000D03*
X40640000Y43815000D03*
X40640000Y46355000D03*
X40640000Y48895000D03*
X40640000Y51435000D03*
%TD*%
%TO.C,J5*%
X40640000Y57650000D03*
X40640000Y60190000D03*
X40640000Y62730000D03*
X40640000Y65270000D03*
X40640000Y67810000D03*
X40640000Y70350000D03*
X40640000Y72890000D03*
X40640000Y75430000D03*
X40640000Y77970000D03*
X40640000Y80510000D03*
X40640000Y83050000D03*
X40640000Y85590000D03*
X40640000Y88130000D03*
X40640000Y90670000D03*
X40640000Y93210000D03*
X40640000Y95750000D03*
X40640000Y98290000D03*
X40640000Y100830000D03*
X40640000Y103370000D03*
X40640000Y105910000D03*
%TD*%
%TO.C,J5*%
X104640000Y57650000D03*
X104640000Y60190000D03*
X104640000Y62730000D03*
X104640000Y65270000D03*
X104640000Y67810000D03*
X104640000Y70350000D03*
X104640000Y72890000D03*
X104640000Y75430000D03*
X104640000Y77970000D03*
X104640000Y80510000D03*
X104640000Y83050000D03*
X104640000Y85590000D03*
X104640000Y88130000D03*
X104640000Y90670000D03*
X104640000Y93210000D03*
X104640000Y95750000D03*
X104640000Y98290000D03*
X104640000Y100830000D03*
X104640000Y103370000D03*
X104640000Y105910000D03*
%TD*%
%TO.C,J5*%
X104640000Y3175000D03*
X104640000Y5715000D03*
X104640000Y8255000D03*
X104640000Y10795000D03*
X104640000Y13335000D03*
X104640000Y15875000D03*
X104640000Y18415000D03*
X104640000Y20955000D03*
X104640000Y23495000D03*
X104640000Y26035000D03*
X104640000Y28575000D03*
X104640000Y31115000D03*
X104640000Y33655000D03*
X104640000Y36195000D03*
X104640000Y38735000D03*
X104640000Y41275000D03*
X104640000Y43815000D03*
X104640000Y46355000D03*
X104640000Y48895000D03*
X104640000Y51435000D03*
%TD*%
%TO.C,J5*%
X40640000Y112125000D03*
X40640000Y114665000D03*
X40640000Y117205000D03*
X40640000Y119745000D03*
X40640000Y122285000D03*
X40640000Y124825000D03*
X40640000Y127365000D03*
X40640000Y129905000D03*
X40640000Y132445000D03*
X40640000Y134985000D03*
X40640000Y137525000D03*
X40640000Y140065000D03*
X40640000Y142605000D03*
X40640000Y145145000D03*
X40640000Y147685000D03*
X40640000Y150225000D03*
X40640000Y152765000D03*
X40640000Y155305000D03*
X40640000Y157845000D03*
X40640000Y160385000D03*
%TD*%
%TO.C,J5*%
X104640000Y112125000D03*
X104640000Y114665000D03*
X104640000Y117205000D03*
X104640000Y119745000D03*
X104640000Y122285000D03*
X104640000Y124825000D03*
X104640000Y127365000D03*
X104640000Y129905000D03*
X104640000Y132445000D03*
X104640000Y134985000D03*
X104640000Y137525000D03*
X104640000Y140065000D03*
X104640000Y142605000D03*
X104640000Y145145000D03*
X104640000Y147685000D03*
X104640000Y150225000D03*
X104640000Y152765000D03*
X104640000Y155305000D03*
X104640000Y157845000D03*
X104640000Y160385000D03*
%TD*%
D14*
%TO.C,ST1*%
X2540000Y51435000D03*
%TD*%
%TO.C,ST1*%
X2540000Y105910000D03*
%TD*%
%TO.C,ST1*%
X2540000Y160385000D03*
%TD*%
%TO.C,ST1*%
X66540000Y160385000D03*
%TD*%
%TO.C,ST1*%
X66540000Y105910000D03*
%TD*%
%TO.C,ST1*%
X66540000Y51435000D03*
%TD*%
D16*
%TO.C,J7*%
X20320000Y3175000D03*
X20320000Y5715000D03*
X20320000Y8255000D03*
X20320000Y10795000D03*
X20320000Y13335000D03*
X20320000Y15875000D03*
X20320000Y18415000D03*
X20320000Y20955000D03*
X20320000Y23495000D03*
X20320000Y26035000D03*
X20320000Y28575000D03*
X20320000Y31115000D03*
X20320000Y33655000D03*
X20320000Y36195000D03*
X20320000Y38735000D03*
X20320000Y41275000D03*
X20320000Y43815000D03*
X20320000Y46355000D03*
X20320000Y48895000D03*
X20320000Y51435000D03*
%TD*%
%TO.C,J7*%
X20320000Y112125000D03*
X20320000Y114665000D03*
X20320000Y117205000D03*
X20320000Y119745000D03*
X20320000Y122285000D03*
X20320000Y124825000D03*
X20320000Y127365000D03*
X20320000Y129905000D03*
X20320000Y132445000D03*
X20320000Y134985000D03*
X20320000Y137525000D03*
X20320000Y140065000D03*
X20320000Y142605000D03*
X20320000Y145145000D03*
X20320000Y147685000D03*
X20320000Y150225000D03*
X20320000Y152765000D03*
X20320000Y155305000D03*
X20320000Y157845000D03*
X20320000Y160385000D03*
%TD*%
%TO.C,J7*%
X20320000Y57650000D03*
X20320000Y60190000D03*
X20320000Y62730000D03*
X20320000Y65270000D03*
X20320000Y67810000D03*
X20320000Y70350000D03*
X20320000Y72890000D03*
X20320000Y75430000D03*
X20320000Y77970000D03*
X20320000Y80510000D03*
X20320000Y83050000D03*
X20320000Y85590000D03*
X20320000Y88130000D03*
X20320000Y90670000D03*
X20320000Y93210000D03*
X20320000Y95750000D03*
X20320000Y98290000D03*
X20320000Y100830000D03*
X20320000Y103370000D03*
X20320000Y105910000D03*
%TD*%
%TO.C,J7*%
X84320000Y3175000D03*
X84320000Y5715000D03*
X84320000Y8255000D03*
X84320000Y10795000D03*
X84320000Y13335000D03*
X84320000Y15875000D03*
X84320000Y18415000D03*
X84320000Y20955000D03*
X84320000Y23495000D03*
X84320000Y26035000D03*
X84320000Y28575000D03*
X84320000Y31115000D03*
X84320000Y33655000D03*
X84320000Y36195000D03*
X84320000Y38735000D03*
X84320000Y41275000D03*
X84320000Y43815000D03*
X84320000Y46355000D03*
X84320000Y48895000D03*
X84320000Y51435000D03*
%TD*%
%TO.C,J7*%
X84320000Y57650000D03*
X84320000Y60190000D03*
X84320000Y62730000D03*
X84320000Y65270000D03*
X84320000Y67810000D03*
X84320000Y70350000D03*
X84320000Y72890000D03*
X84320000Y75430000D03*
X84320000Y77970000D03*
X84320000Y80510000D03*
X84320000Y83050000D03*
X84320000Y85590000D03*
X84320000Y88130000D03*
X84320000Y90670000D03*
X84320000Y93210000D03*
X84320000Y95750000D03*
X84320000Y98290000D03*
X84320000Y100830000D03*
X84320000Y103370000D03*
X84320000Y105910000D03*
%TD*%
%TO.C,J7*%
X84320000Y112125000D03*
X84320000Y114665000D03*
X84320000Y117205000D03*
X84320000Y119745000D03*
X84320000Y122285000D03*
X84320000Y124825000D03*
X84320000Y127365000D03*
X84320000Y129905000D03*
X84320000Y132445000D03*
X84320000Y134985000D03*
X84320000Y137525000D03*
X84320000Y140065000D03*
X84320000Y142605000D03*
X84320000Y145145000D03*
X84320000Y147685000D03*
X84320000Y150225000D03*
X84320000Y152765000D03*
X84320000Y155305000D03*
X84320000Y157845000D03*
X84320000Y160385000D03*
%TD*%
D14*
%TO.C,ST2*%
X2540000Y2540000D03*
%TD*%
%TO.C,ST2*%
X2540000Y57015000D03*
%TD*%
%TO.C,ST2*%
X2540000Y111490000D03*
%TD*%
%TO.C,ST2*%
X66540000Y111490000D03*
%TD*%
%TO.C,ST2*%
X66540000Y57015000D03*
%TD*%
%TO.C,ST2*%
X66540000Y2540000D03*
%TD*%
D20*
%TO.C,FID3*%
X5715000Y635000D03*
%TD*%
%TO.C,FID3*%
X69715000Y109585000D03*
%TD*%
%TO.C,FID3*%
X69715000Y55110000D03*
%TD*%
%TO.C,FID3*%
X5715000Y55110000D03*
%TD*%
%TO.C,FID3*%
X5715000Y109585000D03*
%TD*%
%TO.C,FID3*%
X69715000Y635000D03*
%TD*%
D21*
%TO.C,TP12*%
X56388000Y34925000D03*
%TD*%
%TO.C,TP12*%
X56388000Y89400000D03*
%TD*%
%TO.C,TP12*%
X56388000Y143875000D03*
%TD*%
%TO.C,TP12*%
X120388000Y143875000D03*
%TD*%
%TO.C,TP12*%
X120388000Y34925000D03*
%TD*%
%TO.C,TP12*%
X120388000Y89400000D03*
%TD*%
D22*
%TO.C,JP12*%
X50685700Y31115000D03*
X49644300Y31115000D03*
%TD*%
%TO.C,JP12*%
X114685700Y31115000D03*
X113644300Y31115000D03*
%TD*%
%TO.C,JP12*%
X114685700Y85590000D03*
X113644300Y85590000D03*
%TD*%
%TO.C,JP12*%
X114685700Y140065000D03*
X113644300Y140065000D03*
%TD*%
%TO.C,JP12*%
X50685700Y140065000D03*
X49644300Y140065000D03*
%TD*%
%TO.C,JP12*%
X50685700Y85590000D03*
X49644300Y85590000D03*
%TD*%
D21*
%TO.C,TP5*%
X7112000Y41275000D03*
%TD*%
%TO.C,TP5*%
X71112000Y95750000D03*
%TD*%
%TO.C,TP5*%
X7112000Y95750000D03*
%TD*%
%TO.C,TP5*%
X71112000Y41275000D03*
%TD*%
%TO.C,TP5*%
X7112000Y150225000D03*
%TD*%
%TO.C,TP5*%
X71112000Y150225000D03*
%TD*%
D23*
%TO.C,JP10*%
X12814300Y40005000D03*
X13855700Y40005000D03*
%TD*%
%TO.C,JP10*%
X76814300Y40005000D03*
X77855700Y40005000D03*
%TD*%
%TO.C,JP10*%
X12814300Y94480000D03*
X13855700Y94480000D03*
%TD*%
%TO.C,JP10*%
X12814300Y148955000D03*
X13855700Y148955000D03*
%TD*%
%TO.C,JP10*%
X76814300Y94480000D03*
X77855700Y94480000D03*
%TD*%
%TO.C,JP10*%
X76814300Y148955000D03*
X77855700Y148955000D03*
%TD*%
D24*
%TO.C,*%
X2000000Y165012500D03*
%TD*%
D22*
%TO.C,JP6*%
X48031400Y46355000D03*
X46990000Y46355000D03*
D23*
X45948600Y46355000D03*
%TD*%
D22*
%TO.C,JP6*%
X112031400Y100830000D03*
X110990000Y100830000D03*
D23*
X109948600Y100830000D03*
%TD*%
D22*
%TO.C,JP6*%
X48031400Y155305000D03*
X46990000Y155305000D03*
D23*
X45948600Y155305000D03*
%TD*%
D22*
%TO.C,JP6*%
X48031400Y100830000D03*
X46990000Y100830000D03*
D23*
X45948600Y100830000D03*
%TD*%
D22*
%TO.C,JP6*%
X112031400Y46355000D03*
X110990000Y46355000D03*
D23*
X109948600Y46355000D03*
%TD*%
D22*
%TO.C,JP6*%
X112031400Y155305000D03*
X110990000Y155305000D03*
D23*
X109948600Y155305000D03*
%TD*%
D21*
%TO.C,TP2*%
X28575000Y12065000D03*
%TD*%
%TO.C,TP2*%
X92575000Y12065000D03*
%TD*%
%TO.C,TP2*%
X28575000Y121015000D03*
%TD*%
%TO.C,TP2*%
X92575000Y66540000D03*
%TD*%
%TO.C,TP2*%
X92575000Y121015000D03*
%TD*%
%TO.C,TP2*%
X28575000Y66540000D03*
%TD*%
%TO.C,TP6*%
X7112000Y38735000D03*
%TD*%
%TO.C,TP6*%
X71112000Y93210000D03*
%TD*%
%TO.C,TP6*%
X71112000Y147685000D03*
%TD*%
%TO.C,TP6*%
X7112000Y147685000D03*
%TD*%
%TO.C,TP6*%
X71112000Y38735000D03*
%TD*%
%TO.C,TP6*%
X7112000Y93210000D03*
%TD*%
D20*
%TO.C,FID2*%
X62865000Y48260000D03*
%TD*%
%TO.C,FID2*%
X62865000Y102735000D03*
%TD*%
%TO.C,FID2*%
X126865000Y102735000D03*
%TD*%
%TO.C,FID2*%
X126865000Y48260000D03*
%TD*%
%TO.C,FID2*%
X62865000Y157210000D03*
%TD*%
%TO.C,FID2*%
X126865000Y157210000D03*
%TD*%
D21*
%TO.C,TP8*%
X7112000Y36195000D03*
%TD*%
%TO.C,TP8*%
X71112000Y145145000D03*
%TD*%
%TO.C,TP8*%
X7112000Y90670000D03*
%TD*%
%TO.C,TP8*%
X7112000Y145145000D03*
%TD*%
%TO.C,TP8*%
X71112000Y36195000D03*
%TD*%
%TO.C,TP8*%
X71112000Y90670000D03*
%TD*%
D23*
%TO.C,JP2*%
X34277300Y1270000D03*
X35318700Y1270000D03*
%TD*%
%TO.C,JP2*%
X98277300Y1270000D03*
X99318700Y1270000D03*
%TD*%
%TO.C,JP2*%
X34277300Y110220000D03*
X35318700Y110220000D03*
%TD*%
%TO.C,JP2*%
X98277300Y55745000D03*
X99318700Y55745000D03*
%TD*%
%TO.C,JP2*%
X98277300Y110220000D03*
X99318700Y110220000D03*
%TD*%
%TO.C,JP2*%
X34277300Y55745000D03*
X35318700Y55745000D03*
%TD*%
D22*
%TO.C,JP8*%
X11950700Y42545000D03*
X10909300Y42545000D03*
%TD*%
%TO.C,JP8*%
X75950700Y151495000D03*
X74909300Y151495000D03*
%TD*%
%TO.C,JP8*%
X11950700Y97020000D03*
X10909300Y97020000D03*
%TD*%
%TO.C,JP8*%
X75950700Y97020000D03*
X74909300Y97020000D03*
%TD*%
%TO.C,JP8*%
X11950700Y151495000D03*
X10909300Y151495000D03*
%TD*%
%TO.C,JP8*%
X75950700Y42545000D03*
X74909300Y42545000D03*
%TD*%
D21*
%TO.C,TP7*%
X7112000Y33655000D03*
%TD*%
%TO.C,TP7*%
X7112000Y88130000D03*
%TD*%
%TO.C,TP7*%
X71112000Y142605000D03*
%TD*%
%TO.C,TP7*%
X7112000Y142605000D03*
%TD*%
%TO.C,TP7*%
X71112000Y33655000D03*
%TD*%
%TO.C,TP7*%
X71112000Y88130000D03*
%TD*%
D25*
%TO.C,JP3*%
X8255000Y17373600D03*
X8255000Y18186400D03*
%TD*%
%TO.C,JP3*%
X72255000Y126323600D03*
X72255000Y127136400D03*
%TD*%
%TO.C,JP3*%
X8255000Y71848600D03*
X8255000Y72661400D03*
%TD*%
%TO.C,JP3*%
X72255000Y71848600D03*
X72255000Y72661400D03*
%TD*%
%TO.C,JP3*%
X8255000Y126323600D03*
X8255000Y127136400D03*
%TD*%
%TO.C,JP3*%
X72255000Y17373600D03*
X72255000Y18186400D03*
%TD*%
D23*
%TO.C,JP4*%
X48374300Y24130000D03*
X49415700Y24130000D03*
%TD*%
%TO.C,JP4*%
X48374300Y78605000D03*
X49415700Y78605000D03*
%TD*%
%TO.C,JP4*%
X48374300Y133080000D03*
X49415700Y133080000D03*
%TD*%
%TO.C,JP4*%
X112374300Y24130000D03*
X113415700Y24130000D03*
%TD*%
%TO.C,JP4*%
X112374300Y78605000D03*
X113415700Y78605000D03*
%TD*%
%TO.C,JP4*%
X112374300Y133080000D03*
X113415700Y133080000D03*
%TD*%
D22*
%TO.C,JP1*%
X29222700Y1270000D03*
X28181300Y1270000D03*
%TD*%
%TO.C,JP1*%
X93222700Y1270000D03*
X92181300Y1270000D03*
%TD*%
%TO.C,JP1*%
X29222700Y55745000D03*
X28181300Y55745000D03*
%TD*%
%TO.C,JP1*%
X93222700Y55745000D03*
X92181300Y55745000D03*
%TD*%
%TO.C,JP1*%
X29222700Y110220000D03*
X28181300Y110220000D03*
%TD*%
%TO.C,JP1*%
X93222700Y110220000D03*
X92181300Y110220000D03*
%TD*%
%TO.C,JP13*%
X50685700Y36195000D03*
X49644300Y36195000D03*
%TD*%
%TO.C,JP13*%
X50685700Y145145000D03*
X49644300Y145145000D03*
%TD*%
%TO.C,JP13*%
X114685700Y36195000D03*
X113644300Y36195000D03*
%TD*%
%TO.C,JP13*%
X114685700Y90670000D03*
X113644300Y90670000D03*
%TD*%
%TO.C,JP13*%
X50685700Y90670000D03*
X49644300Y90670000D03*
%TD*%
%TO.C,JP13*%
X114685700Y145145000D03*
X113644300Y145145000D03*
%TD*%
D21*
%TO.C,TP1*%
X32385000Y12065000D03*
%TD*%
%TO.C,TP1*%
X96385000Y121015000D03*
%TD*%
%TO.C,TP1*%
X32385000Y66540000D03*
%TD*%
%TO.C,TP1*%
X32385000Y121015000D03*
%TD*%
%TO.C,TP1*%
X96385000Y66540000D03*
%TD*%
%TO.C,TP1*%
X96385000Y12065000D03*
%TD*%
%TO.C,TP11*%
X56388000Y37465000D03*
%TD*%
%TO.C,TP11*%
X56388000Y91940000D03*
%TD*%
%TO.C,TP11*%
X120388000Y37465000D03*
%TD*%
%TO.C,TP11*%
X56388000Y146415000D03*
%TD*%
%TO.C,TP11*%
X120388000Y91940000D03*
%TD*%
%TO.C,TP11*%
X120388000Y146415000D03*
%TD*%
D22*
%TO.C,JP7*%
X32270700Y3175000D03*
X31229300Y3175000D03*
%TD*%
%TO.C,JP7*%
X32270700Y57650000D03*
X31229300Y57650000D03*
%TD*%
%TO.C,JP7*%
X32270700Y112125000D03*
X31229300Y112125000D03*
%TD*%
%TO.C,JP7*%
X96270700Y3175000D03*
X95229300Y3175000D03*
%TD*%
%TO.C,JP7*%
X96270700Y57650000D03*
X95229300Y57650000D03*
%TD*%
%TO.C,JP7*%
X96270700Y112125000D03*
X95229300Y112125000D03*
%TD*%
D24*
%TO.C,*%
X125500000Y165012500D03*
%TD*%
D21*
%TO.C,TP4*%
X8255000Y15240000D03*
%TD*%
%TO.C,TP4*%
X72255000Y15240000D03*
%TD*%
%TO.C,TP4*%
X8255000Y124190000D03*
%TD*%
%TO.C,TP4*%
X8255000Y69715000D03*
%TD*%
%TO.C,TP4*%
X72255000Y124190000D03*
%TD*%
%TO.C,TP4*%
X72255000Y69715000D03*
%TD*%
D23*
%TO.C,JP5*%
X15468600Y46355000D03*
X16510000Y46355000D03*
D22*
X17551400Y46355000D03*
%TD*%
D23*
%TO.C,JP5*%
X15468600Y100830000D03*
X16510000Y100830000D03*
D22*
X17551400Y100830000D03*
%TD*%
D23*
%TO.C,JP5*%
X79468600Y100830000D03*
X80510000Y100830000D03*
D22*
X81551400Y100830000D03*
%TD*%
D23*
%TO.C,JP5*%
X15468600Y155305000D03*
X16510000Y155305000D03*
D22*
X17551400Y155305000D03*
%TD*%
D23*
%TO.C,JP5*%
X79468600Y46355000D03*
X80510000Y46355000D03*
D22*
X81551400Y46355000D03*
%TD*%
D23*
%TO.C,JP5*%
X79468600Y155305000D03*
X80510000Y155305000D03*
D22*
X81551400Y155305000D03*
%TD*%
D23*
%TO.C,JP9*%
X51549300Y28575000D03*
X52590700Y28575000D03*
%TD*%
%TO.C,JP9*%
X51549300Y137525000D03*
X52590700Y137525000D03*
%TD*%
%TO.C,JP9*%
X115549300Y28575000D03*
X116590700Y28575000D03*
%TD*%
%TO.C,JP9*%
X115549300Y83050000D03*
X116590700Y83050000D03*
%TD*%
%TO.C,JP9*%
X51549300Y83050000D03*
X52590700Y83050000D03*
%TD*%
%TO.C,JP9*%
X115549300Y137525000D03*
X116590700Y137525000D03*
%TD*%
D26*
%TO.C,JP14*%
X12700000Y17259300D03*
X12700000Y18300700D03*
%TD*%
%TO.C,JP14*%
X76700000Y17259300D03*
X76700000Y18300700D03*
%TD*%
%TO.C,JP14*%
X76700000Y126209300D03*
X76700000Y127250700D03*
%TD*%
%TO.C,JP14*%
X12700000Y71734300D03*
X12700000Y72775700D03*
%TD*%
%TO.C,JP14*%
X12700000Y126209300D03*
X12700000Y127250700D03*
%TD*%
%TO.C,JP14*%
X76700000Y71734300D03*
X76700000Y72775700D03*
%TD*%
D24*
%TO.C,*%
X2000000Y-2087500D03*
%TD*%
D23*
%TO.C,JP11*%
X12814300Y34925000D03*
X13855700Y34925000D03*
%TD*%
%TO.C,JP11*%
X76814300Y89400000D03*
X77855700Y89400000D03*
%TD*%
%TO.C,JP11*%
X12814300Y89400000D03*
X13855700Y89400000D03*
%TD*%
%TO.C,JP11*%
X12814300Y143875000D03*
X13855700Y143875000D03*
%TD*%
%TO.C,JP11*%
X76814300Y34925000D03*
X77855700Y34925000D03*
%TD*%
%TO.C,JP11*%
X76814300Y143875000D03*
X77855700Y143875000D03*
%TD*%
D21*
%TO.C,TP10*%
X56388000Y32385000D03*
%TD*%
%TO.C,TP10*%
X120388000Y141335000D03*
%TD*%
%TO.C,TP10*%
X120388000Y32385000D03*
%TD*%
%TO.C,TP10*%
X56388000Y141335000D03*
%TD*%
%TO.C,TP10*%
X56388000Y86860000D03*
%TD*%
%TO.C,TP10*%
X120388000Y86860000D03*
%TD*%
%TO.C,TP9*%
X56388000Y29845000D03*
%TD*%
%TO.C,TP9*%
X56388000Y138795000D03*
%TD*%
%TO.C,TP9*%
X56388000Y84320000D03*
%TD*%
%TO.C,TP9*%
X120388000Y84320000D03*
%TD*%
%TO.C,TP9*%
X120388000Y29845000D03*
%TD*%
%TO.C,TP9*%
X120388000Y138795000D03*
%TD*%
M02*
